<?xml version="1.0" encoding="UTF-8" standalone="no"?>
<svg
   version="1.1"
   width="145.54681mm"
   height="116.42384mm"
   viewBox="0 0 145.54682 116.42383"
   id="svg832"
   sodipodi:docname="925bbf2d2874bfa316a84389bde236b7.svg"
   xmlns:inkscape="http://www.inkscape.org/namespaces/inkscape"
   xmlns:sodipodi="http://sodipodi.sourceforge.net/DTD/sodipodi-0.dtd"
   xmlns="http://www.w3.org/2000/svg"
   xmlns:svg="http://www.w3.org/2000/svg">
  <defs
     id="defs836" />
  <sodipodi:namedview
     id="namedview834"
     pagecolor="#ffffff"
     bordercolor="#666666"
     borderopacity="1.0"
     inkscape:pageshadow="2"
     inkscape:pageopacity="0.0"
     inkscape:pagecheckerboard="0"
     inkscape:document-units="mm" />
  <title
     id="title2">SVG Image created as Sofle_Chico-brd.svg date 2024/03/04 13:28:41 </title>
  <desc
     id="desc4">Image generated by PCBNEW </desc>
  <g
     style="fill:#000000;fill-opacity:1;stroke:#000000;stroke-linecap:round;stroke-linejoin:round;stroke-opacity:1"
     id="g6"
     transform="translate(-2.3637791,-0.0558)" />
  <g
     style="fill:#000000;fill-opacity:0;stroke:#000000;stroke-width:0;stroke-linecap:round;stroke-linejoin:round;stroke-opacity:1"
     id="g8"
     transform="translate(-2.3637791,-0.0558)" />
  <g
     style="fill:#000000;fill-opacity:0;stroke:#000000;stroke-width:0.15;stroke-linecap:round;stroke-linejoin:round;stroke-opacity:1"
     id="g12"
     transform="translate(-2.3637791,-0.0558)">
    <path
       d="m 70.1356,100.8808 h 38.1"
       id="path10" />
  </g>
  <g
     style="fill:#000000;fill-opacity:0;stroke:#000000;stroke-width:0.1;stroke-linecap:round;stroke-linejoin:round;stroke-opacity:1"
     id="g30"
     transform="translate(-2.3637791,-0.0558)">
    <path
       d="M 2.414,63.603 V 93.6859"
       id="path14" />
    <path
       d="M 15.1107,62.6059 V 54.5888"
       id="path16" />
    <path
       d="m 13.3885,115.6105 a 1.4999,1.4999 0 0 0 1.7324,0.7658"
       id="path18" />
    <path
       d="m 30.0236,13.0759 a 1,1 0 0 0 1,1"
       id="path20" />
    <path
       d="m 16.1107,53.5888 a 1,1 0 0 0 -1,1"
       id="path22" />
    <path
       d="m 31.0236,0.1308 a 1.0001,1.0001 0 0 0 -1,1"
       id="path24" />
    <path
       d="M 31.8107,54.2191 V 14.0759"
       id="path26" />
    <path
       d="m 27.8107,53.5859 -6.725,-0.005"
       id="path28" />
  </g>
  <g
     style="fill:#000000;fill-opacity:0;stroke:#000000;stroke-width:0.15;stroke-linecap:round;stroke-linejoin:round;stroke-opacity:1"
     id="g36"
     transform="translate(-2.3637791,-0.0558)">
    <path
       d="m 89.1856,0.1308 57.3138,7.399"
       id="path32" />
    <path
       d="M 108.2356,100.8808 146.9299,86.608"
       id="path34" />
  </g>
  <g
     style="fill:#000000;fill-opacity:0;stroke:#000000;stroke-width:0.1;stroke-linecap:round;stroke-linejoin:round;stroke-opacity:1"
     id="g40"
     transform="translate(-2.3637791,-0.0558)">
    <path
       d="M 31.8107,54.2191 H 28.6715"
       id="path38" />
  </g>
  <g
     style="fill:#000000;fill-opacity:0;stroke:#000000;stroke-width:0.15;stroke-linecap:round;stroke-linejoin:round;stroke-opacity:1"
     id="g46"
     transform="translate(-2.3637791,-0.0558)">
    <path
       d="m 147.8356,9.0308 a 1.511,1.511 0 0 0 -1.3362,-1.501"
       id="path42" />
    <path
       d="m 147.8356,9.0308 v 76.2"
       id="path44" />
  </g>
  <g
     style="fill:#000000;fill-opacity:0;stroke:#000000;stroke-width:0.1;stroke-linecap:round;stroke-linejoin:round;stroke-opacity:1"
     id="g66"
     transform="translate(-2.3637791,-0.0558)">
    <path
       d="m 2.5775,94.3936 10.811,21.2169"
       id="path48" />
    <path
       d="m 3.414,62.603 11.6967,0.0029"
       id="path50" />
    <path
       d="M 28.6715,54.2191 A 3.548,3.548 0 0 0 27.8107,53.5859"
       id="path52" />
    <path
       d="m 31.0236,14.0759 h 0.7871"
       id="path54" />
    <path
       d="m 27.8107,53.5888 h -11.7"
       id="path56" />
    <path
       d="M 89.1856,0.1308 H 31.0236"
       id="path58" />
    <path
       d="m 2.414,93.6859 a 1.5021,1.5021 0 0 0 0.1635,0.7077"
       id="path60" />
    <path
       d="M 15.1209,116.3763 70.1356,100.8808"
       id="path62" />
    <path
       d="M 30.0236,1.1308 V 13.0759"
       id="path64" />
  </g>
  <g
     style="fill:#000000;fill-opacity:0;stroke:#000000;stroke-width:0.15;stroke-linecap:round;stroke-linejoin:round;stroke-opacity:1"
     id="g70"
     transform="translate(-2.3637791,-0.0558)">
    <path
       d="m 146.9299,86.608 a 1.4996,1.4996 0 0 0 0.9057,-1.3772"
       id="path68" />
  </g>
  <g
     style="fill:#000000;fill-opacity:0;stroke:#000000;stroke-width:0.1;stroke-linecap:round;stroke-linejoin:round;stroke-opacity:1"
     id="g82"
     transform="translate(-2.3637791,-0.0558)">
    <path
       d="m 3.414,62.603 a 1,1 0 0 0 -1,1"
       id="path72" />
    <circle
       cx="33.020699"
       cy="3.2734001"
       r="2.05"
       id="circle74" />
    <circle
       cx="127.3007"
       cy="28.065901"
       r="1.1"
       id="circle76" />
    <circle
       cx="50.450699"
       cy="25.665899"
       r="1.1"
       id="circle78" />
    <circle
       cx="50.540699"
       cy="63.615898"
       r="1.1"
       id="circle80" />
  </g>
  <g
     style="fill:#000000;fill-opacity:0;stroke:#000000;stroke-width:0.12;stroke-linecap:round;stroke-linejoin:round;stroke-opacity:1"
     id="g92"
     transform="translate(-2.3637791,-0.0558)">
    <circle
       cx="51.085701"
       cy="47.525902"
       r="1.75"
       id="circle84" />
    <circle
       cx="70.135803"
       cy="28.475901"
       r="1.75"
       id="circle86" />
    <circle
       cx="70.135803"
       cy="66.575897"
       r="1.75"
       id="circle88" />
    <circle
       cx="89.185699"
       cy="47.525902"
       r="1.75"
       id="circle90" />
  </g>
  <g
     style="fill:#000000;fill-opacity:0;stroke:#000000;stroke-width:0.1;stroke-linecap:round;stroke-linejoin:round;stroke-opacity:1"
     id="g98"
     transform="translate(-2.3637791,-0.0558)">
    <circle
       cx="24.6007"
       cy="86.685898"
       r="1.1"
       id="circle94" />
    <circle
       cx="26.1507"
       cy="56.745899"
       r="2.05"
       id="circle96" />
  </g>
  <g
     style="fill:#000000;fill-opacity:0;stroke:#000000;stroke-width:0.12;stroke-linecap:round;stroke-linejoin:round;stroke-opacity:1"
     id="g108"
     transform="translate(-2.3637791,-0.0558)">
    <path
       d="M 29.0107,77.1559 H 13.4108"
       id="path100" />
    <path
       d="m 13.4108,77.1559 v -13"
       id="path102" />
    <path
       d="M 13.4108,64.1559 H 29.0107"
       id="path104" />
    <path
       d="m 29.0107,64.1559 v 13"
       id="path106" />
  </g>
  <g
     style="fill:#000000;fill-opacity:0;stroke:#000000;stroke-width:0.1;stroke-linecap:round;stroke-linejoin:round;stroke-opacity:1"
     id="g830"
     transform="translate(-2.3637791,-0.0558)">
    <circle
       cx="127.2857"
       cy="66.180901"
       r="1.1"
       id="circle110" />
    <circle
       cx="6.6598001"
       cy="67.155899"
       r="2.05"
       id="circle112" />
    <path
       d="m 41.3607,16.1559 h 0.4001"
       id="path114" />
    <path
       d="m 41.5607,15.9559 v 0.4"
       id="path116" />
    <path
       d="m 48.5607,23.1559 h -14"
       id="path118" />
    <path
       d="m 34.5607,23.1559 v -14"
       id="path120" />
    <path
       d="m 34.5607,9.1559 h 14"
       id="path122" />
    <path
       d="m 48.5607,9.1559 v 14"
       id="path124" />
    <path
       style="fill:none;fill-opacity:0;stroke:#000000;stroke-width:0.1;stroke-linecap:round;stroke-linejoin:round;stroke-opacity:1"
       d="m 35.0607,22.1559 h -1 V 10.1557 h 1 z"
       id="path126" />
    <path
       style="fill:none;fill-opacity:0;stroke:#000000;stroke-width:0.1;stroke-linecap:round;stroke-linejoin:round;stroke-opacity:1"
       d="m 49.0607,22.1559 h -1 V 10.1557 h 1 z"
       id="path128" />
    <path
       d="m 79.4607,11.1559 h 0.4"
       id="path130" />
    <path
       d="m 79.6607,10.9559 v 0.4"
       id="path132" />
    <path
       d="m 86.6607,18.1559 h -14"
       id="path134" />
    <path
       d="m 72.6607,18.1559 v -14"
       id="path136" />
    <path
       d="m 72.6607,4.1559 h 14"
       id="path138" />
    <path
       d="m 86.6607,4.1559 v 14"
       id="path140" />
    <path
       style="fill:none;fill-opacity:0;stroke:#000000;stroke-width:0.1;stroke-linecap:round;stroke-linejoin:round;stroke-opacity:1"
       d="m 73.1607,17.1559 h -1 V 5.1557 h 1 z"
       id="path142" />
    <path
       style="fill:none;fill-opacity:0;stroke:#000000;stroke-width:0.1;stroke-linecap:round;stroke-linejoin:round;stroke-opacity:1"
       d="m 87.1607,17.1559 h -1 V 5.1557 h 1 z"
       id="path144" />
    <path
       d="m 41.3607,54.2559 h 0.4001"
       id="path146" />
    <path
       d="m 41.5607,54.0559 v 0.4"
       id="path148" />
    <path
       d="m 48.5607,61.2559 h -14"
       id="path150" />
    <path
       d="m 34.5607,61.2559 v -14"
       id="path152" />
    <path
       d="m 34.5607,47.2559 h 14"
       id="path154" />
    <path
       d="m 48.5607,47.2559 v 14"
       id="path156" />
    <path
       style="fill:none;fill-opacity:0;stroke:#000000;stroke-width:0.1;stroke-linecap:round;stroke-linejoin:round;stroke-opacity:1"
       d="m 35.0607,60.2559 h -1 V 48.2557 h 1 z"
       id="path158" />
    <path
       style="fill:none;fill-opacity:0;stroke:#000000;stroke-width:0.1;stroke-linecap:round;stroke-linejoin:round;stroke-opacity:1"
       d="m 49.0607,60.2559 h -1 V 48.2557 h 1 z"
       id="path160" />
    <path
       d="m 60.4108,51.7559 h 0.3999"
       id="path162" />
    <path
       d="m 60.6107,51.5559 v 0.4"
       id="path164" />
    <path
       d="m 67.6107,58.7559 h -14"
       id="path166" />
    <path
       d="m 53.6107,58.7559 v -14"
       id="path168" />
    <path
       d="m 53.6107,44.7559 h 14"
       id="path170" />
    <path
       d="m 67.6107,44.7559 v 14"
       id="path172" />
    <path
       style="fill:none;fill-opacity:0;stroke:#000000;stroke-width:0.1;stroke-linecap:round;stroke-linejoin:round;stroke-opacity:1"
       d="m 54.1107,57.7559 h -1 V 45.7557 h 1 z"
       id="path174" />
    <path
       style="fill:none;fill-opacity:0;stroke:#000000;stroke-width:0.1;stroke-linecap:round;stroke-linejoin:round;stroke-opacity:1"
       d="m 68.1107,57.7559 h -1 V 45.7557 h 1 z"
       id="path176" />
    <path
       d="m 79.4607,68.3059 h 0.4"
       id="path178" />
    <path
       d="m 79.6607,68.1059 v 0.4"
       id="path180" />
    <path
       d="m 86.6607,75.3059 h -14"
       id="path182" />
    <path
       d="m 72.6607,75.3059 v -14"
       id="path184" />
    <path
       d="m 72.6607,61.3059 h 14"
       id="path186" />
    <path
       d="m 86.6607,61.3059 v 14"
       id="path188" />
    <path
       style="fill:none;fill-opacity:0;stroke:#000000;stroke-width:0.1;stroke-linecap:round;stroke-linejoin:round;stroke-opacity:1"
       d="m 73.1607,74.3059 h -1 V 62.3057 h 1 z"
       id="path190" />
    <path
       style="fill:none;fill-opacity:0;stroke:#000000;stroke-width:0.1;stroke-linecap:round;stroke-linejoin:round;stroke-opacity:1"
       d="m 87.1607,74.3059 h -1 V 62.3057 h 1 z"
       id="path192" />
    <path
       d="m 117.5607,75.7059 h 0.4"
       id="path194" />
    <path
       d="m 117.7608,75.5059 v 0.4"
       id="path196" />
    <path
       d="M 124.7607,82.7059 H 110.7608"
       id="path198" />
    <path
       d="m 110.7608,82.7059 v -14"
       id="path200" />
    <path
       d="m 110.7608,68.7059 h 13.9999"
       id="path202" />
    <path
       d="m 124.7607,68.7059 v 14"
       id="path204" />
    <path
       style="fill:none;fill-opacity:0;stroke:#000000;stroke-width:0.1;stroke-linecap:round;stroke-linejoin:round;stroke-opacity:1"
       d="m 111.2608,81.7059 h -1 V 69.7057 h 1 z"
       id="path206" />
    <path
       style="fill:none;fill-opacity:0;stroke:#000000;stroke-width:0.1;stroke-linecap:round;stroke-linejoin:round;stroke-opacity:1"
       d="m 125.2607,81.7059 h -1 V 69.7057 h 1 z"
       id="path208" />
    <path
       d="m 17.7157,99.8185 0.1816,0.3564"
       id="path210" />
    <path
       d="m 17.9847,99.9059 -0.3564,0.1816"
       id="path212" />
    <path
       d="M 14.7474,109.4117 8.3915,96.9376"
       id="path214" />
    <path
       d="M 8.3915,96.9376 20.8656,90.5817"
       id="path216" />
    <path
       d="m 20.8656,90.5817 6.3559,12.4741"
       id="path218" />
    <path
       d="m 27.2215,103.0558 -12.4741,6.3559"
       id="path220" />
    <path
       style="fill:none;fill-opacity:0;stroke:#000000;stroke-width:0.1;stroke-linecap:round;stroke-linejoin:round;stroke-opacity:1"
       d="m 20.2018,91.4811 -10.6923,5.448 -0.454,-0.891 10.6923,-5.448 z"
       id="path222" />
    <path
       style="fill:none;fill-opacity:0;stroke:#000000;stroke-width:0.1;stroke-linecap:round;stroke-linejoin:round;stroke-opacity:1"
       d="m 26.5577,103.9552 -10.6923,5.448 -0.454,-0.891 10.6923,-5.448 z"
       id="path224" />
    <path
       d="m 38.4176,94.6077 0.3863,-0.1036"
       id="path226" />
    <path
       d="m 38.559,94.3627 0.1035,0.3864"
       id="path228" />
    <path
       d="m 47.184,99.5056 -13.523,3.6235"
       id="path230" />
    <path
       d="M 33.661,103.1291 30.0375,89.6062"
       id="path232" />
    <path
       d="m 30.0375,89.6062 13.523,-3.6235"
       id="path234" />
    <path
       d="M 43.5605,85.9827 47.184,99.5056"
       id="path236" />
    <path
       style="fill:none;fill-opacity:0;stroke:#000000;stroke-width:0.1;stroke-linecap:round;stroke-linejoin:round;stroke-opacity:1"
       d="m 33.8851,102.0338 -0.9659,0.2588 -3.1059,-11.5913 0.966,-0.2588 z"
       id="path238" />
    <path
       style="fill:none;fill-opacity:0;stroke:#000000;stroke-width:0.1;stroke-linecap:round;stroke-linejoin:round;stroke-opacity:1"
       d="M 47.4081,98.4103 46.4422,98.6691 43.3363,87.0778 44.3022,86.819 Z"
       id="path240" />
    <path
       d="m 136.6107,37.6059 h 0.4001"
       id="path242" />
    <path
       d="m 136.8107,37.4059 v 0.4"
       id="path244" />
    <path
       d="m 143.8107,44.6059 h -14"
       id="path246" />
    <path
       d="m 129.8107,44.6059 v -14"
       id="path248" />
    <path
       d="m 129.8107,30.6059 h 14"
       id="path250" />
    <path
       d="m 143.8107,30.6059 v 14"
       id="path252" />
    <path
       style="fill:none;fill-opacity:0;stroke:#000000;stroke-width:0.1;stroke-linecap:round;stroke-linejoin:round;stroke-opacity:1"
       d="m 130.3107,43.6059 h -1 V 31.6057 h 1 z"
       id="path254" />
    <path
       style="fill:none;fill-opacity:0;stroke:#000000;stroke-width:0.1;stroke-linecap:round;stroke-linejoin:round;stroke-opacity:1"
       d="m 144.3107,43.6059 h -1 V 31.6057 h 1 z"
       id="path256" />
    <path
       d="m 136.6107,56.6559 h 0.4001"
       id="path258" />
    <path
       d="m 136.8107,56.4559 v 0.4"
       id="path260" />
    <path
       d="m 143.8107,63.6559 h -14"
       id="path262" />
    <path
       d="m 129.8107,63.6559 v -14"
       id="path264" />
    <path
       d="m 129.8107,49.6559 h 14"
       id="path266" />
    <path
       d="m 143.8107,49.6559 v 14"
       id="path268" />
    <path
       style="fill:none;fill-opacity:0;stroke:#000000;stroke-width:0.1;stroke-linecap:round;stroke-linejoin:round;stroke-opacity:1"
       d="m 130.3107,62.6559 h -1 V 50.6557 h 1 z"
       id="path270" />
    <path
       style="fill:none;fill-opacity:0;stroke:#000000;stroke-width:0.1;stroke-linecap:round;stroke-linejoin:round;stroke-opacity:1"
       d="m 144.3107,62.6559 h -1 V 50.6557 h 1 z"
       id="path272" />
    <path
       d="m 136.6107,75.7059 h 0.4001"
       id="path274" />
    <path
       d="m 136.8107,75.5059 v 0.4"
       id="path276" />
    <path
       d="m 143.8107,82.7059 h -14"
       id="path278" />
    <path
       d="m 129.8107,82.7059 v -14"
       id="path280" />
    <path
       d="m 129.8107,68.7059 h 14"
       id="path282" />
    <path
       d="m 143.8107,68.7059 v 14"
       id="path284" />
    <path
       style="fill:none;fill-opacity:0;stroke:#000000;stroke-width:0.1;stroke-linecap:round;stroke-linejoin:round;stroke-opacity:1"
       d="m 130.3107,81.7059 h -1 V 69.7057 h 1 z"
       id="path286" />
    <path
       style="fill:none;fill-opacity:0;stroke:#000000;stroke-width:0.1;stroke-linecap:round;stroke-linejoin:round;stroke-opacity:1"
       d="m 144.3107,81.7059 h -1 V 69.7057 h 1 z"
       id="path288" />
    <path
       d="m 98.5108,13.6559 h 0.3999"
       id="path290" />
    <path
       d="m 98.7107,13.4559 v 0.4"
       id="path292" />
    <path
       d="m 105.7107,20.6559 h -14"
       id="path294" />
    <path
       d="m 91.7107,20.6559 v -14"
       id="path296" />
    <path
       d="m 91.7107,6.6559 h 14"
       id="path298" />
    <path
       d="m 105.7107,6.6559 v 14"
       id="path300" />
    <path
       style="fill:none;fill-opacity:0;stroke:#000000;stroke-width:0.1;stroke-linecap:round;stroke-linejoin:round;stroke-opacity:1"
       d="m 92.2107,19.6559 h -1 V 7.6557 h 1 z"
       id="path302" />
    <path
       style="fill:none;fill-opacity:0;stroke:#000000;stroke-width:0.1;stroke-linecap:round;stroke-linejoin:round;stroke-opacity:1"
       d="m 106.2107,19.6559 h -1 V 7.6557 h 1 z"
       id="path304" />
    <path
       d="m 117.5607,18.5559 h 0.4"
       id="path306" />
    <path
       d="m 117.7608,18.3559 v 0.4"
       id="path308" />
    <path
       d="M 124.7607,25.5559 H 110.7608"
       id="path310" />
    <path
       d="m 110.7608,25.5559 v -14"
       id="path312" />
    <path
       d="m 110.7608,11.5559 h 13.9999"
       id="path314" />
    <path
       d="m 124.7607,11.5559 v 14"
       id="path316" />
    <path
       style="fill:none;fill-opacity:0;stroke:#000000;stroke-width:0.1;stroke-linecap:round;stroke-linejoin:round;stroke-opacity:1"
       d="m 111.2608,24.5559 h -1 V 12.5557 h 1 z"
       id="path318" />
    <path
       style="fill:none;fill-opacity:0;stroke:#000000;stroke-width:0.1;stroke-linecap:round;stroke-linejoin:round;stroke-opacity:1"
       d="m 125.2607,24.5559 h -1 V 12.5557 h 1 z"
       id="path320" />
    <path
       d="m 60.4108,32.7059 h 0.3999"
       id="path322" />
    <path
       d="m 60.6107,32.5059 v 0.4"
       id="path324" />
    <path
       d="m 67.6107,39.7059 h -14"
       id="path326" />
    <path
       d="m 53.6107,39.7059 v -14"
       id="path328" />
    <path
       d="m 53.6107,25.7059 h 14"
       id="path330" />
    <path
       d="m 67.6107,25.7059 v 14"
       id="path332" />
    <path
       style="fill:none;fill-opacity:0;stroke:#000000;stroke-width:0.1;stroke-linecap:round;stroke-linejoin:round;stroke-opacity:1"
       d="m 54.1107,38.7059 h -1 V 26.7057 h 1 z"
       id="path334" />
    <path
       style="fill:none;fill-opacity:0;stroke:#000000;stroke-width:0.1;stroke-linecap:round;stroke-linejoin:round;stroke-opacity:1"
       d="m 68.1107,38.7059 h -1 V 26.7057 h 1 z"
       id="path336" />
    <path
       d="m 98.5108,32.7059 h 0.3999"
       id="path338" />
    <path
       d="m 98.7107,32.5059 v 0.4"
       id="path340" />
    <path
       d="m 105.7107,39.7059 h -14"
       id="path342" />
    <path
       d="m 91.7107,39.7059 v -14"
       id="path344" />
    <path
       d="m 91.7107,25.7059 h 14"
       id="path346" />
    <path
       d="m 105.7107,25.7059 v 14"
       id="path348" />
    <path
       style="fill:none;fill-opacity:0;stroke:#000000;stroke-width:0.1;stroke-linecap:round;stroke-linejoin:round;stroke-opacity:1"
       d="m 92.2107,38.7059 h -1 V 26.7057 h 1 z"
       id="path350" />
    <path
       style="fill:none;fill-opacity:0;stroke:#000000;stroke-width:0.1;stroke-linecap:round;stroke-linejoin:round;stroke-opacity:1"
       d="m 106.2107,38.7059 h -1 V 26.7057 h 1 z"
       id="path352" />
    <path
       d="m 79.4607,30.2059 h 0.4"
       id="path354" />
    <path
       d="m 79.6607,30.0059 v 0.4"
       id="path356" />
    <path
       d="m 86.6607,37.2059 h -14"
       id="path358" />
    <path
       d="m 72.6607,37.2059 v -14"
       id="path360" />
    <path
       d="m 72.6607,23.2059 h 14"
       id="path362" />
    <path
       d="m 86.6607,23.2059 v 14"
       id="path364" />
    <path
       style="fill:none;fill-opacity:0;stroke:#000000;stroke-width:0.1;stroke-linecap:round;stroke-linejoin:round;stroke-opacity:1"
       d="m 73.1607,36.2059 h -1 V 24.2057 h 1 z"
       id="path366" />
    <path
       style="fill:none;fill-opacity:0;stroke:#000000;stroke-width:0.1;stroke-linecap:round;stroke-linejoin:round;stroke-opacity:1"
       d="m 87.1607,36.2059 h -1 V 24.2057 h 1 z"
       id="path368" />
    <path
       d="m 98.5108,51.7559 h 0.3999"
       id="path370" />
    <path
       d="m 98.7107,51.5559 v 0.4"
       id="path372" />
    <path
       d="m 105.7107,58.7559 h -14"
       id="path374" />
    <path
       d="m 91.7107,58.7559 v -14"
       id="path376" />
    <path
       d="m 91.7107,44.7559 h 14"
       id="path378" />
    <path
       d="m 105.7107,44.7559 v 14"
       id="path380" />
    <path
       style="fill:none;fill-opacity:0;stroke:#000000;stroke-width:0.1;stroke-linecap:round;stroke-linejoin:round;stroke-opacity:1"
       d="m 92.2107,57.7559 h -1 V 45.7557 h 1 z"
       id="path382" />
    <path
       style="fill:none;fill-opacity:0;stroke:#000000;stroke-width:0.1;stroke-linecap:round;stroke-linejoin:round;stroke-opacity:1"
       d="m 106.2107,57.7559 h -1 V 45.7557 h 1 z"
       id="path384" />
    <path
       d="m 136.6107,18.5559 h 0.4001"
       id="path386" />
    <path
       d="m 136.8107,18.3559 v 0.4"
       id="path388" />
    <path
       d="m 143.8107,25.5559 h -14"
       id="path390" />
    <path
       d="m 129.8107,25.5559 v -14"
       id="path392" />
    <path
       d="m 129.8107,11.5559 h 14"
       id="path394" />
    <path
       d="m 143.8107,11.5559 v 14"
       id="path396" />
    <path
       style="fill:none;fill-opacity:0;stroke:#000000;stroke-width:0.1;stroke-linecap:round;stroke-linejoin:round;stroke-opacity:1"
       d="m 130.3107,24.5559 h -1 V 12.5557 h 1 z"
       id="path398" />
    <path
       style="fill:none;fill-opacity:0;stroke:#000000;stroke-width:0.1;stroke-linecap:round;stroke-linejoin:round;stroke-opacity:1"
       d="m 144.3107,24.5559 h -1 V 12.5557 h 1 z"
       id="path400" />
    <path
       d="m 98.5108,89.8559 h 0.3999"
       id="path402" />
    <path
       d="m 98.7107,89.6559 v 0.4"
       id="path404" />
    <path
       d="m 105.7107,96.8559 h -14"
       id="path406" />
    <path
       d="m 91.7107,96.8559 v -14"
       id="path408" />
    <path
       d="m 91.7107,82.8559 h 14"
       id="path410" />
    <path
       d="m 105.7107,82.8559 v 14"
       id="path412" />
    <path
       style="fill:none;fill-opacity:0;stroke:#000000;stroke-width:0.1;stroke-linecap:round;stroke-linejoin:round;stroke-opacity:1"
       d="m 92.2107,95.8559 h -1 V 83.8557 h 1 z"
       id="path414" />
    <path
       style="fill:none;fill-opacity:0;stroke:#000000;stroke-width:0.1;stroke-linecap:round;stroke-linejoin:round;stroke-opacity:1"
       d="m 106.2107,95.8559 h -1 V 83.8557 h 1 z"
       id="path416" />
    <path
       d="m 117.5607,37.6059 h 0.4"
       id="path418" />
    <path
       d="m 117.7608,37.4059 v 0.4"
       id="path420" />
    <path
       d="M 124.7607,44.6059 H 110.7608"
       id="path422" />
    <path
       d="m 110.7608,44.6059 v -14"
       id="path424" />
    <path
       d="m 110.7608,30.6059 h 13.9999"
       id="path426" />
    <path
       d="m 124.7607,30.6059 v 14"
       id="path428" />
    <path
       style="fill:none;fill-opacity:0;stroke:#000000;stroke-width:0.1;stroke-linecap:round;stroke-linejoin:round;stroke-opacity:1"
       d="m 111.2608,43.6059 h -1 V 31.6057 h 1 z"
       id="path430" />
    <path
       style="fill:none;fill-opacity:0;stroke:#000000;stroke-width:0.1;stroke-linecap:round;stroke-linejoin:round;stroke-opacity:1"
       d="m 125.2607,43.6059 h -1 V 31.6057 h 1 z"
       id="path432" />
    <path
       d="m 98.5108,70.8059 h 0.3999"
       id="path434" />
    <path
       d="m 98.7107,70.6059 v 0.4"
       id="path436" />
    <path
       d="m 105.7107,77.8059 h -14"
       id="path438" />
    <path
       d="m 91.7107,77.8059 v -14"
       id="path440" />
    <path
       d="m 91.7107,63.8059 h 14"
       id="path442" />
    <path
       d="m 105.7107,63.8059 v 14"
       id="path444" />
    <path
       style="fill:none;fill-opacity:0;stroke:#000000;stroke-width:0.1;stroke-linecap:round;stroke-linejoin:round;stroke-opacity:1"
       d="m 92.2107,76.8059 h -1 V 64.8057 h 1 z"
       id="path446" />
    <path
       style="fill:none;fill-opacity:0;stroke:#000000;stroke-width:0.1;stroke-linecap:round;stroke-linejoin:round;stroke-opacity:1"
       d="m 106.2107,76.8059 h -1 V 64.8057 h 1 z"
       id="path448" />
    <path
       d="m 117.5607,56.6559 h 0.4"
       id="path450" />
    <path
       d="m 117.7608,56.4559 v 0.4"
       id="path452" />
    <path
       d="M 124.7607,63.6559 H 110.7608"
       id="path454" />
    <path
       d="m 110.7608,63.6559 v -14"
       id="path456" />
    <path
       d="m 110.7608,49.6559 h 13.9999"
       id="path458" />
    <path
       d="m 124.7607,49.6559 v 14"
       id="path460" />
    <path
       style="fill:none;fill-opacity:0;stroke:#000000;stroke-width:0.1;stroke-linecap:round;stroke-linejoin:round;stroke-opacity:1"
       d="m 111.2608,62.6559 h -1 V 50.6557 h 1 z"
       id="path462" />
    <path
       style="fill:none;fill-opacity:0;stroke:#000000;stroke-width:0.1;stroke-linecap:round;stroke-linejoin:round;stroke-opacity:1"
       d="m 125.2607,62.6559 h -1 V 50.6557 h 1 z"
       id="path464" />
    <path
       d="m 79.4607,87.3559 h 0.4"
       id="path466" />
    <path
       d="m 79.6607,87.1559 v 0.4"
       id="path468" />
    <path
       d="m 86.6607,94.3559 h -14"
       id="path470" />
    <path
       d="m 72.6607,94.3559 v -14"
       id="path472" />
    <path
       d="m 72.6607,80.3559 h 14"
       id="path474" />
    <path
       d="m 86.6607,80.3559 v 14"
       id="path476" />
    <path
       style="fill:none;fill-opacity:0;stroke:#000000;stroke-width:0.1;stroke-linecap:round;stroke-linejoin:round;stroke-opacity:1"
       d="m 73.1607,93.3559 h -1 V 81.3557 h 1 z"
       id="path478" />
    <path
       style="fill:none;fill-opacity:0;stroke:#000000;stroke-width:0.1;stroke-linecap:round;stroke-linejoin:round;stroke-opacity:1"
       d="m 87.1607,93.3559 h -1 V 81.3557 h 1 z"
       id="path480" />
    <path
       d="m 79.4607,49.2559 h 0.4"
       id="path482" />
    <path
       d="m 79.6607,49.0559 v 0.4"
       id="path484" />
    <path
       d="m 86.6607,56.2559 h -14"
       id="path486" />
    <path
       d="m 72.6607,56.2559 v -14"
       id="path488" />
    <path
       d="m 72.6607,42.2559 h 14"
       id="path490" />
    <path
       d="m 86.6607,42.2559 v 14"
       id="path492" />
    <path
       style="fill:none;fill-opacity:0;stroke:#000000;stroke-width:0.1;stroke-linecap:round;stroke-linejoin:round;stroke-opacity:1"
       d="m 73.1607,55.2559 h -1 V 43.2557 h 1 z"
       id="path494" />
    <path
       style="fill:none;fill-opacity:0;stroke:#000000;stroke-width:0.1;stroke-linecap:round;stroke-linejoin:round;stroke-opacity:1"
       d="m 87.1607,55.2559 h -1 V 43.2557 h 1 z"
       id="path496" />
    <path
       d="m 60.4108,13.6559 h 0.3999"
       id="path498" />
    <path
       d="m 60.6107,13.4559 v 0.4"
       id="path500" />
    <path
       d="m 67.6107,20.6559 h -14"
       id="path502" />
    <path
       d="m 53.6107,20.6559 v -14"
       id="path504" />
    <path
       d="m 53.6107,6.6559 h 14"
       id="path506" />
    <path
       d="m 67.6107,6.6559 v 14"
       id="path508" />
    <path
       style="fill:none;fill-opacity:0;stroke:#000000;stroke-width:0.1;stroke-linecap:round;stroke-linejoin:round;stroke-opacity:1"
       d="m 54.1107,19.6559 h -1 V 7.6557 h 1 z"
       id="path510" />
    <path
       style="fill:none;fill-opacity:0;stroke:#000000;stroke-width:0.1;stroke-linecap:round;stroke-linejoin:round;stroke-opacity:1"
       d="m 68.1107,19.6559 h -1 V 7.6557 h 1 z"
       id="path512" />
    <path
       d="m 60.4108,70.8059 h 0.3999"
       id="path514" />
    <path
       d="m 60.6107,70.6059 v 0.4"
       id="path516" />
    <path
       d="m 67.6107,77.8059 h -14"
       id="path518" />
    <path
       d="m 53.6107,77.8059 v -14"
       id="path520" />
    <path
       d="m 53.6107,63.8059 h 14"
       id="path522" />
    <path
       d="m 67.6107,63.8059 v 14"
       id="path524" />
    <path
       style="fill:none;fill-opacity:0;stroke:#000000;stroke-width:0.1;stroke-linecap:round;stroke-linejoin:round;stroke-opacity:1"
       d="m 54.1107,76.8059 h -1 V 64.8057 h 1 z"
       id="path526" />
    <path
       style="fill:none;fill-opacity:0;stroke:#000000;stroke-width:0.1;stroke-linecap:round;stroke-linejoin:round;stroke-opacity:1"
       d="m 68.1107,76.8059 h -1 V 64.8057 h 1 z"
       id="path528" />
    <path
       d="m 60.4108,89.8559 h 0.3999"
       id="path530" />
    <path
       d="m 60.6107,89.6559 v 0.4"
       id="path532" />
    <path
       d="m 67.6107,96.8559 h -14"
       id="path534" />
    <path
       d="m 53.6107,96.8559 v -14"
       id="path536" />
    <path
       d="m 53.6107,82.8559 h 14"
       id="path538" />
    <path
       d="m 67.6107,82.8559 v 14"
       id="path540" />
    <path
       style="fill:none;fill-opacity:0;stroke:#000000;stroke-width:0.1;stroke-linecap:round;stroke-linejoin:round;stroke-opacity:1"
       d="m 54.1107,95.8559 h -1 V 83.8557 h 1 z"
       id="path542" />
    <path
       style="fill:none;fill-opacity:0;stroke:#000000;stroke-width:0.1;stroke-linecap:round;stroke-linejoin:round;stroke-opacity:1"
       d="m 68.1107,95.8559 h -1 V 83.8557 h 1 z"
       id="path544" />
    <path
       d="m 41.3607,73.3059 h 0.4001"
       id="path546" />
    <path
       d="m 41.5607,73.1059 v 0.4"
       id="path548" />
    <path
       d="m 48.5607,80.3059 h -14"
       id="path550" />
    <path
       d="m 34.5607,80.3059 v -14"
       id="path552" />
    <path
       d="m 34.5607,66.3059 h 14"
       id="path554" />
    <path
       d="m 48.5607,66.3059 v 14"
       id="path556" />
    <path
       style="fill:none;fill-opacity:0;stroke:#000000;stroke-width:0.1;stroke-linecap:round;stroke-linejoin:round;stroke-opacity:1"
       d="m 35.0607,79.3059 h -1 V 67.3057 h 1 z"
       id="path558" />
    <path
       style="fill:none;fill-opacity:0;stroke:#000000;stroke-width:0.1;stroke-linecap:round;stroke-linejoin:round;stroke-opacity:1"
       d="m 49.0607,79.3059 h -1 V 67.3057 h 1 z"
       id="path560" />
    <path
       d="m 41.3607,35.2059 h 0.4001"
       id="path562" />
    <path
       d="m 41.5607,35.0059 v 0.4"
       id="path564" />
    <path
       d="m 48.5607,42.2059 h -14"
       id="path566" />
    <path
       d="m 34.5607,42.2059 v -14"
       id="path568" />
    <path
       d="m 34.5607,28.2059 h 14"
       id="path570" />
    <path
       d="m 48.5607,28.2059 v 14"
       id="path572" />
    <path
       style="fill:none;fill-opacity:0;stroke:#000000;stroke-width:0.1;stroke-linecap:round;stroke-linejoin:round;stroke-opacity:1"
       d="m 35.0607,41.2059 h -1 V 29.2057 h 1 z"
       id="path574" />
    <path
       style="fill:none;fill-opacity:0;stroke:#000000;stroke-width:0.1;stroke-linecap:round;stroke-linejoin:round;stroke-opacity:1"
       d="m 49.0607,41.2059 h -1 V 29.2057 h 1 z"
       id="path576" />
    <g
       id="g578" />
    <g
       id="g580" />
    <g
       id="g582" />
    <g
       id="g584" />
    <g
       id="g586" />
    <g
       id="g588" />
    <g
       id="g590" />
    <g
       id="g592" />
    <g
       id="g594" />
    <g
       id="g596" />
    <g
       id="g598" />
    <g
       id="g600" />
    <g
       id="g602" />
    <g
       id="g604" />
    <g
       id="g606" />
    <g
       id="g608" />
    <g
       id="g610" />
    <g
       id="g612" />
    <g
       id="g614" />
    <g
       id="g616" />
    <g
       id="g618" />
    <g
       id="g620" />
    <g
       id="g622" />
    <g
       id="g624" />
    <g
       id="g626" />
    <g
       id="g628" />
    <g
       id="g630" />
    <g
       id="g632" />
    <g
       id="g634" />
    <g
       id="g636" />
    <g
       id="g638" />
    <g
       id="g640" />
    <g
       id="g642" />
    <g
       id="g644" />
    <g
       id="g646" />
    <g
       id="g648" />
    <g
       id="g650" />
    <g
       id="g652" />
    <g
       id="g654" />
    <g
       id="g656" />
    <g
       id="g658" />
    <g
       id="g660" />
    <g
       id="g662" />
    <g
       id="g664" />
    <g
       id="g666" />
    <g
       id="g668" />
    <g
       id="g670" />
    <g
       id="g672" />
    <g
       id="g674" />
    <g
       id="g676" />
    <g
       id="g678" />
    <g
       id="g680" />
    <g
       id="g682" />
    <g
       id="g684" />
    <g
       id="g686" />
    <g
       id="g688" />
    <g
       id="g690" />
    <g
       id="g692" />
    <g
       id="g694" />
    <g
       id="g696" />
    <g
       id="g698" />
    <g
       id="g700" />
    <g
       id="g702" />
    <g
       id="g704" />
    <g
       id="g706" />
    <g
       id="g708" />
    <g
       id="g710" />
    <g
       id="g712" />
    <g
       id="g714" />
    <g
       id="g716" />
    <g
       id="g718" />
    <g
       id="g720" />
    <g
       id="g722" />
    <g
       id="g724" />
    <g
       id="g726" />
    <g
       id="g728" />
    <g
       id="g730" />
    <g
       id="g732" />
    <g
       id="g734" />
    <g
       id="g736" />
    <g
       id="g738" />
    <g
       id="g740" />
    <g
       id="g742" />
    <g
       id="g744" />
    <g
       id="g746" />
    <g
       id="g748" />
    <g
       id="g750" />
    <g
       id="g752" />
    <g
       id="g754" />
    <g
       id="g756" />
    <g
       id="g758" />
    <g
       id="g760" />
    <g
       id="g762" />
    <g
       id="g764" />
    <g
       id="g766" />
    <g
       id="g768" />
    <g
       id="g770" />
    <g
       id="g772" />
    <g
       id="g774" />
    <g
       id="g776" />
    <g
       id="g778" />
    <g
       id="g780" />
    <g
       id="g782" />
    <g
       id="g784" />
    <g
       id="g786" />
    <g
       id="g788" />
    <g
       id="g790" />
    <g
       id="g792" />
    <g
       id="g794" />
    <g
       id="g796" />
    <g
       id="g798" />
    <g
       id="g800" />
    <g
       id="g802" />
    <g
       id="g804" />
    <g
       id="g806" />
    <g
       id="g808" />
    <g
       id="g810" />
    <g
       id="g812" />
    <g
       id="g814" />
    <g
       id="g816" />
    <g
       id="g818" />
    <g
       id="g820" />
    <g
       id="g822" />
    <g
       id="g824" />
    <g
       id="g826" />
    <g
       id="g828" />
  </g>
</svg>
