<?xml version="1.0" standalone="no"?>
 <!DOCTYPE svg PUBLIC "-//W3C//DTD SVG 1.1//EN" 
 "http://www.w3.org/Graphics/SVG/1.1/DTD/svg11.dtd"> 
<svg
  xmlns:svg="http://www.w3.org/2000/svg"
  xmlns="http://www.w3.org/2000/svg"
  xmlns:xlink="http://www.w3.org/1999/xlink"
  version="1.1"
  width="148.3868mm" height="117.3226mm" viewBox="0.0000 0.0000 148.3868 117.3226">
<title>SVG Image created as Sofle_Chico-brd.svg date 2024/03/07 10:42:52 </title>
  <desc>Image generated by PCBNEW </desc>
<g style="fill:#000000; fill-opacity:1.0000;stroke:#000000; stroke-opacity:1.0000;
stroke-linecap:round; stroke-linejoin:round;"
 transform="translate(0 0) scale(1 1)">
</g>
<g style="fill:#000000; fill-opacity:0.0; 
stroke:#000000; stroke-width:0.0000; stroke-opacity:1; 
stroke-linecap:round; stroke-linejoin:round;">
</g>
<g style="fill:#000000; fill-opacity:0.0; 
stroke:#000000; stroke-width:0.1500; stroke-opacity:1; 
stroke-linecap:round; stroke-linejoin:round;">
<path d="M70.1356 100.8808
L108.2356 100.8808
" />
</g>
<g style="fill:#000000; fill-opacity:0.0; 
stroke:#000000; stroke-width:0.1000; stroke-opacity:1; 
stroke-linecap:round; stroke-linejoin:round;">
<path d="M2.4140 63.6030
L2.4140 93.6859
" />
<path d="M15.1107 62.6059
L15.1107 54.5888
" />
<path d="M13.3885 115.6105 A1.4999 1.4999 0.0 0 0 15.1209 116.3763" />
<path d="M30.0236 13.0759 A1.0000 1.0000 0.0 0 0 31.0236 14.0759" />
<path d="M16.1107 53.5888 A1.0000 1.0000 0.0 0 0 15.1107 54.5888" />
<path d="M31.0236 0.1308 A1.0001 1.0001 0.0 0 0 30.0236 1.1308" />
<path d="M31.8107 54.2191
L31.8107 14.0759
" />
<path d="M27.8107 53.5859
L21.0857 53.5809
" />
</g>
<g style="fill:#000000; fill-opacity:0.0; 
stroke:#000000; stroke-width:0.1500; stroke-opacity:1; 
stroke-linecap:round; stroke-linejoin:round;">
<path d="M89.1856 0.1308
L146.4994 7.5298
" />
<path d="M108.2356 100.8808
L146.9299 86.6080
" />
</g>
<g style="fill:#000000; fill-opacity:0.0; 
stroke:#000000; stroke-width:0.1000; stroke-opacity:1; 
stroke-linecap:round; stroke-linejoin:round;">
<path d="M31.8107 54.2191
L28.6715 54.2191
" />
</g>
<g style="fill:#000000; fill-opacity:0.0; 
stroke:#000000; stroke-width:0.1500; stroke-opacity:1; 
stroke-linecap:round; stroke-linejoin:round;">
<path d="M147.8356 9.0308 A1.5110 1.5110 0.0 0 0 146.4994 7.5298" />
<path d="M147.8356 9.0308
L147.8356 85.2308
" />
</g>
<g style="fill:#000000; fill-opacity:0.0; 
stroke:#000000; stroke-width:0.1000; stroke-opacity:1; 
stroke-linecap:round; stroke-linejoin:round;">
<path d="M2.5775 94.3936
L13.3885 115.6105
" />
<path d="M3.4140 62.6030
L15.1107 62.6059
" />
<path d="M28.6715 54.2191 A3.5480 3.5480 0.0 0 0 27.8107 53.5859" />
<path d="M31.0236 14.0759
L31.8107 14.0759
" />
<path d="M27.8107 53.5888
L16.1107 53.5888
" />
<path d="M89.1856 0.1308
L31.0236 0.1308
" />
<path d="M2.4140 93.6859 A1.5021 1.5021 0.0 0 0 2.5775 94.3936" />
<path d="M15.1209 116.3763
L70.1356 100.8808
" />
<path d="M30.0236 1.1308
L30.0236 13.0759
" />
</g>
<g style="fill:#000000; fill-opacity:0.0; 
stroke:#000000; stroke-width:0.1500; stroke-opacity:1; 
stroke-linecap:round; stroke-linejoin:round;">
<path d="M146.9299 86.6080 A1.4996 1.4996 0.0 0 0 147.8356 85.2308" />
</g>
<g style="fill:#000000; fill-opacity:0.0; 
stroke:#000000; stroke-width:0.1000; stroke-opacity:1; 
stroke-linecap:round; stroke-linejoin:round;">
<path d="M3.4140 62.6030 A1.0000 1.0000 0.0 0 0 2.4140 63.6030" />
<circle cx="127.3007" cy="28.0659" r="1.1000" /> 
<circle cx="50.4507" cy="25.6659" r="1.1000" /> 
<circle cx="50.5407" cy="63.6159" r="1.1000" /> 
</g>
<g style="fill:#000000; fill-opacity:0.0; 
stroke:#000000; stroke-width:0.1200; stroke-opacity:1; 
stroke-linecap:round; stroke-linejoin:round;">
<circle cx="51.0857" cy="47.5259" r="1.7500" /> 
<circle cx="70.1358" cy="28.4759" r="1.7500" /> 
<circle cx="70.1358" cy="66.5759" r="1.7500" /> 
<circle cx="89.1857" cy="47.5259" r="1.7500" /> 
</g>
<g style="fill:#000000; fill-opacity:0.0; 
stroke:#000000; stroke-width:0.1000; stroke-opacity:1; 
stroke-linecap:round; stroke-linejoin:round;">
<circle cx="24.6007" cy="86.6859" r="1.1000" /> 
<circle cx="26.1507" cy="56.7459" r="2.0500" /> 
</g>
<g style="fill:#000000; fill-opacity:0.0; 
stroke:#000000; stroke-width:0.1200; stroke-opacity:1; 
stroke-linecap:round; stroke-linejoin:round;">
<path d="M29.0107 77.1559
L13.4108 77.1559
" />
<path d="M13.4108 77.1559
L13.4108 64.1559
" />
<path d="M13.4108 64.1559
L29.0107 64.1559
" />
<path d="M29.0107 64.1559
L29.0107 77.1559
" />
</g>
<g style="fill:#000000; fill-opacity:0.0; 
stroke:#000000; stroke-width:0.1000; stroke-opacity:1; 
stroke-linecap:round; stroke-linejoin:round;">
<circle cx="33.0207" cy="3.2734" r="2.0500" /> 
</g>
<g style="fill:#000000; fill-opacity:1.0000; 
stroke:#000000; stroke-width:0.0226; stroke-opacity:1; 
stroke-linecap:round; stroke-linejoin:round;">
<path style="fill:#000000; fill-opacity:1.0000; 
stroke:#000000; stroke-width:0.0226; stroke-opacity:1; 
stroke-linecap:round; stroke-linejoin:round;fill-rule:evenodd;"
d="M 111.1707,86.9949
111.2104,86.9965
111.2503,86.9990
111.2902,87.0025
111.3301,87.0070
111.3700,87.0125
111.4098,87.0189
111.4494,87.0264
111.4889,87.0349
111.5281,87.0445
111.5670,87.0552
111.6056,87.0669
111.6438,87.0797
111.6816,87.0937
111.7190,87.1088
111.7999,87.1053
111.8816,87.1077
111.9636,87.1156
112.0458,87.1292
112.1279,87.1481
112.2095,87.1723
112.2903,87.2017
112.3701,87.2360
112.4486,87.2753
112.5255,87.3193
112.6004,87.3680
112.6732,87.4212
112.7435,87.4787
112.8110,87.5405
112.8754,87.6064
112.9365,87.6763
112.9940,87.7500
113.0475,87.8275
113.0968,87.9086
113.1415,87.9932
113.1815,88.0811
113.2163,88.1722
113.2458,88.2665
113.2696,88.3636
113.2875,88.4637
113.2990,88.5664
113.3041,88.6717
113.3023,88.7794
113.2933,88.8895
113.2770,89.0017
113.2529,89.1160
113.2209,89.2323
113.2028,89.2780
113.1825,89.3228
113.1602,89.3664
113.1358,89.4089
113.1094,89.4502
113.0812,89.4902
113.0513,89.5290
113.0196,89.5665
112.9864,89.6026
112.9516,89.6372
112.9154,89.6704
112.8779,89.7020
112.8391,89.7321
112.7991,89.7605
112.7580,89.7873
112.7159,89.8124
112.6671,89.8866
112.6172,89.9579
112.5662,90.0266
112.5136,90.0926
112.4592,90.1561
112.4029,90.2170
112.3442,90.2755
112.2831,90.3317
112.2192,90.3855
112.1522,90.4372
112.0820,90.4867
112.0082,90.5342
111.9306,90.5797
111.8490,90.6233
111.7631,90.6650
111.6726,90.7050
111.5948,90.7257
111.5049,90.7421
111.4049,90.7540
111.2968,90.7608
111.1824,90.7620
111.0639,90.7571
110.9432,90.7457
110.8222,90.7274
110.7029,90.7016
110.5873,90.6678
110.5315,90.6478
110.4774,90.6256
110.4252,90.6012
110.3751,90.5746
110.3275,90.5455
110.2825,90.5141
110.2403,90.4803
110.2014,90.4439
110.1658,90.4049
110.1338,90.3633
110.1057,90.3191
110.0818,90.2720
110.0066,90.2437
109.9605,90.2248
109.9098,90.2020
109.8555,90.1748
109.7985,90.1427
109.7397,90.1051
109.6800,90.0615
109.6203,90.0113
109.5615,89.9542
109.5327,89.9228
109.5045,89.8894
109.4769,89.8540
109.4502,89.8166
109.4243,89.7769
109.3995,89.7351
109.3758,89.6909
109.3534,89.6444
109.3323,89.5955
109.3126,89.5440
109.2946,89.4900
109.2782,89.4334
109.2412,89.3980
109.2065,89.3595
109.1740,89.3184
109.1438,89.2748
109.1159,89.2291
109.0904,89.1817
109.0672,89.1328
109.0464,89.0828
109.0281,89.0319
109.0122,88.9805
108.9989,88.9289
108.9880,88.8774
108.9797,88.8263
108.9740,88.7758
108.9709,88.7264
108.9705,88.6784
108.9505,88.6504
108.9317,88.6212
108.9138,88.5907
108.8969,88.5592
108.8810,88.5268
108.8659,88.4936
108.8517,88.4598
108.8383,88.4255
108.8137,88.3559
108.7917,88.2860
108.7720,88.2167
108.7542,88.1493
108.7457,88.1104
108.7379,88.0713
108.7308,88.0320
108.7248,87.9925
108.7201,87.9529
108.7184,87.9331
108.7171,87.9132
108.7162,87.8933
108.7160,87.8800
109.1799,87.8800
109.1852,87.9417
109.1948,88.0006
109.2082,88.0567
109.2250,88.1102
109.2449,88.1611
109.2674,88.2095
109.2922,88.2553
109.3188,88.2987
109.3468,88.3397
109.3759,88.3784
109.4355,88.4492
109.4946,88.5114
109.5499,88.5655
109.5982,88.6121
109.6363,88.6516
109.6506,88.6689
109.6611,88.6845
109.6675,88.6986
109.6693,88.7113
109.6662,88.7225
109.6578,88.7324
109.6436,88.7410
109.6233,88.7483
109.5965,88.7545
109.5628,88.7596
109.4729,88.7666
109.4811,88.8206
109.4943,88.8721
109.5120,88.9210
109.5336,88.9674
109.5587,89.0113
109.5869,89.0529
109.6176,89.0921
109.6504,89.1291
109.6847,89.1639
109.7201,89.1965
109.7922,89.2553
109.8628,89.3062
109.9280,89.3494
110.0269,89.4146
110.0423,89.4268
110.0528,89.4375
110.0582,89.4467
110.0578,89.4545
110.0513,89.4609
110.0381,89.4660
110.0177,89.4698
109.9897,89.4724
109.9089,89.4741
109.7916,89.4716
109.8115,89.5097
109.8367,89.5457
109.8668,89.5796
109.9011,89.6115
109.9393,89.6415
109.9807,89.6698
110.0248,89.6964
110.0712,89.7215
110.1686,89.7673
110.2685,89.8082
110.4595,89.8782
110.5422,89.9090
110.6108,89.9381
110.6385,89.9523
110.6611,89.9663
110.6780,89.9803
110.6889,89.9944
110.6931,90.0087
110.6901,90.0233
110.6794,90.0383
110.6605,90.0538
110.6328,90.0699
110.5958,90.0867
110.5491,90.1043
110.4920,90.1228
110.5794,90.1686
110.6733,90.2108
110.7732,90.2481
110.8782,90.2789
110.9877,90.3019
111.1009,90.3155
111.1588,90.3184
111.2173,90.3183
111.2764,90.3153
111.3361,90.3090
111.3961,90.2992
111.4565,90.2859
111.5172,90.2688
111.5780,90.2477
111.6389,90.2224
111.6998,90.1929
111.7606,90.1588
111.8212,90.1200
111.8816,90.0764
111.9416,90.0277
112.0011,89.9738
112.0601,89.9144
112.1185,89.8494
112.1762,89.7787
112.2331,89.7020
112.2891,89.6192
112.2208,89.5467
112.1456,89.4727
112.0630,89.3971
111.9731,89.3199
111.8753,89.2408
111.7697,89.1600
111.5334,88.9926
111.2622,88.8171
110.9541,88.6331
110.6072,88.4399
110.2194,88.2371
110.3775,88.2912
110.5335,88.3476
110.6874,88.4065
110.8392,88.4677
110.9888,88.5315
111.1360,88.5979
111.2809,88.6669
111.4234,88.7387
111.5634,88.8132
111.7008,88.8907
111.8356,88.9711
111.9677,89.0545
112.0970,89.1411
112.2236,89.2308
112.3472,89.3238
112.4679,89.4201
112.5327,89.3822
112.5908,89.3398
112.6425,89.2933
112.6878,89.2431
112.7268,89.1893
112.7597,89.1325
112.7867,89.0728
112.8078,89.0106
112.8231,88.9462
112.8329,88.8800
112.8372,88.8123
112.8362,88.7435
112.8300,88.6738
112.8188,88.6035
112.8026,88.5331
112.7816,88.4627
112.7559,88.3929
112.7257,88.3238
112.6911,88.2558
112.6522,88.1893
112.6092,88.1245
112.5622,88.0618
112.5113,88.0015
112.4566,87.9440
112.3983,87.8895
112.3365,87.8385
112.2714,87.7911
112.2031,87.7479
112.1316,87.7090
112.0572,87.6748
111.9800,87.6456
111.9001,87.6218
111.9041,87.6655
111.9055,87.7023
111.9042,87.7326
111.9005,87.7568
111.8944,87.7752
111.8859,87.7882
111.8753,87.7961
111.8625,87.7993
111.8476,87.7982
111.8308,87.7932
111.8121,87.7845
111.7916,87.7726
111.7456,87.7406
111.6935,87.6999
111.5741,87.6045
111.5081,87.5555
111.4388,87.5096
111.4032,87.4886
111.3671,87.4695
111.3305,87.4527
111.2935,87.4384
111.2563,87.4270
111.2189,87.4189
111.1814,87.4145
111.1439,87.4141
111.1339,87.4147
111.1239,87.4157
111.1139,87.4170
111.1039,87.4186
111.0939,87.4205
111.0840,87.4228
111.0741,87.4255
111.0641,87.4285
111.0987,87.5130
111.1089,87.5461
111.1147,87.5737
111.1161,87.5960
111.1134,87.6134
111.1068,87.6263
111.0963,87.6350
111.0823,87.6399
111.0648,87.6413
111.0441,87.6396
111.0204,87.6352
110.9644,87.6194
110.8982,87.5969
110.7411,87.5428
110.6530,87.5170
110.5604,87.4956
110.5128,87.4876
110.4647,87.4817
110.4162,87.4784
110.3674,87.4781
110.3185,87.4809
110.2698,87.4875
110.2214,87.4979
110.1734,87.5128
110.2360,87.5844
110.2736,87.6358
110.2836,87.6548
110.2881,87.6698
110.2873,87.6812
110.2813,87.6895
110.2704,87.6948
110.2549,87.6977
110.2107,87.6975
110.0760,87.6835
109.9891,87.6756
109.8914,87.6711
109.7848,87.6729
109.6711,87.6839
109.6121,87.6939
109.5519,87.7072
109.4909,87.7244
109.4292,87.7457
109.3670,87.7715
109.3046,87.8023
109.2421,87.8383
109.1799,87.8800
108.7160,87.8800
108.7158,87.8734
108.7160,87.8534
108.7167,87.8335
108.7178,87.8132
108.7200,87.7930
108.7232,87.7730
108.7275,87.7531
108.7328,87.7336
108.7390,87.7143
108.7463,87.6954
108.7545,87.6769
108.7636,87.6588
108.7736,87.6412
108.7846,87.6242
108.7964,87.6077
108.8090,87.5919
108.8225,87.5767
108.8368,87.5623
108.8519,87.5487
108.8951,87.5151
108.9396,87.4831
108.9852,87.4530
109.0319,87.4245
109.0796,87.3978
109.1282,87.3728
109.1778,87.3495
109.2281,87.3280
109.2792,87.3083
109.3309,87.2903
109.3832,87.2741
109.4360,87.2597
109.4893,87.2471
109.5429,87.2362
109.5969,87.2271
109.6511,87.2199
109.6727,87.2060
109.6948,87.1934
109.7173,87.1819
109.7402,87.1714
109.7635,87.1617
109.7872,87.1526
109.8355,87.1360
109.9358,87.1051
109.9875,87.0884
110.0136,87.0793
110.0399,87.0696
110.0784,87.0581
110.1188,87.0478
110.1606,87.0387
110.2038,87.0309
110.2479,87.0243
110.2929,87.0189
110.3384,87.0148
110.3843,87.0121
110.4301,87.0107
110.4758,87.0106
110.5210,87.0120
110.5656,87.0147
110.6092,87.0189
110.6516,87.0245
110.6927,87.0316
110.7320,87.0402
110.7743,87.0304
110.8176,87.0218
110.8616,87.0143
110.9064,87.0079
110.9519,87.0027
110.9980,86.9987
111.0446,86.9960
111.0916,86.9945
111.1310,86.9943
Z" /> 
<path style="fill:#000000; fill-opacity:1.0000; 
stroke:#000000; stroke-width:0.0226; stroke-opacity:1; 
stroke-linecap:round; stroke-linejoin:round;fill-rule:evenodd;"
d="M 118.0489,86.9936
118.0959,86.9951
118.1425,86.9979
118.1886,87.0018
118.2341,87.0070
118.2789,87.0134
118.3230,87.0209
118.3662,87.0296
118.4085,87.0393
118.4479,87.0307
118.4889,87.0236
118.5313,87.0180
118.5749,87.0138
118.6195,87.0111
118.6647,87.0098
118.7104,87.0098
118.7563,87.0112
118.8021,87.0140
118.8476,87.0180
118.8926,87.0234
118.9368,87.0300
118.9799,87.0379
119.0218,87.0470
119.0621,87.0572
119.1007,87.0687
119.1269,87.0785
119.1531,87.0876
119.2047,87.1042
119.3050,87.1352
119.3534,87.1518
119.3770,87.1608
119.4003,87.1705
119.4232,87.1811
119.4458,87.1926
119.4678,87.2052
119.4895,87.2190
119.5436,87.2263
119.5976,87.2353
119.6512,87.2462
119.7045,87.2588
119.7573,87.2733
119.8096,87.2895
119.8614,87.3074
119.9124,87.3272
119.9627,87.3487
120.0123,87.3719
120.0609,87.3969
120.1086,87.4236
120.1553,87.4521
120.2010,87.4823
120.2454,87.5142
120.2886,87.5478
120.3037,87.5615
120.3180,87.5759
120.3315,87.5910
120.3442,87.6068
120.3560,87.6233
120.3669,87.6403
120.3769,87.6579
120.3860,87.6760
120.3942,87.6945
120.4015,87.7134
120.4077,87.7327
120.4130,87.7523
120.4173,87.7721
120.4205,87.7921
120.4227,87.8123
120.4238,87.8326
120.4245,87.8526
120.4247,87.8725
120.4243,87.8924
120.4235,87.9123
120.4221,87.9322
120.4204,87.9521
120.4157,87.9917
120.4097,88.0312
120.4027,88.0705
120.3948,88.1096
120.3863,88.1485
120.3685,88.2159
120.3488,88.2851
120.3269,88.3550
120.3022,88.4246
120.2888,88.4589
120.2746,88.4928
120.2595,88.5259
120.2436,88.5583
120.2267,88.5898
120.2089,88.6203
120.1900,88.6496
120.1700,88.6775
120.1696,88.7256
120.1665,88.7750
120.1608,88.8254
120.1525,88.8765
120.1417,88.9280
120.1283,88.9797
120.1124,89.0311
120.0941,89.0819
120.0733,89.1320
120.0502,89.1809
120.0246,89.2283
119.9967,89.2739
119.9665,89.3175
119.9340,89.3587
119.8993,89.3971
119.8623,89.4326
119.8460,89.4892
119.8279,89.5432
119.8083,89.5946
119.7872,89.6435
119.7647,89.6900
119.7410,89.7342
119.7162,89.7761
119.6903,89.8157
119.6636,89.8532
119.6360,89.8886
119.6078,89.9219
119.5790,89.9533
119.5202,90.0105
119.4605,90.0606
119.4008,90.1042
119.3420,90.1418
119.2850,90.1739
119.2307,90.2011
119.1800,90.2239
119.1339,90.2428
119.0587,90.2712
119.0348,90.3182
119.0067,90.3625
118.9748,90.4041
118.9392,90.4430
118.9002,90.4794
118.8581,90.5133
118.8130,90.5447
118.7654,90.5737
118.7153,90.6004
118.6631,90.6247
118.6090,90.6469
118.5532,90.6669
118.4376,90.7007
118.3183,90.7265
118.1973,90.7449
118.0766,90.7563
117.9581,90.7611
117.8438,90.7599
117.7356,90.7531
117.6356,90.7413
117.5457,90.7248
117.4679,90.7041
117.3774,90.6642
117.2915,90.6224
117.2099,90.5788
117.1323,90.5333
117.0585,90.4859
116.9883,90.4363
116.9213,90.3847
116.8574,90.3308
116.7963,90.2747
116.7377,90.2161
116.6813,90.1552
116.6269,90.0918
116.5744,90.0258
116.5233,89.9571
116.4734,89.8857
116.4246,89.8115
116.3825,89.7864
116.3414,89.7597
116.3014,89.7312
116.2626,89.7012
116.2251,89.6695
116.1889,89.6364
116.1541,89.6017
116.1209,89.5656
116.0892,89.5282
116.0593,89.4894
116.0311,89.4493
116.0048,89.4080
115.9804,89.3655
115.9580,89.3219
115.9377,89.2772
115.9197,89.2314
115.8876,89.1152
115.8635,89.0009
115.8472,88.8886
115.8409,88.8115
116.3033,88.8115
116.3076,88.8792
116.3174,88.9454
116.3327,89.0097
116.3538,89.0719
116.3808,89.1316
116.4137,89.1885
116.4527,89.2422
116.4980,89.2925
116.5497,89.3390
116.6078,89.3813
116.6726,89.4192
116.7933,89.3229
116.9170,89.2299
117.0435,89.1402
117.1728,89.0537
117.3049,88.9702
117.4397,88.8898
117.5772,88.8124
117.7171,88.7378
117.8596,88.6660
118.0045,88.5970
118.1518,88.5306
118.3013,88.4668
118.4531,88.4056
118.6070,88.3468
118.7630,88.2903
118.9211,88.2362
118.5333,88.4390
118.1864,88.6322
117.8783,88.8162
117.6072,88.9917
117.3709,89.1591
117.2652,89.2400
117.1675,89.3190
117.0775,89.3963
116.9950,89.4719
116.9197,89.5459
116.8514,89.6183
116.9074,89.7011
116.9643,89.7778
117.0220,89.8486
117.0804,89.9135
117.1394,89.9729
117.1990,90.0268
117.2589,90.0755
117.3193,90.1192
117.3799,90.1579
117.4407,90.1920
117.5016,90.2216
117.5625,90.2468
117.6233,90.2679
117.6840,90.2850
117.7444,90.2984
117.8045,90.3081
117.8641,90.3144
117.9232,90.3175
117.9817,90.3175
118.0396,90.3146
118.1529,90.3010
118.2624,90.2780
118.3674,90.2472
118.4672,90.2099
118.5611,90.1677
118.6485,90.1219
118.5914,90.1034
118.5447,90.0858
118.5077,90.0690
118.4801,90.0529
118.4611,90.0375
118.4504,90.0225
118.4474,90.0079
118.4516,89.9936
118.4625,89.9795
118.4795,89.9654
118.5021,89.9514
118.5298,89.9372
118.5983,89.9081
118.6810,89.8773
118.8720,89.8073
118.9720,89.7665
119.0693,89.7206
119.1157,89.6956
119.1598,89.6689
119.2012,89.6407
119.2394,89.6106
119.2738,89.5787
119.3038,89.5448
119.3290,89.5089
119.3489,89.4707
119.2317,89.4732
119.1508,89.4715
119.1228,89.4689
119.1024,89.4651
119.0892,89.4600
119.0827,89.4536
119.0823,89.4458
119.0877,89.4366
119.0983,89.4260
119.1136,89.4138
119.2125,89.3485
119.2777,89.3053
119.3483,89.2545
119.4204,89.1956
119.4558,89.1630
119.4902,89.1283
119.5229,89.0913
119.5536,89.0520
119.5818,89.0104
119.6069,88.9665
119.6286,88.9201
119.6462,88.8712
119.6594,88.8198
119.6676,88.7658
119.5778,88.7587
119.5440,88.7536
119.5172,88.7475
119.4969,88.7401
119.4827,88.7315
119.4743,88.7216
119.4712,88.7104
119.4731,88.6978
119.4794,88.6836
119.4899,88.6680
119.5042,88.6508
119.5423,88.6113
119.5906,88.5647
119.6459,88.5105
119.7050,88.4483
119.7647,88.3776
119.7937,88.3389
119.8218,88.2978
119.8484,88.2544
119.8731,88.2086
119.8956,88.1603
119.9155,88.1094
119.9323,88.0559
119.9457,87.9997
119.9553,87.9408
119.9606,87.8791
119.8984,87.8374
119.8360,87.8014
119.7735,87.7707
119.7114,87.7448
119.6496,87.7235
119.5886,87.7064
119.5285,87.6930
119.4695,87.6831
119.3557,87.6720
119.2491,87.6702
119.1514,87.6747
119.0645,87.6826
118.9298,87.6966
118.8856,87.6968
118.8701,87.6940
118.8592,87.6886
118.8532,87.6804
118.8524,87.6689
118.8569,87.6539
118.8669,87.6349
118.9046,87.5835
118.9671,87.5119
118.9191,87.4971
118.8707,87.4866
118.8220,87.4801
118.7731,87.4772
118.7244,87.4776
118.6758,87.4809
118.6277,87.4867
118.5801,87.4948
118.4875,87.5161
118.3994,87.5420
118.2423,87.5960
118.1762,87.6186
118.1201,87.6343
118.0964,87.6388
118.0757,87.6405
118.0582,87.6390
118.0442,87.6341
118.0338,87.6254
118.0271,87.6125
118.0244,87.5951
118.0258,87.5728
118.0316,87.5452
118.0418,87.5121
118.0764,87.4276
118.0665,87.4246
118.0565,87.4219
118.0466,87.4197
118.0366,87.4177
118.0266,87.4161
118.0167,87.4148
118.0067,87.4139
117.9967,87.4133
117.9591,87.4136
117.9216,87.4180
117.8842,87.4261
117.8470,87.4375
117.8100,87.4518
117.7734,87.4687
117.7373,87.4878
117.7017,87.5087
117.6324,87.5547
117.5664,87.6036
117.4470,87.6991
117.3949,87.7397
117.3490,87.7718
117.3285,87.7837
117.3098,87.7923
117.2929,87.7974
117.2781,87.7985
117.2652,87.7952
117.2546,87.7873
117.2461,87.7743
117.2400,87.7559
117.2363,87.7318
117.2351,87.7014
117.2364,87.6646
117.2404,87.6209
117.1605,87.6447
117.0833,87.6739
117.0089,87.7081
116.9375,87.7470
116.8691,87.7903
116.8040,87.8376
116.7422,87.8887
116.6839,87.9431
116.6293,88.0007
116.5784,88.0609
116.5313,88.1236
116.4883,88.1884
116.4494,88.2549
116.4148,88.3229
116.3846,88.3920
116.3589,88.4619
116.3379,88.5322
116.3217,88.6026
116.3105,88.6729
116.3043,88.7426
116.3033,88.8115
115.8409,88.8115
115.8383,88.7785
115.8365,88.6708
115.8415,88.5655
115.8531,88.4628
115.8709,88.3628
115.8947,88.2656
115.9242,88.1714
115.9590,88.0802
115.9990,87.9923
116.0438,87.9077
116.0930,87.8267
116.1466,87.7492
116.2040,87.6754
116.2651,87.6055
116.3295,87.5396
116.3970,87.4778
116.4673,87.4203
116.5401,87.3671
116.6151,87.3185
116.6919,87.2744
116.7704,87.2352
116.8502,87.2008
116.9311,87.1714
117.0126,87.1472
117.0947,87.1283
117.1769,87.1148
117.2590,87.1068
117.3406,87.1045
117.4216,87.1079
117.4589,87.0928
117.4967,87.0789
117.5349,87.0660
117.5735,87.0543
117.6125,87.0437
117.6517,87.0341
117.6911,87.0256
117.7307,87.0181
117.7705,87.0116
117.8104,87.0061
117.8503,87.0017
117.8902,86.9982
117.9301,86.9956
117.9699,86.9941
118.0095,86.9934
Z" /> 
</g>
<g style="fill:#000000; fill-opacity:1.0000; 
stroke:#000000; stroke-width:0.0000; stroke-opacity:1; 
stroke-linecap:round; stroke-linejoin:round;">
<path style="fill:#000000; fill-opacity:1.0000; 
stroke:#000000; stroke-width:0.0000; stroke-opacity:1; 
stroke-linecap:round; stroke-linejoin:round;fill-rule:evenodd;"
d="M 114.5332,89.4383
114.7606,89.4543
114.9766,89.4804
115.1820,89.5170
115.2808,89.5393
115.3773,89.5645
115.4713,89.5924
115.5632,89.6231
115.6528,89.6568
115.7404,89.6934
115.8259,89.7329
115.9095,89.7755
115.9913,89.8212
116.0712,89.8700
116.1495,89.9220
116.2262,89.9772
116.3014,90.0356
116.3752,90.0973
116.4476,90.1624
116.5187,90.2308
116.6574,90.3781
116.7921,90.5394
116.9233,90.7152
117.0518,90.9059
117.1781,91.1117
117.2930,91.2277
117.4018,91.3492
117.5041,91.4760
117.5993,91.6078
117.6871,91.7444
117.7668,91.8857
117.8381,92.0315
117.9004,92.1816
117.9533,92.3357
117.9963,92.4937
118.0289,92.6554
118.0506,92.8205
118.0610,92.9890
118.0596,93.1605
118.0458,93.3350
118.0193,93.5121
118.0012,93.5997
117.9801,93.6839
117.9562,93.7650
117.9297,93.8428
117.9007,93.9176
117.8695,93.9893
117.8362,94.0580
117.8010,94.1237
117.7642,94.1866
117.7258,94.2466
117.6862,94.3038
117.6454,94.3583
117.6037,94.4102
117.5612,94.4594
117.5181,94.5061
117.4747,94.5503
117.3875,94.6314
117.3011,94.7031
117.2169,94.7660
117.1364,94.8205
117.0612,94.8671
116.9928,94.9061
116.8821,94.9633
116.8295,95.0364
116.7748,95.1066
116.6596,95.2383
116.5372,95.3588
116.4083,95.4683
116.2739,95.5673
116.1345,95.6559
115.9910,95.7346
115.8442,95.8035
115.6948,95.8631
115.5435,95.9136
115.3912,95.9553
115.2386,95.9885
115.0864,96.0136
114.9355,96.0308
114.7866,96.0405
114.6404,96.0429
114.4863,96.0396
114.3292,96.0291
114.1697,96.0112
114.0088,95.9856
113.8473,95.9518
113.6860,95.9097
113.5258,95.8589
113.3674,95.7991
113.2116,95.7299
113.0593,95.6511
112.9114,95.5623
112.7686,95.4633
112.6318,95.3537
112.5658,95.2948
112.5017,95.2332
112.4395,95.1687
112.3793,95.1015
112.3212,95.0313
112.2653,94.9582
112.1477,94.9010
112.0749,94.8620
111.9950,94.8154
111.9095,94.7609
111.8200,94.6980
111.7281,94.6262
111.6438,94.5525
112.8547,94.5525
112.8575,94.6043
112.8657,94.6562
112.8792,94.7081
112.8977,94.7598
112.9210,94.8112
112.9490,94.8622
112.9813,94.9127
113.0178,94.9626
113.1025,95.0600
113.2014,95.1536
113.3129,95.2424
113.4351,95.3256
113.5666,95.4021
113.7054,95.4712
113.8501,95.5318
113.9988,95.5831
114.1500,95.6242
114.3018,95.6541
114.4527,95.6720
114.6010,95.6770
114.6830,95.6769
114.7648,95.6729
114.8460,95.6654
114.9266,95.6543
115.0065,95.6400
115.0854,95.6226
115.1633,95.6022
115.2399,95.5790
115.3152,95.5533
115.3890,95.5251
115.4611,95.4947
115.5313,95.4623
115.5996,95.4279
115.6658,95.3918
115.7297,95.3542
115.7912,95.3152
115.8501,95.2751
115.9063,95.2339
115.9596,95.1918
116.0099,95.1491
116.0571,95.1059
116.1009,95.0624
116.1413,95.0188
116.1781,94.9752
116.2111,94.9317
116.2401,94.8887
116.2652,94.8463
116.2860,94.8045
116.3024,94.7637
116.3143,94.7239
116.3216,94.6855
116.3241,94.6484
116.3223,94.6044
116.3165,94.5604
116.3068,94.5165
116.2931,94.4728
116.2756,94.4294
116.2543,94.3863
116.2007,94.3018
116.1327,94.2197
116.0510,94.1410
115.9560,94.0662
115.8482,93.9960
115.7282,93.9312
115.5966,93.8725
115.4538,93.8204
115.3004,93.7759
115.1369,93.7394
114.9638,93.7118
114.7817,93.6938
114.5910,93.6859
114.4929,93.6865
114.3971,93.6893
114.3037,93.6943
114.2127,93.7015
114.1241,93.7107
114.0381,93.7221
113.9546,93.7354
113.8737,93.7506
113.7955,93.7678
113.7200,93.7867
113.6473,93.8075
113.5774,93.8299
113.5104,93.8540
113.4464,93.8797
113.3853,93.9069
113.3272,93.9357
113.2723,93.9658
113.2205,93.9974
113.1718,94.0302
113.1265,94.0644
113.0844,94.0997
113.0457,94.1362
113.0104,94.1738
112.9786,94.2124
112.9502,94.2521
112.9255,94.2926
112.9043,94.3341
112.8868,94.3763
112.8731,94.4194
112.8631,94.4631
112.8570,94.5075
112.8547,94.5525
111.6438,94.5525
111.6354,94.5451
111.5436,94.4543
111.4541,94.3532
111.3686,94.2414
111.3278,94.1814
111.2887,94.1186
111.2513,94.0528
111.2159,93.9841
111.1827,93.9124
111.1519,93.8377
111.1237,93.7598
111.0983,93.6788
111.0759,93.5945
111.0567,93.5069
111.0405,93.4186
111.0273,93.3318
111.0168,93.2466
111.0136,93.2114
111.3822,93.2114
111.3865,93.3082
111.3920,93.3579
111.4000,93.4084
111.4105,93.4596
111.4237,93.5115
111.4397,93.5640
111.4585,93.6172
111.4804,93.6708
111.5055,93.7250
111.5356,93.7706
111.5664,93.8137
111.5980,93.8545
111.6303,93.8929
111.6631,93.9290
111.6965,93.9629
111.7303,93.9944
111.7645,94.0238
111.7990,94.0509
111.8338,94.0759
111.8688,94.0988
111.9039,94.1196
111.9390,94.1382
111.9742,94.1549
112.0092,94.1695
112.0441,94.1822
112.0788,94.1929
112.1133,94.2017
112.1473,94.2085
112.1810,94.2136
112.2142,94.2168
112.2468,94.2182
112.2788,94.2178
112.3101,94.2157
112.3407,94.2118
112.3705,94.2063
112.3993,94.1992
112.4273,94.1904
112.4542,94.1800
112.4800,94.1681
112.5047,94.1547
112.5281,94.1397
112.5517,94.1170
112.5741,94.0907
112.5951,94.0609
112.6149,94.0279
112.6504,93.9529
112.6803,93.8674
112.7045,93.7730
112.7227,93.6712
112.7347,93.5639
112.7402,93.4525
112.7396,93.3836
116.3197,93.3836
116.3253,93.4950
116.3373,93.6023
116.3554,93.7040
116.3796,93.7985
116.4096,93.8840
116.4266,93.9229
116.4451,93.9590
116.4648,93.9920
116.4859,94.0218
116.5083,94.0481
116.5319,94.0708
116.5553,94.0857
116.5800,94.0992
116.6058,94.1111
116.6327,94.1215
116.6606,94.1303
116.6895,94.1374
116.7193,94.1429
116.7498,94.1467
116.7812,94.1489
116.8132,94.1492
116.8458,94.1478
116.8790,94.1446
116.9126,94.1396
116.9467,94.1327
116.9811,94.1240
117.0158,94.1133
117.0507,94.1006
117.0858,94.0860
117.1209,94.0693
117.1561,94.0506
117.1912,94.0299
117.2261,94.0070
117.2609,93.9820
117.2955,93.9549
117.3297,93.9255
117.3635,93.8939
117.3969,93.8601
117.4297,93.8240
117.4619,93.7856
117.4935,93.7448
117.5244,93.7016
117.5545,93.6561
117.5797,93.6018
117.6022,93.5476
117.6219,93.4937
117.6391,93.4402
117.6536,93.3870
117.6657,93.3342
117.6755,93.2820
117.6829,93.2303
117.6881,93.1792
117.6912,93.1289
117.6922,93.0793
117.6912,93.0305
117.6884,92.9826
117.6837,92.9357
117.6774,92.8898
117.6693,92.8449
117.6597,92.8012
117.6486,92.7587
117.6362,92.7175
117.6224,92.6775
117.6073,92.6390
117.5911,92.6019
117.5739,92.5664
117.5556,92.5324
117.5365,92.5001
117.5165,92.4695
117.4957,92.4407
117.4743,92.4137
117.4524,92.3886
117.4299,92.3654
117.4070,92.3443
117.3837,92.3253
117.3633,92.3099
117.3428,92.2951
117.3224,92.2810
117.3019,92.2676
117.2814,92.2550
117.2608,92.2432
117.2402,92.2324
117.2195,92.2224
117.1986,92.2134
117.1777,92.2054
117.1567,92.1986
117.1355,92.1928
117.1141,92.1882
117.0926,92.1849
117.0709,92.1828
117.0491,92.1820
117.0491,92.1820
117.0206,92.1831
116.9918,92.1865
116.9626,92.1924
116.9330,92.2009
116.9029,92.2121
116.8723,92.2261
116.8412,92.2430
116.8096,92.2629
116.7773,92.2859
116.7445,92.3121
116.7110,92.3417
116.6769,92.3747
116.6420,92.4112
116.6065,92.4514
116.5701,92.4953
116.5330,92.5431
116.5051,92.5843
116.4793,92.6280
116.4555,92.6740
116.4337,92.7220
116.4139,92.7718
116.3961,92.8233
116.3662,92.9303
116.3438,93.0415
116.3288,93.1552
116.3208,93.2698
116.3197,93.3836
112.7396,93.3836
112.7391,93.3387
112.7312,93.2241
112.7161,93.1105
112.6938,92.9993
112.6639,92.8922
112.6263,92.7909
112.6045,92.7429
112.5807,92.6970
112.5548,92.6533
112.5269,92.6120
112.4936,92.5697
112.4604,92.5310
112.4274,92.4958
112.3945,92.4641
112.3618,92.4356
112.3294,92.4103
112.2972,92.3881
112.2653,92.3688
112.2337,92.3524
112.2025,92.3386
112.1716,92.3274
112.1411,92.3186
112.1111,92.3123
112.0815,92.3081
112.0525,92.3060
112.0239,92.3059
112.0239,92.3059
112.0099,92.3066
111.9959,92.3077
111.9822,92.3092
111.9685,92.3112
111.9417,92.3163
111.9156,92.3230
111.8901,92.3310
111.8653,92.3403
111.8412,92.3508
111.8179,92.3622
111.7954,92.3746
111.7738,92.3878
111.7529,92.4016
111.7329,92.4160
111.7139,92.4308
111.6958,92.4459
111.6786,92.4613
111.6625,92.4766
111.6301,92.5113
111.5961,92.5536
111.5616,92.6030
111.5275,92.6593
111.4948,92.7220
111.4644,92.7907
111.4374,92.8651
111.4147,92.9447
111.3972,93.0293
111.3861,93.1183
111.3822,93.2114
111.0136,93.2114
111.0092,93.1630
111.0043,93.0809
111.0022,93.0003
111.0029,92.9211
111.0062,92.8433
111.0123,92.7668
111.0210,92.6916
111.0324,92.6177
111.0464,92.5450
111.0630,92.4735
111.0821,92.4032
111.1038,92.3339
111.1281,92.2657
111.1548,92.1985
111.1841,92.1323
111.2157,92.0671
111.2499,92.0027
111.3253,91.8765
111.4102,91.7533
111.4555,91.6955
112.6871,91.6955
112.6915,91.7861
112.7014,91.8747
112.7167,91.9614
112.7371,92.0460
112.7626,92.1285
112.7929,92.2087
112.8280,92.2866
112.8675,92.3621
112.9115,92.4351
112.9596,92.5055
113.0118,92.5733
113.0679,92.6383
113.1278,92.7005
113.1912,92.7598
113.2580,92.8161
113.3281,92.8694
113.4012,92.9194
113.4772,92.9663
113.5561,93.0098
113.6375,93.0500
113.7213,93.0866
113.8074,93.1197
113.8957,93.1491
113.9858,93.1748
114.0778,93.1966
114.1714,93.2146
114.2665,93.2286
114.3628,93.2385
114.4603,93.2443
114.5588,93.2458
114.6569,93.2426
114.7532,93.2345
114.8476,93.2215
114.9402,93.2040
115.0307,93.1819
115.1191,93.1556
115.2052,93.1251
115.2891,93.0907
115.3705,93.0526
115.4495,93.0108
115.5259,92.9655
115.5996,92.9170
115.6705,92.8654
115.7386,92.8109
115.8037,92.7536
115.8657,92.6938
115.9246,92.6315
115.9803,92.5670
116.0327,92.5004
116.0816,92.4319
116.1270,92.3616
116.1688,92.2898
116.2069,92.2167
116.2412,92.1422
116.2716,92.0668
116.2980,91.9904
116.3204,91.9134
116.3386,91.8358
116.3526,91.7578
116.3622,91.6797
116.3673,91.6015
116.3679,91.5235
116.3639,91.4459
116.3552,91.3691
116.3421,91.2932
116.3246,91.2184
116.3029,91.1446
116.2770,91.0720
116.2472,91.0008
116.2135,90.9311
116.1760,90.8628
116.1349,90.7963
116.0903,90.7315
116.0423,90.6687
115.9910,90.6078
115.9366,90.5490
115.8792,90.4925
115.8188,90.4383
115.7557,90.3866
115.6900,90.3374
115.6217,90.2909
115.5510,90.2471
115.4780,90.2063
115.4029,90.1684
115.3257,90.1337
115.2467,90.1022
115.1658,90.0741
115.0832,90.0493
114.9991,90.0282
114.9136,90.0107
114.8267,89.9970
114.7387,89.9872
114.6496,89.9814
114.5596,89.9797
114.3808,89.9865
114.2932,89.9943
114.2069,90.0051
114.1219,90.0189
114.0385,90.0356
113.9566,90.0553
113.8764,90.0780
113.7979,90.1036
113.7213,90.1322
113.6467,90.1638
113.5741,90.1983
113.5037,90.2358
113.4354,90.2762
113.3695,90.3196
113.3060,90.3660
113.2451,90.4153
113.1867,90.4676
113.1310,90.5228
113.0782,90.5810
113.0282,90.6421
112.9812,90.7061
112.9372,90.7732
112.8965,90.8431
112.8590,90.9161
112.8248,90.9919
112.7941,91.0707
112.7669,91.1525
112.7434,91.2372
112.7236,91.3248
112.7076,91.4154
112.6955,91.5089
112.6884,91.6031
112.6871,91.6955
111.4555,91.6955
111.5044,91.6330
111.6077,91.5150
111.7198,91.3992
111.8407,91.2852
111.9746,91.0776
112.1100,90.8819
112.2476,90.6982
112.3881,90.5266
112.5320,90.3672
112.6801,90.2200
112.8329,90.0851
112.9913,89.9626
113.1557,89.8526
113.3269,89.7551
113.5056,89.6702
113.6923,89.5981
113.8878,89.5388
114.0926,89.4923
114.3076,89.4588
114.5332,89.4383
Z" /> 
</g>
<g style="fill:#000000; fill-opacity:0.0; 
stroke:#000000; stroke-width:0.1000; stroke-opacity:1; 
stroke-linecap:round; stroke-linejoin:round;">
<circle cx="127.2857" cy="66.1809" r="1.1000" /> 
<circle cx="6.6598" cy="67.1559" r="2.0500" /> 
<path d="M48.5607 23.1559
L34.5607 23.1559
" />
<path d="M34.5607 23.1559
L34.5607 9.1559
" />
<path d="M34.5607 9.1559
L48.5607 9.1559
" />
<path d="M48.5607 9.1559
L48.5607 23.1559
" />
<path d="M49.0610 8.6559
L34.0607 8.6559
" />
<path d="M34.0607 8.6559
L34.0607 23.6559
" />
<path d="M34.0607 23.6559
L49.0610 23.6559
" />
<path d="M49.0610 23.6559
L49.0610 8.6559
" />
<path d="M86.6607 18.1559
L72.6607 18.1559
" />
<path d="M72.6607 18.1559
L72.6607 4.1559
" />
<path d="M72.6607 4.1559
L86.6607 4.1559
" />
<path d="M86.6607 4.1559
L86.6607 18.1559
" />
<path d="M87.1610 3.6559
L72.1607 3.6559
" />
<path d="M72.1607 3.6559
L72.1607 18.6559
" />
<path d="M72.1607 18.6559
L87.1610 18.6559
" />
<path d="M87.1610 18.6559
L87.1610 3.6559
" />
<path d="M48.5607 61.2559
L34.5607 61.2559
" />
<path d="M34.5607 61.2559
L34.5607 47.2559
" />
<path d="M34.5607 47.2559
L48.5607 47.2559
" />
<path d="M48.5607 47.2559
L48.5607 61.2559
" />
<path d="M49.0610 46.7559
L34.0607 46.7559
" />
<path d="M34.0607 46.7559
L34.0607 61.7559
" />
<path d="M34.0607 61.7559
L49.0610 61.7559
" />
<path d="M49.0610 61.7559
L49.0610 46.7559
" />
<path d="M67.6107 58.7559
L53.6107 58.7559
" />
<path d="M53.6107 58.7559
L53.6107 44.7559
" />
<path d="M53.6107 44.7559
L67.6107 44.7559
" />
<path d="M67.6107 44.7559
L67.6107 58.7559
" />
<path d="M68.1110 44.2559
L53.1107 44.2559
" />
<path d="M53.1107 44.2559
L53.1107 59.2559
" />
<path d="M53.1107 59.2559
L68.1110 59.2559
" />
<path d="M68.1110 59.2559
L68.1110 44.2559
" />
<path d="M86.6607 75.3059
L72.6607 75.3059
" />
<path d="M72.6607 75.3059
L72.6607 61.3059
" />
<path d="M72.6607 61.3059
L86.6607 61.3059
" />
<path d="M86.6607 61.3059
L86.6607 75.3059
" />
<path d="M87.1610 60.8059
L72.1607 60.8059
" />
<path d="M72.1607 60.8059
L72.1607 75.8059
" />
<path d="M72.1607 75.8059
L87.1610 75.8059
" />
<path d="M87.1610 75.8059
L87.1610 60.8059
" />
<path d="M124.7607 82.7059
L110.7608 82.7059
" />
<path d="M110.7608 82.7059
L110.7608 68.7059
" />
<path d="M110.7608 68.7059
L124.7607 68.7059
" />
<path d="M124.7607 68.7059
L124.7607 82.7059
" />
<path d="M125.2610 68.2059
L110.2608 68.2059
" />
<path d="M110.2608 68.2059
L110.2608 83.2059
" />
<path d="M110.2608 83.2059
L125.2610 83.2059
" />
<path d="M125.2610 83.2059
L125.2610 68.2059
" />
<path d="M14.7474 109.4117
L8.3915 96.9376
" />
<path d="M8.3915 96.9376
L20.8656 90.5817
" />
<path d="M20.8656 90.5817
L27.2215 103.0558
" />
<path d="M27.2215 103.0558
L14.7474 109.4117
" />
<path d="M27.8941 103.2745
L21.0841 89.9092
" />
<path d="M21.0841 89.9092
L7.7190 96.7191
" />
<path d="M7.7190 96.7191
L14.5290 110.0844
" />
<path d="M14.5290 110.0844
L27.8941 103.2745
" />
<path d="M47.1840 99.5056
L33.6610 103.1291
" />
<path d="M33.6610 103.1291
L30.0375 89.6062
" />
<path d="M30.0375 89.6062
L43.5605 85.9827
" />
<path d="M43.5605 85.9827
L47.1840 99.5056
" />
<path d="M43.9143 85.3703
L29.4252 89.2526
" />
<path d="M29.4252 89.2526
L33.3074 103.7415
" />
<path d="M33.3074 103.7415
L47.7966 99.8591
" />
<path d="M47.7966 99.8591
L43.9143 85.3703
" />
<path d="M143.8107 44.6059
L129.8107 44.6059
" />
<path d="M129.8107 44.6059
L129.8107 30.6059
" />
<path d="M129.8107 30.6059
L143.8107 30.6059
" />
<path d="M143.8107 30.6059
L143.8107 44.6059
" />
<path d="M144.3110 30.1059
L129.3107 30.1059
" />
<path d="M129.3107 30.1059
L129.3107 45.1059
" />
<path d="M129.3107 45.1059
L144.3110 45.1059
" />
<path d="M144.3110 45.1059
L144.3110 30.1059
" />
<path d="M143.8107 63.6559
L129.8107 63.6559
" />
<path d="M129.8107 63.6559
L129.8107 49.6559
" />
<path d="M129.8107 49.6559
L143.8107 49.6559
" />
<path d="M143.8107 49.6559
L143.8107 63.6559
" />
<path d="M144.3110 49.1559
L129.3107 49.1559
" />
<path d="M129.3107 49.1559
L129.3107 64.1559
" />
<path d="M129.3107 64.1559
L144.3110 64.1559
" />
<path d="M144.3110 64.1559
L144.3110 49.1559
" />
<path d="M143.8107 82.7059
L129.8107 82.7059
" />
<path d="M129.8107 82.7059
L129.8107 68.7059
" />
<path d="M129.8107 68.7059
L143.8107 68.7059
" />
<path d="M143.8107 68.7059
L143.8107 82.7059
" />
<path d="M144.3110 68.2059
L129.3107 68.2059
" />
<path d="M129.3107 68.2059
L129.3107 83.2059
" />
<path d="M129.3107 83.2059
L144.3110 83.2059
" />
<path d="M144.3110 83.2059
L144.3110 68.2059
" />
<path d="M105.7107 20.6559
L91.7107 20.6559
" />
<path d="M91.7107 20.6559
L91.7107 6.6559
" />
<path d="M91.7107 6.6559
L105.7107 6.6559
" />
<path d="M105.7107 6.6559
L105.7107 20.6559
" />
<path d="M106.2110 6.1559
L91.2107 6.1559
" />
<path d="M91.2107 6.1559
L91.2107 21.1559
" />
<path d="M91.2107 21.1559
L106.2110 21.1559
" />
<path d="M106.2110 21.1559
L106.2110 6.1559
" />
<path d="M124.7607 25.5559
L110.7608 25.5559
" />
<path d="M110.7608 25.5559
L110.7608 11.5559
" />
<path d="M110.7608 11.5559
L124.7607 11.5559
" />
<path d="M124.7607 11.5559
L124.7607 25.5559
" />
<path d="M125.2610 11.0559
L110.2608 11.0559
" />
<path d="M110.2608 11.0559
L110.2608 26.0559
" />
<path d="M110.2608 26.0559
L125.2610 26.0559
" />
<path d="M125.2610 26.0559
L125.2610 11.0559
" />
<path d="M67.6107 39.7059
L53.6107 39.7059
" />
<path d="M53.6107 39.7059
L53.6107 25.7059
" />
<path d="M53.6107 25.7059
L67.6107 25.7059
" />
<path d="M67.6107 25.7059
L67.6107 39.7059
" />
<path d="M68.1110 25.2059
L53.1107 25.2059
" />
<path d="M53.1107 25.2059
L53.1107 40.2059
" />
<path d="M53.1107 40.2059
L68.1110 40.2059
" />
<path d="M68.1110 40.2059
L68.1110 25.2059
" />
<path d="M105.7107 39.7059
L91.7107 39.7059
" />
<path d="M91.7107 39.7059
L91.7107 25.7059
" />
<path d="M91.7107 25.7059
L105.7107 25.7059
" />
<path d="M105.7107 25.7059
L105.7107 39.7059
" />
<path d="M106.2110 25.2059
L91.2107 25.2059
" />
<path d="M91.2107 25.2059
L91.2107 40.2059
" />
<path d="M91.2107 40.2059
L106.2110 40.2059
" />
<path d="M106.2110 40.2059
L106.2110 25.2059
" />
<path d="M86.6607 37.2059
L72.6607 37.2059
" />
<path d="M72.6607 37.2059
L72.6607 23.2059
" />
<path d="M72.6607 23.2059
L86.6607 23.2059
" />
<path d="M86.6607 23.2059
L86.6607 37.2059
" />
<path d="M87.1610 22.7059
L72.1607 22.7059
" />
<path d="M72.1607 22.7059
L72.1607 37.7059
" />
<path d="M72.1607 37.7059
L87.1610 37.7059
" />
<path d="M87.1610 37.7059
L87.1610 22.7059
" />
<path d="M105.7107 58.7559
L91.7107 58.7559
" />
<path d="M91.7107 58.7559
L91.7107 44.7559
" />
<path d="M91.7107 44.7559
L105.7107 44.7559
" />
<path d="M105.7107 44.7559
L105.7107 58.7559
" />
<path d="M106.2110 44.2559
L91.2107 44.2559
" />
<path d="M91.2107 44.2559
L91.2107 59.2559
" />
<path d="M91.2107 59.2559
L106.2110 59.2559
" />
<path d="M106.2110 59.2559
L106.2110 44.2559
" />
<path d="M143.8107 25.5559
L129.8107 25.5559
" />
<path d="M129.8107 25.5559
L129.8107 11.5559
" />
<path d="M129.8107 11.5559
L143.8107 11.5559
" />
<path d="M143.8107 11.5559
L143.8107 25.5559
" />
<path d="M144.3110 11.0559
L129.3107 11.0559
" />
<path d="M129.3107 11.0559
L129.3107 26.0559
" />
<path d="M129.3107 26.0559
L144.3110 26.0559
" />
<path d="M144.3110 26.0559
L144.3110 11.0559
" />
<path d="M105.7107 96.8559
L91.7107 96.8559
" />
<path d="M91.7107 96.8559
L91.7107 82.8559
" />
<path d="M91.7107 82.8559
L105.7107 82.8559
" />
<path d="M105.7107 82.8559
L105.7107 96.8559
" />
<path d="M106.2110 82.3559
L91.2107 82.3559
" />
<path d="M91.2107 82.3559
L91.2107 97.3559
" />
<path d="M91.2107 97.3559
L106.2110 97.3559
" />
<path d="M106.2110 97.3559
L106.2110 82.3559
" />
<path d="M124.7607 44.6059
L110.7608 44.6059
" />
<path d="M110.7608 44.6059
L110.7608 30.6059
" />
<path d="M110.7608 30.6059
L124.7607 30.6059
" />
<path d="M124.7607 30.6059
L124.7607 44.6059
" />
<path d="M125.2610 30.1059
L110.2608 30.1059
" />
<path d="M110.2608 30.1059
L110.2608 45.1059
" />
<path d="M110.2608 45.1059
L125.2610 45.1059
" />
<path d="M125.2610 45.1059
L125.2610 30.1059
" />
<path d="M105.7107 77.8059
L91.7107 77.8059
" />
<path d="M91.7107 77.8059
L91.7107 63.8059
" />
<path d="M91.7107 63.8059
L105.7107 63.8059
" />
<path d="M105.7107 63.8059
L105.7107 77.8059
" />
<path d="M106.2110 63.3059
L91.2107 63.3059
" />
<path d="M91.2107 63.3059
L91.2107 78.3059
" />
<path d="M91.2107 78.3059
L106.2110 78.3059
" />
<path d="M106.2110 78.3059
L106.2110 63.3059
" />
<path d="M124.7607 63.6559
L110.7608 63.6559
" />
<path d="M110.7608 63.6559
L110.7608 49.6559
" />
<path d="M110.7608 49.6559
L124.7607 49.6559
" />
<path d="M124.7607 49.6559
L124.7607 63.6559
" />
<path d="M125.2610 49.1559
L110.2608 49.1559
" />
<path d="M110.2608 49.1559
L110.2608 64.1559
" />
<path d="M110.2608 64.1559
L125.2610 64.1559
" />
<path d="M125.2610 64.1559
L125.2610 49.1559
" />
<path d="M86.6607 94.3559
L72.6607 94.3559
" />
<path d="M72.6607 94.3559
L72.6607 80.3559
" />
<path d="M72.6607 80.3559
L86.6607 80.3559
" />
<path d="M86.6607 80.3559
L86.6607 94.3559
" />
<path d="M87.1610 79.8559
L72.1607 79.8559
" />
<path d="M72.1607 79.8559
L72.1607 94.8559
" />
<path d="M72.1607 94.8559
L87.1610 94.8559
" />
<path d="M87.1610 94.8559
L87.1610 79.8559
" />
<path d="M86.6607 56.2559
L72.6607 56.2559
" />
<path d="M72.6607 56.2559
L72.6607 42.2559
" />
<path d="M72.6607 42.2559
L86.6607 42.2559
" />
<path d="M86.6607 42.2559
L86.6607 56.2559
" />
<path d="M87.1610 41.7559
L72.1607 41.7559
" />
<path d="M72.1607 41.7559
L72.1607 56.7559
" />
<path d="M72.1607 56.7559
L87.1610 56.7559
" />
<path d="M87.1610 56.7559
L87.1610 41.7559
" />
<path d="M67.6107 20.6559
L53.6107 20.6559
" />
<path d="M53.6107 20.6559
L53.6107 6.6559
" />
<path d="M53.6107 6.6559
L67.6107 6.6559
" />
<path d="M67.6107 6.6559
L67.6107 20.6559
" />
<path d="M68.1110 6.1559
L53.1107 6.1559
" />
<path d="M53.1107 6.1559
L53.1107 21.1559
" />
<path d="M53.1107 21.1559
L68.1110 21.1559
" />
<path d="M68.1110 21.1559
L68.1110 6.1559
" />
<path d="M67.6107 77.8059
L53.6107 77.8059
" />
<path d="M53.6107 77.8059
L53.6107 63.8059
" />
<path d="M53.6107 63.8059
L67.6107 63.8059
" />
<path d="M67.6107 63.8059
L67.6107 77.8059
" />
<path d="M68.1110 63.3059
L53.1107 63.3059
" />
<path d="M53.1107 63.3059
L53.1107 78.3059
" />
<path d="M53.1107 78.3059
L68.1110 78.3059
" />
<path d="M68.1110 78.3059
L68.1110 63.3059
" />
<path d="M67.6107 96.8559
L53.6107 96.8559
" />
<path d="M53.6107 96.8559
L53.6107 82.8559
" />
<path d="M53.6107 82.8559
L67.6107 82.8559
" />
<path d="M67.6107 82.8559
L67.6107 96.8559
" />
<path d="M68.1110 82.3559
L53.1107 82.3559
" />
<path d="M53.1107 82.3559
L53.1107 97.3559
" />
<path d="M53.1107 97.3559
L68.1110 97.3559
" />
<path d="M68.1110 97.3559
L68.1110 82.3559
" />
<path d="M48.5607 80.3059
L34.5607 80.3059
" />
<path d="M34.5607 80.3059
L34.5607 66.3059
" />
<path d="M34.5607 66.3059
L48.5607 66.3059
" />
<path d="M48.5607 66.3059
L48.5607 80.3059
" />
<path d="M49.0610 65.8059
L34.0607 65.8059
" />
<path d="M34.0607 65.8059
L34.0607 80.8059
" />
<path d="M34.0607 80.8059
L49.0610 80.8059
" />
<path d="M49.0610 80.8059
L49.0610 65.8059
" />
<path d="M48.5607 42.2059
L34.5607 42.2059
" />
<path d="M34.5607 42.2059
L34.5607 28.2059
" />
<path d="M34.5607 28.2059
L48.5607 28.2059
" />
<path d="M48.5607 28.2059
L48.5607 42.2059
" />
<path d="M49.0610 27.7059
L34.0607 27.7059
" />
<path d="M34.0607 27.7059
L34.0607 42.7059
" />
<path d="M34.0607 42.7059
L49.0610 42.7059
" />
<path d="M49.0610 42.7059
L49.0610 27.7059
" />
<g >
</g>
<g >
</g>
<g >
</g>
<g >
</g>
<g >
</g>
<g >
</g>
<g >
</g>
<g >
</g>
<g >
</g>
<g >
</g>
<g >
</g>
<g >
</g>
<g >
</g>
<g >
</g>
<g >
</g>
<g >
</g>
<g >
</g>
<g >
</g>
<g >
</g>
<g >
</g>
<g >
</g>
<g >
</g>
<g >
</g>
<g >
</g>
<g >
</g>
<g >
</g>
<g >
</g>
<g >
</g>
<g >
</g>
<g >
</g>
<g >
</g>
<g >
</g>
<g >
</g>
<g >
</g>
<g >
</g>
<g >
</g>
<g >
</g>
<g >
</g>
<g >
</g>
<g >
</g>
<g >
</g>
<g >
</g>
<g >
</g>
<g >
</g>
<g >
</g>
<g >
</g>
<g >
</g>
<g >
</g>
<g >
</g>
<g >
</g>
<g >
</g>
<g >
</g>
<g >
</g>
<g >
</g>
<g >
</g>
<g >
</g>
<g >
</g>
<g >
</g>
<g >
</g>
<g >
</g>
<g >
</g>
<g >
</g>
<g >
</g>
<g >
</g>
<g >
</g>
<g >
</g>
<g >
</g>
<g >
</g>
<g >
</g>
<g >
</g>
<g >
</g>
<g >
</g>
<g >
</g>
<g >
</g>
<g >
</g>
<g >
</g>
<g >
</g>
<g >
</g>
<g >
</g>
<g >
</g>
<g >
</g>
<g >
</g>
<g >
</g>
<g >
</g>
<g >
</g>
<g >
</g>
<g >
</g>
<g >
</g>
<g >
</g>
<g >
</g>
<g >
</g>
<g >
</g>
<g >
</g>
<g >
</g>
<g >
</g>
<g >
</g>
<g >
</g>
<g >
</g>
<g >
</g>
<g >
</g>
<g >
</g>
<g >
</g>
<g >
</g>
<g >
</g>
<g >
</g>
<g >
</g>
<g >
</g>
<g >
</g>
<g >
</g>
<g >
</g>
<g >
</g>
<g >
</g>
<g >
</g>
<g >
</g>
<g >
</g>
<g >
</g>
<g >
</g>
<g >
</g>
<g >
</g>
<g >
</g>
<g >
</g>
<g >
</g>
<g >
</g>
<g >
</g>
<g >
</g>
<g >
</g>
<g >
</g>
</g> 
</svg>
