<?xml version="1.0" standalone="no"?>
 <!DOCTYPE svg PUBLIC "-//W3C//DTD SVG 1.1//EN" 
 "http://www.w3.org/Graphics/SVG/1.1/DTD/svg11.dtd"> 
<svg
  xmlns:svg="http://www.w3.org/2000/svg"
  xmlns="http://www.w3.org/2000/svg"
  xmlns:xlink="http://www.w3.org/1999/xlink"
  version="1.1"
  width="390.6774mm" height="135.6868mm" viewBox="0.0000 0.0000 390.6774 135.6868">
<title>SVG Image created as sofel_v3b-brd.svg date 2023/06/23 09:27:21 </title>
  <desc>Image generated by PCBNEW </desc>
<g style="fill:#000000; fill-opacity:1.0000;stroke:#000000; stroke-opacity:1.0000;
stroke-linecap:round; stroke-linejoin:round;"
 transform="translate(0 0) scale(1 1)">
</g>
<g style="fill:#000000; fill-opacity:0.0; 
stroke:#000000; stroke-width:0.0000; stroke-opacity:1; 
stroke-linecap:round; stroke-linejoin:round;">
</g>
<g style="fill:#000000; fill-opacity:0.0; 
stroke:#000000; stroke-width:0.1000; stroke-opacity:1; 
stroke-linecap:round; stroke-linejoin:round;">
<path d="M2.1895 95.4900 A1.5020 1.5020 0.0 0 0 2.3530 96.1977" />
<path d="M30.7991 28.3100 A1.0000 1.0000 0.0 0 0 31.7991 27.3100" />
<path d="M2.3530 96.1977
L13.1640 117.4146
" />
<path d="M30.7991 1.9349 A1.0000 1.0000 0.0 0 0 29.7991 2.9349" />
<path d="M31.7991 17.1500 A1.0000 1.0000 0.0 0 0 30.7991 16.1500" />
</g>
<g style="fill:#000000; fill-opacity:0.0; 
stroke:#000000; stroke-width:0.1500; stroke-opacity:1; 
stroke-linecap:round; stroke-linejoin:round;">
<path d="M88.9611 1.9349
L146.2749 9.3339
" />
</g>
<g style="fill:#000000; fill-opacity:0.0; 
stroke:#000000; stroke-width:0.1000; stroke-opacity:1; 
stroke-linecap:round; stroke-linejoin:round;">
<path d="M29.7991 15.1500 A1.0000 1.0000 0.0 0 0 30.7991 16.1500" />
<path d="M29.7991 29.3100
L29.7991 55.3900
" />
<path d="M2.1895 65.4071
L2.1895 95.4900
" />
<path d="M88.9611 1.9349
L30.7991 1.9349
" />
<path d="M14.8862 64.4071
L14.8862 55.3900
" />
</g>
<g style="fill:#000000; fill-opacity:0.0; 
stroke:#000000; stroke-width:0.1500; stroke-opacity:1; 
stroke-linecap:round; stroke-linejoin:round;">
<path d="M147.6111 10.8349 A1.5111 1.5111 0.0 0 0 146.2749 9.3339" />
</g>
<g style="fill:#000000; fill-opacity:0.0; 
stroke:#000000; stroke-width:0.1000; stroke-opacity:1; 
stroke-linecap:round; stroke-linejoin:round;">
<path d="M31.7991 27.3100
L31.7991 17.1500
" />
<path d="M29.7991 55.3900
L14.8862 55.3900
" />
</g>
<g style="fill:#000000; fill-opacity:0.0; 
stroke:#000000; stroke-width:0.1500; stroke-opacity:1; 
stroke-linecap:round; stroke-linejoin:round;">
<path d="M108.0111 102.6849
L146.7054 88.4121
" />
<path d="M147.6111 10.8349
L147.6111 87.0349
" />
<path d="M69.9111 102.6849
L108.0111 102.6849
" />
</g>
<g style="fill:#000000; fill-opacity:0.0; 
stroke:#000000; stroke-width:0.1000; stroke-opacity:1; 
stroke-linecap:round; stroke-linejoin:round;">
<path d="M29.7991 2.9349
L29.7991 15.1500
" />
<path d="M3.1895 64.4071
L14.8862 64.4071
" />
<path d="M13.1640 117.4146 A1.4999 1.4999 0.0 0 0 14.8964 118.1804" />
</g>
<g style="fill:#000000; fill-opacity:0.0; 
stroke:#000000; stroke-width:0.1500; stroke-opacity:1; 
stroke-linecap:round; stroke-linejoin:round;">
<path d="M146.7054 88.4122 A1.4998 1.4998 0.0 0 0 147.6111 87.0349" />
</g>
<g style="fill:#000000; fill-opacity:0.0; 
stroke:#000000; stroke-width:0.1000; stroke-opacity:1; 
stroke-linecap:round; stroke-linejoin:round;">
<path d="M14.8964 118.1804
L69.9111 102.6849
" />
<path d="M30.7991 28.3100 A1.0000 1.0000 0.0 0 0 29.7991 29.3100" />
<path d="M3.1895 64.4071 A1.0000 1.0000 0.0 0 0 2.1895 65.4071" />
</g>
<g style="fill:#000000; fill-opacity:0.0; 
stroke:#000000; stroke-width:0.1200; stroke-opacity:1; 
stroke-linecap:round; stroke-linejoin:round;">
<path d="M27.2862 78.8350
L14.2862 78.8350
" />
<path d="M14.2862 78.8350
L14.2862 66.0850
" />
<path d="M14.2862 66.0850
L27.2862 66.0850
" />
<path d="M27.2862 66.0850
L27.2862 78.8350
" />
</g>
<g style="fill:#000000; fill-opacity:0.0; 
stroke:#000000; stroke-width:0.1000; stroke-opacity:1; 
stroke-linecap:round; stroke-linejoin:round;">
<circle cx="127.0762" cy="29.8700" r="1.1000" /> 
<circle cx="127.0613" cy="67.9850" r="1.1000" /> 
<circle cx="50.2263" cy="27.4700" r="1.1000" /> 
<circle cx="50.3162" cy="65.4200" r="1.1000" /> 
<circle cx="7.1862" cy="84.9600" r="1.1000" /> 
<circle cx="32.7963" cy="5.2100" r="2.0500" /> 
<circle cx="24.7162" cy="58.5500" r="2.0500" /> 
<circle cx="7.1862" cy="68.9600" r="2.0500" /> 
</g>
<g style="fill:#000000; fill-opacity:0.0; 
stroke:#000000; stroke-width:0.1200; stroke-opacity:1; 
stroke-linecap:round; stroke-linejoin:round;">
<path d="M48.3362 24.9600
L34.3362 24.9600
" />
<path d="M34.3362 24.9600
L34.3362 10.9600
" />
<path d="M34.3362 10.9600
L48.3362 10.9600
" />
<path d="M48.3362 10.9600
L48.3362 24.9600
" />
<path d="M86.4363 19.9600
L72.4363 19.9600
" />
<path d="M72.4363 19.9600
L72.4363 5.9600
" />
<path d="M72.4363 5.9600
L86.4363 5.9600
" />
<path d="M86.4363 5.9600
L86.4363 19.9600
" />
<path d="M48.3362 63.0600
L34.3362 63.0600
" />
<path d="M34.3362 63.0600
L34.3362 49.0600
" />
<path d="M34.3362 49.0600
L48.3362 49.0600
" />
<path d="M48.3362 49.0600
L48.3362 63.0600
" />
<path d="M67.3863 60.5600
L53.3862 60.5600
" />
<path d="M53.3862 60.5600
L53.3862 46.5600
" />
<path d="M53.3862 46.5600
L67.3863 46.5600
" />
<path d="M67.3863 46.5600
L67.3863 60.5600
" />
<path d="M86.4363 77.1100
L72.4363 77.1100
" />
<path d="M72.4363 77.1100
L72.4363 63.1100
" />
<path d="M72.4363 63.1100
L86.4363 63.1100
" />
<path d="M86.4363 63.1100
L86.4363 77.1100
" />
<path d="M124.5362 84.5100
L110.5362 84.5100
" />
<path d="M110.5362 84.5100
L110.5362 70.5100
" />
<path d="M110.5362 70.5100
L124.5362 70.5100
" />
<path d="M124.5362 70.5100
L124.5362 84.5100
" />
<path d="M14.5229 111.2158
L8.1670 98.7417
" />
<path d="M8.1670 98.7417
L20.6411 92.3858
" />
<path d="M20.6411 92.3858
L26.9970 104.8599
" />
<path d="M26.9970 104.8599
L14.5229 111.2158
" />
<path d="M46.9595 101.3097
L33.4365 104.9332
" />
<path d="M33.4365 104.9332
L29.8130 91.4103
" />
<path d="M29.8130 91.4103
L43.3360 87.7868
" />
<path d="M43.3360 87.7868
L46.9595 101.3097
" />
<path d="M143.5863 46.4100
L129.5863 46.4100
" />
<path d="M129.5863 46.4100
L129.5863 32.4100
" />
<path d="M129.5863 32.4100
L143.5863 32.4100
" />
<path d="M143.5863 32.4100
L143.5863 46.4100
" />
<path d="M143.5863 65.4600
L129.5863 65.4600
" />
<path d="M129.5863 65.4600
L129.5863 51.4600
" />
<path d="M129.5863 51.4600
L143.5863 51.4600
" />
<path d="M143.5863 51.4600
L143.5863 65.4600
" />
<path d="M143.5863 84.5100
L129.5863 84.5100
" />
<path d="M129.5863 84.5100
L129.5863 70.5100
" />
<path d="M129.5863 70.5100
L143.5863 70.5100
" />
<path d="M143.5863 70.5100
L143.5863 84.5100
" />
<path d="M105.4862 22.4600
L91.4862 22.4600
" />
<path d="M91.4862 22.4600
L91.4862 8.4600
" />
<path d="M91.4862 8.4600
L105.4862 8.4600
" />
<path d="M105.4862 8.4600
L105.4862 22.4600
" />
<path d="M124.5362 27.3600
L110.5362 27.3600
" />
<path d="M110.5362 27.3600
L110.5362 13.3600
" />
<path d="M110.5362 13.3600
L124.5362 13.3600
" />
<path d="M124.5362 13.3600
L124.5362 27.3600
" />
<path d="M67.3863 41.5100
L53.3862 41.5100
" />
<path d="M53.3862 41.5100
L53.3862 27.5100
" />
<path d="M53.3862 27.5100
L67.3863 27.5100
" />
<path d="M67.3863 27.5100
L67.3863 41.5100
" />
<path d="M105.4862 41.5100
L91.4862 41.5100
" />
<path d="M91.4862 41.5100
L91.4862 27.5100
" />
<path d="M91.4862 27.5100
L105.4862 27.5100
" />
<path d="M105.4862 27.5100
L105.4862 41.5100
" />
<path d="M86.4363 39.0100
L72.4363 39.0100
" />
<path d="M72.4363 39.0100
L72.4363 25.0100
" />
<path d="M72.4363 25.0100
L86.4363 25.0100
" />
<path d="M86.4363 25.0100
L86.4363 39.0100
" />
<path d="M105.4862 60.5600
L91.4862 60.5600
" />
<path d="M91.4862 60.5600
L91.4862 46.5600
" />
<path d="M91.4862 46.5600
L105.4862 46.5600
" />
<path d="M105.4862 46.5600
L105.4862 60.5600
" />
<path d="M143.5863 27.3600
L129.5863 27.3600
" />
<path d="M129.5863 27.3600
L129.5863 13.3600
" />
<path d="M129.5863 13.3600
L143.5863 13.3600
" />
<path d="M143.5863 13.3600
L143.5863 27.3600
" />
<path d="M48.3362 44.0100
L34.3362 44.0100
" />
<path d="M34.3362 44.0100
L34.3362 30.0100
" />
<path d="M34.3362 30.0100
L48.3362 30.0100
" />
<path d="M48.3362 30.0100
L48.3362 44.0100
" />
<path d="M105.4862 98.6600
L91.4862 98.6600
" />
<path d="M91.4862 98.6600
L91.4862 84.6600
" />
<path d="M91.4862 84.6600
L105.4862 84.6600
" />
<path d="M105.4862 84.6600
L105.4862 98.6600
" />
<path d="M124.5362 46.4100
L110.5362 46.4100
" />
<path d="M110.5362 46.4100
L110.5362 32.4100
" />
<path d="M110.5362 32.4100
L124.5362 32.4100
" />
<path d="M124.5362 32.4100
L124.5362 46.4100
" />
<path d="M105.4862 79.6100
L91.4862 79.6100
" />
<path d="M91.4862 79.6100
L91.4862 65.6100
" />
<path d="M91.4862 65.6100
L105.4862 65.6100
" />
<path d="M105.4862 65.6100
L105.4862 79.6100
" />
<path d="M124.5362 65.4600
L110.5362 65.4600
" />
<path d="M110.5362 65.4600
L110.5362 51.4600
" />
<path d="M110.5362 51.4600
L124.5362 51.4600
" />
<path d="M124.5362 51.4600
L124.5362 65.4600
" />
<path d="M86.4363 96.1600
L72.4363 96.1600
" />
<path d="M72.4363 96.1600
L72.4363 82.1600
" />
<path d="M72.4363 82.1600
L86.4363 82.1600
" />
<path d="M86.4363 82.1600
L86.4363 96.1600
" />
<path d="M86.4363 58.0600
L72.4363 58.0600
" />
<path d="M72.4363 58.0600
L72.4363 44.0600
" />
<path d="M72.4363 44.0600
L86.4363 44.0600
" />
<path d="M86.4363 44.0600
L86.4363 58.0600
" />
<path d="M67.3863 22.4600
L53.3862 22.4600
" />
<path d="M53.3862 22.4600
L53.3862 8.4600
" />
<path d="M53.3862 8.4600
L67.3863 8.4600
" />
<path d="M67.3863 8.4600
L67.3863 22.4600
" />
<path d="M67.3863 79.6100
L53.3862 79.6100
" />
<path d="M53.3862 79.6100
L53.3862 65.6100
" />
<path d="M53.3862 65.6100
L67.3863 65.6100
" />
<path d="M67.3863 65.6100
L67.3863 79.6100
" />
<path d="M67.3863 98.6600
L53.3862 98.6600
" />
<path d="M53.3862 98.6600
L53.3862 84.6600
" />
<path d="M53.3862 84.6600
L67.3863 84.6600
" />
<path d="M67.3863 84.6600
L67.3863 98.6600
" />
<path d="M48.3362 82.1100
L34.3362 82.1100
" />
<path d="M34.3362 82.1100
L34.3362 68.1100
" />
<path d="M34.3362 68.1100
L48.3362 68.1100
" />
<path d="M48.3362 68.1100
L48.3362 82.1100
" />
<g >
</g>
<g >
</g>
<g >
</g>
<g >
</g>
<g >
</g>
<g >
</g>
<g >
</g>
<g >
</g>
<g >
</g>
<g >
</g>
<g >
</g>
<g >
</g>
<g >
</g>
<g >
</g>
<g >
</g>
<g >
</g>
<g >
</g>
<g >
</g>
<g >
</g>
<g >
</g>
<g >
</g>
<g >
</g>
<g >
</g>
<g >
</g>
<g >
</g>
<g >
</g>
<g >
</g>
<g >
</g>
<g >
</g>
<g >
</g>
<g >
</g>
<g >
</g>
<g >
</g>
<g >
</g>
<g >
</g>
<g >
</g>
<g >
</g>
<g >
</g>
<g >
</g>
<g >
</g>
<g >
</g>
<g >
</g>
<g >
</g>
<g >
</g>
<g >
</g>
<g >
</g>
<g >
</g>
<g >
</g>
<g >
</g>
<g >
</g>
<g >
</g>
<g >
</g>
<g >
</g>
<g >
</g>
<g >
</g>
<g >
</g>
<g >
</g>
<g >
</g>
<g >
</g>
<g >
</g>
<g >
</g>
<g >
</g>
<g >
</g>
<g >
</g>
<g >
</g>
<g >
</g>
<g >
</g>
<g >
</g>
<g >
</g>
<g >
</g>
<g >
</g>
<g >
</g>
<g >
</g>
<g >
</g>
<g >
</g>
<g >
</g>
<g >
</g>
<g >
</g>
<g >
</g>
<g >
</g>
<g >
</g>
<g >
</g>
<g >
</g>
<g >
</g>
<g >
</g>
<g >
</g>
<g >
</g>
<g >
</g>
<g >
</g>
<g >
</g>
<g >
</g>
<g >
</g>
<g >
</g>
<g >
</g>
<g >
</g>
<g >
</g>
<g >
</g>
<g >
</g>
<g >
</g>
<g >
</g>
<g >
</g>
<g >
</g>
<g >
</g>
<g >
</g>
<g >
</g>
<g >
</g>
<g >
</g>
<g >
</g>
<g >
</g>
<g >
</g>
</g> 
</svg>
