%TF.GenerationSoftware,KiCad,Pcbnew,7.0.10*%
%TF.CreationDate,2024-03-01T16:33:51-05:00*%
%TF.ProjectId,Sofle_Pico_Panel,536f666c-655f-4506-9963-6f5f50616e65,v3.5.4*%
%TF.SameCoordinates,Original*%
%TF.FileFunction,Soldermask,Top*%
%TF.FilePolarity,Negative*%
%FSLAX46Y46*%
G04 Gerber Fmt 4.6, Leading zero omitted, Abs format (unit mm)*
G04 Created by KiCad (PCBNEW 7.0.10) date 2024-03-01 16:33:51*
%MOMM*%
%LPD*%
G01*
G04 APERTURE LIST*
G04 Aperture macros list*
%AMRoundRect*
0 Rectangle with rounded corners*
0 $1 Rounding radius*
0 $2 $3 $4 $5 $6 $7 $8 $9 X,Y pos of 4 corners*
0 Add a 4 corners polygon primitive as box body*
4,1,4,$2,$3,$4,$5,$6,$7,$8,$9,$2,$3,0*
0 Add four circle primitives for the rounded corners*
1,1,$1+$1,$2,$3*
1,1,$1+$1,$4,$5*
1,1,$1+$1,$6,$7*
1,1,$1+$1,$8,$9*
0 Add four rect primitives between the rounded corners*
20,1,$1+$1,$2,$3,$4,$5,0*
20,1,$1+$1,$4,$5,$6,$7,0*
20,1,$1+$1,$6,$7,$8,$9,0*
20,1,$1+$1,$8,$9,$2,$3,0*%
%AMFreePoly0*
4,1,35,1.009754,1.309039,1.105425,1.290009,1.123449,1.282544,1.204555,1.228351,1.218351,1.214555,1.272544,1.133449,1.280009,1.115425,1.299039,1.019754,1.300000,1.010000,1.300000,-0.635000,1.285355,-0.670355,0.660355,-1.295355,0.625000,-1.310000,-1.000000,-1.310000,-1.009754,-1.309039,-1.105425,-1.290009,-1.123449,-1.282544,-1.204555,-1.228351,-1.218351,-1.214555,-1.272544,-1.133449,
-1.280009,-1.115425,-1.299039,-1.019754,-1.300000,-1.010000,-1.300000,1.010000,-1.299039,1.019754,-1.280009,1.115425,-1.272544,1.133449,-1.218351,1.214555,-1.204555,1.228351,-1.123449,1.282544,-1.105425,1.290009,-1.009754,1.309039,-1.000000,1.310000,1.000000,1.310000,1.009754,1.309039,1.009754,1.309039,$1*%
%AMFreePoly1*
4,1,34,1.031754,1.314039,1.128573,1.294781,1.146598,1.287315,1.228677,1.232471,1.242471,1.218677,1.297315,1.136598,1.304781,1.118573,1.324039,1.021754,1.325000,1.012000,1.325000,-1.012000,1.324039,-1.021754,1.304781,-1.118573,1.297315,-1.136598,1.242471,-1.218677,1.228677,-1.232471,1.146598,-1.287315,1.128573,-1.294781,1.031754,-1.314039,1.022000,-1.315000,-1.022000,-1.315000,
-1.031754,-1.314039,-1.128573,-1.294781,-1.146598,-1.287315,-1.228677,-1.232471,-1.242471,-1.218677,-1.297315,-1.136598,-1.304781,-1.118573,-1.324039,-1.021754,-1.325000,-1.012000,-1.325000,1.265000,-1.310355,1.300355,-1.275000,1.315000,1.022000,1.315000,1.031754,1.314039,1.031754,1.314039,$1*%
%AMFreePoly2*
4,1,35,0.686755,0.459039,0.733825,0.449676,0.751849,0.442210,0.791753,0.415547,0.805547,0.401753,0.832210,0.361849,0.839676,0.343825,0.849039,0.296755,0.850000,0.287000,0.850000,-0.287000,0.849039,-0.296755,0.839676,-0.343825,0.832210,-0.361849,0.805547,-0.401753,0.791753,-0.415547,0.751849,-0.442210,0.733825,-0.449676,0.686755,-0.459039,0.677000,-0.460000,-0.472000,-0.460000,
-0.507355,-0.445355,-0.835355,-0.117355,-0.850000,-0.082000,-0.850000,0.287000,-0.849039,0.296755,-0.839676,0.343825,-0.832210,0.361849,-0.805547,0.401753,-0.791753,0.415547,-0.751849,0.442210,-0.733825,0.449676,-0.686755,0.459039,-0.677000,0.460000,0.677000,0.460000,0.686755,0.459039,0.686755,0.459039,$1*%
%AMFreePoly3*
4,1,39,0.560355,0.785355,0.785355,0.560355,0.800000,0.525000,0.800000,-0.525000,0.785355,-0.560355,0.560355,-0.785355,0.525000,-0.800000,0.000000,-0.800000,-0.005082,-0.799741,-0.156745,-0.784246,-0.167390,-0.781967,-0.332691,-0.727193,-0.343213,-0.722287,-0.491426,-0.630868,-0.500532,-0.623667,-0.623667,-0.500532,-0.630868,-0.491426,-0.722287,-0.343213,-0.727193,-0.332691,-0.781967,-0.167390,
-0.784246,-0.156745,-0.799741,-0.005082,-0.799741,0.005082,-0.784246,0.156745,-0.781967,0.167390,-0.727193,0.332691,-0.722287,0.343213,-0.630868,0.491426,-0.623667,0.500532,-0.500532,0.623667,-0.491426,0.630868,-0.343213,0.722287,-0.332691,0.727193,-0.167390,0.781967,-0.156745,0.784246,-0.005082,0.799741,0.000000,0.800000,0.525000,0.800000,0.560355,0.785355,0.560355,0.785355,
$1*%
%AMFreePoly4*
4,1,14,0.535355,0.785355,0.550000,0.750000,0.550000,-0.750000,0.535355,-0.785355,0.500000,-0.800000,0.250000,-0.800000,0.214645,-0.785355,-0.535355,-0.035355,-0.550000,0.000000,-0.535355,0.035355,0.214645,0.785355,0.250000,0.800000,0.500000,0.800000,0.535355,0.785355,0.535355,0.785355,$1*%
%AMFreePoly5*
4,1,16,1.025355,0.785355,1.040000,0.750000,1.025355,0.714645,0.310710,0.000000,1.025355,-0.714645,1.040000,-0.750000,1.025355,-0.785355,0.990000,-0.800000,-0.260000,-0.800000,-0.295355,-0.785355,-0.310000,-0.750000,-0.310000,0.750000,-0.295355,0.785355,-0.260000,0.800000,0.990000,0.800000,1.025355,0.785355,1.025355,0.785355,$1*%
%AMFreePoly6*
4,1,39,0.005082,0.799741,0.156745,0.784246,0.167390,0.781967,0.332691,0.727193,0.343213,0.722287,0.491426,0.630868,0.500532,0.623667,0.623667,0.500532,0.630868,0.491426,0.722287,0.343213,0.727193,0.332691,0.781967,0.167390,0.784246,0.156745,0.799741,0.005082,0.799741,-0.005082,0.784246,-0.156745,0.781967,-0.167390,0.727193,-0.332691,0.722287,-0.343213,0.630868,-0.491426,
0.623667,-0.500532,0.500532,-0.623667,0.491426,-0.630868,0.343213,-0.722287,0.332691,-0.727193,0.167390,-0.781967,0.156745,-0.784246,0.005082,-0.799741,0.000000,-0.800000,-0.600000,-0.800000,-0.635355,-0.785355,-0.785355,-0.635355,-0.800000,-0.600000,-0.800000,0.600000,-0.785355,0.635355,-0.635355,0.785355,-0.600000,0.800000,0.000000,0.800000,0.005082,0.799741,0.005082,0.799741,
$1*%
%AMFreePoly7*
4,1,56,0.118133,1.292104,0.126817,1.290741,0.305186,1.246382,0.315334,1.242654,0.479998,1.160989,0.489108,1.155166,0.632366,1.040012,0.640012,1.032366,0.755166,0.889108,0.760989,0.879998,0.842654,0.715334,0.846382,0.705186,0.890741,0.526817,0.892104,0.518133,0.899885,0.403383,0.900000,0.400000,0.900000,-0.400000,0.899885,-0.403383,0.892104,-0.518133,0.890741,-0.526817,
0.846382,-0.705186,0.842654,-0.715334,0.760989,-0.879998,0.755166,-0.889108,0.640012,-1.032366,0.632366,-1.040012,0.489108,-1.155166,0.479998,-1.160989,0.315334,-1.242654,0.305186,-1.246382,0.126817,-1.290741,0.118133,-1.292104,0.003383,-1.299885,-0.032882,-1.287666,-0.035355,-1.285355,-0.885355,-0.435355,-0.900000,-0.400000,-0.900000,0.400000,-0.899885,0.403383,-0.892104,0.518133,
-0.890741,0.526817,-0.846382,0.705186,-0.842654,0.715334,-0.760989,0.879998,-0.755166,0.889108,-0.640012,1.032366,-0.632366,1.040012,-0.489108,1.155166,-0.479998,1.160989,-0.315334,1.242654,-0.305186,1.246382,-0.126817,1.290741,-0.118133,1.292104,-0.003383,1.299885,0.003383,1.299885,0.118133,1.292104,0.118133,1.292104,$1*%
%AMFreePoly8*
4,1,56,0.003383,1.299885,0.118133,1.292104,0.126817,1.290741,0.305186,1.246382,0.315334,1.242654,0.479998,1.160989,0.489108,1.155166,0.632366,1.040012,0.640012,1.032366,0.755166,0.889108,0.760989,0.879998,0.842654,0.715334,0.846382,0.705186,0.890741,0.526817,0.892104,0.518133,0.899885,0.403383,0.900000,0.400000,0.900000,-0.400000,0.899885,-0.403383,0.892104,-0.518133,
0.890741,-0.526817,0.846382,-0.705186,0.842654,-0.715334,0.760989,-0.879998,0.755166,-0.889108,0.640012,-1.032366,0.632366,-1.040012,0.489108,-1.155166,0.479998,-1.160989,0.315334,-1.242654,0.305186,-1.246382,0.126817,-1.290741,0.118133,-1.292104,0.003383,-1.299885,-0.003383,-1.299885,-0.118133,-1.292104,-0.126817,-1.290741,-0.305186,-1.246382,-0.315334,-1.242654,-0.479998,-1.160989,
-0.489108,-1.155166,-0.632366,-1.040012,-0.640012,-1.032366,-0.755166,-0.889108,-0.760989,-0.879998,-0.842654,-0.715334,-0.846382,-0.705186,-0.890741,-0.526817,-0.892104,-0.518133,-0.899885,-0.403383,-0.900000,-0.400000,-0.900000,0.400000,-0.885355,0.435355,-0.035355,1.285355,0.000000,1.300000,0.003383,1.299885,0.003383,1.299885,$1*%
%AMFreePoly9*
4,1,34,1.032754,1.309039,1.129190,1.289857,1.147215,1.282391,1.228970,1.227764,1.242764,1.213970,1.297391,1.132215,1.304857,1.114190,1.324039,1.017754,1.325000,1.008000,1.325000,-1.260000,1.310355,-1.295355,1.275000,-1.310000,-1.023000,-1.310000,-1.032754,-1.309039,-1.129190,-1.289857,-1.147215,-1.282391,-1.228970,-1.227764,-1.242764,-1.213970,-1.297391,-1.132215,-1.304857,-1.114190,
-1.324039,-1.017754,-1.325000,-1.008000,-1.325000,1.008000,-1.324039,1.017754,-1.304857,1.114190,-1.297391,1.132215,-1.242764,1.213970,-1.228970,1.227764,-1.147215,1.282391,-1.129190,1.289857,-1.032754,1.309039,-1.023000,1.310000,1.023000,1.310000,1.032754,1.309039,1.032754,1.309039,$1*%
%AMFreePoly10*
4,1,35,1.032754,1.309039,1.129190,1.289857,1.147215,1.282391,1.228970,1.227764,1.242764,1.213970,1.297391,1.132215,1.304857,1.114190,1.324039,1.017754,1.325000,1.008000,1.325000,-1.008000,1.324039,-1.017754,1.304857,-1.114190,1.297391,-1.132215,1.242764,-1.213970,1.228970,-1.227764,1.147215,-1.282391,1.129190,-1.289857,1.032754,-1.309039,1.023000,-1.310000,-1.023000,-1.310000,
-1.032754,-1.309039,-1.129190,-1.289857,-1.147215,-1.282391,-1.228970,-1.227764,-1.242764,-1.213970,-1.297391,-1.132215,-1.304857,-1.114190,-1.324039,-1.017754,-1.325000,-1.008000,-1.325000,0.630000,-1.310355,0.665355,-0.680355,1.295355,-0.645000,1.310000,1.023000,1.310000,1.032754,1.309039,1.032754,1.309039,$1*%
%AMFreePoly11*
4,1,14,-0.214645,0.785355,0.535355,0.035355,0.550000,0.000000,0.535355,-0.035355,-0.214645,-0.785355,-0.250000,-0.800000,-0.500000,-0.800000,-0.535355,-0.785355,-0.550000,-0.750000,-0.550000,0.750000,-0.535355,0.785355,-0.500000,0.800000,-0.250000,0.800000,-0.214645,0.785355,-0.214645,0.785355,$1*%
%AMFreePoly12*
4,1,16,0.295355,0.785355,0.310000,0.750000,0.310000,-0.750000,0.295355,-0.785355,0.260000,-0.800000,-0.990000,-0.800000,-1.025355,-0.785355,-1.040000,-0.750000,-1.025355,-0.714645,-0.310710,0.000000,-1.025355,0.714645,-1.040000,0.750000,-1.025355,0.785355,-0.990000,0.800000,0.260000,0.800000,0.295355,0.785355,0.295355,0.785355,$1*%
G04 Aperture macros list end*
%ADD10C,0.250000*%
%ADD11C,0.100000*%
%ADD12C,0.022619*%
%ADD13RoundRect,0.050000X-0.700000X-0.700000X0.700000X-0.700000X0.700000X0.700000X-0.700000X0.700000X0*%
%ADD14RoundRect,0.325000X-0.475000X-0.325000X0.475000X-0.325000X0.475000X0.325000X-0.475000X0.325000X0*%
%ADD15RoundRect,0.325000X-0.425000X-0.325000X0.425000X-0.325000X0.425000X0.325000X-0.425000X0.325000X0*%
%ADD16C,1.500000*%
%ADD17RoundRect,0.050000X-0.305911X-0.941498X0.941498X-0.305911X0.305911X0.941498X-0.941498X0.305911X0*%
%ADD18RoundRect,0.325000X-0.275681X-0.505223X0.570775X-0.073932X0.275681X0.505223X-0.570775X0.073932X0*%
%ADD19RoundRect,0.325000X-0.231131X-0.482523X0.526225X-0.096631X0.231131X0.482523X-0.526225X0.096631X0*%
%ADD20C,1.850000*%
%ADD21C,3.100000*%
%ADD22C,4.087800*%
%ADD23FreePoly0,180.000000*%
%ADD24FreePoly1,180.000000*%
%ADD25FreePoly0,117.000000*%
%ADD26FreePoly1,117.000000*%
%ADD27FreePoly0,195.000000*%
%ADD28FreePoly1,195.000000*%
%ADD29C,4.800000*%
%ADD30RoundRect,0.050000X-0.494975X-0.857321X0.857321X-0.494975X0.494975X0.857321X-0.857321X0.494975X0*%
%ADD31RoundRect,0.325000X-0.374699X-0.436865X0.542931X-0.190987X0.374699X0.436865X-0.542931X0.190987X0*%
%ADD32RoundRect,0.325000X-0.326402X-0.423924X0.494635X-0.203928X0.326402X0.423924X-0.494635X0.203928X0*%
%ADD33FreePoly2,180.000000*%
%ADD34RoundRect,0.138000X-0.712000X-0.322000X0.712000X-0.322000X0.712000X0.322000X-0.712000X0.322000X0*%
%ADD35RoundRect,0.138000X0.712000X0.322000X-0.712000X0.322000X-0.712000X-0.322000X0.712000X-0.322000X0*%
%ADD36RoundRect,0.138000X0.762000X0.322000X-0.762000X0.322000X-0.762000X-0.322000X0.762000X-0.322000X0*%
%ADD37FreePoly2,0.000000*%
%ADD38RoundRect,0.138000X-0.762000X-0.322000X0.762000X-0.322000X0.762000X0.322000X-0.762000X0.322000X0*%
%ADD39RoundRect,0.050000X0.700000X0.700000X-0.700000X0.700000X-0.700000X-0.700000X0.700000X-0.700000X0*%
%ADD40RoundRect,0.325000X0.475000X0.325000X-0.475000X0.325000X-0.475000X-0.325000X0.475000X-0.325000X0*%
%ADD41RoundRect,0.325000X0.425000X0.325000X-0.425000X0.325000X-0.425000X-0.325000X0.425000X-0.325000X0*%
%ADD42FreePoly3,90.000000*%
%ADD43FreePoly4,270.000000*%
%ADD44FreePoly5,270.000000*%
%ADD45FreePoly6,90.000000*%
%ADD46FreePoly2,15.000000*%
%ADD47RoundRect,0.138000X0.604399X0.495307X-0.771079X0.126749X-0.604399X-0.495307X0.771079X-0.126749X0*%
%ADD48RoundRect,0.138000X-0.604399X-0.495307X0.771079X-0.126749X0.604399X0.495307X-0.771079X0.126749X0*%
%ADD49RoundRect,0.138000X-0.652696X-0.508248X0.819375X-0.113808X0.652696X0.508248X-0.819375X0.113808X0*%
%ADD50C,1.497000*%
%ADD51RoundRect,0.050000X0.698500X-0.698500X0.698500X0.698500X-0.698500X0.698500X-0.698500X-0.698500X0*%
%ADD52FreePoly2,297.000000*%
%ADD53RoundRect,0.138000X0.610145X-0.488212X-0.036337X0.780582X-0.610145X0.488212X0.036337X-0.780582X0*%
%ADD54RoundRect,0.138000X-0.610145X0.488212X0.036337X-0.780582X0.610145X-0.488212X-0.036337X0.780582X0*%
%ADD55RoundRect,0.138000X-0.632845X0.532762X0.059037X-0.825132X0.632845X-0.532762X-0.059037X0.825132X0*%
%ADD56RoundRect,0.050000X0.750000X-0.750000X0.750000X0.750000X-0.750000X0.750000X-0.750000X-0.750000X0*%
%ADD57RoundRect,0.325000X0.325000X-0.475000X0.325000X0.475000X-0.325000X0.475000X-0.325000X-0.475000X0*%
%ADD58RoundRect,0.325000X0.325000X-0.425000X0.325000X0.425000X-0.325000X0.425000X-0.325000X-0.425000X0*%
%ADD59O,1.600000X1.600000*%
%ADD60RoundRect,0.271277X-0.503723X0.366223X-0.503723X-0.366223X0.503723X-0.366223X0.503723X0.366223X0*%
%ADD61C,1.448000*%
%ADD62RoundRect,0.050000X0.750000X0.200000X-0.750000X0.200000X-0.750000X-0.200000X0.750000X-0.200000X0*%
%ADD63FreePoly3,180.000000*%
%ADD64FreePoly4,0.000000*%
%ADD65FreePoly5,0.000000*%
%ADD66FreePoly6,180.000000*%
%ADD67RoundRect,0.050000X-0.698500X0.698500X-0.698500X-0.698500X0.698500X-0.698500X0.698500X0.698500X0*%
%ADD68RoundRect,0.050000X-1.000000X-1.000000X1.000000X-1.000000X1.000000X1.000000X-1.000000X1.000000X0*%
%ADD69C,4.500000*%
%ADD70FreePoly2,165.000000*%
%ADD71RoundRect,0.138000X-0.771079X-0.126749X0.604399X-0.495307X0.771079X0.126749X-0.604399X0.495307X0*%
%ADD72RoundRect,0.138000X0.771079X0.126749X-0.604399X0.495307X-0.771079X-0.126749X0.604399X-0.495307X0*%
%ADD73RoundRect,0.138000X0.819375X0.113808X-0.652696X0.508248X-0.819375X-0.113808X0.652696X-0.508248X0*%
%ADD74FreePoly2,243.000000*%
%ADD75RoundRect,0.138000X-0.036337X-0.780582X0.610145X0.488212X0.036337X0.780582X-0.610145X-0.488212X0*%
%ADD76RoundRect,0.138000X0.036337X0.780582X-0.610145X-0.488212X-0.036337X-0.780582X0.610145X0.488212X0*%
%ADD77RoundRect,0.138000X0.059037X0.825132X-0.632845X-0.532762X-0.059037X-0.825132X0.632845X0.532762X0*%
%ADD78C,0.900000*%
%ADD79RoundRect,0.050000X-0.750000X-0.200000X0.750000X-0.200000X0.750000X0.200000X-0.750000X0.200000X0*%
%ADD80RoundRect,0.271277X0.366223X0.503723X-0.366223X0.503723X-0.366223X-0.503723X0.366223X-0.503723X0*%
%ADD81RoundRect,0.271277X0.503723X-0.366223X0.503723X0.366223X-0.503723X0.366223X-0.503723X-0.366223X0*%
%ADD82O,2.900000X1.600000*%
%ADD83C,2.100000*%
%ADD84FreePoly3,0.000000*%
%ADD85FreePoly4,180.000000*%
%ADD86FreePoly5,180.000000*%
%ADD87FreePoly6,0.000000*%
%ADD88RoundRect,0.050000X0.941498X0.305911X-0.305911X0.941498X-0.941498X-0.305911X0.305911X-0.941498X0*%
%ADD89RoundRect,0.325000X0.570775X0.073932X-0.275681X0.505223X-0.570775X-0.073932X0.275681X-0.505223X0*%
%ADD90RoundRect,0.325000X0.526225X0.096631X-0.231131X0.482523X-0.526225X-0.096631X0.231131X-0.482523X0*%
%ADD91RoundRect,0.175000X0.175000X-0.612500X0.175000X0.612500X-0.175000X0.612500X-0.175000X-0.612500X0*%
%ADD92RoundRect,0.175000X-0.612500X-0.175000X0.612500X-0.175000X0.612500X0.175000X-0.612500X0.175000X0*%
%ADD93RoundRect,0.050000X0.857321X0.494975X-0.494975X0.857321X-0.857321X-0.494975X0.494975X-0.857321X0*%
%ADD94RoundRect,0.325000X0.542931X0.190987X-0.374699X0.436865X-0.542931X-0.190987X0.374699X-0.436865X0*%
%ADD95RoundRect,0.325000X0.494635X0.203928X-0.326402X0.423924X-0.494635X-0.203928X0.326402X-0.423924X0*%
%ADD96RoundRect,0.271277X-0.366223X-0.503723X0.366223X-0.503723X0.366223X0.503723X-0.366223X0.503723X0*%
%ADD97C,1.300000*%
%ADD98FreePoly7,270.000000*%
%ADD99FreePoly8,270.000000*%
%ADD100O,2.600000X1.800000*%
%ADD101C,1.100000*%
%ADD102RoundRect,0.050000X0.850000X0.850000X-0.850000X0.850000X-0.850000X-0.850000X0.850000X-0.850000X0*%
%ADD103O,1.800000X1.800000*%
%ADD104FreePoly9,-0.000000*%
%ADD105FreePoly10,-0.000000*%
%ADD106C,1.800000*%
%ADD107FreePoly11,90.000000*%
%ADD108FreePoly12,90.000000*%
%ADD109FreePoly7,90.000000*%
%ADD110FreePoly8,90.000000*%
%ADD111C,1.600000*%
%ADD112RoundRect,0.050000X0.750000X0.750000X-0.750000X0.750000X-0.750000X-0.750000X0.750000X-0.750000X0*%
%ADD113RoundRect,0.050000X1.000000X1.000000X-1.000000X1.000000X-1.000000X-1.000000X1.000000X-1.000000X0*%
%ADD114FreePoly9,63.000000*%
%ADD115FreePoly10,63.000000*%
%ADD116FreePoly9,345.000000*%
%ADD117FreePoly10,345.000000*%
G04 APERTURE END LIST*
D10*
X133054374Y-164190565D02*
X188069099Y-148695000D01*
X207119099Y-47945000D02*
X264432942Y-55343999D01*
X121847884Y-47945000D02*
G75*
G03*
X120347500Y-49445384I116J-1500500D01*
G01*
X-26767299Y-133044235D02*
G75*
G03*
X-25861563Y-134421497I1499702J-196D01*
G01*
X120347500Y-49445384D02*
X120347500Y-141500135D01*
X-26767299Y-133044235D02*
X-26767300Y-56844235D01*
X226169099Y-148695000D02*
X264863362Y-134422262D01*
X-25861563Y-134421497D02*
X12832700Y-148694235D01*
X105947434Y-164189768D02*
G75*
G03*
X107679818Y-163423971I395866J1446868D01*
G01*
X118654265Y-49444619D02*
G75*
G03*
X117153916Y-47944235I-1500365J19D01*
G01*
X118490802Y-142207048D02*
G75*
G03*
X118654299Y-141499370I-1338002J681848D01*
G01*
X131321969Y-163424741D02*
G75*
G03*
X133054374Y-164190564I1336531J681041D01*
G01*
X50932700Y-148694236D02*
X105947425Y-164189800D01*
X265769150Y-56845000D02*
G75*
G03*
X264432942Y-55343999I-1511050J100D01*
G01*
X117153916Y-47944235D02*
X31882700Y-47944235D01*
X265769099Y-56845000D02*
X265769099Y-133045000D01*
X-25431143Y-55343234D02*
X31882700Y-47944235D01*
X120347482Y-141500135D02*
G75*
G03*
X120510989Y-142207818I1501718J-25765D01*
G01*
X12832700Y-148694235D02*
X50932700Y-148694236D01*
X264863375Y-134422293D02*
G75*
G03*
X265769099Y-133045000I-593875J1376993D01*
G01*
X207119099Y-47945000D02*
X121847884Y-47945000D01*
X188069099Y-148695000D02*
X226169099Y-148695000D01*
X120510988Y-142207818D02*
X131321980Y-163424736D01*
D11*
X118650000Y-49400000D02*
X120350000Y-49400000D01*
X120350000Y-141325000D01*
X118650000Y-141325000D01*
X118650000Y-49400000D01*
G36*
X118650000Y-49400000D02*
G01*
X120350000Y-49400000D01*
X120350000Y-141325000D01*
X118650000Y-141325000D01*
X118650000Y-49400000D01*
G37*
D10*
X-25431143Y-55343234D02*
G75*
G03*
X-26767300Y-56844235I174944J-1500940D01*
G01*
X118654299Y-141499370D02*
X118654299Y-49444619D01*
X107679819Y-163423971D02*
X118490811Y-142207053D01*
D11*
X155247500Y-51375135D02*
X156647500Y-51375135D01*
X156647500Y-51375135D02*
X156647500Y-50185135D01*
X156647500Y-50185135D02*
X155247500Y-50185135D01*
X155247500Y-50185135D02*
X155247500Y-51375135D01*
G36*
X155247500Y-51375135D02*
G01*
X156647500Y-51375135D01*
X156647500Y-50185135D01*
X155247500Y-50185135D01*
X155247500Y-51375135D01*
G37*
X106557500Y-111995135D02*
X105367500Y-111995135D01*
X105367500Y-111995135D02*
X105367500Y-110595135D01*
X105367500Y-110595135D02*
X106557500Y-110595135D01*
X106557500Y-110595135D02*
X106557500Y-111995135D01*
G36*
X106557500Y-111995135D02*
G01*
X105367500Y-111995135D01*
X105367500Y-110595135D01*
X106557500Y-110595135D01*
X106557500Y-111995135D01*
G37*
X132430000Y-110600000D02*
X133620000Y-110600000D01*
X133620000Y-110600000D02*
X133620000Y-112000000D01*
X133620000Y-112000000D02*
X132430000Y-112000000D01*
X132430000Y-112000000D02*
X132430000Y-110600000D01*
G36*
X132430000Y-110600000D02*
G01*
X133620000Y-110600000D01*
X133620000Y-112000000D01*
X132430000Y-112000000D01*
X132430000Y-110600000D01*
G37*
D12*
X229110452Y-134813767D02*
X229150222Y-134815358D01*
X229190087Y-134817893D01*
X229230002Y-134821387D01*
X229269917Y-134825856D01*
X229309787Y-134831315D01*
X229349563Y-134837781D01*
X229389198Y-134845268D01*
X229428646Y-134853794D01*
X229467859Y-134863373D01*
X229506789Y-134874021D01*
X229545389Y-134885754D01*
X229583613Y-134898588D01*
X229621412Y-134912538D01*
X229658740Y-134927621D01*
X229739692Y-134924164D01*
X229821350Y-134926497D01*
X229903425Y-134934491D01*
X229985627Y-134948019D01*
X230067666Y-134966951D01*
X230149250Y-134991159D01*
X230230091Y-135020514D01*
X230309898Y-135054888D01*
X230388381Y-135094152D01*
X230465249Y-135138177D01*
X230540213Y-135186835D01*
X230612983Y-135239998D01*
X230683267Y-135297536D01*
X230750777Y-135359322D01*
X230815221Y-135425226D01*
X230876310Y-135495120D01*
X230933754Y-135568876D01*
X230987262Y-135646364D01*
X231036545Y-135727456D01*
X231081311Y-135812024D01*
X231121272Y-135899939D01*
X231156136Y-135991073D01*
X231185614Y-136085296D01*
X231209415Y-136182481D01*
X231227250Y-136282499D01*
X231238828Y-136385220D01*
X231243858Y-136490517D01*
X231242052Y-136598261D01*
X231233118Y-136708323D01*
X231216767Y-136820575D01*
X231192708Y-136934889D01*
X231160651Y-137051135D01*
X231142578Y-137096884D01*
X231122313Y-137141596D01*
X231099942Y-137185222D01*
X231075548Y-137227712D01*
X231049215Y-137269018D01*
X231021029Y-137309090D01*
X230991072Y-137347880D01*
X230959429Y-137385338D01*
X230926185Y-137421416D01*
X230891424Y-137456065D01*
X230855230Y-137489236D01*
X230817686Y-137520879D01*
X230778878Y-137550947D01*
X230738889Y-137579389D01*
X230697804Y-137606157D01*
X230655708Y-137631202D01*
X230606871Y-137705397D01*
X230557037Y-137776792D01*
X230505954Y-137845462D01*
X230453366Y-137911480D01*
X230399019Y-137974920D01*
X230342659Y-138035857D01*
X230284032Y-138094365D01*
X230222883Y-138150518D01*
X230158960Y-138204390D01*
X230092006Y-138256055D01*
X230021768Y-138305587D01*
X229947993Y-138353060D01*
X229870425Y-138398549D01*
X229788810Y-138442127D01*
X229702895Y-138483869D01*
X229612425Y-138523848D01*
X229534609Y-138544495D01*
X229444709Y-138560989D01*
X229344698Y-138572855D01*
X229236547Y-138579622D01*
X229122229Y-138580816D01*
X229003713Y-138575963D01*
X228882974Y-138564592D01*
X228761982Y-138546230D01*
X228642709Y-138520402D01*
X228527127Y-138486637D01*
X228471336Y-138466629D01*
X228417208Y-138444460D01*
X228364988Y-138420071D01*
X228314923Y-138393401D01*
X228267260Y-138364391D01*
X228222245Y-138332984D01*
X228180124Y-138299119D01*
X228141145Y-138262738D01*
X228105553Y-138223780D01*
X228073595Y-138182189D01*
X228045517Y-138137903D01*
X228021566Y-138090864D01*
X227946436Y-138062559D01*
X227900283Y-138043645D01*
X227849610Y-138020852D01*
X227795321Y-137993652D01*
X227738320Y-137961514D01*
X227679511Y-137923912D01*
X227619797Y-137880315D01*
X227560083Y-137830194D01*
X227501272Y-137773022D01*
X227472488Y-137741626D01*
X227444269Y-137708269D01*
X227416727Y-137672885D01*
X227389977Y-137635407D01*
X227364130Y-137595769D01*
X227339300Y-137553906D01*
X227315599Y-137509751D01*
X227293141Y-137463238D01*
X227272039Y-137414301D01*
X227252406Y-137362874D01*
X227234355Y-137308891D01*
X227217998Y-137252285D01*
X227181029Y-137216833D01*
X227146285Y-137178367D01*
X227113796Y-137137196D01*
X227083592Y-137093633D01*
X227055703Y-137047987D01*
X227030159Y-137000568D01*
X227006989Y-136951688D01*
X226986224Y-136901656D01*
X226967894Y-136850784D01*
X226952028Y-136799382D01*
X226938657Y-136747760D01*
X226927810Y-136696230D01*
X226919517Y-136645101D01*
X226913809Y-136594683D01*
X226910715Y-136545289D01*
X226910265Y-136497228D01*
X226890318Y-136469277D01*
X226871440Y-136440008D01*
X226853585Y-136409557D01*
X226836708Y-136378060D01*
X226820764Y-136345653D01*
X226805708Y-136312474D01*
X226791494Y-136278659D01*
X226778077Y-136244343D01*
X226753453Y-136174758D01*
X226731473Y-136104810D01*
X226711776Y-136035590D01*
X226693999Y-135968190D01*
X226685537Y-135929290D01*
X226677647Y-135890173D01*
X226670581Y-135850866D01*
X226664593Y-135811391D01*
X226659934Y-135771775D01*
X226658183Y-135751921D01*
X226656859Y-135732040D01*
X226655994Y-135712137D01*
X226655744Y-135698827D01*
X227119683Y-135698827D01*
X227125020Y-135760521D01*
X227134588Y-135819422D01*
X227147989Y-135875590D01*
X227164825Y-135929085D01*
X227184697Y-135979967D01*
X227207207Y-136028296D01*
X227231955Y-136074133D01*
X227258545Y-136117536D01*
X227286576Y-136158567D01*
X227315650Y-136197285D01*
X227375336Y-136268023D01*
X227434413Y-136330231D01*
X227489694Y-136384388D01*
X227537990Y-136430975D01*
X227576114Y-136470472D01*
X227590364Y-136487712D01*
X227600876Y-136503360D01*
X227607251Y-136517475D01*
X227609089Y-136530118D01*
X227605994Y-136541349D01*
X227597565Y-136551228D01*
X227583406Y-136559814D01*
X227563116Y-136567169D01*
X227536298Y-136573351D01*
X227502553Y-136578421D01*
X227412689Y-136585465D01*
X227420909Y-136639486D01*
X227434089Y-136690912D01*
X227451741Y-136739798D01*
X227473384Y-136786196D01*
X227498530Y-136830159D01*
X227526696Y-136871740D01*
X227557398Y-136910992D01*
X227590151Y-136947969D01*
X227624469Y-136982723D01*
X227659869Y-137015307D01*
X227731974Y-137074177D01*
X227802590Y-137125004D01*
X227867839Y-137168212D01*
X227966730Y-137233466D01*
X227982041Y-137245680D01*
X227992618Y-137256360D01*
X227997976Y-137265560D01*
X227997631Y-137273331D01*
X227991098Y-137279728D01*
X227977893Y-137284803D01*
X227957531Y-137288609D01*
X227929527Y-137291199D01*
X227848656Y-137292943D01*
X227731403Y-137290461D01*
X227751271Y-137328587D01*
X227776494Y-137364538D01*
X227806548Y-137398417D01*
X227840912Y-137430326D01*
X227879063Y-137460369D01*
X227920479Y-137488649D01*
X227964637Y-137515267D01*
X228011015Y-137540328D01*
X228108340Y-137586186D01*
X228208277Y-137627045D01*
X228399266Y-137697057D01*
X228481959Y-137727855D01*
X228550547Y-137756944D01*
X228578245Y-137771104D01*
X228600850Y-137785146D01*
X228617838Y-137799172D01*
X228628688Y-137813285D01*
X228632877Y-137827587D01*
X228629882Y-137842182D01*
X228619182Y-137857172D01*
X228600254Y-137872660D01*
X228572575Y-137888749D01*
X228535624Y-137905541D01*
X228488877Y-137923140D01*
X228431812Y-137941648D01*
X228519188Y-137987400D01*
X228613133Y-138029633D01*
X228712955Y-138066895D01*
X228817957Y-138097734D01*
X228927443Y-138120697D01*
X229040719Y-138134331D01*
X229098561Y-138137196D01*
X229157090Y-138137183D01*
X229216218Y-138134113D01*
X229275859Y-138127802D01*
X229335925Y-138118069D01*
X229396331Y-138104733D01*
X229456989Y-138087612D01*
X229517812Y-138066525D01*
X229578713Y-138041290D01*
X229639605Y-138011725D01*
X229700402Y-137977649D01*
X229761016Y-137938880D01*
X229821360Y-137895236D01*
X229881348Y-137846537D01*
X229940893Y-137792600D01*
X229999908Y-137733244D01*
X230058305Y-137668287D01*
X230115998Y-137597548D01*
X230172901Y-137520845D01*
X230228925Y-137437997D01*
X230160627Y-137365567D01*
X230085347Y-137291586D01*
X230002837Y-137215988D01*
X229912849Y-137138706D01*
X229815135Y-137059675D01*
X229709445Y-136978828D01*
X229473145Y-136811421D01*
X229201960Y-136635955D01*
X228893903Y-136451902D01*
X228546986Y-136258730D01*
X228159219Y-136055911D01*
X228317274Y-136110052D01*
X228473301Y-136166491D01*
X228627234Y-136225303D01*
X228779008Y-136286560D01*
X228928555Y-136350335D01*
X229075809Y-136416702D01*
X229220705Y-136485732D01*
X229363175Y-136557498D01*
X229503153Y-136632075D01*
X229640574Y-136709534D01*
X229775370Y-136789950D01*
X229907475Y-136873393D01*
X230036823Y-136959939D01*
X230163347Y-137049659D01*
X230286982Y-137142626D01*
X230407661Y-137238914D01*
X230472469Y-137201015D01*
X230530638Y-137158666D01*
X230582298Y-137112192D01*
X230627580Y-137061922D01*
X230666616Y-137008183D01*
X230699538Y-136951300D01*
X230726477Y-136891602D01*
X230747564Y-136829416D01*
X230762931Y-136765067D01*
X230772709Y-136698885D01*
X230777029Y-136631194D01*
X230776024Y-136562324D01*
X230769824Y-136492599D01*
X230758561Y-136422349D01*
X230742367Y-136351899D01*
X230721372Y-136281576D01*
X230695708Y-136211709D01*
X230665507Y-136142623D01*
X230630900Y-136074645D01*
X230592018Y-136008104D01*
X230548994Y-135943325D01*
X230501957Y-135880637D01*
X230451041Y-135820365D01*
X230396375Y-135762837D01*
X230338093Y-135708380D01*
X230276324Y-135657321D01*
X230211200Y-135609987D01*
X230142854Y-135566705D01*
X230071416Y-135527802D01*
X229997018Y-135493605D01*
X229919790Y-135464442D01*
X229839866Y-135440639D01*
X229843898Y-135484329D01*
X229845257Y-135521151D01*
X229844031Y-135551467D01*
X229840310Y-135575641D01*
X229834182Y-135594036D01*
X229825735Y-135607014D01*
X229815060Y-135614939D01*
X229802244Y-135618174D01*
X229787377Y-135617082D01*
X229770548Y-135612027D01*
X229751844Y-135603371D01*
X229731356Y-135591477D01*
X229685381Y-135559431D01*
X229633334Y-135518792D01*
X229513864Y-135423357D01*
X229447864Y-135374372D01*
X229378635Y-135328414D01*
X229343031Y-135307479D01*
X229306887Y-135288390D01*
X229270291Y-135271510D01*
X229233333Y-135257203D01*
X229196100Y-135245832D01*
X229158682Y-135237759D01*
X229121168Y-135233349D01*
X229083646Y-135232964D01*
X229073648Y-135233589D01*
X229063654Y-135234535D01*
X229053668Y-135235810D01*
X229043690Y-135237417D01*
X229033726Y-135239365D01*
X229023776Y-135241658D01*
X229013845Y-135244302D01*
X229003935Y-135247304D01*
X229038522Y-135331800D01*
X229048738Y-135364947D01*
X229054470Y-135392498D01*
X229055897Y-135414809D01*
X229053194Y-135432234D01*
X229046540Y-135445128D01*
X229036110Y-135453844D01*
X229022082Y-135458738D01*
X229004632Y-135460163D01*
X228983938Y-135458476D01*
X228960176Y-135454029D01*
X228904158Y-135438275D01*
X228837993Y-135415739D01*
X228680884Y-135361665D01*
X228592770Y-135335797D01*
X228500171Y-135314492D01*
X228452631Y-135306435D01*
X228404501Y-135300583D01*
X228355958Y-135297289D01*
X228307177Y-135296908D01*
X228258337Y-135299794D01*
X228209614Y-135306302D01*
X228161185Y-135316786D01*
X228113227Y-135331601D01*
X228175758Y-135403245D01*
X228213398Y-135454606D01*
X228223438Y-135473604D01*
X228227920Y-135488640D01*
X228227066Y-135500082D01*
X228221098Y-135508300D01*
X228210236Y-135513665D01*
X228194703Y-135516544D01*
X228150509Y-135516324D01*
X228015817Y-135502319D01*
X227928865Y-135494444D01*
X227831205Y-135489926D01*
X227724611Y-135491721D01*
X227610856Y-135502785D01*
X227551847Y-135512716D01*
X227491713Y-135526073D01*
X227430675Y-135543224D01*
X227368954Y-135564539D01*
X227306773Y-135590387D01*
X227244353Y-135621138D01*
X227181916Y-135657162D01*
X227119683Y-135698827D01*
X226655744Y-135698827D01*
X226655619Y-135692213D01*
X226655767Y-135672273D01*
X226656469Y-135652318D01*
X226657592Y-135632014D01*
X226659783Y-135611825D01*
X226663023Y-135591796D01*
X226667292Y-135571975D01*
X226672570Y-135552410D01*
X226678839Y-135533147D01*
X226686077Y-135514234D01*
X226694267Y-135495717D01*
X226703387Y-135477644D01*
X226713420Y-135460062D01*
X226724344Y-135443018D01*
X226736142Y-135426559D01*
X226748792Y-135410732D01*
X226762276Y-135395585D01*
X226776574Y-135381164D01*
X226791667Y-135367516D01*
X226834893Y-135333896D01*
X226879348Y-135301989D01*
X226924961Y-135271802D01*
X226971660Y-135243340D01*
X227019375Y-135216611D01*
X227068033Y-135191620D01*
X227117564Y-135168374D01*
X227167896Y-135146880D01*
X227218958Y-135127143D01*
X227270679Y-135109169D01*
X227322987Y-135092966D01*
X227375811Y-135078540D01*
X227429080Y-135065896D01*
X227482723Y-135055042D01*
X227536667Y-135045982D01*
X227590843Y-135038725D01*
X227612476Y-135024881D01*
X227634555Y-135012274D01*
X227657062Y-135000767D01*
X227679977Y-134990222D01*
X227703281Y-134980500D01*
X227726953Y-134971464D01*
X227775325Y-134954894D01*
X227875632Y-134923904D01*
X227927253Y-134907273D01*
X227953362Y-134898190D01*
X227979644Y-134888411D01*
X228018204Y-134876959D01*
X228058540Y-134866678D01*
X228100404Y-134857594D01*
X228143551Y-134849730D01*
X228187735Y-134843108D01*
X228232710Y-134837753D01*
X228278228Y-134833688D01*
X228324046Y-134830936D01*
X228369915Y-134829521D01*
X228415590Y-134829466D01*
X228460825Y-134830795D01*
X228505374Y-134833532D01*
X228548991Y-134837699D01*
X228591429Y-134843321D01*
X228632442Y-134850420D01*
X228671785Y-134859020D01*
X228714108Y-134849274D01*
X228757345Y-134840627D01*
X228801415Y-134833106D01*
X228846235Y-134826738D01*
X228891724Y-134821552D01*
X228937800Y-134817573D01*
X228984382Y-134814831D01*
X229031388Y-134813351D01*
X229070825Y-134813103D01*
X229110452Y-134813767D01*
G36*
X229110452Y-134813767D02*
G01*
X229150222Y-134815358D01*
X229190087Y-134817893D01*
X229230002Y-134821387D01*
X229269917Y-134825856D01*
X229309787Y-134831315D01*
X229349563Y-134837781D01*
X229389198Y-134845268D01*
X229428646Y-134853794D01*
X229467859Y-134863373D01*
X229506789Y-134874021D01*
X229545389Y-134885754D01*
X229583613Y-134898588D01*
X229621412Y-134912538D01*
X229658740Y-134927621D01*
X229739692Y-134924164D01*
X229821350Y-134926497D01*
X229903425Y-134934491D01*
X229985627Y-134948019D01*
X230067666Y-134966951D01*
X230149250Y-134991159D01*
X230230091Y-135020514D01*
X230309898Y-135054888D01*
X230388381Y-135094152D01*
X230465249Y-135138177D01*
X230540213Y-135186835D01*
X230612983Y-135239998D01*
X230683267Y-135297536D01*
X230750777Y-135359322D01*
X230815221Y-135425226D01*
X230876310Y-135495120D01*
X230933754Y-135568876D01*
X230987262Y-135646364D01*
X231036545Y-135727456D01*
X231081311Y-135812024D01*
X231121272Y-135899939D01*
X231156136Y-135991073D01*
X231185614Y-136085296D01*
X231209415Y-136182481D01*
X231227250Y-136282499D01*
X231238828Y-136385220D01*
X231243858Y-136490517D01*
X231242052Y-136598261D01*
X231233118Y-136708323D01*
X231216767Y-136820575D01*
X231192708Y-136934889D01*
X231160651Y-137051135D01*
X231142578Y-137096884D01*
X231122313Y-137141596D01*
X231099942Y-137185222D01*
X231075548Y-137227712D01*
X231049215Y-137269018D01*
X231021029Y-137309090D01*
X230991072Y-137347880D01*
X230959429Y-137385338D01*
X230926185Y-137421416D01*
X230891424Y-137456065D01*
X230855230Y-137489236D01*
X230817686Y-137520879D01*
X230778878Y-137550947D01*
X230738889Y-137579389D01*
X230697804Y-137606157D01*
X230655708Y-137631202D01*
X230606871Y-137705397D01*
X230557037Y-137776792D01*
X230505954Y-137845462D01*
X230453366Y-137911480D01*
X230399019Y-137974920D01*
X230342659Y-138035857D01*
X230284032Y-138094365D01*
X230222883Y-138150518D01*
X230158960Y-138204390D01*
X230092006Y-138256055D01*
X230021768Y-138305587D01*
X229947993Y-138353060D01*
X229870425Y-138398549D01*
X229788810Y-138442127D01*
X229702895Y-138483869D01*
X229612425Y-138523848D01*
X229534609Y-138544495D01*
X229444709Y-138560989D01*
X229344698Y-138572855D01*
X229236547Y-138579622D01*
X229122229Y-138580816D01*
X229003713Y-138575963D01*
X228882974Y-138564592D01*
X228761982Y-138546230D01*
X228642709Y-138520402D01*
X228527127Y-138486637D01*
X228471336Y-138466629D01*
X228417208Y-138444460D01*
X228364988Y-138420071D01*
X228314923Y-138393401D01*
X228267260Y-138364391D01*
X228222245Y-138332984D01*
X228180124Y-138299119D01*
X228141145Y-138262738D01*
X228105553Y-138223780D01*
X228073595Y-138182189D01*
X228045517Y-138137903D01*
X228021566Y-138090864D01*
X227946436Y-138062559D01*
X227900283Y-138043645D01*
X227849610Y-138020852D01*
X227795321Y-137993652D01*
X227738320Y-137961514D01*
X227679511Y-137923912D01*
X227619797Y-137880315D01*
X227560083Y-137830194D01*
X227501272Y-137773022D01*
X227472488Y-137741626D01*
X227444269Y-137708269D01*
X227416727Y-137672885D01*
X227389977Y-137635407D01*
X227364130Y-137595769D01*
X227339300Y-137553906D01*
X227315599Y-137509751D01*
X227293141Y-137463238D01*
X227272039Y-137414301D01*
X227252406Y-137362874D01*
X227234355Y-137308891D01*
X227217998Y-137252285D01*
X227181029Y-137216833D01*
X227146285Y-137178367D01*
X227113796Y-137137196D01*
X227083592Y-137093633D01*
X227055703Y-137047987D01*
X227030159Y-137000568D01*
X227006989Y-136951688D01*
X226986224Y-136901656D01*
X226967894Y-136850784D01*
X226952028Y-136799382D01*
X226938657Y-136747760D01*
X226927810Y-136696230D01*
X226919517Y-136645101D01*
X226913809Y-136594683D01*
X226910715Y-136545289D01*
X226910265Y-136497228D01*
X226890318Y-136469277D01*
X226871440Y-136440008D01*
X226853585Y-136409557D01*
X226836708Y-136378060D01*
X226820764Y-136345653D01*
X226805708Y-136312474D01*
X226791494Y-136278659D01*
X226778077Y-136244343D01*
X226753453Y-136174758D01*
X226731473Y-136104810D01*
X226711776Y-136035590D01*
X226693999Y-135968190D01*
X226685537Y-135929290D01*
X226677647Y-135890173D01*
X226670581Y-135850866D01*
X226664593Y-135811391D01*
X226659934Y-135771775D01*
X226658183Y-135751921D01*
X226656859Y-135732040D01*
X226655994Y-135712137D01*
X226655744Y-135698827D01*
X227119683Y-135698827D01*
X227125020Y-135760521D01*
X227134588Y-135819422D01*
X227147989Y-135875590D01*
X227164825Y-135929085D01*
X227184697Y-135979967D01*
X227207207Y-136028296D01*
X227231955Y-136074133D01*
X227258545Y-136117536D01*
X227286576Y-136158567D01*
X227315650Y-136197285D01*
X227375336Y-136268023D01*
X227434413Y-136330231D01*
X227489694Y-136384388D01*
X227537990Y-136430975D01*
X227576114Y-136470472D01*
X227590364Y-136487712D01*
X227600876Y-136503360D01*
X227607251Y-136517475D01*
X227609089Y-136530118D01*
X227605994Y-136541349D01*
X227597565Y-136551228D01*
X227583406Y-136559814D01*
X227563116Y-136567169D01*
X227536298Y-136573351D01*
X227502553Y-136578421D01*
X227412689Y-136585465D01*
X227420909Y-136639486D01*
X227434089Y-136690912D01*
X227451741Y-136739798D01*
X227473384Y-136786196D01*
X227498530Y-136830159D01*
X227526696Y-136871740D01*
X227557398Y-136910992D01*
X227590151Y-136947969D01*
X227624469Y-136982723D01*
X227659869Y-137015307D01*
X227731974Y-137074177D01*
X227802590Y-137125004D01*
X227867839Y-137168212D01*
X227966730Y-137233466D01*
X227982041Y-137245680D01*
X227992618Y-137256360D01*
X227997976Y-137265560D01*
X227997631Y-137273331D01*
X227991098Y-137279728D01*
X227977893Y-137284803D01*
X227957531Y-137288609D01*
X227929527Y-137291199D01*
X227848656Y-137292943D01*
X227731403Y-137290461D01*
X227751271Y-137328587D01*
X227776494Y-137364538D01*
X227806548Y-137398417D01*
X227840912Y-137430326D01*
X227879063Y-137460369D01*
X227920479Y-137488649D01*
X227964637Y-137515267D01*
X228011015Y-137540328D01*
X228108340Y-137586186D01*
X228208277Y-137627045D01*
X228399266Y-137697057D01*
X228481959Y-137727855D01*
X228550547Y-137756944D01*
X228578245Y-137771104D01*
X228600850Y-137785146D01*
X228617838Y-137799172D01*
X228628688Y-137813285D01*
X228632877Y-137827587D01*
X228629882Y-137842182D01*
X228619182Y-137857172D01*
X228600254Y-137872660D01*
X228572575Y-137888749D01*
X228535624Y-137905541D01*
X228488877Y-137923140D01*
X228431812Y-137941648D01*
X228519188Y-137987400D01*
X228613133Y-138029633D01*
X228712955Y-138066895D01*
X228817957Y-138097734D01*
X228927443Y-138120697D01*
X229040719Y-138134331D01*
X229098561Y-138137196D01*
X229157090Y-138137183D01*
X229216218Y-138134113D01*
X229275859Y-138127802D01*
X229335925Y-138118069D01*
X229396331Y-138104733D01*
X229456989Y-138087612D01*
X229517812Y-138066525D01*
X229578713Y-138041290D01*
X229639605Y-138011725D01*
X229700402Y-137977649D01*
X229761016Y-137938880D01*
X229821360Y-137895236D01*
X229881348Y-137846537D01*
X229940893Y-137792600D01*
X229999908Y-137733244D01*
X230058305Y-137668287D01*
X230115998Y-137597548D01*
X230172901Y-137520845D01*
X230228925Y-137437997D01*
X230160627Y-137365567D01*
X230085347Y-137291586D01*
X230002837Y-137215988D01*
X229912849Y-137138706D01*
X229815135Y-137059675D01*
X229709445Y-136978828D01*
X229473145Y-136811421D01*
X229201960Y-136635955D01*
X228893903Y-136451902D01*
X228546986Y-136258730D01*
X228159219Y-136055911D01*
X228317274Y-136110052D01*
X228473301Y-136166491D01*
X228627234Y-136225303D01*
X228779008Y-136286560D01*
X228928555Y-136350335D01*
X229075809Y-136416702D01*
X229220705Y-136485732D01*
X229363175Y-136557498D01*
X229503153Y-136632075D01*
X229640574Y-136709534D01*
X229775370Y-136789950D01*
X229907475Y-136873393D01*
X230036823Y-136959939D01*
X230163347Y-137049659D01*
X230286982Y-137142626D01*
X230407661Y-137238914D01*
X230472469Y-137201015D01*
X230530638Y-137158666D01*
X230582298Y-137112192D01*
X230627580Y-137061922D01*
X230666616Y-137008183D01*
X230699538Y-136951300D01*
X230726477Y-136891602D01*
X230747564Y-136829416D01*
X230762931Y-136765067D01*
X230772709Y-136698885D01*
X230777029Y-136631194D01*
X230776024Y-136562324D01*
X230769824Y-136492599D01*
X230758561Y-136422349D01*
X230742367Y-136351899D01*
X230721372Y-136281576D01*
X230695708Y-136211709D01*
X230665507Y-136142623D01*
X230630900Y-136074645D01*
X230592018Y-136008104D01*
X230548994Y-135943325D01*
X230501957Y-135880637D01*
X230451041Y-135820365D01*
X230396375Y-135762837D01*
X230338093Y-135708380D01*
X230276324Y-135657321D01*
X230211200Y-135609987D01*
X230142854Y-135566705D01*
X230071416Y-135527802D01*
X229997018Y-135493605D01*
X229919790Y-135464442D01*
X229839866Y-135440639D01*
X229843898Y-135484329D01*
X229845257Y-135521151D01*
X229844031Y-135551467D01*
X229840310Y-135575641D01*
X229834182Y-135594036D01*
X229825735Y-135607014D01*
X229815060Y-135614939D01*
X229802244Y-135618174D01*
X229787377Y-135617082D01*
X229770548Y-135612027D01*
X229751844Y-135603371D01*
X229731356Y-135591477D01*
X229685381Y-135559431D01*
X229633334Y-135518792D01*
X229513864Y-135423357D01*
X229447864Y-135374372D01*
X229378635Y-135328414D01*
X229343031Y-135307479D01*
X229306887Y-135288390D01*
X229270291Y-135271510D01*
X229233333Y-135257203D01*
X229196100Y-135245832D01*
X229158682Y-135237759D01*
X229121168Y-135233349D01*
X229083646Y-135232964D01*
X229073648Y-135233589D01*
X229063654Y-135234535D01*
X229053668Y-135235810D01*
X229043690Y-135237417D01*
X229033726Y-135239365D01*
X229023776Y-135241658D01*
X229013845Y-135244302D01*
X229003935Y-135247304D01*
X229038522Y-135331800D01*
X229048738Y-135364947D01*
X229054470Y-135392498D01*
X229055897Y-135414809D01*
X229053194Y-135432234D01*
X229046540Y-135445128D01*
X229036110Y-135453844D01*
X229022082Y-135458738D01*
X229004632Y-135460163D01*
X228983938Y-135458476D01*
X228960176Y-135454029D01*
X228904158Y-135438275D01*
X228837993Y-135415739D01*
X228680884Y-135361665D01*
X228592770Y-135335797D01*
X228500171Y-135314492D01*
X228452631Y-135306435D01*
X228404501Y-135300583D01*
X228355958Y-135297289D01*
X228307177Y-135296908D01*
X228258337Y-135299794D01*
X228209614Y-135306302D01*
X228161185Y-135316786D01*
X228113227Y-135331601D01*
X228175758Y-135403245D01*
X228213398Y-135454606D01*
X228223438Y-135473604D01*
X228227920Y-135488640D01*
X228227066Y-135500082D01*
X228221098Y-135508300D01*
X228210236Y-135513665D01*
X228194703Y-135516544D01*
X228150509Y-135516324D01*
X228015817Y-135502319D01*
X227928865Y-135494444D01*
X227831205Y-135489926D01*
X227724611Y-135491721D01*
X227610856Y-135502785D01*
X227551847Y-135512716D01*
X227491713Y-135526073D01*
X227430675Y-135543224D01*
X227368954Y-135564539D01*
X227306773Y-135590387D01*
X227244353Y-135621138D01*
X227181916Y-135657162D01*
X227119683Y-135698827D01*
X226655744Y-135698827D01*
X226655619Y-135692213D01*
X226655767Y-135672273D01*
X226656469Y-135652318D01*
X226657592Y-135632014D01*
X226659783Y-135611825D01*
X226663023Y-135591796D01*
X226667292Y-135571975D01*
X226672570Y-135552410D01*
X226678839Y-135533147D01*
X226686077Y-135514234D01*
X226694267Y-135495717D01*
X226703387Y-135477644D01*
X226713420Y-135460062D01*
X226724344Y-135443018D01*
X226736142Y-135426559D01*
X226748792Y-135410732D01*
X226762276Y-135395585D01*
X226776574Y-135381164D01*
X226791667Y-135367516D01*
X226834893Y-135333896D01*
X226879348Y-135301989D01*
X226924961Y-135271802D01*
X226971660Y-135243340D01*
X227019375Y-135216611D01*
X227068033Y-135191620D01*
X227117564Y-135168374D01*
X227167896Y-135146880D01*
X227218958Y-135127143D01*
X227270679Y-135109169D01*
X227322987Y-135092966D01*
X227375811Y-135078540D01*
X227429080Y-135065896D01*
X227482723Y-135055042D01*
X227536667Y-135045982D01*
X227590843Y-135038725D01*
X227612476Y-135024881D01*
X227634555Y-135012274D01*
X227657062Y-135000767D01*
X227679977Y-134990222D01*
X227703281Y-134980500D01*
X227726953Y-134971464D01*
X227775325Y-134954894D01*
X227875632Y-134923904D01*
X227927253Y-134907273D01*
X227953362Y-134898190D01*
X227979644Y-134888411D01*
X228018204Y-134876959D01*
X228058540Y-134866678D01*
X228100404Y-134857594D01*
X228143551Y-134849730D01*
X228187735Y-134843108D01*
X228232710Y-134837753D01*
X228278228Y-134833688D01*
X228324046Y-134830936D01*
X228369915Y-134829521D01*
X228415590Y-134829466D01*
X228460825Y-134830795D01*
X228505374Y-134833532D01*
X228548991Y-134837699D01*
X228591429Y-134843321D01*
X228632442Y-134850420D01*
X228671785Y-134859020D01*
X228714108Y-134849274D01*
X228757345Y-134840627D01*
X228801415Y-134833106D01*
X228846235Y-134826738D01*
X228891724Y-134821552D01*
X228937800Y-134817573D01*
X228984382Y-134814831D01*
X229031388Y-134813351D01*
X229070825Y-134813103D01*
X229110452Y-134813767D01*
G37*
X235963613Y-134813351D02*
X236010619Y-134814831D01*
X236057201Y-134817573D01*
X236103278Y-134821552D01*
X236148767Y-134826738D01*
X236193587Y-134833106D01*
X236237656Y-134840627D01*
X236280893Y-134849274D01*
X236323216Y-134859020D01*
X236362559Y-134850420D01*
X236403572Y-134843321D01*
X236446010Y-134837699D01*
X236489627Y-134833532D01*
X236534176Y-134830795D01*
X236579411Y-134829466D01*
X236625086Y-134829521D01*
X236670956Y-134830936D01*
X236716773Y-134833688D01*
X236762292Y-134837753D01*
X236807266Y-134843108D01*
X236851450Y-134849730D01*
X236894597Y-134857594D01*
X236936462Y-134866678D01*
X236976797Y-134876959D01*
X237015358Y-134888411D01*
X237041639Y-134898190D01*
X237067748Y-134907273D01*
X237119369Y-134923904D01*
X237219676Y-134954894D01*
X237268048Y-134971464D01*
X237291720Y-134980500D01*
X237315024Y-134990222D01*
X237337939Y-135000767D01*
X237360446Y-135012274D01*
X237382526Y-135024881D01*
X237404158Y-135038725D01*
X237458334Y-135045982D01*
X237512279Y-135055042D01*
X237565921Y-135065896D01*
X237619190Y-135078540D01*
X237672014Y-135092966D01*
X237724322Y-135109169D01*
X237776043Y-135127143D01*
X237827105Y-135146880D01*
X237877437Y-135168374D01*
X237926968Y-135191620D01*
X237975626Y-135216611D01*
X238023341Y-135243340D01*
X238070040Y-135271802D01*
X238115653Y-135301989D01*
X238160108Y-135333896D01*
X238203334Y-135367516D01*
X238218426Y-135381164D01*
X238232725Y-135395585D01*
X238246209Y-135410732D01*
X238258859Y-135426559D01*
X238270657Y-135443018D01*
X238281581Y-135460062D01*
X238291614Y-135477644D01*
X238300734Y-135495717D01*
X238308924Y-135514234D01*
X238316162Y-135533147D01*
X238322431Y-135552410D01*
X238327709Y-135571975D01*
X238331978Y-135591796D01*
X238335218Y-135611825D01*
X238337409Y-135632014D01*
X238338532Y-135652318D01*
X238339234Y-135672273D01*
X238339382Y-135692213D01*
X238339007Y-135712137D01*
X238338142Y-135732040D01*
X238336818Y-135751921D01*
X238335067Y-135771775D01*
X238330408Y-135811391D01*
X238324420Y-135850866D01*
X238317354Y-135890173D01*
X238309464Y-135929290D01*
X238301002Y-135968190D01*
X238283225Y-136035590D01*
X238263528Y-136104810D01*
X238241548Y-136174758D01*
X238216924Y-136244343D01*
X238203507Y-136278659D01*
X238189293Y-136312474D01*
X238174237Y-136345653D01*
X238158293Y-136378060D01*
X238141416Y-136409557D01*
X238123562Y-136440008D01*
X238104683Y-136469277D01*
X238084737Y-136497228D01*
X238084287Y-136545289D01*
X238081192Y-136594683D01*
X238075484Y-136645101D01*
X238067191Y-136696230D01*
X238056345Y-136747760D01*
X238042973Y-136799382D01*
X238027107Y-136850784D01*
X238008777Y-136901656D01*
X237988012Y-136951688D01*
X237964842Y-137000568D01*
X237939298Y-137047987D01*
X237911409Y-137093633D01*
X237881205Y-137137196D01*
X237848716Y-137178367D01*
X237813972Y-137216833D01*
X237777003Y-137252285D01*
X237760646Y-137308891D01*
X237742595Y-137362874D01*
X237722961Y-137414301D01*
X237701859Y-137463238D01*
X237679402Y-137509751D01*
X237655701Y-137553906D01*
X237630871Y-137595769D01*
X237605024Y-137635407D01*
X237578274Y-137672885D01*
X237550732Y-137708269D01*
X237522513Y-137741626D01*
X237493729Y-137773022D01*
X237434918Y-137830194D01*
X237375204Y-137880315D01*
X237315490Y-137923912D01*
X237256681Y-137961514D01*
X237199680Y-137993652D01*
X237145391Y-138020852D01*
X237094719Y-138043645D01*
X237048566Y-138062559D01*
X236973435Y-138090864D01*
X236949484Y-138137903D01*
X236921407Y-138182189D01*
X236889448Y-138223780D01*
X236853856Y-138262737D01*
X236814877Y-138299119D01*
X236772756Y-138332984D01*
X236727741Y-138364391D01*
X236680078Y-138393400D01*
X236630013Y-138420070D01*
X236577793Y-138444460D01*
X236523665Y-138466629D01*
X236467874Y-138486636D01*
X236352292Y-138520402D01*
X236233019Y-138546230D01*
X236112027Y-138564592D01*
X235991288Y-138575963D01*
X235872773Y-138580816D01*
X235758454Y-138579622D01*
X235650303Y-138572855D01*
X235550292Y-138560989D01*
X235460392Y-138544495D01*
X235382576Y-138523848D01*
X235292106Y-138483869D01*
X235206191Y-138442127D01*
X235124576Y-138398549D01*
X235047008Y-138353060D01*
X234973233Y-138305587D01*
X234902995Y-138256055D01*
X234836041Y-138204390D01*
X234772117Y-138150518D01*
X234710969Y-138094365D01*
X234652342Y-138035857D01*
X234595982Y-137974920D01*
X234541635Y-137911480D01*
X234489047Y-137845462D01*
X234437963Y-137776792D01*
X234388130Y-137705397D01*
X234339293Y-137631202D01*
X234297196Y-137606157D01*
X234256111Y-137579389D01*
X234216123Y-137550947D01*
X234177315Y-137520879D01*
X234139771Y-137489236D01*
X234103577Y-137456065D01*
X234068815Y-137421416D01*
X234035571Y-137385338D01*
X234003929Y-137347880D01*
X233973972Y-137309090D01*
X233945786Y-137269018D01*
X233919453Y-137227712D01*
X233895059Y-137185222D01*
X233872688Y-137141596D01*
X233852423Y-137096884D01*
X233834350Y-137051135D01*
X233802293Y-136934889D01*
X233778234Y-136820575D01*
X233761883Y-136708323D01*
X233755622Y-136631194D01*
X234217971Y-136631194D01*
X234222291Y-136698885D01*
X234232069Y-136765067D01*
X234247436Y-136829416D01*
X234268523Y-136891602D01*
X234295462Y-136951300D01*
X234328384Y-137008183D01*
X234367420Y-137061922D01*
X234412703Y-137112192D01*
X234464362Y-137158666D01*
X234522531Y-137201015D01*
X234587340Y-137238914D01*
X234708018Y-137142626D01*
X234831653Y-137049659D01*
X234958177Y-136959939D01*
X235087525Y-136873393D01*
X235219630Y-136789950D01*
X235354426Y-136709534D01*
X235491846Y-136632075D01*
X235631825Y-136557498D01*
X235774295Y-136485732D01*
X235919190Y-136416702D01*
X236066445Y-136350335D01*
X236215992Y-136286560D01*
X236367766Y-136225303D01*
X236521699Y-136166491D01*
X236677726Y-136110052D01*
X236835781Y-136055911D01*
X236448014Y-136258730D01*
X236101097Y-136451902D01*
X235793040Y-136635955D01*
X235521856Y-136811421D01*
X235285555Y-136978828D01*
X235179865Y-137059675D01*
X235082151Y-137138706D01*
X234992163Y-137215988D01*
X234909653Y-137291586D01*
X234834373Y-137365567D01*
X234766075Y-137437997D01*
X234822099Y-137520845D01*
X234879002Y-137597548D01*
X234936695Y-137668287D01*
X234995092Y-137733244D01*
X235054107Y-137792600D01*
X235113652Y-137846537D01*
X235173640Y-137895236D01*
X235233985Y-137938880D01*
X235294599Y-137977649D01*
X235355395Y-138011725D01*
X235416288Y-138041290D01*
X235477189Y-138066525D01*
X235538012Y-138087612D01*
X235598669Y-138104733D01*
X235659075Y-138118069D01*
X235719142Y-138127802D01*
X235778783Y-138134113D01*
X235837911Y-138137183D01*
X235896439Y-138137196D01*
X235954281Y-138134331D01*
X236067557Y-138120697D01*
X236177044Y-138097734D01*
X236282045Y-138066895D01*
X236381867Y-138029633D01*
X236475812Y-137987400D01*
X236563187Y-137941648D01*
X236506123Y-137923140D01*
X236459376Y-137905541D01*
X236422424Y-137888749D01*
X236394746Y-137872660D01*
X236375817Y-137857172D01*
X236365117Y-137842182D01*
X236362123Y-137827587D01*
X236366312Y-137813285D01*
X236377162Y-137799172D01*
X236394150Y-137785146D01*
X236416754Y-137771104D01*
X236444452Y-137756944D01*
X236513040Y-137727855D01*
X236595734Y-137697057D01*
X236786723Y-137627045D01*
X236886659Y-137586186D01*
X236983985Y-137540328D01*
X237030363Y-137515267D01*
X237074521Y-137488649D01*
X237115937Y-137460369D01*
X237154088Y-137430326D01*
X237188452Y-137398417D01*
X237218506Y-137364538D01*
X237243729Y-137328587D01*
X237263597Y-137290461D01*
X237146344Y-137292943D01*
X237065473Y-137291199D01*
X237037469Y-137288609D01*
X237017107Y-137284803D01*
X237003902Y-137279728D01*
X236997369Y-137273331D01*
X236997024Y-137265560D01*
X237002382Y-137256360D01*
X237012959Y-137245680D01*
X237028270Y-137233466D01*
X237127161Y-137168212D01*
X237192410Y-137125004D01*
X237263026Y-137074177D01*
X237335131Y-137015307D01*
X237370531Y-136982723D01*
X237404850Y-136947969D01*
X237437602Y-136910992D01*
X237468304Y-136871740D01*
X237496470Y-136830159D01*
X237521617Y-136786196D01*
X237543259Y-136739798D01*
X237560911Y-136690912D01*
X237574091Y-136639486D01*
X237582311Y-136585465D01*
X237492447Y-136578421D01*
X237458702Y-136573351D01*
X237431884Y-136567169D01*
X237411594Y-136559814D01*
X237397434Y-136551228D01*
X237389006Y-136541349D01*
X237385910Y-136530118D01*
X237387749Y-136517475D01*
X237394124Y-136503360D01*
X237404636Y-136487712D01*
X237418886Y-136470472D01*
X237457010Y-136430975D01*
X237505306Y-136384388D01*
X237560587Y-136330231D01*
X237619664Y-136268023D01*
X237679350Y-136197285D01*
X237708424Y-136158567D01*
X237736456Y-136117536D01*
X237763045Y-136074133D01*
X237787793Y-136028296D01*
X237810303Y-135979967D01*
X237830175Y-135929085D01*
X237847011Y-135875590D01*
X237860412Y-135819422D01*
X237869981Y-135760521D01*
X237875317Y-135698827D01*
X237813084Y-135657162D01*
X237750647Y-135621138D01*
X237688227Y-135590387D01*
X237626046Y-135564539D01*
X237564326Y-135543224D01*
X237503288Y-135526073D01*
X237443153Y-135512716D01*
X237384144Y-135502785D01*
X237270389Y-135491721D01*
X237163795Y-135489926D01*
X237066136Y-135494444D01*
X236979183Y-135502319D01*
X236844491Y-135516324D01*
X236800297Y-135516544D01*
X236784764Y-135513665D01*
X236773903Y-135508300D01*
X236767934Y-135500082D01*
X236767080Y-135488640D01*
X236771562Y-135473604D01*
X236781602Y-135454606D01*
X236819242Y-135403245D01*
X236881773Y-135331601D01*
X236833815Y-135316786D01*
X236785386Y-135306302D01*
X236736663Y-135299794D01*
X236687823Y-135296908D01*
X236639042Y-135297289D01*
X236590499Y-135300583D01*
X236542369Y-135306435D01*
X236494829Y-135314492D01*
X236402230Y-135335797D01*
X236314117Y-135361665D01*
X236157007Y-135415739D01*
X236090842Y-135438275D01*
X236034824Y-135454029D01*
X236011062Y-135458476D01*
X235990368Y-135460163D01*
X235972919Y-135458738D01*
X235958890Y-135453844D01*
X235948460Y-135445128D01*
X235941806Y-135432234D01*
X235939103Y-135414809D01*
X235940530Y-135392498D01*
X235946262Y-135364947D01*
X235956477Y-135331800D01*
X235991065Y-135247304D01*
X235981155Y-135244302D01*
X235971224Y-135241658D01*
X235961274Y-135239365D01*
X235951310Y-135237417D01*
X235941332Y-135235810D01*
X235931346Y-135234535D01*
X235921352Y-135233589D01*
X235911354Y-135232964D01*
X235873832Y-135233349D01*
X235836318Y-135237759D01*
X235798900Y-135245832D01*
X235761667Y-135257203D01*
X235724709Y-135271510D01*
X235688113Y-135288390D01*
X235651969Y-135307479D01*
X235616366Y-135328414D01*
X235547136Y-135374372D01*
X235481136Y-135423357D01*
X235361667Y-135518792D01*
X235309619Y-135559431D01*
X235263644Y-135591477D01*
X235243156Y-135603371D01*
X235224453Y-135612027D01*
X235207623Y-135617082D01*
X235192756Y-135618174D01*
X235179940Y-135614939D01*
X235169265Y-135607014D01*
X235160819Y-135594036D01*
X235154690Y-135575641D01*
X235150969Y-135551467D01*
X235149743Y-135521151D01*
X235151102Y-135484329D01*
X235155134Y-135440639D01*
X235075209Y-135464442D01*
X234997982Y-135493605D01*
X234923584Y-135527802D01*
X234852146Y-135566705D01*
X234783799Y-135609987D01*
X234718676Y-135657321D01*
X234656907Y-135708380D01*
X234598624Y-135762837D01*
X234543959Y-135820365D01*
X234493042Y-135880637D01*
X234446006Y-135943325D01*
X234402981Y-136008104D01*
X234364100Y-136074645D01*
X234329493Y-136142623D01*
X234299292Y-136211709D01*
X234273628Y-136281576D01*
X234252633Y-136351899D01*
X234236439Y-136422349D01*
X234225176Y-136492599D01*
X234218976Y-136562324D01*
X234217971Y-136631194D01*
X233755622Y-136631194D01*
X233752949Y-136598261D01*
X233751142Y-136490517D01*
X233756173Y-136385220D01*
X233767751Y-136282499D01*
X233785586Y-136182481D01*
X233809387Y-136085296D01*
X233838865Y-135991073D01*
X233873729Y-135899939D01*
X233913689Y-135812024D01*
X233958456Y-135727456D01*
X234007738Y-135646364D01*
X234061247Y-135568876D01*
X234118690Y-135495120D01*
X234179780Y-135425226D01*
X234244224Y-135359322D01*
X234311734Y-135297537D01*
X234382018Y-135239998D01*
X234454788Y-135186835D01*
X234529752Y-135138177D01*
X234606620Y-135094152D01*
X234685103Y-135054888D01*
X234764910Y-135020514D01*
X234845751Y-134991159D01*
X234927335Y-134966951D01*
X235009374Y-134948019D01*
X235091576Y-134934491D01*
X235173651Y-134926497D01*
X235255310Y-134924164D01*
X235336261Y-134927621D01*
X235373589Y-134912538D01*
X235411388Y-134898588D01*
X235449612Y-134885754D01*
X235488212Y-134874021D01*
X235527142Y-134863373D01*
X235566355Y-134853794D01*
X235605802Y-134845268D01*
X235645438Y-134837781D01*
X235685214Y-134831315D01*
X235725084Y-134825856D01*
X235764999Y-134821387D01*
X235804914Y-134817893D01*
X235844780Y-134815358D01*
X235884550Y-134813767D01*
X235924177Y-134813103D01*
X235963613Y-134813351D01*
G36*
X235963613Y-134813351D02*
G01*
X236010619Y-134814831D01*
X236057201Y-134817573D01*
X236103278Y-134821552D01*
X236148767Y-134826738D01*
X236193587Y-134833106D01*
X236237656Y-134840627D01*
X236280893Y-134849274D01*
X236323216Y-134859020D01*
X236362559Y-134850420D01*
X236403572Y-134843321D01*
X236446010Y-134837699D01*
X236489627Y-134833532D01*
X236534176Y-134830795D01*
X236579411Y-134829466D01*
X236625086Y-134829521D01*
X236670956Y-134830936D01*
X236716773Y-134833688D01*
X236762292Y-134837753D01*
X236807266Y-134843108D01*
X236851450Y-134849730D01*
X236894597Y-134857594D01*
X236936462Y-134866678D01*
X236976797Y-134876959D01*
X237015358Y-134888411D01*
X237041639Y-134898190D01*
X237067748Y-134907273D01*
X237119369Y-134923904D01*
X237219676Y-134954894D01*
X237268048Y-134971464D01*
X237291720Y-134980500D01*
X237315024Y-134990222D01*
X237337939Y-135000767D01*
X237360446Y-135012274D01*
X237382526Y-135024881D01*
X237404158Y-135038725D01*
X237458334Y-135045982D01*
X237512279Y-135055042D01*
X237565921Y-135065896D01*
X237619190Y-135078540D01*
X237672014Y-135092966D01*
X237724322Y-135109169D01*
X237776043Y-135127143D01*
X237827105Y-135146880D01*
X237877437Y-135168374D01*
X237926968Y-135191620D01*
X237975626Y-135216611D01*
X238023341Y-135243340D01*
X238070040Y-135271802D01*
X238115653Y-135301989D01*
X238160108Y-135333896D01*
X238203334Y-135367516D01*
X238218426Y-135381164D01*
X238232725Y-135395585D01*
X238246209Y-135410732D01*
X238258859Y-135426559D01*
X238270657Y-135443018D01*
X238281581Y-135460062D01*
X238291614Y-135477644D01*
X238300734Y-135495717D01*
X238308924Y-135514234D01*
X238316162Y-135533147D01*
X238322431Y-135552410D01*
X238327709Y-135571975D01*
X238331978Y-135591796D01*
X238335218Y-135611825D01*
X238337409Y-135632014D01*
X238338532Y-135652318D01*
X238339234Y-135672273D01*
X238339382Y-135692213D01*
X238339007Y-135712137D01*
X238338142Y-135732040D01*
X238336818Y-135751921D01*
X238335067Y-135771775D01*
X238330408Y-135811391D01*
X238324420Y-135850866D01*
X238317354Y-135890173D01*
X238309464Y-135929290D01*
X238301002Y-135968190D01*
X238283225Y-136035590D01*
X238263528Y-136104810D01*
X238241548Y-136174758D01*
X238216924Y-136244343D01*
X238203507Y-136278659D01*
X238189293Y-136312474D01*
X238174237Y-136345653D01*
X238158293Y-136378060D01*
X238141416Y-136409557D01*
X238123562Y-136440008D01*
X238104683Y-136469277D01*
X238084737Y-136497228D01*
X238084287Y-136545289D01*
X238081192Y-136594683D01*
X238075484Y-136645101D01*
X238067191Y-136696230D01*
X238056345Y-136747760D01*
X238042973Y-136799382D01*
X238027107Y-136850784D01*
X238008777Y-136901656D01*
X237988012Y-136951688D01*
X237964842Y-137000568D01*
X237939298Y-137047987D01*
X237911409Y-137093633D01*
X237881205Y-137137196D01*
X237848716Y-137178367D01*
X237813972Y-137216833D01*
X237777003Y-137252285D01*
X237760646Y-137308891D01*
X237742595Y-137362874D01*
X237722961Y-137414301D01*
X237701859Y-137463238D01*
X237679402Y-137509751D01*
X237655701Y-137553906D01*
X237630871Y-137595769D01*
X237605024Y-137635407D01*
X237578274Y-137672885D01*
X237550732Y-137708269D01*
X237522513Y-137741626D01*
X237493729Y-137773022D01*
X237434918Y-137830194D01*
X237375204Y-137880315D01*
X237315490Y-137923912D01*
X237256681Y-137961514D01*
X237199680Y-137993652D01*
X237145391Y-138020852D01*
X237094719Y-138043645D01*
X237048566Y-138062559D01*
X236973435Y-138090864D01*
X236949484Y-138137903D01*
X236921407Y-138182189D01*
X236889448Y-138223780D01*
X236853856Y-138262737D01*
X236814877Y-138299119D01*
X236772756Y-138332984D01*
X236727741Y-138364391D01*
X236680078Y-138393400D01*
X236630013Y-138420070D01*
X236577793Y-138444460D01*
X236523665Y-138466629D01*
X236467874Y-138486636D01*
X236352292Y-138520402D01*
X236233019Y-138546230D01*
X236112027Y-138564592D01*
X235991288Y-138575963D01*
X235872773Y-138580816D01*
X235758454Y-138579622D01*
X235650303Y-138572855D01*
X235550292Y-138560989D01*
X235460392Y-138544495D01*
X235382576Y-138523848D01*
X235292106Y-138483869D01*
X235206191Y-138442127D01*
X235124576Y-138398549D01*
X235047008Y-138353060D01*
X234973233Y-138305587D01*
X234902995Y-138256055D01*
X234836041Y-138204390D01*
X234772117Y-138150518D01*
X234710969Y-138094365D01*
X234652342Y-138035857D01*
X234595982Y-137974920D01*
X234541635Y-137911480D01*
X234489047Y-137845462D01*
X234437963Y-137776792D01*
X234388130Y-137705397D01*
X234339293Y-137631202D01*
X234297196Y-137606157D01*
X234256111Y-137579389D01*
X234216123Y-137550947D01*
X234177315Y-137520879D01*
X234139771Y-137489236D01*
X234103577Y-137456065D01*
X234068815Y-137421416D01*
X234035571Y-137385338D01*
X234003929Y-137347880D01*
X233973972Y-137309090D01*
X233945786Y-137269018D01*
X233919453Y-137227712D01*
X233895059Y-137185222D01*
X233872688Y-137141596D01*
X233852423Y-137096884D01*
X233834350Y-137051135D01*
X233802293Y-136934889D01*
X233778234Y-136820575D01*
X233761883Y-136708323D01*
X233755622Y-136631194D01*
X234217971Y-136631194D01*
X234222291Y-136698885D01*
X234232069Y-136765067D01*
X234247436Y-136829416D01*
X234268523Y-136891602D01*
X234295462Y-136951300D01*
X234328384Y-137008183D01*
X234367420Y-137061922D01*
X234412703Y-137112192D01*
X234464362Y-137158666D01*
X234522531Y-137201015D01*
X234587340Y-137238914D01*
X234708018Y-137142626D01*
X234831653Y-137049659D01*
X234958177Y-136959939D01*
X235087525Y-136873393D01*
X235219630Y-136789950D01*
X235354426Y-136709534D01*
X235491846Y-136632075D01*
X235631825Y-136557498D01*
X235774295Y-136485732D01*
X235919190Y-136416702D01*
X236066445Y-136350335D01*
X236215992Y-136286560D01*
X236367766Y-136225303D01*
X236521699Y-136166491D01*
X236677726Y-136110052D01*
X236835781Y-136055911D01*
X236448014Y-136258730D01*
X236101097Y-136451902D01*
X235793040Y-136635955D01*
X235521856Y-136811421D01*
X235285555Y-136978828D01*
X235179865Y-137059675D01*
X235082151Y-137138706D01*
X234992163Y-137215988D01*
X234909653Y-137291586D01*
X234834373Y-137365567D01*
X234766075Y-137437997D01*
X234822099Y-137520845D01*
X234879002Y-137597548D01*
X234936695Y-137668287D01*
X234995092Y-137733244D01*
X235054107Y-137792600D01*
X235113652Y-137846537D01*
X235173640Y-137895236D01*
X235233985Y-137938880D01*
X235294599Y-137977649D01*
X235355395Y-138011725D01*
X235416288Y-138041290D01*
X235477189Y-138066525D01*
X235538012Y-138087612D01*
X235598669Y-138104733D01*
X235659075Y-138118069D01*
X235719142Y-138127802D01*
X235778783Y-138134113D01*
X235837911Y-138137183D01*
X235896439Y-138137196D01*
X235954281Y-138134331D01*
X236067557Y-138120697D01*
X236177044Y-138097734D01*
X236282045Y-138066895D01*
X236381867Y-138029633D01*
X236475812Y-137987400D01*
X236563187Y-137941648D01*
X236506123Y-137923140D01*
X236459376Y-137905541D01*
X236422424Y-137888749D01*
X236394746Y-137872660D01*
X236375817Y-137857172D01*
X236365117Y-137842182D01*
X236362123Y-137827587D01*
X236366312Y-137813285D01*
X236377162Y-137799172D01*
X236394150Y-137785146D01*
X236416754Y-137771104D01*
X236444452Y-137756944D01*
X236513040Y-137727855D01*
X236595734Y-137697057D01*
X236786723Y-137627045D01*
X236886659Y-137586186D01*
X236983985Y-137540328D01*
X237030363Y-137515267D01*
X237074521Y-137488649D01*
X237115937Y-137460369D01*
X237154088Y-137430326D01*
X237188452Y-137398417D01*
X237218506Y-137364538D01*
X237243729Y-137328587D01*
X237263597Y-137290461D01*
X237146344Y-137292943D01*
X237065473Y-137291199D01*
X237037469Y-137288609D01*
X237017107Y-137284803D01*
X237003902Y-137279728D01*
X236997369Y-137273331D01*
X236997024Y-137265560D01*
X237002382Y-137256360D01*
X237012959Y-137245680D01*
X237028270Y-137233466D01*
X237127161Y-137168212D01*
X237192410Y-137125004D01*
X237263026Y-137074177D01*
X237335131Y-137015307D01*
X237370531Y-136982723D01*
X237404850Y-136947969D01*
X237437602Y-136910992D01*
X237468304Y-136871740D01*
X237496470Y-136830159D01*
X237521617Y-136786196D01*
X237543259Y-136739798D01*
X237560911Y-136690912D01*
X237574091Y-136639486D01*
X237582311Y-136585465D01*
X237492447Y-136578421D01*
X237458702Y-136573351D01*
X237431884Y-136567169D01*
X237411594Y-136559814D01*
X237397434Y-136551228D01*
X237389006Y-136541349D01*
X237385910Y-136530118D01*
X237387749Y-136517475D01*
X237394124Y-136503360D01*
X237404636Y-136487712D01*
X237418886Y-136470472D01*
X237457010Y-136430975D01*
X237505306Y-136384388D01*
X237560587Y-136330231D01*
X237619664Y-136268023D01*
X237679350Y-136197285D01*
X237708424Y-136158567D01*
X237736456Y-136117536D01*
X237763045Y-136074133D01*
X237787793Y-136028296D01*
X237810303Y-135979967D01*
X237830175Y-135929085D01*
X237847011Y-135875590D01*
X237860412Y-135819422D01*
X237869981Y-135760521D01*
X237875317Y-135698827D01*
X237813084Y-135657162D01*
X237750647Y-135621138D01*
X237688227Y-135590387D01*
X237626046Y-135564539D01*
X237564326Y-135543224D01*
X237503288Y-135526073D01*
X237443153Y-135512716D01*
X237384144Y-135502785D01*
X237270389Y-135491721D01*
X237163795Y-135489926D01*
X237066136Y-135494444D01*
X236979183Y-135502319D01*
X236844491Y-135516324D01*
X236800297Y-135516544D01*
X236784764Y-135513665D01*
X236773903Y-135508300D01*
X236767934Y-135500082D01*
X236767080Y-135488640D01*
X236771562Y-135473604D01*
X236781602Y-135454606D01*
X236819242Y-135403245D01*
X236881773Y-135331601D01*
X236833815Y-135316786D01*
X236785386Y-135306302D01*
X236736663Y-135299794D01*
X236687823Y-135296908D01*
X236639042Y-135297289D01*
X236590499Y-135300583D01*
X236542369Y-135306435D01*
X236494829Y-135314492D01*
X236402230Y-135335797D01*
X236314117Y-135361665D01*
X236157007Y-135415739D01*
X236090842Y-135438275D01*
X236034824Y-135454029D01*
X236011062Y-135458476D01*
X235990368Y-135460163D01*
X235972919Y-135458738D01*
X235958890Y-135453844D01*
X235948460Y-135445128D01*
X235941806Y-135432234D01*
X235939103Y-135414809D01*
X235940530Y-135392498D01*
X235946262Y-135364947D01*
X235956477Y-135331800D01*
X235991065Y-135247304D01*
X235981155Y-135244302D01*
X235971224Y-135241658D01*
X235961274Y-135239365D01*
X235951310Y-135237417D01*
X235941332Y-135235810D01*
X235931346Y-135234535D01*
X235921352Y-135233589D01*
X235911354Y-135232964D01*
X235873832Y-135233349D01*
X235836318Y-135237759D01*
X235798900Y-135245832D01*
X235761667Y-135257203D01*
X235724709Y-135271510D01*
X235688113Y-135288390D01*
X235651969Y-135307479D01*
X235616366Y-135328414D01*
X235547136Y-135374372D01*
X235481136Y-135423357D01*
X235361667Y-135518792D01*
X235309619Y-135559431D01*
X235263644Y-135591477D01*
X235243156Y-135603371D01*
X235224453Y-135612027D01*
X235207623Y-135617082D01*
X235192756Y-135618174D01*
X235179940Y-135614939D01*
X235169265Y-135607014D01*
X235160819Y-135594036D01*
X235154690Y-135575641D01*
X235150969Y-135551467D01*
X235149743Y-135521151D01*
X235151102Y-135484329D01*
X235155134Y-135440639D01*
X235075209Y-135464442D01*
X234997982Y-135493605D01*
X234923584Y-135527802D01*
X234852146Y-135566705D01*
X234783799Y-135609987D01*
X234718676Y-135657321D01*
X234656907Y-135708380D01*
X234598624Y-135762837D01*
X234543959Y-135820365D01*
X234493042Y-135880637D01*
X234446006Y-135943325D01*
X234402981Y-136008104D01*
X234364100Y-136074645D01*
X234329493Y-136142623D01*
X234299292Y-136211709D01*
X234273628Y-136281576D01*
X234252633Y-136351899D01*
X234236439Y-136422349D01*
X234225176Y-136492599D01*
X234218976Y-136562324D01*
X234217971Y-136631194D01*
X233755622Y-136631194D01*
X233752949Y-136598261D01*
X233751142Y-136490517D01*
X233756173Y-136385220D01*
X233767751Y-136282499D01*
X233785586Y-136182481D01*
X233809387Y-136085296D01*
X233838865Y-135991073D01*
X233873729Y-135899939D01*
X233913689Y-135812024D01*
X233958456Y-135727456D01*
X234007738Y-135646364D01*
X234061247Y-135568876D01*
X234118690Y-135495120D01*
X234179780Y-135425226D01*
X234244224Y-135359322D01*
X234311734Y-135297537D01*
X234382018Y-135239998D01*
X234454788Y-135186835D01*
X234529752Y-135138177D01*
X234606620Y-135094152D01*
X234685103Y-135054888D01*
X234764910Y-135020514D01*
X234845751Y-134991159D01*
X234927335Y-134966951D01*
X235009374Y-134948019D01*
X235091576Y-134934491D01*
X235173651Y-134926497D01*
X235255310Y-134924164D01*
X235336261Y-134927621D01*
X235373589Y-134912538D01*
X235411388Y-134898588D01*
X235449612Y-134885754D01*
X235488212Y-134874021D01*
X235527142Y-134863373D01*
X235566355Y-134853794D01*
X235605802Y-134845268D01*
X235645438Y-134837781D01*
X235685214Y-134831315D01*
X235725084Y-134825856D01*
X235764999Y-134821387D01*
X235804914Y-134817893D01*
X235844780Y-134815358D01*
X235884550Y-134813767D01*
X235924177Y-134813103D01*
X235963613Y-134813351D01*
G37*
G36*
X232450144Y-137263842D02*
G01*
X232677533Y-137279834D01*
X232893563Y-137305956D01*
X233098894Y-137342568D01*
X233197753Y-137364920D01*
X233294186Y-137390031D01*
X233388273Y-137417944D01*
X233480099Y-137448705D01*
X233569745Y-137482359D01*
X233657295Y-137518951D01*
X233742830Y-137558527D01*
X233826433Y-137601130D01*
X233908187Y-137646808D01*
X233988174Y-137695603D01*
X234066478Y-137747563D01*
X234143179Y-137802731D01*
X234218362Y-137861153D01*
X234292108Y-137922874D01*
X234364500Y-137987939D01*
X234435621Y-138056393D01*
X234574380Y-138203648D01*
X234709044Y-138365002D01*
X234840273Y-138540813D01*
X234968730Y-138731443D01*
X235095072Y-138937254D01*
X235209963Y-139053302D01*
X235318780Y-139174796D01*
X235421046Y-139301540D01*
X235516280Y-139433336D01*
X235604005Y-139569989D01*
X235683739Y-139711304D01*
X235755005Y-139857084D01*
X235817323Y-140007132D01*
X235870214Y-140161254D01*
X235913198Y-140319253D01*
X235945797Y-140480933D01*
X235967531Y-140646098D01*
X235977921Y-140814552D01*
X235976488Y-140986099D01*
X235962752Y-141160544D01*
X235936235Y-141337689D01*
X235918139Y-141425243D01*
X235897042Y-141509512D01*
X235873133Y-141590552D01*
X235846598Y-141668420D01*
X235817626Y-141743172D01*
X235786403Y-141814863D01*
X235753117Y-141883551D01*
X235717957Y-141949292D01*
X235681108Y-142012140D01*
X235642760Y-142072154D01*
X235603098Y-142129388D01*
X235562311Y-142183900D01*
X235520587Y-142235745D01*
X235478112Y-142284980D01*
X235435075Y-142331660D01*
X235391662Y-142375843D01*
X235304462Y-142456939D01*
X235218010Y-142528717D01*
X235133807Y-142591626D01*
X235053353Y-142646118D01*
X234978149Y-142692641D01*
X234909694Y-142731644D01*
X234799031Y-142788892D01*
X234746429Y-142861974D01*
X234691745Y-142932136D01*
X234576514Y-143063848D01*
X234454104Y-143184335D01*
X234325279Y-143293903D01*
X234190805Y-143392857D01*
X234051444Y-143481505D01*
X233907963Y-143560153D01*
X233761126Y-143629105D01*
X233611697Y-143688670D01*
X233460442Y-143739153D01*
X233308124Y-143780860D01*
X233155510Y-143814098D01*
X233003363Y-143839172D01*
X232852448Y-143856389D01*
X232703529Y-143866056D01*
X232557372Y-143868477D01*
X232403282Y-143865157D01*
X232246104Y-143854704D01*
X232086662Y-143836805D01*
X231925779Y-143811147D01*
X231764277Y-143777414D01*
X231602979Y-143735295D01*
X231442708Y-143684475D01*
X231284286Y-143624640D01*
X231128535Y-143555476D01*
X230976279Y-143476671D01*
X230828340Y-143387910D01*
X230685541Y-143288879D01*
X230548704Y-143179266D01*
X230482778Y-143120392D01*
X230418652Y-143058755D01*
X230356428Y-142994315D01*
X230296208Y-142927034D01*
X230238096Y-142856872D01*
X230182194Y-142783789D01*
X230064588Y-142726538D01*
X229991836Y-142687531D01*
X229911911Y-142641005D01*
X229826408Y-142586508D01*
X229736920Y-142523593D01*
X229645041Y-142451809D01*
X229560773Y-142378064D01*
X230771629Y-142378064D01*
X230774423Y-142429912D01*
X230782665Y-142481821D01*
X230796144Y-142533676D01*
X230814650Y-142585364D01*
X230837972Y-142636771D01*
X230865899Y-142687783D01*
X230898219Y-142738287D01*
X230934724Y-142788168D01*
X231019439Y-142885607D01*
X231118360Y-142979190D01*
X231229799Y-143068005D01*
X231352072Y-143151143D01*
X231483490Y-143227692D01*
X231622370Y-143296742D01*
X231767024Y-143357381D01*
X231915767Y-143408699D01*
X232066913Y-143449785D01*
X232218775Y-143479728D01*
X232369667Y-143497618D01*
X232517904Y-143502544D01*
X232599958Y-143502437D01*
X232681687Y-143498514D01*
X232762943Y-143490949D01*
X232843575Y-143479916D01*
X232923434Y-143465592D01*
X233002372Y-143448151D01*
X233080237Y-143427769D01*
X233156881Y-143404619D01*
X233232154Y-143378877D01*
X233305906Y-143350719D01*
X233377988Y-143320319D01*
X233448250Y-143287851D01*
X233516543Y-143253492D01*
X233582717Y-143217417D01*
X233646622Y-143179799D01*
X233708109Y-143140815D01*
X233767029Y-143100639D01*
X233823231Y-143059446D01*
X233876566Y-143017411D01*
X233926885Y-142974710D01*
X233974039Y-142931516D01*
X234017876Y-142888007D01*
X234058249Y-142844355D01*
X234095006Y-142800737D01*
X234128000Y-142757326D01*
X234157079Y-142714300D01*
X234182096Y-142671831D01*
X234202899Y-142630096D01*
X234219340Y-142589269D01*
X234231268Y-142549526D01*
X234238535Y-142511040D01*
X234240990Y-142473989D01*
X234239257Y-142429946D01*
X234233482Y-142385931D01*
X234223730Y-142342033D01*
X234210068Y-142298338D01*
X234192561Y-142254934D01*
X234171277Y-142211907D01*
X234117637Y-142127335D01*
X234049675Y-142045321D01*
X233967921Y-141966561D01*
X233872902Y-141891755D01*
X233765147Y-141821599D01*
X233645183Y-141756792D01*
X233513538Y-141698032D01*
X233370742Y-141646015D01*
X233217321Y-141601440D01*
X233053804Y-141565005D01*
X232880718Y-141537407D01*
X232698593Y-141519344D01*
X232507957Y-141511515D01*
X232409871Y-141512048D01*
X232314085Y-141514852D01*
X232220653Y-141519869D01*
X232129627Y-141527045D01*
X232041060Y-141536324D01*
X231955004Y-141547650D01*
X231871512Y-141560967D01*
X231790637Y-141576220D01*
X231712431Y-141593353D01*
X231636947Y-141612309D01*
X231564238Y-141633034D01*
X231494356Y-141655472D01*
X231427355Y-141679567D01*
X231363286Y-141705263D01*
X231302203Y-141732504D01*
X231244158Y-141761235D01*
X231189204Y-141791400D01*
X231137394Y-141822944D01*
X231088780Y-141855810D01*
X231043415Y-141889942D01*
X231001351Y-141925286D01*
X230962642Y-141961786D01*
X230927340Y-141999385D01*
X230895497Y-142038027D01*
X230867167Y-142077658D01*
X230842402Y-142118222D01*
X230821255Y-142159662D01*
X230803778Y-142201924D01*
X230790024Y-142244950D01*
X230780046Y-142288686D01*
X230773897Y-142333076D01*
X230771629Y-142378064D01*
X229560773Y-142378064D01*
X229552366Y-142370707D01*
X229460490Y-142279838D01*
X229371005Y-142178753D01*
X229285507Y-142067001D01*
X229244751Y-142006985D01*
X229205590Y-141944134D01*
X229168222Y-141878391D01*
X229132847Y-141809701D01*
X229099665Y-141738008D01*
X229068874Y-141663255D01*
X229040674Y-141585386D01*
X229015264Y-141504344D01*
X228992844Y-141420075D01*
X228973612Y-141332521D01*
X228957477Y-141244135D01*
X228944197Y-141157382D01*
X228933749Y-141072220D01*
X228930529Y-141036970D01*
X229299117Y-141036970D01*
X229303429Y-141133803D01*
X229308973Y-141183493D01*
X229316939Y-141233968D01*
X229327449Y-141285180D01*
X229340624Y-141337079D01*
X229356587Y-141389619D01*
X229375459Y-141442750D01*
X229397364Y-141496425D01*
X229422423Y-141550595D01*
X229452496Y-141596146D01*
X229483360Y-141639292D01*
X229514950Y-141680063D01*
X229547198Y-141718490D01*
X229580036Y-141754603D01*
X229613399Y-141788432D01*
X229647218Y-141820008D01*
X229681427Y-141849359D01*
X229715959Y-141876518D01*
X229750746Y-141901514D01*
X229785722Y-141924376D01*
X229820820Y-141945136D01*
X229855972Y-141963824D01*
X229891111Y-141980469D01*
X229926171Y-141995103D01*
X229961084Y-142007754D01*
X229995783Y-142018454D01*
X230030202Y-142027232D01*
X230064273Y-142034120D01*
X230097929Y-142039146D01*
X230131103Y-142042341D01*
X230163728Y-142043736D01*
X230195737Y-142043361D01*
X230227063Y-142041245D01*
X230257639Y-142037419D01*
X230287398Y-142031914D01*
X230316272Y-142024759D01*
X230344196Y-142015985D01*
X230371101Y-142005621D01*
X230396920Y-141993699D01*
X230421587Y-141980248D01*
X230445035Y-141965298D01*
X230468637Y-141942621D01*
X230490988Y-141916290D01*
X230512060Y-141886508D01*
X230531826Y-141853481D01*
X230567328Y-141778500D01*
X230597277Y-141692979D01*
X230621454Y-141598545D01*
X230639639Y-141496828D01*
X230651615Y-141389459D01*
X230657163Y-141278066D01*
X230656496Y-141209143D01*
X234236665Y-141209143D01*
X234242213Y-141320536D01*
X234254188Y-141427906D01*
X234272374Y-141529622D01*
X234296551Y-141624056D01*
X234326500Y-141709578D01*
X234343571Y-141748487D01*
X234362003Y-141784558D01*
X234381768Y-141817586D01*
X234402840Y-141847367D01*
X234425191Y-141873698D01*
X234448794Y-141896375D01*
X234472242Y-141911325D01*
X234496909Y-141924776D01*
X234522728Y-141936698D01*
X234549633Y-141947062D01*
X234577556Y-141955836D01*
X234606431Y-141962991D01*
X234636190Y-141968496D01*
X234666766Y-141972322D01*
X234698092Y-141974438D01*
X234730101Y-141974813D01*
X234762726Y-141973418D01*
X234795900Y-141970223D01*
X234829556Y-141965197D01*
X234863627Y-141958309D01*
X234898045Y-141949531D01*
X234932745Y-141938831D01*
X234967658Y-141926179D01*
X235002718Y-141911546D01*
X235037857Y-141894901D01*
X235073009Y-141876213D01*
X235108107Y-141855453D01*
X235143083Y-141832590D01*
X235177870Y-141807595D01*
X235212402Y-141780436D01*
X235246611Y-141751084D01*
X235280430Y-141719509D01*
X235313792Y-141685680D01*
X235346631Y-141649567D01*
X235378879Y-141611140D01*
X235410468Y-141570368D01*
X235441333Y-141527222D01*
X235471406Y-141481672D01*
X235496659Y-141427343D01*
X235519120Y-141373203D01*
X235538872Y-141319315D01*
X235555995Y-141265741D01*
X235570571Y-141212546D01*
X235582683Y-141159792D01*
X235592412Y-141107544D01*
X235599840Y-141055864D01*
X235605050Y-141004816D01*
X235608122Y-140954463D01*
X235609139Y-140904869D01*
X235608182Y-140856097D01*
X235605334Y-140808210D01*
X235600676Y-140761272D01*
X235594290Y-140715346D01*
X235586258Y-140670496D01*
X235576662Y-140626784D01*
X235565583Y-140584275D01*
X235553105Y-140543031D01*
X235539307Y-140503117D01*
X235524273Y-140464594D01*
X235508084Y-140427528D01*
X235490821Y-140391981D01*
X235472568Y-140358016D01*
X235453405Y-140325697D01*
X235433415Y-140295087D01*
X235412679Y-140266251D01*
X235391279Y-140239250D01*
X235369298Y-140214148D01*
X235346816Y-140191010D01*
X235323916Y-140169897D01*
X235300680Y-140150874D01*
X235280231Y-140135460D01*
X235259785Y-140120676D01*
X235239328Y-140106572D01*
X235218846Y-140093196D01*
X235198325Y-140080599D01*
X235177750Y-140068830D01*
X235157109Y-140057939D01*
X235136387Y-140047976D01*
X235115569Y-140038989D01*
X235094643Y-140031029D01*
X235073593Y-140024145D01*
X235052407Y-140018386D01*
X235031069Y-140013803D01*
X235009567Y-140010445D01*
X234987885Y-140008361D01*
X234966011Y-140007601D01*
X234966012Y-140007602D01*
X234937581Y-140008651D01*
X234908779Y-140012077D01*
X234879576Y-140017986D01*
X234849941Y-140026482D01*
X234819847Y-140037672D01*
X234789262Y-140051661D01*
X234758158Y-140068554D01*
X234726504Y-140088457D01*
X234694272Y-140111475D01*
X234661431Y-140137714D01*
X234627953Y-140167279D01*
X234593807Y-140200276D01*
X234558965Y-140236810D01*
X234523395Y-140276987D01*
X234487070Y-140320912D01*
X234449959Y-140368691D01*
X234422045Y-140409922D01*
X234396204Y-140453610D01*
X234372407Y-140499551D01*
X234350628Y-140547542D01*
X234330838Y-140597379D01*
X234313011Y-140648857D01*
X234283135Y-140755925D01*
X234260781Y-140867118D01*
X234245731Y-140980804D01*
X234237765Y-141095356D01*
X234236665Y-141209143D01*
X230656496Y-141209143D01*
X230656063Y-141164279D01*
X230648097Y-141049727D01*
X230633047Y-140936041D01*
X230610693Y-140824848D01*
X230580817Y-140717780D01*
X230543201Y-140616465D01*
X230521421Y-140568474D01*
X230497625Y-140522533D01*
X230471784Y-140478845D01*
X230443871Y-140437614D01*
X230410570Y-140395266D01*
X230377381Y-140356569D01*
X230344332Y-140321406D01*
X230311452Y-140289655D01*
X230278772Y-140261199D01*
X230246320Y-140235917D01*
X230214127Y-140213692D01*
X230182221Y-140194403D01*
X230150632Y-140177931D01*
X230119390Y-140164157D01*
X230088524Y-140152962D01*
X230058063Y-140144226D01*
X230028037Y-140137831D01*
X229998476Y-140133657D01*
X229969409Y-140131585D01*
X229940865Y-140131496D01*
X229940867Y-140131495D01*
X229926801Y-140132157D01*
X229912876Y-140133269D01*
X229899097Y-140134817D01*
X229885467Y-140136787D01*
X229858669Y-140141929D01*
X229832512Y-140148575D01*
X229807025Y-140156607D01*
X229782239Y-140165905D01*
X229758182Y-140176349D01*
X229734885Y-140187820D01*
X229712376Y-140200199D01*
X229690686Y-140213365D01*
X229669844Y-140227200D01*
X229649880Y-140241584D01*
X229630823Y-140256397D01*
X229612702Y-140271521D01*
X229595548Y-140286835D01*
X229579390Y-140302221D01*
X229546991Y-140336903D01*
X229513046Y-140379167D01*
X229478531Y-140428626D01*
X229444423Y-140484894D01*
X229411699Y-140547584D01*
X229381336Y-140616311D01*
X229354311Y-140690688D01*
X229331599Y-140770329D01*
X229314179Y-140854847D01*
X229303026Y-140943856D01*
X229299117Y-141036970D01*
X228930529Y-141036970D01*
X228926111Y-140988609D01*
X228921257Y-140906507D01*
X228919166Y-140825873D01*
X228919813Y-140746667D01*
X228923176Y-140668848D01*
X228929230Y-140592374D01*
X228937953Y-140517205D01*
X228949321Y-140443300D01*
X228963311Y-140370618D01*
X228979898Y-140299118D01*
X228999061Y-140228759D01*
X229020775Y-140159500D01*
X229045017Y-140091300D01*
X229071764Y-140024119D01*
X229100992Y-139957914D01*
X229132677Y-139892647D01*
X229166797Y-139828274D01*
X229242248Y-139702053D01*
X229327155Y-139578922D01*
X229372418Y-139521070D01*
X230604074Y-139521070D01*
X230608468Y-139611652D01*
X230618373Y-139700326D01*
X230633626Y-139787010D01*
X230654066Y-139871620D01*
X230679531Y-139954073D01*
X230709859Y-140034286D01*
X230744888Y-140112176D01*
X230784456Y-140187660D01*
X230828402Y-140260655D01*
X230876563Y-140331077D01*
X230928778Y-140398844D01*
X230984884Y-140463873D01*
X231044720Y-140526079D01*
X231108125Y-140585381D01*
X231174935Y-140641696D01*
X231244989Y-140694939D01*
X231318125Y-140745028D01*
X231394182Y-140791880D01*
X231472997Y-140835412D01*
X231554409Y-140875540D01*
X231638256Y-140912183D01*
X231724375Y-140945255D01*
X231812605Y-140974675D01*
X231902784Y-141000359D01*
X231994751Y-141022225D01*
X232088342Y-141040188D01*
X232183397Y-141054167D01*
X232279754Y-141064077D01*
X232377250Y-141069836D01*
X232475723Y-141071361D01*
X232573788Y-141068197D01*
X232670101Y-141060058D01*
X232764571Y-141047116D01*
X232857105Y-141029542D01*
X232947609Y-141007504D01*
X233035991Y-140981175D01*
X233122158Y-140950725D01*
X233206018Y-140916324D01*
X233287476Y-140878143D01*
X233366441Y-140836352D01*
X233442820Y-140791123D01*
X233516519Y-140742625D01*
X233587446Y-140691030D01*
X233655509Y-140636508D01*
X233720613Y-140579229D01*
X233782666Y-140519364D01*
X233841576Y-140457084D01*
X233897250Y-140392559D01*
X233949594Y-140325960D01*
X233998516Y-140257458D01*
X234043923Y-140187222D01*
X234085722Y-140115425D01*
X234123821Y-140042235D01*
X234158126Y-139967825D01*
X234188544Y-139892364D01*
X234214983Y-139816023D01*
X234237350Y-139738972D01*
X234255552Y-139661383D01*
X234269495Y-139583425D01*
X234279088Y-139505270D01*
X234284238Y-139427088D01*
X234284851Y-139349050D01*
X234280819Y-139271492D01*
X234272178Y-139194714D01*
X234259051Y-139118826D01*
X234241559Y-139043939D01*
X234219825Y-138970165D01*
X234193972Y-138897616D01*
X234164121Y-138826401D01*
X234130395Y-138756632D01*
X234092916Y-138688421D01*
X234051807Y-138621879D01*
X234007190Y-138557117D01*
X233959187Y-138494247D01*
X233907920Y-138433378D01*
X233853513Y-138374624D01*
X233796086Y-138318094D01*
X233735763Y-138263901D01*
X233672666Y-138212155D01*
X233606918Y-138162967D01*
X233538639Y-138116450D01*
X233467954Y-138072713D01*
X233394984Y-138031869D01*
X233319851Y-137994028D01*
X233242678Y-137959302D01*
X233163587Y-137927802D01*
X233082701Y-137899639D01*
X233000142Y-137874924D01*
X232916032Y-137853769D01*
X232830493Y-137836285D01*
X232743648Y-137822583D01*
X232655619Y-137812774D01*
X232566528Y-137806970D01*
X232476499Y-137805281D01*
X232297737Y-137812038D01*
X232210114Y-137819873D01*
X232123786Y-137830677D01*
X232038848Y-137844449D01*
X231955393Y-137861189D01*
X231873514Y-137880895D01*
X231793306Y-137903567D01*
X231714861Y-137929203D01*
X231638274Y-137957802D01*
X231563636Y-137989362D01*
X231491044Y-138023884D01*
X231420588Y-138061366D01*
X231352364Y-138101807D01*
X231286465Y-138145206D01*
X231222983Y-138191561D01*
X231162014Y-138240873D01*
X231103650Y-138293139D01*
X231047984Y-138348358D01*
X230995111Y-138406531D01*
X230945123Y-138467654D01*
X230898115Y-138531729D01*
X230854179Y-138598752D01*
X230813410Y-138668724D01*
X230775901Y-138741644D01*
X230741745Y-138817509D01*
X230711035Y-138896320D01*
X230683867Y-138978075D01*
X230660332Y-139062773D01*
X230640524Y-139150414D01*
X230624537Y-139240995D01*
X230612465Y-139334516D01*
X230605352Y-139428663D01*
X230604074Y-139521070D01*
X229372418Y-139521070D01*
X229421331Y-139458554D01*
X229524591Y-139340622D01*
X229636745Y-139224799D01*
X229757608Y-139110757D01*
X229891527Y-138903169D01*
X230026963Y-138707497D01*
X230164573Y-138523821D01*
X230305013Y-138352221D01*
X230448940Y-138192776D01*
X230597012Y-138045566D01*
X230749884Y-137910670D01*
X230908213Y-137788167D01*
X231072657Y-137678137D01*
X231243873Y-137580659D01*
X231422516Y-137495813D01*
X231609245Y-137423678D01*
X231804715Y-137364334D01*
X232009584Y-137317861D01*
X232224507Y-137284336D01*
X232450144Y-137263841D01*
X232450144Y-137263842D01*
G37*
D11*
X82352500Y-51360135D02*
X83752500Y-51360135D01*
X83752500Y-51360135D02*
X83752500Y-50170135D01*
X83752500Y-50170135D02*
X82352500Y-50170135D01*
X82352500Y-50170135D02*
X82352500Y-51360135D01*
G36*
X82352500Y-51360135D02*
G01*
X83752500Y-51360135D01*
X83752500Y-50170135D01*
X82352500Y-50170135D01*
X82352500Y-51360135D01*
G37*
D13*
X155597500Y-73538135D03*
D14*
X157647500Y-73538135D03*
D15*
X161497500Y-73538135D03*
D16*
X163597500Y-73538135D03*
D13*
X174870000Y-70996885D03*
D14*
X176920000Y-70996885D03*
D15*
X180770000Y-70996885D03*
D16*
X182870000Y-70996885D03*
D13*
X193575500Y-68620135D03*
D14*
X195625500Y-68620135D03*
D15*
X199475500Y-68620135D03*
D16*
X201575500Y-68620135D03*
D13*
X212625500Y-71085135D03*
D14*
X214675500Y-71085135D03*
D15*
X218525500Y-71085135D03*
D16*
X220625500Y-71085135D03*
D13*
X231675500Y-75985135D03*
D14*
X233725500Y-75985135D03*
D15*
X237575500Y-75985135D03*
D16*
X239675500Y-75985135D03*
D13*
X250725500Y-75985135D03*
D14*
X252775500Y-75985135D03*
D15*
X256625500Y-75985135D03*
D16*
X258725500Y-75985135D03*
D13*
X155597500Y-111638135D03*
D14*
X157647500Y-111638135D03*
D15*
X161497500Y-111638135D03*
D16*
X163597500Y-111638135D03*
D13*
X155597500Y-130688135D03*
D14*
X157647500Y-130688135D03*
D15*
X161497500Y-130688135D03*
D16*
X163597500Y-130688135D03*
D13*
X134947500Y-127015135D03*
D14*
X136997500Y-127015135D03*
D15*
X140847500Y-127015135D03*
D16*
X142947500Y-127015135D03*
D17*
X139483474Y-156241097D03*
D18*
X141310037Y-155310416D03*
D19*
X144740412Y-153562553D03*
D16*
X146611526Y-152609173D03*
D20*
X164577500Y-63975135D03*
D21*
X163307500Y-66515135D03*
X162037500Y-69055135D03*
D22*
X159497500Y-63975135D03*
D21*
X156957500Y-69055135D03*
X155687500Y-66515135D03*
D20*
X154417500Y-63975135D03*
D23*
X165339500Y-69045135D03*
D24*
X152412500Y-66530135D03*
D20*
X202677500Y-58975135D03*
D21*
X201407500Y-61515135D03*
X200137500Y-64055135D03*
D22*
X197597500Y-58975135D03*
D21*
X195057500Y-64055135D03*
X193787500Y-61515135D03*
D20*
X192517500Y-58975135D03*
D23*
X203439500Y-64045135D03*
D24*
X190512500Y-61530135D03*
D20*
X164577500Y-102075135D03*
D21*
X163307500Y-104615135D03*
X162037500Y-107155135D03*
D22*
X159497500Y-102075135D03*
D21*
X156957500Y-107155135D03*
X155687500Y-104615135D03*
D20*
X154417500Y-102075135D03*
D23*
X165339500Y-107145135D03*
D24*
X152412500Y-104630135D03*
D20*
X183627500Y-99575135D03*
D21*
X182357500Y-102115135D03*
X181087500Y-104655135D03*
D22*
X178547500Y-99575135D03*
D21*
X176007500Y-104655135D03*
X174737500Y-102115135D03*
D20*
X173467500Y-99575135D03*
D23*
X184389500Y-104645135D03*
D24*
X171462500Y-102130135D03*
D20*
X202677500Y-116125135D03*
D21*
X201407500Y-118665135D03*
X200137500Y-121205135D03*
D22*
X197597500Y-116125135D03*
D21*
X195057500Y-121205135D03*
X193787500Y-118665135D03*
D20*
X192517500Y-116125135D03*
D23*
X203439500Y-121195135D03*
D24*
X190512500Y-118680135D03*
D20*
X240777500Y-123525135D03*
D21*
X239507500Y-126065135D03*
X238237500Y-128605135D03*
D22*
X235697500Y-123525135D03*
D21*
X233157500Y-128605135D03*
X231887500Y-126065135D03*
D20*
X230617500Y-123525135D03*
D23*
X241539500Y-128595135D03*
D24*
X228612500Y-126080135D03*
D20*
X138049518Y-152342257D03*
D21*
X135209793Y-152363815D03*
X132370069Y-152385372D03*
D22*
X135743246Y-147815944D03*
D21*
X130063797Y-147859059D03*
X131750386Y-145574345D03*
D20*
X133436974Y-143289631D03*
D25*
X133878055Y-155322936D03*
D26*
X130250202Y-142663109D03*
D20*
X161454403Y-141060334D03*
D21*
X160885078Y-143842486D03*
X160315752Y-146624638D03*
D22*
X156547500Y-142375135D03*
D21*
X155408849Y-147939439D03*
X153524723Y-145814687D03*
D20*
X151640597Y-143689936D03*
D27*
X163502651Y-145760358D03*
D28*
X150365198Y-146676808D03*
D20*
X259827500Y-85425135D03*
D21*
X258557500Y-87965135D03*
X257287500Y-90505135D03*
D22*
X254747500Y-85425135D03*
D21*
X252207500Y-90505135D03*
X250937500Y-87965135D03*
D20*
X249667500Y-85425135D03*
D23*
X260589500Y-90495135D03*
D24*
X247662500Y-87980135D03*
D20*
X259827500Y-104475135D03*
D21*
X258557500Y-107015135D03*
X257287500Y-109555135D03*
D22*
X254747500Y-104475135D03*
D21*
X252207500Y-109555135D03*
X250937500Y-107015135D03*
D20*
X249667500Y-104475135D03*
D23*
X260589500Y-109545135D03*
D24*
X247662500Y-107030135D03*
D20*
X259827500Y-123525135D03*
D21*
X258557500Y-126065135D03*
X257287500Y-128605135D03*
D22*
X254747500Y-123525135D03*
D21*
X252207500Y-128605135D03*
X250937500Y-126065135D03*
D20*
X249667500Y-123525135D03*
D23*
X260589500Y-128595135D03*
D24*
X247662500Y-126080135D03*
D20*
X221727500Y-61475135D03*
D21*
X220457500Y-64015135D03*
X219187500Y-66555135D03*
D22*
X216647500Y-61475135D03*
D21*
X214107500Y-66555135D03*
X212837500Y-64015135D03*
D20*
X211567500Y-61475135D03*
D23*
X222489500Y-66545135D03*
D24*
X209562500Y-64030135D03*
D29*
X245237500Y-75885135D03*
D13*
X155597500Y-92638135D03*
D14*
X157647500Y-92638135D03*
D15*
X161497500Y-92638135D03*
D16*
X163597500Y-92638135D03*
D13*
X174870000Y-90046885D03*
D14*
X176920000Y-90046885D03*
D15*
X180770000Y-90046885D03*
D16*
X182870000Y-90046885D03*
D13*
X193575500Y-87635135D03*
D14*
X195625500Y-87635135D03*
D15*
X199475500Y-87635135D03*
D16*
X201575500Y-87635135D03*
D13*
X212625500Y-90135135D03*
D14*
X214675500Y-90135135D03*
D15*
X218525500Y-90135135D03*
D16*
X220625500Y-90135135D03*
D13*
X231675500Y-95035135D03*
D14*
X233725500Y-95035135D03*
D15*
X237575500Y-95035135D03*
D16*
X239675500Y-95035135D03*
D13*
X250725500Y-95035135D03*
D14*
X252775500Y-95035135D03*
D15*
X256625500Y-95035135D03*
D16*
X258725500Y-95035135D03*
D20*
X240777500Y-66375135D03*
D21*
X239507500Y-68915135D03*
X238237500Y-71455135D03*
D22*
X235697500Y-66375135D03*
D21*
X233157500Y-71455135D03*
X231887500Y-68915135D03*
D20*
X230617500Y-66375135D03*
D23*
X241539500Y-71445135D03*
D24*
X228612500Y-68930135D03*
D20*
X183627500Y-80525135D03*
D21*
X182357500Y-83065135D03*
X181087500Y-85605135D03*
D22*
X178547500Y-80525135D03*
D21*
X176007500Y-85605135D03*
X174737500Y-83065135D03*
D20*
X173467500Y-80525135D03*
D23*
X184389500Y-85595135D03*
D24*
X171462500Y-83080135D03*
D20*
X221727500Y-80525135D03*
D21*
X220457500Y-83065135D03*
X219187500Y-85605135D03*
D22*
X216647500Y-80525135D03*
D21*
X214107500Y-85605135D03*
X212837500Y-83065135D03*
D20*
X211567500Y-80525135D03*
D23*
X222489500Y-85595135D03*
D24*
X209562500Y-83080135D03*
D20*
X202677500Y-78025135D03*
D21*
X201407500Y-80565135D03*
X200137500Y-83105135D03*
D22*
X197597500Y-78025135D03*
D21*
X195057500Y-83105135D03*
X193787500Y-80565135D03*
D20*
X192517500Y-78025135D03*
D23*
X203439500Y-83095135D03*
D24*
X190512500Y-80580135D03*
D20*
X221727500Y-99575135D03*
D21*
X220457500Y-102115135D03*
X219187500Y-104655135D03*
D22*
X216647500Y-99575135D03*
D21*
X214107500Y-104655135D03*
X212837500Y-102115135D03*
D20*
X211567500Y-99575135D03*
D23*
X222489500Y-104645135D03*
D24*
X209562500Y-102130135D03*
D20*
X259827500Y-66375135D03*
D21*
X258557500Y-68915135D03*
X257287500Y-71455135D03*
D22*
X254747500Y-66375135D03*
D21*
X252207500Y-71455135D03*
X250937500Y-68915135D03*
D20*
X249667500Y-66375135D03*
D23*
X260589500Y-71445135D03*
D24*
X247662500Y-68930135D03*
D20*
X221727500Y-137675135D03*
D21*
X220457500Y-140215135D03*
X219187500Y-142755135D03*
D22*
X216647500Y-137675135D03*
D21*
X214107500Y-142755135D03*
X212837500Y-140215135D03*
D20*
X211567500Y-137675135D03*
D23*
X222489500Y-142745135D03*
D24*
X209562500Y-140230135D03*
D20*
X240777500Y-85425135D03*
D21*
X239507500Y-87965135D03*
X238237500Y-90505135D03*
D22*
X235697500Y-85425135D03*
D21*
X233157500Y-90505135D03*
X231887500Y-87965135D03*
D20*
X230617500Y-85425135D03*
D23*
X241539500Y-90495135D03*
D24*
X228612500Y-87980135D03*
D20*
X221727500Y-118625135D03*
D21*
X220457500Y-121165135D03*
X219187500Y-123705135D03*
D22*
X216647500Y-118625135D03*
D21*
X214107500Y-123705135D03*
X212837500Y-121165135D03*
D20*
X211567500Y-118625135D03*
D23*
X222489500Y-123695135D03*
D24*
X209562500Y-121180135D03*
D20*
X240777500Y-104475135D03*
D21*
X239507500Y-107015135D03*
X238237500Y-109555135D03*
D22*
X235697500Y-104475135D03*
D21*
X233157500Y-109555135D03*
X231887500Y-107015135D03*
D20*
X230617500Y-104475135D03*
D23*
X241539500Y-109545135D03*
D24*
X228612500Y-107030135D03*
D20*
X202677500Y-135175135D03*
D21*
X201407500Y-137715135D03*
X200137500Y-140255135D03*
D22*
X197597500Y-135175135D03*
D21*
X195057500Y-140255135D03*
X193787500Y-137715135D03*
D20*
X192517500Y-135175135D03*
D23*
X203439500Y-140245135D03*
D24*
X190512500Y-137730135D03*
D20*
X202677500Y-97075135D03*
D21*
X201407500Y-99615135D03*
X200137500Y-102155135D03*
D22*
X197597500Y-97075135D03*
D21*
X195057500Y-102155135D03*
X193787500Y-99615135D03*
D20*
X192517500Y-97075135D03*
D23*
X203439500Y-102145135D03*
D24*
X190512500Y-99630135D03*
D20*
X183627500Y-61475135D03*
D21*
X182357500Y-64015135D03*
X181087500Y-66555135D03*
D22*
X178547500Y-61475135D03*
D21*
X176007500Y-66555135D03*
X174737500Y-64015135D03*
D20*
X173467500Y-61475135D03*
D23*
X184389500Y-66545135D03*
D24*
X171462500Y-64030135D03*
D30*
X155386297Y-152910276D03*
D31*
X157366445Y-152379697D03*
D32*
X161085259Y-151383244D03*
D16*
X163113703Y-150839724D03*
D20*
X183627500Y-118625135D03*
D21*
X182357500Y-121165135D03*
X181087500Y-123705135D03*
D22*
X178547500Y-118625135D03*
D21*
X176007500Y-123705135D03*
X174737500Y-121165135D03*
D20*
X173467500Y-118625135D03*
D23*
X184389500Y-123695135D03*
D24*
X171462500Y-121180135D03*
D13*
X193575500Y-106685135D03*
D14*
X195625500Y-106685135D03*
D15*
X199475500Y-106685135D03*
D16*
X201575500Y-106685135D03*
D13*
X231675500Y-114085135D03*
D14*
X233725500Y-114085135D03*
D15*
X237575500Y-114085135D03*
D16*
X239675500Y-114085135D03*
D13*
X250725500Y-114085135D03*
D14*
X252775500Y-114085135D03*
D15*
X256625500Y-114085135D03*
D16*
X258725500Y-114085135D03*
D13*
X174870000Y-147196885D03*
D14*
X176920000Y-147196885D03*
D15*
X180770000Y-147196885D03*
D16*
X182870000Y-147196885D03*
D13*
X193575500Y-144785135D03*
D14*
X195625500Y-144785135D03*
D15*
X199475500Y-144785135D03*
D16*
X201575500Y-144785135D03*
D13*
X250725500Y-133135135D03*
D14*
X252775500Y-133135135D03*
D15*
X256625500Y-133135135D03*
D16*
X258725500Y-133135135D03*
D13*
X174870000Y-128146885D03*
D14*
X176920000Y-128146885D03*
D15*
X180770000Y-128146885D03*
D16*
X182870000Y-128146885D03*
D13*
X193575500Y-125735135D03*
D14*
X195625500Y-125735135D03*
D15*
X199475500Y-125735135D03*
D16*
X201575500Y-125735135D03*
D13*
X212625500Y-128235135D03*
D14*
X214675500Y-128235135D03*
D15*
X218525500Y-128235135D03*
D16*
X220625500Y-128235135D03*
D13*
X231708000Y-133020135D03*
D14*
X233758000Y-133020135D03*
D15*
X237608000Y-133020135D03*
D16*
X239708000Y-133020135D03*
D13*
X174870000Y-109096885D03*
D14*
X176920000Y-109096885D03*
D15*
X180770000Y-109096885D03*
D16*
X182870000Y-109096885D03*
D13*
X212625500Y-147285135D03*
D14*
X214675500Y-147285135D03*
D15*
X218525500Y-147285135D03*
D16*
X220625500Y-147285135D03*
D20*
X183627500Y-137675135D03*
D21*
X182357500Y-140215135D03*
X181087500Y-142755135D03*
D22*
X178547500Y-137675135D03*
D21*
X176007500Y-142755135D03*
X174737500Y-140215135D03*
D20*
X173467500Y-137675135D03*
D23*
X184389500Y-142745135D03*
D24*
X171462500Y-140230135D03*
D29*
X168387500Y-73485135D03*
X168477500Y-111435135D03*
D33*
X-12932506Y-117905135D03*
D34*
X-12932506Y-119405135D03*
D35*
X-18532506Y-119405135D03*
D36*
X-18532506Y-117905135D03*
D37*
X175732506Y-57355135D03*
D35*
X175732506Y-55855135D03*
D34*
X181332506Y-55855135D03*
D38*
X181332506Y-57355135D03*
D39*
X-11725500Y-95035135D03*
D40*
X-13775500Y-95035135D03*
D41*
X-17625500Y-95035135D03*
D16*
X-19725500Y-95035135D03*
D42*
X155947500Y-51950135D03*
D43*
X155947500Y-51100135D03*
D44*
X155947500Y-49930135D03*
D45*
X155947500Y-49410135D03*
D46*
X152762090Y-139124095D03*
D47*
X152373861Y-137675206D03*
D48*
X157783046Y-136225819D03*
D49*
X158171275Y-137674708D03*
D50*
X122555000Y-92325135D03*
X122555000Y-94865135D03*
X122555000Y-97405135D03*
D51*
X122555000Y-99945135D03*
D37*
X232882506Y-100355135D03*
D35*
X232882506Y-98855135D03*
D34*
X238482506Y-98855135D03*
D38*
X238482506Y-100355135D03*
D52*
X138136213Y-143437326D03*
D53*
X139472722Y-142756340D03*
D54*
X142015069Y-147745976D03*
D55*
X140678560Y-148426962D03*
D56*
X116415000Y-58160135D03*
D57*
X116415000Y-56300135D03*
D58*
X116415000Y-52450135D03*
D59*
X116415000Y-50540135D03*
D20*
X164577500Y-121125135D03*
D21*
X163307500Y-123665135D03*
X162037500Y-126205135D03*
D22*
X159497500Y-121125135D03*
D21*
X156957500Y-126205135D03*
X155687500Y-123665135D03*
D20*
X154417500Y-121125135D03*
D23*
X165339500Y-126195135D03*
D24*
X152412500Y-123680135D03*
D33*
X44217494Y-72405135D03*
D34*
X44217494Y-73905135D03*
D35*
X38617494Y-73905135D03*
D36*
X38617494Y-72405135D03*
D33*
X44217494Y-53355135D03*
D34*
X44217494Y-54855135D03*
D35*
X38617494Y-54855135D03*
D36*
X38617494Y-53355135D03*
D33*
X-12932506Y-60755135D03*
D34*
X-12932506Y-62255135D03*
D35*
X-18532506Y-62255135D03*
D36*
X-18532506Y-60755135D03*
D39*
X26374500Y-109185135D03*
D40*
X24324500Y-109185135D03*
D41*
X20474500Y-109185135D03*
D16*
X18374500Y-109185135D03*
D37*
X232882506Y-81305135D03*
D35*
X232882506Y-79805135D03*
D34*
X238482506Y-79805135D03*
D38*
X238482506Y-81305135D03*
D60*
X116427500Y-60175135D03*
X116427500Y-62250135D03*
D39*
X45424500Y-125735135D03*
D40*
X43374500Y-125735135D03*
D41*
X39524500Y-125735135D03*
D16*
X37424500Y-125735135D03*
D37*
X232882506Y-62255135D03*
D35*
X232882506Y-60755135D03*
D34*
X238482506Y-60755135D03*
D38*
X238482506Y-62255135D03*
D37*
X232882506Y-119405135D03*
D35*
X232882506Y-117905135D03*
D34*
X238482506Y-117905135D03*
D38*
X238482506Y-119405135D03*
D33*
X25167494Y-132055135D03*
D34*
X25167494Y-133555135D03*
D35*
X19567494Y-133555135D03*
D36*
X19567494Y-132055135D03*
D56*
X122585000Y-58160135D03*
D57*
X122585000Y-56300135D03*
D58*
X122585000Y-52450135D03*
D59*
X122585000Y-50540135D03*
D61*
X-25025000Y-133000000D03*
D39*
X64130001Y-70996885D03*
D40*
X62080001Y-70996885D03*
D41*
X58230001Y-70996885D03*
D16*
X56130001Y-70996885D03*
D37*
X175732506Y-76405135D03*
D35*
X175732506Y-74905135D03*
D34*
X181332506Y-74905135D03*
D38*
X181332506Y-76405135D03*
D39*
X45424500Y-106685135D03*
D40*
X43374500Y-106685135D03*
D41*
X39524500Y-106685135D03*
D16*
X37424500Y-106685135D03*
D37*
X213832506Y-114505135D03*
D35*
X213832506Y-113005135D03*
D34*
X219432506Y-113005135D03*
D38*
X219432506Y-114505135D03*
D62*
X80455000Y-52598135D03*
X80455000Y-51948135D03*
X80455000Y-51298135D03*
X77795000Y-51298135D03*
X77795000Y-52598135D03*
D33*
X25167494Y-93955135D03*
D34*
X25167494Y-95455135D03*
D35*
X19567494Y-95455135D03*
D36*
X19567494Y-93955135D03*
D37*
X194782506Y-112005135D03*
D35*
X194782506Y-110505135D03*
D34*
X200382506Y-110505135D03*
D38*
X200382506Y-112005135D03*
D33*
X-12932506Y-98855135D03*
D34*
X-12932506Y-100355135D03*
D35*
X-18532506Y-100355135D03*
D36*
X-18532506Y-98855135D03*
D63*
X107132500Y-111295135D03*
D64*
X106282500Y-111295135D03*
D65*
X105112500Y-111295135D03*
D66*
X104592500Y-111295135D03*
D60*
X122572500Y-60175135D03*
X122572500Y-62250135D03*
D33*
X25167494Y-74905135D03*
D34*
X25167494Y-76405135D03*
D35*
X19567494Y-76405135D03*
D36*
X19567494Y-74905135D03*
D39*
X64130000Y-109096885D03*
D40*
X62080000Y-109096885D03*
D41*
X58230000Y-109096885D03*
D16*
X56130000Y-109096885D03*
D50*
X147857500Y-100025135D03*
X147857500Y-97485135D03*
X147857500Y-94945135D03*
D67*
X147857500Y-92405135D03*
D37*
X251932506Y-100355135D03*
D35*
X251932506Y-98855135D03*
D34*
X257532506Y-98855135D03*
D38*
X257532506Y-100355135D03*
D13*
X212625500Y-109185135D03*
D14*
X214675500Y-109185135D03*
D15*
X218525500Y-109185135D03*
D16*
X220625500Y-109185135D03*
D33*
X25167494Y-113005135D03*
D34*
X25167494Y-114505135D03*
D35*
X19567494Y-114505135D03*
D36*
X19567494Y-113005135D03*
D39*
X-11725500Y-114085135D03*
D40*
X-13775500Y-114085135D03*
D41*
X-17625500Y-114085135D03*
D16*
X-19725500Y-114085135D03*
D33*
X63267494Y-132055135D03*
D34*
X63267494Y-133555135D03*
D35*
X57667494Y-133555135D03*
D36*
X57667494Y-132055135D03*
D68*
X263000000Y-62800000D03*
D37*
X156682506Y-97955135D03*
D35*
X156682506Y-96455135D03*
D34*
X162282506Y-96455135D03*
D38*
X162282506Y-97955135D03*
D33*
X82317494Y-96455134D03*
D34*
X82317494Y-97955134D03*
D35*
X76717494Y-97955134D03*
D36*
X76717494Y-96455134D03*
D33*
X6117494Y-98855135D03*
D34*
X6117494Y-100355135D03*
D35*
X517494Y-100355135D03*
D36*
X517494Y-98855135D03*
D37*
X213832506Y-76405135D03*
D35*
X213832506Y-74905135D03*
D34*
X219432506Y-74905135D03*
D38*
X219432506Y-76405135D03*
D33*
X6117494Y-117905135D03*
D34*
X6117494Y-119405135D03*
D35*
X517494Y-119405135D03*
D36*
X517494Y-117905135D03*
D39*
X45424500Y-144785135D03*
D40*
X43374500Y-144785135D03*
D41*
X39524500Y-144785135D03*
D16*
X37424500Y-144785135D03*
D69*
X169022500Y-95345135D03*
X188072500Y-76295135D03*
X188072500Y-114395135D03*
X207122500Y-95345135D03*
D39*
X64130000Y-147196885D03*
D40*
X62080000Y-147196885D03*
D41*
X58230000Y-147196885D03*
D16*
X56130000Y-147196885D03*
D37*
X175732506Y-114505135D03*
D35*
X175732506Y-113005135D03*
D34*
X181332506Y-113005135D03*
D38*
X181332506Y-114505135D03*
D37*
X251932506Y-62255135D03*
D35*
X251932506Y-60755135D03*
D34*
X257532506Y-60755135D03*
D38*
X257532506Y-62255135D03*
D70*
X86626139Y-137675206D03*
D71*
X86237910Y-139124095D03*
D72*
X80828725Y-137674708D03*
D73*
X81216954Y-136225819D03*
D33*
X44217494Y-91455135D03*
D34*
X44217494Y-92955135D03*
D35*
X38617494Y-92955135D03*
D36*
X38617494Y-91455135D03*
D39*
X7324500Y-95035135D03*
D40*
X5274500Y-95035135D03*
D41*
X1424500Y-95035135D03*
D16*
X-675500Y-95035135D03*
D39*
X45424500Y-68620135D03*
D40*
X43374500Y-68620135D03*
D41*
X39524500Y-68620135D03*
D16*
X37424500Y-68620135D03*
D74*
X99527278Y-142756340D03*
D75*
X100863787Y-143437326D03*
D76*
X98321440Y-148426962D03*
D77*
X96984931Y-147745976D03*
D39*
X26374500Y-71085135D03*
D40*
X24324500Y-71085135D03*
D41*
X20474500Y-71085135D03*
D16*
X18374500Y-71085135D03*
D37*
X156682506Y-59855135D03*
D35*
X156682506Y-58355135D03*
D34*
X162282506Y-58355135D03*
D38*
X162282506Y-59855135D03*
D33*
X63267494Y-74905135D03*
D34*
X63267494Y-76405135D03*
D35*
X57667494Y-76405135D03*
D36*
X57667494Y-74905135D03*
D78*
X255752500Y-58135135D03*
X257752500Y-58135135D03*
X263212500Y-58135135D03*
X265752500Y-58135135D03*
D37*
X194782506Y-54855135D03*
D35*
X194782506Y-53355135D03*
D34*
X200382506Y-53355135D03*
D38*
X200382506Y-54855135D03*
D79*
X158945000Y-50550000D03*
X158945000Y-51200000D03*
X158945000Y-51850000D03*
X161605000Y-51850000D03*
X161605000Y-50550000D03*
D33*
X82317494Y-58355135D03*
D34*
X82317494Y-59855135D03*
D35*
X76717494Y-59855135D03*
D36*
X76717494Y-58355135D03*
D37*
X194782506Y-131055135D03*
D35*
X194782506Y-129555135D03*
D34*
X200382506Y-129555135D03*
D38*
X200382506Y-131055135D03*
D39*
X83402500Y-92638135D03*
D40*
X81352500Y-92638135D03*
D41*
X77502500Y-92638135D03*
D16*
X75402500Y-92638135D03*
D80*
X136737500Y-108675000D03*
X134662500Y-108675000D03*
D39*
X-11725500Y-133135135D03*
D40*
X-13775500Y-133135135D03*
D41*
X-17625500Y-133135135D03*
D16*
X-19725500Y-133135135D03*
D61*
X262000000Y-56000000D03*
D37*
X194782506Y-73905135D03*
D35*
X194782506Y-72405135D03*
D34*
X200382506Y-72405135D03*
D38*
X200382506Y-73905135D03*
D39*
X26374500Y-128235135D03*
D40*
X24324500Y-128235135D03*
D41*
X20474500Y-128235135D03*
D16*
X18374500Y-128235135D03*
D39*
X83402500Y-73538135D03*
D40*
X81352500Y-73538135D03*
D41*
X77502500Y-73538135D03*
D16*
X75402500Y-73538135D03*
D81*
X75251500Y-52600134D03*
X75251500Y-50525134D03*
D33*
X63267494Y-113005136D03*
D34*
X63267494Y-114505136D03*
D35*
X57667494Y-114505136D03*
D36*
X57667494Y-113005136D03*
D60*
X163747500Y-50525135D03*
X163747500Y-52600135D03*
D29*
X142537500Y-134505135D03*
D20*
X164577500Y-83025135D03*
D21*
X163307500Y-85565135D03*
X162037500Y-88105135D03*
D22*
X159497500Y-83025135D03*
D21*
X156957500Y-88105135D03*
X155687500Y-85565135D03*
D20*
X154417500Y-83025135D03*
D23*
X165339500Y-88095135D03*
D24*
X152412500Y-85580135D03*
D33*
X25167495Y-55855135D03*
D34*
X25167495Y-57355135D03*
D35*
X19567495Y-57355135D03*
D36*
X19567495Y-55855135D03*
D37*
X175732506Y-133555135D03*
D35*
X175732506Y-132055135D03*
D34*
X181332506Y-132055135D03*
D38*
X181332506Y-133555135D03*
D39*
X64130000Y-128146885D03*
D40*
X62080000Y-128146885D03*
D41*
X58230000Y-128146885D03*
D16*
X56130000Y-128146885D03*
D82*
X100052500Y-112875135D03*
X100052500Y-124075135D03*
D83*
X92552500Y-115975135D03*
X92552500Y-120975135D03*
X92552500Y-118475135D03*
X107052500Y-120975135D03*
X107052500Y-115975135D03*
D33*
X44217494Y-129555135D03*
D34*
X44217494Y-131055135D03*
D35*
X38617494Y-131055135D03*
D36*
X38617494Y-129555135D03*
D29*
X144087500Y-104565135D03*
D39*
X26374501Y-147285135D03*
D40*
X24324501Y-147285135D03*
D41*
X20474501Y-147285135D03*
D16*
X18374501Y-147285135D03*
D37*
X156682506Y-78905135D03*
D35*
X156682506Y-77405135D03*
D34*
X162282506Y-77405135D03*
D38*
X162282506Y-78905135D03*
D37*
X213832506Y-57355135D03*
D35*
X213832506Y-55855135D03*
D34*
X219432506Y-55855135D03*
D38*
X219432506Y-57355135D03*
D37*
X156682506Y-117005135D03*
D35*
X156682506Y-115505135D03*
D34*
X162282506Y-115505135D03*
D38*
X162282506Y-117005135D03*
D39*
X45424500Y-87635135D03*
D40*
X43374500Y-87635135D03*
D41*
X39524500Y-87635135D03*
D16*
X37424500Y-87635135D03*
D33*
X82317495Y-115505135D03*
D34*
X82317495Y-117005135D03*
D35*
X76717495Y-117005135D03*
D36*
X76717495Y-115505135D03*
D37*
X213832506Y-95455135D03*
D35*
X213832506Y-93955135D03*
D34*
X219432506Y-93955135D03*
D38*
X219432506Y-95455135D03*
D84*
X131855000Y-111300000D03*
D85*
X132705000Y-111300000D03*
D86*
X133875000Y-111300000D03*
D87*
X134395000Y-111300000D03*
D39*
X7324500Y-114085135D03*
D40*
X5274500Y-114085135D03*
D41*
X1424500Y-114085135D03*
D16*
X-675500Y-114085135D03*
D37*
X175732506Y-95455135D03*
D35*
X175732506Y-93955135D03*
D34*
X181332506Y-93955135D03*
D38*
X181332506Y-95455135D03*
D33*
X-12932506Y-79805135D03*
D34*
X-12932506Y-81305135D03*
D35*
X-18532506Y-81305135D03*
D36*
X-18532506Y-79805135D03*
D37*
X194782506Y-92955135D03*
D35*
X194782506Y-91455135D03*
D34*
X200382506Y-91455135D03*
D38*
X200382506Y-92955135D03*
D29*
X150957500Y-51092635D03*
D33*
X63267494Y-93955134D03*
D34*
X63267494Y-95455134D03*
D35*
X57667494Y-95455134D03*
D36*
X57667494Y-93955134D03*
D88*
X99516526Y-156241097D03*
D89*
X97689963Y-155310416D03*
D90*
X94259588Y-153562553D03*
D16*
X92388474Y-152609173D03*
D37*
X251932506Y-81305135D03*
D35*
X251932506Y-79805135D03*
D34*
X257532506Y-79805135D03*
D38*
X257532506Y-81305135D03*
D39*
X7292000Y-133020135D03*
D40*
X5242000Y-133020135D03*
D41*
X1392000Y-133020135D03*
D16*
X-708000Y-133020135D03*
D33*
X44217494Y-110505135D03*
D34*
X44217494Y-112005135D03*
D35*
X38617494Y-112005135D03*
D36*
X38617494Y-110505135D03*
D29*
X245222500Y-114000135D03*
D39*
X64130000Y-90046885D03*
D40*
X62080000Y-90046885D03*
D41*
X58230000Y-90046885D03*
D16*
X56130000Y-90046885D03*
D33*
X63267494Y-55855135D03*
D34*
X63267494Y-57355135D03*
D35*
X57667494Y-57355135D03*
D36*
X57667494Y-55855135D03*
D39*
X7324500Y-75985135D03*
D40*
X5274500Y-75985135D03*
D41*
X1424500Y-75985135D03*
D16*
X-675500Y-75985135D03*
D91*
X134600000Y-105437500D03*
X136500000Y-105437500D03*
X135550000Y-103562500D03*
D39*
X83402501Y-111638135D03*
D40*
X81352501Y-111638135D03*
D41*
X77502501Y-111638135D03*
D16*
X75402501Y-111638135D03*
D39*
X104052501Y-127015135D03*
D40*
X102002501Y-127015135D03*
D41*
X98152501Y-127015135D03*
D16*
X96052501Y-127015135D03*
D39*
X26374500Y-90135135D03*
D40*
X24324500Y-90135135D03*
D41*
X20474500Y-90135135D03*
D16*
X18374500Y-90135135D03*
D39*
X-11725500Y-75985135D03*
D40*
X-13775500Y-75985135D03*
D41*
X-17625500Y-75985135D03*
D16*
X-19725500Y-75985135D03*
D92*
X102387500Y-102975000D03*
X102387500Y-104875000D03*
X104262500Y-103925000D03*
D33*
X6117494Y-79805135D03*
D34*
X6117494Y-81305135D03*
D35*
X517494Y-81305135D03*
D36*
X517494Y-79805135D03*
D37*
X251932506Y-119405135D03*
D35*
X251932506Y-117905135D03*
D34*
X257532506Y-117905135D03*
D38*
X257532506Y-119405135D03*
D93*
X83611001Y-152913135D03*
D94*
X81630853Y-152382556D03*
D95*
X77912039Y-151386103D03*
D16*
X75883595Y-150842583D03*
D37*
X213832506Y-133555135D03*
D35*
X213832506Y-132055135D03*
D34*
X219432506Y-132055135D03*
D38*
X219432506Y-133555135D03*
D33*
X6117494Y-60755135D03*
D34*
X6117494Y-62255135D03*
D35*
X517494Y-62255135D03*
D36*
X517494Y-60755135D03*
D96*
X102262500Y-107575000D03*
X104337500Y-107575000D03*
D29*
X124596533Y-114975135D03*
D39*
X83402500Y-130688135D03*
D40*
X81352500Y-130688135D03*
D41*
X77502500Y-130688135D03*
D16*
X75402500Y-130688135D03*
D33*
X82317494Y-77405135D03*
D34*
X82317494Y-78905135D03*
D35*
X76717494Y-78905135D03*
D36*
X76717494Y-77405135D03*
D97*
X121825000Y-105050000D03*
X128825000Y-105050000D03*
X121825000Y-106800000D03*
X128825000Y-106800000D03*
D98*
X132125000Y-104700000D03*
D99*
X130625000Y-108900000D03*
D100*
X126625000Y-108900000D03*
X123625000Y-108900000D03*
D50*
X122575000Y-72045000D03*
X122575000Y-82205000D03*
X122575000Y-69505000D03*
X122575000Y-79665000D03*
X122575000Y-66965000D03*
X122575000Y-74585000D03*
D67*
X122575000Y-64425000D03*
X122575000Y-77125000D03*
D69*
X69977500Y-95345135D03*
X50927500Y-76295135D03*
X50927500Y-114395135D03*
X31877500Y-95345135D03*
D101*
X122640500Y-127635000D03*
D102*
X122640500Y-120015000D03*
D103*
X122640500Y-122555000D03*
X122640500Y-125095000D03*
X122640500Y-130175000D03*
D20*
X74422500Y-102075135D03*
D21*
X75692500Y-104615135D03*
X76962500Y-107155135D03*
D22*
X79502500Y-102075135D03*
D21*
X82042500Y-107155135D03*
X83312500Y-104615135D03*
D20*
X84582500Y-102075135D03*
D104*
X72417500Y-104625135D03*
D105*
X85344500Y-107145135D03*
D50*
X91205000Y-72065135D03*
X91205000Y-82225135D03*
X91205000Y-69525135D03*
X91205000Y-79685135D03*
X91205000Y-66985135D03*
X91205000Y-74605135D03*
D67*
X91205000Y-64445135D03*
X91205000Y-77145135D03*
D106*
X129117500Y-120045135D03*
D103*
X129117500Y-122585135D03*
X129117500Y-125125135D03*
X129117500Y-127665135D03*
X129117500Y-130205135D03*
D20*
X74422500Y-63975135D03*
D21*
X75692500Y-66515135D03*
X76962500Y-69055135D03*
D22*
X79502500Y-63975135D03*
D21*
X82042500Y-69055135D03*
X83312500Y-66515135D03*
D20*
X84582500Y-63975135D03*
D104*
X72417500Y-66525135D03*
D105*
X85344500Y-69045135D03*
D106*
X113132500Y-120045135D03*
D103*
X113132500Y-122585135D03*
X113132500Y-125125135D03*
X113132500Y-127665135D03*
X113132500Y-130205135D03*
D42*
X83052500Y-51950135D03*
D107*
X83052500Y-51100135D03*
D108*
X83052500Y-49930135D03*
D45*
X83052500Y-49410135D03*
D29*
X96462500Y-134505135D03*
D97*
X117162500Y-106795135D03*
X110162500Y-106795135D03*
X117162500Y-105045135D03*
X110162500Y-105045135D03*
D109*
X106862500Y-107145135D03*
D110*
X108362500Y-102945135D03*
D100*
X112362500Y-102945135D03*
X115362500Y-102945135D03*
D29*
X114403467Y-114975135D03*
D20*
X-20827501Y-85425135D03*
D21*
X-19557501Y-87965135D03*
X-18287501Y-90505135D03*
D22*
X-15747501Y-85425135D03*
D21*
X-13207501Y-90505135D03*
X-11937501Y-87965135D03*
D20*
X-10667501Y-85425135D03*
D104*
X-22832501Y-87975135D03*
D105*
X-9905501Y-90495135D03*
D106*
X125867500Y-120045135D03*
D103*
X125867500Y-122585135D03*
X125867500Y-125125135D03*
X125867500Y-127665135D03*
X125867500Y-130205135D03*
D20*
X-1777500Y-66375135D03*
D21*
X-507500Y-68915135D03*
X762500Y-71455135D03*
D22*
X3302500Y-66375135D03*
D21*
X5842500Y-71455135D03*
X7112500Y-68915135D03*
D20*
X8382500Y-66375135D03*
D104*
X-3782500Y-68925135D03*
D105*
X9144500Y-71445135D03*
D101*
X116359500Y-127640135D03*
D102*
X116359500Y-120020135D03*
D103*
X116359500Y-122560135D03*
X116359500Y-125100135D03*
X116359500Y-130180135D03*
D20*
X17272500Y-118625135D03*
D21*
X18542500Y-121165135D03*
X19812500Y-123705135D03*
D22*
X22352500Y-118625135D03*
D21*
X24892500Y-123705135D03*
X26162500Y-121165135D03*
D20*
X27432500Y-118625135D03*
D104*
X15267500Y-121175135D03*
D105*
X28194500Y-123695135D03*
D20*
X-1777499Y-85425135D03*
D21*
X-507499Y-87965135D03*
X762501Y-90505135D03*
D22*
X3302501Y-85425135D03*
D21*
X5842501Y-90505135D03*
X7112501Y-87965135D03*
D20*
X8382501Y-85425135D03*
D104*
X-3782499Y-87975135D03*
D105*
X9144501Y-90495135D03*
D111*
X145320000Y-50500000D03*
X145320000Y-53040000D03*
D112*
X145320000Y-55580000D03*
D111*
X145320000Y-58120000D03*
X145320000Y-60660000D03*
X145320000Y-63200000D03*
X145320000Y-65740000D03*
D112*
X145320000Y-68280000D03*
D111*
X145320000Y-70820000D03*
X145320000Y-73360000D03*
X145320000Y-75900000D03*
X145320000Y-78440000D03*
D112*
X145320000Y-80980000D03*
D111*
X145320000Y-83520000D03*
X145320000Y-86060000D03*
X145320000Y-88600000D03*
X145320000Y-91140000D03*
D112*
X145320000Y-93680000D03*
D111*
X145320000Y-96220000D03*
X145320000Y-98760000D03*
X127540000Y-98760000D03*
X127540000Y-96220000D03*
D112*
X127540000Y-93680000D03*
D111*
X127540000Y-91140000D03*
X127540000Y-88600000D03*
X127540000Y-86060000D03*
X127540000Y-83520000D03*
D112*
X127540000Y-80980000D03*
D111*
X127540000Y-78440000D03*
X127540000Y-75900000D03*
X127540000Y-73360000D03*
X127540000Y-70820000D03*
D112*
X127540000Y-68280000D03*
D111*
X127540000Y-65740000D03*
X127540000Y-63200000D03*
X127540000Y-60660000D03*
X127540000Y-58120000D03*
D112*
X127540000Y-55580000D03*
D111*
X127540000Y-53040000D03*
X127540000Y-50500000D03*
D20*
X36322500Y-78025135D03*
D21*
X37592500Y-80565135D03*
X38862500Y-83105135D03*
D22*
X41402500Y-78025135D03*
D21*
X43942500Y-83105135D03*
X45212500Y-80565135D03*
D20*
X46482500Y-78025135D03*
D104*
X34317500Y-80575135D03*
D105*
X47244500Y-83095135D03*
D20*
X74422500Y-83025135D03*
D21*
X75692500Y-85565135D03*
X76962500Y-88105135D03*
D22*
X79502500Y-83025135D03*
D21*
X82042500Y-88105135D03*
X83312500Y-85565135D03*
D20*
X84582500Y-83025135D03*
D104*
X72417500Y-85575135D03*
D105*
X85344500Y-88095135D03*
D20*
X-20827500Y-66375135D03*
D21*
X-19557500Y-68915135D03*
X-18287500Y-71455135D03*
D22*
X-15747500Y-66375135D03*
D21*
X-13207500Y-71455135D03*
X-11937500Y-68915135D03*
D20*
X-10667500Y-66375135D03*
D104*
X-22832500Y-68925135D03*
D105*
X-9905500Y-71445135D03*
D20*
X-1777500Y-104475135D03*
D21*
X-507500Y-107015135D03*
X762500Y-109555135D03*
D22*
X3302500Y-104475135D03*
D21*
X5842500Y-109555135D03*
X7112500Y-107015135D03*
D20*
X8382500Y-104475135D03*
D104*
X-3782500Y-107025135D03*
D105*
X9144500Y-109545135D03*
D20*
X36322500Y-116125135D03*
D21*
X37592500Y-118665135D03*
X38862500Y-121205135D03*
D22*
X41402500Y-116125135D03*
D21*
X43942500Y-121205135D03*
X45212500Y-118665135D03*
D20*
X46482500Y-116125135D03*
D104*
X34317500Y-118675135D03*
D105*
X47244500Y-121195135D03*
D111*
X114000000Y-50500000D03*
X114000000Y-53040000D03*
D112*
X114000000Y-55580000D03*
D111*
X114000000Y-58120000D03*
X114000000Y-60660000D03*
X114000000Y-63200000D03*
X114000000Y-65740000D03*
D112*
X114000000Y-68280000D03*
D111*
X114000000Y-70820000D03*
X114000000Y-73360000D03*
X114000000Y-75900000D03*
X114000000Y-78440000D03*
D112*
X114000000Y-80980000D03*
D111*
X114000000Y-83520000D03*
X114000000Y-86060000D03*
X114000000Y-88600000D03*
X114000000Y-91140000D03*
D112*
X114000000Y-93680000D03*
D111*
X114000000Y-96220000D03*
X114000000Y-98760000D03*
X96220000Y-98760000D03*
X96220000Y-96220000D03*
D112*
X96220000Y-93680000D03*
D111*
X96220000Y-91140000D03*
X96220000Y-88600000D03*
X96220000Y-86060000D03*
X96220000Y-83520000D03*
D112*
X96220000Y-80980000D03*
D111*
X96220000Y-78440000D03*
X96220000Y-75900000D03*
X96220000Y-73360000D03*
X96220000Y-70820000D03*
D112*
X96220000Y-68280000D03*
D111*
X96220000Y-65740000D03*
X96220000Y-63200000D03*
X96220000Y-60660000D03*
X96220000Y-58120000D03*
D112*
X96220000Y-55580000D03*
D111*
X96220000Y-53040000D03*
X96220000Y-50500000D03*
D78*
X-16752500Y-58135135D03*
X-18752500Y-58135135D03*
X-24212500Y-58135135D03*
X-26752500Y-58135135D03*
D20*
X55372500Y-80525135D03*
D21*
X56642500Y-83065135D03*
X57912500Y-85605135D03*
D22*
X60452500Y-80525135D03*
D21*
X62992500Y-85605135D03*
X64262500Y-83065135D03*
D20*
X65532500Y-80525135D03*
D104*
X53367500Y-83075135D03*
D105*
X66294500Y-85595135D03*
D20*
X17272500Y-99575135D03*
D21*
X18542500Y-102115135D03*
X19812500Y-104655135D03*
D22*
X22352500Y-99575135D03*
D21*
X24892500Y-104655135D03*
X26162500Y-102115135D03*
D20*
X27432500Y-99575135D03*
D104*
X15267500Y-102125135D03*
D105*
X28194500Y-104645135D03*
D29*
X94912500Y-104565135D03*
D113*
X-23850000Y-62725000D03*
D106*
X109882500Y-120045135D03*
D103*
X109882500Y-122585135D03*
X109882500Y-125125135D03*
X109882500Y-127665135D03*
X109882500Y-130205135D03*
D20*
X100950482Y-152342257D03*
D21*
X103790207Y-152363815D03*
X106629931Y-152385372D03*
D22*
X103256754Y-147815944D03*
D21*
X108936203Y-147859059D03*
X107249614Y-145574345D03*
D20*
X105563026Y-143289631D03*
D114*
X102312298Y-155286401D03*
D115*
X110426370Y-144912416D03*
D20*
X-20827500Y-123525135D03*
D21*
X-19557500Y-126065135D03*
X-18287500Y-128605135D03*
D22*
X-15747500Y-123525135D03*
D21*
X-13207500Y-128605135D03*
X-11937500Y-126065135D03*
D20*
X-10667500Y-123525135D03*
D104*
X-22832500Y-126075135D03*
D105*
X-9905500Y-128595135D03*
D20*
X17272500Y-80525135D03*
D21*
X18542500Y-83065135D03*
X19812500Y-85605135D03*
D22*
X22352500Y-80525135D03*
D21*
X24892500Y-85605135D03*
X26162500Y-83065135D03*
D20*
X27432500Y-80525135D03*
D104*
X15267500Y-83075135D03*
D105*
X28194500Y-85595135D03*
D29*
X88042500Y-51092635D03*
D20*
X36322500Y-97075135D03*
D21*
X37592500Y-99615135D03*
X38862500Y-102155135D03*
D22*
X41402500Y-97075135D03*
D21*
X43942500Y-102155135D03*
X45212500Y-99615135D03*
D20*
X46482500Y-97075135D03*
D104*
X34317500Y-99625135D03*
D105*
X47244500Y-102145135D03*
D20*
X36322500Y-135175134D03*
D21*
X37592500Y-137715134D03*
X38862500Y-140255134D03*
D22*
X41402500Y-135175134D03*
D21*
X43942500Y-140255134D03*
X45212500Y-137715134D03*
D20*
X46482500Y-135175134D03*
D104*
X34317500Y-137725134D03*
D105*
X47244500Y-140245134D03*
D20*
X55372500Y-61475136D03*
D21*
X56642500Y-64015136D03*
X57912500Y-66555136D03*
D22*
X60452500Y-61475136D03*
D21*
X62992500Y-66555136D03*
X64262500Y-64015136D03*
D20*
X65532500Y-61475136D03*
D104*
X53367500Y-64025136D03*
D105*
X66294500Y-66545136D03*
D29*
X70522500Y-111435135D03*
D20*
X17272500Y-137675135D03*
D21*
X18542500Y-140215135D03*
X19812500Y-142755135D03*
D22*
X22352500Y-137675135D03*
D21*
X24892500Y-142755135D03*
X26162500Y-140215135D03*
D20*
X27432500Y-137675135D03*
D104*
X15267500Y-140225135D03*
D105*
X28194500Y-142745135D03*
D20*
X17272500Y-61475135D03*
D21*
X18542500Y-64015135D03*
X19812500Y-66555135D03*
D22*
X22352500Y-61475135D03*
D21*
X24892500Y-66555135D03*
X26162500Y-64015135D03*
D20*
X27432500Y-61475135D03*
D104*
X15267500Y-64025135D03*
D105*
X28194500Y-66545135D03*
D20*
X55372500Y-137675135D03*
D21*
X56642500Y-140215135D03*
X57912500Y-142755135D03*
D22*
X60452500Y-137675135D03*
D21*
X62992500Y-142755135D03*
X64262500Y-140215135D03*
D20*
X65532500Y-137675135D03*
D104*
X53367500Y-140225135D03*
D105*
X66294500Y-142745135D03*
D50*
X116445000Y-92325135D03*
X116445000Y-94865135D03*
X116445000Y-97405135D03*
D51*
X116445000Y-99945135D03*
D29*
X-6222500Y-114000135D03*
D20*
X55372500Y-118625135D03*
D21*
X56642500Y-121165135D03*
X57912500Y-123705135D03*
D22*
X60452500Y-118625135D03*
D21*
X62992500Y-123705135D03*
X64262500Y-121165135D03*
D20*
X65532500Y-118625135D03*
D104*
X53367500Y-121175135D03*
D105*
X66294500Y-123695135D03*
D20*
X74422500Y-121125135D03*
D21*
X75692500Y-123665135D03*
X76962500Y-126205135D03*
D22*
X79502500Y-121125135D03*
D21*
X82042500Y-126205135D03*
X83312500Y-123665135D03*
D20*
X84582500Y-121125135D03*
D104*
X72417500Y-123675135D03*
D105*
X85344500Y-126195135D03*
D20*
X-20827500Y-104475135D03*
D21*
X-19557500Y-107015135D03*
X-18287500Y-109555135D03*
D22*
X-15747500Y-104475135D03*
D21*
X-13207500Y-109555135D03*
X-11937500Y-107015135D03*
D20*
X-10667500Y-104475135D03*
D104*
X-22832500Y-107025135D03*
D105*
X-9905500Y-109545135D03*
D50*
X91142500Y-100025134D03*
X91142500Y-97485134D03*
X91142500Y-94945134D03*
D67*
X91142500Y-92405134D03*
D20*
X36322500Y-58975136D03*
D21*
X37592500Y-61515136D03*
X38862500Y-64055136D03*
D22*
X41402500Y-58975136D03*
D21*
X43942500Y-64055136D03*
X45212500Y-61515136D03*
D20*
X46482500Y-58975136D03*
D104*
X34317500Y-61525136D03*
D105*
X47244500Y-64045136D03*
D20*
X-1777500Y-123525135D03*
D21*
X-507500Y-126065135D03*
X762500Y-128605135D03*
D22*
X3302500Y-123525135D03*
D21*
X5842500Y-128605135D03*
X7112500Y-126065135D03*
D20*
X8382500Y-123525135D03*
D104*
X-3782500Y-126075135D03*
D105*
X9144500Y-128595135D03*
D20*
X55372500Y-99575135D03*
D21*
X56642500Y-102115135D03*
X57912500Y-104655135D03*
D22*
X60452500Y-99575135D03*
D21*
X62992500Y-104655135D03*
X64262500Y-102115135D03*
D20*
X65532500Y-99575135D03*
D104*
X53367500Y-102125135D03*
D105*
X66294500Y-104645135D03*
D82*
X138950000Y-112875000D03*
X138950000Y-124075000D03*
D83*
X146450000Y-115975000D03*
X146450000Y-120975000D03*
X146450000Y-118475000D03*
X131950000Y-120975000D03*
X131950000Y-115975000D03*
D29*
X70612500Y-73485135D03*
X-6237500Y-75885135D03*
D20*
X77545597Y-141060334D03*
D21*
X78114922Y-143842486D03*
X78684248Y-146624638D03*
D22*
X82452500Y-142375135D03*
D21*
X83591151Y-147939439D03*
X85475277Y-145814687D03*
D20*
X87359403Y-143689936D03*
D116*
X74948927Y-143004513D03*
D117*
X86783226Y-148784400D03*
M02*
