M48
; DRILL file {KiCad 7.0.10} date Fri Mar  1 16:33:54 2024
; FORMAT={-:-/ absolute / metric / decimal}
; #@! TF.CreationDate,2024-03-01T16:33:54-05:00
; #@! TF.GenerationSoftware,Kicad,Pcbnew,7.0.10
; #@! TF.FileFunction,NonPlated,1,2,NPTH
FMAT,2
METRIC
; #@! TA.AperFunction,NonPlated,NPTH,ComponentDrill
T1C0.800
; #@! TA.AperFunction,NonPlated,NPTH,ComponentDrill
T2C1.000
; #@! TA.AperFunction,NonPlated,NPTH,ComponentDrill
T3C1.152
; #@! TA.AperFunction,NonPlated,NPTH,ComponentDrill
T4C1.200
; #@! TA.AperFunction,NonPlated,NPTH,ComponentDrill
T5C1.500
; #@! TA.AperFunction,NonPlated,NPTH,ComponentDrill
T6C1.750
; #@! TA.AperFunction,NonPlated,NPTH,ComponentDrill
T7C3.000
; #@! TA.AperFunction,NonPlated,NPTH,ComponentDrill
T8C3.988
%
G90
G05
T1
X-26.752Y-58.135
X-24.212Y-58.135
X-18.752Y-58.135
X-16.752Y-58.135
X255.752Y-58.135
X257.752Y-58.135
X263.212Y-58.135
X265.752Y-58.135
T2
X116.359Y-127.64
X122.64Y-127.635
T3
X-25.025Y-133.0
X262.0Y-56.0
T4
X110.162Y-105.045
X110.162Y-106.795
X117.162Y-105.045
X117.162Y-106.795
X121.825Y-105.05
X121.825Y-106.8
X128.825Y-105.05
X128.825Y-106.8
T6
X-20.828Y-85.425
X-20.828Y-66.375
X-20.828Y-104.475
X-20.828Y-123.525
X-10.668Y-85.425
X-10.667Y-66.375
X-10.667Y-104.475
X-10.667Y-123.525
X-1.777Y-66.375
X-1.777Y-104.475
X-1.777Y-123.525
X-1.777Y-85.425
X8.383Y-66.375
X8.383Y-104.475
X8.383Y-123.525
X8.383Y-85.425
X17.273Y-61.475
X17.273Y-80.525
X17.273Y-99.575
X17.273Y-118.625
X17.273Y-137.675
X27.432Y-61.475
X27.432Y-80.525
X27.432Y-99.575
X27.432Y-118.625
X27.432Y-137.675
X36.322Y-58.975
X36.322Y-78.025
X36.322Y-97.075
X36.322Y-116.125
X36.322Y-135.175
X46.482Y-58.975
X46.482Y-78.025
X46.482Y-97.075
X46.482Y-116.125
X46.482Y-135.175
X55.372Y-61.475
X55.372Y-80.525
X55.372Y-99.575
X55.372Y-118.625
X55.372Y-137.675
X65.532Y-61.475
X65.532Y-80.525
X65.532Y-99.575
X65.532Y-118.625
X65.532Y-137.675
X74.422Y-63.975
X74.422Y-83.025
X74.422Y-102.075
X74.422Y-121.125
X77.546Y-141.06
X84.582Y-63.975
X84.582Y-83.025
X84.582Y-102.075
X84.582Y-121.125
X87.359Y-143.69
X100.95Y-152.342
X105.563Y-143.29
X133.437Y-143.29
X138.05Y-152.342
X151.641Y-143.69
X154.417Y-63.975
X154.417Y-83.025
X154.417Y-102.075
X154.417Y-121.125
X161.454Y-141.06
X164.577Y-63.975
X164.577Y-83.025
X164.577Y-102.075
X164.577Y-121.125
X173.468Y-61.475
X173.468Y-80.525
X173.468Y-99.575
X173.468Y-118.625
X173.468Y-137.675
X183.627Y-61.475
X183.627Y-80.525
X183.627Y-99.575
X183.627Y-118.625
X183.627Y-137.675
X192.517Y-58.975
X192.517Y-78.025
X192.517Y-97.075
X192.517Y-116.125
X192.517Y-135.175
X202.677Y-58.975
X202.677Y-78.025
X202.677Y-97.075
X202.677Y-116.125
X202.677Y-135.175
X211.567Y-61.475
X211.567Y-80.525
X211.567Y-99.575
X211.567Y-118.625
X211.567Y-137.675
X221.727Y-61.475
X221.727Y-80.525
X221.727Y-99.575
X221.727Y-118.625
X221.727Y-137.675
X230.617Y-66.375
X230.617Y-85.425
X230.617Y-104.475
X230.617Y-123.525
X240.777Y-66.375
X240.777Y-85.425
X240.777Y-104.475
X240.777Y-123.525
X249.667Y-66.375
X249.667Y-85.425
X249.667Y-104.475
X249.667Y-123.525
X259.827Y-66.375
X259.827Y-85.425
X259.827Y-104.475
X259.827Y-123.525
T7
X-19.558Y-87.965
X-19.557Y-68.915
X-19.557Y-107.015
X-19.557Y-126.065
X-18.288Y-90.505
X-18.287Y-71.455
X-18.287Y-109.555
X-18.287Y-128.605
X-13.208Y-90.505
X-13.207Y-71.455
X-13.207Y-109.555
X-13.207Y-128.605
X-11.938Y-87.965
X-11.938Y-68.915
X-11.938Y-107.015
X-11.938Y-126.065
X-0.507Y-68.915
X-0.507Y-107.015
X-0.507Y-126.065
X-0.507Y-87.965
X0.762Y-71.455
X0.762Y-109.555
X0.762Y-128.605
X0.763Y-90.505
X5.842Y-71.455
X5.842Y-109.555
X5.842Y-128.605
X5.843Y-90.505
X7.112Y-68.915
X7.112Y-107.015
X7.112Y-126.065
X7.113Y-87.965
X18.543Y-64.015
X18.543Y-83.065
X18.543Y-102.115
X18.543Y-121.165
X18.543Y-140.215
X19.812Y-66.555
X19.812Y-85.605
X19.812Y-104.655
X19.812Y-123.705
X19.812Y-142.755
X24.892Y-66.555
X24.892Y-85.605
X24.892Y-104.655
X24.892Y-123.705
X24.892Y-142.755
X26.162Y-64.015
X26.162Y-83.065
X26.162Y-102.115
X26.162Y-121.165
X26.162Y-140.215
X37.593Y-61.515
X37.593Y-80.565
X37.593Y-99.615
X37.593Y-118.665
X37.593Y-137.715
X38.862Y-64.055
X38.862Y-83.105
X38.862Y-102.155
X38.862Y-121.205
X38.862Y-140.255
X43.942Y-64.055
X43.942Y-83.105
X43.942Y-102.155
X43.942Y-121.205
X43.942Y-140.255
X45.212Y-61.515
X45.212Y-80.565
X45.212Y-99.615
X45.212Y-118.665
X45.212Y-137.715
X56.642Y-64.015
X56.642Y-83.065
X56.642Y-102.115
X56.642Y-121.165
X56.642Y-140.215
X57.912Y-66.555
X57.912Y-85.605
X57.912Y-104.655
X57.912Y-123.705
X57.912Y-142.755
X62.992Y-66.555
X62.992Y-85.605
X62.992Y-104.655
X62.992Y-123.705
X62.992Y-142.755
X64.263Y-64.015
X64.263Y-83.065
X64.263Y-102.115
X64.263Y-121.165
X64.263Y-140.215
X75.692Y-66.515
X75.692Y-85.565
X75.692Y-104.615
X75.692Y-123.665
X76.962Y-69.055
X76.962Y-88.105
X76.962Y-107.155
X76.962Y-126.205
X78.115Y-143.842
X78.684Y-146.625
X82.042Y-69.055
X82.042Y-88.105
X82.042Y-107.155
X82.042Y-126.205
X83.312Y-66.515
X83.312Y-85.565
X83.312Y-104.615
X83.312Y-123.665
X83.591Y-147.939
X85.475Y-145.815
X103.79Y-152.364
X106.63Y-152.385
X107.25Y-145.574
X108.936Y-147.859
X130.064Y-147.859
X131.75Y-145.574
X132.37Y-152.385
X135.21Y-152.364
X153.525Y-145.815
X155.409Y-147.939
X155.688Y-66.515
X155.688Y-85.565
X155.688Y-104.615
X155.688Y-123.665
X156.957Y-69.055
X156.957Y-88.105
X156.957Y-107.155
X156.957Y-126.205
X160.316Y-146.625
X160.885Y-143.842
X162.037Y-69.055
X162.037Y-88.105
X162.037Y-107.155
X162.037Y-126.205
X163.308Y-66.515
X163.308Y-85.565
X163.308Y-104.615
X163.308Y-123.665
X174.737Y-64.015
X174.737Y-83.065
X174.737Y-102.115
X174.737Y-121.165
X174.737Y-140.215
X176.007Y-66.555
X176.007Y-85.605
X176.007Y-104.655
X176.007Y-123.705
X176.007Y-142.755
X181.088Y-66.555
X181.088Y-85.605
X181.088Y-104.655
X181.088Y-123.705
X181.088Y-142.755
X182.357Y-64.015
X182.357Y-83.065
X182.357Y-102.115
X182.357Y-121.165
X182.357Y-140.215
X193.787Y-61.515
X193.787Y-80.565
X193.787Y-99.615
X193.787Y-118.665
X193.787Y-137.715
X195.058Y-64.055
X195.058Y-83.105
X195.058Y-102.155
X195.058Y-121.205
X195.058Y-140.255
X200.137Y-64.055
X200.137Y-83.105
X200.137Y-102.155
X200.137Y-121.205
X200.137Y-140.255
X201.407Y-61.515
X201.407Y-80.565
X201.407Y-99.615
X201.407Y-118.665
X201.407Y-137.715
X212.837Y-64.015
X212.837Y-83.065
X212.837Y-102.115
X212.837Y-121.165
X212.837Y-140.215
X214.107Y-66.555
X214.107Y-85.605
X214.107Y-104.655
X214.107Y-123.705
X214.107Y-142.755
X219.188Y-66.555
X219.188Y-85.605
X219.188Y-104.655
X219.188Y-123.705
X219.188Y-142.755
X220.457Y-64.015
X220.457Y-83.065
X220.457Y-102.115
X220.457Y-121.165
X220.457Y-140.215
X231.887Y-68.915
X231.887Y-87.965
X231.887Y-107.015
X231.887Y-126.065
X233.157Y-71.455
X233.157Y-90.505
X233.157Y-109.555
X233.157Y-128.605
X238.237Y-71.455
X238.237Y-90.505
X238.237Y-109.555
X238.237Y-128.605
X239.507Y-68.915
X239.507Y-87.965
X239.507Y-107.015
X239.507Y-126.065
X250.938Y-68.915
X250.938Y-87.965
X250.938Y-107.015
X250.938Y-126.065
X252.207Y-71.455
X252.207Y-90.505
X252.207Y-109.555
X252.207Y-128.605
X257.287Y-71.455
X257.287Y-90.505
X257.287Y-109.555
X257.287Y-128.605
X258.558Y-68.915
X258.558Y-87.965
X258.558Y-107.015
X258.558Y-126.065
T8
X-15.748Y-85.425
X-15.747Y-66.375
X-15.747Y-104.475
X-15.747Y-123.525
X3.302Y-66.375
X3.302Y-104.475
X3.302Y-123.525
X3.303Y-85.425
X22.352Y-61.475
X22.352Y-80.525
X22.352Y-99.575
X22.352Y-118.625
X22.352Y-137.675
X41.402Y-58.975
X41.402Y-78.025
X41.402Y-97.075
X41.402Y-116.125
X41.402Y-135.175
X60.453Y-61.475
X60.453Y-80.525
X60.453Y-99.575
X60.453Y-118.625
X60.453Y-137.675
X79.502Y-63.975
X79.502Y-83.025
X79.502Y-102.075
X79.502Y-121.125
X82.453Y-142.375
X103.257Y-147.816
X135.743Y-147.816
X156.547Y-142.375
X159.498Y-63.975
X159.498Y-83.025
X159.498Y-102.075
X159.498Y-121.125
X178.547Y-61.475
X178.547Y-80.525
X178.547Y-99.575
X178.547Y-118.625
X178.547Y-137.675
X197.597Y-58.975
X197.597Y-78.025
X197.597Y-97.075
X197.597Y-116.125
X197.597Y-135.175
X216.647Y-61.475
X216.647Y-80.525
X216.647Y-99.575
X216.647Y-118.625
X216.647Y-137.675
X235.697Y-66.375
X235.697Y-85.425
X235.697Y-104.475
X235.697Y-123.525
X254.748Y-66.375
X254.748Y-85.425
X254.748Y-104.475
X254.748Y-123.525
T5
X99.402Y-112.875G85X100.703Y-112.875
G05
X99.402Y-124.075G85X100.703Y-124.075
G05
X139.6Y-112.875G85X138.3Y-112.875
G05
X139.6Y-124.075G85X138.3Y-124.075
G05
M30
