M48
; DRILL file {KiCad 7.0.10} date Fri Mar  1 16:33:54 2024
; FORMAT={-:-/ absolute / metric / decimal}
; #@! TF.CreationDate,2024-03-01T16:33:54-05:00
; #@! TF.GenerationSoftware,Kicad,Pcbnew,7.0.10
; #@! TF.FileFunction,Plated,1,2,PTH
FMAT,2
METRIC
; #@! TA.AperFunction,Plated,PTH,ViaDrill
T1C0.300
; #@! TA.AperFunction,Plated,PTH,ComponentDrill
T2C0.300
; #@! TA.AperFunction,Plated,PTH,ComponentDrill
T3C0.800
; #@! TA.AperFunction,Plated,PTH,ComponentDrill
T4C0.813
; #@! TA.AperFunction,Plated,PTH,ComponentDrill
T5C0.900
; #@! TA.AperFunction,Plated,PTH,ComponentDrill
T6C1.000
; #@! TA.AperFunction,Plated,PTH,ComponentDrill
T7C2.200
; #@! TA.AperFunction,Plated,PTH,ComponentDrill
T8C4.100
%
G90
G05
T1
X-23.497Y-81.4
X-23.497Y-100.75
X-23.497Y-120.95
X-21.997Y-81.4
X-21.997Y-100.75
X-21.997Y-120.95
X-20.586Y-61.661
X-20.247Y-79.8
X-19.707Y-99.63
X-19.668Y-80.58
X-19.668Y-118.68
X-18.547Y-63.3
X-18.547Y-101.4
X-18.547Y-120.45
X-13.297Y-63.4
X-12.997Y-82.3
X-12.947Y-101.4
X-12.947Y-120.45
X-11.672Y-61.6
X-11.672Y-80.65
X-11.672Y-118.75
X-11.672Y-99.7
X-7.7Y-66.925
X-6.55Y-55.675
X-6.55Y-57.475
X-6.215Y-66.925
X-5.175Y-119.4
X-4.447Y-79.45
X-4.408Y-100.425
X-3.875Y-119.4
X-3.747Y-117.95
X-2.998Y-97.02
X-2.947Y-79.45
X-2.892Y-100.425
X-2.643Y-77.929
X-2.197Y-80.4
X-1.823Y-99.675
X-1.147Y-81.45
X-0.847Y-100.625
X-0.802Y-99.62
X-0.778Y-80.62
X-0.627Y-118.68
X-0.607Y-61.53
X0.502Y-63.25
X0.502Y-120.45
X6.1Y-63.275
X6.103Y-120.45
X6.103Y-82.3
X6.152Y-101.45
X7.377Y-61.6
X7.377Y-80.65
X7.377Y-99.7
X7.377Y-118.75
X8.2Y-55.8
X8.2Y-57.6
X14.512Y-111.15
X14.517Y-73.0
X14.517Y-92.0
X14.875Y-127.475
X16.028Y-111.15
X16.033Y-73.0
X16.033Y-92.0
X16.602Y-127.45
X18.28Y-75.66
X18.372Y-94.73
X18.372Y-132.86
X18.392Y-113.83
X18.397Y-56.617
X19.552Y-58.35
X19.552Y-77.4
X19.552Y-96.5
X19.552Y-115.5
X19.588Y-134.542
X25.102Y-77.45
X25.152Y-58.35
X25.152Y-96.5
X25.152Y-134.6
X25.203Y-115.55
X25.752Y-97.15
X26.427Y-75.75
X26.427Y-94.8
X26.427Y-113.85
X26.427Y-132.9
X26.592Y-56.67
X26.644Y-115.008
X27.107Y-97.15
X27.602Y-114.05
X27.802Y-56.65
X28.202Y-76.9
X28.863Y-57.711
X29.252Y-75.85
X29.377Y-88.164
X30.438Y-89.154
X30.875Y-67.2
X31.325Y-123.35
X32.39Y-133.81
X32.415Y-131.86
X32.775Y-67.2
X32.817Y-69.158
X33.275Y-123.375
X33.4Y-88.65
X33.4Y-106.325
X33.542Y-55.2
X34.225Y-107.55
X34.242Y-71.1
X34.402Y-90.5
X35.058Y-55.2
X35.725Y-107.55
X35.758Y-71.1
X35.9Y-126.25
X35.9Y-73.55
X35.902Y-90.5
X36.302Y-111.45
X36.999Y-74.629
X37.252Y-112.4
X37.347Y-111.32
X37.373Y-130.37
X37.406Y-73.145
X37.412Y-54.05
X37.472Y-92.23
X38.538Y-55.92
X38.602Y-132.1
X38.608Y-93.98
X44.203Y-55.85
X44.203Y-74.9
X44.203Y-93.95
X44.203Y-113.0
X44.252Y-132.1
X45.477Y-54.09
X45.477Y-73.25
X45.477Y-92.3
X45.477Y-111.35
X45.477Y-130.4
X49.4Y-71.325
X50.325Y-122.917
X50.325Y-124.432
X50.358Y-70.367
X50.85Y-109.475
X50.85Y-110.83
X51.2Y-90.475
X51.2Y-91.83
X51.5Y-128.575
X51.5Y-129.93
X52.867Y-90.525
X52.892Y-57.325
X52.992Y-108.225
X53.292Y-71.5
X54.383Y-90.525
X54.408Y-57.325
X54.508Y-108.225
X54.808Y-71.5
X56.24Y-113.86
X56.273Y-75.67
X56.422Y-56.63
X56.432Y-94.69
X56.447Y-132.845
X57.638Y-58.47
X57.652Y-77.5
X57.652Y-96.5
X57.652Y-115.55
X57.652Y-134.6
X63.252Y-77.4
X63.252Y-115.5
X63.252Y-134.6
X63.253Y-58.35
X63.253Y-96.55
X64.457Y-132.823
X64.528Y-56.7
X64.528Y-75.75
X64.528Y-94.8
X64.528Y-113.85
X64.803Y-77.0
X64.994Y-134.283
X65.802Y-76.0
X65.953Y-133.325
X66.302Y-111.425
X66.48Y-73.372
X66.903Y-116.95
X66.996Y-107.067
X67.846Y-132.354
X68.067Y-108.146
X68.257Y-116.95
X68.45Y-67.375
X69.394Y-130.805
X69.742Y-90.23
X69.85Y-135.875
X69.935Y-67.375
X71.1Y-135.875
X71.803Y-115.25
X72.35Y-97.3
X72.925Y-79.95
X73.302Y-115.25
X73.675Y-131.925
X73.7Y-137.41
X73.705Y-135.89
X73.85Y-97.3
X73.952Y-52.6
X74.15Y-60.725
X74.2Y-79.95
X74.352Y-98.9
X75.272Y-116.395
X75.487Y-97.254
X75.522Y-59.17
X75.522Y-78.17
X75.698Y-60.719
X75.752Y-98.9
X76.625Y-53.42
X76.625Y-56.525
X76.703Y-80.0
X76.703Y-118.05
X77.774Y-50.025
X79.778Y-136.675
X80.803Y-138.7
X82.302Y-60.95
X82.302Y-79.9
X82.302Y-118.1
X82.338Y-99.035
X83.6Y-59.15
X83.75Y-97.482
X83.8Y-78.407
X83.825Y-116.557
X83.871Y-75.546
X84.98Y-76.65
X86.176Y-57.824
X86.3Y-94.192
X86.592Y-116.142
X86.752Y-140.3
X87.354Y-77.737
X87.877Y-138.775
X88.25Y-55.775
X88.425Y-75.15
X88.425Y-76.665
X88.575Y-94.2
X88.794Y-116.15
X89.971Y-134.229
X90.929Y-133.271
X91.152Y-88.85
X94.0Y-127.75
X94.02Y-129.97
X94.319Y-148.758
X95.277Y-147.8
X97.002Y-149.3
X98.823Y-88.625
X99.203Y-148.85
X99.478Y-86.002
X100.103Y-78.516
X100.738Y-73.385
X100.877Y-141.925
X101.373Y-70.899
X101.902Y-143.65
X102.349Y-109.051
X102.387Y-102.056
X105.037Y-102.944
X105.037Y-102.944
X105.05Y-101.994
X105.05Y-101.994
X106.102Y-125.15
X107.502Y-126.55
X109.181Y-97.482
X109.188Y-74.65
X109.192Y-67.01
X109.863Y-114.404
X110.662Y-114.41
X128.338Y-114.385
X129.137Y-114.379
X129.808Y-66.985
X129.812Y-74.625
X129.819Y-97.457
X131.498Y-126.525
X132.898Y-125.125
X134.725Y-102.25
X135.55Y-102.25
X137.097Y-143.625
X137.626Y-70.874
X138.123Y-141.9
X138.261Y-73.36
X138.897Y-78.491
X139.522Y-85.977
X139.797Y-148.825
X140.177Y-88.6
X141.998Y-149.275
X143.722Y-147.775
X144.681Y-148.733
X145.03Y-127.61
X145.03Y-129.98
X147.847Y-88.825
X148.071Y-133.246
X149.029Y-134.204
X150.206Y-116.125
X150.425Y-94.175
X150.55Y-76.599
X150.56Y-75.17
X150.75Y-55.75
X151.123Y-138.75
X151.621Y-77.67
X152.248Y-140.275
X152.408Y-116.117
X152.7Y-94.167
X152.824Y-57.799
X154.196Y-76.654
X155.154Y-75.696
X155.175Y-116.533
X155.2Y-78.383
X155.25Y-97.458
X155.325Y-59.075
X156.662Y-99.01
X156.697Y-60.925
X156.697Y-79.875
X156.697Y-118.075
X158.197Y-138.675
X158.95Y-52.625
X159.222Y-136.65
X160.375Y-51.85
X162.297Y-79.975
X162.297Y-118.025
X162.375Y-53.3
X162.375Y-56.5
X163.248Y-98.875
X163.302Y-60.694
X163.477Y-59.145
X163.477Y-78.145
X163.513Y-97.229
X163.727Y-116.37
X164.647Y-98.875
X164.8Y-79.925
X164.85Y-60.7
X165.15Y-97.275
X165.325Y-131.9
X165.697Y-115.225
X166.075Y-79.925
X166.65Y-97.275
X167.197Y-115.225
X167.9Y-135.85
X169.065Y-67.35
X169.15Y-135.85
X169.257Y-90.205
X169.606Y-130.781
X170.55Y-67.35
X170.743Y-116.925
X171.154Y-132.329
X172.097Y-116.925
X172.52Y-73.347
X172.697Y-111.4
X173.047Y-133.3
X173.197Y-75.975
X174.006Y-134.258
X174.197Y-76.975
X174.472Y-56.675
X174.472Y-75.725
X174.472Y-94.775
X174.472Y-113.825
X174.543Y-132.798
X175.748Y-58.325
X175.748Y-77.375
X175.748Y-96.525
X175.748Y-115.475
X175.748Y-134.575
X181.347Y-77.475
X181.347Y-96.475
X181.347Y-115.525
X181.347Y-134.575
X181.362Y-58.445
X182.487Y-113.815
X182.552Y-132.82
X182.567Y-94.665
X182.577Y-56.605
X182.727Y-75.645
X184.192Y-71.475
X184.492Y-108.2
X184.592Y-57.3
X184.617Y-90.5
X185.708Y-71.475
X186.008Y-108.2
X186.108Y-57.3
X186.133Y-90.5
X187.5Y-128.55
X187.5Y-129.905
X187.8Y-90.45
X187.8Y-91.805
X188.15Y-109.45
X188.15Y-110.805
X188.642Y-70.342
X188.675Y-122.892
X188.675Y-124.408
X189.6Y-71.3
X190.387Y-54.036
X191.447Y-52.975
X193.522Y-54.065
X193.522Y-73.225
X193.522Y-92.275
X193.522Y-111.325
X193.522Y-130.375
X194.748Y-132.075
X194.797Y-55.825
X194.797Y-74.875
X194.797Y-93.925
X194.797Y-112.975
X200.397Y-132.075
X200.462Y-55.895
X201.528Y-92.205
X201.56Y-73.233
X201.587Y-54.025
X201.627Y-130.345
X201.653Y-111.295
X201.748Y-112.375
X201.789Y-74.433
X202.248Y-92.925
X202.297Y-91.475
X202.697Y-111.425
X202.748Y-73.475
X203.1Y-126.225
X203.175Y-90.075
X203.242Y-71.2
X203.275Y-107.525
X203.942Y-55.175
X204.675Y-90.075
X204.758Y-71.2
X204.775Y-107.525
X204.978Y-123.952
X205.458Y-55.175
X205.6Y-84.9
X205.6Y-88.625
X205.6Y-106.3
X206.183Y-69.133
X206.225Y-67.175
X206.325Y-104.575
X206.477Y-131.908
X206.502Y-133.858
X206.756Y-123.952
X207.3Y-84.9
X208.075Y-104.575
X208.125Y-67.175
X208.534Y-123.952
X209.748Y-75.825
X210.137Y-57.686
X210.696Y-95.696
X210.797Y-76.875
X211.197Y-56.625
X211.397Y-114.025
X211.654Y-96.654
X212.356Y-114.983
X212.407Y-56.645
X212.572Y-75.725
X212.572Y-94.775
X212.572Y-113.825
X212.572Y-132.875
X213.797Y-115.525
X213.847Y-58.325
X213.847Y-96.475
X213.847Y-134.575
X213.897Y-77.425
X219.412Y-134.518
X219.447Y-58.325
X219.447Y-77.375
X219.447Y-96.475
X219.447Y-115.475
X220.577Y-75.685
X220.602Y-56.592
X220.607Y-113.805
X220.627Y-94.705
X220.627Y-132.835
X222.397Y-127.425
X222.967Y-72.975
X222.967Y-91.975
X222.982Y-111.19
X224.125Y-127.45
X224.483Y-72.975
X224.483Y-91.975
X224.498Y-111.19
X226.06Y-73.406
X226.196Y-93.858
X226.822Y-59.436
X227.051Y-109.302
X227.076Y-111.252
X227.33Y-92.71
X227.421Y-72.009
X228.183Y-58.039
X230.8Y-55.775
X230.8Y-57.575
X231.623Y-61.575
X231.623Y-80.625
X231.623Y-99.675
X231.623Y-118.725
X232.847Y-101.425
X232.897Y-82.275
X232.897Y-120.425
X232.9Y-63.25
X238.498Y-63.225
X238.498Y-120.425
X239.607Y-61.505
X239.627Y-118.655
X239.777Y-80.595
X239.802Y-99.595
X239.847Y-100.6
X240.147Y-81.425
X240.822Y-99.65
X241.197Y-80.375
X241.642Y-77.904
X241.892Y-100.4
X241.947Y-79.425
X241.998Y-96.995
X242.748Y-117.925
X242.875Y-119.375
X243.408Y-100.4
X243.447Y-79.425
X244.175Y-119.375
X245.215Y-66.9
X245.55Y-55.65
X245.55Y-57.45
X246.7Y-66.9
X250.672Y-61.575
X250.672Y-80.625
X250.672Y-99.675
X250.672Y-118.725
X251.947Y-101.375
X251.947Y-120.425
X251.998Y-82.275
X252.297Y-63.375
X257.548Y-63.275
X257.548Y-101.375
X257.548Y-120.425
X258.667Y-80.555
X258.667Y-118.655
X258.707Y-99.605
X259.248Y-79.775
X259.586Y-61.636
X260.998Y-81.375
X260.998Y-100.725
X260.998Y-120.925
X262.498Y-81.375
X262.498Y-100.725
X262.498Y-120.925
T2
X-22.058Y-89.235
X-22.057Y-70.185
X-22.057Y-108.285
X-22.057Y-127.335
X-9.448Y-89.245
X-9.447Y-70.195
X-9.447Y-108.295
X-9.447Y-127.345
X-3.007Y-70.185
X-3.007Y-108.285
X-3.007Y-127.335
X-3.007Y-89.235
X9.602Y-70.195
X9.602Y-108.295
X9.602Y-127.345
X9.603Y-89.245
X16.043Y-65.285
X16.043Y-84.335
X16.043Y-103.385
X16.043Y-122.435
X16.043Y-141.485
X28.652Y-65.295
X28.652Y-84.345
X28.652Y-103.395
X28.652Y-122.445
X28.652Y-141.495
X35.093Y-62.785
X35.093Y-81.835
X35.093Y-100.885
X35.093Y-119.935
X35.093Y-138.985
X47.703Y-62.795
X47.703Y-81.845
X47.703Y-100.895
X47.703Y-119.945
X47.703Y-138.995
X54.142Y-65.285
X54.142Y-84.335
X54.142Y-103.385
X54.142Y-122.435
X54.142Y-141.485
X66.752Y-65.295
X66.752Y-84.345
X66.752Y-103.395
X66.752Y-122.445
X66.752Y-141.495
X73.192Y-67.785
X73.192Y-86.835
X73.192Y-105.885
X73.192Y-124.935
X75.371Y-144.422
X85.802Y-67.795
X85.802Y-86.845
X85.802Y-105.895
X85.802Y-124.945
X87.549Y-147.696
X103.787Y-155.168
X109.521Y-143.937
X129.479Y-143.937
X135.213Y-155.168
X151.451Y-147.696
X153.197Y-67.795
X153.197Y-86.845
X153.197Y-105.895
X153.197Y-124.945
X163.629Y-144.422
X165.808Y-67.785
X165.808Y-86.835
X165.808Y-105.885
X165.808Y-124.935
X172.248Y-65.295
X172.248Y-84.345
X172.248Y-103.395
X172.248Y-122.445
X172.248Y-141.495
X184.857Y-65.285
X184.857Y-84.335
X184.857Y-103.385
X184.857Y-122.435
X184.857Y-141.485
X191.297Y-62.795
X191.297Y-81.845
X191.297Y-100.895
X191.297Y-119.945
X191.297Y-138.995
X203.907Y-62.785
X203.907Y-81.835
X203.907Y-100.885
X203.907Y-119.935
X203.907Y-138.985
X210.347Y-65.295
X210.347Y-84.345
X210.347Y-103.395
X210.347Y-122.445
X210.347Y-141.495
X222.957Y-65.285
X222.957Y-84.335
X222.957Y-103.385
X222.957Y-122.435
X222.957Y-141.485
X229.397Y-70.195
X229.397Y-89.245
X229.397Y-108.295
X229.397Y-127.345
X242.007Y-70.185
X242.007Y-89.235
X242.007Y-108.285
X242.007Y-127.335
X248.447Y-70.195
X248.447Y-89.245
X248.447Y-108.295
X248.447Y-127.345
X261.058Y-70.185
X261.058Y-89.235
X261.058Y-108.285
X261.058Y-127.335
T3
X83.052Y-49.41
X83.052Y-51.95
X93.68Y-50.5
X93.68Y-53.04
X93.68Y-55.58
X93.68Y-58.12
X93.68Y-60.66
X93.68Y-63.2
X93.68Y-65.74
X93.68Y-68.28
X93.68Y-70.82
X93.68Y-73.36
X93.68Y-75.9
X93.68Y-78.44
X93.68Y-80.98
X93.68Y-83.52
X93.68Y-86.06
X93.68Y-88.6
X93.68Y-91.14
X93.68Y-93.68
X93.68Y-96.22
X93.68Y-98.76
X96.22Y-50.5
X96.22Y-53.04
X96.22Y-55.58
X96.22Y-58.12
X96.22Y-60.66
X96.22Y-63.2
X96.22Y-65.74
X96.22Y-68.28
X96.22Y-70.82
X96.22Y-73.36
X96.22Y-75.9
X96.22Y-78.44
X96.22Y-80.98
X96.22Y-83.52
X96.22Y-86.06
X96.22Y-88.6
X96.22Y-91.14
X96.22Y-93.68
X96.22Y-96.22
X96.22Y-98.76
X104.593Y-111.295
X107.132Y-111.295
X111.46Y-50.5
X111.46Y-53.04
X111.46Y-55.58
X111.46Y-58.12
X111.46Y-60.66
X111.46Y-63.2
X111.46Y-65.74
X111.46Y-68.28
X111.46Y-70.82
X111.46Y-73.36
X111.46Y-75.9
X111.46Y-78.44
X111.46Y-80.98
X111.46Y-83.52
X111.46Y-86.06
X111.46Y-88.6
X111.46Y-91.14
X111.46Y-93.68
X111.46Y-96.22
X111.46Y-98.76
X114.0Y-50.5
X114.0Y-53.04
X114.0Y-55.58
X114.0Y-58.12
X114.0Y-60.66
X114.0Y-63.2
X114.0Y-65.74
X114.0Y-68.28
X114.0Y-70.82
X114.0Y-73.36
X114.0Y-75.9
X114.0Y-78.44
X114.0Y-80.98
X114.0Y-83.52
X114.0Y-86.06
X114.0Y-88.6
X114.0Y-91.14
X114.0Y-93.68
X114.0Y-96.22
X114.0Y-98.76
X125.0Y-50.5
X125.0Y-53.04
X125.0Y-55.58
X125.0Y-58.12
X125.0Y-60.66
X125.0Y-63.2
X125.0Y-65.74
X125.0Y-68.28
X125.0Y-70.82
X125.0Y-73.36
X125.0Y-75.9
X125.0Y-78.44
X125.0Y-80.98
X125.0Y-83.52
X125.0Y-86.06
X125.0Y-88.6
X125.0Y-91.14
X125.0Y-93.68
X125.0Y-96.22
X125.0Y-98.76
X127.54Y-50.5
X127.54Y-53.04
X127.54Y-55.58
X127.54Y-58.12
X127.54Y-60.66
X127.54Y-63.2
X127.54Y-65.74
X127.54Y-68.28
X127.54Y-70.82
X127.54Y-73.36
X127.54Y-75.9
X127.54Y-78.44
X127.54Y-80.98
X127.54Y-83.52
X127.54Y-86.06
X127.54Y-88.6
X127.54Y-91.14
X127.54Y-93.68
X127.54Y-96.22
X127.54Y-98.76
X131.855Y-111.3
X134.395Y-111.3
X142.78Y-50.5
X142.78Y-53.04
X142.78Y-55.58
X142.78Y-58.12
X142.78Y-60.66
X142.78Y-63.2
X142.78Y-65.74
X142.78Y-68.28
X142.78Y-70.82
X142.78Y-73.36
X142.78Y-75.9
X142.78Y-78.44
X142.78Y-80.98
X142.78Y-83.52
X142.78Y-86.06
X142.78Y-88.6
X142.78Y-91.14
X142.78Y-93.68
X142.78Y-96.22
X142.78Y-98.76
X145.32Y-50.5
X145.32Y-53.04
X145.32Y-55.58
X145.32Y-58.12
X145.32Y-60.66
X145.32Y-63.2
X145.32Y-65.74
X145.32Y-68.28
X145.32Y-70.82
X145.32Y-73.36
X145.32Y-75.9
X145.32Y-78.44
X145.32Y-80.98
X145.32Y-83.52
X145.32Y-86.06
X145.32Y-88.6
X145.32Y-91.14
X145.32Y-93.68
X145.32Y-96.22
X145.32Y-98.76
X155.947Y-49.41
X155.947Y-51.95
T4
X91.142Y-92.405
X91.142Y-94.945
X91.142Y-97.485
X91.142Y-100.025
X91.205Y-64.445
X91.205Y-66.985
X91.205Y-69.525
X91.205Y-72.065
X91.205Y-74.605
X91.205Y-77.145
X91.205Y-79.685
X91.205Y-82.225
X116.415Y-64.445
X116.415Y-66.985
X116.415Y-69.525
X116.415Y-72.065
X116.415Y-74.605
X116.415Y-77.145
X116.415Y-79.685
X116.415Y-82.225
X116.445Y-92.325
X116.445Y-94.865
X116.445Y-97.405
X116.445Y-99.945
X122.555Y-92.325
X122.555Y-94.865
X122.555Y-97.405
X122.555Y-99.945
X122.575Y-64.425
X122.575Y-66.965
X122.575Y-69.505
X122.575Y-72.045
X122.575Y-74.585
X122.575Y-77.125
X122.575Y-79.665
X122.575Y-82.205
X147.785Y-64.425
X147.785Y-66.965
X147.785Y-69.505
X147.785Y-72.045
X147.785Y-74.585
X147.785Y-77.125
X147.785Y-79.665
X147.785Y-82.205
X147.857Y-92.405
X147.857Y-94.945
X147.857Y-97.485
X147.857Y-100.025
T5
X-19.726Y-75.985
X-19.726Y-95.035
X-19.726Y-114.085
X-19.726Y-133.135
X-11.726Y-75.985
X-11.726Y-95.035
X-11.726Y-114.085
X-11.726Y-133.135
X-0.708Y-133.02
X-0.675Y-75.985
X-0.675Y-95.035
X-0.675Y-114.085
X7.292Y-133.02
X7.324Y-75.985
X7.324Y-95.035
X7.324Y-114.085
X18.374Y-71.085
X18.374Y-90.135
X18.374Y-109.185
X18.374Y-128.235
X18.375Y-147.285
X26.374Y-71.085
X26.374Y-90.135
X26.374Y-109.185
X26.374Y-128.235
X26.375Y-147.285
X37.424Y-68.62
X37.424Y-87.635
X37.424Y-106.685
X37.424Y-125.735
X37.424Y-144.785
X45.424Y-68.62
X45.424Y-87.635
X45.424Y-106.685
X45.424Y-125.735
X45.424Y-144.785
X56.13Y-90.047
X56.13Y-109.097
X56.13Y-128.147
X56.13Y-147.197
X56.13Y-70.997
X64.13Y-90.047
X64.13Y-109.097
X64.13Y-128.147
X64.13Y-147.197
X64.13Y-70.997
X75.403Y-73.538
X75.403Y-92.638
X75.403Y-130.688
X75.403Y-111.638
X75.884Y-150.843
X83.402Y-73.538
X83.402Y-92.638
X83.402Y-130.688
X83.403Y-111.638
X83.611Y-152.913
X92.388Y-152.609
X96.053Y-127.015
X99.517Y-156.241
X104.053Y-127.015
X116.415Y-50.54
X116.415Y-58.16
X122.585Y-50.54
X122.585Y-58.16
X134.947Y-127.015
X139.483Y-156.241
X142.947Y-127.015
X146.612Y-152.609
X155.386Y-152.91
X155.597Y-73.538
X155.597Y-92.638
X155.597Y-111.638
X155.597Y-130.688
X163.114Y-150.84
X163.597Y-73.538
X163.597Y-92.638
X163.597Y-111.638
X163.597Y-130.688
X174.87Y-70.997
X174.87Y-90.047
X174.87Y-109.097
X174.87Y-128.147
X174.87Y-147.197
X182.87Y-70.997
X182.87Y-90.047
X182.87Y-109.097
X182.87Y-128.147
X182.87Y-147.197
X193.576Y-68.62
X193.576Y-87.635
X193.576Y-106.685
X193.576Y-125.735
X193.576Y-144.785
X201.575Y-68.62
X201.575Y-87.635
X201.575Y-106.685
X201.575Y-125.735
X201.575Y-144.785
X212.625Y-71.085
X212.625Y-90.135
X212.625Y-109.185
X212.625Y-128.235
X212.625Y-147.285
X220.625Y-71.085
X220.625Y-90.135
X220.625Y-109.185
X220.625Y-128.235
X220.625Y-147.285
X231.675Y-75.985
X231.675Y-95.035
X231.675Y-114.085
X231.708Y-133.02
X239.675Y-75.985
X239.675Y-95.035
X239.675Y-114.085
X239.708Y-133.02
X250.725Y-75.985
X250.725Y-95.035
X250.725Y-114.085
X250.725Y-133.135
X258.726Y-75.985
X258.726Y-95.035
X258.726Y-114.085
X258.726Y-133.135
T6
X-23.85Y-62.725
X92.552Y-115.975
X92.552Y-118.475
X92.552Y-120.975
X107.052Y-115.975
X107.052Y-120.975
X109.882Y-120.045
X109.882Y-122.585
X109.882Y-125.125
X109.882Y-127.665
X109.882Y-130.205
X113.132Y-120.045
X113.132Y-122.585
X113.132Y-125.125
X113.132Y-127.665
X113.132Y-130.205
X116.359Y-120.02
X116.359Y-122.56
X116.359Y-125.1
X116.359Y-130.18
X122.64Y-120.015
X122.64Y-122.555
X122.64Y-125.095
X122.64Y-130.175
X125.867Y-120.045
X125.867Y-122.585
X125.867Y-125.125
X125.867Y-127.665
X125.867Y-130.205
X129.118Y-120.045
X129.118Y-122.585
X129.118Y-125.125
X129.118Y-127.665
X129.118Y-130.205
X131.95Y-115.975
X131.95Y-120.975
X146.45Y-115.975
X146.45Y-118.475
X146.45Y-120.975
X263.0Y-62.8
T7
X31.877Y-95.345
X50.927Y-76.295
X50.927Y-114.395
X69.977Y-95.345
X169.022Y-95.345
X188.072Y-76.295
X188.072Y-114.395
X207.123Y-95.345
T8
X-6.237Y-75.885
X-6.223Y-114.0
X70.522Y-111.435
X70.612Y-73.485
X88.042Y-51.093
X94.912Y-104.565
X96.462Y-134.505
X114.403Y-114.975
X124.597Y-114.975
X142.537Y-134.505
X144.088Y-104.565
X150.957Y-51.093
X168.387Y-73.485
X168.477Y-111.435
X245.222Y-114.0
X245.237Y-75.885
T6
X106.612Y-104.695G85X107.112Y-104.695
G05
X106.612Y-107.145G85X107.112Y-107.145
G05
X108.112Y-102.945G85X108.612Y-102.945
G05
X108.112Y-108.895G85X108.612Y-108.895
G05
X112.112Y-102.945G85X112.612Y-102.945
G05
X112.112Y-108.895G85X112.612Y-108.895
G05
X115.112Y-102.945G85X115.612Y-102.945
G05
X115.112Y-108.895G85X115.612Y-108.895
G05
X123.875Y-102.95G85X123.375Y-102.95
G05
X123.875Y-108.9G85X123.375Y-108.9
G05
X126.875Y-102.95G85X126.375Y-102.95
G05
X126.875Y-108.9G85X126.375Y-108.9
G05
X130.875Y-102.95G85X130.375Y-102.95
G05
X130.875Y-108.9G85X130.375Y-108.9
G05
X132.375Y-104.7G85X131.875Y-104.7
G05
X132.375Y-107.15G85X131.875Y-107.15
G05
M30
