%TF.GenerationSoftware,KiCad,Pcbnew,7.0.10*%
%TF.CreationDate,2024-03-01T16:33:51-05:00*%
%TF.ProjectId,Sofle_Pico_Panel,536f666c-655f-4506-9963-6f5f50616e65,v3.5.4*%
%TF.SameCoordinates,Original*%
%TF.FileFunction,Paste,Top*%
%TF.FilePolarity,Positive*%
%FSLAX46Y46*%
G04 Gerber Fmt 4.6, Leading zero omitted, Abs format (unit mm)*
G04 Created by KiCad (PCBNEW 7.0.10) date 2024-03-01 16:33:51*
%MOMM*%
%LPD*%
G01*
G04 APERTURE LIST*
G04 Aperture macros list*
%AMRoundRect*
0 Rectangle with rounded corners*
0 $1 Rounding radius*
0 $2 $3 $4 $5 $6 $7 $8 $9 X,Y pos of 4 corners*
0 Add a 4 corners polygon primitive as box body*
4,1,4,$2,$3,$4,$5,$6,$7,$8,$9,$2,$3,0*
0 Add four circle primitives for the rounded corners*
1,1,$1+$1,$2,$3*
1,1,$1+$1,$4,$5*
1,1,$1+$1,$6,$7*
1,1,$1+$1,$8,$9*
0 Add four rect primitives between the rounded corners*
20,1,$1+$1,$2,$3,$4,$5,0*
20,1,$1+$1,$4,$5,$6,$7,0*
20,1,$1+$1,$6,$7,$8,$9,0*
20,1,$1+$1,$8,$9,$2,$3,0*%
%AMFreePoly0*
4,1,18,-1.250000,1.010000,-1.230970,1.105671,-1.176777,1.186777,-1.095671,1.240970,-1.000000,1.260000,1.000000,1.260000,1.095671,1.240970,1.176777,1.186777,1.230970,1.105671,1.250000,1.010000,1.250000,-0.635000,0.625000,-1.260000,-1.000000,-1.260000,-1.095671,-1.240970,-1.176777,-1.186777,-1.230970,-1.105671,-1.250000,-1.010000,-1.250000,1.010000,-1.250000,1.010000,$1*%
%AMFreePoly1*
4,1,17,-1.275000,1.265000,1.022000,1.265000,1.118819,1.245742,1.200898,1.190898,1.255742,1.108819,1.275000,1.012000,1.275000,-1.012000,1.255742,-1.108819,1.200898,-1.190898,1.118819,-1.245742,1.022000,-1.265000,-1.022000,-1.265000,-1.118819,-1.245742,-1.200898,-1.190898,-1.255742,-1.108819,-1.275000,-1.012000,-1.275000,1.265000,-1.275000,1.265000,$1*%
%AMFreePoly2*
4,1,18,-0.800000,0.287000,-0.790637,0.334070,-0.763974,0.373974,-0.724070,0.400637,-0.677000,0.410000,0.677000,0.410000,0.724070,0.400637,0.763974,0.373974,0.790637,0.334070,0.800000,0.287000,0.800000,-0.287000,0.790637,-0.334070,0.763974,-0.373974,0.724070,-0.400637,0.677000,-0.410000,-0.472000,-0.410000,-0.800000,-0.082000,-0.800000,0.287000,-0.800000,0.287000,$1*%
%AMFreePoly3*
4,1,17,-1.275000,1.008000,-1.255818,1.104436,-1.201191,1.186191,-1.119436,1.240818,-1.023000,1.260000,1.023000,1.260000,1.119436,1.240818,1.201191,1.186191,1.255818,1.104436,1.275000,1.008000,1.275000,-1.260000,-1.023000,-1.260000,-1.119436,-1.240818,-1.201191,-1.186191,-1.255818,-1.104436,-1.275000,-1.008000,-1.275000,1.008000,-1.275000,1.008000,$1*%
%AMFreePoly4*
4,1,18,-1.275000,0.630000,-0.645000,1.260000,1.023000,1.260000,1.119436,1.240818,1.201191,1.186191,1.255818,1.104436,1.275000,1.008000,1.275000,-1.008000,1.255818,-1.104436,1.201191,-1.186191,1.119436,-1.240818,1.023000,-1.260000,-1.023000,-1.260000,-1.119436,-1.240818,-1.201191,-1.186191,-1.255818,-1.104436,-1.275000,-1.008000,-1.275000,0.630000,-1.275000,0.630000,$1*%
G04 Aperture macros list end*
%ADD10RoundRect,0.300000X-0.450000X-0.300000X0.450000X-0.300000X0.450000X0.300000X-0.450000X0.300000X0*%
%ADD11RoundRect,0.300000X-0.400000X-0.300000X0.400000X-0.300000X0.400000X0.300000X-0.400000X0.300000X0*%
%ADD12RoundRect,0.300000X-0.264756X-0.471598X0.537150X-0.063006X0.264756X0.471598X-0.537150X0.063006X0*%
%ADD13RoundRect,0.300000X-0.220205X-0.448898X0.492600X-0.085706X0.220205X0.448898X-0.492600X0.085706X0*%
%ADD14FreePoly0,180.000000*%
%ADD15FreePoly1,180.000000*%
%ADD16FreePoly0,117.000000*%
%ADD17FreePoly1,117.000000*%
%ADD18FreePoly0,195.000000*%
%ADD19FreePoly1,195.000000*%
%ADD20RoundRect,0.300000X-0.357021X-0.406246X0.512312X-0.173309X0.357021X0.406246X-0.512312X0.173309X0*%
%ADD21RoundRect,0.300000X-0.308725X-0.393305X0.464016X-0.186250X0.308725X0.393305X-0.464016X0.186250X0*%
%ADD22FreePoly2,180.000000*%
%ADD23RoundRect,0.123000X-0.677000X-0.287000X0.677000X-0.287000X0.677000X0.287000X-0.677000X0.287000X0*%
%ADD24RoundRect,0.123000X0.677000X0.287000X-0.677000X0.287000X-0.677000X-0.287000X0.677000X-0.287000X0*%
%ADD25RoundRect,0.123000X0.727000X0.287000X-0.727000X0.287000X-0.727000X-0.287000X0.727000X-0.287000X0*%
%ADD26FreePoly2,0.000000*%
%ADD27RoundRect,0.123000X-0.727000X-0.287000X0.727000X-0.287000X0.727000X0.287000X-0.727000X0.287000X0*%
%ADD28RoundRect,0.300000X0.450000X0.300000X-0.450000X0.300000X-0.450000X-0.300000X0.450000X-0.300000X0*%
%ADD29RoundRect,0.300000X0.400000X0.300000X-0.400000X0.300000X-0.400000X-0.300000X0.400000X-0.300000X0*%
%ADD30FreePoly2,15.000000*%
%ADD31RoundRect,0.123000X0.579651X0.452441X-0.728213X0.102000X-0.579651X-0.452441X0.728213X-0.102000X0*%
%ADD32RoundRect,0.123000X-0.579651X-0.452441X0.728213X-0.102000X0.579651X0.452441X-0.728213X0.102000X0*%
%ADD33RoundRect,0.123000X-0.627947X-0.465382X0.776509X-0.089059X0.627947X0.465382X-0.776509X0.089059X0*%
%ADD34FreePoly2,297.000000*%
%ADD35RoundRect,0.123000X0.563070X-0.472916X-0.051633X0.733507X-0.563070X0.472916X0.051633X-0.733507X0*%
%ADD36RoundRect,0.123000X-0.563070X0.472916X0.051633X-0.733507X0.563070X-0.472916X-0.051633X0.733507X0*%
%ADD37RoundRect,0.123000X-0.585770X0.517466X0.074332X-0.778057X0.585770X-0.517466X-0.074332X0.778057X0*%
%ADD38RoundRect,0.300000X0.300000X-0.450000X0.300000X0.450000X-0.300000X0.450000X-0.300000X-0.450000X0*%
%ADD39RoundRect,0.300000X0.300000X-0.400000X0.300000X0.400000X-0.300000X0.400000X-0.300000X-0.400000X0*%
%ADD40RoundRect,0.250000X-0.475000X0.337500X-0.475000X-0.337500X0.475000X-0.337500X0.475000X0.337500X0*%
%ADD41R,1.500000X0.400000*%
%ADD42FreePoly2,165.000000*%
%ADD43RoundRect,0.123000X-0.728213X-0.102000X0.579651X-0.452441X0.728213X0.102000X-0.579651X0.452441X0*%
%ADD44RoundRect,0.123000X0.728213X0.102000X-0.579651X0.452441X-0.728213X-0.102000X0.579651X-0.452441X0*%
%ADD45RoundRect,0.123000X0.776509X0.089059X-0.627947X0.465382X-0.776509X-0.089059X0.627947X-0.465382X0*%
%ADD46FreePoly2,243.000000*%
%ADD47RoundRect,0.123000X-0.051633X-0.733507X0.563070X0.472916X0.051633X0.733507X-0.563070X-0.472916X0*%
%ADD48RoundRect,0.123000X0.051633X0.733507X-0.563070X-0.472916X-0.051633X-0.733507X0.563070X0.472916X0*%
%ADD49RoundRect,0.123000X0.074332X0.778057X-0.585770X-0.517466X-0.074332X-0.778057X0.585770X0.517466X0*%
%ADD50RoundRect,0.250000X0.337500X0.475000X-0.337500X0.475000X-0.337500X-0.475000X0.337500X-0.475000X0*%
%ADD51RoundRect,0.250000X0.475000X-0.337500X0.475000X0.337500X-0.475000X0.337500X-0.475000X-0.337500X0*%
%ADD52RoundRect,0.300000X0.537150X0.063006X-0.264756X0.471598X-0.537150X-0.063006X0.264756X-0.471598X0*%
%ADD53RoundRect,0.300000X0.492600X0.085706X-0.220205X0.448898X-0.492600X-0.085706X0.220205X-0.448898X0*%
%ADD54RoundRect,0.150000X0.150000X-0.587500X0.150000X0.587500X-0.150000X0.587500X-0.150000X-0.587500X0*%
%ADD55RoundRect,0.150000X-0.587500X-0.150000X0.587500X-0.150000X0.587500X0.150000X-0.587500X0.150000X0*%
%ADD56RoundRect,0.300000X0.512312X0.173309X-0.357021X0.406246X-0.512312X-0.173309X0.357021X-0.406246X0*%
%ADD57RoundRect,0.300000X0.464016X0.186250X-0.308725X0.393305X-0.464016X-0.186250X0.308725X-0.393305X0*%
%ADD58RoundRect,0.250000X-0.337500X-0.475000X0.337500X-0.475000X0.337500X0.475000X-0.337500X0.475000X0*%
%ADD59FreePoly3,-0.000000*%
%ADD60FreePoly4,-0.000000*%
%ADD61FreePoly3,63.000000*%
%ADD62FreePoly4,63.000000*%
%ADD63FreePoly3,345.000000*%
%ADD64FreePoly4,345.000000*%
G04 APERTURE END LIST*
D10*
X157647500Y-73538135D03*
D11*
X161497500Y-73538135D03*
D10*
X176920000Y-70996885D03*
D11*
X180770000Y-70996885D03*
D10*
X195625500Y-68620135D03*
D11*
X199475500Y-68620135D03*
D10*
X214675500Y-71085135D03*
D11*
X218525500Y-71085135D03*
D10*
X233725500Y-75985135D03*
D11*
X237575500Y-75985135D03*
D10*
X252775500Y-75985135D03*
D11*
X256625500Y-75985135D03*
D10*
X157647500Y-111638135D03*
D11*
X161497500Y-111638135D03*
D10*
X157647500Y-130688135D03*
D11*
X161497500Y-130688135D03*
D10*
X136997500Y-127015135D03*
D11*
X140847500Y-127015135D03*
D12*
X141310037Y-155310416D03*
D13*
X144740412Y-153562553D03*
D14*
X165339500Y-69045135D03*
D15*
X152412500Y-66530135D03*
D14*
X203439500Y-64045135D03*
D15*
X190512500Y-61530135D03*
D14*
X165339500Y-107145135D03*
D15*
X152412500Y-104630135D03*
D14*
X184389500Y-104645135D03*
D15*
X171462500Y-102130135D03*
D14*
X203439500Y-121195135D03*
D15*
X190512500Y-118680135D03*
D14*
X241539500Y-128595135D03*
D15*
X228612500Y-126080135D03*
D16*
X133878055Y-155322936D03*
D17*
X130250202Y-142663109D03*
D18*
X163502651Y-145760358D03*
D19*
X150365198Y-146676808D03*
D14*
X260589500Y-90495135D03*
D15*
X247662500Y-87980135D03*
D14*
X260589500Y-109545135D03*
D15*
X247662500Y-107030135D03*
D14*
X260589500Y-128595135D03*
D15*
X247662500Y-126080135D03*
D14*
X222489500Y-66545135D03*
D15*
X209562500Y-64030135D03*
D10*
X157647500Y-92638135D03*
D11*
X161497500Y-92638135D03*
D10*
X176920000Y-90046885D03*
D11*
X180770000Y-90046885D03*
D10*
X195625500Y-87635135D03*
D11*
X199475500Y-87635135D03*
D10*
X214675500Y-90135135D03*
D11*
X218525500Y-90135135D03*
D10*
X233725500Y-95035135D03*
D11*
X237575500Y-95035135D03*
D10*
X252775500Y-95035135D03*
D11*
X256625500Y-95035135D03*
D14*
X241539500Y-71445135D03*
D15*
X228612500Y-68930135D03*
D14*
X184389500Y-85595135D03*
D15*
X171462500Y-83080135D03*
D14*
X222489500Y-85595135D03*
D15*
X209562500Y-83080135D03*
D14*
X203439500Y-83095135D03*
D15*
X190512500Y-80580135D03*
D14*
X222489500Y-104645135D03*
D15*
X209562500Y-102130135D03*
D14*
X260589500Y-71445135D03*
D15*
X247662500Y-68930135D03*
D14*
X222489500Y-142745135D03*
D15*
X209562500Y-140230135D03*
D14*
X241539500Y-90495135D03*
D15*
X228612500Y-87980135D03*
D14*
X222489500Y-123695135D03*
D15*
X209562500Y-121180135D03*
D14*
X241539500Y-109545135D03*
D15*
X228612500Y-107030135D03*
D14*
X203439500Y-140245135D03*
D15*
X190512500Y-137730135D03*
D14*
X203439500Y-102145135D03*
D15*
X190512500Y-99630135D03*
D14*
X184389500Y-66545135D03*
D15*
X171462500Y-64030135D03*
D20*
X157366445Y-152379697D03*
D21*
X161085259Y-151383244D03*
D14*
X184389500Y-123695135D03*
D15*
X171462500Y-121180135D03*
D10*
X195625500Y-106685135D03*
D11*
X199475500Y-106685135D03*
D10*
X233725500Y-114085135D03*
D11*
X237575500Y-114085135D03*
D10*
X252775500Y-114085135D03*
D11*
X256625500Y-114085135D03*
D10*
X176920000Y-147196885D03*
D11*
X180770000Y-147196885D03*
D10*
X195625500Y-144785135D03*
D11*
X199475500Y-144785135D03*
D10*
X252775500Y-133135135D03*
D11*
X256625500Y-133135135D03*
D10*
X176920000Y-128146885D03*
D11*
X180770000Y-128146885D03*
D10*
X195625500Y-125735135D03*
D11*
X199475500Y-125735135D03*
D10*
X214675500Y-128235135D03*
D11*
X218525500Y-128235135D03*
D10*
X233758000Y-133020135D03*
D11*
X237608000Y-133020135D03*
D10*
X176920000Y-109096885D03*
D11*
X180770000Y-109096885D03*
D10*
X214675500Y-147285135D03*
D11*
X218525500Y-147285135D03*
D14*
X184389500Y-142745135D03*
D15*
X171462500Y-140230135D03*
D22*
X-12932506Y-117905135D03*
D23*
X-12932506Y-119405135D03*
D24*
X-18532506Y-119405135D03*
D25*
X-18532506Y-117905135D03*
D26*
X175732506Y-57355135D03*
D24*
X175732506Y-55855135D03*
D23*
X181332506Y-55855135D03*
D27*
X181332506Y-57355135D03*
D28*
X-13775500Y-95035135D03*
D29*
X-17625500Y-95035135D03*
D30*
X152762090Y-139124095D03*
D31*
X152373861Y-137675206D03*
D32*
X157783046Y-136225819D03*
D33*
X158171275Y-137674708D03*
D26*
X232882506Y-100355135D03*
D24*
X232882506Y-98855135D03*
D23*
X238482506Y-98855135D03*
D27*
X238482506Y-100355135D03*
D34*
X138136213Y-143437326D03*
D35*
X139472722Y-142756340D03*
D36*
X142015069Y-147745976D03*
D37*
X140678560Y-148426962D03*
D38*
X116415000Y-56300135D03*
D39*
X116415000Y-52450135D03*
D14*
X165339500Y-126195135D03*
D15*
X152412500Y-123680135D03*
D22*
X44217494Y-72405135D03*
D23*
X44217494Y-73905135D03*
D24*
X38617494Y-73905135D03*
D25*
X38617494Y-72405135D03*
D22*
X44217494Y-53355135D03*
D23*
X44217494Y-54855135D03*
D24*
X38617494Y-54855135D03*
D25*
X38617494Y-53355135D03*
D22*
X-12932506Y-60755135D03*
D23*
X-12932506Y-62255135D03*
D24*
X-18532506Y-62255135D03*
D25*
X-18532506Y-60755135D03*
D28*
X24324500Y-109185135D03*
D29*
X20474500Y-109185135D03*
D26*
X232882506Y-81305135D03*
D24*
X232882506Y-79805135D03*
D23*
X238482506Y-79805135D03*
D27*
X238482506Y-81305135D03*
D40*
X116427500Y-60175135D03*
X116427500Y-62250135D03*
D28*
X43374500Y-125735135D03*
D29*
X39524500Y-125735135D03*
D26*
X232882506Y-62255135D03*
D24*
X232882506Y-60755135D03*
D23*
X238482506Y-60755135D03*
D27*
X238482506Y-62255135D03*
D26*
X232882506Y-119405135D03*
D24*
X232882506Y-117905135D03*
D23*
X238482506Y-117905135D03*
D27*
X238482506Y-119405135D03*
D22*
X25167494Y-132055135D03*
D23*
X25167494Y-133555135D03*
D24*
X19567494Y-133555135D03*
D25*
X19567494Y-132055135D03*
D38*
X122585000Y-56300135D03*
D39*
X122585000Y-52450135D03*
D28*
X62080001Y-70996885D03*
D29*
X58230001Y-70996885D03*
D26*
X175732506Y-76405135D03*
D24*
X175732506Y-74905135D03*
D23*
X181332506Y-74905135D03*
D27*
X181332506Y-76405135D03*
D28*
X43374500Y-106685135D03*
D29*
X39524500Y-106685135D03*
D26*
X213832506Y-114505135D03*
D24*
X213832506Y-113005135D03*
D23*
X219432506Y-113005135D03*
D27*
X219432506Y-114505135D03*
D41*
X80455000Y-52598135D03*
X80455000Y-51948135D03*
X80455000Y-51298135D03*
X77795000Y-51298135D03*
X77795000Y-52598135D03*
D22*
X25167494Y-93955135D03*
D23*
X25167494Y-95455135D03*
D24*
X19567494Y-95455135D03*
D25*
X19567494Y-93955135D03*
D26*
X194782506Y-112005135D03*
D24*
X194782506Y-110505135D03*
D23*
X200382506Y-110505135D03*
D27*
X200382506Y-112005135D03*
D22*
X-12932506Y-98855135D03*
D23*
X-12932506Y-100355135D03*
D24*
X-18532506Y-100355135D03*
D25*
X-18532506Y-98855135D03*
D40*
X122572500Y-60175135D03*
X122572500Y-62250135D03*
D22*
X25167494Y-74905135D03*
D23*
X25167494Y-76405135D03*
D24*
X19567494Y-76405135D03*
D25*
X19567494Y-74905135D03*
D28*
X62080000Y-109096885D03*
D29*
X58230000Y-109096885D03*
D26*
X251932506Y-100355135D03*
D24*
X251932506Y-98855135D03*
D23*
X257532506Y-98855135D03*
D27*
X257532506Y-100355135D03*
D10*
X214675500Y-109185135D03*
D11*
X218525500Y-109185135D03*
D22*
X25167494Y-113005135D03*
D23*
X25167494Y-114505135D03*
D24*
X19567494Y-114505135D03*
D25*
X19567494Y-113005135D03*
D28*
X-13775500Y-114085135D03*
D29*
X-17625500Y-114085135D03*
D22*
X63267494Y-132055135D03*
D23*
X63267494Y-133555135D03*
D24*
X57667494Y-133555135D03*
D25*
X57667494Y-132055135D03*
D26*
X156682506Y-97955135D03*
D24*
X156682506Y-96455135D03*
D23*
X162282506Y-96455135D03*
D27*
X162282506Y-97955135D03*
D22*
X82317494Y-96455134D03*
D23*
X82317494Y-97955134D03*
D24*
X76717494Y-97955134D03*
D25*
X76717494Y-96455134D03*
D22*
X6117494Y-98855135D03*
D23*
X6117494Y-100355135D03*
D24*
X517494Y-100355135D03*
D25*
X517494Y-98855135D03*
D26*
X213832506Y-76405135D03*
D24*
X213832506Y-74905135D03*
D23*
X219432506Y-74905135D03*
D27*
X219432506Y-76405135D03*
D22*
X6117494Y-117905135D03*
D23*
X6117494Y-119405135D03*
D24*
X517494Y-119405135D03*
D25*
X517494Y-117905135D03*
D28*
X43374500Y-144785135D03*
D29*
X39524500Y-144785135D03*
D28*
X62080000Y-147196885D03*
D29*
X58230000Y-147196885D03*
D26*
X175732506Y-114505135D03*
D24*
X175732506Y-113005135D03*
D23*
X181332506Y-113005135D03*
D27*
X181332506Y-114505135D03*
D26*
X251932506Y-62255135D03*
D24*
X251932506Y-60755135D03*
D23*
X257532506Y-60755135D03*
D27*
X257532506Y-62255135D03*
D42*
X86626139Y-137675206D03*
D43*
X86237910Y-139124095D03*
D44*
X80828725Y-137674708D03*
D45*
X81216954Y-136225819D03*
D22*
X44217494Y-91455135D03*
D23*
X44217494Y-92955135D03*
D24*
X38617494Y-92955135D03*
D25*
X38617494Y-91455135D03*
D28*
X5274500Y-95035135D03*
D29*
X1424500Y-95035135D03*
D28*
X43374500Y-68620135D03*
D29*
X39524500Y-68620135D03*
D46*
X99527278Y-142756340D03*
D47*
X100863787Y-143437326D03*
D48*
X98321440Y-148426962D03*
D49*
X96984931Y-147745976D03*
D28*
X24324500Y-71085135D03*
D29*
X20474500Y-71085135D03*
D26*
X156682506Y-59855135D03*
D24*
X156682506Y-58355135D03*
D23*
X162282506Y-58355135D03*
D27*
X162282506Y-59855135D03*
D22*
X63267494Y-74905135D03*
D23*
X63267494Y-76405135D03*
D24*
X57667494Y-76405135D03*
D25*
X57667494Y-74905135D03*
D26*
X194782506Y-54855135D03*
D24*
X194782506Y-53355135D03*
D23*
X200382506Y-53355135D03*
D27*
X200382506Y-54855135D03*
D41*
X158945000Y-50550000D03*
X158945000Y-51200000D03*
X158945000Y-51850000D03*
X161605000Y-51850000D03*
X161605000Y-50550000D03*
D22*
X82317494Y-58355135D03*
D23*
X82317494Y-59855135D03*
D24*
X76717494Y-59855135D03*
D25*
X76717494Y-58355135D03*
D26*
X194782506Y-131055135D03*
D24*
X194782506Y-129555135D03*
D23*
X200382506Y-129555135D03*
D27*
X200382506Y-131055135D03*
D28*
X81352500Y-92638135D03*
D29*
X77502500Y-92638135D03*
D50*
X136737500Y-108675000D03*
X134662500Y-108675000D03*
D28*
X-13775500Y-133135135D03*
D29*
X-17625500Y-133135135D03*
D26*
X194782506Y-73905135D03*
D24*
X194782506Y-72405135D03*
D23*
X200382506Y-72405135D03*
D27*
X200382506Y-73905135D03*
D28*
X24324500Y-128235135D03*
D29*
X20474500Y-128235135D03*
D28*
X81352500Y-73538135D03*
D29*
X77502500Y-73538135D03*
D51*
X75251500Y-52600134D03*
X75251500Y-50525134D03*
D22*
X63267494Y-113005136D03*
D23*
X63267494Y-114505136D03*
D24*
X57667494Y-114505136D03*
D25*
X57667494Y-113005136D03*
D40*
X163747500Y-50525135D03*
X163747500Y-52600135D03*
D14*
X165339500Y-88095135D03*
D15*
X152412500Y-85580135D03*
D22*
X25167495Y-55855135D03*
D23*
X25167495Y-57355135D03*
D24*
X19567495Y-57355135D03*
D25*
X19567495Y-55855135D03*
D26*
X175732506Y-133555135D03*
D24*
X175732506Y-132055135D03*
D23*
X181332506Y-132055135D03*
D27*
X181332506Y-133555135D03*
D28*
X62080000Y-128146885D03*
D29*
X58230000Y-128146885D03*
D22*
X44217494Y-129555135D03*
D23*
X44217494Y-131055135D03*
D24*
X38617494Y-131055135D03*
D25*
X38617494Y-129555135D03*
D28*
X24324501Y-147285135D03*
D29*
X20474501Y-147285135D03*
D26*
X156682506Y-78905135D03*
D24*
X156682506Y-77405135D03*
D23*
X162282506Y-77405135D03*
D27*
X162282506Y-78905135D03*
D26*
X213832506Y-57355135D03*
D24*
X213832506Y-55855135D03*
D23*
X219432506Y-55855135D03*
D27*
X219432506Y-57355135D03*
D26*
X156682506Y-117005135D03*
D24*
X156682506Y-115505135D03*
D23*
X162282506Y-115505135D03*
D27*
X162282506Y-117005135D03*
D28*
X43374500Y-87635135D03*
D29*
X39524500Y-87635135D03*
D22*
X82317495Y-115505135D03*
D23*
X82317495Y-117005135D03*
D24*
X76717495Y-117005135D03*
D25*
X76717495Y-115505135D03*
D26*
X213832506Y-95455135D03*
D24*
X213832506Y-93955135D03*
D23*
X219432506Y-93955135D03*
D27*
X219432506Y-95455135D03*
D28*
X5274500Y-114085135D03*
D29*
X1424500Y-114085135D03*
D26*
X175732506Y-95455135D03*
D24*
X175732506Y-93955135D03*
D23*
X181332506Y-93955135D03*
D27*
X181332506Y-95455135D03*
D22*
X-12932506Y-79805135D03*
D23*
X-12932506Y-81305135D03*
D24*
X-18532506Y-81305135D03*
D25*
X-18532506Y-79805135D03*
D26*
X194782506Y-92955135D03*
D24*
X194782506Y-91455135D03*
D23*
X200382506Y-91455135D03*
D27*
X200382506Y-92955135D03*
D22*
X63267494Y-93955134D03*
D23*
X63267494Y-95455134D03*
D24*
X57667494Y-95455134D03*
D25*
X57667494Y-93955134D03*
D52*
X97689963Y-155310416D03*
D53*
X94259588Y-153562553D03*
D26*
X251932506Y-81305135D03*
D24*
X251932506Y-79805135D03*
D23*
X257532506Y-79805135D03*
D27*
X257532506Y-81305135D03*
D28*
X5242000Y-133020135D03*
D29*
X1392000Y-133020135D03*
D22*
X44217494Y-110505135D03*
D23*
X44217494Y-112005135D03*
D24*
X38617494Y-112005135D03*
D25*
X38617494Y-110505135D03*
D28*
X62080000Y-90046885D03*
D29*
X58230000Y-90046885D03*
D22*
X63267494Y-55855135D03*
D23*
X63267494Y-57355135D03*
D24*
X57667494Y-57355135D03*
D25*
X57667494Y-55855135D03*
D28*
X5274500Y-75985135D03*
D29*
X1424500Y-75985135D03*
D54*
X134600000Y-105437500D03*
X136500000Y-105437500D03*
X135550000Y-103562500D03*
D28*
X81352501Y-111638135D03*
D29*
X77502501Y-111638135D03*
D28*
X102002501Y-127015135D03*
D29*
X98152501Y-127015135D03*
D28*
X24324500Y-90135135D03*
D29*
X20474500Y-90135135D03*
D28*
X-13775500Y-75985135D03*
D29*
X-17625500Y-75985135D03*
D55*
X102387500Y-102975000D03*
X102387500Y-104875000D03*
X104262500Y-103925000D03*
D22*
X6117494Y-79805135D03*
D23*
X6117494Y-81305135D03*
D24*
X517494Y-81305135D03*
D25*
X517494Y-79805135D03*
D26*
X251932506Y-119405135D03*
D24*
X251932506Y-117905135D03*
D23*
X257532506Y-117905135D03*
D27*
X257532506Y-119405135D03*
D56*
X81630853Y-152382556D03*
D57*
X77912039Y-151386103D03*
D26*
X213832506Y-133555135D03*
D24*
X213832506Y-132055135D03*
D23*
X219432506Y-132055135D03*
D27*
X219432506Y-133555135D03*
D22*
X6117494Y-60755135D03*
D23*
X6117494Y-62255135D03*
D24*
X517494Y-62255135D03*
D25*
X517494Y-60755135D03*
D58*
X102262500Y-107575000D03*
X104337500Y-107575000D03*
D28*
X81352500Y-130688135D03*
D29*
X77502500Y-130688135D03*
D22*
X82317494Y-77405135D03*
D23*
X82317494Y-78905135D03*
D24*
X76717494Y-78905135D03*
D25*
X76717494Y-77405135D03*
D59*
X72417500Y-104625135D03*
D60*
X85344500Y-107145135D03*
D59*
X72417500Y-66525135D03*
D60*
X85344500Y-69045135D03*
D59*
X-22832501Y-87975135D03*
D60*
X-9905501Y-90495135D03*
D59*
X-3782500Y-68925135D03*
D60*
X9144500Y-71445135D03*
D59*
X15267500Y-121175135D03*
D60*
X28194500Y-123695135D03*
D59*
X-3782499Y-87975135D03*
D60*
X9144501Y-90495135D03*
D59*
X34317500Y-80575135D03*
D60*
X47244500Y-83095135D03*
D59*
X72417500Y-85575135D03*
D60*
X85344500Y-88095135D03*
D59*
X-22832500Y-68925135D03*
D60*
X-9905500Y-71445135D03*
D59*
X-3782500Y-107025135D03*
D60*
X9144500Y-109545135D03*
D59*
X34317500Y-118675135D03*
D60*
X47244500Y-121195135D03*
D59*
X53367500Y-83075135D03*
D60*
X66294500Y-85595135D03*
D59*
X15267500Y-102125135D03*
D60*
X28194500Y-104645135D03*
D61*
X102312298Y-155286401D03*
D62*
X110426370Y-144912416D03*
D59*
X-22832500Y-126075135D03*
D60*
X-9905500Y-128595135D03*
D59*
X15267500Y-83075135D03*
D60*
X28194500Y-85595135D03*
D59*
X34317500Y-99625135D03*
D60*
X47244500Y-102145135D03*
D59*
X34317500Y-137725134D03*
D60*
X47244500Y-140245134D03*
D59*
X53367500Y-64025136D03*
D60*
X66294500Y-66545136D03*
D59*
X15267500Y-140225135D03*
D60*
X28194500Y-142745135D03*
D59*
X15267500Y-64025135D03*
D60*
X28194500Y-66545135D03*
D59*
X53367500Y-140225135D03*
D60*
X66294500Y-142745135D03*
D59*
X53367500Y-121175135D03*
D60*
X66294500Y-123695135D03*
D59*
X72417500Y-123675135D03*
D60*
X85344500Y-126195135D03*
D59*
X-22832500Y-107025135D03*
D60*
X-9905500Y-109545135D03*
D59*
X34317500Y-61525136D03*
D60*
X47244500Y-64045136D03*
D59*
X-3782500Y-126075135D03*
D60*
X9144500Y-128595135D03*
D59*
X53367500Y-102125135D03*
D60*
X66294500Y-104645135D03*
D63*
X74948927Y-143004513D03*
D64*
X86783226Y-148784400D03*
M02*
