<?xml version="1.0" standalone="no"?>
 <!DOCTYPE svg PUBLIC "-//W3C//DTD SVG 1.1//EN" 
 "http://www.w3.org/Graphics/SVG/1.1/DTD/svg11.dtd"> 
<svg
  xmlns:svg="http://www.w3.org/2000/svg"
  xmlns="http://www.w3.org/2000/svg"
  xmlns:xlink="http://www.w3.org/1999/xlink"
  version="1.1"
  width="148.3868mm" height="117.3226mm" viewBox="0.0000 0.0000 148.3868 117.3226">
<title>SVG Image created as Sofle_Chico-brd.svg date 2024/03/04 13:28:41 </title>
  <desc>Image generated by PCBNEW </desc>
<g style="fill:#000000; fill-opacity:1.0000;stroke:#000000; stroke-opacity:1.0000;
stroke-linecap:round; stroke-linejoin:round;"
 transform="translate(0 0) scale(1 1)">
</g>
<g style="fill:#000000; fill-opacity:0.0; 
stroke:#000000; stroke-width:0.0000; stroke-opacity:1; 
stroke-linecap:round; stroke-linejoin:round;">
</g>
<g style="fill:#000000; fill-opacity:0.0; 
stroke:#000000; stroke-width:0.1500; stroke-opacity:1; 
stroke-linecap:round; stroke-linejoin:round;">
<path d="M70.1356 100.8808
L108.2356 100.8808
" />
</g>
<g style="fill:#000000; fill-opacity:0.0; 
stroke:#000000; stroke-width:0.1000; stroke-opacity:1; 
stroke-linecap:round; stroke-linejoin:round;">
<path d="M2.4140 63.6030
L2.4140 93.6859
" />
<path d="M15.1107 62.6059
L15.1107 54.5888
" />
<path d="M13.3885 115.6105 A1.4999 1.4999 0.0 0 0 15.1209 116.3763" />
<path d="M30.0236 13.0759 A1.0000 1.0000 0.0 0 0 31.0236 14.0759" />
<path d="M16.1107 53.5888 A1.0000 1.0000 0.0 0 0 15.1107 54.5888" />
<path d="M31.0236 0.1308 A1.0001 1.0001 0.0 0 0 30.0236 1.1308" />
<path d="M31.8107 54.2191
L31.8107 14.0759
" />
<path d="M27.8107 53.5859
L21.0857 53.5809
" />
</g>
<g style="fill:#000000; fill-opacity:0.0; 
stroke:#000000; stroke-width:0.1500; stroke-opacity:1; 
stroke-linecap:round; stroke-linejoin:round;">
<path d="M89.1856 0.1308
L146.4994 7.5298
" />
<path d="M108.2356 100.8808
L146.9299 86.6080
" />
</g>
<g style="fill:#000000; fill-opacity:0.0; 
stroke:#000000; stroke-width:0.1000; stroke-opacity:1; 
stroke-linecap:round; stroke-linejoin:round;">
<path d="M31.8107 54.2191
L28.6715 54.2191
" />
</g>
<g style="fill:#000000; fill-opacity:0.0; 
stroke:#000000; stroke-width:0.1500; stroke-opacity:1; 
stroke-linecap:round; stroke-linejoin:round;">
<path d="M147.8356 9.0308 A1.5110 1.5110 0.0 0 0 146.4994 7.5298" />
<path d="M147.8356 9.0308
L147.8356 85.2308
" />
</g>
<g style="fill:#000000; fill-opacity:0.0; 
stroke:#000000; stroke-width:0.1000; stroke-opacity:1; 
stroke-linecap:round; stroke-linejoin:round;">
<path d="M2.5775 94.3936
L13.3885 115.6105
" />
<path d="M3.4140 62.6030
L15.1107 62.6059
" />
<path d="M28.6715 54.2191 A3.5480 3.5480 0.0 0 0 27.8107 53.5859" />
<path d="M31.0236 14.0759
L31.8107 14.0759
" />
<path d="M27.8107 53.5888
L16.1107 53.5888
" />
<path d="M89.1856 0.1308
L31.0236 0.1308
" />
<path d="M2.4140 93.6859 A1.5021 1.5021 0.0 0 0 2.5775 94.3936" />
<path d="M15.1209 116.3763
L70.1356 100.8808
" />
<path d="M30.0236 1.1308
L30.0236 13.0759
" />
</g>
<g style="fill:#000000; fill-opacity:0.0; 
stroke:#000000; stroke-width:0.1500; stroke-opacity:1; 
stroke-linecap:round; stroke-linejoin:round;">
<path d="M146.9299 86.6080 A1.4996 1.4996 0.0 0 0 147.8356 85.2308" />
</g>
<g style="fill:#000000; fill-opacity:0.0; 
stroke:#000000; stroke-width:0.1000; stroke-opacity:1; 
stroke-linecap:round; stroke-linejoin:round;">
<path d="M3.4140 62.6030 A1.0000 1.0000 0.0 0 0 2.4140 63.6030" />
<circle cx="33.0207" cy="3.2734" r="2.0500" /> 
<circle cx="127.3007" cy="28.0659" r="1.1000" /> 
<circle cx="50.4507" cy="25.6659" r="1.1000" /> 
<circle cx="50.5407" cy="63.6159" r="1.1000" /> 
</g>
<g style="fill:#000000; fill-opacity:0.0; 
stroke:#000000; stroke-width:0.1200; stroke-opacity:1; 
stroke-linecap:round; stroke-linejoin:round;">
<circle cx="51.0857" cy="47.5259" r="1.7500" /> 
<circle cx="70.1358" cy="28.4759" r="1.7500" /> 
<circle cx="70.1358" cy="66.5759" r="1.7500" /> 
<circle cx="89.1857" cy="47.5259" r="1.7500" /> 
</g>
<g style="fill:#000000; fill-opacity:0.0; 
stroke:#000000; stroke-width:0.1000; stroke-opacity:1; 
stroke-linecap:round; stroke-linejoin:round;">
<circle cx="24.6007" cy="86.6859" r="1.1000" /> 
<circle cx="26.1507" cy="56.7459" r="2.0500" /> 
</g>
<g style="fill:#000000; fill-opacity:0.0; 
stroke:#000000; stroke-width:0.1200; stroke-opacity:1; 
stroke-linecap:round; stroke-linejoin:round;">
<path d="M29.0107 77.1559
L13.4108 77.1559
" />
<path d="M13.4108 77.1559
L13.4108 64.1559
" />
<path d="M13.4108 64.1559
L29.0107 64.1559
" />
<path d="M29.0107 64.1559
L29.0107 77.1559
" />
</g>
<g style="fill:#000000; fill-opacity:0.0; 
stroke:#000000; stroke-width:0.1000; stroke-opacity:1; 
stroke-linecap:round; stroke-linejoin:round;">
<circle cx="127.2857" cy="66.1809" r="1.1000" /> 
<circle cx="6.6598" cy="67.1559" r="2.0500" /> 
<path d="M41.3607 16.1559
L41.7608 16.1559
" />
<path d="M41.5607 15.9559
L41.5607 16.3559
" />
<path d="M48.5607 23.1559
L34.5607 23.1559
" />
<path d="M34.5607 23.1559
L34.5607 9.1559
" />
<path d="M34.5607 9.1559
L48.5607 9.1559
" />
<path d="M48.5607 9.1559
L48.5607 23.1559
" />
<path style="fill:#000000; fill-opacity:0.0; 
stroke:#000000; stroke-width:0.1000; stroke-opacity:1; 
stroke-linecap:round; stroke-linejoin:round;fill:none"
d="M 35.0607,22.1559
34.0607,22.1559
34.0607,10.1557
35.0607,10.1557
Z" /> 
<path style="fill:#000000; fill-opacity:0.0; 
stroke:#000000; stroke-width:0.1000; stroke-opacity:1; 
stroke-linecap:round; stroke-linejoin:round;fill:none"
d="M 49.0607,22.1559
48.0607,22.1559
48.0607,10.1557
49.0607,10.1557
Z" /> 
<path d="M79.4607 11.1559
L79.8607 11.1559
" />
<path d="M79.6607 10.9559
L79.6607 11.3559
" />
<path d="M86.6607 18.1559
L72.6607 18.1559
" />
<path d="M72.6607 18.1559
L72.6607 4.1559
" />
<path d="M72.6607 4.1559
L86.6607 4.1559
" />
<path d="M86.6607 4.1559
L86.6607 18.1559
" />
<path style="fill:#000000; fill-opacity:0.0; 
stroke:#000000; stroke-width:0.1000; stroke-opacity:1; 
stroke-linecap:round; stroke-linejoin:round;fill:none"
d="M 73.1607,17.1559
72.1607,17.1559
72.1607,5.1557
73.1607,5.1557
Z" /> 
<path style="fill:#000000; fill-opacity:0.0; 
stroke:#000000; stroke-width:0.1000; stroke-opacity:1; 
stroke-linecap:round; stroke-linejoin:round;fill:none"
d="M 87.1607,17.1559
86.1607,17.1559
86.1607,5.1557
87.1607,5.1557
Z" /> 
<path d="M41.3607 54.2559
L41.7608 54.2559
" />
<path d="M41.5607 54.0559
L41.5607 54.4559
" />
<path d="M48.5607 61.2559
L34.5607 61.2559
" />
<path d="M34.5607 61.2559
L34.5607 47.2559
" />
<path d="M34.5607 47.2559
L48.5607 47.2559
" />
<path d="M48.5607 47.2559
L48.5607 61.2559
" />
<path style="fill:#000000; fill-opacity:0.0; 
stroke:#000000; stroke-width:0.1000; stroke-opacity:1; 
stroke-linecap:round; stroke-linejoin:round;fill:none"
d="M 35.0607,60.2559
34.0607,60.2559
34.0607,48.2557
35.0607,48.2557
Z" /> 
<path style="fill:#000000; fill-opacity:0.0; 
stroke:#000000; stroke-width:0.1000; stroke-opacity:1; 
stroke-linecap:round; stroke-linejoin:round;fill:none"
d="M 49.0607,60.2559
48.0607,60.2559
48.0607,48.2557
49.0607,48.2557
Z" /> 
<path d="M60.4108 51.7559
L60.8107 51.7559
" />
<path d="M60.6107 51.5559
L60.6107 51.9559
" />
<path d="M67.6107 58.7559
L53.6107 58.7559
" />
<path d="M53.6107 58.7559
L53.6107 44.7559
" />
<path d="M53.6107 44.7559
L67.6107 44.7559
" />
<path d="M67.6107 44.7559
L67.6107 58.7559
" />
<path style="fill:#000000; fill-opacity:0.0; 
stroke:#000000; stroke-width:0.1000; stroke-opacity:1; 
stroke-linecap:round; stroke-linejoin:round;fill:none"
d="M 54.1107,57.7559
53.1107,57.7559
53.1107,45.7557
54.1107,45.7557
Z" /> 
<path style="fill:#000000; fill-opacity:0.0; 
stroke:#000000; stroke-width:0.1000; stroke-opacity:1; 
stroke-linecap:round; stroke-linejoin:round;fill:none"
d="M 68.1107,57.7559
67.1107,57.7559
67.1107,45.7557
68.1107,45.7557
Z" /> 
<path d="M79.4607 68.3059
L79.8607 68.3059
" />
<path d="M79.6607 68.1059
L79.6607 68.5059
" />
<path d="M86.6607 75.3059
L72.6607 75.3059
" />
<path d="M72.6607 75.3059
L72.6607 61.3059
" />
<path d="M72.6607 61.3059
L86.6607 61.3059
" />
<path d="M86.6607 61.3059
L86.6607 75.3059
" />
<path style="fill:#000000; fill-opacity:0.0; 
stroke:#000000; stroke-width:0.1000; stroke-opacity:1; 
stroke-linecap:round; stroke-linejoin:round;fill:none"
d="M 73.1607,74.3059
72.1607,74.3059
72.1607,62.3057
73.1607,62.3057
Z" /> 
<path style="fill:#000000; fill-opacity:0.0; 
stroke:#000000; stroke-width:0.1000; stroke-opacity:1; 
stroke-linecap:round; stroke-linejoin:round;fill:none"
d="M 87.1607,74.3059
86.1607,74.3059
86.1607,62.3057
87.1607,62.3057
Z" /> 
<path d="M117.5607 75.7059
L117.9607 75.7059
" />
<path d="M117.7608 75.5059
L117.7608 75.9059
" />
<path d="M124.7607 82.7059
L110.7608 82.7059
" />
<path d="M110.7608 82.7059
L110.7608 68.7059
" />
<path d="M110.7608 68.7059
L124.7607 68.7059
" />
<path d="M124.7607 68.7059
L124.7607 82.7059
" />
<path style="fill:#000000; fill-opacity:0.0; 
stroke:#000000; stroke-width:0.1000; stroke-opacity:1; 
stroke-linecap:round; stroke-linejoin:round;fill:none"
d="M 111.2608,81.7059
110.2608,81.7059
110.2608,69.7057
111.2608,69.7057
Z" /> 
<path style="fill:#000000; fill-opacity:0.0; 
stroke:#000000; stroke-width:0.1000; stroke-opacity:1; 
stroke-linecap:round; stroke-linejoin:round;fill:none"
d="M 125.2607,81.7059
124.2607,81.7059
124.2607,69.7057
125.2607,69.7057
Z" /> 
<path d="M17.7157 99.8185
L17.8973 100.1749
" />
<path d="M17.9847 99.9059
L17.6283 100.0875
" />
<path d="M14.7474 109.4117
L8.3915 96.9376
" />
<path d="M8.3915 96.9376
L20.8656 90.5817
" />
<path d="M20.8656 90.5817
L27.2215 103.0558
" />
<path d="M27.2215 103.0558
L14.7474 109.4117
" />
<path style="fill:#000000; fill-opacity:0.0; 
stroke:#000000; stroke-width:0.1000; stroke-opacity:1; 
stroke-linecap:round; stroke-linejoin:round;fill:none"
d="M 20.2018,91.4811
9.5095,96.9291
9.0555,96.0381
19.7478,90.5901
Z" /> 
<path style="fill:#000000; fill-opacity:0.0; 
stroke:#000000; stroke-width:0.1000; stroke-opacity:1; 
stroke-linecap:round; stroke-linejoin:round;fill:none"
d="M 26.5577,103.9552
15.8654,109.4032
15.4114,108.5122
26.1037,103.0642
Z" /> 
<path d="M38.4176 94.6077
L38.8039 94.5041
" />
<path d="M38.5590 94.3627
L38.6625 94.7491
" />
<path d="M47.1840 99.5056
L33.6610 103.1291
" />
<path d="M33.6610 103.1291
L30.0375 89.6062
" />
<path d="M30.0375 89.6062
L43.5605 85.9827
" />
<path d="M43.5605 85.9827
L47.1840 99.5056
" />
<path style="fill:#000000; fill-opacity:0.0; 
stroke:#000000; stroke-width:0.1000; stroke-opacity:1; 
stroke-linecap:round; stroke-linejoin:round;fill:none"
d="M 33.8851,102.0338
32.9192,102.2926
29.8133,90.7013
30.7793,90.4425
Z" /> 
<path style="fill:#000000; fill-opacity:0.0; 
stroke:#000000; stroke-width:0.1000; stroke-opacity:1; 
stroke-linecap:round; stroke-linejoin:round;fill:none"
d="M 47.4081,98.4103
46.4422,98.6691
43.3363,87.0778
44.3022,86.8190
Z" /> 
<path d="M136.6107 37.6059
L137.0108 37.6059
" />
<path d="M136.8107 37.4059
L136.8107 37.8059
" />
<path d="M143.8107 44.6059
L129.8107 44.6059
" />
<path d="M129.8107 44.6059
L129.8107 30.6059
" />
<path d="M129.8107 30.6059
L143.8107 30.6059
" />
<path d="M143.8107 30.6059
L143.8107 44.6059
" />
<path style="fill:#000000; fill-opacity:0.0; 
stroke:#000000; stroke-width:0.1000; stroke-opacity:1; 
stroke-linecap:round; stroke-linejoin:round;fill:none"
d="M 130.3107,43.6059
129.3107,43.6059
129.3107,31.6057
130.3107,31.6057
Z" /> 
<path style="fill:#000000; fill-opacity:0.0; 
stroke:#000000; stroke-width:0.1000; stroke-opacity:1; 
stroke-linecap:round; stroke-linejoin:round;fill:none"
d="M 144.3107,43.6059
143.3107,43.6059
143.3107,31.6057
144.3107,31.6057
Z" /> 
<path d="M136.6107 56.6559
L137.0108 56.6559
" />
<path d="M136.8107 56.4559
L136.8107 56.8559
" />
<path d="M143.8107 63.6559
L129.8107 63.6559
" />
<path d="M129.8107 63.6559
L129.8107 49.6559
" />
<path d="M129.8107 49.6559
L143.8107 49.6559
" />
<path d="M143.8107 49.6559
L143.8107 63.6559
" />
<path style="fill:#000000; fill-opacity:0.0; 
stroke:#000000; stroke-width:0.1000; stroke-opacity:1; 
stroke-linecap:round; stroke-linejoin:round;fill:none"
d="M 130.3107,62.6559
129.3107,62.6559
129.3107,50.6557
130.3107,50.6557
Z" /> 
<path style="fill:#000000; fill-opacity:0.0; 
stroke:#000000; stroke-width:0.1000; stroke-opacity:1; 
stroke-linecap:round; stroke-linejoin:round;fill:none"
d="M 144.3107,62.6559
143.3107,62.6559
143.3107,50.6557
144.3107,50.6557
Z" /> 
<path d="M136.6107 75.7059
L137.0108 75.7059
" />
<path d="M136.8107 75.5059
L136.8107 75.9059
" />
<path d="M143.8107 82.7059
L129.8107 82.7059
" />
<path d="M129.8107 82.7059
L129.8107 68.7059
" />
<path d="M129.8107 68.7059
L143.8107 68.7059
" />
<path d="M143.8107 68.7059
L143.8107 82.7059
" />
<path style="fill:#000000; fill-opacity:0.0; 
stroke:#000000; stroke-width:0.1000; stroke-opacity:1; 
stroke-linecap:round; stroke-linejoin:round;fill:none"
d="M 130.3107,81.7059
129.3107,81.7059
129.3107,69.7057
130.3107,69.7057
Z" /> 
<path style="fill:#000000; fill-opacity:0.0; 
stroke:#000000; stroke-width:0.1000; stroke-opacity:1; 
stroke-linecap:round; stroke-linejoin:round;fill:none"
d="M 144.3107,81.7059
143.3107,81.7059
143.3107,69.7057
144.3107,69.7057
Z" /> 
<path d="M98.5108 13.6559
L98.9107 13.6559
" />
<path d="M98.7107 13.4559
L98.7107 13.8559
" />
<path d="M105.7107 20.6559
L91.7107 20.6559
" />
<path d="M91.7107 20.6559
L91.7107 6.6559
" />
<path d="M91.7107 6.6559
L105.7107 6.6559
" />
<path d="M105.7107 6.6559
L105.7107 20.6559
" />
<path style="fill:#000000; fill-opacity:0.0; 
stroke:#000000; stroke-width:0.1000; stroke-opacity:1; 
stroke-linecap:round; stroke-linejoin:round;fill:none"
d="M 92.2107,19.6559
91.2107,19.6559
91.2107,7.6557
92.2107,7.6557
Z" /> 
<path style="fill:#000000; fill-opacity:0.0; 
stroke:#000000; stroke-width:0.1000; stroke-opacity:1; 
stroke-linecap:round; stroke-linejoin:round;fill:none"
d="M 106.2107,19.6559
105.2107,19.6559
105.2107,7.6557
106.2107,7.6557
Z" /> 
<path d="M117.5607 18.5559
L117.9607 18.5559
" />
<path d="M117.7608 18.3559
L117.7608 18.7559
" />
<path d="M124.7607 25.5559
L110.7608 25.5559
" />
<path d="M110.7608 25.5559
L110.7608 11.5559
" />
<path d="M110.7608 11.5559
L124.7607 11.5559
" />
<path d="M124.7607 11.5559
L124.7607 25.5559
" />
<path style="fill:#000000; fill-opacity:0.0; 
stroke:#000000; stroke-width:0.1000; stroke-opacity:1; 
stroke-linecap:round; stroke-linejoin:round;fill:none"
d="M 111.2608,24.5559
110.2608,24.5559
110.2608,12.5557
111.2608,12.5557
Z" /> 
<path style="fill:#000000; fill-opacity:0.0; 
stroke:#000000; stroke-width:0.1000; stroke-opacity:1; 
stroke-linecap:round; stroke-linejoin:round;fill:none"
d="M 125.2607,24.5559
124.2607,24.5559
124.2607,12.5557
125.2607,12.5557
Z" /> 
<path d="M60.4108 32.7059
L60.8107 32.7059
" />
<path d="M60.6107 32.5059
L60.6107 32.9059
" />
<path d="M67.6107 39.7059
L53.6107 39.7059
" />
<path d="M53.6107 39.7059
L53.6107 25.7059
" />
<path d="M53.6107 25.7059
L67.6107 25.7059
" />
<path d="M67.6107 25.7059
L67.6107 39.7059
" />
<path style="fill:#000000; fill-opacity:0.0; 
stroke:#000000; stroke-width:0.1000; stroke-opacity:1; 
stroke-linecap:round; stroke-linejoin:round;fill:none"
d="M 54.1107,38.7059
53.1107,38.7059
53.1107,26.7057
54.1107,26.7057
Z" /> 
<path style="fill:#000000; fill-opacity:0.0; 
stroke:#000000; stroke-width:0.1000; stroke-opacity:1; 
stroke-linecap:round; stroke-linejoin:round;fill:none"
d="M 68.1107,38.7059
67.1107,38.7059
67.1107,26.7057
68.1107,26.7057
Z" /> 
<path d="M98.5108 32.7059
L98.9107 32.7059
" />
<path d="M98.7107 32.5059
L98.7107 32.9059
" />
<path d="M105.7107 39.7059
L91.7107 39.7059
" />
<path d="M91.7107 39.7059
L91.7107 25.7059
" />
<path d="M91.7107 25.7059
L105.7107 25.7059
" />
<path d="M105.7107 25.7059
L105.7107 39.7059
" />
<path style="fill:#000000; fill-opacity:0.0; 
stroke:#000000; stroke-width:0.1000; stroke-opacity:1; 
stroke-linecap:round; stroke-linejoin:round;fill:none"
d="M 92.2107,38.7059
91.2107,38.7059
91.2107,26.7057
92.2107,26.7057
Z" /> 
<path style="fill:#000000; fill-opacity:0.0; 
stroke:#000000; stroke-width:0.1000; stroke-opacity:1; 
stroke-linecap:round; stroke-linejoin:round;fill:none"
d="M 106.2107,38.7059
105.2107,38.7059
105.2107,26.7057
106.2107,26.7057
Z" /> 
<path d="M79.4607 30.2059
L79.8607 30.2059
" />
<path d="M79.6607 30.0059
L79.6607 30.4059
" />
<path d="M86.6607 37.2059
L72.6607 37.2059
" />
<path d="M72.6607 37.2059
L72.6607 23.2059
" />
<path d="M72.6607 23.2059
L86.6607 23.2059
" />
<path d="M86.6607 23.2059
L86.6607 37.2059
" />
<path style="fill:#000000; fill-opacity:0.0; 
stroke:#000000; stroke-width:0.1000; stroke-opacity:1; 
stroke-linecap:round; stroke-linejoin:round;fill:none"
d="M 73.1607,36.2059
72.1607,36.2059
72.1607,24.2057
73.1607,24.2057
Z" /> 
<path style="fill:#000000; fill-opacity:0.0; 
stroke:#000000; stroke-width:0.1000; stroke-opacity:1; 
stroke-linecap:round; stroke-linejoin:round;fill:none"
d="M 87.1607,36.2059
86.1607,36.2059
86.1607,24.2057
87.1607,24.2057
Z" /> 
<path d="M98.5108 51.7559
L98.9107 51.7559
" />
<path d="M98.7107 51.5559
L98.7107 51.9559
" />
<path d="M105.7107 58.7559
L91.7107 58.7559
" />
<path d="M91.7107 58.7559
L91.7107 44.7559
" />
<path d="M91.7107 44.7559
L105.7107 44.7559
" />
<path d="M105.7107 44.7559
L105.7107 58.7559
" />
<path style="fill:#000000; fill-opacity:0.0; 
stroke:#000000; stroke-width:0.1000; stroke-opacity:1; 
stroke-linecap:round; stroke-linejoin:round;fill:none"
d="M 92.2107,57.7559
91.2107,57.7559
91.2107,45.7557
92.2107,45.7557
Z" /> 
<path style="fill:#000000; fill-opacity:0.0; 
stroke:#000000; stroke-width:0.1000; stroke-opacity:1; 
stroke-linecap:round; stroke-linejoin:round;fill:none"
d="M 106.2107,57.7559
105.2107,57.7559
105.2107,45.7557
106.2107,45.7557
Z" /> 
<path d="M136.6107 18.5559
L137.0108 18.5559
" />
<path d="M136.8107 18.3559
L136.8107 18.7559
" />
<path d="M143.8107 25.5559
L129.8107 25.5559
" />
<path d="M129.8107 25.5559
L129.8107 11.5559
" />
<path d="M129.8107 11.5559
L143.8107 11.5559
" />
<path d="M143.8107 11.5559
L143.8107 25.5559
" />
<path style="fill:#000000; fill-opacity:0.0; 
stroke:#000000; stroke-width:0.1000; stroke-opacity:1; 
stroke-linecap:round; stroke-linejoin:round;fill:none"
d="M 130.3107,24.5559
129.3107,24.5559
129.3107,12.5557
130.3107,12.5557
Z" /> 
<path style="fill:#000000; fill-opacity:0.0; 
stroke:#000000; stroke-width:0.1000; stroke-opacity:1; 
stroke-linecap:round; stroke-linejoin:round;fill:none"
d="M 144.3107,24.5559
143.3107,24.5559
143.3107,12.5557
144.3107,12.5557
Z" /> 
<path d="M98.5108 89.8559
L98.9107 89.8559
" />
<path d="M98.7107 89.6559
L98.7107 90.0559
" />
<path d="M105.7107 96.8559
L91.7107 96.8559
" />
<path d="M91.7107 96.8559
L91.7107 82.8559
" />
<path d="M91.7107 82.8559
L105.7107 82.8559
" />
<path d="M105.7107 82.8559
L105.7107 96.8559
" />
<path style="fill:#000000; fill-opacity:0.0; 
stroke:#000000; stroke-width:0.1000; stroke-opacity:1; 
stroke-linecap:round; stroke-linejoin:round;fill:none"
d="M 92.2107,95.8559
91.2107,95.8559
91.2107,83.8557
92.2107,83.8557
Z" /> 
<path style="fill:#000000; fill-opacity:0.0; 
stroke:#000000; stroke-width:0.1000; stroke-opacity:1; 
stroke-linecap:round; stroke-linejoin:round;fill:none"
d="M 106.2107,95.8559
105.2107,95.8559
105.2107,83.8557
106.2107,83.8557
Z" /> 
<path d="M117.5607 37.6059
L117.9607 37.6059
" />
<path d="M117.7608 37.4059
L117.7608 37.8059
" />
<path d="M124.7607 44.6059
L110.7608 44.6059
" />
<path d="M110.7608 44.6059
L110.7608 30.6059
" />
<path d="M110.7608 30.6059
L124.7607 30.6059
" />
<path d="M124.7607 30.6059
L124.7607 44.6059
" />
<path style="fill:#000000; fill-opacity:0.0; 
stroke:#000000; stroke-width:0.1000; stroke-opacity:1; 
stroke-linecap:round; stroke-linejoin:round;fill:none"
d="M 111.2608,43.6059
110.2608,43.6059
110.2608,31.6057
111.2608,31.6057
Z" /> 
<path style="fill:#000000; fill-opacity:0.0; 
stroke:#000000; stroke-width:0.1000; stroke-opacity:1; 
stroke-linecap:round; stroke-linejoin:round;fill:none"
d="M 125.2607,43.6059
124.2607,43.6059
124.2607,31.6057
125.2607,31.6057
Z" /> 
<path d="M98.5108 70.8059
L98.9107 70.8059
" />
<path d="M98.7107 70.6059
L98.7107 71.0059
" />
<path d="M105.7107 77.8059
L91.7107 77.8059
" />
<path d="M91.7107 77.8059
L91.7107 63.8059
" />
<path d="M91.7107 63.8059
L105.7107 63.8059
" />
<path d="M105.7107 63.8059
L105.7107 77.8059
" />
<path style="fill:#000000; fill-opacity:0.0; 
stroke:#000000; stroke-width:0.1000; stroke-opacity:1; 
stroke-linecap:round; stroke-linejoin:round;fill:none"
d="M 92.2107,76.8059
91.2107,76.8059
91.2107,64.8057
92.2107,64.8057
Z" /> 
<path style="fill:#000000; fill-opacity:0.0; 
stroke:#000000; stroke-width:0.1000; stroke-opacity:1; 
stroke-linecap:round; stroke-linejoin:round;fill:none"
d="M 106.2107,76.8059
105.2107,76.8059
105.2107,64.8057
106.2107,64.8057
Z" /> 
<path d="M117.5607 56.6559
L117.9607 56.6559
" />
<path d="M117.7608 56.4559
L117.7608 56.8559
" />
<path d="M124.7607 63.6559
L110.7608 63.6559
" />
<path d="M110.7608 63.6559
L110.7608 49.6559
" />
<path d="M110.7608 49.6559
L124.7607 49.6559
" />
<path d="M124.7607 49.6559
L124.7607 63.6559
" />
<path style="fill:#000000; fill-opacity:0.0; 
stroke:#000000; stroke-width:0.1000; stroke-opacity:1; 
stroke-linecap:round; stroke-linejoin:round;fill:none"
d="M 111.2608,62.6559
110.2608,62.6559
110.2608,50.6557
111.2608,50.6557
Z" /> 
<path style="fill:#000000; fill-opacity:0.0; 
stroke:#000000; stroke-width:0.1000; stroke-opacity:1; 
stroke-linecap:round; stroke-linejoin:round;fill:none"
d="M 125.2607,62.6559
124.2607,62.6559
124.2607,50.6557
125.2607,50.6557
Z" /> 
<path d="M79.4607 87.3559
L79.8607 87.3559
" />
<path d="M79.6607 87.1559
L79.6607 87.5559
" />
<path d="M86.6607 94.3559
L72.6607 94.3559
" />
<path d="M72.6607 94.3559
L72.6607 80.3559
" />
<path d="M72.6607 80.3559
L86.6607 80.3559
" />
<path d="M86.6607 80.3559
L86.6607 94.3559
" />
<path style="fill:#000000; fill-opacity:0.0; 
stroke:#000000; stroke-width:0.1000; stroke-opacity:1; 
stroke-linecap:round; stroke-linejoin:round;fill:none"
d="M 73.1607,93.3559
72.1607,93.3559
72.1607,81.3557
73.1607,81.3557
Z" /> 
<path style="fill:#000000; fill-opacity:0.0; 
stroke:#000000; stroke-width:0.1000; stroke-opacity:1; 
stroke-linecap:round; stroke-linejoin:round;fill:none"
d="M 87.1607,93.3559
86.1607,93.3559
86.1607,81.3557
87.1607,81.3557
Z" /> 
<path d="M79.4607 49.2559
L79.8607 49.2559
" />
<path d="M79.6607 49.0559
L79.6607 49.4559
" />
<path d="M86.6607 56.2559
L72.6607 56.2559
" />
<path d="M72.6607 56.2559
L72.6607 42.2559
" />
<path d="M72.6607 42.2559
L86.6607 42.2559
" />
<path d="M86.6607 42.2559
L86.6607 56.2559
" />
<path style="fill:#000000; fill-opacity:0.0; 
stroke:#000000; stroke-width:0.1000; stroke-opacity:1; 
stroke-linecap:round; stroke-linejoin:round;fill:none"
d="M 73.1607,55.2559
72.1607,55.2559
72.1607,43.2557
73.1607,43.2557
Z" /> 
<path style="fill:#000000; fill-opacity:0.0; 
stroke:#000000; stroke-width:0.1000; stroke-opacity:1; 
stroke-linecap:round; stroke-linejoin:round;fill:none"
d="M 87.1607,55.2559
86.1607,55.2559
86.1607,43.2557
87.1607,43.2557
Z" /> 
<path d="M60.4108 13.6559
L60.8107 13.6559
" />
<path d="M60.6107 13.4559
L60.6107 13.8559
" />
<path d="M67.6107 20.6559
L53.6107 20.6559
" />
<path d="M53.6107 20.6559
L53.6107 6.6559
" />
<path d="M53.6107 6.6559
L67.6107 6.6559
" />
<path d="M67.6107 6.6559
L67.6107 20.6559
" />
<path style="fill:#000000; fill-opacity:0.0; 
stroke:#000000; stroke-width:0.1000; stroke-opacity:1; 
stroke-linecap:round; stroke-linejoin:round;fill:none"
d="M 54.1107,19.6559
53.1107,19.6559
53.1107,7.6557
54.1107,7.6557
Z" /> 
<path style="fill:#000000; fill-opacity:0.0; 
stroke:#000000; stroke-width:0.1000; stroke-opacity:1; 
stroke-linecap:round; stroke-linejoin:round;fill:none"
d="M 68.1107,19.6559
67.1107,19.6559
67.1107,7.6557
68.1107,7.6557
Z" /> 
<path d="M60.4108 70.8059
L60.8107 70.8059
" />
<path d="M60.6107 70.6059
L60.6107 71.0059
" />
<path d="M67.6107 77.8059
L53.6107 77.8059
" />
<path d="M53.6107 77.8059
L53.6107 63.8059
" />
<path d="M53.6107 63.8059
L67.6107 63.8059
" />
<path d="M67.6107 63.8059
L67.6107 77.8059
" />
<path style="fill:#000000; fill-opacity:0.0; 
stroke:#000000; stroke-width:0.1000; stroke-opacity:1; 
stroke-linecap:round; stroke-linejoin:round;fill:none"
d="M 54.1107,76.8059
53.1107,76.8059
53.1107,64.8057
54.1107,64.8057
Z" /> 
<path style="fill:#000000; fill-opacity:0.0; 
stroke:#000000; stroke-width:0.1000; stroke-opacity:1; 
stroke-linecap:round; stroke-linejoin:round;fill:none"
d="M 68.1107,76.8059
67.1107,76.8059
67.1107,64.8057
68.1107,64.8057
Z" /> 
<path d="M60.4108 89.8559
L60.8107 89.8559
" />
<path d="M60.6107 89.6559
L60.6107 90.0559
" />
<path d="M67.6107 96.8559
L53.6107 96.8559
" />
<path d="M53.6107 96.8559
L53.6107 82.8559
" />
<path d="M53.6107 82.8559
L67.6107 82.8559
" />
<path d="M67.6107 82.8559
L67.6107 96.8559
" />
<path style="fill:#000000; fill-opacity:0.0; 
stroke:#000000; stroke-width:0.1000; stroke-opacity:1; 
stroke-linecap:round; stroke-linejoin:round;fill:none"
d="M 54.1107,95.8559
53.1107,95.8559
53.1107,83.8557
54.1107,83.8557
Z" /> 
<path style="fill:#000000; fill-opacity:0.0; 
stroke:#000000; stroke-width:0.1000; stroke-opacity:1; 
stroke-linecap:round; stroke-linejoin:round;fill:none"
d="M 68.1107,95.8559
67.1107,95.8559
67.1107,83.8557
68.1107,83.8557
Z" /> 
<path d="M41.3607 73.3059
L41.7608 73.3059
" />
<path d="M41.5607 73.1059
L41.5607 73.5059
" />
<path d="M48.5607 80.3059
L34.5607 80.3059
" />
<path d="M34.5607 80.3059
L34.5607 66.3059
" />
<path d="M34.5607 66.3059
L48.5607 66.3059
" />
<path d="M48.5607 66.3059
L48.5607 80.3059
" />
<path style="fill:#000000; fill-opacity:0.0; 
stroke:#000000; stroke-width:0.1000; stroke-opacity:1; 
stroke-linecap:round; stroke-linejoin:round;fill:none"
d="M 35.0607,79.3059
34.0607,79.3059
34.0607,67.3057
35.0607,67.3057
Z" /> 
<path style="fill:#000000; fill-opacity:0.0; 
stroke:#000000; stroke-width:0.1000; stroke-opacity:1; 
stroke-linecap:round; stroke-linejoin:round;fill:none"
d="M 49.0607,79.3059
48.0607,79.3059
48.0607,67.3057
49.0607,67.3057
Z" /> 
<path d="M41.3607 35.2059
L41.7608 35.2059
" />
<path d="M41.5607 35.0059
L41.5607 35.4059
" />
<path d="M48.5607 42.2059
L34.5607 42.2059
" />
<path d="M34.5607 42.2059
L34.5607 28.2059
" />
<path d="M34.5607 28.2059
L48.5607 28.2059
" />
<path d="M48.5607 28.2059
L48.5607 42.2059
" />
<path style="fill:#000000; fill-opacity:0.0; 
stroke:#000000; stroke-width:0.1000; stroke-opacity:1; 
stroke-linecap:round; stroke-linejoin:round;fill:none"
d="M 35.0607,41.2059
34.0607,41.2059
34.0607,29.2057
35.0607,29.2057
Z" /> 
<path style="fill:#000000; fill-opacity:0.0; 
stroke:#000000; stroke-width:0.1000; stroke-opacity:1; 
stroke-linecap:round; stroke-linejoin:round;fill:none"
d="M 49.0607,41.2059
48.0607,41.2059
48.0607,29.2057
49.0607,29.2057
Z" /> 
<g >
</g>
<g >
</g>
<g >
</g>
<g >
</g>
<g >
</g>
<g >
</g>
<g >
</g>
<g >
</g>
<g >
</g>
<g >
</g>
<g >
</g>
<g >
</g>
<g >
</g>
<g >
</g>
<g >
</g>
<g >
</g>
<g >
</g>
<g >
</g>
<g >
</g>
<g >
</g>
<g >
</g>
<g >
</g>
<g >
</g>
<g >
</g>
<g >
</g>
<g >
</g>
<g >
</g>
<g >
</g>
<g >
</g>
<g >
</g>
<g >
</g>
<g >
</g>
<g >
</g>
<g >
</g>
<g >
</g>
<g >
</g>
<g >
</g>
<g >
</g>
<g >
</g>
<g >
</g>
<g >
</g>
<g >
</g>
<g >
</g>
<g >
</g>
<g >
</g>
<g >
</g>
<g >
</g>
<g >
</g>
<g >
</g>
<g >
</g>
<g >
</g>
<g >
</g>
<g >
</g>
<g >
</g>
<g >
</g>
<g >
</g>
<g >
</g>
<g >
</g>
<g >
</g>
<g >
</g>
<g >
</g>
<g >
</g>
<g >
</g>
<g >
</g>
<g >
</g>
<g >
</g>
<g >
</g>
<g >
</g>
<g >
</g>
<g >
</g>
<g >
</g>
<g >
</g>
<g >
</g>
<g >
</g>
<g >
</g>
<g >
</g>
<g >
</g>
<g >
</g>
<g >
</g>
<g >
</g>
<g >
</g>
<g >
</g>
<g >
</g>
<g >
</g>
<g >
</g>
<g >
</g>
<g >
</g>
<g >
</g>
<g >
</g>
<g >
</g>
<g >
</g>
<g >
</g>
<g >
</g>
<g >
</g>
<g >
</g>
<g >
</g>
<g >
</g>
<g >
</g>
<g >
</g>
<g >
</g>
<g >
</g>
<g >
</g>
<g >
</g>
<g >
</g>
<g >
</g>
<g >
</g>
<g >
</g>
<g >
</g>
<g >
</g>
<g >
</g>
<g >
</g>
<g >
</g>
<g >
</g>
<g >
</g>
<g >
</g>
<g >
</g>
<g >
</g>
<g >
</g>
<g >
</g>
<g >
</g>
<g >
</g>
<g >
</g>
<g >
</g>
<g >
</g>
<g >
</g>
<g >
</g>
</g> 
</svg>
