<?xml version="1.0" standalone="no"?>
 <!DOCTYPE svg PUBLIC "-//W3C//DTD SVG 1.1//EN" 
 "http://www.w3.org/Graphics/SVG/1.1/DTD/svg11.dtd"> 
<svg
  xmlns:svg="http://www.w3.org/2000/svg"
  xmlns="http://www.w3.org/2000/svg"
  xmlns:xlink="http://www.w3.org/1999/xlink"
  version="1.1"
  width="145.5420mm" height="116.4082mm" viewBox="0.0000 0.0000 145.5420 116.4082">
<title>SVG Image created as sofel_v3b-brd.svg date 2023/06/21 19:14:56 </title>
  <desc>Image generated by PCBNEW </desc>
<g style="fill:#000000; fill-opacity:1.0000;stroke:#000000; stroke-opacity:1.0000;
stroke-linecap:round; stroke-linejoin:round;"
 transform="translate(0 0) scale(1 1)">
</g>
<g style="fill:#000000; fill-opacity:0.0; 
stroke:#000000; stroke-width:0.0000; stroke-opacity:1; 
stroke-linecap:round; stroke-linejoin:round;">
</g>
<g style="fill:#000000; fill-opacity:0.0; 
stroke:#000000; stroke-width:0.1000; stroke-opacity:1; 
stroke-linecap:round; stroke-linejoin:round;">
<path d="M13.5270 61.5472
L13.5270 55.0730
" />
<path d="M12.5270 62.5472 A1.0000 1.0000 0.0 0 0 13.5270 61.5472" />
<path d="M1.0502 62.5472
L12.5270 62.5472
" />
<path d="M1.0502 62.5472 A1.0000 1.0000 0.0 0 0 0.0502 63.5472" />
<path d="M0.0502 93.6301 A1.5020 1.5020 0.0 0 0 0.2137 94.3378" />
<path d="M86.8218 0.0750
L28.6599 0.0750
" />
<path d="M0.2137 94.3378
L11.0247 115.5547
" />
</g>
<g style="fill:#000000; fill-opacity:0.0; 
stroke:#000000; stroke-width:0.1500; stroke-opacity:1; 
stroke-linecap:round; stroke-linejoin:round;">
<path d="M144.5661 86.5523 A1.4999 1.4999 0.0 0 0 145.4718 85.1750" />
<path d="M86.8218 0.0750
L144.1357 7.4740
" />
<path d="M67.7718 100.8250
L105.8718 100.8250
" />
<path d="M105.8718 100.8250
L144.5661 86.5523
" />
<path d="M145.4718 8.9750 A1.5111 1.5111 0.0 0 0 144.1357 7.4740" />
</g>
<g style="fill:#000000; fill-opacity:0.0; 
stroke:#000000; stroke-width:0.1000; stroke-opacity:1; 
stroke-linecap:round; stroke-linejoin:round;">
<path d="M0.0502 63.5472
L0.0502 93.6301
" />
<path d="M12.7571 116.3206
L67.7718 100.8250
" />
</g>
<g style="fill:#000000; fill-opacity:0.0; 
stroke:#000000; stroke-width:0.1500; stroke-opacity:1; 
stroke-linecap:round; stroke-linejoin:round;">
<path d="M145.4718 8.9750
L145.4718 85.1750
" />
</g>
<g style="fill:#000000; fill-opacity:0.0; 
stroke:#000000; stroke-width:0.1000; stroke-opacity:1; 
stroke-linecap:round; stroke-linejoin:round;">
<path d="M11.0247 115.5547 A1.4999 1.4999 0.0 0 0 12.7571 116.3206" />
<path d="M14.5270 54.0730 A1.0000 1.0000 0.0 0 0 13.5270 55.0730" />
<path d="M26.6599 54.0730 A1.0000 1.0000 0.0 0 0 27.6599 53.0730" />
<path d="M26.6599 54.0730
L14.5270 54.0730
" />
<path d="M27.6599 27.4501
L27.6599 53.0730
" />
<path d="M29.6599 25.4501
L29.6599 15.2901
" />
<path d="M28.6599 26.4501 A1.0000 1.0000 0.0 0 0 27.6599 27.4501" />
<path d="M28.6599 26.4501 A1.0000 1.0000 0.0 0 0 29.6599 25.4501" />
<path d="M29.6599 15.2901 A1.0000 1.0000 0.0 0 0 28.6599 14.2901" />
<path d="M27.6599 13.2901 A1.0000 1.0000 0.0 0 0 28.6599 14.2901" />
<path d="M28.6599 0.0750 A1.0000 1.0000 0.0 0 0 27.6599 1.0750" />
<path d="M27.6599 1.0750
L27.6599 13.2901
" />
<path d="M32.1422 105.4557
L47.9127 101.2353
" />
<circle cx="5.0470" cy="67.1001" r="1.1000" /> 
</g>
<g style="fill:#000000; fill-opacity:0.0; 
stroke:#000000; stroke-width:0.0500; stroke-opacity:1; 
stroke-linecap:round; stroke-linejoin:round;">
<path d="M27.6470 77.7001
L27.6470 63.5001
" />
<path d="M27.6470 77.7001
L10.1470 77.7001
" />
<path d="M10.1470 63.5001
L27.6470 63.5001
" />
<path d="M10.1470 63.5001
L10.1470 77.7001
" />
</g>
<g style="fill:#000000; fill-opacity:0.0; 
stroke:#000000; stroke-width:0.1000; stroke-opacity:1; 
stroke-linecap:round; stroke-linejoin:round;">
<circle cx="124.9370" cy="28.0101" r="1.1000" /> 
<circle cx="124.9220" cy="66.1251" r="1.1000" /> 
<circle cx="48.0870" cy="25.6101" r="1.1000" /> 
<circle cx="48.1770" cy="63.5601" r="1.1000" /> 
<circle cx="5.0470" cy="83.1001" r="1.1000" /> 
<circle cx="30.6570" cy="3.3501" r="1.1000" /> 
<circle cx="22.5770" cy="56.6901" r="1.1000" /> 
</g>
<g style="fill:#000000; fill-opacity:0.0; 
stroke:#000000; stroke-width:0.1200; stroke-opacity:1; 
stroke-linecap:round; stroke-linejoin:round;">
<path d="M46.1970 23.1001
L32.1970 23.1001
" />
<path d="M32.1970 23.1001
L32.1970 9.1001
" />
<path d="M32.1970 9.1001
L46.1970 9.1001
" />
<path d="M46.1970 9.1001
L46.1970 23.1001
" />
<path d="M84.2970 18.1001
L70.2970 18.1001
" />
<path d="M70.2970 18.1001
L70.2970 4.1001
" />
<path d="M70.2970 4.1001
L84.2970 4.1001
" />
<path d="M84.2970 4.1001
L84.2970 18.1001
" />
<path d="M46.1970 61.2001
L32.1970 61.2001
" />
<path d="M32.1970 61.2001
L32.1970 47.2001
" />
<path d="M32.1970 47.2001
L46.1970 47.2001
" />
<path d="M46.1970 47.2001
L46.1970 61.2001
" />
<path d="M65.2470 58.7001
L51.2470 58.7001
" />
<path d="M51.2470 58.7001
L51.2470 44.7001
" />
<path d="M51.2470 44.7001
L65.2470 44.7001
" />
<path d="M65.2470 44.7001
L65.2470 58.7001
" />
<path d="M84.2970 75.2501
L70.2970 75.2501
" />
<path d="M70.2970 75.2501
L70.2970 61.2501
" />
<path d="M70.2970 61.2501
L84.2970 61.2501
" />
<path d="M84.2970 61.2501
L84.2970 75.2501
" />
<path d="M122.3970 82.6501
L108.3970 82.6501
" />
<path d="M108.3970 82.6501
L108.3970 68.6501
" />
<path d="M108.3970 68.6501
L122.3970 68.6501
" />
<path d="M122.3970 68.6501
L122.3970 82.6501
" />
<path d="M12.3836 109.3559
L6.0277 96.8818
" />
<path d="M6.0277 96.8818
L18.5018 90.5260
" />
<path d="M18.5018 90.5260
L24.8577 103.0001
" />
<path d="M24.8577 103.0001
L12.3836 109.3559
" />
<path d="M44.8202 99.4499
L31.2972 103.0733
" />
<path d="M31.2972 103.0733
L27.6738 89.5504
" />
<path d="M27.6738 89.5504
L41.1967 85.9269
" />
<path d="M41.1967 85.9269
L44.8202 99.4499
" />
<path d="M141.4470 44.5501
L127.4470 44.5501
" />
<path d="M127.4470 44.5501
L127.4470 30.5501
" />
<path d="M127.4470 30.5501
L141.4470 30.5501
" />
<path d="M141.4470 30.5501
L141.4470 44.5501
" />
<path d="M141.4470 63.6001
L127.4470 63.6001
" />
<path d="M127.4470 63.6001
L127.4470 49.6001
" />
<path d="M127.4470 49.6001
L141.4470 49.6001
" />
<path d="M141.4470 49.6001
L141.4470 63.6001
" />
<path d="M141.4470 82.6501
L127.4470 82.6501
" />
<path d="M127.4470 82.6501
L127.4470 68.6501
" />
<path d="M127.4470 68.6501
L141.4470 68.6501
" />
<path d="M141.4470 68.6501
L141.4470 82.6501
" />
<path d="M103.3470 20.6001
L89.3470 20.6001
" />
<path d="M89.3470 20.6001
L89.3470 6.6001
" />
<path d="M89.3470 6.6001
L103.3470 6.6001
" />
<path d="M103.3470 6.6001
L103.3470 20.6001
" />
<path d="M122.3970 25.5001
L108.3970 25.5001
" />
<path d="M108.3970 25.5001
L108.3970 11.5001
" />
<path d="M108.3970 11.5001
L122.3970 11.5001
" />
<path d="M122.3970 11.5001
L122.3970 25.5001
" />
<path d="M65.2470 39.6501
L51.2470 39.6501
" />
<path d="M51.2470 39.6501
L51.2470 25.6501
" />
<path d="M51.2470 25.6501
L65.2470 25.6501
" />
<path d="M65.2470 25.6501
L65.2470 39.6501
" />
<path d="M103.3470 39.6501
L89.3470 39.6501
" />
<path d="M89.3470 39.6501
L89.3470 25.6501
" />
<path d="M89.3470 25.6501
L103.3470 25.6501
" />
<path d="M103.3470 25.6501
L103.3470 39.6501
" />
<path d="M84.2970 37.1501
L70.2970 37.1501
" />
<path d="M70.2970 37.1501
L70.2970 23.1501
" />
<path d="M70.2970 23.1501
L84.2970 23.1501
" />
<path d="M84.2970 23.1501
L84.2970 37.1501
" />
<path d="M103.3470 58.7001
L89.3470 58.7001
" />
<path d="M89.3470 58.7001
L89.3470 44.7001
" />
<path d="M89.3470 44.7001
L103.3470 44.7001
" />
<path d="M103.3470 44.7001
L103.3470 58.7001
" />
<path d="M141.4470 25.5001
L127.4470 25.5001
" />
<path d="M127.4470 25.5001
L127.4470 11.5001
" />
<path d="M127.4470 11.5001
L141.4470 11.5001
" />
<path d="M141.4470 11.5001
L141.4470 25.5001
" />
<path d="M46.1970 42.1501
L32.1970 42.1501
" />
<path d="M32.1970 42.1501
L32.1970 28.1501
" />
<path d="M32.1970 28.1501
L46.1970 28.1501
" />
<path d="M46.1970 28.1501
L46.1970 42.1501
" />
<path d="M103.3470 96.8001
L89.3470 96.8001
" />
<path d="M89.3470 96.8001
L89.3470 82.8001
" />
<path d="M89.3470 82.8001
L103.3470 82.8001
" />
<path d="M103.3470 82.8001
L103.3470 96.8001
" />
<path d="M122.3970 44.5501
L108.3970 44.5501
" />
<path d="M108.3970 44.5501
L108.3970 30.5501
" />
<path d="M108.3970 30.5501
L122.3970 30.5501
" />
<path d="M122.3970 30.5501
L122.3970 44.5501
" />
<path d="M103.3470 77.7501
L89.3470 77.7501
" />
<path d="M89.3470 77.7501
L89.3470 63.7501
" />
<path d="M89.3470 63.7501
L103.3470 63.7501
" />
<path d="M103.3470 63.7501
L103.3470 77.7501
" />
<path d="M122.3970 63.6001
L108.3970 63.6001
" />
<path d="M108.3970 63.6001
L108.3970 49.6001
" />
<path d="M108.3970 49.6001
L122.3970 49.6001
" />
<path d="M122.3970 49.6001
L122.3970 63.6001
" />
<path d="M84.2970 94.3001
L70.2970 94.3001
" />
<path d="M70.2970 94.3001
L70.2970 80.3001
" />
<path d="M70.2970 80.3001
L84.2970 80.3001
" />
<path d="M84.2970 80.3001
L84.2970 94.3001
" />
<path d="M84.2970 56.2001
L70.2970 56.2001
" />
<path d="M70.2970 56.2001
L70.2970 42.2001
" />
<path d="M70.2970 42.2001
L84.2970 42.2001
" />
<path d="M84.2970 42.2001
L84.2970 56.2001
" />
<path d="M65.2470 20.6001
L51.2470 20.6001
" />
<path d="M51.2470 20.6001
L51.2470 6.6001
" />
<path d="M51.2470 6.6001
L65.2470 6.6001
" />
<path d="M65.2470 6.6001
L65.2470 20.6001
" />
<path d="M65.2470 77.7501
L51.2470 77.7501
" />
<path d="M51.2470 77.7501
L51.2470 63.7501
" />
<path d="M51.2470 63.7501
L65.2470 63.7501
" />
<path d="M65.2470 63.7501
L65.2470 77.7501
" />
<path d="M65.2470 96.8001
L51.2470 96.8001
" />
<path d="M51.2470 96.8001
L51.2470 82.8001
" />
<path d="M51.2470 82.8001
L65.2470 82.8001
" />
<path d="M65.2470 82.8001
L65.2470 96.8001
" />
<path d="M46.1970 80.2501
L32.1970 80.2501
" />
<path d="M32.1970 80.2501
L32.1970 66.2501
" />
<path d="M32.1970 66.2501
L46.1970 66.2501
" />
<path d="M46.1970 66.2501
L46.1970 80.2501
" />
<g >
</g>
<g >
</g>
<g >
</g>
<g >
</g>
<g >
</g>
<g >
</g>
<g >
</g>
<g >
</g>
<g >
</g>
<g >
</g>
<g >
</g>
<g >
</g>
<g >
</g>
<g >
</g>
<g >
</g>
<g >
</g>
<g >
</g>
<g >
</g>
<g >
</g>
<g >
</g>
<g >
</g>
<g >
</g>
<g >
</g>
<g >
</g>
<g >
</g>
<g >
</g>
<g >
</g>
<g >
</g>
<g >
</g>
<g >
</g>
<g >
</g>
<g >
</g>
<g >
</g>
<g >
</g>
<g >
</g>
<g >
</g>
<g >
</g>
<g >
</g>
<g >
</g>
<g >
</g>
<g >
</g>
<g >
</g>
<g >
</g>
<g >
</g>
<g >
</g>
<g >
</g>
<g >
</g>
<g >
</g>
<g >
</g>
<g >
</g>
<g >
</g>
<g >
</g>
<g >
</g>
<g >
</g>
<g >
</g>
<g >
</g>
<g >
</g>
<g >
</g>
<g >
</g>
<g >
</g>
<g >
</g>
<g >
</g>
<g >
</g>
<g >
</g>
<g >
</g>
<g >
</g>
<g >
</g>
<g >
</g>
<g >
</g>
<g >
</g>
<g >
</g>
<g >
</g>
<g >
</g>
<g >
</g>
<g >
</g>
<g >
</g>
<g >
</g>
<g >
</g>
<g >
</g>
<g >
</g>
<g >
</g>
<g >
</g>
<g >
</g>
<g >
</g>
<g >
</g>
<g >
</g>
<g >
</g>
<g >
</g>
<g >
</g>
<g >
</g>
<g >
</g>
<g >
</g>
<g >
</g>
<g >
</g>
<g >
</g>
<g >
</g>
<g >
</g>
<g >
</g>
<g >
</g>
<g >
</g>
<g >
</g>
<g >
</g>
<g >
</g>
<g >
</g>
<g >
</g>
<g >
</g>
<g >
</g>
<g >
</g>
<g >
</g>
<g >
</g>
</g> 
</svg>
