<?xml version="1.0" standalone="no"?>
 <!DOCTYPE svg PUBLIC "-//W3C//DTD SVG 1.1//EN" 
 "http://www.w3.org/Graphics/SVG/1.1/DTD/svg11.dtd"> 
<svg
  xmlns:svg="http://www.w3.org/2000/svg"
  xmlns="http://www.w3.org/2000/svg"
  xmlns:xlink="http://www.w3.org/1999/xlink"
  version="1.1"
  width="143.4846mm" height="111.8362mm" viewBox="0.0000 0.0000 143.4846 111.8362">
<title>SVG Image created as SofleKeyboard-brd.svg date 2024/02/29 09:50:20 </title>
  <desc>Image generated by PCBNEW </desc>
<g style="fill:#000000; fill-opacity:1.0000;stroke:#000000; stroke-opacity:1.0000;
stroke-linecap:round; stroke-linejoin:round;"
 transform="translate(0 0) scale(1 1)">
</g>
<g style="fill:#000000; fill-opacity:0.0; 
stroke:#000000; stroke-width:0.0000; stroke-opacity:1; 
stroke-linecap:round; stroke-linejoin:round;">
</g>
<g style="fill:#000000; fill-opacity:0.0; 
stroke:#000000; stroke-width:0.1500; stroke-opacity:1; 
stroke-linecap:round; stroke-linejoin:round;">
<path style="fill:#000000; fill-opacity:0.0; 
stroke:#000000; stroke-width:0.1500; stroke-opacity:1; 
stroke-linecap:round; stroke-linejoin:round;fill:none"
d="M 13.3800,38.3800
23.5400,38.3800
23.5400,40.9200
13.3800,40.9200
Z" /> 
<circle cx="17.9600" cy="69.5400" r="10.0385" /> 
</g>
<g style="fill:#000000; fill-opacity:0.0; 
stroke:#000000; stroke-width:0.1000; stroke-opacity:1; 
stroke-linecap:round; stroke-linejoin:round;">
<path d="M143.2339 9.0478
L143.3203 9.2287
" />
<path d="M10.5000 111.2500
L0.2500 93.4500
" />
<path d="M88.9000 0.0500
L142.4254 8.4951
" />
<path d="M6.2473 3.2953
L6.3144 3.0790
" />
<path d="M143.3932 9.6319
L143.4202 84.5500
" />
<path d="M6.5613 2.7128
L6.7318 2.5722
" />
<path d="M143.3744 9.4246
L143.3932 9.6319
" />
<path d="M6.7318 2.5722
L6.9274 2.4659
" />
<path d="M143.3203 9.2287
L143.3744 9.4246
" />
<path d="M0.1500 91.4500
L5.9500 80.7000
" />
<path d="M6.3144 3.0790
L6.4206 2.8833
" />
<path d="M6.2239 3.5274
L6.2473 3.2953
" />
<path d="M142.6271 8.5468
L142.8119 8.6315
" />
<path d="M142.4254 8.4951
L142.6271 8.5468
" />
<path d="M6.4206 2.8833
L6.5613 2.7128
" />
<path d="M10.5000 111.2500
L10.8500 111.5500
" />
<path d="M56.1041 99.0500
L105.4500 99.0500
" />
<path d="M66.9500 0.0500
L7.3759 2.3754
" />
<path d="M6.2253 79.4500
L6.1500 80.1000
" />
<path d="M0.2500 93.4500
L0.1000 92.9500
" />
<path d="M0.0500 91.9500
L0.1500 91.4500
" />
<path d="M0.0500 92.3500
L0.0500 91.9500
" />
<path d="M6.1500 80.1000
L5.9500 80.7000
" />
<path d="M11.3000 111.7000
L11.8500 111.8000
" />
<path d="M0.1000 92.9500
L0.0500 92.3500
" />
<path d="M10.8500 111.5500
L11.3000 111.7000
" />
</g>
<g style="fill:#000000; fill-opacity:0.0; 
stroke:#000000; stroke-width:0.1500; stroke-opacity:1; 
stroke-linecap:round; stroke-linejoin:round;">
<path d="M143.4202 84.5500
L105.4500 99.0500
" />
</g>
<g style="fill:#000000; fill-opacity:0.0; 
stroke:#000000; stroke-width:0.1000; stroke-opacity:1; 
stroke-linecap:round; stroke-linejoin:round;">
<path d="M6.2253 79.4500
L6.2239 3.5274
" />
<path d="M143.1183 8.8856
L143.2339 9.0478
" />
<path d="M142.8119 8.6315
L142.9766 8.7456
" />
<path d="M66.9500 0.0500
L88.9000 0.0500
" />
<path d="M6.9274 2.4659
L7.1437 2.3988
" />
<path d="M7.1437 2.3988
L7.3759 2.3754
" />
<path d="M142.9766 8.7456
L143.1183 8.8856
" />
<path d="M56.1041 99.0500
L11.8500 111.8000
" />
</g>
<g style="fill:#000000; fill-opacity:0.0; 
stroke:#000000; stroke-width:0.1200; stroke-opacity:1; 
stroke-linecap:round; stroke-linejoin:round;">
<path d="M105.1750 98.2750
L86.1250 98.2750
" />
<path d="M86.1250 98.2750
L86.1250 79.2250
" />
<path d="M86.1250 79.2250
L105.1750 79.2250
" />
<path d="M105.1750 79.2250
L105.1750 98.2750
" />
<path d="M97.4500 85.6010
L93.8500 85.6010
" />
<path d="M93.8500 85.6010
L93.8500 82.5010
" />
<path d="M93.8500 82.5010
L97.4500 82.5010
" />
<path d="M97.4500 82.5010
L97.4500 85.6010
" />
<path d="M86.1250 95.7750
L67.0750 95.7750
" />
<path d="M67.0750 95.7750
L67.0750 76.7250
" />
<path d="M67.0750 76.7250
L86.1250 76.7250
" />
<path d="M86.1250 76.7250
L86.1250 95.7750
" />
<path d="M78.4000 83.1010
L74.8000 83.1010
" />
<path d="M74.8000 83.1010
L74.8000 80.0010
" />
<path d="M74.8000 80.0010
L78.4000 80.0010
" />
<path d="M78.4000 80.0010
L78.4000 83.1010
" />
<path d="M67.0750 98.2750
L48.0250 98.2750
" />
<path d="M48.0250 98.2750
L48.0250 79.2250
" />
<path d="M48.0250 79.2250
L67.0750 79.2250
" />
<path d="M67.0750 79.2250
L67.0750 98.2750
" />
<path d="M59.3500 85.6010
L55.7500 85.6010
" />
<path d="M55.7500 85.6010
L55.7500 82.5010
" />
<path d="M55.7500 82.5010
L59.3500 82.5010
" />
<path d="M59.3500 82.5010
L59.3500 85.6010
" />
<path d="M47.2157 100.1852
L28.8148 105.1157
" />
<path d="M28.8148 105.1157
L23.8843 86.7148
" />
<path d="M23.8843 86.7148
L42.2852 81.7843
" />
<path d="M42.2852 81.7843
L47.2157 100.1852
" />
<path d="M36.4736 89.9424
L32.9963 90.8742
" />
<path d="M32.9963 90.8742
L32.1940 87.8798
" />
<path d="M32.1940 87.8798
L35.6713 86.9481
" />
<path d="M35.6713 86.9481
L36.4736 89.9424
" />
<path d="M11.1736 111.4614
L1.6486 94.9636
" />
<path d="M1.6486 94.9636
L18.1464 85.4386
" />
<path d="M18.1464 85.4386
L27.6714 101.9364
" />
<path d="M27.6714 101.9364
L11.1736 111.4614
" />
<path d="M18.2871 98.4343
L16.4871 95.3167
" />
<path d="M16.4871 95.3167
L19.1718 93.7667
" />
<path d="M19.1718 93.7667
L20.9718 96.8843
" />
<path d="M20.9718 96.8843
L18.2871 98.4343
" />
<path d="M143.2750 84.1250
L124.2250 84.1250
" />
<path d="M124.2250 84.1250
L124.2250 65.0750
" />
<path d="M124.2250 65.0750
L143.2750 65.0750
" />
<path d="M143.2750 65.0750
L143.2750 84.1250
" />
<path d="M135.5500 71.4510
L131.9500 71.4510
" />
<path d="M131.9500 71.4510
L131.9500 68.3510
" />
<path d="M131.9500 68.3510
L135.5500 68.3510
" />
<path d="M135.5500 68.3510
L135.5500 71.4510
" />
<path d="M124.2250 84.1250
L105.1750 84.1250
" />
<path d="M105.1750 84.1250
L105.1750 65.0750
" />
<path d="M105.1750 65.0750
L124.2250 65.0750
" />
<path d="M124.2250 65.0750
L124.2250 84.1250
" />
<path d="M116.5000 71.4510
L112.9000 71.4510
" />
<path d="M112.9000 71.4510
L112.9000 68.3510
" />
<path d="M112.9000 68.3510
L116.5000 68.3510
" />
<path d="M116.5000 68.3510
L116.5000 71.4510
" />
<path d="M105.1750 79.2250
L86.1250 79.2250
" />
<path d="M86.1250 79.2250
L86.1250 60.1750
" />
<path d="M86.1250 60.1750
L105.1750 60.1750
" />
<path d="M105.1750 60.1750
L105.1750 79.2250
" />
<path d="M97.4500 66.5510
L93.8500 66.5510
" />
<path d="M93.8500 66.5510
L93.8500 63.4510
" />
<path d="M93.8500 63.4510
L97.4500 63.4510
" />
<path d="M97.4500 63.4510
L97.4500 66.5510
" />
<path d="M86.1250 76.7250
L67.0750 76.7250
" />
<path d="M67.0750 76.7250
L67.0750 57.6750
" />
<path d="M67.0750 57.6750
L86.1250 57.6750
" />
<path d="M86.1250 57.6750
L86.1250 76.7250
" />
<path d="M78.4000 64.0510
L74.8000 64.0510
" />
<path d="M74.8000 64.0510
L74.8000 60.9510
" />
<path d="M74.8000 60.9510
L78.4000 60.9510
" />
<path d="M78.4000 60.9510
L78.4000 64.0510
" />
<path d="M67.0750 79.2250
L48.0250 79.2250
" />
<path d="M48.0250 79.2250
L48.0250 60.1750
" />
<path d="M48.0250 60.1750
L67.0750 60.1750
" />
<path d="M67.0750 60.1750
L67.0750 79.2250
" />
<path d="M59.3500 66.5510
L55.7500 66.5510
" />
<path d="M55.7500 66.5510
L55.7500 63.4510
" />
<path d="M55.7500 63.4510
L59.3500 63.4510
" />
<path d="M59.3500 63.4510
L59.3500 66.5510
" />
<path d="M48.0250 81.7250
L28.9750 81.7250
" />
<path d="M28.9750 81.7250
L28.9750 62.6750
" />
<path d="M28.9750 62.6750
L48.0250 62.6750
" />
<path d="M48.0250 62.6750
L48.0250 81.7250
" />
<path d="M40.3000 69.0510
L36.7000 69.0510
" />
<path d="M36.7000 69.0510
L36.7000 65.9510
" />
<path d="M36.7000 65.9510
L40.3000 65.9510
" />
<path d="M40.3000 65.9510
L40.3000 69.0510
" />
<path d="M143.2750 65.0750
L124.2250 65.0750
" />
<path d="M124.2250 65.0750
L124.2250 46.0250
" />
<path d="M124.2250 46.0250
L143.2750 46.0250
" />
<path d="M143.2750 46.0250
L143.2750 65.0750
" />
<path d="M135.5500 52.4010
L131.9500 52.4010
" />
<path d="M131.9500 52.4010
L131.9500 49.3010
" />
<path d="M131.9500 49.3010
L135.5500 49.3010
" />
<path d="M135.5500 49.3010
L135.5500 52.4010
" />
<path d="M124.2250 65.0750
L105.1750 65.0750
" />
<path d="M105.1750 65.0750
L105.1750 46.0250
" />
<path d="M105.1750 46.0250
L124.2250 46.0250
" />
<path d="M124.2250 46.0250
L124.2250 65.0750
" />
<path d="M116.5000 52.4010
L112.9000 52.4010
" />
<path d="M112.9000 52.4010
L112.9000 49.3010
" />
<path d="M112.9000 49.3010
L116.5000 49.3010
" />
<path d="M116.5000 49.3010
L116.5000 52.4010
" />
<path d="M105.1750 60.1750
L86.1250 60.1750
" />
<path d="M86.1250 60.1750
L86.1250 41.1250
" />
<path d="M86.1250 41.1250
L105.1750 41.1250
" />
<path d="M105.1750 41.1250
L105.1750 60.1750
" />
<path d="M97.4500 47.5010
L93.8500 47.5010
" />
<path d="M93.8500 47.5010
L93.8500 44.4010
" />
<path d="M93.8500 44.4010
L97.4500 44.4010
" />
<path d="M97.4500 44.4010
L97.4500 47.5010
" />
<path d="M86.1250 57.6750
L67.0750 57.6750
" />
<path d="M67.0750 57.6750
L67.0750 38.6250
" />
<path d="M67.0750 38.6250
L86.1250 38.6250
" />
<path d="M86.1250 38.6250
L86.1250 57.6750
" />
<path d="M78.4000 45.0010
L74.8000 45.0010
" />
<path d="M74.8000 45.0010
L74.8000 41.9010
" />
<path d="M74.8000 41.9010
L78.4000 41.9010
" />
<path d="M78.4000 41.9010
L78.4000 45.0010
" />
<path d="M67.0750 60.1750
L48.0250 60.1750
" />
<path d="M48.0250 60.1750
L48.0250 41.1250
" />
<path d="M48.0250 41.1250
L67.0750 41.1250
" />
<path d="M67.0750 41.1250
L67.0750 60.1750
" />
<path d="M59.3500 47.5010
L55.7500 47.5010
" />
<path d="M55.7500 47.5010
L55.7500 44.4010
" />
<path d="M55.7500 44.4010
L59.3500 44.4010
" />
<path d="M59.3500 44.4010
L59.3500 47.5010
" />
<path d="M48.0250 62.6750
L28.9750 62.6750
" />
<path d="M28.9750 62.6750
L28.9750 43.6250
" />
<path d="M28.9750 43.6250
L48.0250 43.6250
" />
<path d="M48.0250 43.6250
L48.0250 62.6750
" />
<path d="M40.3000 50.0010
L36.7000 50.0010
" />
<path d="M36.7000 50.0010
L36.7000 46.9010
" />
<path d="M36.7000 46.9010
L40.3000 46.9010
" />
<path d="M40.3000 46.9010
L40.3000 50.0010
" />
<path d="M143.2750 46.0250
L124.2250 46.0250
" />
<path d="M124.2250 46.0250
L124.2250 26.9750
" />
<path d="M124.2250 26.9750
L143.2750 26.9750
" />
<path d="M143.2750 26.9750
L143.2750 46.0250
" />
<path d="M135.5500 33.3510
L131.9500 33.3510
" />
<path d="M131.9500 33.3510
L131.9500 30.2510
" />
<path d="M131.9500 30.2510
L135.5500 30.2510
" />
<path d="M135.5500 30.2510
L135.5500 33.3510
" />
<path d="M124.2250 46.0250
L105.1750 46.0250
" />
<path d="M105.1750 46.0250
L105.1750 26.9750
" />
<path d="M105.1750 26.9750
L124.2250 26.9750
" />
<path d="M124.2250 26.9750
L124.2250 46.0250
" />
<path d="M116.5000 33.3510
L112.9000 33.3510
" />
<path d="M112.9000 33.3510
L112.9000 30.2510
" />
<path d="M112.9000 30.2510
L116.5000 30.2510
" />
<path d="M116.5000 30.2510
L116.5000 33.3510
" />
<path d="M105.1750 41.1250
L86.1250 41.1250
" />
<path d="M86.1250 41.1250
L86.1250 22.0750
" />
<path d="M86.1250 22.0750
L105.1750 22.0750
" />
<path d="M105.1750 22.0750
L105.1750 41.1250
" />
<path d="M97.4500 28.4510
L93.8500 28.4510
" />
<path d="M93.8500 28.4510
L93.8500 25.3510
" />
<path d="M93.8500 25.3510
L97.4500 25.3510
" />
<path d="M97.4500 25.3510
L97.4500 28.4510
" />
<path d="M86.1250 38.6250
L67.0750 38.6250
" />
<path d="M67.0750 38.6250
L67.0750 19.5750
" />
<path d="M67.0750 19.5750
L86.1250 19.5750
" />
<path d="M86.1250 19.5750
L86.1250 38.6250
" />
<path d="M78.4000 25.9510
L74.8000 25.9510
" />
<path d="M74.8000 25.9510
L74.8000 22.8510
" />
<path d="M74.8000 22.8510
L78.4000 22.8510
" />
<path d="M78.4000 22.8510
L78.4000 25.9510
" />
<path d="M67.0750 41.1250
L48.0250 41.1250
" />
<path d="M48.0250 41.1250
L48.0250 22.0750
" />
<path d="M48.0250 22.0750
L67.0750 22.0750
" />
<path d="M67.0750 22.0750
L67.0750 41.1250
" />
<path d="M59.3500 28.4510
L55.7500 28.4510
" />
<path d="M55.7500 28.4510
L55.7500 25.3510
" />
<path d="M55.7500 25.3510
L59.3500 25.3510
" />
<path d="M59.3500 25.3510
L59.3500 28.4510
" />
<path d="M48.0250 43.6750
L28.9750 43.6750
" />
<path d="M28.9750 43.6750
L28.9750 24.6250
" />
<path d="M28.9750 24.6250
L48.0250 24.6250
" />
<path d="M48.0250 24.6250
L48.0250 43.6750
" />
<path d="M40.3000 31.0010
L36.7000 31.0010
" />
<path d="M36.7000 31.0010
L36.7000 27.9010
" />
<path d="M36.7000 27.9010
L40.3000 27.9010
" />
<path d="M40.3000 27.9010
L40.3000 31.0010
" />
<path d="M143.2750 26.9750
L124.2250 26.9750
" />
<path d="M124.2250 26.9750
L124.2250 7.9250
" />
<path d="M124.2250 7.9250
L143.2750 7.9250
" />
<path d="M143.2750 7.9250
L143.2750 26.9750
" />
<path d="M135.5500 14.3010
L131.9500 14.3010
" />
<path d="M131.9500 14.3010
L131.9500 11.2010
" />
<path d="M131.9500 11.2010
L135.5500 11.2010
" />
<path d="M135.5500 11.2010
L135.5500 14.3010
" />
<path d="M124.2250 26.9750
L105.1750 26.9750
" />
<path d="M105.1750 26.9750
L105.1750 7.9250
" />
<path d="M105.1750 7.9250
L124.2250 7.9250
" />
<path d="M124.2250 7.9250
L124.2250 26.9750
" />
<path d="M116.5000 14.3010
L112.9000 14.3010
" />
<path d="M112.9000 14.3010
L112.9000 11.2010
" />
<path d="M112.9000 11.2010
L116.5000 11.2010
" />
<path d="M116.5000 11.2010
L116.5000 14.3010
" />
<path d="M105.1750 22.0750
L86.1250 22.0750
" />
<path d="M86.1250 22.0750
L86.1250 3.0250
" />
<path d="M86.1250 3.0250
L105.1750 3.0250
" />
<path d="M105.1750 3.0250
L105.1750 22.0750
" />
<path d="M97.4500 9.4010
L93.8500 9.4010
" />
<path d="M93.8500 9.4010
L93.8500 6.3010
" />
<path d="M93.8500 6.3010
L97.4500 6.3010
" />
<path d="M97.4500 6.3010
L97.4500 9.4010
" />
<path d="M86.1250 19.5750
L67.0750 19.5750
" />
<path d="M67.0750 19.5750
L67.0750 0.5250
" />
<path d="M67.0750 0.5250
L86.1250 0.5250
" />
<path d="M86.1250 0.5250
L86.1250 19.5750
" />
<path d="M78.4000 6.9010
L74.8000 6.9010
" />
<path d="M74.8000 6.9010
L74.8000 3.8010
" />
<path d="M74.8000 3.8010
L78.4000 3.8010
" />
<path d="M78.4000 3.8010
L78.4000 6.9010
" />
<path d="M67.0750 22.0750
L48.0250 22.0750
" />
<path d="M48.0250 22.0750
L48.0250 3.0250
" />
<path d="M48.0250 3.0250
L67.0750 3.0250
" />
<path d="M67.0750 3.0250
L67.0750 22.0750
" />
<path d="M59.3500 9.4010
L55.7500 9.4010
" />
<path d="M55.7500 9.4010
L55.7500 6.3010
" />
<path d="M55.7500 6.3010
L59.3500 6.3010
" />
<path d="M59.3500 6.3010
L59.3500 9.4010
" />
<path d="M48.0250 24.5750
L28.9750 24.5750
" />
<path d="M28.9750 24.5750
L28.9750 5.5250
" />
<path d="M28.9750 5.5250
L48.0250 5.5250
" />
<path d="M48.0250 5.5250
L48.0250 24.5750
" />
<path d="M40.3000 11.9010
L36.7000 11.9010
" />
<path d="M36.7000 11.9010
L36.7000 8.8010
" />
<path d="M36.7000 8.8010
L40.3000 8.8010
" />
<path d="M40.3000 8.8010
L40.3000 11.9010
" />
<g >
</g>
<g >
</g>
<g >
</g>
<g >
</g>
<g >
</g>
<g >
</g>
<g >
</g>
<g >
</g>
<g >
</g>
<g >
</g>
<g >
</g>
<g >
</g>
<g >
</g>
<g >
</g>
<g >
</g>
<g >
</g>
<g >
</g>
<g >
</g>
<g >
</g>
<g >
</g>
<g >
</g>
<g >
</g>
<g >
</g>
<g >
</g>
<g >
</g>
<g >
</g>
<g >
</g>
<g >
</g>
<g >
</g>
<g >
</g>
<g >
</g>
<g >
</g>
<g >
</g>
<g >
</g>
<g >
</g>
<g >
</g>
<g >
</g>
<g >
</g>
<g >
</g>
<g >
</g>
<g >
</g>
<g >
</g>
<g >
</g>
<g >
</g>
<g >
</g>
<g >
</g>
<g >
</g>
<g >
</g>
<g >
</g>
<g >
</g>
<g >
</g>
<g >
</g>
<g >
</g>
<g >
</g>
<g >
</g>
<g >
</g>
<g >
</g>
<g >
</g>
<g >
</g>
<g >
</g>
<g >
</g>
<g >
</g>
<g >
</g>
<g >
</g>
<g >
</g>
<g >
</g>
<g >
</g>
<g >
</g>
<g >
</g>
<g >
</g>
<g >
</g>
<g >
</g>
<g >
</g>
<g >
</g>
<g >
</g>
<g >
</g>
<g >
</g>
<g >
</g>
<g >
</g>
<g >
</g>
<g >
</g>
<g >
</g>
<g >
</g>
<g >
</g>
<g >
</g>
<g >
</g>
<g >
</g>
</g> 
</svg>
