<?xml version="1.0" encoding="UTF-8" standalone="no"?>
<svg
   version="1.1"
   width="181.1274mm"
   height="192.8368mm"
   viewBox="0.0000 0.0000 181.1274 192.8368"
   id="svg19419"
   sodipodi:docname="Sofle_RGB.svg"
   inkscape:version="1.2 (dc2aeda, 2022-05-15)"
   xmlns:inkscape="http://www.inkscape.org/namespaces/inkscape"
   xmlns:sodipodi="http://sodipodi.sourceforge.net/DTD/sodipodi-0.dtd"
   xmlns="http://www.w3.org/2000/svg"
   xmlns:svg="http://www.w3.org/2000/svg">
  <g
     id="g19945"
     inkscape:label="sofle_RGB">
    <g
       style="fill:#000000; fill-opacity:0.0;  stroke:#000000; stroke-width:0.1000; stroke-opacity:1;  stroke-linecap:round; stroke-linejoin:round;"
       id="g18627">
      <path
         style="fill:#000000; fill-opacity:0.0;  stroke:#000000; stroke-width:0.1000; stroke-opacity:1;  stroke-linecap:round; stroke-linejoin:round;fill:none"
         d="M 58.5467,129.7528 62.0467,129.7528 62.0467,133.2528 58.5467,133.2528 Z"
         id="path18613" />
      <path
         style="fill:#000000; fill-opacity:0.0;  stroke:#000000; stroke-width:0.1000; stroke-opacity:1;  stroke-linecap:round; stroke-linejoin:round;fill:none"
         d="M 61.6467,167.3828 65.1467,167.3828 65.1467,170.8828 61.6467,170.8828 Z"
         id="path18615" />
      <path
         style="fill:#000000; fill-opacity:0.0;  stroke:#000000; stroke-width:0.1000; stroke-opacity:1;  stroke-linecap:round; stroke-linejoin:round;fill:none"
         d="M 101.8803,161.5154 105.3803,161.5154 105.3803,165.0154 101.8803,165.0154 Z"
         id="path18617" />
      <path
         style="fill:#000000; fill-opacity:0.0;  stroke:#000000; stroke-width:0.1000; stroke-opacity:1;  stroke-linecap:round; stroke-linejoin:round;fill:none"
         d="M 137.8467,163.5728 141.3467,163.5728 141.3467,167.0728 137.8467,167.0728 Z"
         id="path18619" />
      <path
         style="fill:#000000; fill-opacity:0.0;  stroke:#000000; stroke-width:0.1000; stroke-opacity:1;  stroke-linecap:round; stroke-linejoin:round;fill:none"
         d="M 150.2967,104.5028 153.7967,104.5028 153.7967,108.0028 150.2967,108.0028 Z"
         id="path18621" />
      <path
         style="fill:#000000; fill-opacity:0.0;  stroke:#000000; stroke-width:0.1000; stroke-opacity:1;  stroke-linecap:round; stroke-linejoin:round;fill:none"
         d="M 111.2967,97.0428 114.7967,97.0428 114.7967,100.5428 111.2967,100.5428 Z"
         id="path18623" />
      <path
         style="fill:#000000; fill-opacity:0.0;  stroke:#000000; stroke-width:0.1000; stroke-opacity:1;  stroke-linecap:round; stroke-linejoin:round;fill:none"
         d="M 73.2967,102.7528 76.7967,102.7528 76.7967,106.2528 73.2967,106.2528 Z"
         id="path18625" />
    </g>
    <g
       style="fill:#000000; fill-opacity:0.0;  stroke:#000000; stroke-width:0.1500; stroke-opacity:1;  stroke-linecap:round; stroke-linejoin:round;"
       id="g18633">
      <path
         style="fill:#000000; fill-opacity:0.0;  stroke:#000000; stroke-width:0.1500; stroke-opacity:1;  stroke-linecap:round; stroke-linejoin:round;fill:none"
         d="M 49.9767,118.3328 60.1367,118.3328 60.1367,120.8728 49.9767,120.8728 Z"
         id="path18629" />
      <circle
         cx="54.5567"
         cy="149.4928"
         r="10.0385"
         id="circle18631" />
    </g>
    <g
       style="fill:#000000; fill-opacity:0.0;  stroke:#000000; stroke-width:0.1000; stroke-opacity:1;  stroke-linecap:round; stroke-linejoin:round;"
       id="g18665">
      <path
         d="M179.8306 89.0006 L179.9170 89.1814 "
         id="path18635" />
      <path
         d="M47.0967 191.2028 L36.8467 173.4028 "
         id="path18637" />
      <path
         d="M125.4967 80.0028 L179.0221 88.4479 "
         id="path18639" />
      <path
         d="M42.8440 83.2480 L42.9111 83.0318 "
         id="path18641" />
      <path
         d="M179.9899 89.5847 L180.0169 164.5028 "
         id="path18643" />
      <path
         d="M43.1580 82.6656 L43.3285 82.5249 "
         id="path18645" />
      <path
         d="M179.9711 89.3773 L179.9899 89.5847 "
         id="path18647" />
      <path
         d="M43.3285 82.5249 L43.5241 82.4187 "
         id="path18649" />
      <path
         d="M179.9170 89.1814 L179.9711 89.3773 "
         id="path18651" />
      <path
         d="M36.7467 171.4028 L42.5467 160.6528 "
         id="path18653" />
      <path
         d="M42.9111 83.0318 L43.0173 82.8361 "
         id="path18655" />
      <path
         d="M42.8206 83.4802 L42.8440 83.2480 "
         id="path18657" />
      <path
         d="M179.2238 88.4995 L179.4086 88.5842 "
         id="path18659" />
      <path
         d="M179.0221 88.4479 L179.2238 88.4995 "
         id="path18661" />
      <path
         d="M43.0173 82.8361 L43.1580 82.6656 "
         id="path18663" />
    </g>
    <g
       style="fill:#000000; fill-opacity:0.0;  stroke:#000000; stroke-width:0.1500; stroke-opacity:1;  stroke-linecap:round; stroke-linejoin:round;"
       id="g18673">
      <path
         d="M58.8131 176.0825 L54.9160 178.3325 "
         id="path18667" />
      <path
         d="M73.0444 169.7756 L69.6637 170.6814 "
         id="path18669" />
      <path
         d="M53.1660 175.3014 L57.0631 173.0514 "
         id="path18671" />
    </g>
    <g
       style="fill:#000000; fill-opacity:0.0;  stroke:#000000; stroke-width:0.1000; stroke-opacity:1;  stroke-linecap:round; stroke-linejoin:round;"
       id="g18687">
      <path
         d="M47.0967 191.2028 L47.4467 191.5028 "
         id="path18675" />
      <path
         d="M92.7008 179.0028 L142.0467 179.0028 "
         id="path18677" />
      <path
         d="M103.5467 80.0028 L43.9726 82.3282 "
         id="path18679" />
      <path
         d="M42.8220 159.4028 L42.7467 160.0528 "
         id="path18681" />
      <path
         d="M36.8467 173.4028 L36.6967 172.9028 "
         id="path18683" />
      <path
         d="M36.6467 171.9028 L36.7467 171.4028 "
         id="path18685" />
    </g>
    <g
       style="fill:#000000; fill-opacity:0.0;  stroke:#000000; stroke-width:0.1500; stroke-opacity:1;  stroke-linecap:round; stroke-linejoin:round;"
       id="g18691">
      <path
         d="M69.6637 170.6814 L68.4990 166.3348 "
         id="path18689" />
    </g>
    <g
       style="fill:#000000; fill-opacity:0.0;  stroke:#000000; stroke-width:0.1000; stroke-opacity:1;  stroke-linecap:round; stroke-linejoin:round;"
       id="g18695">
      <path
         d="M36.6467 172.3028 L36.6467 171.9028 "
         id="path18693" />
    </g>
    <g
       style="fill:#000000; fill-opacity:0.0;  stroke:#000000; stroke-width:0.1500; stroke-opacity:1;  stroke-linecap:round; stroke-linejoin:round;"
       id="g18701">
      <path
         d="M133.8967 108.2512 L130.3967 108.2512 "
         id="path18697" />
      <path
         d="M71.8797 165.4289 L73.0444 169.7756 "
         id="path18699" />
    </g>
    <g
       style="fill:#000000; fill-opacity:0.0;  stroke:#000000; stroke-width:0.1000; stroke-opacity:1;  stroke-linecap:round; stroke-linejoin:round;"
       id="g18705">
      <path
         d="M42.7467 160.0528 L42.5467 160.6528 "
         id="path18703" />
    </g>
    <g
       style="fill:#000000; fill-opacity:0.0;  stroke:#000000; stroke-width:0.1500; stroke-opacity:1;  stroke-linecap:round; stroke-linejoin:round;"
       id="g18709">
      <path
         d="M130.3967 108.2512 L130.3967 103.7512 "
         id="path18707" />
    </g>
    <g
       style="fill:#000000; fill-opacity:0.0;  stroke:#000000; stroke-width:0.1000; stroke-opacity:1;  stroke-linecap:round; stroke-linejoin:round;"
       id="g18715">
      <path
         d="M47.8967 191.6528 L48.4467 191.7528 "
         id="path18711" />
      <path
         d="M36.6967 172.9028 L36.6467 172.3028 "
         id="path18713" />
    </g>
    <g
       style="fill:#000000; fill-opacity:0.0;  stroke:#000000; stroke-width:0.1500; stroke-opacity:1;  stroke-linecap:round; stroke-linejoin:round;"
       id="g18721">
      <path
         d="M54.9160 178.3325 L53.1660 175.3014 "
         id="path18717" />
      <path
         d="M57.0631 173.0514 L58.8131 176.0825 "
         id="path18719" />
    </g>
    <g
       style="fill:#000000; fill-opacity:0.0;  stroke:#000000; stroke-width:0.1000; stroke-opacity:1;  stroke-linecap:round; stroke-linejoin:round;"
       id="g18725">
      <path
         d="M47.4467 191.5028 L47.8967 191.6528 "
         id="path18723" />
    </g>
    <g
       style="fill:#000000; fill-opacity:0.0;  stroke:#000000; stroke-width:0.1500; stroke-opacity:1;  stroke-linecap:round; stroke-linejoin:round;"
       id="g18793">
      <path
         d="M180.0169 164.5028 L142.0467 179.0028 "
         id="path18727" />
      <path
         d="M68.4990 166.3348 L71.8797 165.4289 "
         id="path18729" />
      <path
         d="M95.7967 122.9528 L95.7967 127.4528 "
         id="path18731" />
      <path
         d="M92.2967 122.9528 L95.7967 122.9528 "
         id="path18733" />
      <path
         d="M92.2967 103.9528 L95.7967 103.9528 "
         id="path18735" />
      <path
         d="M114.8967 101.3336 L114.8967 105.8336 "
         id="path18737" />
      <path
         d="M76.7967 110.8528 L73.2967 110.8528 "
         id="path18739" />
      <path
         d="M95.7967 127.4528 L92.2967 127.4528 "
         id="path18741" />
      <path
         d="M114.8967 124.9590 L111.3967 124.9590 "
         id="path18743" />
      <path
         d="M95.7967 103.9528 L95.7967 108.4528 "
         id="path18745" />
      <path
         d="M76.7967 106.3528 L76.7967 110.8528 "
         id="path18747" />
      <path
         d="M111.3967 105.8336 L111.3967 101.3336 "
         id="path18749" />
      <path
         d="M111.3967 101.3336 L114.8967 101.3336 "
         id="path18751" />
      <path
         d="M73.2967 106.3528 L76.7967 106.3528 "
         id="path18753" />
      <path
         d="M76.7967 125.3528 L76.7967 129.8528 "
         id="path18755" />
      <path
         d="M95.7967 108.4528 L92.2967 108.4528 "
         id="path18757" />
      <path
         d="M76.7967 129.8528 L73.2967 129.8528 "
         id="path18759" />
      <path
         d="M92.2967 108.4528 L92.2967 103.9528 "
         id="path18761" />
      <path
         d="M130.3967 103.7512 L133.8967 103.7512 "
         id="path18763" />
      <path
         d="M73.2967 110.8528 L73.2967 106.3528 "
         id="path18765" />
      <path
         d="M73.2967 129.8528 L73.2967 125.3528 "
         id="path18767" />
      <path
         d="M114.8967 105.8336 L111.3967 105.8336 "
         id="path18769" />
      <path
         d="M133.8967 103.7512 L133.8967 108.2512 "
         id="path18771" />
      <path
         d="M73.2967 125.3528 L76.7967 125.3528 "
         id="path18773" />
      <path
         d="M92.2967 127.4528 L92.2967 122.9528 "
         id="path18775" />
      <path
         d="M111.3967 82.2336 L114.8967 82.2336 "
         id="path18777" />
      <path
         d="M168.4967 132.2923 L168.4967 127.7923 "
         id="path18779" />
      <path
         d="M95.7967 84.7512 L95.7967 89.2512 "
         id="path18781" />
      <path
         d="M171.9967 113.0288 L168.4967 113.0288 "
         id="path18783" />
      <path
         d="M171.9967 132.2923 L168.4967 132.2923 "
         id="path18785" />
      <path
         d="M149.4967 113.0528 L149.4967 108.5528 "
         id="path18787" />
      <path
         d="M171.9967 94.1542 L168.4967 94.1542 "
         id="path18789" />
      <path
         d="M130.3967 89.3528 L130.3967 84.8528 "
         id="path18791" />
    </g>
    <g
       style="fill:#000000; fill-opacity:0.0;  stroke:#000000; stroke-width:0.1000; stroke-opacity:1;  stroke-linecap:round; stroke-linejoin:round;"
       id="g18797">
      <path
         d="M42.8220 159.4028 L42.8206 83.4802 "
         id="path18795" />
    </g>
    <g
       style="fill:#000000; fill-opacity:0.0;  stroke:#000000; stroke-width:0.1500; stroke-opacity:1;  stroke-linecap:round; stroke-linejoin:round;"
       id="g18811">
      <path
         d="M171.9967 108.5288 L171.9967 113.0288 "
         id="path18799" />
      <path
         d="M149.4967 89.6528 L152.9967 89.6528 "
         id="path18801" />
      <path
         d="M168.4967 113.0288 L168.4967 108.5288 "
         id="path18803" />
      <path
         d="M171.9967 89.6542 L171.9967 94.1542 "
         id="path18805" />
      <path
         d="M152.9967 89.6528 L152.9967 94.1528 "
         id="path18807" />
      <path
         d="M133.8967 84.8528 L133.8967 89.3528 "
         id="path18809" />
    </g>
    <g
       style="fill:#000000; fill-opacity:0.0;  stroke:#000000; stroke-width:0.1000; stroke-opacity:1;  stroke-linecap:round; stroke-linejoin:round;"
       id="g18815">
      <path
         d="M179.7150 88.8383 L179.8306 89.0006 "
         id="path18813" />
    </g>
    <g
       style="fill:#000000; fill-opacity:0.0;  stroke:#000000; stroke-width:0.1500; stroke-opacity:1;  stroke-linecap:round; stroke-linejoin:round;"
       id="g18821">
      <path
         d="M168.4967 89.6542 L171.9967 89.6542 "
         id="path18817" />
      <path
         d="M92.2967 89.2512 L92.2967 84.7512 "
         id="path18819" />
    </g>
    <g
       style="fill:#000000; fill-opacity:0.0;  stroke:#000000; stroke-width:0.1000; stroke-opacity:1;  stroke-linecap:round; stroke-linejoin:round;"
       id="g18825">
      <path
         d="M179.4086 88.5842 L179.5733 88.6984 "
         id="path18823" />
    </g>
    <g
       style="fill:#000000; fill-opacity:0.0;  stroke:#000000; stroke-width:0.1500; stroke-opacity:1;  stroke-linecap:round; stroke-linejoin:round;"
       id="g18857">
      <path
         d="M152.9967 94.1528 L149.4967 94.1528 "
         id="path18827" />
      <path
         d="M152.9967 108.5528 L152.9967 113.0528 "
         id="path18829" />
      <path
         d="M95.7967 89.2512 L92.2967 89.2512 "
         id="path18831" />
      <path
         d="M168.5467 146.7288 L172.0467 146.7288 "
         id="path18833" />
      <path
         d="M168.4967 127.7923 L171.9967 127.7923 "
         id="path18835" />
      <path
         d="M114.8967 86.7336 L111.3967 86.7336 "
         id="path18837" />
      <path
         d="M149.4967 108.5528 L152.9967 108.5528 "
         id="path18839" />
      <path
         d="M168.4967 94.1542 L168.4967 89.6542 "
         id="path18841" />
      <path
         d="M73.2967 91.7528 L73.2967 87.2528 "
         id="path18843" />
      <path
         d="M76.7967 87.2528 L76.7967 91.7528 "
         id="path18845" />
      <path
         d="M152.9967 113.0528 L149.4967 113.0528 "
         id="path18847" />
      <path
         d="M149.4967 94.1528 L149.4967 89.6528 "
         id="path18849" />
      <path
         d="M114.8967 82.2336 L114.8967 86.7336 "
         id="path18851" />
      <path
         d="M92.2967 84.7512 L95.7967 84.7512 "
         id="path18853" />
      <path
         d="M73.2967 87.2528 L76.7967 87.2528 "
         id="path18855" />
    </g>
    <g
       style="fill:#000000; fill-opacity:0.0;  stroke:#000000; stroke-width:0.1000; stroke-opacity:1;  stroke-linecap:round; stroke-linejoin:round;"
       id="g18865">
      <path
         d="M103.5467 80.0028 L125.4967 80.0028 "
         id="path18859" />
      <path
         d="M43.5241 82.4187 L43.7404 82.3516 "
         id="path18861" />
      <path
         d="M43.7404 82.3516 L43.9726 82.3282 "
         id="path18863" />
    </g>
    <g
       style="fill:#000000; fill-opacity:0.0;  stroke:#000000; stroke-width:0.1500; stroke-opacity:1;  stroke-linecap:round; stroke-linejoin:round;"
       id="g18877">
      <path
         d="M111.3967 86.7336 L111.3967 82.2336 "
         id="path18867" />
      <path
         d="M168.4967 108.5288 L171.9967 108.5288 "
         id="path18869" />
      <path
         d="M133.8967 89.3528 L130.3967 89.3528 "
         id="path18871" />
      <path
         d="M130.3967 84.8528 L133.8967 84.8528 "
         id="path18873" />
      <path
         d="M76.7967 91.7528 L73.2967 91.7528 "
         id="path18875" />
    </g>
    <g
       style="fill:#000000; fill-opacity:0.0;  stroke:#000000; stroke-width:0.1000; stroke-opacity:1;  stroke-linecap:round; stroke-linejoin:round;"
       id="g18881">
      <path
         d="M179.5733 88.6984 L179.7150 88.8383 "
         id="path18879" />
    </g>
    <g
       style="fill:#000000; fill-opacity:0.0;  stroke:#000000; stroke-width:0.1500; stroke-opacity:1;  stroke-linecap:round; stroke-linejoin:round;"
       id="g18885">
      <path
         d="M171.9967 127.7923 L171.9967 132.2923 "
         id="path18883" />
    </g>
    <g
       style="fill:#000000; fill-opacity:0.0;  stroke:#000000; stroke-width:0.1000; stroke-opacity:1;  stroke-linecap:round; stroke-linejoin:round;"
       id="g18889">
      <path
         d="M92.7008 179.0028 L48.4467 191.7528 "
         id="path18887" />
    </g>
    <g
       style="fill:#000000; fill-opacity:0.0;  stroke:#000000; stroke-width:0.1500; stroke-opacity:1;  stroke-linecap:round; stroke-linejoin:round;"
       id="g18983">
      <path
         d="M95.7967 146.5528 L92.2967 146.5528 "
         id="path18891" />
      <path
         d="M133.8967 127.4528 L130.3967 127.4528 "
         id="path18893" />
      <path
         d="M149.4967 151.2528 L149.4967 146.7528 "
         id="path18895" />
      <path
         d="M152.9967 127.7528 L152.9967 132.2528 "
         id="path18897" />
      <path
         d="M133.8967 146.5528 L130.3967 146.5528 "
         id="path18899" />
      <path
         d="M130.3967 127.4528 L130.3967 122.9528 "
         id="path18901" />
      <path
         d="M111.3967 143.9336 L111.3967 139.4336 "
         id="path18903" />
      <path
         d="M92.2967 146.5528 L92.2967 142.0528 "
         id="path18905" />
      <path
         d="M76.7967 148.8528 L73.2967 148.8528 "
         id="path18907" />
      <path
         d="M130.3967 146.5528 L130.3967 142.0528 "
         id="path18909" />
      <path
         d="M152.9967 146.7528 L152.9967 151.2528 "
         id="path18911" />
      <path
         d="M76.7967 144.3528 L76.7967 148.8528 "
         id="path18913" />
      <path
         d="M95.7971 160.9520 L95.7971 165.4520 "
         id="path18915" />
      <path
         d="M114.8971 163.0390 L111.3971 163.0390 "
         id="path18917" />
      <path
         d="M111.3971 163.0390 L111.3971 158.5390 "
         id="path18919" />
      <path
         d="M149.4967 132.2528 L149.4967 127.7528 "
         id="path18921" />
      <path
         d="M133.8967 122.9528 L133.8967 127.4528 "
         id="path18923" />
      <path
         d="M114.8967 139.4336 L114.8967 143.9336 "
         id="path18925" />
      <path
         d="M111.3967 139.4336 L114.8967 139.4336 "
         id="path18927" />
      <path
         d="M130.3967 122.9528 L133.8967 122.9528 "
         id="path18929" />
      <path
         d="M152.9967 132.2528 L149.4967 132.2528 "
         id="path18931" />
      <path
         d="M95.7967 142.0528 L95.7967 146.5528 "
         id="path18933" />
      <path
         d="M111.3971 158.5390 L114.8971 158.5390 "
         id="path18935" />
      <path
         d="M130.3955 165.5380 L130.3955 161.0380 "
         id="path18937" />
      <path
         d="M130.3955 161.0380 L133.8955 161.0380 "
         id="path18939" />
      <path
         d="M152.9967 151.2528 L149.4967 151.2528 "
         id="path18941" />
      <path
         d="M172.0467 151.2288 L168.5467 151.2288 "
         id="path18943" />
      <path
         d="M168.5467 151.2288 L168.5467 146.7288 "
         id="path18945" />
      <path
         d="M172.0467 146.7288 L172.0467 151.2288 "
         id="path18947" />
      <path
         d="M133.8955 165.5380 L130.3955 165.5380 "
         id="path18949" />
      <path
         d="M114.8967 120.4590 L114.8967 124.9590 "
         id="path18951" />
      <path
         d="M130.3967 142.0528 L133.8967 142.0528 "
         id="path18953" />
      <path
         d="M92.2967 142.0528 L95.7967 142.0528 "
         id="path18955" />
      <path
         d="M73.2967 148.8528 L73.2967 144.3528 "
         id="path18957" />
      <path
         d="M92.2971 165.4520 L92.2971 160.9520 "
         id="path18959" />
      <path
         d="M111.3967 124.9590 L111.3967 120.4590 "
         id="path18961" />
      <path
         d="M149.4967 146.7528 L152.9967 146.7528 "
         id="path18963" />
      <path
         d="M111.3967 120.4590 L114.8967 120.4590 "
         id="path18965" />
      <path
         d="M92.2971 160.9520 L95.7971 160.9520 "
         id="path18967" />
      <path
         d="M73.2967 144.3528 L76.7967 144.3528 "
         id="path18969" />
      <path
         d="M114.8967 143.9336 L111.3967 143.9336 "
         id="path18971" />
      <path
         d="M95.7971 165.4520 L92.2971 165.4520 "
         id="path18973" />
      <path
         d="M149.4967 127.7528 L152.9967 127.7528 "
         id="path18975" />
      <path
         d="M114.8971 158.5390 L114.8971 163.0390 "
         id="path18977" />
      <path
         d="M133.8967 142.0528 L133.8967 146.5528 "
         id="path18979" />
      <path
         d="M133.8955 161.0380 L133.8955 165.5380 "
         id="path18981" />
    </g>
    <g
       style="fill:#000000; fill-opacity:0.0;  stroke:#000000; stroke-width:0.1000; stroke-opacity:1;  stroke-linecap:round; stroke-linejoin:round;"
       id="g19417">
      <path
         d="M160.8217 87.8778 L179.8717 87.8778 "
         id="path18985" />
      <path
         d="M179.8717 87.8778 L179.8717 106.9278 "
         id="path18987" />
      <path
         d="M179.8717 106.9278 L160.8217 106.9278 "
         id="path18989" />
      <path
         d="M160.8217 106.9278 L160.8217 87.8778 "
         id="path18991" />
      <path
         d="M103.6217 137.6678 L122.6717 137.6678 "
         id="path18993" />
      <path
         d="M122.6717 137.6678 L122.6717 156.7178 "
         id="path18995" />
      <path
         d="M122.6717 156.7178 L103.6217 156.7178 "
         id="path18997" />
      <path
         d="M103.6217 156.7178 L103.6217 137.6678 "
         id="path18999" />
      <path
         d="M141.7217 144.9778 L160.7717 144.9778 "
         id="path19001" />
      <path
         d="M160.7717 144.9778 L160.7717 164.0278 "
         id="path19003" />
      <path
         d="M160.7717 164.0278 L141.7217 164.0278 "
         id="path19005" />
      <path
         d="M141.7217 164.0278 L141.7217 144.9778 "
         id="path19007" />
      <path
         d="M160.7217 106.7778 L179.7717 106.7778 "
         id="path19009" />
      <path
         d="M179.7717 106.7778 L179.7717 125.8278 "
         id="path19011" />
      <path
         d="M179.7717 125.8278 L160.7217 125.8278 "
         id="path19013" />
      <path
         d="M160.7217 125.8278 L160.7217 106.7778 "
         id="path19015" />
      <path
         d="M141.7217 106.7778 L160.7717 106.7778 "
         id="path19017" />
      <path
         d="M160.7717 106.7778 L160.7717 125.8278 "
         id="path19019" />
      <path
         d="M160.7717 125.8278 L141.7217 125.8278 "
         id="path19021" />
      <path
         d="M141.7217 125.8278 L141.7217 106.7778 "
         id="path19023" />
      <path
         d="M141.7217 125.9778 L160.7717 125.9778 "
         id="path19025" />
      <path
         d="M160.7717 125.9778 L160.7717 145.0278 "
         id="path19027" />
      <path
         d="M160.7717 145.0278 L141.7217 145.0278 "
         id="path19029" />
      <path
         d="M141.7217 145.0278 L141.7217 125.9778 "
         id="path19031" />
      <path
         d="M84.5217 82.9778 L103.5717 82.9778 "
         id="path19033" />
      <path
         d="M103.5717 82.9778 L103.5717 102.0278 "
         id="path19035" />
      <path
         d="M103.5717 102.0278 L84.5217 102.0278 "
         id="path19037" />
      <path
         d="M84.5217 102.0278 L84.5217 82.9778 "
         id="path19039" />
      <path
         d="M122.6217 159.2778 L141.6717 159.2778 "
         id="path19041" />
      <path
         d="M141.6717 159.2778 L141.6717 178.3278 "
         id="path19043" />
      <path
         d="M141.6717 178.3278 L122.6217 178.3278 "
         id="path19045" />
      <path
         d="M122.6217 178.3278 L122.6217 159.2778 "
         id="path19047" />
      <path
         d="M103.6217 156.7678 L122.6717 156.7678 "
         id="path19049" />
      <path
         d="M122.6717 156.7678 L122.6717 175.8178 "
         id="path19051" />
      <path
         d="M122.6717 175.8178 L103.6217 175.8178 "
         id="path19053" />
      <path
         d="M103.6217 175.8178 L103.6217 156.7678 "
         id="path19055" />
      <path
         d="M84.5217 159.1778 L103.5717 159.1778 "
         id="path19057" />
      <path
         d="M103.5717 159.1778 L103.5717 178.2278 "
         id="path19059" />
      <path
         d="M103.5717 178.2278 L84.5217 178.2278 "
         id="path19061" />
      <path
         d="M84.5217 178.2278 L84.5217 159.1778 "
         id="path19063" />
      <path
         d="M60.4810 166.6676 L78.8819 161.7371 "
         id="path19065" />
      <path
         d="M78.8819 161.7371 L83.8124 180.1380 "
         id="path19067" />
      <path
         d="M83.8124 180.1380 L65.4115 185.0685 "
         id="path19069" />
      <path
         d="M65.4115 185.0685 L60.4810 166.6676 "
         id="path19071" />
      <path
         d="M54.7431 165.3914 L64.2681 181.8892 "
         id="path19073" />
      <path
         d="M64.2681 181.8892 L47.7703 191.4142 "
         id="path19075" />
      <path
         d="M47.7703 191.4142 L38.2453 174.9164 "
         id="path19077" />
      <path
         d="M38.2453 174.9164 L54.7431 165.3914 "
         id="path19079" />
      <path
         d="M160.7717 144.9778 L179.8217 144.9778 "
         id="path19081" />
      <path
         d="M179.8217 144.9778 L179.8217 164.0278 "
         id="path19083" />
      <path
         d="M179.8217 164.0278 L160.7717 164.0278 "
         id="path19085" />
      <path
         d="M160.7717 164.0278 L160.7717 144.9778 "
         id="path19087" />
      <path
         d="M122.6217 140.1778 L141.6717 140.1778 "
         id="path19089" />
      <path
         d="M141.6717 140.1778 L141.6717 159.2278 "
         id="path19091" />
      <path
         d="M141.6717 159.2278 L122.6217 159.2278 "
         id="path19093" />
      <path
         d="M122.6217 159.2278 L122.6217 140.1778 "
         id="path19095" />
      <path
         d="M84.5217 140.1778 L103.5717 140.1778 "
         id="path19097" />
      <path
         d="M103.5717 140.1778 L103.5717 159.2278 "
         id="path19099" />
      <path
         d="M103.5717 159.2278 L84.5217 159.2278 "
         id="path19101" />
      <path
         d="M84.5217 159.2278 L84.5217 140.1778 "
         id="path19103" />
      <path
         d="M65.5217 142.5778 L84.5717 142.5778 "
         id="path19105" />
      <path
         d="M84.5717 142.5778 L84.5717 161.6278 "
         id="path19107" />
      <path
         d="M84.5717 161.6278 L65.5217 161.6278 "
         id="path19109" />
      <path
         d="M65.5217 161.6278 L65.5217 142.5778 "
         id="path19111" />
      <path
         d="M160.7217 125.9778 L179.7717 125.9778 "
         id="path19113" />
      <path
         d="M179.7717 125.9778 L179.7717 145.0278 "
         id="path19115" />
      <path
         d="M179.7717 145.0278 L160.7217 145.0278 "
         id="path19117" />
      <path
         d="M160.7217 145.0278 L160.7217 125.9778 "
         id="path19119" />
      <path
         d="M122.6217 121.0778 L141.6717 121.0778 "
         id="path19121" />
      <path
         d="M141.6717 121.0778 L141.6717 140.1278 "
         id="path19123" />
      <path
         d="M141.6717 140.1278 L122.6217 140.1278 "
         id="path19125" />
      <path
         d="M122.6217 140.1278 L122.6217 121.0778 "
         id="path19127" />
      <path
         d="M103.6217 118.6678 L122.6717 118.6678 "
         id="path19129" />
      <path
         d="M122.6717 118.6678 L122.6717 137.7178 "
         id="path19131" />
      <path
         d="M122.6717 137.7178 L103.6217 137.7178 "
         id="path19133" />
      <path
         d="M103.6217 137.7178 L103.6217 118.6678 "
         id="path19135" />
      <path
         d="M84.5217 121.0778 L103.5717 121.0778 "
         id="path19137" />
      <path
         d="M103.5717 121.0778 L103.5717 140.1278 "
         id="path19139" />
      <path
         d="M103.5717 140.1278 L84.5217 140.1278 "
         id="path19141" />
      <path
         d="M84.5217 140.1278 L84.5217 121.0778 "
         id="path19143" />
      <path
         d="M65.5217 123.5778 L84.5717 123.5778 "
         id="path19145" />
      <path
         d="M84.5717 123.5778 L84.5717 142.6278 "
         id="path19147" />
      <path
         d="M84.5717 142.6278 L65.5217 142.6278 "
         id="path19149" />
      <path
         d="M65.5217 142.6278 L65.5217 123.5778 "
         id="path19151" />
      <path
         d="M122.6217 101.9778 L141.6717 101.9778 "
         id="path19153" />
      <path
         d="M141.6717 101.9778 L141.6717 121.0278 "
         id="path19155" />
      <path
         d="M141.6717 121.0278 L122.6217 121.0278 "
         id="path19157" />
      <path
         d="M122.6217 121.0278 L122.6217 101.9778 "
         id="path19159" />
      <path
         d="M103.6217 99.5678 L122.6717 99.5678 "
         id="path19161" />
      <path
         d="M122.6717 99.5678 L122.6717 118.6178 "
         id="path19163" />
      <path
         d="M122.6717 118.6178 L103.6217 118.6178 "
         id="path19165" />
      <path
         d="M103.6217 118.6178 L103.6217 99.5678 "
         id="path19167" />
      <path
         d="M84.5217 102.0778 L103.5717 102.0778 "
         id="path19169" />
      <path
         d="M103.5717 102.0778 L103.5717 121.1278 "
         id="path19171" />
      <path
         d="M103.5717 121.1278 L84.5217 121.1278 "
         id="path19173" />
      <path
         d="M84.5217 121.1278 L84.5217 102.0778 "
         id="path19175" />
      <path
         d="M65.5217 104.5778 L84.5717 104.5778 "
         id="path19177" />
      <path
         d="M84.5717 104.5778 L84.5717 123.6278 "
         id="path19179" />
      <path
         d="M84.5717 123.6278 L65.5217 123.6278 "
         id="path19181" />
      <path
         d="M65.5217 123.6278 L65.5217 104.5778 "
         id="path19183" />
      <path
         d="M141.7217 87.8778 L160.7717 87.8778 "
         id="path19185" />
      <path
         d="M160.7717 87.8778 L160.7717 106.9278 "
         id="path19187" />
      <path
         d="M160.7717 106.9278 L141.7217 106.9278 "
         id="path19189" />
      <path
         d="M141.7217 106.9278 L141.7217 87.8778 "
         id="path19191" />
      <path
         d="M122.6217 82.9778 L141.6717 82.9778 "
         id="path19193" />
      <path
         d="M141.6717 82.9778 L141.6717 102.0278 "
         id="path19195" />
      <path
         d="M141.6717 102.0278 L122.6217 102.0278 "
         id="path19197" />
      <path
         d="M122.6217 102.0278 L122.6217 82.9778 "
         id="path19199" />
      <path
         d="M103.6217 80.4778 L122.6717 80.4778 "
         id="path19201" />
      <path
         d="M122.6717 80.4778 L122.6717 99.5278 "
         id="path19203" />
      <path
         d="M122.6717 99.5278 L103.6217 99.5278 "
         id="path19205" />
      <path
         d="M103.6217 99.5278 L103.6217 80.4778 "
         id="path19207" />
      <path
         d="M65.5217 85.4778 L84.5717 85.4778 "
         id="path19209" />
      <path
         d="M84.5717 85.4778 L84.5717 104.5278 "
         id="path19211" />
      <path
         d="M84.5717 104.5278 L65.5217 104.5278 "
         id="path19213" />
      <path
         d="M65.5217 104.5278 L65.5217 85.4778 "
         id="path19215" />
      <g
         id="g19217" />
      <g
         id="g19219" />
      <g
         id="g19221" />
      <g
         id="g19223" />
      <g
         id="g19225" />
      <g
         id="g19227" />
      <g
         id="g19229" />
      <g
         id="g19231" />
      <g
         id="g19233" />
      <g
         id="g19235" />
      <g
         id="g19237" />
      <g
         id="g19239" />
      <g
         id="g19241" />
      <g
         id="g19243" />
      <g
         id="g19245" />
      <g
         id="g19247" />
      <g
         id="g19249" />
      <g
         id="g19251" />
      <g
         id="g19253" />
      <g
         id="g19255" />
      <g
         id="g19257" />
      <g
         id="g19259" />
      <g
         id="g19261" />
      <g
         id="g19263" />
      <g
         id="g19265" />
      <g
         id="g19267" />
      <g
         id="g19269" />
      <g
         id="g19271" />
      <g
         id="g19273" />
      <g
         id="g19275" />
      <g
         id="g19277" />
      <g
         id="g19279" />
      <g
         id="g19281" />
      <g
         id="g19283" />
      <g
         id="g19285" />
      <g
         id="g19287" />
      <g
         id="g19289" />
      <g
         id="g19291" />
      <g
         id="g19293" />
      <g
         id="g19295" />
      <g
         id="g19297" />
      <g
         id="g19299" />
      <g
         id="g19301" />
      <g
         id="g19303" />
      <g
         id="g19305" />
      <g
         id="g19307" />
      <g
         id="g19309" />
      <g
         id="g19311" />
      <g
         id="g19313" />
      <g
         id="g19315" />
      <g
         id="g19317" />
      <g
         id="g19319" />
      <g
         id="g19321" />
      <g
         id="g19323" />
      <g
         id="g19325" />
      <g
         id="g19327" />
      <g
         id="g19329" />
      <g
         id="g19331" />
      <g
         id="g19333" />
      <g
         id="g19335" />
      <g
         id="g19337" />
      <g
         id="g19339" />
      <g
         id="g19341" />
      <g
         id="g19343" />
      <g
         id="g19345" />
      <g
         id="g19347" />
      <g
         id="g19349" />
      <g
         id="g19351" />
      <g
         id="g19353" />
      <g
         id="g19355" />
      <g
         id="g19357" />
      <g
         id="g19359" />
      <g
         id="g19361" />
      <g
         id="g19363" />
      <g
         id="g19365" />
      <g
         id="g19367" />
      <g
         id="g19369" />
      <g
         id="g19371" />
      <g
         id="g19373" />
      <g
         id="g19375" />
      <g
         id="g19377" />
      <g
         id="g19379" />
      <g
         id="g19381" />
      <g
         id="g19383" />
      <g
         id="g19385" />
      <g
         id="g19387" />
      <g
         id="g19389" />
      <g
         id="g19391" />
      <g
         id="g19393" />
      <g
         id="g19395" />
      <g
         id="g19397" />
      <g
         id="g19399" />
      <g
         id="g19401" />
      <g
         id="g19403" />
      <g
         id="g19405" />
      <g
         id="g19407" />
      <g
         id="g19409" />
      <g
         id="g19411" />
      <g
         id="g19413" />
      <g
         id="g19415" />
    </g>
  </g>
  <defs
     id="defs19423" />
  <sodipodi:namedview
     id="namedview19421"
     pagecolor="#ffffff"
     bordercolor="#000000"
     borderopacity="0.25"
     inkscape:showpageshadow="2"
     inkscape:pageopacity="0.0"
     inkscape:pagecheckerboard="0"
     inkscape:deskcolor="#d1d1d1"
     inkscape:document-units="mm"
     showgrid="false"
     inkscape:zoom="1.4091038"
     inkscape:cx="358.02898"
     inkscape:cy="357.3193"
     inkscape:window-width="2560"
     inkscape:window-height="1293"
     inkscape:window-x="1728"
     inkscape:window-y="332"
     inkscape:window-maximized="0"
     inkscape:current-layer="svg19419" />
  <title
     id="title18605">SVG Image created as SofleKeyboard-brd.svg date 2024/02/29 09:42:08 </title>
  <desc
     id="desc18607">Image generated by PCBNEW </desc>
</svg>
