<?xml version="1.0" standalone="no"?>
 <!DOCTYPE svg PUBLIC "-//W3C//DTD SVG 1.1//EN" 
 "http://www.w3.org/Graphics/SVG/1.1/DTD/svg11.dtd"> 
<svg
  xmlns:svg="http://www.w3.org/2000/svg"
  xmlns="http://www.w3.org/2000/svg"
  xmlns:xlink="http://www.w3.org/1999/xlink"
  version="1.1"
  width="143.6370mm" height="115.6462mm" viewBox="0.0000 0.0000 143.6370 115.6462">
<title>SVG Image created as SofleKeyboard-brd.svg date 2024/02/28 19:10:49 </title>
  <desc>Image generated by PCBNEW </desc>
<g style="fill:#000000; fill-opacity:1.0000;stroke:#000000; stroke-opacity:1.0000;
stroke-linecap:round; stroke-linejoin:round;"
 transform="translate(0 0) scale(1 1)">
</g>
<g style="fill:#000000; fill-opacity:0.0; 
stroke:#000000; stroke-width:0.0000; stroke-opacity:1; 
stroke-linecap:round; stroke-linejoin:round;">
</g>
<g style="fill:#000000; fill-opacity:0.0; 
stroke:#000000; stroke-width:0.1500; stroke-opacity:1; 
stroke-linecap:round; stroke-linejoin:round;">
<path d="M0.0750 90.5750
L14.5750 115.5750
" />
<path d="M68.5750 0.0750
L68.5750 2.5750
" />
<path d="M86.5750 2.5750
L86.5750 0.0750
" />
<path d="M143.5750 87.5750
L143.5750 11.5750
" />
<path d="M8.5750 64.4630
L8.5750 65.0750
" />
<path d="M105.5750 97.5750
L143.5750 87.5750
" />
<path d="M8.5750 5.0750
L8.5750 64.4630
" />
<path d="M8.5750 85.5750
L6.0750 87.0750
" />
<path d="M49.5750 2.5750
L49.5750 5.0750
" />
<path d="M14.5750 115.5750
L31.5750 105.5750
" />
<path d="M6.0750 87.0750
L0.0750 90.5750
" />
<circle cx="18.0550" cy="71.0130" r="10.0385" /> 
<path d="M30.0750 5.0750
L8.5750 5.0750
" />
<path d="M8.5750 65.0750
L8.5750 85.5750
" />
<path d="M105.5750 2.5750
L86.5750 2.5750
" />
<path d="M49.0750 97.5750
L105.5750 97.5750
" />
<path d="M105.5750 11.5750
L105.5750 2.5750
" />
<path d="M143.5750 11.5750
L105.5750 11.5750
" />
<path d="M86.5750 0.0750
L68.5750 0.0750
" />
<path style="fill:#000000; fill-opacity:0.0; 
stroke:#000000; stroke-width:0.1500; stroke-opacity:1; 
stroke-linecap:round; stroke-linejoin:round;fill:none"
d="M 13.8750,37.6630
24.0350,37.6630
24.0350,40.2030
13.8750,40.2030
Z" /> 
<path d="M68.5750 2.5750
L49.5750 2.5750
" />
<path d="M49.5750 5.0750
L30.0750 5.0750
" />
<path d="M31.5750 105.5750
L49.0750 97.5750
" />
</g>
<g style="fill:#000000; fill-opacity:0.0; 
stroke:#000000; stroke-width:0.1000; stroke-opacity:1; 
stroke-linecap:round; stroke-linejoin:round;">
<path d="M48.8700 24.0480
L29.8200 24.0480
" />
<path d="M29.8200 24.0480
L29.8200 4.9980
" />
<path d="M29.8200 4.9980
L48.8700 4.9980
" />
<path d="M48.8700 4.9980
L48.8700 24.0480
" />
<path d="M48.8700 43.1480
L29.8200 43.1480
" />
<path d="M29.8200 43.1480
L29.8200 24.0980
" />
<path d="M29.8200 24.0980
L48.8700 24.0980
" />
<path d="M48.8700 24.0980
L48.8700 43.1480
" />
<path d="M48.8700 62.1480
L29.8200 62.1480
" />
<path d="M29.8200 62.1480
L29.8200 43.0980
" />
<path d="M29.8200 43.0980
L48.8700 43.0980
" />
<path d="M48.8700 43.0980
L48.8700 62.1480
" />
<path d="M48.8700 81.1480
L29.8200 81.1480
" />
<path d="M29.8200 81.1480
L29.8200 62.0980
" />
<path d="M29.8200 62.0980
L48.8700 62.0980
" />
<path d="M48.8700 62.0980
L48.8700 81.1480
" />
<path d="M12.0586 110.9444
L2.5336 94.4466
" />
<path d="M2.5336 94.4466
L19.0314 84.9216
" />
<path d="M19.0314 84.9216
L28.5564 101.4194
" />
<path d="M28.5564 101.4194
L12.0586 110.9444
" />
<path d="M48.9345 97.9691
L31.3989 105.4125
" />
<path d="M31.3989 105.4125
L23.9555 87.8769
" />
<path d="M23.9555 87.8769
L41.4911 80.4335
" />
<path d="M41.4911 80.4335
L48.9345 97.9691
" />
<path d="M67.8700 97.8480
L48.8200 97.8480
" />
<path d="M48.8200 97.8480
L48.8200 78.7980
" />
<path d="M48.8200 78.7980
L67.8700 78.7980
" />
<path d="M67.8700 78.7980
L67.8700 97.8480
" />
<path d="M86.8700 95.2480
L67.8200 95.2480
" />
<path d="M67.8200 95.2480
L67.8200 76.1980
" />
<path d="M67.8200 76.1980
L86.8700 76.1980
" />
<path d="M86.8700 76.1980
L86.8700 95.2480
" />
<path d="M67.8700 59.6480
L48.8200 59.6480
" />
<path d="M48.8200 59.6480
L48.8200 40.5980
" />
<path d="M48.8200 40.5980
L67.8700 40.5980
" />
<path d="M67.8700 40.5980
L67.8700 59.6480
" />
<path d="M67.8700 78.7480
L48.8200 78.7480
" />
<path d="M48.8200 78.7480
L48.8200 59.6980
" />
<path d="M48.8200 59.6980
L67.8700 59.6980
" />
<path d="M67.8700 59.6980
L67.8700 78.7480
" />
<path d="M67.8700 40.6480
L48.8200 40.6480
" />
<path d="M48.8200 40.6480
L48.8200 21.5980
" />
<path d="M48.8200 21.5980
L67.8700 21.5980
" />
<path d="M67.8700 21.5980
L67.8700 40.6480
" />
<path d="M67.8700 21.5480
L48.8200 21.5480
" />
<path d="M48.8200 21.5480
L48.8200 2.4980
" />
<path d="M48.8200 2.4980
L67.8700 2.4980
" />
<path d="M67.8700 2.4980
L67.8700 21.5480
" />
<path d="M86.8700 57.2480
L67.8200 57.2480
" />
<path d="M67.8200 57.2480
L67.8200 38.1980
" />
<path d="M67.8200 38.1980
L86.8700 38.1980
" />
<path d="M86.8700 38.1980
L86.8700 57.2480
" />
<path d="M86.8700 19.0580
L67.8200 19.0580
" />
<path d="M67.8200 19.0580
L67.8200 0.0080
" />
<path d="M67.8200 0.0080
L86.8700 0.0080
" />
<path d="M86.8700 0.0080
L86.8700 19.0580
" />
<path d="M86.8700 38.1480
L67.8200 38.1480
" />
<path d="M67.8200 38.1480
L67.8200 19.0980
" />
<path d="M67.8200 19.0980
L86.8700 19.0980
" />
<path d="M86.8700 19.0980
L86.8700 38.1480
" />
<path d="M86.8700 76.2480
L67.8200 76.2480
" />
<path d="M67.8200 76.2480
L67.8200 57.1980
" />
<path d="M67.8200 57.1980
L86.8700 57.1980
" />
<path d="M86.8700 57.1980
L86.8700 76.2480
" />
<path d="M105.8700 78.7480
L86.8200 78.7480
" />
<path d="M86.8200 78.7480
L86.8200 59.6980
" />
<path d="M86.8200 59.6980
L105.8700 59.6980
" />
<path d="M105.8700 59.6980
L105.8700 78.7480
" />
<path d="M105.8700 40.5480
L86.8200 40.5480
" />
<path d="M86.8200 40.5480
L86.8200 21.4980
" />
<path d="M86.8200 21.4980
L105.8700 21.4980
" />
<path d="M105.8700 21.4980
L105.8700 40.5480
" />
<path d="M105.8700 97.7480
L86.8200 97.7480
" />
<path d="M86.8200 97.7480
L86.8200 78.6980
" />
<path d="M86.8200 78.6980
L105.8700 78.6980
" />
<path d="M105.8700 78.6980
L105.8700 97.7480
" />
<path d="M105.8700 59.6480
L86.8200 59.6480
" />
<path d="M86.8200 59.6480
L86.8200 40.5980
" />
<path d="M86.8200 40.5980
L105.8700 40.5980
" />
<path d="M105.8700 40.5980
L105.8700 59.6480
" />
<path d="M105.8700 21.5480
L86.8200 21.5480
" />
<path d="M86.8200 21.5480
L86.8200 2.4980
" />
<path d="M86.8200 2.4980
L105.8700 2.4980
" />
<path d="M105.8700 2.4980
L105.8700 21.5480
" />
<path d="M124.8700 30.5480
L105.8200 30.5480
" />
<path d="M105.8200 30.5480
L105.8200 11.4980
" />
<path d="M105.8200 11.4980
L124.8700 11.4980
" />
<path d="M124.8700 11.4980
L124.8700 30.5480
" />
<path d="M124.8700 87.6480
L105.8200 87.6480
" />
<path d="M105.8200 87.6480
L105.8200 68.5980
" />
<path d="M105.8200 68.5980
L124.8700 68.5980
" />
<path d="M124.8700 68.5980
L124.8700 87.6480
" />
<path d="M143.8700 68.6480
L124.8200 68.6480
" />
<path d="M124.8200 68.6480
L124.8200 49.5980
" />
<path d="M124.8200 49.5980
L143.8700 49.5980
" />
<path d="M143.8700 49.5980
L143.8700 68.6480
" />
<path d="M143.9200 87.6480
L124.8700 87.6480
" />
<path d="M124.8700 87.6480
L124.8700 68.5980
" />
<path d="M124.8700 68.5980
L143.9200 68.5980
" />
<path d="M143.9200 68.5980
L143.9200 87.6480
" />
<path d="M143.8700 30.5480
L124.8200 30.5480
" />
<path d="M124.8200 30.5480
L124.8200 11.4980
" />
<path d="M124.8200 11.4980
L143.8700 11.4980
" />
<path d="M143.8700 11.4980
L143.8700 30.5480
" />
<path d="M143.8700 49.4480
L124.8200 49.4480
" />
<path d="M124.8200 49.4480
L124.8200 30.3980
" />
<path d="M124.8200 30.3980
L143.8700 30.3980
" />
<path d="M143.8700 30.3980
L143.8700 49.4480
" />
<path d="M124.8700 68.6480
L105.8200 68.6480
" />
<path d="M105.8200 68.6480
L105.8200 49.5980
" />
<path d="M105.8200 49.5980
L124.8700 49.5980
" />
<path d="M124.8700 49.5980
L124.8700 68.6480
" />
<path d="M124.8700 49.4480
L105.8200 49.4480
" />
<path d="M105.8200 49.4480
L105.8200 30.3980
" />
<path d="M105.8200 30.3980
L124.8700 30.3980
" />
<path d="M124.8700 30.3980
L124.8700 49.4480
" />
<g >
</g>
<g >
</g>
<g >
</g>
<g >
</g>
<g >
</g>
<g >
</g>
<g >
</g>
<g >
</g>
<g >
</g>
<g >
</g>
<g >
</g>
<g >
</g>
<g >
</g>
<g >
</g>
<g >
</g>
<g >
</g>
<g >
</g>
<g >
</g>
<g >
</g>
<g >
</g>
<g >
</g>
<g >
</g>
<g >
</g>
<g >
</g>
<g >
</g>
<g >
</g>
<g >
</g>
<g >
</g>
<g >
</g>
<g >
</g>
<g >
</g>
<g >
</g>
<g >
</g>
<g >
</g>
<g >
</g>
<g >
</g>
<g >
</g>
<g >
</g>
<g >
</g>
<g >
</g>
<g >
</g>
<g >
</g>
<g >
</g>
<g >
</g>
<g >
</g>
<g >
</g>
<g >
</g>
<g >
</g>
<g >
</g>
<g >
</g>
<g >
</g>
<g >
</g>
<g >
</g>
<g >
</g>
<g >
</g>
<g >
</g>
<g >
</g>
<g >
</g>
<g >
</g>
<g >
</g>
<g >
</g>
<g >
</g>
<g >
</g>
<g >
</g>
<g >
</g>
<g >
</g>
<g >
</g>
<g >
</g>
<g >
</g>
<g >
</g>
<g >
</g>
<g >
</g>
<g >
</g>
<g >
</g>
<g >
</g>
<g >
</g>
<g >
</g>
<g >
</g>
<g >
</g>
<g >
</g>
<g >
</g>
<g >
</g>
<g >
</g>
<g >
</g>
<g >
</g>
<g >
</g>
<g >
</g>
<g >
</g>
<g >
</g>
<g >
</g>
<g >
</g>
<g >
</g>
</g> 
</svg>
