<?xml version="1.0" encoding="UTF-8" standalone="no"?>
<svg
   version="1.1"
   width="145.5420mm"
   height="116.4082mm"
   viewBox="0.0000 0.0000 145.5420 116.4082"
   id="svg51414"
   sodipodi:docname="Sofle_Pico.svg"
   inkscape:version="1.2 (dc2aeda, 2022-05-15)"
   xmlns:inkscape="http://www.inkscape.org/namespaces/inkscape"
   xmlns:sodipodi="http://sodipodi.sourceforge.net/DTD/sodipodi-0.dtd"
   xmlns="http://www.w3.org/2000/svg"
   xmlns:svg="http://www.w3.org/2000/svg">
  <g
     id="g51912"
     inkscape:label="sofle_pico">
    <g
       style="fill:#000000; fill-opacity:0.0;  stroke:#000000; stroke-width:0.1500; stroke-opacity:1;  stroke-linecap:round; stroke-linejoin:round;"
       id="g50670">
      <path
         style="fill:#000000; fill-opacity:0.0;  stroke:#000000; stroke-width:0.1500; stroke-opacity:1;  stroke-linecap:round; stroke-linejoin:round;fill:none"
         d="M 1.0145,15.3001 3.5970,15.3001 3.5970,35.6501 1.0145,35.6501 Z"
         id="path50664" />
      <path
         style="fill:#000000; fill-opacity:0.0;  stroke:#000000; stroke-width:0.1500; stroke-opacity:1;  stroke-linecap:round; stroke-linejoin:round;fill:none"
         d="M 26.2220,15.3001 28.7645,15.3001 28.7645,35.7251 26.2220,35.7251 Z"
         id="path50666" />
      <circle
         cx="18.6570"
         cy="70.5901"
         r="10.0385"
         id="circle50668" />
    </g>
    <g
       style="fill:#000000; fill-opacity:0.0;  stroke:#000000; stroke-width:0.1000; stroke-opacity:1;  stroke-linecap:round; stroke-linejoin:round;"
       id="g50678">
      <path
         d="M0.0502 93.6301 A1.5020 1.5020 0.0 0 0 0.2137 94.3378"
         id="path50672" />
      <path
         d="M86.8218 0.0750 L1.5506 0.0750 "
         id="path50674" />
      <path
         d="M0.2137 94.3378 L11.0247 115.5547 "
         id="path50676" />
    </g>
    <g
       style="fill:#000000; fill-opacity:0.0;  stroke:#000000; stroke-width:0.1500; stroke-opacity:1;  stroke-linecap:round; stroke-linejoin:round;"
       id="g50690">
      <path
         d="M144.5661 86.5522 A1.4998 1.4998 0.0 0 0 145.4718 85.1750"
         id="path50680" />
      <path
         d="M86.8218 0.0750 L144.1357 7.4740 "
         id="path50682" />
      <path
         d="M67.7718 100.8250 L105.8718 100.8250 "
         id="path50684" />
      <path
         d="M105.8718 100.8250 L144.5661 86.5523 "
         id="path50686" />
      <path
         d="M145.4718 8.9750 A1.5111 1.5111 0.0 0 0 144.1357 7.4740"
         id="path50688" />
    </g>
    <g
       style="fill:#000000; fill-opacity:0.0;  stroke:#000000; stroke-width:0.1000; stroke-opacity:1;  stroke-linecap:round; stroke-linejoin:round;"
       id="g50698">
      <path
         d="M1.5506 0.0750 A1.5004 1.5004 0.0 0 0 0.0502 1.5754"
         id="path50692" />
      <path
         d="M0.0502 1.5754 L0.0502 93.6301 "
         id="path50694" />
      <path
         d="M12.7571 116.3206 L67.7718 100.8250 "
         id="path50696" />
    </g>
    <g
       style="fill:#000000; fill-opacity:0.0;  stroke:#000000; stroke-width:0.1500; stroke-opacity:1;  stroke-linecap:round; stroke-linejoin:round;"
       id="g50702">
      <path
         d="M145.4718 8.9750 L145.4718 85.1750 "
         id="path50700" />
    </g>
    <g
       style="fill:#000000; fill-opacity:0.0;  stroke:#000000; stroke-width:0.1000; stroke-opacity:1;  stroke-linecap:round; stroke-linejoin:round;"
       id="g50706">
      <path
         d="M11.0247 115.5547 A1.4999 1.4999 0.0 0 0 12.7571 116.3206"
         id="path50704" />
    </g>
    <g
       style="fill:#000000; fill-opacity:0.0;  stroke:#000000; stroke-width:0.1200; stroke-opacity:1;  stroke-linecap:round; stroke-linejoin:round;"
       id="g50940">
      <path
         d="M56.5020 7.2301 L59.9020 7.2301 "
         id="path50708" />
      <path
         d="M59.9020 7.2301 L59.9020 10.2301 "
         id="path50710" />
      <path
         d="M59.9020 10.2301 L56.5020 10.2301 "
         id="path50712" />
      <path
         d="M56.5020 10.2301 L56.5020 7.2301 "
         id="path50714" />
      <path
         d="M32.9128 88.7988 L36.1969 87.9188 "
         id="path50716" />
      <path
         d="M36.1969 87.9188 L36.9734 90.8166 "
         id="path50718" />
      <path
         d="M36.9734 90.8166 L33.6892 91.6966 "
         id="path50720" />
      <path
         d="M33.6892 91.6966 L32.9128 88.7988 "
         id="path50722" />
      <path
         d="M113.6520 50.2301 L117.0520 50.2301 "
         id="path50724" />
      <path
         d="M117.0520 50.2301 L117.0520 53.2301 "
         id="path50726" />
      <path
         d="M117.0520 53.2301 L113.6520 53.2301 "
         id="path50728" />
      <path
         d="M113.6520 53.2301 L113.6520 50.2301 "
         id="path50730" />
      <path
         d="M20.3262 95.4942 L21.8698 98.5237 "
         id="path50732" />
      <path
         d="M21.8698 98.5237 L19.1968 99.8856 "
         id="path50734" />
      <path
         d="M19.1968 99.8856 L17.6532 96.8562 "
         id="path50736" />
      <path
         d="M17.6532 96.8562 L20.3262 95.4942 "
         id="path50738" />
      <path
         d="M113.6520 31.1801 L117.0520 31.1801 "
         id="path50740" />
      <path
         d="M117.0520 31.1801 L117.0520 34.1801 "
         id="path50742" />
      <path
         d="M117.0520 34.1801 L113.6520 34.1801 "
         id="path50744" />
      <path
         d="M113.6520 34.1801 L113.6520 31.1801 "
         id="path50746" />
      <path
         d="M113.6520 12.1301 L117.0520 12.1301 "
         id="path50748" />
      <path
         d="M117.0520 12.1301 L117.0520 15.1301 "
         id="path50750" />
      <path
         d="M117.0520 15.1301 L113.6520 15.1301 "
         id="path50752" />
      <path
         d="M113.6520 15.1301 L113.6520 12.1301 "
         id="path50754" />
      <path
         d="M113.6520 69.2801 L117.0520 69.2801 "
         id="path50756" />
      <path
         d="M117.0520 69.2801 L117.0520 72.2801 "
         id="path50758" />
      <path
         d="M117.0520 72.2801 L113.6520 72.2801 "
         id="path50760" />
      <path
         d="M113.6520 72.2801 L113.6520 69.2801 "
         id="path50762" />
      <path
         d="M56.5020 26.2801 L59.9020 26.2801 "
         id="path50764" />
      <path
         d="M59.9020 26.2801 L59.9020 29.2801 "
         id="path50766" />
      <path
         d="M59.9020 29.2801 L56.5020 29.2801 "
         id="path50768" />
      <path
         d="M56.5020 29.2801 L56.5020 26.2801 "
         id="path50770" />
      <path
         d="M94.6020 64.3801 L98.0020 64.3801 "
         id="path50772" />
      <path
         d="M98.0020 64.3801 L98.0020 67.3801 "
         id="path50774" />
      <path
         d="M98.0020 67.3801 L94.6020 67.3801 "
         id="path50776" />
      <path
         d="M94.6020 67.3801 L94.6020 64.3801 "
         id="path50778" />
      <path
         d="M75.5520 61.8801 L78.9520 61.8801 "
         id="path50780" />
      <path
         d="M78.9520 61.8801 L78.9520 64.8801 "
         id="path50782" />
      <path
         d="M78.9520 64.8801 L75.5520 64.8801 "
         id="path50784" />
      <path
         d="M75.5520 64.8801 L75.5520 61.8801 "
         id="path50786" />
      <path
         d="M132.7020 50.2301 L136.1020 50.2301 "
         id="path50788" />
      <path
         d="M136.1020 50.2301 L136.1020 53.2301 "
         id="path50790" />
      <path
         d="M136.1020 53.2301 L132.7020 53.2301 "
         id="path50792" />
      <path
         d="M132.7020 53.2301 L132.7020 50.2301 "
         id="path50794" />
      <path
         d="M37.4520 47.8301 L40.8520 47.8301 "
         id="path50796" />
      <path
         d="M40.8520 47.8301 L40.8520 50.8301 "
         id="path50798" />
      <path
         d="M40.8520 50.8301 L37.4520 50.8301 "
         id="path50800" />
      <path
         d="M37.4520 50.8301 L37.4520 47.8301 "
         id="path50802" />
      <path
         d="M94.6020 26.2801 L98.0020 26.2801 "
         id="path50804" />
      <path
         d="M98.0020 26.2801 L98.0020 29.2801 "
         id="path50806" />
      <path
         d="M98.0020 29.2801 L94.6020 29.2801 "
         id="path50808" />
      <path
         d="M94.6020 29.2801 L94.6020 26.2801 "
         id="path50810" />
      <path
         d="M56.5020 64.3801 L59.9020 64.3801 "
         id="path50812" />
      <path
         d="M59.9020 64.3801 L59.9020 67.3801 "
         id="path50814" />
      <path
         d="M59.9020 67.3801 L56.5020 67.3801 "
         id="path50816" />
      <path
         d="M56.5020 67.3801 L56.5020 64.3801 "
         id="path50818" />
      <path
         d="M132.7020 12.1301 L136.1020 12.1301 "
         id="path50820" />
      <path
         d="M136.1020 12.1301 L136.1020 15.1301 "
         id="path50822" />
      <path
         d="M136.1020 15.1301 L132.7020 15.1301 "
         id="path50824" />
      <path
         d="M132.7020 15.1301 L132.7020 12.1301 "
         id="path50826" />
      <path
         d="M37.4520 9.7301 L40.8520 9.7301 "
         id="path50828" />
      <path
         d="M40.8520 9.7301 L40.8520 12.7301 "
         id="path50830" />
      <path
         d="M40.8520 12.7301 L37.4520 12.7301 "
         id="path50832" />
      <path
         d="M37.4520 12.7301 L37.4520 9.7301 "
         id="path50834" />
      <path
         d="M75.5520 4.7301 L78.9520 4.7301 "
         id="path50836" />
      <path
         d="M78.9520 4.7301 L78.9520 7.7301 "
         id="path50838" />
      <path
         d="M78.9520 7.7301 L75.5520 7.7301 "
         id="path50840" />
      <path
         d="M75.5520 7.7301 L75.5520 4.7301 "
         id="path50842" />
      <path
         d="M75.5520 80.9301 L78.9520 80.9301 "
         id="path50844" />
      <path
         d="M78.9520 80.9301 L78.9520 83.9301 "
         id="path50846" />
      <path
         d="M78.9520 83.9301 L75.5520 83.9301 "
         id="path50848" />
      <path
         d="M75.5520 83.9301 L75.5520 80.9301 "
         id="path50850" />
      <path
         d="M75.5520 23.7801 L78.9520 23.7801 "
         id="path50852" />
      <path
         d="M78.9520 23.7801 L78.9520 26.7801 "
         id="path50854" />
      <path
         d="M78.9520 26.7801 L75.5520 26.7801 "
         id="path50856" />
      <path
         d="M75.5520 26.7801 L75.5520 23.7801 "
         id="path50858" />
      <path
         d="M56.5020 83.4301 L59.9020 83.4301 "
         id="path50860" />
      <path
         d="M59.9020 83.4301 L59.9020 86.4301 "
         id="path50862" />
      <path
         d="M59.9020 86.4301 L56.5020 86.4301 "
         id="path50864" />
      <path
         d="M56.5020 86.4301 L56.5020 83.4301 "
         id="path50866" />
      <path
         d="M37.4520 28.7801 L40.8520 28.7801 "
         id="path50868" />
      <path
         d="M40.8520 28.7801 L40.8520 31.7801 "
         id="path50870" />
      <path
         d="M40.8520 31.7801 L37.4520 31.7801 "
         id="path50872" />
      <path
         d="M37.4520 31.7801 L37.4520 28.7801 "
         id="path50874" />
      <path
         d="M94.6020 7.2301 L98.0020 7.2301 "
         id="path50876" />
      <path
         d="M98.0020 7.2301 L98.0020 10.2301 "
         id="path50878" />
      <path
         d="M98.0020 10.2301 L94.6020 10.2301 "
         id="path50880" />
      <path
         d="M94.6020 10.2301 L94.6020 7.2301 "
         id="path50882" />
      <path
         d="M37.4520 66.8801 L40.8520 66.8801 "
         id="path50884" />
      <path
         d="M40.8520 66.8801 L40.8520 69.8801 "
         id="path50886" />
      <path
         d="M40.8520 69.8801 L37.4520 69.8801 "
         id="path50888" />
      <path
         d="M37.4520 69.8801 L37.4520 66.8801 "
         id="path50890" />
      <path
         d="M94.6020 45.3301 L98.0020 45.3301 "
         id="path50892" />
      <path
         d="M98.0020 45.3301 L98.0020 48.3301 "
         id="path50894" />
      <path
         d="M98.0020 48.3301 L94.6020 48.3301 "
         id="path50896" />
      <path
         d="M94.6020 48.3301 L94.6020 45.3301 "
         id="path50898" />
      <path
         d="M56.5020 45.3301 L59.9020 45.3301 "
         id="path50900" />
      <path
         d="M59.9020 45.3301 L59.9020 48.3301 "
         id="path50902" />
      <path
         d="M59.9020 48.3301 L56.5020 48.3301 "
         id="path50904" />
      <path
         d="M56.5020 48.3301 L56.5020 45.3301 "
         id="path50906" />
      <path
         d="M75.5520 42.8301 L78.9520 42.8301 "
         id="path50908" />
      <path
         d="M78.9520 42.8301 L78.9520 45.8301 "
         id="path50910" />
      <path
         d="M78.9520 45.8301 L75.5520 45.8301 "
         id="path50912" />
      <path
         d="M75.5520 45.8301 L75.5520 42.8301 "
         id="path50914" />
      <path
         d="M132.7020 31.1801 L136.1020 31.1801 "
         id="path50916" />
      <path
         d="M136.1020 31.1801 L136.1020 34.1801 "
         id="path50918" />
      <path
         d="M136.1020 34.1801 L132.7020 34.1801 "
         id="path50920" />
      <path
         d="M132.7020 34.1801 L132.7020 31.1801 "
         id="path50922" />
      <path
         d="M132.7020 69.2801 L136.1020 69.2801 "
         id="path50924" />
      <path
         d="M136.1020 69.2801 L136.1020 72.2801 "
         id="path50926" />
      <path
         d="M136.1020 72.2801 L132.7020 72.2801 "
         id="path50928" />
      <path
         d="M132.7020 72.2801 L132.7020 69.2801 "
         id="path50930" />
      <path
         d="M94.6020 83.4301 L98.0020 83.4301 "
         id="path50932" />
      <path
         d="M98.0020 83.4301 L98.0020 86.4301 "
         id="path50934" />
      <path
         d="M98.0020 86.4301 L94.6020 86.4301 "
         id="path50936" />
      <path
         d="M94.6020 86.4301 L94.6020 83.4301 "
         id="path50938" />
    </g>
    <g
       style="fill:#000000; fill-opacity:0.0;  stroke:#000000; stroke-width:0.1000; stroke-opacity:1;  stroke-linecap:round; stroke-linejoin:round;"
       id="g51412">
      <path
         d="M48.7220 6.5751 L29.6720 6.5751 "
         id="path50942" />
      <path
         d="M29.6720 6.5751 L29.6720 25.6251 "
         id="path50944" />
      <path
         d="M29.6720 25.6251 L48.7220 25.6251 "
         id="path50946" />
      <path
         d="M48.7220 25.6251 L48.7220 6.5751 "
         id="path50948" />
      <path
         d="M86.8220 1.5751 L67.7720 1.5751 "
         id="path50950" />
      <path
         d="M67.7720 1.5751 L67.7720 20.6251 "
         id="path50952" />
      <path
         d="M67.7720 20.6251 L86.8220 20.6251 "
         id="path50954" />
      <path
         d="M86.8220 20.6251 L86.8220 1.5751 "
         id="path50956" />
      <path
         d="M48.7220 44.6751 L29.6720 44.6751 "
         id="path50958" />
      <path
         d="M29.6720 44.6751 L29.6720 63.7251 "
         id="path50960" />
      <path
         d="M29.6720 63.7251 L48.7220 63.7251 "
         id="path50962" />
      <path
         d="M48.7220 63.7251 L48.7220 44.6751 "
         id="path50964" />
      <path
         d="M67.7720 42.1751 L48.7220 42.1751 "
         id="path50966" />
      <path
         d="M48.7220 42.1751 L48.7220 61.2251 "
         id="path50968" />
      <path
         d="M48.7220 61.2251 L67.7720 61.2251 "
         id="path50970" />
      <path
         d="M67.7720 61.2251 L67.7720 42.1751 "
         id="path50972" />
      <path
         d="M86.8220 58.7251 L67.7720 58.7251 "
         id="path50974" />
      <path
         d="M67.7720 58.7251 L67.7720 77.7751 "
         id="path50976" />
      <path
         d="M67.7720 77.7751 L86.8220 77.7751 "
         id="path50978" />
      <path
         d="M86.8220 77.7751 L86.8220 58.7251 "
         id="path50980" />
      <path
         d="M124.9220 66.1251 L105.8720 66.1251 "
         id="path50982" />
      <path
         d="M105.8720 66.1251 L105.8720 85.1751 "
         id="path50984" />
      <path
         d="M105.8720 85.1751 L124.9220 85.1751 "
         id="path50986" />
      <path
         d="M124.9220 85.1751 L124.9220 66.1251 "
         id="path50988" />
      <path
         d="M28.2538 104.1035 L19.6053 87.1298 "
         id="path50990" />
      <path
         d="M19.6053 87.1298 L2.6316 95.7784 "
         id="path50992" />
      <path
         d="M2.6316 95.7784 L11.2801 112.7520 "
         id="path50994" />
      <path
         d="M11.2801 112.7520 L28.2538 104.1035 "
         id="path50996" />
      <path
         d="M42.9822 82.8344 L24.5813 87.7649 "
         id="path50998" />
      <path
         d="M24.5813 87.7649 L29.5118 106.1658 "
         id="path51000" />
      <path
         d="M29.5118 106.1658 L47.9127 101.2353 "
         id="path51002" />
      <path
         d="M47.9127 101.2353 L42.9822 82.8344 "
         id="path51004" />
      <path
         d="M143.9720 28.0251 L124.9220 28.0251 "
         id="path51006" />
      <path
         d="M124.9220 28.0251 L124.9220 47.0751 "
         id="path51008" />
      <path
         d="M124.9220 47.0751 L143.9720 47.0751 "
         id="path51010" />
      <path
         d="M143.9720 47.0751 L143.9720 28.0251 "
         id="path51012" />
      <path
         d="M143.9720 47.0751 L124.9220 47.0751 "
         id="path51014" />
      <path
         d="M124.9220 47.0751 L124.9220 66.1251 "
         id="path51016" />
      <path
         d="M124.9220 66.1251 L143.9720 66.1251 "
         id="path51018" />
      <path
         d="M143.9720 66.1251 L143.9720 47.0751 "
         id="path51020" />
      <path
         d="M143.9720 66.1251 L124.9220 66.1251 "
         id="path51022" />
      <path
         d="M124.9220 66.1251 L124.9220 85.1751 "
         id="path51024" />
      <path
         d="M124.9220 85.1751 L143.9720 85.1751 "
         id="path51026" />
      <path
         d="M143.9720 85.1751 L143.9720 66.1251 "
         id="path51028" />
      <path
         d="M105.8720 4.0751 L86.8220 4.0751 "
         id="path51030" />
      <path
         d="M86.8220 4.0751 L86.8220 23.1251 "
         id="path51032" />
      <path
         d="M86.8220 23.1251 L105.8720 23.1251 "
         id="path51034" />
      <path
         d="M105.8720 23.1251 L105.8720 4.0751 "
         id="path51036" />
      <path
         d="M124.9220 8.9751 L105.8720 8.9751 "
         id="path51038" />
      <path
         d="M105.8720 8.9751 L105.8720 28.0251 "
         id="path51040" />
      <path
         d="M105.8720 28.0251 L124.9220 28.0251 "
         id="path51042" />
      <path
         d="M124.9220 28.0251 L124.9220 8.9751 "
         id="path51044" />
      <path
         d="M67.7720 23.1251 L48.7220 23.1251 "
         id="path51046" />
      <path
         d="M48.7220 23.1251 L48.7220 42.1751 "
         id="path51048" />
      <path
         d="M48.7220 42.1751 L67.7720 42.1751 "
         id="path51050" />
      <path
         d="M67.7720 42.1751 L67.7720 23.1251 "
         id="path51052" />
      <path
         d="M105.8720 23.1251 L86.8220 23.1251 "
         id="path51054" />
      <path
         d="M86.8220 23.1251 L86.8220 42.1751 "
         id="path51056" />
      <path
         d="M86.8220 42.1751 L105.8720 42.1751 "
         id="path51058" />
      <path
         d="M105.8720 42.1751 L105.8720 23.1251 "
         id="path51060" />
      <path
         d="M86.8220 20.6251 L67.7720 20.6251 "
         id="path51062" />
      <path
         d="M67.7720 20.6251 L67.7720 39.6751 "
         id="path51064" />
      <path
         d="M67.7720 39.6751 L86.8220 39.6751 "
         id="path51066" />
      <path
         d="M86.8220 39.6751 L86.8220 20.6251 "
         id="path51068" />
      <path
         d="M105.8720 42.1751 L86.8220 42.1751 "
         id="path51070" />
      <path
         d="M86.8220 42.1751 L86.8220 61.2251 "
         id="path51072" />
      <path
         d="M86.8220 61.2251 L105.8720 61.2251 "
         id="path51074" />
      <path
         d="M105.8720 61.2251 L105.8720 42.1751 "
         id="path51076" />
      <path
         d="M143.9720 8.9751 L124.9220 8.9751 "
         id="path51078" />
      <path
         d="M124.9220 8.9751 L124.9220 28.0251 "
         id="path51080" />
      <path
         d="M124.9220 28.0251 L143.9720 28.0251 "
         id="path51082" />
      <path
         d="M143.9720 28.0251 L143.9720 8.9751 "
         id="path51084" />
      <path
         d="M48.7220 25.6251 L29.6720 25.6251 "
         id="path51086" />
      <path
         d="M29.6720 25.6251 L29.6720 44.6751 "
         id="path51088" />
      <path
         d="M29.6720 44.6751 L48.7220 44.6751 "
         id="path51090" />
      <path
         d="M48.7220 44.6751 L48.7220 25.6251 "
         id="path51092" />
      <path
         d="M105.8720 80.2751 L86.8220 80.2751 "
         id="path51094" />
      <path
         d="M86.8220 80.2751 L86.8220 99.3251 "
         id="path51096" />
      <path
         d="M86.8220 99.3251 L105.8720 99.3251 "
         id="path51098" />
      <path
         d="M105.8720 99.3251 L105.8720 80.2751 "
         id="path51100" />
      <path
         d="M124.9220 28.0251 L105.8720 28.0251 "
         id="path51102" />
      <path
         d="M105.8720 28.0251 L105.8720 47.0751 "
         id="path51104" />
      <path
         d="M105.8720 47.0751 L124.9220 47.0751 "
         id="path51106" />
      <path
         d="M124.9220 47.0751 L124.9220 28.0251 "
         id="path51108" />
      <path
         d="M105.8720 61.2251 L86.8220 61.2251 "
         id="path51110" />
      <path
         d="M86.8220 61.2251 L86.8220 80.2751 "
         id="path51112" />
      <path
         d="M86.8220 80.2751 L105.8720 80.2751 "
         id="path51114" />
      <path
         d="M105.8720 80.2751 L105.8720 61.2251 "
         id="path51116" />
      <path
         d="M124.9220 47.0751 L105.8720 47.0751 "
         id="path51118" />
      <path
         d="M105.8720 47.0751 L105.8720 66.1251 "
         id="path51120" />
      <path
         d="M105.8720 66.1251 L124.9220 66.1251 "
         id="path51122" />
      <path
         d="M124.9220 66.1251 L124.9220 47.0751 "
         id="path51124" />
      <path
         d="M86.8220 77.7751 L67.7720 77.7751 "
         id="path51126" />
      <path
         d="M67.7720 77.7751 L67.7720 96.8251 "
         id="path51128" />
      <path
         d="M67.7720 96.8251 L86.8220 96.8251 "
         id="path51130" />
      <path
         d="M86.8220 96.8251 L86.8220 77.7751 "
         id="path51132" />
      <path
         d="M86.8220 39.6751 L67.7720 39.6751 "
         id="path51134" />
      <path
         d="M67.7720 39.6751 L67.7720 58.7251 "
         id="path51136" />
      <path
         d="M67.7720 58.7251 L86.8220 58.7251 "
         id="path51138" />
      <path
         d="M86.8220 58.7251 L86.8220 39.6751 "
         id="path51140" />
      <path
         d="M67.7720 4.0751 L48.7220 4.0751 "
         id="path51142" />
      <path
         d="M48.7220 4.0751 L48.7220 23.1251 "
         id="path51144" />
      <path
         d="M48.7220 23.1251 L67.7720 23.1251 "
         id="path51146" />
      <path
         d="M67.7720 23.1251 L67.7720 4.0751 "
         id="path51148" />
      <path
         d="M67.7720 61.2251 L48.7220 61.2251 "
         id="path51150" />
      <path
         d="M48.7220 61.2251 L48.7220 80.2751 "
         id="path51152" />
      <path
         d="M48.7220 80.2751 L67.7720 80.2751 "
         id="path51154" />
      <path
         d="M67.7720 80.2751 L67.7720 61.2251 "
         id="path51156" />
      <path
         d="M67.7720 80.2751 L48.7220 80.2751 "
         id="path51158" />
      <path
         d="M48.7220 80.2751 L48.7220 99.3251 "
         id="path51160" />
      <path
         d="M48.7220 99.3251 L67.7720 99.3251 "
         id="path51162" />
      <path
         d="M67.7720 99.3251 L67.7720 80.2751 "
         id="path51164" />
      <path
         d="M48.7220 63.7251 L29.6720 63.7251 "
         id="path51166" />
      <path
         d="M29.6720 63.7251 L29.6720 82.7751 "
         id="path51168" />
      <path
         d="M29.6720 82.7751 L48.7220 82.7751 "
         id="path51170" />
      <path
         d="M48.7220 82.7751 L48.7220 63.7251 "
         id="path51172" />
      <g
         id="g51174" />
      <g
         id="g51176" />
      <g
         id="g51178" />
      <g
         id="g51180" />
      <g
         id="g51182" />
      <g
         id="g51184" />
      <g
         id="g51186" />
      <g
         id="g51188" />
      <g
         id="g51190" />
      <g
         id="g51192" />
      <g
         id="g51194" />
      <g
         id="g51196" />
      <g
         id="g51198" />
      <g
         id="g51200" />
      <g
         id="g51202" />
      <g
         id="g51204" />
      <g
         id="g51206" />
      <g
         id="g51208" />
      <g
         id="g51210" />
      <g
         id="g51212" />
      <g
         id="g51214" />
      <g
         id="g51216" />
      <g
         id="g51218" />
      <g
         id="g51220" />
      <g
         id="g51222" />
      <g
         id="g51224" />
      <g
         id="g51226" />
      <g
         id="g51228" />
      <g
         id="g51230" />
      <g
         id="g51232" />
      <g
         id="g51234" />
      <g
         id="g51236" />
      <g
         id="g51238" />
      <g
         id="g51240" />
      <g
         id="g51242" />
      <g
         id="g51244" />
      <g
         id="g51246" />
      <g
         id="g51248" />
      <g
         id="g51250" />
      <g
         id="g51252" />
      <g
         id="g51254" />
      <g
         id="g51256" />
      <g
         id="g51258" />
      <g
         id="g51260" />
      <g
         id="g51262" />
      <g
         id="g51264" />
      <g
         id="g51266" />
      <g
         id="g51268" />
      <g
         id="g51270" />
      <g
         id="g51272" />
      <g
         id="g51274" />
      <g
         id="g51276" />
      <g
         id="g51278" />
      <g
         id="g51280" />
      <g
         id="g51282" />
      <g
         id="g51284" />
      <g
         id="g51286" />
      <g
         id="g51288" />
      <g
         id="g51290" />
      <g
         id="g51292" />
      <g
         id="g51294" />
      <g
         id="g51296" />
      <g
         id="g51298" />
      <g
         id="g51300" />
      <g
         id="g51302" />
      <g
         id="g51304" />
      <g
         id="g51306" />
      <g
         id="g51308" />
      <g
         id="g51310" />
      <g
         id="g51312" />
      <g
         id="g51314" />
      <g
         id="g51316" />
      <g
         id="g51318" />
      <g
         id="g51320" />
      <g
         id="g51322" />
      <g
         id="g51324" />
      <g
         id="g51326" />
      <g
         id="g51328" />
      <g
         id="g51330" />
      <g
         id="g51332" />
      <g
         id="g51334" />
      <g
         id="g51336" />
      <g
         id="g51338" />
      <g
         id="g51340" />
      <g
         id="g51342" />
      <g
         id="g51344" />
      <g
         id="g51346" />
      <g
         id="g51348" />
      <g
         id="g51350" />
      <g
         id="g51352" />
      <g
         id="g51354" />
      <g
         id="g51356" />
      <g
         id="g51358" />
      <g
         id="g51360" />
      <g
         id="g51362" />
      <g
         id="g51364" />
      <g
         id="g51366" />
      <g
         id="g51368" />
      <g
         id="g51370" />
      <g
         id="g51372" />
      <g
         id="g51374" />
      <g
         id="g51376" />
      <g
         id="g51378" />
      <g
         id="g51380" />
      <g
         id="g51382" />
      <g
         id="g51384" />
      <g
         id="g51386" />
      <g
         id="g51388" />
      <g
         id="g51390" />
      <g
         id="g51392" />
      <g
         id="g51394" />
      <g
         id="g51396" />
      <g
         id="g51398" />
      <g
         id="g51400" />
      <g
         id="g51402" />
      <g
         id="g51404" />
      <g
         id="g51406" />
      <g
         id="g51408" />
      <g
         id="g51410" />
    </g>
  </g>
  <defs
     id="defs51418" />
  <sodipodi:namedview
     id="namedview51416"
     pagecolor="#ffffff"
     bordercolor="#000000"
     borderopacity="0.25"
     inkscape:showpageshadow="2"
     inkscape:pageopacity="0.0"
     inkscape:pagecheckerboard="0"
     inkscape:deskcolor="#d1d1d1"
     inkscape:document-units="mm"
     showgrid="false"
     inkscape:zoom="1.6016852"
     inkscape:cx="219.45636"
     inkscape:cy="162.01685"
     inkscape:window-width="2560"
     inkscape:window-height="1293"
     inkscape:window-x="1728"
     inkscape:window-y="332"
     inkscape:window-maximized="0"
     inkscape:current-layer="svg51414" />
  <title
     id="title50656">SVG Image created as Sofle_Pico-brd.svg date 2024/02/29 10:33:04 </title>
  <desc
     id="desc50658">Image generated by PCBNEW </desc>
</svg>
