<?xml version="1.0" standalone="no"?>
 <!DOCTYPE svg PUBLIC "-//W3C//DTD SVG 1.1//EN" 
 "http://www.w3.org/Graphics/SVG/1.1/DTD/svg11.dtd"> 
<svg
  xmlns:svg="http://www.w3.org/2000/svg"
  xmlns="http://www.w3.org/2000/svg"
  xmlns:xlink="http://www.w3.org/1999/xlink"
  version="1.1"
  width="181.1274mm" height="192.6844mm" viewBox="0.0000 0.0000 181.1274 192.6844">
<title>SVG Image created as SofleKeyboard-brd.svg date 2024/02/28 19:07:19 </title>
  <desc>Image generated by PCBNEW </desc>
<g style="fill:#000000; fill-opacity:1.0000;stroke:#000000; stroke-opacity:1.0000;
stroke-linecap:round; stroke-linejoin:round;"
 transform="translate(0 0) scale(1 1)">
</g>
<g style="fill:#000000; fill-opacity:0.0; 
stroke:#000000; stroke-width:0.0000; stroke-opacity:1; 
stroke-linecap:round; stroke-linejoin:round;">
</g>
<g style="fill:#000000; fill-opacity:0.0; 
stroke:#000000; stroke-width:0.1500; stroke-opacity:1; 
stroke-linecap:round; stroke-linejoin:round;">
<path style="fill:#000000; fill-opacity:0.0; 
stroke:#000000; stroke-width:0.1500; stroke-opacity:1; 
stroke-linecap:round; stroke-linejoin:round;fill:none"
d="M 49.9767,118.3328
60.1367,118.3328
60.1367,120.8728
49.9767,120.8728
Z" /> 
<circle cx="54.5567" cy="149.4928" r="10.0385" /> 
</g>
<g style="fill:#000000; fill-opacity:0.0; 
stroke:#000000; stroke-width:0.1000; stroke-opacity:1; 
stroke-linecap:round; stroke-linejoin:round;">
<path d="M131.7467 182.9228
L130.9591 182.7325
" />
<path d="M45.6765 167.5697
L43.3752 162.6662
" />
<path d="M159.7323 168.2974
L159.6219 168.3746
" />
<path d="M132.5445 183.0592
L131.7467 182.9228
" />
<path d="M133.3497 183.1413
L132.5445 183.0592
" />
<path d="M134.1596 183.1688
L133.3497 183.1413
" />
<path d="M43.3752 162.6662
L43.2468 162.3719
" />
<path d="M149.8833 183.1688
L134.1596 183.1688
" />
<path d="M150.0324 183.1588
L149.8833 183.1688
" />
<path d="M42.9619 161.4562
L42.9009 161.1424
" />
<path d="M130.9591 182.7325
L115.4679 178.4292
" />
<path d="M160.1080 168.1491
L159.9765 168.1839
" />
<path d="M43.1580 82.6656
L43.3285 82.5249
" />
<path d="M59.3178 191.1711
L59.1961 190.9987
" />
<path d="M59.4649 191.3151
L59.3178 191.1711
" />
<path d="M112.6694 177.9508
L112.1959 177.9267
" />
<path d="M42.9111 83.0318
L43.0173 82.8361
" />
<path d="M159.6219 168.3746
L159.5211 168.4645
" />
<path d="M179.5557 166.3985
L179.3754 166.5095
" />
<path d="M94.5668 178.1035
L94.0918 178.2068
" />
<path d="M113.1416 177.9909
L112.6694 177.9508
" />
<path d="M179.9899 89.5847
L180.0169 165.4761
" />
<path d="M113.6120 178.0469
L113.1416 177.9909
" />
<path d="M139.0575 82.3282
L140.0911 82.3561
" />
<path d="M42.9009 161.1424
L42.8571 160.8255
" />
<path d="M43.1350 162.0716
L43.0400 161.7662
" />
<path d="M114.0802 178.1188
L113.6120 178.0469
" />
<path d="M179.3754 166.5095
L179.1747 166.5863
" />
<path d="M114.5459 178.2065
L114.0802 178.1188
" />
<path d="M115.0086 178.3100
L114.5459 178.2065
" />
<path d="M179.8306 89.0006
L179.9170 89.1814
" />
<path d="M179.0221 88.4479
L179.2238 88.4995
" />
<path d="M43.2468 162.3719
L43.1350 162.0716
" />
<path d="M43.0173 82.8361
L43.1580 82.6656
" />
<path d="M179.9356 165.9022
L179.8396 166.0908
" />
<path d="M115.4679 178.4292
L115.0086 178.3100
" />
<path d="M112.1959 177.9267
L111.7214 177.9187
" />
<path d="M179.9960 165.6959
L179.9356 165.9022
" />
<path d="M94.0918 178.2068
L93.6218 178.3326
" />
<path d="M95.0463 178.0229
L94.5668 178.1035
" />
<path d="M179.7117 166.2576
L179.5557 166.3985
" />
<path d="M96.0151 177.9303
L95.5293 177.9651
" />
<path d="M179.2238 88.4995
L179.4086 88.5842
" />
<path d="M179.9711 89.3773
L179.9899 89.5847
" />
<path d="M59.1961 190.9987
L45.7216 167.6562
" />
<path d="M42.8440 83.2480
L42.9111 83.0318
" />
<path d="M95.5293 177.9651
L95.0463 178.0229
" />
<path d="M143.4571 82.6825
L179.0221 88.4479
" />
<path d="M42.8206 83.4802
L42.8440 83.2480
" />
<path d="M179.9170 89.1814
L179.9711 89.3773
" />
<path d="M96.5028 177.9187
L96.0151 177.9303
" />
<path d="M159.9765 168.1839
L159.8509 168.2336
" />
<path d="M111.7214 177.9187
L96.5028 177.9187
" />
<path d="M179.8396 166.0908
L179.7117 166.2576
" />
<path d="M179.1747 166.5863
L178.9573 166.6249
" />
<path d="M45.7216 167.6562
L45.6765 167.5697
" />
<path d="M93.6218 178.3326
L93.1579 178.4809
" />
<path d="M178.9572 166.6243
L160.2441 168.1298
" />
<path d="M59.8170 191.5113
L59.6329 191.4290
" />
<path d="M60.0126 191.5604
L59.8170 191.5113
" />
<path d="M60.2150 191.5747
L60.0126 191.5604
" />
<path d="M140.0911 82.3561
L141.2632 82.4320
" />
<path d="M60.4197 191.5525
L60.2150 191.5747
" />
<path d="M159.8509 168.2336
L159.7323 168.2974
" />
<path d="M43.3285 82.5249
L43.5241 82.4187
" />
<path d="M179.4086 88.5842
L179.5733 88.6984
" />
<path d="M179.7150 88.8383
L179.8306 89.0006
" />
<path d="M42.8220 160.1853
L42.8206 83.4802
" />
<path d="M150.1772 183.1304
L150.0324 183.1588
" />
<path d="M60.6219 191.4922
L60.4197 191.5525
" />
<path d="M92.7008 178.6513
L60.6219 191.4922
" />
<path d="M43.7404 82.3516
L43.9726 82.3282
" />
<path d="M93.1579 178.4809
L92.7008 178.6513
" />
<path d="M150.3161 183.0841
L150.1772 183.1304
" />
<path d="M59.6329 191.4290
L59.4649 191.3151
" />
<path d="M142.4324 82.5446
L143.4571 82.6825
" />
<path d="M159.5211 168.4645
L159.4309 168.5662
" />
<path d="M150.4476 183.0208
L150.3161 183.0841
" />
<path d="M43.0400 161.7662
L42.9619 161.4562
" />
<path d="M150.5700 182.9414
L150.4476 183.0208
" />
<path d="M150.6818 182.8468
L150.5700 182.9414
" />
<path d="M43.5241 82.4187
L43.7404 82.3516
" />
<path d="M180.0169 165.4761
L179.9960 165.6959
" />
<path d="M141.2632 82.4320
L142.4324 82.5446
" />
<path d="M160.2441 168.1298
L160.1080 168.1491
" />
<path d="M150.7814 182.7379
L150.6818 182.8468
" />
<path d="M42.8571 160.8255
L42.8308 160.5062
" />
<path d="M150.8672 182.6155
L150.7814 182.7379
" />
<path d="M42.8308 160.5062
L42.8220 160.1853
" />
<path d="M159.3526 168.6791
L150.8672 182.6155
" />
<path d="M159.4309 168.5662
L159.3526 168.6791
" />
<path d="M178.9573 166.6249
L178.9573 166.6249
" />
<path d="M43.9726 82.3282
L139.0575 82.3282
" />
<path d="M179.5733 88.6984
L179.7150 88.8383
" />
<path d="M84.5717 104.5278
L65.5217 104.5278
" />
<path d="M65.5217 104.5278
L65.5217 85.4778
" />
<path d="M65.5217 85.4778
L84.5717 85.4778
" />
<path d="M84.5717 85.4778
L84.5717 104.5278
" />
<path d="M103.5717 102.1278
L84.5217 102.1278
" />
<path d="M84.5217 102.1278
L84.5217 83.0778
" />
<path d="M84.5217 83.0778
L103.5717 83.0778
" />
<path d="M103.5717 83.0778
L103.5717 102.1278
" />
<path d="M122.6717 100.7378
L103.6217 100.7378
" />
<path d="M103.6217 100.7378
L103.6217 81.6878
" />
<path d="M103.6217 81.6878
L122.6717 81.6878
" />
<path d="M122.6717 81.6878
L122.6717 100.7378
" />
<path d="M141.6717 102.1278
L122.6217 102.1278
" />
<path d="M122.6217 102.1278
L122.6217 83.0778
" />
<path d="M122.6217 83.0778
L141.6717 83.0778
" />
<path d="M141.6717 83.0778
L141.6717 102.1278
" />
<path d="M160.7717 106.9278
L141.7217 106.9278
" />
<path d="M141.7217 106.9278
L141.7217 87.8778
" />
<path d="M141.7217 87.8778
L160.7717 87.8778
" />
<path d="M160.7717 87.8778
L160.7717 106.9278
" />
<path d="M179.7717 108.4278
L160.7217 108.4278
" />
<path d="M160.7217 108.4278
L160.7217 89.3778
" />
<path d="M160.7217 89.3778
L179.7717 89.3778
" />
<path d="M179.7717 89.3778
L179.7717 108.4278
" />
<path d="M84.5717 123.6278
L65.5217 123.6278
" />
<path d="M65.5217 123.6278
L65.5217 104.5778
" />
<path d="M65.5217 104.5778
L84.5717 104.5778
" />
<path d="M84.5717 104.5778
L84.5717 123.6278
" />
<path d="M103.5717 121.2278
L84.5217 121.2278
" />
<path d="M84.5217 121.2278
L84.5217 102.1778
" />
<path d="M84.5217 102.1778
L103.5717 102.1778
" />
<path d="M103.5717 102.1778
L103.5717 121.2278
" />
<path d="M122.6717 119.8278
L103.6217 119.8278
" />
<path d="M103.6217 119.8278
L103.6217 100.7778
" />
<path d="M103.6217 100.7778
L122.6717 100.7778
" />
<path d="M122.6717 100.7778
L122.6717 119.8278
" />
<path d="M141.6717 121.1278
L122.6217 121.1278
" />
<path d="M122.6217 121.1278
L122.6217 102.0778
" />
<path d="M122.6217 102.0778
L141.6717 102.0778
" />
<path d="M141.6717 102.0778
L141.6717 121.1278
" />
<path d="M160.7717 125.8278
L141.7217 125.8278
" />
<path d="M141.7217 125.8278
L141.7217 106.7778
" />
<path d="M141.7217 106.7778
L160.7717 106.7778
" />
<path d="M160.7717 106.7778
L160.7717 125.8278
" />
<path d="M179.7717 127.3278
L160.7217 127.3278
" />
<path d="M160.7217 127.3278
L160.7217 108.2778
" />
<path d="M160.7217 108.2778
L179.7717 108.2778
" />
<path d="M179.7717 108.2778
L179.7717 127.3278
" />
<path d="M84.5717 142.6278
L65.5217 142.6278
" />
<path d="M65.5217 142.6278
L65.5217 123.5778
" />
<path d="M65.5217 123.5778
L84.5717 123.5778
" />
<path d="M84.5717 123.5778
L84.5717 142.6278
" />
<path d="M103.5717 140.2278
L84.5217 140.2278
" />
<path d="M84.5217 140.2278
L84.5217 121.1778
" />
<path d="M84.5217 121.1778
L103.5717 121.1778
" />
<path d="M103.5717 121.1778
L103.5717 140.2278
" />
<path d="M122.6717 138.9278
L103.6217 138.9278
" />
<path d="M103.6217 138.9278
L103.6217 119.8778
" />
<path d="M103.6217 119.8778
L122.6717 119.8778
" />
<path d="M122.6717 119.8778
L122.6717 138.9278
" />
<path d="M141.6717 140.2278
L122.6217 140.2278
" />
<path d="M122.6217 140.2278
L122.6217 121.1778
" />
<path d="M122.6217 121.1778
L141.6717 121.1778
" />
<path d="M141.6717 121.1778
L141.6717 140.2278
" />
<path d="M160.7717 145.0278
L141.7217 145.0278
" />
<path d="M141.7217 145.0278
L141.7217 125.9778
" />
<path d="M141.7217 125.9778
L160.7717 125.9778
" />
<path d="M160.7717 125.9778
L160.7717 145.0278
" />
<path d="M179.7717 146.5278
L160.7217 146.5278
" />
<path d="M160.7217 146.5278
L160.7217 127.4778
" />
<path d="M160.7217 127.4778
L179.7717 127.4778
" />
<path d="M179.7717 127.4778
L179.7717 146.5278
" />
<path d="M84.5717 161.6278
L65.5217 161.6278
" />
<path d="M65.5217 161.6278
L65.5217 142.5778
" />
<path d="M65.5217 142.5778
L84.5717 142.5778
" />
<path d="M84.5717 142.5778
L84.5717 161.6278
" />
<path d="M103.5717 159.3278
L84.5217 159.3278
" />
<path d="M84.5217 159.3278
L84.5217 140.2778
" />
<path d="M84.5217 140.2778
L103.5717 140.2778
" />
<path d="M103.5717 140.2778
L103.5717 159.3278
" />
<path d="M122.6717 157.9278
L103.6217 157.9278
" />
<path d="M103.6217 157.9278
L103.6217 138.8778
" />
<path d="M103.6217 138.8778
L122.6717 138.8778
" />
<path d="M122.6717 138.8778
L122.6717 157.9278
" />
<path d="M141.6717 159.3278
L122.6217 159.3278
" />
<path d="M122.6217 159.3278
L122.6217 140.2778
" />
<path d="M122.6217 140.2778
L141.6717 140.2778
" />
<path d="M141.6717 140.2778
L141.6717 159.3278
" />
<path d="M160.7717 164.0278
L141.7217 164.0278
" />
<path d="M141.7217 164.0278
L141.7217 144.9778
" />
<path d="M141.7217 144.9778
L160.7717 144.9778
" />
<path d="M160.7717 144.9778
L160.7717 164.0278
" />
<path d="M179.8217 165.5278
L160.7717 165.5278
" />
<path d="M160.7717 165.5278
L160.7717 146.4778
" />
<path d="M160.7717 146.4778
L179.8217 146.4778
" />
<path d="M179.8217 146.4778
L179.8217 165.5278
" />
<path d="M57.0203 188.0842
L47.4953 171.5864
" />
<path d="M47.4953 171.5864
L63.9931 162.0614
" />
<path d="M63.9931 162.0614
L73.5181 178.5592
" />
<path d="M73.5181 178.5592
L57.0203 188.0842
" />
<path d="M94.0924 178.1580
L75.6915 183.0885
" />
<path d="M75.6915 183.0885
L70.7610 164.6876
" />
<path d="M70.7610 164.6876
L89.1619 159.7571
" />
<path d="M89.1619 159.7571
L94.0924 178.1580
" />
<path d="M113.0717 178.2778
L94.0217 178.2778
" />
<path d="M94.0217 178.2778
L94.0217 159.2278
" />
<path d="M94.0217 159.2278
L113.0717 159.2278
" />
<path d="M113.0717 159.2278
L113.0717 178.2778
" />
<path d="M132.1717 178.2778
L113.1217 178.2778
" />
<path d="M113.1217 178.2778
L113.1217 159.2278
" />
<path d="M113.1217 159.2278
L132.1717 159.2278
" />
<path d="M132.1717 159.2278
L132.1717 178.2778
" />
<path d="M151.2717 182.4278
L132.2217 182.4278
" />
<path d="M132.2217 182.4278
L132.2217 163.3778
" />
<path d="M132.2217 163.3778
L151.2717 163.3778
" />
<path d="M151.2717 163.3778
L151.2717 182.4278
" />
<g >
</g>
<g >
</g>
<g >
</g>
<g >
</g>
<g >
</g>
<g >
</g>
<g >
</g>
<g >
</g>
<g >
</g>
<g >
</g>
<g >
</g>
<g >
</g>
<g >
</g>
<g >
</g>
<g >
</g>
<g >
</g>
<g >
</g>
<g >
</g>
<g >
</g>
<g >
</g>
<g >
</g>
<g >
</g>
<g >
</g>
<g >
</g>
<g >
</g>
<g >
</g>
<g >
</g>
<g >
</g>
<g >
</g>
<g >
</g>
<g >
</g>
<g >
</g>
<g >
</g>
<g >
</g>
<g >
</g>
<g >
</g>
<g >
</g>
<g >
</g>
<g >
</g>
<g >
</g>
<g >
</g>
<g >
</g>
<g >
</g>
<g >
</g>
<g >
</g>
<g >
</g>
<g >
</g>
<g >
</g>
<g >
</g>
<g >
</g>
<g >
</g>
<g >
</g>
<g >
</g>
<g >
</g>
<g >
</g>
<g >
</g>
<g >
</g>
<g >
</g>
<g >
</g>
<g >
</g>
<g >
</g>
<g >
</g>
<g >
</g>
<g >
</g>
<g >
</g>
<g >
</g>
<g >
</g>
<g >
</g>
<g >
</g>
<g >
</g>
<g >
</g>
<g >
</g>
<g >
</g>
<g >
</g>
<g >
</g>
<g >
</g>
<g >
</g>
<g >
</g>
<g >
</g>
<g >
</g>
<g >
</g>
<g >
</g>
<g >
</g>
<g >
</g>
<g >
</g>
<g >
</g>
<g >
</g>
<g >
</g>
<g >
</g>
<g >
</g>
</g> 
</svg>
