0
SECTION
2
HEADER
9
$INSUNITS
70
4
9
$ACADVER
1
AC1014
9
$HANDSEED
5
FFFF
0
ENDSEC
0
SECTION
2
TABLES
0
TABLE
2
VPORT
5
8
100
AcDbSymbolTable
0
ENDTAB
0
TABLE
2
LTYPE
5
5
100
AcDbSymbolTable
0
LTYPE
5
14
100
AcDbSymbolTableRecord
100
AcDbLinetypeTableRecord
2
BYBLOCK
70
0
0
LTYPE
5
15
100
AcDbSymbolTableRecord
100
AcDbLinetypeTableRecord
2
BYLAYER
70
0
0
ENDTAB
0
TABLE
2
LAYER
5
2
100
AcDbSymbolTable
70
2
0
LAYER
5
50
100
AcDbSymbolTableRecord
100
AcDbLayerTableRecord
2
0
70
0
6
CONTINUOUS
0
ENDTAB
0
TABLE
2
STYLE
5
3
100
AcDbSymbolTable
70
1
0
STYLE
5
11
100
AcDbSymbolTableRecord
100
AcDbTextStyleTableRecord
2
STANDARD
70
0
0
ENDTAB
0
TABLE
2
VIEW
5
6
100
AcDbSymbolTable
70
0
0
ENDTAB
0
TABLE
2
UCS
5
7
100
AcDbSymbolTable
70
0
0
ENDTAB
0
TABLE
2
APPID
5
9
100
AcDbSymbolTable
70
2
0
APPID
5
12
100
AcDbSymbolTableRecord
100
AcDbRegAppTableRecord
2
ACAD
70
0
0
ENDTAB
0
TABLE
2
DIMSTYLE
5
A
100
AcDbSymbolTable
70
1
0
ENDTAB
0
TABLE
2
BLOCK_RECORD
5
1
100
AcDbSymbolTable
70
1
0
BLOCK_RECORD
5
1F
100
AcDbSymbolTableRecord
100
AcDbBlockTableRecord
2
*MODEL_SPACE
0
BLOCK_RECORD
5
1B
100
AcDbSymbolTableRecord
100
AcDbBlockTableRecord
2
*PAPER_SPACE
0
ENDTAB
0
ENDSEC
0
SECTION
2
BLOCKS
0
BLOCK
5
20
100
AcDbEntity
100
AcDbBlockBegin
2
*MODEL_SPACE
0
ENDBLK
5
21
100
AcDbEntity
100
AcDbBlockEnd
0
BLOCK
5
1C
100
AcDbEntity
100
AcDbBlockBegin
2
*PAPER_SPACE
0
ENDBLK
5
1D
100
AcDbEntity
100
AcDbBlockEnd
0
ENDSEC
0
SECTION
2
ENTITIES
0
LWPOLYLINE
5
100
100
AcDbEntity
8
0
100
AcDbPolyline
90
4
70
1
43
0.0
10
-74.895987650152151
20
63.951707856538945
10
-90.495873327951728
20
63.951707856538931
10
-90.495873327951728
20
76.951613064872276
10
-74.895987650152151
20
76.951613064872276
0
CIRCLE
5
101
100
AcDbEntity
8
0
100
AcDbCircle
10
-131.6205738884548
20
66.37168807449072
30
0
40
1.7499872395833371
210
0
220
0
230
1
0
CIRCLE
5
102
100
AcDbEntity
8
0
100
AcDbCircle
10
-188.78515706032977
20
27.861968876574039
30
0
40
1.0999919791666812
210
0
220
0
230
1
0
CIRCLE
5
103
100
AcDbEntity
8
0
100
AcDbCircle
10
-188.77025716897563
20
65.976690954699038
30
0
40
1.0999919791666812
210
0
220
0
230
1
0
CIRCLE
5
104
100
AcDbEntity
8
0
100
AcDbCircle
10
-111.93581742418395
20
25.461986376574039
30
0
40
1.0999919791666635
210
0
220
0
230
1
0
CIRCLE
5
105
100
AcDbEntity
8
0
100
AcDbCircle
10
-112.02571676866313
20
63.411709657824041
30
0
40
1.0999919791666635
210
0
220
0
230
1
0
LWPOLYLINE
5
106
100
AcDbEntity
8
0
100
AcDbPolyline
90
4
70
1
43
0.0
10
-172.24527914153646
20
11.35208910940392
10
-186.24517705820313
20
11.35208910940392
10
-186.24517705820318
20
25.351987026070589
10
-172.24527914153651
20
25.351987026070589
0
CIRCLE
5
107
100
AcDbEntity
8
0
100
AcDbCircle
10
-112.5707127947048
20
47.32182698074071
30
0
40
1.7499872395833371
210
0
220
0
230
1
0
CIRCLE
5
108
100
AcDbEntity
8
0
100
AcDbCircle
10
-131.6205738884548
20
28.271965886990703
30
0
40
1.7499872395833371
210
0
220
0
230
1
0
LWPOLYLINE
5
109
100
AcDbEntity
8
0
100
AcDbPolyline
90
4
70
1
43
0.0
10
-82.350833079410705
20
90.377311677228462
10
-88.706686545098933
20
102.85131892582879
10
-76.232677389163882
20
109.20717620618646
10
-69.876823923475641
20
96.733168957586145
0
LWPOLYLINE
5
110
100
AcDbEntity
8
0
100
AcDbPolyline
90
4
70
1
43
0.0
10
-91.52266599650693
20
89.401816776103828
10
-105.04556620112172
20
85.778346188158849
10
-108.66904060373616
20
99.301151026037374
10
-95.146140399121379
20
102.92462161398235
0
LWPOLYLINE
5
111
100
AcDbEntity
8
0
100
AcDbPolyline
90
4
70
1
43
0.0
10
-134.14565766130994
20
3.952143449204204
10
-148.14555557797661
20
3.952143449204204
10
-148.14555557797664
20
17.952041365870866
10
-134.14565766130997
20
17.952041365870866
0
LWPOLYLINE
5
112
100
AcDbEntity
8
0
100
AcDbPolyline
90
4
70
1
43
0.0
10
-96.045834003602579
20
8.952106990870865
10
-110.04573192026925
20
8.952106990870865
10
-110.04573192026925
20
22.952004907537535
10
-96.045834003602579
20
22.952004907537535
0
CIRCLE
5
113
100
AcDbEntity
8
0
100
AcDbCircle
10
-68.145136733558957
20
66.951683845324055
30
0
40
2.0499850520833363
210
0
220
0
230
1
0
CIRCLE
5
114
100
AcDbEntity
8
0
100
AcDbCircle
10
-87.635894612413125
20
56.541759751574041
30
0
40
2.0499850520833363
210
0
220
0
230
1
0
CIRCLE
5
115
100
AcDbEntity
8
0
100
AcDbCircle
10
-94.505944517933955
20
3.0695496559490332
30
0
40
2.0499850520833363
210
0
220
0
230
1
0
CIRCLE
5
116
100
AcDbEntity
8
0
100
AcDbCircle
10
-86.085905914496465
20
86.48154143907405
30
0
40
1.0999919791666635
210
0
220
0
230
1
0
CIRCLE
5
117
100
AcDbEntity
8
0
100
AcDbCircle
10
-150.6704349822048
20
47.32182698074071
30
0
40
1.7499872395833371
210
0
220
0
230
1
0
LWPOLYLINE
5
118
100
AcDbEntity
8
0
100
AcDbPolyline
90
4
70
1
43
0.0
10
-96.045834003602579
20
28.001967321686976
10
-110.04573192026925
20
28.001967321686983
10
-110.04573192026925
20
42.001867145688372
10
-96.045834003602579
20
42.001867145688372
0
LWPOLYLINE
5
119
100
AcDbEntity
8
0
100
AcDbPolyline
90
4
70
1
43
0.0
10
-172.24527914153646
20
68.50167010185227
10
-186.24517705820313
20
68.501670101852255
10
-186.24517705820318
20
82.501568018518938
10
-172.24527914153651
20
82.501568018518938
0
LWPOLYLINE
5
120
100
AcDbEntity
8
0
100
AcDbPolyline
90
4
70
1
43
0.0
10
-134.14565766130994
20
61.101726348987256
10
-148.14555557797661
20
61.101726348987256
10
-148.14555557797664
20
75.10162808032338
10
-134.14565766130997
20
75.10162808032338
0
LWPOLYLINE
5
121
100
AcDbEntity
8
0
100
AcDbPolyline
90
4
70
1
43
0.0
10
-96.045834003602579
20
47.051829559837813
10
-110.04573192026925
20
47.051829559837813
10
-110.04573192026925
20
61.051727476504489
10
-96.045834003602579
20
61.051727476504489
0
LWPOLYLINE
5
122
100
AcDbEntity
8
0
100
AcDbPolyline
90
4
70
1
43
0.0
10
-115.09569433441868
20
44.551847789004484
10
-129.09569143249104
20
44.551847789004484
10
-129.09569143249107
20
58.551745705671152
10
-115.09569433441868
20
58.551745705671152
0
LWPOLYLINE
5
123
100
AcDbEntity
8
0
100
AcDbPolyline
90
4
70
1
43
0.0
10
-115.09569433441868
20
25.501985550853643
10
-129.09569143249104
20
25.501985550853647
10
-129.09569143249107
20
39.501885374855036
10
-115.09569433441868
20
39.501885374855036
0
LWPOLYLINE
5
124
100
AcDbEntity
8
0
100
AcDbPolyline
90
4
70
1
43
0.0
10
-153.19541499605091
20
6.452125220037539
10
-167.19531291271761
20
6.4521252200375301
10
-167.19531291271755
20
20.452023136704209
10
-153.19541499605091
20
20.452023136704209
0
LWPOLYLINE
5
125
100
AcDbEntity
8
0
100
AcDbPolyline
90
4
70
1
43
0.0
10
-134.14565766130994
20
80.151586679803387
10
-148.14555557797661
20
80.151586679803373
10
-148.14555557797664
20
94.151484596470056
10
-134.14565766130997
20
94.151484596470056
0
LWPOLYLINE
5
126
100
AcDbEntity
8
0
100
AcDbPolyline
90
4
70
1
43
0.0
10
-191.29524246842777
20
68.50167010185227
10
-205.29514038509444
20
68.501670101852255
10
-205.29514038509438
20
82.501568018518938
10
-191.29524246842774
20
82.501568018518938
0
LWPOLYLINE
5
127
100
AcDbEntity
8
0
100
AcDbPolyline
90
4
70
1
43
0.0
10
-191.29524246842777
20
30.401949440220033
10
-205.29514038509444
20
30.401949440220037
10
-205.29514038509438
20
44.401847356886705
10
-191.29524246842774
20
44.401847356886705
0
LWPOLYLINE
5
128
100
AcDbEntity
8
0
100
AcDbPolyline
90
4
70
1
43
0.0
10
-191.29524246842777
20
49.451809771036146
10
-205.29514038509444
20
49.451809771036146
10
-205.29514038509438
20
63.45171150237227
10
-191.29524246842774
20
63.45171150237227
0
LWPOLYLINE
5
129
100
AcDbEntity
8
0
100
AcDbPolyline
90
4
70
1
43
0.0
10
-134.14565766130994
20
42.051866018171147
10
-148.14555557797661
20
42.051866018171154
10
-148.14555557797664
20
56.051763934837815
10
-134.14565766130997
20
56.051763934837815
0
LWPOLYLINE
5
130
100
AcDbEntity
8
0
100
AcDbPolyline
90
4
70
1
43
0.0
10
-191.29524246842777
20
11.35208910940392
10
-205.29514038509444
20
11.35208910940392
10
-205.29514038509438
20
25.351987026070589
10
-191.29524246842774
20
25.351987026070589
0
LWPOLYLINE
5
131
100
AcDbEntity
8
0
100
AcDbPolyline
90
4
70
1
43
0.0
10
-153.19541499605091
20
44.551847789004484
10
-167.19531291271761
20
44.551847789004484
10
-167.19531291271755
20
58.551745705671152
10
-153.19541499605091
20
58.551745705671152
0
LWPOLYLINE
5
132
100
AcDbEntity
8
0
100
AcDbPolyline
90
4
70
1
43
0.0
10
-134.14565766130994
20
23.002003780020317
10
-148.14555557797661
20
23.002003780020317
10
-148.14555557797664
20
37.001903604021706
10
-134.14565766130997
20
37.001903604021706
0
LWPOLYLINE
5
133
100
AcDbEntity
8
0
100
AcDbPolyline
90
4
70
1
43
0.0
10
-153.19541499605091
20
25.501985550853643
10
-167.19531291271761
20
25.501985550853647
10
-167.19531291271755
20
39.501885374855036
10
-153.19541499605091
20
39.501885374855036
0
LWPOLYLINE
5
134
100
AcDbEntity
8
0
100
AcDbPolyline
90
4
70
1
43
0.0
10
-172.24527914153646
20
49.451809771036146
10
-186.24517705820313
20
49.451809771036146
10
-186.24517705820318
20
63.45171150237227
10
-172.24527914153651
20
63.45171150237227
0
LWPOLYLINE
5
135
100
AcDbEntity
8
0
100
AcDbPolyline
90
4
70
1
43
0.0
10
-153.19541499605091
20
63.601711934490048
10
-167.19531291271761
20
63.601711934490048
10
-167.19531291271755
20
77.601609851156724
10
-153.19541499605091
20
77.601609851156724
0
LWPOLYLINE
5
136
100
AcDbEntity
8
0
100
AcDbPolyline
90
4
70
1
43
0.0
10
-153.19541499605091
20
82.651568450636717
10
-167.19531291271761
20
82.651568450636717
10
-167.19531291271755
20
96.651466367303385
10
-153.19541499605091
20
96.651466367303385
0
LWPOLYLINE
5
137
100
AcDbEntity
8
0
100
AcDbPolyline
90
4
70
1
43
0.0
10
-172.24527914153646
20
30.401949440220033
10
-186.24517705820313
20
30.401949440220037
10
-186.24517705820318
20
44.401847356886705
10
-172.24527914153651
20
44.401847356886705
0
LWPOLYLINE
5
138
100
AcDbEntity
8
0
100
AcDbPolyline
90
4
70
1
43
0.0
10
-96.045834003602579
20
66.10169370532337
10
-110.04573192026925
20
66.101693705323385
10
-110.04573192026925
20
80.101591621990039
10
-96.045834003602579
20
80.101591621990039
0
LWPOLYLINE
5
139
100
AcDbEntity
8
0
100
AcDbPolyline
90
4
70
1
43
0.0
10
-115.09569433441868
20
82.651568450636717
10
-129.09569143249104
20
82.651568450636717
10
-129.09569143249107
20
96.651466367303385
10
-115.09569433441868
20
96.651466367303385
0
LWPOLYLINE
5
140
100
AcDbEntity
8
0
100
AcDbPolyline
90
4
70
1
43
0.0
10
-115.09569433441868
20
6.452125220037539
10
-129.09569143249104
20
6.4521252200375301
10
-129.09569143249107
20
20.452023136704209
10
-115.09569433441868
20
20.452023136704209
0
LWPOLYLINE
5
141
100
AcDbEntity
8
0
100
AcDbPolyline
90
4
70
1
43
0.0
10
-115.09569433441868
20
63.601711934490048
10
-129.09569143249104
20
63.601711934490048
10
-129.09569143249107
20
77.601609851156724
10
-115.09569433441868
20
77.601609851156724
0
LWPOLYLINE
5
142
100
AcDbEntity
8
0
100
AcDbPolyline
90
25
70
1
43
0.0
10
-76.606175489694991
20
116.17172503202266
10
-131.62047618408909
20
100.67633936280713
10
-169.72019684572132
20
100.67633936280713
10
-208.41421249032726
20
86.403639175084265
10
-208.41421249032726
20
86.403738356489939
42
0.29940164399405705
10
-209.3199065698536
20
85.026451951522688
10
-209.31990656985357
20
8.8270077672561342
42
0.38064104633298074
10
-207.98371941354191
20
7.3260183076928396
10
-150.67033270023578
20
-0.072927432277269943
10
-92.508759956698725
20
-0.072927432277269943
42
0.41421356237309509
10
-91.508767248365388
20
0.92706527605606492
10
-91.508767248365388
20
12.872078483830922
42
0.4142135623730957
10
-92.508759956698725
20
13.872071192164256
10
-93.295854055685908
20
13.872071192164253
10
-93.295854055685908
20
36.821904611348153
10
-92.508759956698725
20
36.821904611348153
42
0.41421356237309509
10
-91.508767248365388
20
37.821897319681483
10
-91.508767248365388
20
53.381781419959708
10
-76.595975063585357
20
53.381781419959708
10
-76.595975063585357
20
62.398816958104611
10
-64.899360494310031
20
62.398816958104604
42
0.41421356237309509
10
-63.899367785976686
20
63.398809666437941
10
-63.899367785976679
20
93.481491312928028
42
0.12271671776002457
10
-64.062866425943724
20
94.189188789315068
10
-74.873787227619786
20
115.40593013991023
42
0.35563614916972702
0
ENDSEC
0
SECTION
2
OBJECTS
0
DICTIONARY
5
C
100
AcDbDictionary
3
ACAD_GROUP
350
D
3
ACAD_MLINESTYLE
350
17
0
DICTIONARY
5
D
100
AcDbDictionary
0
DICTIONARY
5
1A
330
C
100
AcDbDictionary
0
DICTIONARY
5
17
100
AcDbDictionary
0
ENDSEC
0
EOF
