M48
; DRILL file {KiCad 7.0.10} date Sat Mar  2 14:12:12 2024
; FORMAT={-:-/ absolute / metric / decimal}
; #@! TF.CreationDate,2024-03-02T14:12:12-05:00
; #@! TF.GenerationSoftware,Kicad,Pcbnew,7.0.10
; #@! TF.FileFunction,Plated,1,2,PTH
FMAT,2
METRIC
; #@! TA.AperFunction,Plated,PTH,ViaDrill
T1C0.300
; #@! TA.AperFunction,Plated,PTH,ComponentDrill
T2C0.800
; #@! TA.AperFunction,Plated,PTH,ComponentDrill
T3C0.813
; #@! TA.AperFunction,Plated,PTH,ComponentDrill
T4C0.900
; #@! TA.AperFunction,Plated,PTH,ComponentDrill
T5C1.000
; #@! TA.AperFunction,Plated,PTH,ComponentDrill
T6C2.200
; #@! TA.AperFunction,Plated,PTH,ComponentDrill
T7C4.100
%
G90
G05
T1
X-26.665Y-68.3
X-25.262Y-100.725
X-25.262Y-120.925
X-25.24Y-87.175
X-25.215Y-76.625
X-25.165Y-68.3
X-23.762Y-100.725
X-23.762Y-120.925
X-23.74Y-87.175
X-23.715Y-76.625
X-22.04Y-61.35
X-22.012Y-79.775
X-21.473Y-99.605
X-21.432Y-80.555
X-21.432Y-118.655
X-20.312Y-63.275
X-20.312Y-101.375
X-20.312Y-120.425
X-20.012Y-70.215
X-17.613Y-127.2
X-17.488Y-108.2
X-17.453Y-89.045
X-15.063Y-63.375
X-14.762Y-82.275
X-14.712Y-101.375
X-14.712Y-120.425
X-13.438Y-61.575
X-13.438Y-80.625
X-13.438Y-99.675
X-13.438Y-118.725
X-7.012Y-119.375
X-6.212Y-79.425
X-6.162Y-106.175
X-5.513Y-117.925
X-5.513Y-119.375
X-4.763Y-96.995
X-4.712Y-79.425
X-4.662Y-106.175
X-4.407Y-77.904
X-3.962Y-80.375
X-3.587Y-99.65
X-2.913Y-81.425
X-2.612Y-100.6
X-2.567Y-99.595
X-2.542Y-80.595
X-2.393Y-118.655
X-2.373Y-61.505
X-1.262Y-63.225
X-1.262Y-120.425
X1.512Y-127.075
X1.512Y-108.2
X1.557Y-89.065
X4.107Y-70.235
X4.337Y-82.275
X4.337Y-120.425
X4.387Y-101.425
X5.388Y-63.35
X5.612Y-61.575
X5.612Y-80.625
X5.612Y-99.675
X5.612Y-118.725
X7.212Y-63.65
X9.387Y-55.575
X9.387Y-57.075
X12.837Y-82.175
X12.887Y-101.325
X12.887Y-120.275
X13.777Y-128.486
X14.337Y-82.175
X14.387Y-101.325
X14.387Y-120.275
X14.837Y-127.425
X16.607Y-94.705
X16.607Y-132.835
X16.627Y-113.805
X16.633Y-56.592
X16.657Y-75.685
X17.787Y-58.325
X17.787Y-77.375
X17.787Y-96.475
X17.787Y-115.475
X17.823Y-134.518
X20.387Y-141.2
X20.512Y-84.145
X20.512Y-103.2
X20.512Y-122.325
X23.157Y-65.175
X23.337Y-77.425
X23.387Y-58.325
X23.387Y-96.475
X23.387Y-134.575
X23.438Y-115.525
X23.987Y-97.125
X24.662Y-75.725
X24.662Y-94.775
X24.662Y-113.825
X24.662Y-132.875
X24.828Y-56.645
X24.879Y-114.983
X25.342Y-97.125
X25.837Y-114.025
X26.037Y-56.625
X26.437Y-76.875
X26.862Y-63.25
X26.987Y-132.125
X27.098Y-57.686
X27.487Y-75.825
X28.217Y-63.25
X28.287Y-130.875
X29.452Y-106.495
X29.902Y-124.275
X30.137Y-58.575
X30.487Y-88.025
X30.688Y-69.705
X31.096Y-59.533
X31.887Y-117.725
X31.938Y-79.675
X32.337Y-106.925
X32.637Y-90.475
X33.387Y-117.725
X33.438Y-79.675
X33.837Y-106.925
X34.137Y-90.475
X34.487Y-73.475
X34.538Y-111.425
X34.938Y-91.475
X34.987Y-92.925
X35.446Y-74.433
X35.487Y-112.375
X35.582Y-111.295
X35.608Y-130.345
X35.648Y-54.025
X35.675Y-73.233
X35.707Y-92.205
X36.773Y-55.895
X36.837Y-132.075
X36.997Y-138.435
X39.627Y-81.655
X39.637Y-100.7
X39.637Y-119.825
X42.137Y-62.695
X42.437Y-74.875
X42.438Y-55.825
X42.438Y-93.925
X42.438Y-112.975
X42.487Y-132.075
X43.712Y-54.065
X43.712Y-73.225
X43.712Y-92.275
X43.712Y-111.325
X43.712Y-130.375
X45.788Y-52.975
X46.848Y-54.036
X49.337Y-125.525
X50.127Y-138.686
X50.853Y-125.525
X50.987Y-101.175
X50.987Y-120.375
X51.188Y-137.625
X52.487Y-101.175
X52.487Y-120.375
X54.508Y-75.645
X54.657Y-56.605
X54.667Y-94.665
X54.682Y-132.82
X54.747Y-113.815
X54.887Y-82.175
X55.873Y-58.445
X55.887Y-77.475
X55.887Y-96.475
X55.887Y-115.525
X55.887Y-134.575
X56.387Y-82.175
X58.512Y-103.075
X58.637Y-84.135
X58.637Y-122.325
X58.662Y-141.35
X61.177Y-65.535
X61.487Y-58.325
X61.487Y-77.375
X61.487Y-96.525
X61.487Y-115.475
X61.487Y-134.575
X62.692Y-132.798
X62.762Y-56.675
X62.762Y-75.725
X62.762Y-94.775
X62.762Y-113.825
X63.037Y-76.975
X63.229Y-134.258
X64.037Y-75.975
X64.188Y-133.3
X64.537Y-111.4
X64.587Y-57.575
X64.715Y-73.347
X64.987Y-101.325
X65.01Y-63.175
X65.138Y-116.925
X65.648Y-58.636
X66.342Y-101.325
X66.365Y-63.175
X66.492Y-116.925
X67.688Y-135.875
X67.977Y-90.205
X68.162Y-131.95
X69.703Y-135.875
X69.787Y-80.325
X70.037Y-115.225
X70.488Y-98.175
X71.287Y-80.325
X71.537Y-115.225
X71.987Y-98.175
X72.587Y-98.875
X73.507Y-116.37
X73.722Y-97.229
X73.757Y-59.145
X73.757Y-78.145
X73.987Y-98.875
X74.938Y-60.775
X74.938Y-79.975
X74.938Y-118.025
X77.227Y-145.755
X77.31Y-53.3
X77.31Y-56.5
X77.513Y-124.7
X77.638Y-86.7
X77.647Y-105.815
X77.763Y-67.7
X78.013Y-136.65
X79.037Y-138.675
X80.537Y-60.925
X80.537Y-79.875
X80.537Y-118.075
X80.573Y-99.01
X81.985Y-97.458
X82.035Y-78.383
X82.05Y-59.213
X82.06Y-116.533
X82.235Y-75.2
X83.59Y-75.2
X84.987Y-140.275
X85.004Y-97.033
X85.437Y-71.225
X85.438Y-69.825
X85.737Y-59.125
X85.772Y-118.475
X86.112Y-138.75
X87.412Y-97.033
X87.787Y-118.475
X87.938Y-55.425
X87.938Y-56.925
X89.388Y-88.825
X90.737Y-149.075
X91.787Y-148.075
X92.554Y-148.733
X93.513Y-147.775
X95.237Y-149.275
X97.058Y-88.6
X97.438Y-148.825
X97.713Y-85.977
X98.338Y-78.491
X98.974Y-73.36
X99.112Y-141.9
X99.608Y-70.874
X100.137Y-143.625
X100.584Y-109.051
X100.623Y-102.056
X101.635Y-134.69
X102.99Y-134.69
X103.272Y-102.944
X103.285Y-101.994
X104.337Y-125.125
X105.737Y-126.525
X106.223Y-142.85
X107.416Y-97.457
X107.422Y-74.625
X107.428Y-66.985
X108.098Y-114.379
X108.897Y-114.385
X108.987Y-149.725
X112.7Y-132.75
X113.325Y-134.3
X117.9Y-62.05
X118.45Y-76.925
X118.471Y-75.629
X118.5Y-83.52
X118.525Y-86.075
X118.575Y-88.6
X118.6Y-91.14
X118.625Y-68.625
X119.875Y-62.025
X128.338Y-114.385
X128.495Y-149.67
X129.137Y-114.379
X129.808Y-66.985
X129.812Y-74.625
X129.819Y-97.457
X131.012Y-142.85
X131.498Y-126.525
X132.898Y-125.125
X134.245Y-134.69
X134.7Y-102.05
X135.55Y-102.05
X135.6Y-134.69
X137.097Y-143.625
X137.626Y-70.874
X138.123Y-141.9
X138.261Y-73.36
X138.897Y-78.491
X139.522Y-85.977
X139.797Y-148.825
X140.177Y-88.6
X140.941Y-140.391
X141.899Y-141.349
X141.998Y-149.275
X145.447Y-148.075
X146.498Y-149.075
X147.847Y-88.825
X149.297Y-55.425
X149.297Y-56.925
X149.447Y-118.475
X149.822Y-97.033
X151.123Y-138.75
X151.463Y-118.475
X151.498Y-59.125
X151.797Y-69.825
X151.797Y-71.225
X152.231Y-97.033
X152.248Y-140.275
X153.275Y-151.125
X153.645Y-75.2
X155.0Y-75.2
X155.175Y-116.533
X155.185Y-59.213
X155.2Y-78.383
X155.25Y-97.458
X156.662Y-99.01
X156.697Y-60.925
X156.697Y-79.875
X156.697Y-118.075
X158.197Y-138.675
X159.222Y-136.65
X159.45Y-145.925
X159.472Y-67.7
X159.512Y-105.74
X159.597Y-86.7
X159.722Y-124.7
X162.297Y-60.775
X162.297Y-79.975
X162.297Y-118.025
X162.375Y-53.3
X162.375Y-56.5
X163.248Y-98.875
X163.477Y-59.145
X163.477Y-78.145
X163.513Y-97.229
X163.727Y-116.37
X164.647Y-98.875
X165.248Y-98.175
X165.697Y-115.225
X165.947Y-80.325
X166.748Y-98.175
X167.197Y-115.225
X167.447Y-80.325
X167.532Y-135.875
X169.072Y-131.95
X169.257Y-90.205
X169.547Y-135.875
X170.743Y-116.925
X170.87Y-63.175
X170.893Y-101.325
X171.587Y-58.636
X172.097Y-116.925
X172.225Y-63.175
X172.248Y-101.325
X172.52Y-73.347
X172.647Y-57.575
X172.697Y-111.4
X173.047Y-133.3
X173.197Y-75.975
X174.006Y-134.258
X174.197Y-76.975
X174.472Y-56.675
X174.472Y-75.725
X174.472Y-94.775
X174.472Y-113.825
X174.543Y-132.798
X175.748Y-58.325
X175.748Y-77.375
X175.748Y-96.525
X175.748Y-115.475
X175.748Y-134.575
X176.058Y-65.535
X178.572Y-141.35
X178.597Y-84.135
X178.597Y-122.325
X178.722Y-103.075
X180.847Y-82.175
X181.347Y-77.475
X181.347Y-96.475
X181.347Y-115.525
X181.347Y-134.575
X181.362Y-58.445
X182.347Y-82.175
X182.487Y-113.815
X182.552Y-132.82
X182.567Y-94.665
X182.577Y-56.605
X182.727Y-75.645
X184.748Y-101.175
X184.748Y-120.375
X186.047Y-137.625
X186.248Y-101.175
X186.248Y-120.375
X186.382Y-125.525
X187.108Y-138.686
X187.897Y-125.525
X190.387Y-54.036
X191.447Y-52.975
X193.522Y-54.065
X193.522Y-73.225
X193.522Y-92.275
X193.522Y-111.325
X193.522Y-130.375
X194.748Y-132.075
X194.797Y-55.825
X194.797Y-74.875
X194.797Y-93.925
X194.797Y-112.975
X195.097Y-62.695
X197.597Y-100.7
X197.597Y-119.825
X197.607Y-81.655
X200.237Y-138.435
X200.397Y-132.075
X200.462Y-55.895
X201.528Y-92.205
X201.56Y-73.233
X201.587Y-54.025
X201.627Y-130.345
X201.653Y-111.295
X201.748Y-112.375
X201.789Y-74.433
X202.248Y-92.925
X202.297Y-91.475
X202.697Y-111.425
X202.748Y-73.475
X203.097Y-90.475
X203.397Y-106.925
X203.797Y-79.675
X203.847Y-117.725
X204.597Y-90.475
X204.897Y-106.925
X205.297Y-79.675
X205.347Y-117.725
X206.139Y-59.533
X206.547Y-69.705
X206.748Y-88.025
X207.097Y-58.575
X207.332Y-124.275
X207.782Y-106.495
X208.947Y-130.875
X209.018Y-63.25
X209.748Y-75.825
X210.137Y-57.686
X210.248Y-132.125
X210.373Y-63.25
X210.797Y-76.875
X211.197Y-56.625
X211.397Y-114.025
X211.893Y-97.125
X212.356Y-114.983
X212.407Y-56.645
X212.572Y-75.725
X212.572Y-94.775
X212.572Y-113.825
X212.572Y-132.875
X213.248Y-97.125
X213.797Y-115.525
X213.847Y-58.325
X213.847Y-96.475
X213.847Y-134.575
X213.897Y-77.425
X214.077Y-65.175
X216.722Y-84.145
X216.722Y-103.2
X216.722Y-122.325
X216.847Y-141.2
X219.412Y-134.518
X219.447Y-58.325
X219.447Y-77.375
X219.447Y-96.475
X219.447Y-115.475
X220.577Y-75.685
X220.602Y-56.592
X220.607Y-113.805
X220.627Y-94.705
X220.627Y-132.835
X222.397Y-127.425
X222.847Y-101.325
X222.847Y-120.275
X222.897Y-82.175
X223.458Y-128.486
X224.347Y-101.325
X224.347Y-120.275
X224.397Y-82.175
X227.847Y-55.575
X227.847Y-57.075
X230.022Y-63.65
X231.623Y-61.575
X231.623Y-80.625
X231.623Y-99.675
X231.623Y-118.725
X231.847Y-63.35
X232.847Y-101.425
X232.897Y-82.275
X232.897Y-120.425
X233.127Y-70.235
X235.677Y-89.065
X235.722Y-108.2
X235.722Y-127.075
X238.498Y-63.225
X238.498Y-120.425
X239.607Y-61.505
X239.627Y-118.655
X239.777Y-80.595
X239.802Y-99.595
X239.847Y-100.6
X240.147Y-81.425
X240.822Y-99.65
X241.197Y-80.375
X241.642Y-77.904
X241.897Y-106.175
X241.947Y-79.425
X241.998Y-96.995
X242.748Y-117.925
X242.748Y-119.375
X243.397Y-106.175
X243.447Y-79.425
X244.248Y-119.375
X250.672Y-61.575
X250.672Y-80.625
X250.672Y-99.675
X250.672Y-118.725
X251.947Y-101.375
X251.947Y-120.425
X251.998Y-82.275
X252.297Y-63.375
X254.688Y-89.045
X254.722Y-108.2
X254.847Y-127.2
X257.248Y-70.215
X257.548Y-63.275
X257.548Y-101.375
X257.548Y-120.425
X258.667Y-80.555
X258.667Y-118.655
X258.707Y-99.605
X259.248Y-79.775
X259.586Y-61.636
X260.397Y-63.025
X260.998Y-81.375
X260.998Y-100.725
X260.998Y-120.925
X261.458Y-64.086
X261.575Y-71.65
X261.575Y-73.15
X262.498Y-81.375
X262.498Y-100.725
X262.498Y-120.925
T2
X91.915Y-50.5
X91.915Y-53.04
X91.915Y-55.58
X91.915Y-58.12
X91.915Y-60.66
X91.915Y-63.2
X91.915Y-65.74
X91.915Y-68.28
X91.915Y-70.82
X91.915Y-73.36
X91.915Y-75.9
X91.915Y-78.44
X91.915Y-80.98
X91.915Y-83.52
X91.915Y-86.06
X91.915Y-88.6
X91.915Y-91.14
X91.915Y-93.68
X91.915Y-96.22
X91.915Y-98.76
X94.455Y-50.5
X94.455Y-53.04
X94.455Y-55.58
X94.455Y-58.12
X94.455Y-60.66
X94.455Y-63.2
X94.455Y-65.74
X94.455Y-68.28
X94.455Y-70.82
X94.455Y-73.36
X94.455Y-75.9
X94.455Y-78.44
X94.455Y-80.98
X94.455Y-83.52
X94.455Y-86.06
X94.455Y-88.6
X94.455Y-91.14
X94.455Y-93.68
X94.455Y-96.22
X94.455Y-98.76
X102.828Y-111.295
X105.367Y-111.295
X109.695Y-50.5
X109.695Y-53.04
X109.695Y-55.58
X109.695Y-58.12
X109.695Y-60.66
X109.695Y-63.2
X109.695Y-65.74
X109.695Y-68.28
X109.695Y-70.82
X109.695Y-73.36
X109.695Y-75.9
X109.695Y-78.44
X109.695Y-80.98
X109.695Y-83.52
X109.695Y-86.06
X109.695Y-88.6
X109.695Y-91.14
X109.695Y-93.68
X109.695Y-96.22
X109.695Y-98.76
X112.235Y-50.5
X112.235Y-53.04
X112.235Y-55.58
X112.235Y-58.12
X112.235Y-60.66
X112.235Y-63.2
X112.235Y-65.74
X112.235Y-68.28
X112.235Y-70.82
X112.235Y-73.36
X112.235Y-75.9
X112.235Y-78.44
X112.235Y-80.98
X112.235Y-83.52
X112.235Y-86.06
X112.235Y-88.6
X112.235Y-91.14
X112.235Y-93.68
X112.235Y-96.22
X112.235Y-98.76
X125.0Y-50.5
X125.0Y-53.04
X125.0Y-55.58
X125.0Y-58.12
X125.0Y-60.66
X125.0Y-63.2
X125.0Y-65.74
X125.0Y-68.28
X125.0Y-70.82
X125.0Y-73.36
X125.0Y-75.9
X125.0Y-78.44
X125.0Y-80.98
X125.0Y-83.52
X125.0Y-86.06
X125.0Y-88.6
X125.0Y-91.14
X125.0Y-93.68
X125.0Y-96.22
X125.0Y-98.76
X127.54Y-50.5
X127.54Y-53.04
X127.54Y-55.58
X127.54Y-58.12
X127.54Y-60.66
X127.54Y-63.2
X127.54Y-65.74
X127.54Y-68.28
X127.54Y-70.82
X127.54Y-73.36
X127.54Y-75.9
X127.54Y-78.44
X127.54Y-80.98
X127.54Y-83.52
X127.54Y-86.06
X127.54Y-88.6
X127.54Y-91.14
X127.54Y-93.68
X127.54Y-96.22
X127.54Y-98.76
X131.855Y-111.3
X134.395Y-111.3
X142.78Y-50.5
X142.78Y-53.04
X142.78Y-55.58
X142.78Y-58.12
X142.78Y-60.66
X142.78Y-63.2
X142.78Y-65.74
X142.78Y-68.28
X142.78Y-70.82
X142.78Y-73.36
X142.78Y-75.9
X142.78Y-78.44
X142.78Y-80.98
X142.78Y-83.52
X142.78Y-86.06
X142.78Y-88.6
X142.78Y-91.14
X142.78Y-93.68
X142.78Y-96.22
X142.78Y-98.76
X145.32Y-50.5
X145.32Y-53.04
X145.32Y-55.58
X145.32Y-58.12
X145.32Y-60.66
X145.32Y-63.2
X145.32Y-65.74
X145.32Y-68.28
X145.32Y-70.82
X145.32Y-73.36
X145.32Y-75.9
X145.32Y-78.44
X145.32Y-80.98
X145.32Y-83.52
X145.32Y-86.06
X145.32Y-88.6
X145.32Y-91.14
X145.32Y-93.68
X145.32Y-96.22
X145.32Y-98.76
T3
X89.377Y-92.405
X89.377Y-94.945
X89.377Y-97.485
X89.377Y-100.025
X89.44Y-64.445
X89.44Y-66.985
X89.44Y-69.525
X89.44Y-72.065
X89.44Y-74.605
X89.44Y-77.145
X89.44Y-79.685
X89.44Y-82.225
X114.65Y-64.445
X114.65Y-66.985
X114.65Y-69.525
X114.65Y-72.065
X114.65Y-74.605
X114.65Y-77.145
X114.65Y-79.685
X114.65Y-82.225
X114.68Y-92.325
X114.68Y-94.865
X114.68Y-97.405
X114.68Y-99.945
X122.525Y-64.445
X122.525Y-66.985
X122.525Y-69.525
X122.525Y-72.065
X122.525Y-74.605
X122.525Y-77.145
X122.525Y-79.685
X122.525Y-82.225
X122.555Y-92.325
X122.555Y-94.865
X122.555Y-97.405
X122.555Y-99.945
X147.735Y-64.445
X147.735Y-66.985
X147.735Y-69.525
X147.735Y-72.065
X147.735Y-74.605
X147.735Y-77.145
X147.735Y-79.685
X147.735Y-82.225
X147.857Y-92.405
X147.857Y-94.945
X147.857Y-97.485
X147.857Y-100.025
T4
X-21.49Y-75.985
X-21.49Y-95.035
X-21.49Y-114.085
X-21.49Y-133.135
X-13.49Y-75.985
X-13.49Y-95.035
X-13.49Y-114.085
X-13.49Y-133.135
X-2.473Y-133.02
X-2.44Y-75.985
X-2.44Y-95.035
X-2.44Y-114.085
X5.527Y-133.02
X5.559Y-75.985
X5.559Y-95.035
X5.559Y-114.085
X16.61Y-71.085
X16.61Y-90.135
X16.61Y-109.185
X16.61Y-128.235
X16.61Y-147.285
X24.61Y-71.085
X24.61Y-90.135
X24.61Y-109.185
X24.61Y-128.235
X24.61Y-147.285
X35.66Y-68.62
X35.66Y-87.635
X35.66Y-106.685
X35.66Y-125.735
X35.66Y-144.785
X43.66Y-68.62
X43.66Y-87.635
X43.66Y-106.685
X43.66Y-125.735
X43.66Y-144.785
X54.365Y-90.047
X54.365Y-109.097
X54.365Y-128.147
X54.365Y-147.197
X54.365Y-70.997
X62.365Y-90.047
X62.365Y-109.097
X62.365Y-128.147
X62.365Y-147.197
X62.365Y-70.997
X73.638Y-73.538
X73.638Y-92.638
X73.638Y-130.688
X73.638Y-111.638
X74.119Y-150.843
X81.638Y-73.538
X81.638Y-92.638
X81.638Y-130.688
X81.638Y-111.638
X81.846Y-152.913
X90.623Y-152.609
X94.288Y-127.015
X97.752Y-156.241
X102.288Y-127.015
X114.65Y-50.54
X114.65Y-58.16
X122.585Y-50.54
X122.585Y-58.16
X134.947Y-127.015
X139.483Y-156.241
X142.947Y-127.015
X146.612Y-152.609
X155.386Y-152.91
X155.597Y-73.538
X155.597Y-92.638
X155.597Y-111.638
X155.597Y-130.688
X163.114Y-150.84
X163.597Y-73.538
X163.597Y-92.638
X163.597Y-111.638
X163.597Y-130.688
X174.87Y-70.997
X174.87Y-90.047
X174.87Y-109.097
X174.87Y-128.147
X174.87Y-147.197
X182.87Y-70.997
X182.87Y-90.047
X182.87Y-109.097
X182.87Y-128.147
X182.87Y-147.197
X193.576Y-68.62
X193.576Y-87.635
X193.576Y-106.685
X193.576Y-125.735
X193.576Y-144.785
X201.575Y-68.62
X201.575Y-87.635
X201.575Y-106.685
X201.575Y-125.735
X201.575Y-144.785
X212.625Y-71.085
X212.625Y-90.135
X212.625Y-109.185
X212.625Y-128.235
X212.625Y-147.285
X220.625Y-71.085
X220.625Y-90.135
X220.625Y-109.185
X220.625Y-128.235
X220.625Y-147.285
X231.675Y-75.985
X231.675Y-95.035
X231.675Y-114.085
X231.708Y-133.02
X239.675Y-75.985
X239.675Y-95.035
X239.675Y-114.085
X239.708Y-133.02
X250.725Y-75.985
X250.725Y-95.035
X250.725Y-114.085
X250.725Y-133.135
X258.726Y-75.985
X258.726Y-95.035
X258.726Y-114.085
X258.726Y-133.135
T5
X-25.615Y-62.725
X90.787Y-115.975
X90.787Y-118.475
X90.787Y-120.975
X105.287Y-115.975
X105.287Y-120.975
X108.117Y-120.045
X108.117Y-122.585
X108.117Y-125.125
X108.117Y-127.665
X108.117Y-130.205
X111.367Y-120.045
X111.367Y-122.585
X111.367Y-125.125
X111.367Y-127.665
X111.367Y-130.205
X114.594Y-120.02
X114.594Y-122.56
X114.594Y-125.1
X114.594Y-130.18
X122.64Y-120.015
X122.64Y-122.555
X122.64Y-125.095
X122.64Y-130.175
X125.867Y-120.045
X125.867Y-122.585
X125.867Y-125.125
X125.867Y-127.665
X125.867Y-130.205
X129.118Y-120.045
X129.118Y-122.585
X129.118Y-125.125
X129.118Y-127.665
X129.118Y-130.205
X131.95Y-115.975
X131.95Y-120.975
X146.45Y-115.975
X146.45Y-118.475
X146.45Y-120.975
X263.0Y-62.8
T6
X30.112Y-95.345
X49.162Y-76.295
X49.162Y-114.395
X68.212Y-95.345
X169.022Y-95.345
X188.072Y-76.295
X188.072Y-114.395
X207.123Y-95.345
T7
X-8.002Y-75.885
X-7.987Y-114.0
X68.757Y-111.435
X68.847Y-73.485
X86.277Y-51.093
X93.147Y-104.565
X94.697Y-134.505
X112.638Y-114.975
X124.597Y-114.975
X142.537Y-134.505
X144.088Y-104.565
X150.957Y-51.093
X168.387Y-73.485
X168.477Y-111.435
X245.222Y-114.0
X245.237Y-75.885
T5
X104.847Y-104.695G85X105.347Y-104.695
G05
X104.847Y-107.145G85X105.347Y-107.145
G05
X106.347Y-102.945G85X106.847Y-102.945
G05
X106.347Y-108.895G85X106.847Y-108.895
G05
X110.347Y-102.945G85X110.847Y-102.945
G05
X110.347Y-108.895G85X110.847Y-108.895
G05
X113.347Y-102.945G85X113.847Y-102.945
G05
X113.347Y-108.895G85X113.847Y-108.895
G05
X123.875Y-102.95G85X123.375Y-102.95
G05
X123.875Y-108.9G85X123.375Y-108.9
G05
X126.875Y-102.95G85X126.375Y-102.95
G05
X126.875Y-108.9G85X126.375Y-108.9
G05
X130.875Y-102.95G85X130.375Y-102.95
G05
X130.875Y-108.9G85X130.375Y-108.9
G05
X132.375Y-104.7G85X131.875Y-104.7
G05
X132.375Y-107.15G85X131.875Y-107.15
G05
M30
