M48
; DRILL file {KiCad 7.0.10} date Sat Mar  2 14:12:12 2024
; FORMAT={-:-/ absolute / metric / decimal}
; #@! TF.CreationDate,2024-03-02T14:12:12-05:00
; #@! TF.GenerationSoftware,Kicad,Pcbnew,7.0.10
; #@! TF.FileFunction,NonPlated,1,2,NPTH
FMAT,2
METRIC
; #@! TA.AperFunction,NonPlated,NPTH,ComponentDrill
T1C0.800
; #@! TA.AperFunction,NonPlated,NPTH,ComponentDrill
T2C1.000
; #@! TA.AperFunction,NonPlated,NPTH,ComponentDrill
T3C1.152
; #@! TA.AperFunction,NonPlated,NPTH,ComponentDrill
T4C1.200
; #@! TA.AperFunction,NonPlated,NPTH,ComponentDrill
T5C1.500
; #@! TA.AperFunction,NonPlated,NPTH,ComponentDrill
T6C1.900
; #@! TA.AperFunction,NonPlated,NPTH,ComponentDrill
T7C3.050
; #@! TA.AperFunction,NonPlated,NPTH,ComponentDrill
T8C3.200
; #@! TA.AperFunction,NonPlated,NPTH,ComponentDrill
T9C3.400
%
G90
G05
T1
X-28.517Y-58.135
X-25.977Y-58.135
X-20.517Y-58.135
X-18.517Y-58.135
X255.752Y-58.135
X257.752Y-58.135
X263.212Y-58.135
X265.752Y-58.135
T2
X114.594Y-127.64
X122.64Y-127.635
T3
X-26.79Y-133.0
X262.0Y-56.0
T4
X108.397Y-105.045
X108.397Y-106.795
X115.397Y-105.045
X115.397Y-106.795
X121.825Y-105.05
X121.825Y-106.8
X128.825Y-105.05
X128.825Y-106.8
T6
X-23.013Y-85.425
X-23.012Y-66.375
X-23.012Y-104.475
X-23.012Y-123.525
X-12.013Y-85.425
X-12.012Y-66.375
X-12.012Y-104.475
X-12.012Y-123.525
X-3.962Y-66.375
X-3.962Y-104.475
X-3.962Y-123.525
X-3.962Y-85.425
X7.037Y-66.375
X7.037Y-104.475
X7.037Y-123.525
X7.038Y-85.425
X15.087Y-61.475
X15.087Y-80.525
X15.087Y-99.575
X15.087Y-118.625
X15.087Y-137.675
X26.087Y-61.475
X26.087Y-80.525
X26.087Y-99.575
X26.087Y-118.625
X26.087Y-137.675
X34.137Y-58.975
X34.137Y-78.025
X34.137Y-97.075
X34.137Y-116.125
X34.137Y-135.175
X45.137Y-58.975
X45.137Y-78.025
X45.137Y-97.075
X45.137Y-116.125
X45.137Y-135.175
X53.188Y-61.475
X53.188Y-80.525
X53.188Y-99.575
X53.188Y-118.625
X53.188Y-137.675
X64.188Y-61.475
X64.188Y-80.525
X64.188Y-99.575
X64.188Y-118.625
X64.188Y-137.675
X72.237Y-63.975
X72.237Y-83.025
X72.237Y-102.075
X72.237Y-121.125
X75.375Y-140.952
X83.237Y-63.975
X83.237Y-83.025
X83.237Y-102.075
X83.237Y-121.125
X86.0Y-143.799
X98.995Y-152.716
X103.989Y-142.915
X133.246Y-142.915
X138.24Y-152.716
X151.235Y-143.799
X153.998Y-63.975
X153.998Y-83.025
X153.998Y-102.075
X153.998Y-121.125
X161.86Y-140.952
X164.998Y-63.975
X164.998Y-83.025
X164.998Y-102.075
X164.998Y-121.125
X173.047Y-61.475
X173.047Y-80.525
X173.047Y-99.575
X173.047Y-118.625
X173.047Y-137.675
X184.047Y-61.475
X184.047Y-80.525
X184.047Y-99.575
X184.047Y-118.625
X184.047Y-137.675
X192.097Y-58.975
X192.097Y-78.025
X192.097Y-97.075
X192.097Y-116.125
X192.097Y-135.175
X203.097Y-58.975
X203.097Y-78.025
X203.097Y-97.075
X203.097Y-116.125
X203.097Y-135.175
X211.147Y-61.475
X211.147Y-80.525
X211.147Y-99.575
X211.147Y-118.625
X211.147Y-137.675
X222.147Y-61.475
X222.147Y-80.525
X222.147Y-99.575
X222.147Y-118.625
X222.147Y-137.675
X230.197Y-66.375
X230.197Y-85.425
X230.197Y-104.475
X230.197Y-123.525
X241.197Y-66.375
X241.197Y-85.425
X241.197Y-104.475
X241.197Y-123.525
X249.248Y-66.375
X249.248Y-85.425
X249.248Y-104.475
X249.248Y-123.525
X260.248Y-66.375
X260.248Y-85.425
X260.248Y-104.475
X260.248Y-123.525
T7
X-22.513Y-89.225
X-22.512Y-70.175
X-22.512Y-108.275
X-22.512Y-127.325
X-17.513Y-91.325
X-17.512Y-72.275
X-17.512Y-110.375
X-17.512Y-129.425
X-12.513Y-89.225
X-12.512Y-70.175
X-12.512Y-108.275
X-12.512Y-127.325
X-3.462Y-70.175
X-3.462Y-108.275
X-3.462Y-127.325
X-3.462Y-89.225
X1.537Y-72.275
X1.537Y-110.375
X1.537Y-129.425
X1.538Y-91.325
X6.537Y-70.175
X6.537Y-108.275
X6.537Y-127.325
X6.538Y-89.225
X15.587Y-65.275
X15.587Y-84.325
X15.587Y-103.375
X15.587Y-122.425
X15.587Y-141.475
X20.587Y-67.375
X20.587Y-86.425
X20.587Y-105.475
X20.587Y-124.525
X20.587Y-143.575
X25.587Y-65.275
X25.587Y-84.325
X25.587Y-103.375
X25.587Y-122.425
X25.587Y-141.475
X34.637Y-62.775
X34.637Y-81.825
X34.637Y-100.875
X34.637Y-119.925
X34.637Y-138.975
X39.637Y-64.875
X39.637Y-83.925
X39.637Y-102.975
X39.637Y-122.025
X39.637Y-141.075
X44.637Y-62.775
X44.637Y-81.825
X44.637Y-100.875
X44.637Y-119.925
X44.637Y-138.975
X53.688Y-65.275
X53.688Y-84.325
X53.688Y-103.375
X53.688Y-122.425
X53.688Y-141.475
X58.688Y-67.375
X58.688Y-86.425
X58.688Y-105.475
X58.688Y-124.525
X58.688Y-143.575
X63.688Y-65.275
X63.688Y-84.325
X63.688Y-103.375
X63.688Y-122.425
X63.688Y-141.475
X72.737Y-67.775
X72.737Y-86.825
X72.737Y-105.875
X72.737Y-124.925
X74.874Y-144.752
X77.737Y-69.875
X77.737Y-88.925
X77.737Y-107.975
X77.737Y-127.025
X79.16Y-148.074
X82.737Y-67.775
X82.737Y-86.825
X82.737Y-105.875
X82.737Y-124.925
X84.534Y-147.34
X102.608Y-153.996
X106.749Y-150.494
X107.148Y-145.086
X130.087Y-145.086
X130.486Y-150.494
X134.627Y-153.996
X152.701Y-147.34
X154.498Y-67.775
X154.498Y-86.825
X154.498Y-105.875
X154.498Y-124.925
X158.075Y-148.074
X159.498Y-69.875
X159.498Y-88.925
X159.498Y-107.975
X159.498Y-127.025
X162.361Y-144.752
X164.498Y-67.775
X164.498Y-86.825
X164.498Y-105.875
X164.498Y-124.925
X173.547Y-65.275
X173.547Y-84.325
X173.547Y-103.375
X173.547Y-122.425
X173.547Y-141.475
X178.547Y-67.375
X178.547Y-86.425
X178.547Y-105.475
X178.547Y-124.525
X178.547Y-143.575
X183.547Y-65.275
X183.547Y-84.325
X183.547Y-103.375
X183.547Y-122.425
X183.547Y-141.475
X192.597Y-62.775
X192.597Y-81.825
X192.597Y-100.875
X192.597Y-119.925
X192.597Y-138.975
X197.597Y-64.875
X197.597Y-83.925
X197.597Y-102.975
X197.597Y-122.025
X197.597Y-141.075
X202.597Y-62.775
X202.597Y-81.825
X202.597Y-100.875
X202.597Y-119.925
X202.597Y-138.975
X211.647Y-65.275
X211.647Y-84.325
X211.647Y-103.375
X211.647Y-122.425
X211.647Y-141.475
X216.647Y-67.375
X216.647Y-86.425
X216.647Y-105.475
X216.647Y-124.525
X216.647Y-143.575
X221.647Y-65.275
X221.647Y-84.325
X221.647Y-103.375
X221.647Y-122.425
X221.647Y-141.475
X230.697Y-70.175
X230.697Y-89.225
X230.697Y-108.275
X230.697Y-127.325
X235.697Y-72.275
X235.697Y-91.325
X235.697Y-110.375
X235.697Y-129.425
X240.697Y-70.175
X240.697Y-89.225
X240.697Y-108.275
X240.697Y-127.325
X249.748Y-70.175
X249.748Y-89.225
X249.748Y-108.275
X249.748Y-127.325
X254.748Y-72.275
X254.748Y-91.325
X254.748Y-110.375
X254.748Y-129.425
X259.748Y-70.175
X259.748Y-89.225
X259.748Y-108.275
X259.748Y-127.325
T8
X118.625Y-54.0
X118.625Y-95.0
X118.625Y-130.0
T9
X-17.513Y-85.425
X-17.512Y-66.375
X-17.512Y-104.475
X-17.512Y-123.525
X1.537Y-66.375
X1.537Y-104.475
X1.537Y-123.525
X1.538Y-85.425
X20.587Y-61.475
X20.587Y-80.525
X20.587Y-99.575
X20.587Y-118.625
X20.587Y-137.675
X39.637Y-58.975
X39.637Y-78.025
X39.637Y-97.075
X39.637Y-116.125
X39.637Y-135.175
X58.688Y-61.475
X58.688Y-80.525
X58.688Y-99.575
X58.688Y-118.625
X58.688Y-137.675
X77.737Y-63.975
X77.737Y-83.025
X77.737Y-102.075
X77.737Y-121.125
X80.688Y-142.375
X101.492Y-147.816
X135.743Y-147.816
X156.547Y-142.375
X159.498Y-63.975
X159.498Y-83.025
X159.498Y-102.075
X159.498Y-121.125
X178.547Y-61.475
X178.547Y-80.525
X178.547Y-99.575
X178.547Y-118.625
X178.547Y-137.675
X197.597Y-58.975
X197.597Y-78.025
X197.597Y-97.075
X197.597Y-116.125
X197.597Y-135.175
X216.647Y-61.475
X216.647Y-80.525
X216.647Y-99.575
X216.647Y-118.625
X216.647Y-137.675
X235.697Y-66.375
X235.697Y-85.425
X235.697Y-104.475
X235.697Y-123.525
X254.748Y-66.375
X254.748Y-85.425
X254.748Y-104.475
X254.748Y-123.525
T5
X97.637Y-112.875G85X98.938Y-112.875
G05
X97.637Y-124.075G85X98.938Y-124.075
G05
X139.6Y-112.875G85X138.3Y-112.875
G05
X139.6Y-124.075G85X138.3Y-124.075
G05
M30
