%TF.GenerationSoftware,KiCad,Pcbnew,7.0.10*%
%TF.CreationDate,2024-03-02T14:12:03-05:00*%
%TF.ProjectId,Sofle_Chico_Panel,536f666c-655f-4436-9869-636f5f50616e,v3.5.4*%
%TF.SameCoordinates,Original*%
%TF.FileFunction,Soldermask,Top*%
%TF.FilePolarity,Negative*%
%FSLAX46Y46*%
G04 Gerber Fmt 4.6, Leading zero omitted, Abs format (unit mm)*
G04 Created by KiCad (PCBNEW 7.0.10) date 2024-03-02 14:12:03*
%MOMM*%
%LPD*%
G01*
G04 APERTURE LIST*
G04 Aperture macros list*
%AMRoundRect*
0 Rectangle with rounded corners*
0 $1 Rounding radius*
0 $2 $3 $4 $5 $6 $7 $8 $9 X,Y pos of 4 corners*
0 Add a 4 corners polygon primitive as box body*
4,1,4,$2,$3,$4,$5,$6,$7,$8,$9,$2,$3,0*
0 Add four circle primitives for the rounded corners*
1,1,$1+$1,$2,$3*
1,1,$1+$1,$4,$5*
1,1,$1+$1,$6,$7*
1,1,$1+$1,$8,$9*
0 Add four rect primitives between the rounded corners*
20,1,$1+$1,$2,$3,$4,$5,0*
20,1,$1+$1,$4,$5,$6,$7,0*
20,1,$1+$1,$6,$7,$8,$9,0*
20,1,$1+$1,$8,$9,$2,$3,0*%
%AMFreePoly0*
4,1,75,1.330900,1.445106,1.330902,1.445106,1.389681,1.426008,1.389684,1.426005,1.399134,1.419137,1.439679,1.389683,1.439683,1.389677,1.448317,1.377791,1.476006,1.339685,1.476009,1.339677,1.480903,1.324613,1.495106,1.280906,1.495106,1.280902,1.500000,1.250000,1.500000,-0.300000,1.495106,-0.330902,1.476008,-0.389681,1.476005,-0.389684,1.466695,-0.402497,1.439683,-0.439679,
1.439677,-0.439683,1.426863,-0.448992,1.389685,-0.476006,1.389677,-0.476009,1.374613,-0.480903,1.374612,-0.480902,1.330906,-0.495106,1.330900,-0.495106,1.300000,-0.500000,0.786025,-0.500000,-0.054810,-1.387548,-0.079615,-1.406615,-0.087890,-1.411117,-0.088437,-1.410109,-0.110321,-1.426008,-0.122580,-1.429991,-0.133902,-1.436151,-0.160488,-1.441102,-0.160134,-1.442192,-0.169095,-1.445104,
-0.200000,-1.450000,-1.250000,-1.450000,-1.280900,-1.445106,-1.280902,-1.445106,-1.339681,-1.426008,-1.339684,-1.426005,-1.349134,-1.419137,-1.389679,-1.389683,-1.389683,-1.389677,-1.398992,-1.376863,-1.426006,-1.339685,-1.426009,-1.339677,-1.430903,-1.324613,-1.430902,-1.324612,-1.445106,-1.280906,-1.445106,-1.280902,-1.450000,-1.250000,-1.450000,1.250000,-1.445106,1.280902,-1.440212,1.295964,
-1.426008,1.339681,-1.426005,1.339684,-1.416695,1.352497,-1.389683,1.389679,-1.389677,1.389683,-1.376863,1.398992,-1.339685,1.426006,-1.339677,1.426009,-1.324613,1.430903,-1.324612,1.430902,-1.280906,1.445106,-1.280900,1.445106,-1.250000,1.450000,1.300000,1.450000,1.330900,1.445106,1.330900,1.445106,$1*%
%AMFreePoly1*
4,1,35,0.686755,0.459039,0.733825,0.449676,0.751849,0.442210,0.791753,0.415547,0.805547,0.401753,0.832210,0.361849,0.839676,0.343825,0.849039,0.296755,0.850000,0.287000,0.850000,-0.287000,0.849039,-0.296755,0.839676,-0.343825,0.832210,-0.361849,0.805547,-0.401753,0.791753,-0.415547,0.751849,-0.442210,0.733825,-0.449676,0.686755,-0.459039,0.677000,-0.460000,-0.472000,-0.460000,
-0.507355,-0.445355,-0.835355,-0.117355,-0.850000,-0.082000,-0.850000,0.287000,-0.849039,0.296755,-0.839676,0.343825,-0.832210,0.361849,-0.805547,0.401753,-0.791753,0.415547,-0.751849,0.442210,-0.733825,0.449676,-0.686755,0.459039,-0.677000,0.460000,0.677000,0.460000,0.686755,0.459039,0.686755,0.459039,$1*%
%AMFreePoly2*
4,1,39,0.560355,0.785355,0.785355,0.560355,0.800000,0.525000,0.800000,-0.525000,0.785355,-0.560355,0.560355,-0.785355,0.525000,-0.800000,0.000000,-0.800000,-0.005082,-0.799741,-0.156745,-0.784246,-0.167390,-0.781967,-0.332691,-0.727193,-0.343213,-0.722287,-0.491426,-0.630868,-0.500532,-0.623667,-0.623667,-0.500532,-0.630868,-0.491426,-0.722287,-0.343213,-0.727193,-0.332691,-0.781967,-0.167390,
-0.784246,-0.156745,-0.799741,-0.005082,-0.799741,0.005082,-0.784246,0.156745,-0.781967,0.167390,-0.727193,0.332691,-0.722287,0.343213,-0.630868,0.491426,-0.623667,0.500532,-0.500532,0.623667,-0.491426,0.630868,-0.343213,0.722287,-0.332691,0.727193,-0.167390,0.781967,-0.156745,0.784246,-0.005082,0.799741,0.000000,0.800000,0.525000,0.800000,0.560355,0.785355,0.560355,0.785355,
$1*%
%AMFreePoly3*
4,1,14,0.535355,0.785355,0.550000,0.750000,0.550000,-0.750000,0.535355,-0.785355,0.500000,-0.800000,0.250000,-0.800000,0.214645,-0.785355,-0.535355,-0.035355,-0.550000,0.000000,-0.535355,0.035355,0.214645,0.785355,0.250000,0.800000,0.500000,0.800000,0.535355,0.785355,0.535355,0.785355,$1*%
%AMFreePoly4*
4,1,16,1.025355,0.785355,1.040000,0.750000,1.025355,0.714645,0.310710,0.000000,1.025355,-0.714645,1.040000,-0.750000,1.025355,-0.785355,0.990000,-0.800000,-0.260000,-0.800000,-0.295355,-0.785355,-0.310000,-0.750000,-0.310000,0.750000,-0.295355,0.785355,-0.260000,0.800000,0.990000,0.800000,1.025355,0.785355,1.025355,0.785355,$1*%
%AMFreePoly5*
4,1,39,0.005082,0.799741,0.156745,0.784246,0.167390,0.781967,0.332691,0.727193,0.343213,0.722287,0.491426,0.630868,0.500532,0.623667,0.623667,0.500532,0.630868,0.491426,0.722287,0.343213,0.727193,0.332691,0.781967,0.167390,0.784246,0.156745,0.799741,0.005082,0.799741,-0.005082,0.784246,-0.156745,0.781967,-0.167390,0.727193,-0.332691,0.722287,-0.343213,0.630868,-0.491426,
0.623667,-0.500532,0.500532,-0.623667,0.491426,-0.630868,0.343213,-0.722287,0.332691,-0.727193,0.167390,-0.781967,0.156745,-0.784246,0.005082,-0.799741,0.000000,-0.800000,-0.600000,-0.800000,-0.635355,-0.785355,-0.785355,-0.635355,-0.800000,-0.600000,-0.800000,0.600000,-0.785355,0.635355,-0.635355,0.785355,-0.600000,0.800000,0.000000,0.800000,0.005082,0.799741,0.005082,0.799741,
$1*%
%AMFreePoly6*
4,1,56,0.118133,1.292104,0.126817,1.290741,0.305186,1.246382,0.315334,1.242654,0.479998,1.160989,0.489108,1.155166,0.632366,1.040012,0.640012,1.032366,0.755166,0.889108,0.760989,0.879998,0.842654,0.715334,0.846382,0.705186,0.890741,0.526817,0.892104,0.518133,0.899885,0.403383,0.900000,0.400000,0.900000,-0.400000,0.899885,-0.403383,0.892104,-0.518133,0.890741,-0.526817,
0.846382,-0.705186,0.842654,-0.715334,0.760989,-0.879998,0.755166,-0.889108,0.640012,-1.032366,0.632366,-1.040012,0.489108,-1.155166,0.479998,-1.160989,0.315334,-1.242654,0.305186,-1.246382,0.126817,-1.290741,0.118133,-1.292104,0.003383,-1.299885,-0.032882,-1.287666,-0.035355,-1.285355,-0.885355,-0.435355,-0.900000,-0.400000,-0.900000,0.400000,-0.899885,0.403383,-0.892104,0.518133,
-0.890741,0.526817,-0.846382,0.705186,-0.842654,0.715334,-0.760989,0.879998,-0.755166,0.889108,-0.640012,1.032366,-0.632366,1.040012,-0.489108,1.155166,-0.479998,1.160989,-0.315334,1.242654,-0.305186,1.246382,-0.126817,1.290741,-0.118133,1.292104,-0.003383,1.299885,0.003383,1.299885,0.118133,1.292104,0.118133,1.292104,$1*%
%AMFreePoly7*
4,1,56,0.003383,1.299885,0.118133,1.292104,0.126817,1.290741,0.305186,1.246382,0.315334,1.242654,0.479998,1.160989,0.489108,1.155166,0.632366,1.040012,0.640012,1.032366,0.755166,0.889108,0.760989,0.879998,0.842654,0.715334,0.846382,0.705186,0.890741,0.526817,0.892104,0.518133,0.899885,0.403383,0.900000,0.400000,0.900000,-0.400000,0.899885,-0.403383,0.892104,-0.518133,
0.890741,-0.526817,0.846382,-0.705186,0.842654,-0.715334,0.760989,-0.879998,0.755166,-0.889108,0.640012,-1.032366,0.632366,-1.040012,0.489108,-1.155166,0.479998,-1.160989,0.315334,-1.242654,0.305186,-1.246382,0.126817,-1.290741,0.118133,-1.292104,0.003383,-1.299885,-0.003383,-1.299885,-0.118133,-1.292104,-0.126817,-1.290741,-0.305186,-1.246382,-0.315334,-1.242654,-0.479998,-1.160989,
-0.489108,-1.155166,-0.632366,-1.040012,-0.640012,-1.032366,-0.755166,-0.889108,-0.760989,-0.879998,-0.842654,-0.715334,-0.846382,-0.705186,-0.890741,-0.526817,-0.892104,-0.518133,-0.899885,-0.403383,-0.900000,-0.400000,-0.900000,0.400000,-0.885355,0.435355,-0.035355,1.285355,0.000000,1.300000,0.003383,1.299885,0.003383,1.299885,$1*%
G04 Aperture macros list end*
%ADD10C,0.250000*%
%ADD11C,0.022619*%
%ADD12C,0.100000*%
%ADD13RoundRect,0.050000X-0.700000X-0.700000X0.700000X-0.700000X0.700000X0.700000X-0.700000X0.700000X0*%
%ADD14RoundRect,0.325000X-0.475000X-0.325000X0.475000X-0.325000X0.475000X0.325000X-0.475000X0.325000X0*%
%ADD15RoundRect,0.325000X-0.425000X-0.325000X0.425000X-0.325000X0.425000X0.325000X-0.425000X0.325000X0*%
%ADD16C,1.500000*%
%ADD17RoundRect,0.050000X-0.305911X-0.941498X0.941498X-0.305911X0.305911X0.941498X-0.941498X0.305911X0*%
%ADD18RoundRect,0.325000X-0.275681X-0.505223X0.570775X-0.073932X0.275681X0.505223X-0.570775X0.073932X0*%
%ADD19RoundRect,0.325000X-0.231131X-0.482523X0.526225X-0.096631X0.231131X0.482523X-0.526225X0.096631X0*%
%ADD20C,2.000000*%
%ADD21C,3.150000*%
%ADD22C,3.400000*%
%ADD23FreePoly0,180.000000*%
%ADD24RoundRect,0.260000X1.065000X1.040000X-1.065000X1.040000X-1.065000X-1.040000X1.065000X-1.040000X0*%
%ADD25FreePoly0,117.000000*%
%ADD26RoundRect,0.260000X1.410147X-0.476772X0.443147X1.421072X-1.410147X0.476772X-0.443147X-1.421072X0*%
%ADD27FreePoly0,195.000000*%
%ADD28RoundRect,0.260000X0.759539X1.280205X-1.297883X0.728921X-0.759539X-1.280205X1.297883X-0.728921X0*%
%ADD29C,4.800000*%
%ADD30RoundRect,0.050000X-0.494975X-0.857321X0.857321X-0.494975X0.494975X0.857321X-0.857321X0.494975X0*%
%ADD31RoundRect,0.325000X-0.374699X-0.436865X0.542931X-0.190987X0.374699X0.436865X-0.542931X0.190987X0*%
%ADD32RoundRect,0.325000X-0.326402X-0.423924X0.494635X-0.203928X0.326402X0.423924X-0.494635X0.203928X0*%
%ADD33FreePoly1,180.000000*%
%ADD34RoundRect,0.138000X-0.712000X-0.322000X0.712000X-0.322000X0.712000X0.322000X-0.712000X0.322000X0*%
%ADD35RoundRect,0.138000X0.712000X0.322000X-0.712000X0.322000X-0.712000X-0.322000X0.712000X-0.322000X0*%
%ADD36RoundRect,0.138000X0.762000X0.322000X-0.762000X0.322000X-0.762000X-0.322000X0.762000X-0.322000X0*%
%ADD37FreePoly1,0.000000*%
%ADD38RoundRect,0.138000X-0.762000X-0.322000X0.762000X-0.322000X0.762000X0.322000X-0.762000X0.322000X0*%
%ADD39RoundRect,0.050000X0.700000X0.700000X-0.700000X0.700000X-0.700000X-0.700000X0.700000X-0.700000X0*%
%ADD40RoundRect,0.325000X0.475000X0.325000X-0.475000X0.325000X-0.475000X-0.325000X0.475000X-0.325000X0*%
%ADD41RoundRect,0.325000X0.425000X0.325000X-0.425000X0.325000X-0.425000X-0.325000X0.425000X-0.325000X0*%
%ADD42FreePoly1,15.000000*%
%ADD43RoundRect,0.138000X0.604399X0.495307X-0.771079X0.126749X-0.604399X-0.495307X0.771079X-0.126749X0*%
%ADD44RoundRect,0.138000X-0.604399X-0.495307X0.771079X-0.126749X0.604399X0.495307X-0.771079X0.126749X0*%
%ADD45RoundRect,0.138000X-0.652696X-0.508248X0.819375X-0.113808X0.652696X0.508248X-0.819375X0.113808X0*%
%ADD46C,1.497000*%
%ADD47RoundRect,0.050000X0.698500X-0.698500X0.698500X0.698500X-0.698500X0.698500X-0.698500X-0.698500X0*%
%ADD48FreePoly1,297.000000*%
%ADD49RoundRect,0.138000X0.610145X-0.488212X-0.036337X0.780582X-0.610145X0.488212X0.036337X-0.780582X0*%
%ADD50RoundRect,0.138000X-0.610145X0.488212X0.036337X-0.780582X0.610145X-0.488212X-0.036337X0.780582X0*%
%ADD51RoundRect,0.138000X-0.632845X0.532762X0.059037X-0.825132X0.632845X-0.532762X-0.059037X0.825132X0*%
%ADD52RoundRect,0.050000X0.750000X-0.750000X0.750000X0.750000X-0.750000X0.750000X-0.750000X-0.750000X0*%
%ADD53RoundRect,0.325000X0.325000X-0.475000X0.325000X0.475000X-0.325000X0.475000X-0.325000X-0.475000X0*%
%ADD54RoundRect,0.325000X0.325000X-0.425000X0.325000X0.425000X-0.325000X0.425000X-0.325000X-0.425000X0*%
%ADD55O,1.600000X1.600000*%
%ADD56C,3.300000*%
%ADD57RoundRect,0.271277X-0.503723X0.366223X-0.503723X-0.366223X0.503723X-0.366223X0.503723X0.366223X0*%
%ADD58C,1.448000*%
%ADD59FreePoly2,180.000000*%
%ADD60FreePoly3,0.000000*%
%ADD61FreePoly4,0.000000*%
%ADD62FreePoly5,180.000000*%
%ADD63RoundRect,0.050000X-0.698500X0.698500X-0.698500X-0.698500X0.698500X-0.698500X0.698500X0.698500X0*%
%ADD64RoundRect,0.050000X-1.000000X-1.000000X1.000000X-1.000000X1.000000X1.000000X-1.000000X1.000000X0*%
%ADD65C,4.500000*%
%ADD66FreePoly0,243.000000*%
%ADD67RoundRect,0.260000X-0.443147X1.421072X-1.410147X-0.476772X0.443147X-1.421072X1.410147X0.476772X0*%
%ADD68FreePoly1,165.000000*%
%ADD69RoundRect,0.138000X-0.771079X-0.126749X0.604399X-0.495307X0.771079X0.126749X-0.604399X0.495307X0*%
%ADD70RoundRect,0.138000X0.771079X0.126749X-0.604399X0.495307X-0.771079X-0.126749X0.604399X-0.495307X0*%
%ADD71RoundRect,0.138000X0.819375X0.113808X-0.652696X0.508248X-0.819375X-0.113808X0.652696X-0.508248X0*%
%ADD72FreePoly1,243.000000*%
%ADD73RoundRect,0.138000X-0.036337X-0.780582X0.610145X0.488212X0.036337X0.780582X-0.610145X-0.488212X0*%
%ADD74RoundRect,0.138000X0.036337X0.780582X-0.610145X-0.488212X-0.036337X-0.780582X0.610145X0.488212X0*%
%ADD75RoundRect,0.138000X0.059037X0.825132X-0.632845X-0.532762X-0.059037X-0.825132X0.632845X0.532762X0*%
%ADD76C,0.900000*%
%ADD77RoundRect,0.271277X0.366223X0.503723X-0.366223X0.503723X-0.366223X-0.503723X0.366223X-0.503723X0*%
%ADD78FreePoly2,0.000000*%
%ADD79FreePoly3,180.000000*%
%ADD80FreePoly4,180.000000*%
%ADD81FreePoly5,0.000000*%
%ADD82RoundRect,0.050000X0.941498X0.305911X-0.305911X0.941498X-0.941498X-0.305911X0.305911X-0.941498X0*%
%ADD83RoundRect,0.325000X0.570775X0.073932X-0.275681X0.505223X-0.570775X-0.073932X0.275681X-0.505223X0*%
%ADD84RoundRect,0.325000X0.526225X0.096631X-0.231131X0.482523X-0.526225X-0.096631X0.231131X-0.482523X0*%
%ADD85RoundRect,0.175000X0.175000X-0.612500X0.175000X0.612500X-0.175000X0.612500X-0.175000X-0.612500X0*%
%ADD86RoundRect,0.175000X-0.612500X-0.175000X0.612500X-0.175000X0.612500X0.175000X-0.612500X0.175000X0*%
%ADD87RoundRect,0.050000X0.857321X0.494975X-0.494975X0.857321X-0.857321X-0.494975X0.494975X-0.857321X0*%
%ADD88RoundRect,0.325000X0.542931X0.190987X-0.374699X0.436865X-0.542931X-0.190987X0.374699X-0.436865X0*%
%ADD89RoundRect,0.325000X0.494635X0.203928X-0.326402X0.423924X-0.494635X-0.203928X0.326402X-0.423924X0*%
%ADD90RoundRect,0.271277X-0.366223X-0.503723X0.366223X-0.503723X0.366223X0.503723X-0.366223X0.503723X0*%
%ADD91FreePoly0,165.000000*%
%ADD92RoundRect,0.260000X1.297883X0.728921X-0.759539X1.280205X-1.297883X-0.728921X0.759539X-1.280205X0*%
%ADD93C,1.300000*%
%ADD94FreePoly6,270.000000*%
%ADD95FreePoly7,270.000000*%
%ADD96O,2.600000X1.800000*%
%ADD97C,1.100000*%
%ADD98RoundRect,0.050000X0.850000X0.850000X-0.850000X0.850000X-0.850000X-0.850000X0.850000X-0.850000X0*%
%ADD99O,1.800000X1.800000*%
%ADD100C,1.800000*%
%ADD101FreePoly6,90.000000*%
%ADD102FreePoly7,90.000000*%
%ADD103C,1.600000*%
%ADD104RoundRect,0.050000X0.750000X0.750000X-0.750000X0.750000X-0.750000X-0.750000X0.750000X-0.750000X0*%
%ADD105RoundRect,0.260000X-1.065000X-1.040000X1.065000X-1.040000X1.065000X1.040000X-1.065000X1.040000X0*%
%ADD106RoundRect,0.050000X1.000000X1.000000X-1.000000X1.000000X-1.000000X-1.000000X1.000000X-1.000000X0*%
%ADD107O,2.900000X1.600000*%
%ADD108C,2.100000*%
G04 APERTURE END LIST*
D10*
X133054374Y-164190565D02*
X188069099Y-148695000D01*
X207119099Y-47945000D02*
X264432942Y-55343999D01*
X121847884Y-47945000D02*
G75*
G03*
X120347500Y-49445384I116J-1500500D01*
G01*
X-28532299Y-133044235D02*
G75*
G03*
X-27626563Y-134421497I1499702J-196D01*
G01*
X120347500Y-49445384D02*
X120347500Y-141500135D01*
X-28532299Y-133044235D02*
X-28532300Y-56844235D01*
X226169099Y-148695000D02*
X264863362Y-134422262D01*
X-27626563Y-134421497D02*
X11067700Y-148694235D01*
X104182417Y-164189831D02*
G75*
G03*
X105914819Y-163423971I395783J1447031D01*
G01*
X116889365Y-49444619D02*
G75*
G03*
X115388916Y-47944235I-1500465J-81D01*
G01*
X116725821Y-142207058D02*
G75*
G03*
X116889299Y-141499370I-1338221J681858D01*
G01*
X131321969Y-163424741D02*
G75*
G03*
X133054374Y-164190564I1336531J681041D01*
G01*
X49167700Y-148694236D02*
X104182425Y-164189800D01*
X265769150Y-56845000D02*
G75*
G03*
X264432942Y-55343999I-1511050J100D01*
G01*
X115388916Y-47944235D02*
X30117700Y-47944235D01*
X265769099Y-56845000D02*
X265769099Y-133045000D01*
X-27196143Y-55343234D02*
X30117700Y-47944235D01*
X120347482Y-141500135D02*
G75*
G03*
X120510989Y-142207818I1501718J-25765D01*
G01*
X11067700Y-148694235D02*
X49167700Y-148694236D01*
X264863375Y-134422293D02*
G75*
G03*
X265769099Y-133045000I-593875J1376993D01*
G01*
X207119099Y-47945000D02*
X121847884Y-47945000D01*
X188069099Y-148695000D02*
X226169099Y-148695000D01*
X120510988Y-142207818D02*
X131321980Y-163424736D01*
X-27196143Y-55343234D02*
G75*
G03*
X-28532300Y-56844235I174943J-1500939D01*
G01*
X116889299Y-141499370D02*
X116889299Y-49444619D01*
X105914819Y-163423971D02*
X116725811Y-142207053D01*
D11*
X1412952Y-134778632D02*
X1452722Y-134780223D01*
X1492587Y-134782758D01*
X1532502Y-134786252D01*
X1572417Y-134790721D01*
X1612287Y-134796180D01*
X1652063Y-134802646D01*
X1691698Y-134810133D01*
X1731146Y-134818659D01*
X1770359Y-134828238D01*
X1809289Y-134838886D01*
X1847889Y-134850619D01*
X1886113Y-134863453D01*
X1923912Y-134877403D01*
X1961240Y-134892486D01*
X2042192Y-134889029D01*
X2123850Y-134891362D01*
X2205925Y-134899356D01*
X2288127Y-134912884D01*
X2370166Y-134931816D01*
X2451750Y-134956024D01*
X2532591Y-134985379D01*
X2612398Y-135019753D01*
X2690881Y-135059017D01*
X2767749Y-135103042D01*
X2842713Y-135151700D01*
X2915483Y-135204863D01*
X2985767Y-135262401D01*
X3053277Y-135324187D01*
X3117721Y-135390091D01*
X3178810Y-135459985D01*
X3236254Y-135533741D01*
X3289762Y-135611229D01*
X3339045Y-135692321D01*
X3383811Y-135776889D01*
X3423772Y-135864804D01*
X3458636Y-135955938D01*
X3488114Y-136050161D01*
X3511915Y-136147346D01*
X3529750Y-136247364D01*
X3541328Y-136350085D01*
X3546358Y-136455382D01*
X3544552Y-136563126D01*
X3535618Y-136673188D01*
X3519267Y-136785440D01*
X3495208Y-136899754D01*
X3463151Y-137016000D01*
X3445078Y-137061749D01*
X3424813Y-137106461D01*
X3402442Y-137150087D01*
X3378048Y-137192577D01*
X3351715Y-137233883D01*
X3323529Y-137273955D01*
X3293572Y-137312745D01*
X3261929Y-137350203D01*
X3228685Y-137386281D01*
X3193924Y-137420930D01*
X3157730Y-137454101D01*
X3120186Y-137485744D01*
X3081378Y-137515812D01*
X3041389Y-137544254D01*
X3000304Y-137571022D01*
X2958208Y-137596067D01*
X2909371Y-137670262D01*
X2859537Y-137741657D01*
X2808454Y-137810327D01*
X2755866Y-137876345D01*
X2701519Y-137939785D01*
X2645159Y-138000722D01*
X2586532Y-138059230D01*
X2525383Y-138115383D01*
X2461460Y-138169255D01*
X2394506Y-138220920D01*
X2324268Y-138270452D01*
X2250493Y-138317925D01*
X2172925Y-138363414D01*
X2091310Y-138406992D01*
X2005395Y-138448734D01*
X1914925Y-138488713D01*
X1837109Y-138509360D01*
X1747209Y-138525854D01*
X1647198Y-138537720D01*
X1539047Y-138544487D01*
X1424729Y-138545681D01*
X1306213Y-138540828D01*
X1185474Y-138529457D01*
X1064482Y-138511095D01*
X945209Y-138485267D01*
X829627Y-138451502D01*
X773836Y-138431494D01*
X719708Y-138409325D01*
X667488Y-138384936D01*
X617423Y-138358266D01*
X569760Y-138329256D01*
X524745Y-138297849D01*
X482624Y-138263984D01*
X443645Y-138227603D01*
X408053Y-138188645D01*
X376095Y-138147054D01*
X348017Y-138102768D01*
X324066Y-138055729D01*
X248936Y-138027424D01*
X202783Y-138008510D01*
X152110Y-137985717D01*
X97821Y-137958517D01*
X40820Y-137926379D01*
X-17989Y-137888777D01*
X-77703Y-137845180D01*
X-137417Y-137795059D01*
X-196228Y-137737887D01*
X-225012Y-137706491D01*
X-253231Y-137673134D01*
X-280773Y-137637750D01*
X-307523Y-137600272D01*
X-333370Y-137560634D01*
X-358200Y-137518771D01*
X-381901Y-137474616D01*
X-404359Y-137428103D01*
X-425461Y-137379166D01*
X-445094Y-137327739D01*
X-463145Y-137273756D01*
X-479502Y-137217150D01*
X-516471Y-137181698D01*
X-551215Y-137143232D01*
X-583704Y-137102061D01*
X-613908Y-137058498D01*
X-641797Y-137012852D01*
X-667341Y-136965433D01*
X-690511Y-136916553D01*
X-711276Y-136866521D01*
X-729606Y-136815649D01*
X-745472Y-136764247D01*
X-758843Y-136712625D01*
X-769690Y-136661095D01*
X-777983Y-136609966D01*
X-783691Y-136559548D01*
X-786785Y-136510154D01*
X-787235Y-136462093D01*
X-807182Y-136434142D01*
X-826060Y-136404873D01*
X-843915Y-136374422D01*
X-860792Y-136342925D01*
X-876736Y-136310518D01*
X-891792Y-136277339D01*
X-906006Y-136243524D01*
X-919423Y-136209208D01*
X-944047Y-136139623D01*
X-966027Y-136069675D01*
X-985724Y-136000455D01*
X-1003501Y-135933055D01*
X-1011963Y-135894155D01*
X-1019853Y-135855038D01*
X-1026919Y-135815731D01*
X-1032907Y-135776256D01*
X-1037566Y-135736640D01*
X-1039317Y-135716786D01*
X-1040641Y-135696905D01*
X-1041506Y-135677002D01*
X-1041756Y-135663692D01*
X-577817Y-135663692D01*
X-572480Y-135725386D01*
X-562912Y-135784287D01*
X-549511Y-135840455D01*
X-532675Y-135893950D01*
X-512803Y-135944832D01*
X-490293Y-135993161D01*
X-465545Y-136038998D01*
X-438955Y-136082401D01*
X-410924Y-136123432D01*
X-381850Y-136162150D01*
X-322164Y-136232888D01*
X-263087Y-136295096D01*
X-207806Y-136349253D01*
X-159510Y-136395840D01*
X-121386Y-136435337D01*
X-107136Y-136452577D01*
X-96624Y-136468225D01*
X-90249Y-136482340D01*
X-88411Y-136494983D01*
X-91506Y-136506214D01*
X-99935Y-136516093D01*
X-114094Y-136524679D01*
X-134384Y-136532034D01*
X-161202Y-136538216D01*
X-194947Y-136543286D01*
X-284811Y-136550330D01*
X-276591Y-136604351D01*
X-263411Y-136655777D01*
X-245759Y-136704663D01*
X-224116Y-136751061D01*
X-198970Y-136795024D01*
X-170804Y-136836605D01*
X-140102Y-136875857D01*
X-107349Y-136912834D01*
X-73031Y-136947588D01*
X-37631Y-136980172D01*
X34474Y-137039042D01*
X105090Y-137089869D01*
X170339Y-137133077D01*
X269230Y-137198331D01*
X284541Y-137210545D01*
X295118Y-137221225D01*
X300476Y-137230425D01*
X300131Y-137238196D01*
X293598Y-137244593D01*
X280393Y-137249668D01*
X260031Y-137253474D01*
X232027Y-137256064D01*
X151156Y-137257808D01*
X33903Y-137255326D01*
X53771Y-137293452D01*
X78994Y-137329403D01*
X109048Y-137363282D01*
X143412Y-137395191D01*
X181563Y-137425234D01*
X222979Y-137453514D01*
X267137Y-137480132D01*
X313515Y-137505193D01*
X410840Y-137551051D01*
X510777Y-137591910D01*
X701766Y-137661922D01*
X784459Y-137692720D01*
X853047Y-137721809D01*
X880745Y-137735969D01*
X903350Y-137750011D01*
X920338Y-137764037D01*
X931188Y-137778150D01*
X935377Y-137792452D01*
X932382Y-137807047D01*
X921682Y-137822037D01*
X902754Y-137837525D01*
X875075Y-137853614D01*
X838124Y-137870406D01*
X791377Y-137888005D01*
X734312Y-137906513D01*
X821688Y-137952265D01*
X915633Y-137994498D01*
X1015455Y-138031760D01*
X1120457Y-138062599D01*
X1229943Y-138085562D01*
X1343219Y-138099196D01*
X1401061Y-138102061D01*
X1459590Y-138102048D01*
X1518718Y-138098978D01*
X1578359Y-138092667D01*
X1638425Y-138082934D01*
X1698831Y-138069598D01*
X1759489Y-138052477D01*
X1820312Y-138031390D01*
X1881213Y-138006155D01*
X1942105Y-137976590D01*
X2002902Y-137942514D01*
X2063516Y-137903745D01*
X2123860Y-137860101D01*
X2183848Y-137811402D01*
X2243393Y-137757465D01*
X2302408Y-137698109D01*
X2360805Y-137633152D01*
X2418498Y-137562413D01*
X2475401Y-137485710D01*
X2531425Y-137402862D01*
X2463127Y-137330432D01*
X2387847Y-137256451D01*
X2305337Y-137180853D01*
X2215349Y-137103571D01*
X2117635Y-137024540D01*
X2011945Y-136943693D01*
X1775645Y-136776286D01*
X1504460Y-136600820D01*
X1196403Y-136416767D01*
X849486Y-136223595D01*
X461719Y-136020776D01*
X619774Y-136074917D01*
X775801Y-136131356D01*
X929734Y-136190168D01*
X1081508Y-136251425D01*
X1231055Y-136315200D01*
X1378309Y-136381567D01*
X1523205Y-136450597D01*
X1665675Y-136522363D01*
X1805653Y-136596940D01*
X1943074Y-136674399D01*
X2077870Y-136754815D01*
X2209975Y-136838258D01*
X2339323Y-136924804D01*
X2465847Y-137014524D01*
X2589482Y-137107491D01*
X2710161Y-137203779D01*
X2774969Y-137165880D01*
X2833138Y-137123531D01*
X2884798Y-137077057D01*
X2930080Y-137026787D01*
X2969116Y-136973048D01*
X3002038Y-136916165D01*
X3028977Y-136856467D01*
X3050064Y-136794281D01*
X3065431Y-136729932D01*
X3075209Y-136663750D01*
X3079529Y-136596059D01*
X3078524Y-136527189D01*
X3072324Y-136457464D01*
X3061061Y-136387214D01*
X3044867Y-136316764D01*
X3023872Y-136246441D01*
X2998208Y-136176574D01*
X2968007Y-136107488D01*
X2933400Y-136039510D01*
X2894518Y-135972969D01*
X2851494Y-135908190D01*
X2804457Y-135845502D01*
X2753541Y-135785230D01*
X2698875Y-135727702D01*
X2640593Y-135673245D01*
X2578824Y-135622186D01*
X2513700Y-135574852D01*
X2445354Y-135531570D01*
X2373916Y-135492667D01*
X2299518Y-135458470D01*
X2222290Y-135429307D01*
X2142366Y-135405504D01*
X2146398Y-135449194D01*
X2147757Y-135486016D01*
X2146531Y-135516332D01*
X2142810Y-135540506D01*
X2136682Y-135558901D01*
X2128235Y-135571879D01*
X2117560Y-135579804D01*
X2104744Y-135583039D01*
X2089877Y-135581947D01*
X2073048Y-135576892D01*
X2054344Y-135568236D01*
X2033856Y-135556342D01*
X1987881Y-135524296D01*
X1935834Y-135483657D01*
X1816364Y-135388222D01*
X1750364Y-135339237D01*
X1681135Y-135293279D01*
X1645531Y-135272344D01*
X1609387Y-135253255D01*
X1572791Y-135236375D01*
X1535833Y-135222068D01*
X1498600Y-135210697D01*
X1461182Y-135202624D01*
X1423668Y-135198214D01*
X1386146Y-135197829D01*
X1376148Y-135198454D01*
X1366154Y-135199400D01*
X1356168Y-135200675D01*
X1346190Y-135202282D01*
X1336226Y-135204230D01*
X1326276Y-135206523D01*
X1316345Y-135209167D01*
X1306435Y-135212169D01*
X1341022Y-135296665D01*
X1351238Y-135329812D01*
X1356970Y-135357363D01*
X1358397Y-135379674D01*
X1355694Y-135397099D01*
X1349040Y-135409993D01*
X1338610Y-135418709D01*
X1324582Y-135423603D01*
X1307132Y-135425028D01*
X1286438Y-135423341D01*
X1262676Y-135418894D01*
X1206658Y-135403140D01*
X1140493Y-135380604D01*
X983384Y-135326530D01*
X895270Y-135300662D01*
X802671Y-135279357D01*
X755131Y-135271300D01*
X707001Y-135265448D01*
X658458Y-135262154D01*
X609677Y-135261773D01*
X560837Y-135264659D01*
X512114Y-135271167D01*
X463685Y-135281651D01*
X415727Y-135296466D01*
X478258Y-135368110D01*
X515898Y-135419471D01*
X525938Y-135438469D01*
X530420Y-135453505D01*
X529566Y-135464947D01*
X523598Y-135473165D01*
X512736Y-135478530D01*
X497203Y-135481409D01*
X453009Y-135481189D01*
X318317Y-135467184D01*
X231365Y-135459309D01*
X133705Y-135454791D01*
X27111Y-135456586D01*
X-86644Y-135467650D01*
X-145653Y-135477581D01*
X-205787Y-135490938D01*
X-266825Y-135508089D01*
X-328546Y-135529404D01*
X-390727Y-135555252D01*
X-453147Y-135586003D01*
X-515584Y-135622027D01*
X-577817Y-135663692D01*
X-1041756Y-135663692D01*
X-1041881Y-135657078D01*
X-1041733Y-135637138D01*
X-1041031Y-135617183D01*
X-1039908Y-135596879D01*
X-1037717Y-135576690D01*
X-1034477Y-135556661D01*
X-1030208Y-135536840D01*
X-1024930Y-135517275D01*
X-1018661Y-135498012D01*
X-1011423Y-135479099D01*
X-1003233Y-135460582D01*
X-994113Y-135442509D01*
X-984080Y-135424927D01*
X-973156Y-135407883D01*
X-961358Y-135391424D01*
X-948708Y-135375597D01*
X-935224Y-135360450D01*
X-920926Y-135346029D01*
X-905833Y-135332381D01*
X-862607Y-135298761D01*
X-818152Y-135266854D01*
X-772539Y-135236667D01*
X-725840Y-135208205D01*
X-678125Y-135181476D01*
X-629467Y-135156485D01*
X-579936Y-135133239D01*
X-529604Y-135111745D01*
X-478542Y-135092008D01*
X-426821Y-135074034D01*
X-374513Y-135057831D01*
X-321689Y-135043405D01*
X-268420Y-135030761D01*
X-214777Y-135019907D01*
X-160833Y-135010847D01*
X-106657Y-135003590D01*
X-85024Y-134989746D01*
X-62945Y-134977139D01*
X-40438Y-134965632D01*
X-17523Y-134955087D01*
X5781Y-134945365D01*
X29453Y-134936329D01*
X77825Y-134919759D01*
X178132Y-134888769D01*
X229753Y-134872138D01*
X255862Y-134863055D01*
X282144Y-134853276D01*
X320704Y-134841824D01*
X361040Y-134831543D01*
X402904Y-134822459D01*
X446051Y-134814595D01*
X490235Y-134807973D01*
X535210Y-134802618D01*
X580728Y-134798553D01*
X626546Y-134795801D01*
X672415Y-134794386D01*
X718090Y-134794331D01*
X763325Y-134795660D01*
X807874Y-134798397D01*
X851491Y-134802564D01*
X893929Y-134808186D01*
X934942Y-134815285D01*
X974285Y-134823885D01*
X1016608Y-134814139D01*
X1059845Y-134805492D01*
X1103915Y-134797971D01*
X1148735Y-134791603D01*
X1194224Y-134786417D01*
X1240300Y-134782438D01*
X1286882Y-134779696D01*
X1333888Y-134778216D01*
X1373325Y-134777968D01*
X1412952Y-134778632D01*
G36*
X1412952Y-134778632D02*
G01*
X1452722Y-134780223D01*
X1492587Y-134782758D01*
X1532502Y-134786252D01*
X1572417Y-134790721D01*
X1612287Y-134796180D01*
X1652063Y-134802646D01*
X1691698Y-134810133D01*
X1731146Y-134818659D01*
X1770359Y-134828238D01*
X1809289Y-134838886D01*
X1847889Y-134850619D01*
X1886113Y-134863453D01*
X1923912Y-134877403D01*
X1961240Y-134892486D01*
X2042192Y-134889029D01*
X2123850Y-134891362D01*
X2205925Y-134899356D01*
X2288127Y-134912884D01*
X2370166Y-134931816D01*
X2451750Y-134956024D01*
X2532591Y-134985379D01*
X2612398Y-135019753D01*
X2690881Y-135059017D01*
X2767749Y-135103042D01*
X2842713Y-135151700D01*
X2915483Y-135204863D01*
X2985767Y-135262401D01*
X3053277Y-135324187D01*
X3117721Y-135390091D01*
X3178810Y-135459985D01*
X3236254Y-135533741D01*
X3289762Y-135611229D01*
X3339045Y-135692321D01*
X3383811Y-135776889D01*
X3423772Y-135864804D01*
X3458636Y-135955938D01*
X3488114Y-136050161D01*
X3511915Y-136147346D01*
X3529750Y-136247364D01*
X3541328Y-136350085D01*
X3546358Y-136455382D01*
X3544552Y-136563126D01*
X3535618Y-136673188D01*
X3519267Y-136785440D01*
X3495208Y-136899754D01*
X3463151Y-137016000D01*
X3445078Y-137061749D01*
X3424813Y-137106461D01*
X3402442Y-137150087D01*
X3378048Y-137192577D01*
X3351715Y-137233883D01*
X3323529Y-137273955D01*
X3293572Y-137312745D01*
X3261929Y-137350203D01*
X3228685Y-137386281D01*
X3193924Y-137420930D01*
X3157730Y-137454101D01*
X3120186Y-137485744D01*
X3081378Y-137515812D01*
X3041389Y-137544254D01*
X3000304Y-137571022D01*
X2958208Y-137596067D01*
X2909371Y-137670262D01*
X2859537Y-137741657D01*
X2808454Y-137810327D01*
X2755866Y-137876345D01*
X2701519Y-137939785D01*
X2645159Y-138000722D01*
X2586532Y-138059230D01*
X2525383Y-138115383D01*
X2461460Y-138169255D01*
X2394506Y-138220920D01*
X2324268Y-138270452D01*
X2250493Y-138317925D01*
X2172925Y-138363414D01*
X2091310Y-138406992D01*
X2005395Y-138448734D01*
X1914925Y-138488713D01*
X1837109Y-138509360D01*
X1747209Y-138525854D01*
X1647198Y-138537720D01*
X1539047Y-138544487D01*
X1424729Y-138545681D01*
X1306213Y-138540828D01*
X1185474Y-138529457D01*
X1064482Y-138511095D01*
X945209Y-138485267D01*
X829627Y-138451502D01*
X773836Y-138431494D01*
X719708Y-138409325D01*
X667488Y-138384936D01*
X617423Y-138358266D01*
X569760Y-138329256D01*
X524745Y-138297849D01*
X482624Y-138263984D01*
X443645Y-138227603D01*
X408053Y-138188645D01*
X376095Y-138147054D01*
X348017Y-138102768D01*
X324066Y-138055729D01*
X248936Y-138027424D01*
X202783Y-138008510D01*
X152110Y-137985717D01*
X97821Y-137958517D01*
X40820Y-137926379D01*
X-17989Y-137888777D01*
X-77703Y-137845180D01*
X-137417Y-137795059D01*
X-196228Y-137737887D01*
X-225012Y-137706491D01*
X-253231Y-137673134D01*
X-280773Y-137637750D01*
X-307523Y-137600272D01*
X-333370Y-137560634D01*
X-358200Y-137518771D01*
X-381901Y-137474616D01*
X-404359Y-137428103D01*
X-425461Y-137379166D01*
X-445094Y-137327739D01*
X-463145Y-137273756D01*
X-479502Y-137217150D01*
X-516471Y-137181698D01*
X-551215Y-137143232D01*
X-583704Y-137102061D01*
X-613908Y-137058498D01*
X-641797Y-137012852D01*
X-667341Y-136965433D01*
X-690511Y-136916553D01*
X-711276Y-136866521D01*
X-729606Y-136815649D01*
X-745472Y-136764247D01*
X-758843Y-136712625D01*
X-769690Y-136661095D01*
X-777983Y-136609966D01*
X-783691Y-136559548D01*
X-786785Y-136510154D01*
X-787235Y-136462093D01*
X-807182Y-136434142D01*
X-826060Y-136404873D01*
X-843915Y-136374422D01*
X-860792Y-136342925D01*
X-876736Y-136310518D01*
X-891792Y-136277339D01*
X-906006Y-136243524D01*
X-919423Y-136209208D01*
X-944047Y-136139623D01*
X-966027Y-136069675D01*
X-985724Y-136000455D01*
X-1003501Y-135933055D01*
X-1011963Y-135894155D01*
X-1019853Y-135855038D01*
X-1026919Y-135815731D01*
X-1032907Y-135776256D01*
X-1037566Y-135736640D01*
X-1039317Y-135716786D01*
X-1040641Y-135696905D01*
X-1041506Y-135677002D01*
X-1041756Y-135663692D01*
X-577817Y-135663692D01*
X-572480Y-135725386D01*
X-562912Y-135784287D01*
X-549511Y-135840455D01*
X-532675Y-135893950D01*
X-512803Y-135944832D01*
X-490293Y-135993161D01*
X-465545Y-136038998D01*
X-438955Y-136082401D01*
X-410924Y-136123432D01*
X-381850Y-136162150D01*
X-322164Y-136232888D01*
X-263087Y-136295096D01*
X-207806Y-136349253D01*
X-159510Y-136395840D01*
X-121386Y-136435337D01*
X-107136Y-136452577D01*
X-96624Y-136468225D01*
X-90249Y-136482340D01*
X-88411Y-136494983D01*
X-91506Y-136506214D01*
X-99935Y-136516093D01*
X-114094Y-136524679D01*
X-134384Y-136532034D01*
X-161202Y-136538216D01*
X-194947Y-136543286D01*
X-284811Y-136550330D01*
X-276591Y-136604351D01*
X-263411Y-136655777D01*
X-245759Y-136704663D01*
X-224116Y-136751061D01*
X-198970Y-136795024D01*
X-170804Y-136836605D01*
X-140102Y-136875857D01*
X-107349Y-136912834D01*
X-73031Y-136947588D01*
X-37631Y-136980172D01*
X34474Y-137039042D01*
X105090Y-137089869D01*
X170339Y-137133077D01*
X269230Y-137198331D01*
X284541Y-137210545D01*
X295118Y-137221225D01*
X300476Y-137230425D01*
X300131Y-137238196D01*
X293598Y-137244593D01*
X280393Y-137249668D01*
X260031Y-137253474D01*
X232027Y-137256064D01*
X151156Y-137257808D01*
X33903Y-137255326D01*
X53771Y-137293452D01*
X78994Y-137329403D01*
X109048Y-137363282D01*
X143412Y-137395191D01*
X181563Y-137425234D01*
X222979Y-137453514D01*
X267137Y-137480132D01*
X313515Y-137505193D01*
X410840Y-137551051D01*
X510777Y-137591910D01*
X701766Y-137661922D01*
X784459Y-137692720D01*
X853047Y-137721809D01*
X880745Y-137735969D01*
X903350Y-137750011D01*
X920338Y-137764037D01*
X931188Y-137778150D01*
X935377Y-137792452D01*
X932382Y-137807047D01*
X921682Y-137822037D01*
X902754Y-137837525D01*
X875075Y-137853614D01*
X838124Y-137870406D01*
X791377Y-137888005D01*
X734312Y-137906513D01*
X821688Y-137952265D01*
X915633Y-137994498D01*
X1015455Y-138031760D01*
X1120457Y-138062599D01*
X1229943Y-138085562D01*
X1343219Y-138099196D01*
X1401061Y-138102061D01*
X1459590Y-138102048D01*
X1518718Y-138098978D01*
X1578359Y-138092667D01*
X1638425Y-138082934D01*
X1698831Y-138069598D01*
X1759489Y-138052477D01*
X1820312Y-138031390D01*
X1881213Y-138006155D01*
X1942105Y-137976590D01*
X2002902Y-137942514D01*
X2063516Y-137903745D01*
X2123860Y-137860101D01*
X2183848Y-137811402D01*
X2243393Y-137757465D01*
X2302408Y-137698109D01*
X2360805Y-137633152D01*
X2418498Y-137562413D01*
X2475401Y-137485710D01*
X2531425Y-137402862D01*
X2463127Y-137330432D01*
X2387847Y-137256451D01*
X2305337Y-137180853D01*
X2215349Y-137103571D01*
X2117635Y-137024540D01*
X2011945Y-136943693D01*
X1775645Y-136776286D01*
X1504460Y-136600820D01*
X1196403Y-136416767D01*
X849486Y-136223595D01*
X461719Y-136020776D01*
X619774Y-136074917D01*
X775801Y-136131356D01*
X929734Y-136190168D01*
X1081508Y-136251425D01*
X1231055Y-136315200D01*
X1378309Y-136381567D01*
X1523205Y-136450597D01*
X1665675Y-136522363D01*
X1805653Y-136596940D01*
X1943074Y-136674399D01*
X2077870Y-136754815D01*
X2209975Y-136838258D01*
X2339323Y-136924804D01*
X2465847Y-137014524D01*
X2589482Y-137107491D01*
X2710161Y-137203779D01*
X2774969Y-137165880D01*
X2833138Y-137123531D01*
X2884798Y-137077057D01*
X2930080Y-137026787D01*
X2969116Y-136973048D01*
X3002038Y-136916165D01*
X3028977Y-136856467D01*
X3050064Y-136794281D01*
X3065431Y-136729932D01*
X3075209Y-136663750D01*
X3079529Y-136596059D01*
X3078524Y-136527189D01*
X3072324Y-136457464D01*
X3061061Y-136387214D01*
X3044867Y-136316764D01*
X3023872Y-136246441D01*
X2998208Y-136176574D01*
X2968007Y-136107488D01*
X2933400Y-136039510D01*
X2894518Y-135972969D01*
X2851494Y-135908190D01*
X2804457Y-135845502D01*
X2753541Y-135785230D01*
X2698875Y-135727702D01*
X2640593Y-135673245D01*
X2578824Y-135622186D01*
X2513700Y-135574852D01*
X2445354Y-135531570D01*
X2373916Y-135492667D01*
X2299518Y-135458470D01*
X2222290Y-135429307D01*
X2142366Y-135405504D01*
X2146398Y-135449194D01*
X2147757Y-135486016D01*
X2146531Y-135516332D01*
X2142810Y-135540506D01*
X2136682Y-135558901D01*
X2128235Y-135571879D01*
X2117560Y-135579804D01*
X2104744Y-135583039D01*
X2089877Y-135581947D01*
X2073048Y-135576892D01*
X2054344Y-135568236D01*
X2033856Y-135556342D01*
X1987881Y-135524296D01*
X1935834Y-135483657D01*
X1816364Y-135388222D01*
X1750364Y-135339237D01*
X1681135Y-135293279D01*
X1645531Y-135272344D01*
X1609387Y-135253255D01*
X1572791Y-135236375D01*
X1535833Y-135222068D01*
X1498600Y-135210697D01*
X1461182Y-135202624D01*
X1423668Y-135198214D01*
X1386146Y-135197829D01*
X1376148Y-135198454D01*
X1366154Y-135199400D01*
X1356168Y-135200675D01*
X1346190Y-135202282D01*
X1336226Y-135204230D01*
X1326276Y-135206523D01*
X1316345Y-135209167D01*
X1306435Y-135212169D01*
X1341022Y-135296665D01*
X1351238Y-135329812D01*
X1356970Y-135357363D01*
X1358397Y-135379674D01*
X1355694Y-135397099D01*
X1349040Y-135409993D01*
X1338610Y-135418709D01*
X1324582Y-135423603D01*
X1307132Y-135425028D01*
X1286438Y-135423341D01*
X1262676Y-135418894D01*
X1206658Y-135403140D01*
X1140493Y-135380604D01*
X983384Y-135326530D01*
X895270Y-135300662D01*
X802671Y-135279357D01*
X755131Y-135271300D01*
X707001Y-135265448D01*
X658458Y-135262154D01*
X609677Y-135261773D01*
X560837Y-135264659D01*
X512114Y-135271167D01*
X463685Y-135281651D01*
X415727Y-135296466D01*
X478258Y-135368110D01*
X515898Y-135419471D01*
X525938Y-135438469D01*
X530420Y-135453505D01*
X529566Y-135464947D01*
X523598Y-135473165D01*
X512736Y-135478530D01*
X497203Y-135481409D01*
X453009Y-135481189D01*
X318317Y-135467184D01*
X231365Y-135459309D01*
X133705Y-135454791D01*
X27111Y-135456586D01*
X-86644Y-135467650D01*
X-145653Y-135477581D01*
X-205787Y-135490938D01*
X-266825Y-135508089D01*
X-328546Y-135529404D01*
X-390727Y-135555252D01*
X-453147Y-135586003D01*
X-515584Y-135622027D01*
X-577817Y-135663692D01*
X-1041756Y-135663692D01*
X-1041881Y-135657078D01*
X-1041733Y-135637138D01*
X-1041031Y-135617183D01*
X-1039908Y-135596879D01*
X-1037717Y-135576690D01*
X-1034477Y-135556661D01*
X-1030208Y-135536840D01*
X-1024930Y-135517275D01*
X-1018661Y-135498012D01*
X-1011423Y-135479099D01*
X-1003233Y-135460582D01*
X-994113Y-135442509D01*
X-984080Y-135424927D01*
X-973156Y-135407883D01*
X-961358Y-135391424D01*
X-948708Y-135375597D01*
X-935224Y-135360450D01*
X-920926Y-135346029D01*
X-905833Y-135332381D01*
X-862607Y-135298761D01*
X-818152Y-135266854D01*
X-772539Y-135236667D01*
X-725840Y-135208205D01*
X-678125Y-135181476D01*
X-629467Y-135156485D01*
X-579936Y-135133239D01*
X-529604Y-135111745D01*
X-478542Y-135092008D01*
X-426821Y-135074034D01*
X-374513Y-135057831D01*
X-321689Y-135043405D01*
X-268420Y-135030761D01*
X-214777Y-135019907D01*
X-160833Y-135010847D01*
X-106657Y-135003590D01*
X-85024Y-134989746D01*
X-62945Y-134977139D01*
X-40438Y-134965632D01*
X-17523Y-134955087D01*
X5781Y-134945365D01*
X29453Y-134936329D01*
X77825Y-134919759D01*
X178132Y-134888769D01*
X229753Y-134872138D01*
X255862Y-134863055D01*
X282144Y-134853276D01*
X320704Y-134841824D01*
X361040Y-134831543D01*
X402904Y-134822459D01*
X446051Y-134814595D01*
X490235Y-134807973D01*
X535210Y-134802618D01*
X580728Y-134798553D01*
X626546Y-134795801D01*
X672415Y-134794386D01*
X718090Y-134794331D01*
X763325Y-134795660D01*
X807874Y-134798397D01*
X851491Y-134802564D01*
X893929Y-134808186D01*
X934942Y-134815285D01*
X974285Y-134823885D01*
X1016608Y-134814139D01*
X1059845Y-134805492D01*
X1103915Y-134797971D01*
X1148735Y-134791603D01*
X1194224Y-134786417D01*
X1240300Y-134782438D01*
X1286882Y-134779696D01*
X1333888Y-134778216D01*
X1373325Y-134777968D01*
X1412952Y-134778632D01*
G37*
X8266113Y-134778216D02*
X8313119Y-134779696D01*
X8359701Y-134782438D01*
X8405778Y-134786417D01*
X8451267Y-134791603D01*
X8496087Y-134797971D01*
X8540156Y-134805492D01*
X8583393Y-134814139D01*
X8625716Y-134823885D01*
X8665059Y-134815285D01*
X8706072Y-134808186D01*
X8748510Y-134802564D01*
X8792127Y-134798397D01*
X8836676Y-134795660D01*
X8881911Y-134794331D01*
X8927586Y-134794386D01*
X8973456Y-134795801D01*
X9019273Y-134798553D01*
X9064792Y-134802618D01*
X9109766Y-134807973D01*
X9153950Y-134814595D01*
X9197097Y-134822459D01*
X9238962Y-134831543D01*
X9279297Y-134841824D01*
X9317858Y-134853276D01*
X9344139Y-134863055D01*
X9370248Y-134872138D01*
X9421869Y-134888769D01*
X9522176Y-134919759D01*
X9570548Y-134936329D01*
X9594220Y-134945365D01*
X9617524Y-134955087D01*
X9640439Y-134965632D01*
X9662946Y-134977139D01*
X9685026Y-134989746D01*
X9706658Y-135003590D01*
X9760834Y-135010847D01*
X9814779Y-135019907D01*
X9868421Y-135030761D01*
X9921690Y-135043405D01*
X9974514Y-135057831D01*
X10026822Y-135074034D01*
X10078543Y-135092008D01*
X10129605Y-135111745D01*
X10179937Y-135133239D01*
X10229468Y-135156485D01*
X10278126Y-135181476D01*
X10325841Y-135208205D01*
X10372540Y-135236667D01*
X10418153Y-135266854D01*
X10462608Y-135298761D01*
X10505834Y-135332381D01*
X10520926Y-135346029D01*
X10535225Y-135360450D01*
X10548709Y-135375597D01*
X10561359Y-135391424D01*
X10573157Y-135407883D01*
X10584081Y-135424927D01*
X10594114Y-135442509D01*
X10603234Y-135460582D01*
X10611424Y-135479099D01*
X10618662Y-135498012D01*
X10624931Y-135517275D01*
X10630209Y-135536840D01*
X10634478Y-135556661D01*
X10637718Y-135576690D01*
X10639909Y-135596879D01*
X10641032Y-135617183D01*
X10641734Y-135637138D01*
X10641882Y-135657078D01*
X10641507Y-135677002D01*
X10640642Y-135696905D01*
X10639318Y-135716786D01*
X10637567Y-135736640D01*
X10632908Y-135776256D01*
X10626920Y-135815731D01*
X10619854Y-135855038D01*
X10611964Y-135894155D01*
X10603502Y-135933055D01*
X10585725Y-136000455D01*
X10566028Y-136069675D01*
X10544048Y-136139623D01*
X10519424Y-136209208D01*
X10506007Y-136243524D01*
X10491793Y-136277339D01*
X10476737Y-136310518D01*
X10460793Y-136342925D01*
X10443916Y-136374422D01*
X10426062Y-136404873D01*
X10407183Y-136434142D01*
X10387237Y-136462093D01*
X10386787Y-136510154D01*
X10383692Y-136559548D01*
X10377984Y-136609966D01*
X10369691Y-136661095D01*
X10358845Y-136712625D01*
X10345473Y-136764247D01*
X10329607Y-136815649D01*
X10311277Y-136866521D01*
X10290512Y-136916553D01*
X10267342Y-136965433D01*
X10241798Y-137012852D01*
X10213909Y-137058498D01*
X10183705Y-137102061D01*
X10151216Y-137143232D01*
X10116472Y-137181698D01*
X10079503Y-137217150D01*
X10063146Y-137273756D01*
X10045095Y-137327739D01*
X10025461Y-137379166D01*
X10004359Y-137428103D01*
X9981902Y-137474616D01*
X9958201Y-137518771D01*
X9933371Y-137560634D01*
X9907524Y-137600272D01*
X9880774Y-137637750D01*
X9853232Y-137673134D01*
X9825013Y-137706491D01*
X9796229Y-137737887D01*
X9737418Y-137795059D01*
X9677704Y-137845180D01*
X9617990Y-137888777D01*
X9559181Y-137926379D01*
X9502180Y-137958517D01*
X9447891Y-137985717D01*
X9397219Y-138008510D01*
X9351066Y-138027424D01*
X9275935Y-138055729D01*
X9251984Y-138102768D01*
X9223907Y-138147054D01*
X9191948Y-138188645D01*
X9156356Y-138227602D01*
X9117377Y-138263984D01*
X9075256Y-138297849D01*
X9030241Y-138329256D01*
X8982578Y-138358265D01*
X8932513Y-138384935D01*
X8880293Y-138409325D01*
X8826165Y-138431494D01*
X8770374Y-138451501D01*
X8654792Y-138485267D01*
X8535519Y-138511095D01*
X8414527Y-138529457D01*
X8293788Y-138540828D01*
X8175273Y-138545681D01*
X8060954Y-138544487D01*
X7952803Y-138537720D01*
X7852792Y-138525854D01*
X7762892Y-138509360D01*
X7685076Y-138488713D01*
X7594606Y-138448734D01*
X7508691Y-138406992D01*
X7427076Y-138363414D01*
X7349508Y-138317925D01*
X7275733Y-138270452D01*
X7205495Y-138220920D01*
X7138541Y-138169255D01*
X7074617Y-138115383D01*
X7013469Y-138059230D01*
X6954842Y-138000722D01*
X6898482Y-137939785D01*
X6844135Y-137876345D01*
X6791547Y-137810327D01*
X6740463Y-137741657D01*
X6690630Y-137670262D01*
X6641793Y-137596067D01*
X6599696Y-137571022D01*
X6558611Y-137544254D01*
X6518623Y-137515812D01*
X6479815Y-137485744D01*
X6442271Y-137454101D01*
X6406077Y-137420930D01*
X6371315Y-137386281D01*
X6338071Y-137350203D01*
X6306429Y-137312745D01*
X6276472Y-137273955D01*
X6248286Y-137233883D01*
X6221953Y-137192577D01*
X6197559Y-137150087D01*
X6175188Y-137106461D01*
X6154923Y-137061749D01*
X6136850Y-137016000D01*
X6104793Y-136899754D01*
X6080734Y-136785440D01*
X6064383Y-136673188D01*
X6058122Y-136596059D01*
X6520471Y-136596059D01*
X6524791Y-136663750D01*
X6534569Y-136729932D01*
X6549936Y-136794281D01*
X6571023Y-136856467D01*
X6597962Y-136916165D01*
X6630884Y-136973048D01*
X6669920Y-137026787D01*
X6715203Y-137077057D01*
X6766862Y-137123531D01*
X6825031Y-137165880D01*
X6889840Y-137203779D01*
X7010518Y-137107491D01*
X7134153Y-137014524D01*
X7260677Y-136924804D01*
X7390025Y-136838258D01*
X7522130Y-136754815D01*
X7656926Y-136674399D01*
X7794346Y-136596940D01*
X7934325Y-136522363D01*
X8076795Y-136450597D01*
X8221690Y-136381567D01*
X8368945Y-136315200D01*
X8518492Y-136251425D01*
X8670266Y-136190168D01*
X8824199Y-136131356D01*
X8980226Y-136074917D01*
X9138281Y-136020776D01*
X8750514Y-136223595D01*
X8403597Y-136416767D01*
X8095540Y-136600820D01*
X7824356Y-136776286D01*
X7588055Y-136943693D01*
X7482365Y-137024540D01*
X7384651Y-137103571D01*
X7294663Y-137180853D01*
X7212153Y-137256451D01*
X7136873Y-137330432D01*
X7068575Y-137402862D01*
X7124599Y-137485710D01*
X7181502Y-137562413D01*
X7239195Y-137633152D01*
X7297592Y-137698109D01*
X7356607Y-137757465D01*
X7416152Y-137811402D01*
X7476140Y-137860101D01*
X7536485Y-137903745D01*
X7597099Y-137942514D01*
X7657895Y-137976590D01*
X7718788Y-138006155D01*
X7779689Y-138031390D01*
X7840512Y-138052477D01*
X7901169Y-138069598D01*
X7961575Y-138082934D01*
X8021642Y-138092667D01*
X8081283Y-138098978D01*
X8140411Y-138102048D01*
X8198939Y-138102061D01*
X8256781Y-138099196D01*
X8370057Y-138085562D01*
X8479544Y-138062599D01*
X8584545Y-138031760D01*
X8684367Y-137994498D01*
X8778312Y-137952265D01*
X8865687Y-137906513D01*
X8808623Y-137888005D01*
X8761876Y-137870406D01*
X8724924Y-137853614D01*
X8697246Y-137837525D01*
X8678317Y-137822037D01*
X8667617Y-137807047D01*
X8664623Y-137792452D01*
X8668812Y-137778150D01*
X8679662Y-137764037D01*
X8696650Y-137750011D01*
X8719254Y-137735969D01*
X8746952Y-137721809D01*
X8815540Y-137692720D01*
X8898234Y-137661922D01*
X9089223Y-137591910D01*
X9189159Y-137551051D01*
X9286485Y-137505193D01*
X9332863Y-137480132D01*
X9377021Y-137453514D01*
X9418437Y-137425234D01*
X9456588Y-137395191D01*
X9490952Y-137363282D01*
X9521006Y-137329403D01*
X9546229Y-137293452D01*
X9566097Y-137255326D01*
X9448844Y-137257808D01*
X9367973Y-137256064D01*
X9339969Y-137253474D01*
X9319607Y-137249668D01*
X9306402Y-137244593D01*
X9299869Y-137238196D01*
X9299524Y-137230425D01*
X9304882Y-137221225D01*
X9315459Y-137210545D01*
X9330770Y-137198331D01*
X9429661Y-137133077D01*
X9494910Y-137089869D01*
X9565526Y-137039042D01*
X9637631Y-136980172D01*
X9673031Y-136947588D01*
X9707350Y-136912834D01*
X9740102Y-136875857D01*
X9770804Y-136836605D01*
X9798970Y-136795024D01*
X9824117Y-136751061D01*
X9845759Y-136704663D01*
X9863411Y-136655777D01*
X9876591Y-136604351D01*
X9884811Y-136550330D01*
X9794947Y-136543286D01*
X9761202Y-136538216D01*
X9734384Y-136532034D01*
X9714094Y-136524679D01*
X9699934Y-136516093D01*
X9691506Y-136506214D01*
X9688410Y-136494983D01*
X9690249Y-136482340D01*
X9696624Y-136468225D01*
X9707136Y-136452577D01*
X9721386Y-136435337D01*
X9759510Y-136395840D01*
X9807806Y-136349253D01*
X9863087Y-136295096D01*
X9922164Y-136232888D01*
X9981850Y-136162150D01*
X10010924Y-136123432D01*
X10038956Y-136082401D01*
X10065545Y-136038998D01*
X10090293Y-135993161D01*
X10112803Y-135944832D01*
X10132675Y-135893950D01*
X10149511Y-135840455D01*
X10162912Y-135784287D01*
X10172481Y-135725386D01*
X10177817Y-135663692D01*
X10115584Y-135622027D01*
X10053147Y-135586003D01*
X9990727Y-135555252D01*
X9928546Y-135529404D01*
X9866826Y-135508089D01*
X9805788Y-135490938D01*
X9745653Y-135477581D01*
X9686644Y-135467650D01*
X9572889Y-135456586D01*
X9466295Y-135454791D01*
X9368636Y-135459309D01*
X9281683Y-135467184D01*
X9146991Y-135481189D01*
X9102797Y-135481409D01*
X9087264Y-135478530D01*
X9076403Y-135473165D01*
X9070434Y-135464947D01*
X9069580Y-135453505D01*
X9074062Y-135438469D01*
X9084102Y-135419471D01*
X9121742Y-135368110D01*
X9184273Y-135296466D01*
X9136315Y-135281651D01*
X9087886Y-135271167D01*
X9039163Y-135264659D01*
X8990323Y-135261773D01*
X8941542Y-135262154D01*
X8892999Y-135265448D01*
X8844869Y-135271300D01*
X8797329Y-135279357D01*
X8704730Y-135300662D01*
X8616617Y-135326530D01*
X8459507Y-135380604D01*
X8393342Y-135403140D01*
X8337324Y-135418894D01*
X8313562Y-135423341D01*
X8292868Y-135425028D01*
X8275419Y-135423603D01*
X8261390Y-135418709D01*
X8250960Y-135409993D01*
X8244306Y-135397099D01*
X8241603Y-135379674D01*
X8243030Y-135357363D01*
X8248762Y-135329812D01*
X8258977Y-135296665D01*
X8293565Y-135212169D01*
X8283655Y-135209167D01*
X8273724Y-135206523D01*
X8263774Y-135204230D01*
X8253810Y-135202282D01*
X8243832Y-135200675D01*
X8233846Y-135199400D01*
X8223852Y-135198454D01*
X8213854Y-135197829D01*
X8176332Y-135198214D01*
X8138818Y-135202624D01*
X8101400Y-135210697D01*
X8064167Y-135222068D01*
X8027209Y-135236375D01*
X7990613Y-135253255D01*
X7954469Y-135272344D01*
X7918866Y-135293279D01*
X7849636Y-135339237D01*
X7783636Y-135388222D01*
X7664167Y-135483657D01*
X7612119Y-135524296D01*
X7566144Y-135556342D01*
X7545656Y-135568236D01*
X7526953Y-135576892D01*
X7510123Y-135581947D01*
X7495256Y-135583039D01*
X7482440Y-135579804D01*
X7471765Y-135571879D01*
X7463319Y-135558901D01*
X7457190Y-135540506D01*
X7453469Y-135516332D01*
X7452243Y-135486016D01*
X7453602Y-135449194D01*
X7457634Y-135405504D01*
X7377709Y-135429307D01*
X7300482Y-135458470D01*
X7226084Y-135492667D01*
X7154646Y-135531570D01*
X7086299Y-135574852D01*
X7021176Y-135622186D01*
X6959407Y-135673245D01*
X6901124Y-135727702D01*
X6846459Y-135785230D01*
X6795542Y-135845502D01*
X6748506Y-135908190D01*
X6705481Y-135972969D01*
X6666600Y-136039510D01*
X6631993Y-136107488D01*
X6601792Y-136176574D01*
X6576128Y-136246441D01*
X6555133Y-136316764D01*
X6538939Y-136387214D01*
X6527676Y-136457464D01*
X6521476Y-136527189D01*
X6520471Y-136596059D01*
X6058122Y-136596059D01*
X6055449Y-136563126D01*
X6053642Y-136455382D01*
X6058673Y-136350085D01*
X6070251Y-136247364D01*
X6088086Y-136147346D01*
X6111887Y-136050161D01*
X6141365Y-135955938D01*
X6176229Y-135864804D01*
X6216189Y-135776889D01*
X6260956Y-135692321D01*
X6310238Y-135611229D01*
X6363747Y-135533741D01*
X6421190Y-135459985D01*
X6482280Y-135390091D01*
X6546724Y-135324187D01*
X6614234Y-135262402D01*
X6684518Y-135204863D01*
X6757288Y-135151700D01*
X6832252Y-135103042D01*
X6909120Y-135059017D01*
X6987603Y-135019753D01*
X7067410Y-134985379D01*
X7148251Y-134956024D01*
X7229835Y-134931816D01*
X7311874Y-134912884D01*
X7394076Y-134899356D01*
X7476151Y-134891362D01*
X7557810Y-134889029D01*
X7638761Y-134892486D01*
X7676089Y-134877403D01*
X7713888Y-134863453D01*
X7752112Y-134850619D01*
X7790712Y-134838886D01*
X7829642Y-134828238D01*
X7868855Y-134818659D01*
X7908302Y-134810133D01*
X7947938Y-134802646D01*
X7987714Y-134796180D01*
X8027584Y-134790721D01*
X8067499Y-134786252D01*
X8107414Y-134782758D01*
X8147280Y-134780223D01*
X8187050Y-134778632D01*
X8226677Y-134777968D01*
X8266113Y-134778216D01*
G36*
X8266113Y-134778216D02*
G01*
X8313119Y-134779696D01*
X8359701Y-134782438D01*
X8405778Y-134786417D01*
X8451267Y-134791603D01*
X8496087Y-134797971D01*
X8540156Y-134805492D01*
X8583393Y-134814139D01*
X8625716Y-134823885D01*
X8665059Y-134815285D01*
X8706072Y-134808186D01*
X8748510Y-134802564D01*
X8792127Y-134798397D01*
X8836676Y-134795660D01*
X8881911Y-134794331D01*
X8927586Y-134794386D01*
X8973456Y-134795801D01*
X9019273Y-134798553D01*
X9064792Y-134802618D01*
X9109766Y-134807973D01*
X9153950Y-134814595D01*
X9197097Y-134822459D01*
X9238962Y-134831543D01*
X9279297Y-134841824D01*
X9317858Y-134853276D01*
X9344139Y-134863055D01*
X9370248Y-134872138D01*
X9421869Y-134888769D01*
X9522176Y-134919759D01*
X9570548Y-134936329D01*
X9594220Y-134945365D01*
X9617524Y-134955087D01*
X9640439Y-134965632D01*
X9662946Y-134977139D01*
X9685026Y-134989746D01*
X9706658Y-135003590D01*
X9760834Y-135010847D01*
X9814779Y-135019907D01*
X9868421Y-135030761D01*
X9921690Y-135043405D01*
X9974514Y-135057831D01*
X10026822Y-135074034D01*
X10078543Y-135092008D01*
X10129605Y-135111745D01*
X10179937Y-135133239D01*
X10229468Y-135156485D01*
X10278126Y-135181476D01*
X10325841Y-135208205D01*
X10372540Y-135236667D01*
X10418153Y-135266854D01*
X10462608Y-135298761D01*
X10505834Y-135332381D01*
X10520926Y-135346029D01*
X10535225Y-135360450D01*
X10548709Y-135375597D01*
X10561359Y-135391424D01*
X10573157Y-135407883D01*
X10584081Y-135424927D01*
X10594114Y-135442509D01*
X10603234Y-135460582D01*
X10611424Y-135479099D01*
X10618662Y-135498012D01*
X10624931Y-135517275D01*
X10630209Y-135536840D01*
X10634478Y-135556661D01*
X10637718Y-135576690D01*
X10639909Y-135596879D01*
X10641032Y-135617183D01*
X10641734Y-135637138D01*
X10641882Y-135657078D01*
X10641507Y-135677002D01*
X10640642Y-135696905D01*
X10639318Y-135716786D01*
X10637567Y-135736640D01*
X10632908Y-135776256D01*
X10626920Y-135815731D01*
X10619854Y-135855038D01*
X10611964Y-135894155D01*
X10603502Y-135933055D01*
X10585725Y-136000455D01*
X10566028Y-136069675D01*
X10544048Y-136139623D01*
X10519424Y-136209208D01*
X10506007Y-136243524D01*
X10491793Y-136277339D01*
X10476737Y-136310518D01*
X10460793Y-136342925D01*
X10443916Y-136374422D01*
X10426062Y-136404873D01*
X10407183Y-136434142D01*
X10387237Y-136462093D01*
X10386787Y-136510154D01*
X10383692Y-136559548D01*
X10377984Y-136609966D01*
X10369691Y-136661095D01*
X10358845Y-136712625D01*
X10345473Y-136764247D01*
X10329607Y-136815649D01*
X10311277Y-136866521D01*
X10290512Y-136916553D01*
X10267342Y-136965433D01*
X10241798Y-137012852D01*
X10213909Y-137058498D01*
X10183705Y-137102061D01*
X10151216Y-137143232D01*
X10116472Y-137181698D01*
X10079503Y-137217150D01*
X10063146Y-137273756D01*
X10045095Y-137327739D01*
X10025461Y-137379166D01*
X10004359Y-137428103D01*
X9981902Y-137474616D01*
X9958201Y-137518771D01*
X9933371Y-137560634D01*
X9907524Y-137600272D01*
X9880774Y-137637750D01*
X9853232Y-137673134D01*
X9825013Y-137706491D01*
X9796229Y-137737887D01*
X9737418Y-137795059D01*
X9677704Y-137845180D01*
X9617990Y-137888777D01*
X9559181Y-137926379D01*
X9502180Y-137958517D01*
X9447891Y-137985717D01*
X9397219Y-138008510D01*
X9351066Y-138027424D01*
X9275935Y-138055729D01*
X9251984Y-138102768D01*
X9223907Y-138147054D01*
X9191948Y-138188645D01*
X9156356Y-138227602D01*
X9117377Y-138263984D01*
X9075256Y-138297849D01*
X9030241Y-138329256D01*
X8982578Y-138358265D01*
X8932513Y-138384935D01*
X8880293Y-138409325D01*
X8826165Y-138431494D01*
X8770374Y-138451501D01*
X8654792Y-138485267D01*
X8535519Y-138511095D01*
X8414527Y-138529457D01*
X8293788Y-138540828D01*
X8175273Y-138545681D01*
X8060954Y-138544487D01*
X7952803Y-138537720D01*
X7852792Y-138525854D01*
X7762892Y-138509360D01*
X7685076Y-138488713D01*
X7594606Y-138448734D01*
X7508691Y-138406992D01*
X7427076Y-138363414D01*
X7349508Y-138317925D01*
X7275733Y-138270452D01*
X7205495Y-138220920D01*
X7138541Y-138169255D01*
X7074617Y-138115383D01*
X7013469Y-138059230D01*
X6954842Y-138000722D01*
X6898482Y-137939785D01*
X6844135Y-137876345D01*
X6791547Y-137810327D01*
X6740463Y-137741657D01*
X6690630Y-137670262D01*
X6641793Y-137596067D01*
X6599696Y-137571022D01*
X6558611Y-137544254D01*
X6518623Y-137515812D01*
X6479815Y-137485744D01*
X6442271Y-137454101D01*
X6406077Y-137420930D01*
X6371315Y-137386281D01*
X6338071Y-137350203D01*
X6306429Y-137312745D01*
X6276472Y-137273955D01*
X6248286Y-137233883D01*
X6221953Y-137192577D01*
X6197559Y-137150087D01*
X6175188Y-137106461D01*
X6154923Y-137061749D01*
X6136850Y-137016000D01*
X6104793Y-136899754D01*
X6080734Y-136785440D01*
X6064383Y-136673188D01*
X6058122Y-136596059D01*
X6520471Y-136596059D01*
X6524791Y-136663750D01*
X6534569Y-136729932D01*
X6549936Y-136794281D01*
X6571023Y-136856467D01*
X6597962Y-136916165D01*
X6630884Y-136973048D01*
X6669920Y-137026787D01*
X6715203Y-137077057D01*
X6766862Y-137123531D01*
X6825031Y-137165880D01*
X6889840Y-137203779D01*
X7010518Y-137107491D01*
X7134153Y-137014524D01*
X7260677Y-136924804D01*
X7390025Y-136838258D01*
X7522130Y-136754815D01*
X7656926Y-136674399D01*
X7794346Y-136596940D01*
X7934325Y-136522363D01*
X8076795Y-136450597D01*
X8221690Y-136381567D01*
X8368945Y-136315200D01*
X8518492Y-136251425D01*
X8670266Y-136190168D01*
X8824199Y-136131356D01*
X8980226Y-136074917D01*
X9138281Y-136020776D01*
X8750514Y-136223595D01*
X8403597Y-136416767D01*
X8095540Y-136600820D01*
X7824356Y-136776286D01*
X7588055Y-136943693D01*
X7482365Y-137024540D01*
X7384651Y-137103571D01*
X7294663Y-137180853D01*
X7212153Y-137256451D01*
X7136873Y-137330432D01*
X7068575Y-137402862D01*
X7124599Y-137485710D01*
X7181502Y-137562413D01*
X7239195Y-137633152D01*
X7297592Y-137698109D01*
X7356607Y-137757465D01*
X7416152Y-137811402D01*
X7476140Y-137860101D01*
X7536485Y-137903745D01*
X7597099Y-137942514D01*
X7657895Y-137976590D01*
X7718788Y-138006155D01*
X7779689Y-138031390D01*
X7840512Y-138052477D01*
X7901169Y-138069598D01*
X7961575Y-138082934D01*
X8021642Y-138092667D01*
X8081283Y-138098978D01*
X8140411Y-138102048D01*
X8198939Y-138102061D01*
X8256781Y-138099196D01*
X8370057Y-138085562D01*
X8479544Y-138062599D01*
X8584545Y-138031760D01*
X8684367Y-137994498D01*
X8778312Y-137952265D01*
X8865687Y-137906513D01*
X8808623Y-137888005D01*
X8761876Y-137870406D01*
X8724924Y-137853614D01*
X8697246Y-137837525D01*
X8678317Y-137822037D01*
X8667617Y-137807047D01*
X8664623Y-137792452D01*
X8668812Y-137778150D01*
X8679662Y-137764037D01*
X8696650Y-137750011D01*
X8719254Y-137735969D01*
X8746952Y-137721809D01*
X8815540Y-137692720D01*
X8898234Y-137661922D01*
X9089223Y-137591910D01*
X9189159Y-137551051D01*
X9286485Y-137505193D01*
X9332863Y-137480132D01*
X9377021Y-137453514D01*
X9418437Y-137425234D01*
X9456588Y-137395191D01*
X9490952Y-137363282D01*
X9521006Y-137329403D01*
X9546229Y-137293452D01*
X9566097Y-137255326D01*
X9448844Y-137257808D01*
X9367973Y-137256064D01*
X9339969Y-137253474D01*
X9319607Y-137249668D01*
X9306402Y-137244593D01*
X9299869Y-137238196D01*
X9299524Y-137230425D01*
X9304882Y-137221225D01*
X9315459Y-137210545D01*
X9330770Y-137198331D01*
X9429661Y-137133077D01*
X9494910Y-137089869D01*
X9565526Y-137039042D01*
X9637631Y-136980172D01*
X9673031Y-136947588D01*
X9707350Y-136912834D01*
X9740102Y-136875857D01*
X9770804Y-136836605D01*
X9798970Y-136795024D01*
X9824117Y-136751061D01*
X9845759Y-136704663D01*
X9863411Y-136655777D01*
X9876591Y-136604351D01*
X9884811Y-136550330D01*
X9794947Y-136543286D01*
X9761202Y-136538216D01*
X9734384Y-136532034D01*
X9714094Y-136524679D01*
X9699934Y-136516093D01*
X9691506Y-136506214D01*
X9688410Y-136494983D01*
X9690249Y-136482340D01*
X9696624Y-136468225D01*
X9707136Y-136452577D01*
X9721386Y-136435337D01*
X9759510Y-136395840D01*
X9807806Y-136349253D01*
X9863087Y-136295096D01*
X9922164Y-136232888D01*
X9981850Y-136162150D01*
X10010924Y-136123432D01*
X10038956Y-136082401D01*
X10065545Y-136038998D01*
X10090293Y-135993161D01*
X10112803Y-135944832D01*
X10132675Y-135893950D01*
X10149511Y-135840455D01*
X10162912Y-135784287D01*
X10172481Y-135725386D01*
X10177817Y-135663692D01*
X10115584Y-135622027D01*
X10053147Y-135586003D01*
X9990727Y-135555252D01*
X9928546Y-135529404D01*
X9866826Y-135508089D01*
X9805788Y-135490938D01*
X9745653Y-135477581D01*
X9686644Y-135467650D01*
X9572889Y-135456586D01*
X9466295Y-135454791D01*
X9368636Y-135459309D01*
X9281683Y-135467184D01*
X9146991Y-135481189D01*
X9102797Y-135481409D01*
X9087264Y-135478530D01*
X9076403Y-135473165D01*
X9070434Y-135464947D01*
X9069580Y-135453505D01*
X9074062Y-135438469D01*
X9084102Y-135419471D01*
X9121742Y-135368110D01*
X9184273Y-135296466D01*
X9136315Y-135281651D01*
X9087886Y-135271167D01*
X9039163Y-135264659D01*
X8990323Y-135261773D01*
X8941542Y-135262154D01*
X8892999Y-135265448D01*
X8844869Y-135271300D01*
X8797329Y-135279357D01*
X8704730Y-135300662D01*
X8616617Y-135326530D01*
X8459507Y-135380604D01*
X8393342Y-135403140D01*
X8337324Y-135418894D01*
X8313562Y-135423341D01*
X8292868Y-135425028D01*
X8275419Y-135423603D01*
X8261390Y-135418709D01*
X8250960Y-135409993D01*
X8244306Y-135397099D01*
X8241603Y-135379674D01*
X8243030Y-135357363D01*
X8248762Y-135329812D01*
X8258977Y-135296665D01*
X8293565Y-135212169D01*
X8283655Y-135209167D01*
X8273724Y-135206523D01*
X8263774Y-135204230D01*
X8253810Y-135202282D01*
X8243832Y-135200675D01*
X8233846Y-135199400D01*
X8223852Y-135198454D01*
X8213854Y-135197829D01*
X8176332Y-135198214D01*
X8138818Y-135202624D01*
X8101400Y-135210697D01*
X8064167Y-135222068D01*
X8027209Y-135236375D01*
X7990613Y-135253255D01*
X7954469Y-135272344D01*
X7918866Y-135293279D01*
X7849636Y-135339237D01*
X7783636Y-135388222D01*
X7664167Y-135483657D01*
X7612119Y-135524296D01*
X7566144Y-135556342D01*
X7545656Y-135568236D01*
X7526953Y-135576892D01*
X7510123Y-135581947D01*
X7495256Y-135583039D01*
X7482440Y-135579804D01*
X7471765Y-135571879D01*
X7463319Y-135558901D01*
X7457190Y-135540506D01*
X7453469Y-135516332D01*
X7452243Y-135486016D01*
X7453602Y-135449194D01*
X7457634Y-135405504D01*
X7377709Y-135429307D01*
X7300482Y-135458470D01*
X7226084Y-135492667D01*
X7154646Y-135531570D01*
X7086299Y-135574852D01*
X7021176Y-135622186D01*
X6959407Y-135673245D01*
X6901124Y-135727702D01*
X6846459Y-135785230D01*
X6795542Y-135845502D01*
X6748506Y-135908190D01*
X6705481Y-135972969D01*
X6666600Y-136039510D01*
X6631993Y-136107488D01*
X6601792Y-136176574D01*
X6576128Y-136246441D01*
X6555133Y-136316764D01*
X6538939Y-136387214D01*
X6527676Y-136457464D01*
X6521476Y-136527189D01*
X6520471Y-136596059D01*
X6058122Y-136596059D01*
X6055449Y-136563126D01*
X6053642Y-136455382D01*
X6058673Y-136350085D01*
X6070251Y-136247364D01*
X6088086Y-136147346D01*
X6111887Y-136050161D01*
X6141365Y-135955938D01*
X6176229Y-135864804D01*
X6216189Y-135776889D01*
X6260956Y-135692321D01*
X6310238Y-135611229D01*
X6363747Y-135533741D01*
X6421190Y-135459985D01*
X6482280Y-135390091D01*
X6546724Y-135324187D01*
X6614234Y-135262402D01*
X6684518Y-135204863D01*
X6757288Y-135151700D01*
X6832252Y-135103042D01*
X6909120Y-135059017D01*
X6987603Y-135019753D01*
X7067410Y-134985379D01*
X7148251Y-134956024D01*
X7229835Y-134931816D01*
X7311874Y-134912884D01*
X7394076Y-134899356D01*
X7476151Y-134891362D01*
X7557810Y-134889029D01*
X7638761Y-134892486D01*
X7676089Y-134877403D01*
X7713888Y-134863453D01*
X7752112Y-134850619D01*
X7790712Y-134838886D01*
X7829642Y-134828238D01*
X7868855Y-134818659D01*
X7908302Y-134810133D01*
X7947938Y-134802646D01*
X7987714Y-134796180D01*
X8027584Y-134790721D01*
X8067499Y-134786252D01*
X8107414Y-134782758D01*
X8147280Y-134780223D01*
X8187050Y-134778632D01*
X8226677Y-134777968D01*
X8266113Y-134778216D01*
G37*
G36*
X4752644Y-137228707D02*
G01*
X4980033Y-137244699D01*
X5196063Y-137270821D01*
X5401394Y-137307433D01*
X5500253Y-137329785D01*
X5596686Y-137354896D01*
X5690773Y-137382809D01*
X5782599Y-137413570D01*
X5872245Y-137447224D01*
X5959795Y-137483816D01*
X6045330Y-137523392D01*
X6128933Y-137565995D01*
X6210687Y-137611673D01*
X6290674Y-137660468D01*
X6368978Y-137712428D01*
X6445679Y-137767596D01*
X6520862Y-137826018D01*
X6594608Y-137887739D01*
X6667000Y-137952804D01*
X6738121Y-138021258D01*
X6876880Y-138168513D01*
X7011544Y-138329867D01*
X7142773Y-138505678D01*
X7271230Y-138696308D01*
X7397572Y-138902119D01*
X7512463Y-139018167D01*
X7621280Y-139139661D01*
X7723546Y-139266405D01*
X7818780Y-139398201D01*
X7906505Y-139534854D01*
X7986239Y-139676169D01*
X8057505Y-139821949D01*
X8119823Y-139971997D01*
X8172714Y-140126119D01*
X8215698Y-140284118D01*
X8248297Y-140445798D01*
X8270031Y-140610963D01*
X8280421Y-140779417D01*
X8278988Y-140950964D01*
X8265252Y-141125409D01*
X8238735Y-141302554D01*
X8220639Y-141390108D01*
X8199542Y-141474377D01*
X8175633Y-141555417D01*
X8149098Y-141633285D01*
X8120126Y-141708037D01*
X8088903Y-141779728D01*
X8055617Y-141848416D01*
X8020457Y-141914157D01*
X7983608Y-141977005D01*
X7945260Y-142037019D01*
X7905598Y-142094253D01*
X7864811Y-142148765D01*
X7823087Y-142200610D01*
X7780612Y-142249845D01*
X7737575Y-142296525D01*
X7694162Y-142340708D01*
X7606962Y-142421804D01*
X7520510Y-142493582D01*
X7436307Y-142556491D01*
X7355853Y-142610983D01*
X7280649Y-142657506D01*
X7212194Y-142696509D01*
X7101531Y-142753757D01*
X7048929Y-142826839D01*
X6994245Y-142897001D01*
X6879014Y-143028713D01*
X6756604Y-143149200D01*
X6627779Y-143258768D01*
X6493305Y-143357722D01*
X6353944Y-143446370D01*
X6210463Y-143525018D01*
X6063626Y-143593970D01*
X5914197Y-143653535D01*
X5762942Y-143704018D01*
X5610624Y-143745725D01*
X5458010Y-143778963D01*
X5305863Y-143804037D01*
X5154948Y-143821254D01*
X5006029Y-143830921D01*
X4859872Y-143833342D01*
X4705782Y-143830022D01*
X4548604Y-143819569D01*
X4389162Y-143801670D01*
X4228279Y-143776012D01*
X4066777Y-143742279D01*
X3905479Y-143700160D01*
X3745208Y-143649340D01*
X3586786Y-143589505D01*
X3431035Y-143520341D01*
X3278779Y-143441536D01*
X3130840Y-143352775D01*
X2988041Y-143253744D01*
X2851204Y-143144131D01*
X2785278Y-143085257D01*
X2721152Y-143023620D01*
X2658928Y-142959180D01*
X2598708Y-142891899D01*
X2540596Y-142821737D01*
X2484694Y-142748654D01*
X2367088Y-142691403D01*
X2294336Y-142652396D01*
X2214411Y-142605870D01*
X2128908Y-142551373D01*
X2039420Y-142488458D01*
X1947541Y-142416674D01*
X1863273Y-142342929D01*
X3074129Y-142342929D01*
X3076923Y-142394777D01*
X3085165Y-142446686D01*
X3098644Y-142498541D01*
X3117150Y-142550229D01*
X3140472Y-142601636D01*
X3168399Y-142652648D01*
X3200719Y-142703152D01*
X3237224Y-142753033D01*
X3321939Y-142850472D01*
X3420860Y-142944055D01*
X3532299Y-143032870D01*
X3654572Y-143116008D01*
X3785990Y-143192557D01*
X3924870Y-143261607D01*
X4069524Y-143322246D01*
X4218267Y-143373564D01*
X4369413Y-143414650D01*
X4521275Y-143444593D01*
X4672167Y-143462483D01*
X4820404Y-143467409D01*
X4902458Y-143467302D01*
X4984187Y-143463379D01*
X5065443Y-143455814D01*
X5146075Y-143444781D01*
X5225934Y-143430457D01*
X5304872Y-143413016D01*
X5382737Y-143392634D01*
X5459381Y-143369484D01*
X5534654Y-143343742D01*
X5608406Y-143315584D01*
X5680488Y-143285184D01*
X5750750Y-143252716D01*
X5819043Y-143218357D01*
X5885217Y-143182282D01*
X5949122Y-143144664D01*
X6010609Y-143105680D01*
X6069529Y-143065504D01*
X6125731Y-143024311D01*
X6179066Y-142982276D01*
X6229385Y-142939575D01*
X6276539Y-142896381D01*
X6320376Y-142852872D01*
X6360749Y-142809220D01*
X6397506Y-142765602D01*
X6430500Y-142722191D01*
X6459579Y-142679165D01*
X6484596Y-142636696D01*
X6505399Y-142594961D01*
X6521840Y-142554134D01*
X6533768Y-142514391D01*
X6541035Y-142475905D01*
X6543490Y-142438854D01*
X6541757Y-142394811D01*
X6535982Y-142350796D01*
X6526230Y-142306898D01*
X6512568Y-142263203D01*
X6495061Y-142219799D01*
X6473777Y-142176772D01*
X6420137Y-142092200D01*
X6352175Y-142010186D01*
X6270421Y-141931426D01*
X6175402Y-141856620D01*
X6067647Y-141786464D01*
X5947683Y-141721657D01*
X5816038Y-141662897D01*
X5673242Y-141610880D01*
X5519821Y-141566305D01*
X5356304Y-141529870D01*
X5183218Y-141502272D01*
X5001093Y-141484209D01*
X4810457Y-141476380D01*
X4712371Y-141476913D01*
X4616585Y-141479717D01*
X4523153Y-141484734D01*
X4432127Y-141491910D01*
X4343560Y-141501189D01*
X4257504Y-141512515D01*
X4174012Y-141525832D01*
X4093137Y-141541085D01*
X4014931Y-141558218D01*
X3939447Y-141577174D01*
X3866738Y-141597899D01*
X3796856Y-141620337D01*
X3729855Y-141644432D01*
X3665786Y-141670128D01*
X3604703Y-141697369D01*
X3546658Y-141726100D01*
X3491704Y-141756265D01*
X3439894Y-141787809D01*
X3391280Y-141820675D01*
X3345915Y-141854807D01*
X3303851Y-141890151D01*
X3265142Y-141926651D01*
X3229840Y-141964250D01*
X3197997Y-142002892D01*
X3169667Y-142042523D01*
X3144902Y-142083087D01*
X3123755Y-142124527D01*
X3106278Y-142166789D01*
X3092524Y-142209815D01*
X3082546Y-142253551D01*
X3076397Y-142297941D01*
X3074129Y-142342929D01*
X1863273Y-142342929D01*
X1854866Y-142335572D01*
X1762990Y-142244703D01*
X1673505Y-142143618D01*
X1588007Y-142031866D01*
X1547251Y-141971850D01*
X1508090Y-141908999D01*
X1470722Y-141843256D01*
X1435347Y-141774566D01*
X1402165Y-141702873D01*
X1371374Y-141628120D01*
X1343174Y-141550251D01*
X1317764Y-141469209D01*
X1295344Y-141384940D01*
X1276112Y-141297386D01*
X1259977Y-141209000D01*
X1246697Y-141122247D01*
X1236249Y-141037085D01*
X1233029Y-141001835D01*
X1601617Y-141001835D01*
X1605929Y-141098668D01*
X1611473Y-141148358D01*
X1619439Y-141198833D01*
X1629949Y-141250045D01*
X1643124Y-141301944D01*
X1659087Y-141354484D01*
X1677959Y-141407615D01*
X1699864Y-141461290D01*
X1724923Y-141515460D01*
X1754996Y-141561011D01*
X1785860Y-141604157D01*
X1817450Y-141644928D01*
X1849698Y-141683355D01*
X1882536Y-141719468D01*
X1915899Y-141753297D01*
X1949718Y-141784873D01*
X1983927Y-141814224D01*
X2018459Y-141841383D01*
X2053246Y-141866379D01*
X2088222Y-141889241D01*
X2123320Y-141910001D01*
X2158472Y-141928689D01*
X2193611Y-141945334D01*
X2228671Y-141959968D01*
X2263584Y-141972619D01*
X2298283Y-141983319D01*
X2332702Y-141992097D01*
X2366773Y-141998985D01*
X2400429Y-142004011D01*
X2433603Y-142007206D01*
X2466228Y-142008601D01*
X2498237Y-142008226D01*
X2529563Y-142006110D01*
X2560139Y-142002284D01*
X2589898Y-141996779D01*
X2618772Y-141989624D01*
X2646696Y-141980850D01*
X2673601Y-141970486D01*
X2699420Y-141958564D01*
X2724087Y-141945113D01*
X2747535Y-141930163D01*
X2771137Y-141907486D01*
X2793488Y-141881155D01*
X2814560Y-141851373D01*
X2834326Y-141818346D01*
X2869828Y-141743365D01*
X2899777Y-141657844D01*
X2923954Y-141563410D01*
X2942139Y-141461693D01*
X2954115Y-141354324D01*
X2959663Y-141242931D01*
X2958996Y-141174008D01*
X6539165Y-141174008D01*
X6544713Y-141285401D01*
X6556688Y-141392771D01*
X6574874Y-141494487D01*
X6599051Y-141588921D01*
X6629000Y-141674443D01*
X6646071Y-141713352D01*
X6664503Y-141749423D01*
X6684268Y-141782451D01*
X6705340Y-141812232D01*
X6727691Y-141838563D01*
X6751294Y-141861240D01*
X6774742Y-141876190D01*
X6799409Y-141889641D01*
X6825228Y-141901563D01*
X6852133Y-141911927D01*
X6880056Y-141920701D01*
X6908931Y-141927856D01*
X6938690Y-141933361D01*
X6969266Y-141937187D01*
X7000592Y-141939303D01*
X7032601Y-141939678D01*
X7065226Y-141938283D01*
X7098400Y-141935088D01*
X7132056Y-141930062D01*
X7166127Y-141923174D01*
X7200545Y-141914396D01*
X7235245Y-141903696D01*
X7270158Y-141891044D01*
X7305218Y-141876411D01*
X7340357Y-141859766D01*
X7375509Y-141841078D01*
X7410607Y-141820318D01*
X7445583Y-141797455D01*
X7480370Y-141772460D01*
X7514902Y-141745301D01*
X7549111Y-141715949D01*
X7582930Y-141684374D01*
X7616292Y-141650545D01*
X7649131Y-141614432D01*
X7681379Y-141576005D01*
X7712968Y-141535233D01*
X7743833Y-141492087D01*
X7773906Y-141446537D01*
X7799159Y-141392208D01*
X7821620Y-141338068D01*
X7841372Y-141284180D01*
X7858495Y-141230606D01*
X7873071Y-141177411D01*
X7885183Y-141124657D01*
X7894912Y-141072409D01*
X7902340Y-141020729D01*
X7907550Y-140969681D01*
X7910622Y-140919328D01*
X7911639Y-140869734D01*
X7910682Y-140820962D01*
X7907834Y-140773075D01*
X7903176Y-140726137D01*
X7896790Y-140680211D01*
X7888758Y-140635361D01*
X7879162Y-140591649D01*
X7868083Y-140549140D01*
X7855605Y-140507896D01*
X7841807Y-140467982D01*
X7826773Y-140429459D01*
X7810584Y-140392393D01*
X7793321Y-140356846D01*
X7775068Y-140322881D01*
X7755905Y-140290562D01*
X7735915Y-140259952D01*
X7715179Y-140231116D01*
X7693779Y-140204115D01*
X7671798Y-140179013D01*
X7649316Y-140155875D01*
X7626416Y-140134762D01*
X7603180Y-140115739D01*
X7582731Y-140100325D01*
X7562285Y-140085541D01*
X7541828Y-140071437D01*
X7521346Y-140058061D01*
X7500825Y-140045464D01*
X7480250Y-140033695D01*
X7459609Y-140022804D01*
X7438887Y-140012841D01*
X7418069Y-140003854D01*
X7397143Y-139995894D01*
X7376093Y-139989010D01*
X7354907Y-139983251D01*
X7333569Y-139978668D01*
X7312067Y-139975310D01*
X7290385Y-139973226D01*
X7268511Y-139972466D01*
X7268512Y-139972467D01*
X7240081Y-139973516D01*
X7211279Y-139976942D01*
X7182076Y-139982851D01*
X7152441Y-139991347D01*
X7122347Y-140002537D01*
X7091762Y-140016526D01*
X7060658Y-140033419D01*
X7029004Y-140053322D01*
X6996772Y-140076340D01*
X6963931Y-140102579D01*
X6930453Y-140132144D01*
X6896307Y-140165141D01*
X6861465Y-140201675D01*
X6825895Y-140241852D01*
X6789570Y-140285777D01*
X6752459Y-140333556D01*
X6724545Y-140374787D01*
X6698704Y-140418475D01*
X6674907Y-140464416D01*
X6653128Y-140512407D01*
X6633338Y-140562244D01*
X6615511Y-140613722D01*
X6585635Y-140720790D01*
X6563281Y-140831983D01*
X6548231Y-140945669D01*
X6540265Y-141060221D01*
X6539165Y-141174008D01*
X2958996Y-141174008D01*
X2958563Y-141129144D01*
X2950597Y-141014592D01*
X2935547Y-140900906D01*
X2913193Y-140789713D01*
X2883317Y-140682645D01*
X2845701Y-140581330D01*
X2823921Y-140533339D01*
X2800125Y-140487398D01*
X2774284Y-140443710D01*
X2746371Y-140402479D01*
X2713070Y-140360131D01*
X2679881Y-140321434D01*
X2646832Y-140286271D01*
X2613952Y-140254520D01*
X2581272Y-140226064D01*
X2548820Y-140200782D01*
X2516627Y-140178557D01*
X2484721Y-140159268D01*
X2453132Y-140142796D01*
X2421890Y-140129022D01*
X2391024Y-140117827D01*
X2360563Y-140109091D01*
X2330537Y-140102696D01*
X2300976Y-140098522D01*
X2271909Y-140096450D01*
X2243365Y-140096361D01*
X2243367Y-140096360D01*
X2229301Y-140097022D01*
X2215376Y-140098134D01*
X2201597Y-140099682D01*
X2187967Y-140101652D01*
X2161169Y-140106794D01*
X2135012Y-140113440D01*
X2109525Y-140121472D01*
X2084739Y-140130770D01*
X2060682Y-140141214D01*
X2037385Y-140152685D01*
X2014876Y-140165064D01*
X1993186Y-140178230D01*
X1972344Y-140192065D01*
X1952380Y-140206449D01*
X1933323Y-140221262D01*
X1915202Y-140236386D01*
X1898048Y-140251700D01*
X1881890Y-140267086D01*
X1849491Y-140301768D01*
X1815546Y-140344032D01*
X1781031Y-140393491D01*
X1746923Y-140449759D01*
X1714199Y-140512449D01*
X1683836Y-140581176D01*
X1656811Y-140655553D01*
X1634099Y-140735194D01*
X1616679Y-140819712D01*
X1605526Y-140908721D01*
X1601617Y-141001835D01*
X1233029Y-141001835D01*
X1228611Y-140953474D01*
X1223757Y-140871372D01*
X1221666Y-140790738D01*
X1222313Y-140711532D01*
X1225676Y-140633713D01*
X1231730Y-140557239D01*
X1240453Y-140482070D01*
X1251821Y-140408165D01*
X1265811Y-140335483D01*
X1282398Y-140263983D01*
X1301561Y-140193624D01*
X1323275Y-140124365D01*
X1347517Y-140056165D01*
X1374264Y-139988984D01*
X1403492Y-139922779D01*
X1435177Y-139857512D01*
X1469297Y-139793139D01*
X1544748Y-139666918D01*
X1629655Y-139543787D01*
X1674918Y-139485935D01*
X2906574Y-139485935D01*
X2910968Y-139576517D01*
X2920873Y-139665191D01*
X2936126Y-139751875D01*
X2956566Y-139836485D01*
X2982031Y-139918938D01*
X3012359Y-139999151D01*
X3047388Y-140077041D01*
X3086956Y-140152525D01*
X3130902Y-140225520D01*
X3179063Y-140295942D01*
X3231278Y-140363709D01*
X3287384Y-140428738D01*
X3347220Y-140490944D01*
X3410625Y-140550246D01*
X3477435Y-140606561D01*
X3547489Y-140659804D01*
X3620625Y-140709893D01*
X3696682Y-140756745D01*
X3775497Y-140800277D01*
X3856909Y-140840405D01*
X3940756Y-140877048D01*
X4026875Y-140910120D01*
X4115105Y-140939540D01*
X4205284Y-140965224D01*
X4297251Y-140987090D01*
X4390842Y-141005053D01*
X4485897Y-141019032D01*
X4582254Y-141028942D01*
X4679750Y-141034701D01*
X4778223Y-141036226D01*
X4876288Y-141033062D01*
X4972601Y-141024923D01*
X5067071Y-141011981D01*
X5159605Y-140994407D01*
X5250109Y-140972369D01*
X5338491Y-140946040D01*
X5424658Y-140915590D01*
X5508518Y-140881189D01*
X5589976Y-140843008D01*
X5668941Y-140801217D01*
X5745320Y-140755988D01*
X5819019Y-140707490D01*
X5889946Y-140655895D01*
X5958009Y-140601373D01*
X6023113Y-140544094D01*
X6085166Y-140484229D01*
X6144076Y-140421949D01*
X6199750Y-140357424D01*
X6252094Y-140290825D01*
X6301016Y-140222323D01*
X6346423Y-140152087D01*
X6388222Y-140080290D01*
X6426321Y-140007100D01*
X6460626Y-139932690D01*
X6491044Y-139857229D01*
X6517483Y-139780888D01*
X6539850Y-139703837D01*
X6558052Y-139626248D01*
X6571995Y-139548290D01*
X6581588Y-139470135D01*
X6586738Y-139391953D01*
X6587351Y-139313915D01*
X6583319Y-139236357D01*
X6574678Y-139159579D01*
X6561551Y-139083691D01*
X6544059Y-139008804D01*
X6522325Y-138935030D01*
X6496472Y-138862481D01*
X6466621Y-138791266D01*
X6432895Y-138721497D01*
X6395416Y-138653286D01*
X6354307Y-138586744D01*
X6309690Y-138521982D01*
X6261687Y-138459112D01*
X6210420Y-138398243D01*
X6156013Y-138339489D01*
X6098586Y-138282959D01*
X6038263Y-138228766D01*
X5975166Y-138177020D01*
X5909418Y-138127832D01*
X5841139Y-138081315D01*
X5770454Y-138037578D01*
X5697484Y-137996734D01*
X5622351Y-137958893D01*
X5545178Y-137924167D01*
X5466087Y-137892667D01*
X5385201Y-137864504D01*
X5302642Y-137839789D01*
X5218532Y-137818634D01*
X5132993Y-137801150D01*
X5046148Y-137787448D01*
X4958119Y-137777639D01*
X4869028Y-137771835D01*
X4778999Y-137770146D01*
X4600237Y-137776903D01*
X4512614Y-137784738D01*
X4426286Y-137795542D01*
X4341348Y-137809314D01*
X4257893Y-137826054D01*
X4176014Y-137845760D01*
X4095806Y-137868432D01*
X4017361Y-137894068D01*
X3940774Y-137922667D01*
X3866136Y-137954227D01*
X3793544Y-137988749D01*
X3723088Y-138026231D01*
X3654864Y-138066672D01*
X3588965Y-138110071D01*
X3525483Y-138156426D01*
X3464514Y-138205738D01*
X3406150Y-138258004D01*
X3350484Y-138313223D01*
X3297611Y-138371396D01*
X3247623Y-138432519D01*
X3200615Y-138496594D01*
X3156679Y-138563617D01*
X3115910Y-138633589D01*
X3078401Y-138706509D01*
X3044245Y-138782374D01*
X3013535Y-138861185D01*
X2986367Y-138942940D01*
X2962832Y-139027638D01*
X2943024Y-139115279D01*
X2927037Y-139205860D01*
X2914965Y-139299381D01*
X2907852Y-139393528D01*
X2906574Y-139485935D01*
X1674918Y-139485935D01*
X1723831Y-139423419D01*
X1827091Y-139305487D01*
X1939245Y-139189664D01*
X2060108Y-139075622D01*
X2194027Y-138868034D01*
X2329463Y-138672362D01*
X2467073Y-138488686D01*
X2607513Y-138317086D01*
X2751440Y-138157641D01*
X2899512Y-138010431D01*
X3052384Y-137875535D01*
X3210713Y-137753032D01*
X3375157Y-137643002D01*
X3546373Y-137545524D01*
X3725016Y-137460678D01*
X3911745Y-137388543D01*
X4107215Y-137329199D01*
X4312084Y-137282726D01*
X4527007Y-137249201D01*
X4752644Y-137228706D01*
X4752644Y-137228707D01*
G37*
D12*
X104792500Y-111995135D02*
X103602500Y-111995135D01*
X103602500Y-111995135D02*
X103602500Y-110595135D01*
X103602500Y-110595135D02*
X104792500Y-110595135D01*
X104792500Y-110595135D02*
X104792500Y-111995135D01*
G36*
X104792500Y-111995135D02*
G01*
X103602500Y-111995135D01*
X103602500Y-110595135D01*
X104792500Y-110595135D01*
X104792500Y-111995135D01*
G37*
X132430000Y-110600000D02*
X133620000Y-110600000D01*
X133620000Y-110600000D02*
X133620000Y-112000000D01*
X133620000Y-112000000D02*
X132430000Y-112000000D01*
X132430000Y-112000000D02*
X132430000Y-110600000D01*
G36*
X132430000Y-110600000D02*
G01*
X133620000Y-110600000D01*
X133620000Y-112000000D01*
X132430000Y-112000000D01*
X132430000Y-110600000D01*
G37*
D11*
X229110452Y-134813767D02*
X229150222Y-134815358D01*
X229190087Y-134817893D01*
X229230002Y-134821387D01*
X229269917Y-134825856D01*
X229309787Y-134831315D01*
X229349563Y-134837781D01*
X229389198Y-134845268D01*
X229428646Y-134853794D01*
X229467859Y-134863373D01*
X229506789Y-134874021D01*
X229545389Y-134885754D01*
X229583613Y-134898588D01*
X229621412Y-134912538D01*
X229658740Y-134927621D01*
X229739692Y-134924164D01*
X229821350Y-134926497D01*
X229903425Y-134934491D01*
X229985627Y-134948019D01*
X230067666Y-134966951D01*
X230149250Y-134991159D01*
X230230091Y-135020514D01*
X230309898Y-135054888D01*
X230388381Y-135094152D01*
X230465249Y-135138177D01*
X230540213Y-135186835D01*
X230612983Y-135239998D01*
X230683267Y-135297536D01*
X230750777Y-135359322D01*
X230815221Y-135425226D01*
X230876310Y-135495120D01*
X230933754Y-135568876D01*
X230987262Y-135646364D01*
X231036545Y-135727456D01*
X231081311Y-135812024D01*
X231121272Y-135899939D01*
X231156136Y-135991073D01*
X231185614Y-136085296D01*
X231209415Y-136182481D01*
X231227250Y-136282499D01*
X231238828Y-136385220D01*
X231243858Y-136490517D01*
X231242052Y-136598261D01*
X231233118Y-136708323D01*
X231216767Y-136820575D01*
X231192708Y-136934889D01*
X231160651Y-137051135D01*
X231142578Y-137096884D01*
X231122313Y-137141596D01*
X231099942Y-137185222D01*
X231075548Y-137227712D01*
X231049215Y-137269018D01*
X231021029Y-137309090D01*
X230991072Y-137347880D01*
X230959429Y-137385338D01*
X230926185Y-137421416D01*
X230891424Y-137456065D01*
X230855230Y-137489236D01*
X230817686Y-137520879D01*
X230778878Y-137550947D01*
X230738889Y-137579389D01*
X230697804Y-137606157D01*
X230655708Y-137631202D01*
X230606871Y-137705397D01*
X230557037Y-137776792D01*
X230505954Y-137845462D01*
X230453366Y-137911480D01*
X230399019Y-137974920D01*
X230342659Y-138035857D01*
X230284032Y-138094365D01*
X230222883Y-138150518D01*
X230158960Y-138204390D01*
X230092006Y-138256055D01*
X230021768Y-138305587D01*
X229947993Y-138353060D01*
X229870425Y-138398549D01*
X229788810Y-138442127D01*
X229702895Y-138483869D01*
X229612425Y-138523848D01*
X229534609Y-138544495D01*
X229444709Y-138560989D01*
X229344698Y-138572855D01*
X229236547Y-138579622D01*
X229122229Y-138580816D01*
X229003713Y-138575963D01*
X228882974Y-138564592D01*
X228761982Y-138546230D01*
X228642709Y-138520402D01*
X228527127Y-138486637D01*
X228471336Y-138466629D01*
X228417208Y-138444460D01*
X228364988Y-138420071D01*
X228314923Y-138393401D01*
X228267260Y-138364391D01*
X228222245Y-138332984D01*
X228180124Y-138299119D01*
X228141145Y-138262738D01*
X228105553Y-138223780D01*
X228073595Y-138182189D01*
X228045517Y-138137903D01*
X228021566Y-138090864D01*
X227946436Y-138062559D01*
X227900283Y-138043645D01*
X227849610Y-138020852D01*
X227795321Y-137993652D01*
X227738320Y-137961514D01*
X227679511Y-137923912D01*
X227619797Y-137880315D01*
X227560083Y-137830194D01*
X227501272Y-137773022D01*
X227472488Y-137741626D01*
X227444269Y-137708269D01*
X227416727Y-137672885D01*
X227389977Y-137635407D01*
X227364130Y-137595769D01*
X227339300Y-137553906D01*
X227315599Y-137509751D01*
X227293141Y-137463238D01*
X227272039Y-137414301D01*
X227252406Y-137362874D01*
X227234355Y-137308891D01*
X227217998Y-137252285D01*
X227181029Y-137216833D01*
X227146285Y-137178367D01*
X227113796Y-137137196D01*
X227083592Y-137093633D01*
X227055703Y-137047987D01*
X227030159Y-137000568D01*
X227006989Y-136951688D01*
X226986224Y-136901656D01*
X226967894Y-136850784D01*
X226952028Y-136799382D01*
X226938657Y-136747760D01*
X226927810Y-136696230D01*
X226919517Y-136645101D01*
X226913809Y-136594683D01*
X226910715Y-136545289D01*
X226910265Y-136497228D01*
X226890318Y-136469277D01*
X226871440Y-136440008D01*
X226853585Y-136409557D01*
X226836708Y-136378060D01*
X226820764Y-136345653D01*
X226805708Y-136312474D01*
X226791494Y-136278659D01*
X226778077Y-136244343D01*
X226753453Y-136174758D01*
X226731473Y-136104810D01*
X226711776Y-136035590D01*
X226693999Y-135968190D01*
X226685537Y-135929290D01*
X226677647Y-135890173D01*
X226670581Y-135850866D01*
X226664593Y-135811391D01*
X226659934Y-135771775D01*
X226658183Y-135751921D01*
X226656859Y-135732040D01*
X226655994Y-135712137D01*
X226655744Y-135698827D01*
X227119683Y-135698827D01*
X227125020Y-135760521D01*
X227134588Y-135819422D01*
X227147989Y-135875590D01*
X227164825Y-135929085D01*
X227184697Y-135979967D01*
X227207207Y-136028296D01*
X227231955Y-136074133D01*
X227258545Y-136117536D01*
X227286576Y-136158567D01*
X227315650Y-136197285D01*
X227375336Y-136268023D01*
X227434413Y-136330231D01*
X227489694Y-136384388D01*
X227537990Y-136430975D01*
X227576114Y-136470472D01*
X227590364Y-136487712D01*
X227600876Y-136503360D01*
X227607251Y-136517475D01*
X227609089Y-136530118D01*
X227605994Y-136541349D01*
X227597565Y-136551228D01*
X227583406Y-136559814D01*
X227563116Y-136567169D01*
X227536298Y-136573351D01*
X227502553Y-136578421D01*
X227412689Y-136585465D01*
X227420909Y-136639486D01*
X227434089Y-136690912D01*
X227451741Y-136739798D01*
X227473384Y-136786196D01*
X227498530Y-136830159D01*
X227526696Y-136871740D01*
X227557398Y-136910992D01*
X227590151Y-136947969D01*
X227624469Y-136982723D01*
X227659869Y-137015307D01*
X227731974Y-137074177D01*
X227802590Y-137125004D01*
X227867839Y-137168212D01*
X227966730Y-137233466D01*
X227982041Y-137245680D01*
X227992618Y-137256360D01*
X227997976Y-137265560D01*
X227997631Y-137273331D01*
X227991098Y-137279728D01*
X227977893Y-137284803D01*
X227957531Y-137288609D01*
X227929527Y-137291199D01*
X227848656Y-137292943D01*
X227731403Y-137290461D01*
X227751271Y-137328587D01*
X227776494Y-137364538D01*
X227806548Y-137398417D01*
X227840912Y-137430326D01*
X227879063Y-137460369D01*
X227920479Y-137488649D01*
X227964637Y-137515267D01*
X228011015Y-137540328D01*
X228108340Y-137586186D01*
X228208277Y-137627045D01*
X228399266Y-137697057D01*
X228481959Y-137727855D01*
X228550547Y-137756944D01*
X228578245Y-137771104D01*
X228600850Y-137785146D01*
X228617838Y-137799172D01*
X228628688Y-137813285D01*
X228632877Y-137827587D01*
X228629882Y-137842182D01*
X228619182Y-137857172D01*
X228600254Y-137872660D01*
X228572575Y-137888749D01*
X228535624Y-137905541D01*
X228488877Y-137923140D01*
X228431812Y-137941648D01*
X228519188Y-137987400D01*
X228613133Y-138029633D01*
X228712955Y-138066895D01*
X228817957Y-138097734D01*
X228927443Y-138120697D01*
X229040719Y-138134331D01*
X229098561Y-138137196D01*
X229157090Y-138137183D01*
X229216218Y-138134113D01*
X229275859Y-138127802D01*
X229335925Y-138118069D01*
X229396331Y-138104733D01*
X229456989Y-138087612D01*
X229517812Y-138066525D01*
X229578713Y-138041290D01*
X229639605Y-138011725D01*
X229700402Y-137977649D01*
X229761016Y-137938880D01*
X229821360Y-137895236D01*
X229881348Y-137846537D01*
X229940893Y-137792600D01*
X229999908Y-137733244D01*
X230058305Y-137668287D01*
X230115998Y-137597548D01*
X230172901Y-137520845D01*
X230228925Y-137437997D01*
X230160627Y-137365567D01*
X230085347Y-137291586D01*
X230002837Y-137215988D01*
X229912849Y-137138706D01*
X229815135Y-137059675D01*
X229709445Y-136978828D01*
X229473145Y-136811421D01*
X229201960Y-136635955D01*
X228893903Y-136451902D01*
X228546986Y-136258730D01*
X228159219Y-136055911D01*
X228317274Y-136110052D01*
X228473301Y-136166491D01*
X228627234Y-136225303D01*
X228779008Y-136286560D01*
X228928555Y-136350335D01*
X229075809Y-136416702D01*
X229220705Y-136485732D01*
X229363175Y-136557498D01*
X229503153Y-136632075D01*
X229640574Y-136709534D01*
X229775370Y-136789950D01*
X229907475Y-136873393D01*
X230036823Y-136959939D01*
X230163347Y-137049659D01*
X230286982Y-137142626D01*
X230407661Y-137238914D01*
X230472469Y-137201015D01*
X230530638Y-137158666D01*
X230582298Y-137112192D01*
X230627580Y-137061922D01*
X230666616Y-137008183D01*
X230699538Y-136951300D01*
X230726477Y-136891602D01*
X230747564Y-136829416D01*
X230762931Y-136765067D01*
X230772709Y-136698885D01*
X230777029Y-136631194D01*
X230776024Y-136562324D01*
X230769824Y-136492599D01*
X230758561Y-136422349D01*
X230742367Y-136351899D01*
X230721372Y-136281576D01*
X230695708Y-136211709D01*
X230665507Y-136142623D01*
X230630900Y-136074645D01*
X230592018Y-136008104D01*
X230548994Y-135943325D01*
X230501957Y-135880637D01*
X230451041Y-135820365D01*
X230396375Y-135762837D01*
X230338093Y-135708380D01*
X230276324Y-135657321D01*
X230211200Y-135609987D01*
X230142854Y-135566705D01*
X230071416Y-135527802D01*
X229997018Y-135493605D01*
X229919790Y-135464442D01*
X229839866Y-135440639D01*
X229843898Y-135484329D01*
X229845257Y-135521151D01*
X229844031Y-135551467D01*
X229840310Y-135575641D01*
X229834182Y-135594036D01*
X229825735Y-135607014D01*
X229815060Y-135614939D01*
X229802244Y-135618174D01*
X229787377Y-135617082D01*
X229770548Y-135612027D01*
X229751844Y-135603371D01*
X229731356Y-135591477D01*
X229685381Y-135559431D01*
X229633334Y-135518792D01*
X229513864Y-135423357D01*
X229447864Y-135374372D01*
X229378635Y-135328414D01*
X229343031Y-135307479D01*
X229306887Y-135288390D01*
X229270291Y-135271510D01*
X229233333Y-135257203D01*
X229196100Y-135245832D01*
X229158682Y-135237759D01*
X229121168Y-135233349D01*
X229083646Y-135232964D01*
X229073648Y-135233589D01*
X229063654Y-135234535D01*
X229053668Y-135235810D01*
X229043690Y-135237417D01*
X229033726Y-135239365D01*
X229023776Y-135241658D01*
X229013845Y-135244302D01*
X229003935Y-135247304D01*
X229038522Y-135331800D01*
X229048738Y-135364947D01*
X229054470Y-135392498D01*
X229055897Y-135414809D01*
X229053194Y-135432234D01*
X229046540Y-135445128D01*
X229036110Y-135453844D01*
X229022082Y-135458738D01*
X229004632Y-135460163D01*
X228983938Y-135458476D01*
X228960176Y-135454029D01*
X228904158Y-135438275D01*
X228837993Y-135415739D01*
X228680884Y-135361665D01*
X228592770Y-135335797D01*
X228500171Y-135314492D01*
X228452631Y-135306435D01*
X228404501Y-135300583D01*
X228355958Y-135297289D01*
X228307177Y-135296908D01*
X228258337Y-135299794D01*
X228209614Y-135306302D01*
X228161185Y-135316786D01*
X228113227Y-135331601D01*
X228175758Y-135403245D01*
X228213398Y-135454606D01*
X228223438Y-135473604D01*
X228227920Y-135488640D01*
X228227066Y-135500082D01*
X228221098Y-135508300D01*
X228210236Y-135513665D01*
X228194703Y-135516544D01*
X228150509Y-135516324D01*
X228015817Y-135502319D01*
X227928865Y-135494444D01*
X227831205Y-135489926D01*
X227724611Y-135491721D01*
X227610856Y-135502785D01*
X227551847Y-135512716D01*
X227491713Y-135526073D01*
X227430675Y-135543224D01*
X227368954Y-135564539D01*
X227306773Y-135590387D01*
X227244353Y-135621138D01*
X227181916Y-135657162D01*
X227119683Y-135698827D01*
X226655744Y-135698827D01*
X226655619Y-135692213D01*
X226655767Y-135672273D01*
X226656469Y-135652318D01*
X226657592Y-135632014D01*
X226659783Y-135611825D01*
X226663023Y-135591796D01*
X226667292Y-135571975D01*
X226672570Y-135552410D01*
X226678839Y-135533147D01*
X226686077Y-135514234D01*
X226694267Y-135495717D01*
X226703387Y-135477644D01*
X226713420Y-135460062D01*
X226724344Y-135443018D01*
X226736142Y-135426559D01*
X226748792Y-135410732D01*
X226762276Y-135395585D01*
X226776574Y-135381164D01*
X226791667Y-135367516D01*
X226834893Y-135333896D01*
X226879348Y-135301989D01*
X226924961Y-135271802D01*
X226971660Y-135243340D01*
X227019375Y-135216611D01*
X227068033Y-135191620D01*
X227117564Y-135168374D01*
X227167896Y-135146880D01*
X227218958Y-135127143D01*
X227270679Y-135109169D01*
X227322987Y-135092966D01*
X227375811Y-135078540D01*
X227429080Y-135065896D01*
X227482723Y-135055042D01*
X227536667Y-135045982D01*
X227590843Y-135038725D01*
X227612476Y-135024881D01*
X227634555Y-135012274D01*
X227657062Y-135000767D01*
X227679977Y-134990222D01*
X227703281Y-134980500D01*
X227726953Y-134971464D01*
X227775325Y-134954894D01*
X227875632Y-134923904D01*
X227927253Y-134907273D01*
X227953362Y-134898190D01*
X227979644Y-134888411D01*
X228018204Y-134876959D01*
X228058540Y-134866678D01*
X228100404Y-134857594D01*
X228143551Y-134849730D01*
X228187735Y-134843108D01*
X228232710Y-134837753D01*
X228278228Y-134833688D01*
X228324046Y-134830936D01*
X228369915Y-134829521D01*
X228415590Y-134829466D01*
X228460825Y-134830795D01*
X228505374Y-134833532D01*
X228548991Y-134837699D01*
X228591429Y-134843321D01*
X228632442Y-134850420D01*
X228671785Y-134859020D01*
X228714108Y-134849274D01*
X228757345Y-134840627D01*
X228801415Y-134833106D01*
X228846235Y-134826738D01*
X228891724Y-134821552D01*
X228937800Y-134817573D01*
X228984382Y-134814831D01*
X229031388Y-134813351D01*
X229070825Y-134813103D01*
X229110452Y-134813767D01*
G36*
X229110452Y-134813767D02*
G01*
X229150222Y-134815358D01*
X229190087Y-134817893D01*
X229230002Y-134821387D01*
X229269917Y-134825856D01*
X229309787Y-134831315D01*
X229349563Y-134837781D01*
X229389198Y-134845268D01*
X229428646Y-134853794D01*
X229467859Y-134863373D01*
X229506789Y-134874021D01*
X229545389Y-134885754D01*
X229583613Y-134898588D01*
X229621412Y-134912538D01*
X229658740Y-134927621D01*
X229739692Y-134924164D01*
X229821350Y-134926497D01*
X229903425Y-134934491D01*
X229985627Y-134948019D01*
X230067666Y-134966951D01*
X230149250Y-134991159D01*
X230230091Y-135020514D01*
X230309898Y-135054888D01*
X230388381Y-135094152D01*
X230465249Y-135138177D01*
X230540213Y-135186835D01*
X230612983Y-135239998D01*
X230683267Y-135297536D01*
X230750777Y-135359322D01*
X230815221Y-135425226D01*
X230876310Y-135495120D01*
X230933754Y-135568876D01*
X230987262Y-135646364D01*
X231036545Y-135727456D01*
X231081311Y-135812024D01*
X231121272Y-135899939D01*
X231156136Y-135991073D01*
X231185614Y-136085296D01*
X231209415Y-136182481D01*
X231227250Y-136282499D01*
X231238828Y-136385220D01*
X231243858Y-136490517D01*
X231242052Y-136598261D01*
X231233118Y-136708323D01*
X231216767Y-136820575D01*
X231192708Y-136934889D01*
X231160651Y-137051135D01*
X231142578Y-137096884D01*
X231122313Y-137141596D01*
X231099942Y-137185222D01*
X231075548Y-137227712D01*
X231049215Y-137269018D01*
X231021029Y-137309090D01*
X230991072Y-137347880D01*
X230959429Y-137385338D01*
X230926185Y-137421416D01*
X230891424Y-137456065D01*
X230855230Y-137489236D01*
X230817686Y-137520879D01*
X230778878Y-137550947D01*
X230738889Y-137579389D01*
X230697804Y-137606157D01*
X230655708Y-137631202D01*
X230606871Y-137705397D01*
X230557037Y-137776792D01*
X230505954Y-137845462D01*
X230453366Y-137911480D01*
X230399019Y-137974920D01*
X230342659Y-138035857D01*
X230284032Y-138094365D01*
X230222883Y-138150518D01*
X230158960Y-138204390D01*
X230092006Y-138256055D01*
X230021768Y-138305587D01*
X229947993Y-138353060D01*
X229870425Y-138398549D01*
X229788810Y-138442127D01*
X229702895Y-138483869D01*
X229612425Y-138523848D01*
X229534609Y-138544495D01*
X229444709Y-138560989D01*
X229344698Y-138572855D01*
X229236547Y-138579622D01*
X229122229Y-138580816D01*
X229003713Y-138575963D01*
X228882974Y-138564592D01*
X228761982Y-138546230D01*
X228642709Y-138520402D01*
X228527127Y-138486637D01*
X228471336Y-138466629D01*
X228417208Y-138444460D01*
X228364988Y-138420071D01*
X228314923Y-138393401D01*
X228267260Y-138364391D01*
X228222245Y-138332984D01*
X228180124Y-138299119D01*
X228141145Y-138262738D01*
X228105553Y-138223780D01*
X228073595Y-138182189D01*
X228045517Y-138137903D01*
X228021566Y-138090864D01*
X227946436Y-138062559D01*
X227900283Y-138043645D01*
X227849610Y-138020852D01*
X227795321Y-137993652D01*
X227738320Y-137961514D01*
X227679511Y-137923912D01*
X227619797Y-137880315D01*
X227560083Y-137830194D01*
X227501272Y-137773022D01*
X227472488Y-137741626D01*
X227444269Y-137708269D01*
X227416727Y-137672885D01*
X227389977Y-137635407D01*
X227364130Y-137595769D01*
X227339300Y-137553906D01*
X227315599Y-137509751D01*
X227293141Y-137463238D01*
X227272039Y-137414301D01*
X227252406Y-137362874D01*
X227234355Y-137308891D01*
X227217998Y-137252285D01*
X227181029Y-137216833D01*
X227146285Y-137178367D01*
X227113796Y-137137196D01*
X227083592Y-137093633D01*
X227055703Y-137047987D01*
X227030159Y-137000568D01*
X227006989Y-136951688D01*
X226986224Y-136901656D01*
X226967894Y-136850784D01*
X226952028Y-136799382D01*
X226938657Y-136747760D01*
X226927810Y-136696230D01*
X226919517Y-136645101D01*
X226913809Y-136594683D01*
X226910715Y-136545289D01*
X226910265Y-136497228D01*
X226890318Y-136469277D01*
X226871440Y-136440008D01*
X226853585Y-136409557D01*
X226836708Y-136378060D01*
X226820764Y-136345653D01*
X226805708Y-136312474D01*
X226791494Y-136278659D01*
X226778077Y-136244343D01*
X226753453Y-136174758D01*
X226731473Y-136104810D01*
X226711776Y-136035590D01*
X226693999Y-135968190D01*
X226685537Y-135929290D01*
X226677647Y-135890173D01*
X226670581Y-135850866D01*
X226664593Y-135811391D01*
X226659934Y-135771775D01*
X226658183Y-135751921D01*
X226656859Y-135732040D01*
X226655994Y-135712137D01*
X226655744Y-135698827D01*
X227119683Y-135698827D01*
X227125020Y-135760521D01*
X227134588Y-135819422D01*
X227147989Y-135875590D01*
X227164825Y-135929085D01*
X227184697Y-135979967D01*
X227207207Y-136028296D01*
X227231955Y-136074133D01*
X227258545Y-136117536D01*
X227286576Y-136158567D01*
X227315650Y-136197285D01*
X227375336Y-136268023D01*
X227434413Y-136330231D01*
X227489694Y-136384388D01*
X227537990Y-136430975D01*
X227576114Y-136470472D01*
X227590364Y-136487712D01*
X227600876Y-136503360D01*
X227607251Y-136517475D01*
X227609089Y-136530118D01*
X227605994Y-136541349D01*
X227597565Y-136551228D01*
X227583406Y-136559814D01*
X227563116Y-136567169D01*
X227536298Y-136573351D01*
X227502553Y-136578421D01*
X227412689Y-136585465D01*
X227420909Y-136639486D01*
X227434089Y-136690912D01*
X227451741Y-136739798D01*
X227473384Y-136786196D01*
X227498530Y-136830159D01*
X227526696Y-136871740D01*
X227557398Y-136910992D01*
X227590151Y-136947969D01*
X227624469Y-136982723D01*
X227659869Y-137015307D01*
X227731974Y-137074177D01*
X227802590Y-137125004D01*
X227867839Y-137168212D01*
X227966730Y-137233466D01*
X227982041Y-137245680D01*
X227992618Y-137256360D01*
X227997976Y-137265560D01*
X227997631Y-137273331D01*
X227991098Y-137279728D01*
X227977893Y-137284803D01*
X227957531Y-137288609D01*
X227929527Y-137291199D01*
X227848656Y-137292943D01*
X227731403Y-137290461D01*
X227751271Y-137328587D01*
X227776494Y-137364538D01*
X227806548Y-137398417D01*
X227840912Y-137430326D01*
X227879063Y-137460369D01*
X227920479Y-137488649D01*
X227964637Y-137515267D01*
X228011015Y-137540328D01*
X228108340Y-137586186D01*
X228208277Y-137627045D01*
X228399266Y-137697057D01*
X228481959Y-137727855D01*
X228550547Y-137756944D01*
X228578245Y-137771104D01*
X228600850Y-137785146D01*
X228617838Y-137799172D01*
X228628688Y-137813285D01*
X228632877Y-137827587D01*
X228629882Y-137842182D01*
X228619182Y-137857172D01*
X228600254Y-137872660D01*
X228572575Y-137888749D01*
X228535624Y-137905541D01*
X228488877Y-137923140D01*
X228431812Y-137941648D01*
X228519188Y-137987400D01*
X228613133Y-138029633D01*
X228712955Y-138066895D01*
X228817957Y-138097734D01*
X228927443Y-138120697D01*
X229040719Y-138134331D01*
X229098561Y-138137196D01*
X229157090Y-138137183D01*
X229216218Y-138134113D01*
X229275859Y-138127802D01*
X229335925Y-138118069D01*
X229396331Y-138104733D01*
X229456989Y-138087612D01*
X229517812Y-138066525D01*
X229578713Y-138041290D01*
X229639605Y-138011725D01*
X229700402Y-137977649D01*
X229761016Y-137938880D01*
X229821360Y-137895236D01*
X229881348Y-137846537D01*
X229940893Y-137792600D01*
X229999908Y-137733244D01*
X230058305Y-137668287D01*
X230115998Y-137597548D01*
X230172901Y-137520845D01*
X230228925Y-137437997D01*
X230160627Y-137365567D01*
X230085347Y-137291586D01*
X230002837Y-137215988D01*
X229912849Y-137138706D01*
X229815135Y-137059675D01*
X229709445Y-136978828D01*
X229473145Y-136811421D01*
X229201960Y-136635955D01*
X228893903Y-136451902D01*
X228546986Y-136258730D01*
X228159219Y-136055911D01*
X228317274Y-136110052D01*
X228473301Y-136166491D01*
X228627234Y-136225303D01*
X228779008Y-136286560D01*
X228928555Y-136350335D01*
X229075809Y-136416702D01*
X229220705Y-136485732D01*
X229363175Y-136557498D01*
X229503153Y-136632075D01*
X229640574Y-136709534D01*
X229775370Y-136789950D01*
X229907475Y-136873393D01*
X230036823Y-136959939D01*
X230163347Y-137049659D01*
X230286982Y-137142626D01*
X230407661Y-137238914D01*
X230472469Y-137201015D01*
X230530638Y-137158666D01*
X230582298Y-137112192D01*
X230627580Y-137061922D01*
X230666616Y-137008183D01*
X230699538Y-136951300D01*
X230726477Y-136891602D01*
X230747564Y-136829416D01*
X230762931Y-136765067D01*
X230772709Y-136698885D01*
X230777029Y-136631194D01*
X230776024Y-136562324D01*
X230769824Y-136492599D01*
X230758561Y-136422349D01*
X230742367Y-136351899D01*
X230721372Y-136281576D01*
X230695708Y-136211709D01*
X230665507Y-136142623D01*
X230630900Y-136074645D01*
X230592018Y-136008104D01*
X230548994Y-135943325D01*
X230501957Y-135880637D01*
X230451041Y-135820365D01*
X230396375Y-135762837D01*
X230338093Y-135708380D01*
X230276324Y-135657321D01*
X230211200Y-135609987D01*
X230142854Y-135566705D01*
X230071416Y-135527802D01*
X229997018Y-135493605D01*
X229919790Y-135464442D01*
X229839866Y-135440639D01*
X229843898Y-135484329D01*
X229845257Y-135521151D01*
X229844031Y-135551467D01*
X229840310Y-135575641D01*
X229834182Y-135594036D01*
X229825735Y-135607014D01*
X229815060Y-135614939D01*
X229802244Y-135618174D01*
X229787377Y-135617082D01*
X229770548Y-135612027D01*
X229751844Y-135603371D01*
X229731356Y-135591477D01*
X229685381Y-135559431D01*
X229633334Y-135518792D01*
X229513864Y-135423357D01*
X229447864Y-135374372D01*
X229378635Y-135328414D01*
X229343031Y-135307479D01*
X229306887Y-135288390D01*
X229270291Y-135271510D01*
X229233333Y-135257203D01*
X229196100Y-135245832D01*
X229158682Y-135237759D01*
X229121168Y-135233349D01*
X229083646Y-135232964D01*
X229073648Y-135233589D01*
X229063654Y-135234535D01*
X229053668Y-135235810D01*
X229043690Y-135237417D01*
X229033726Y-135239365D01*
X229023776Y-135241658D01*
X229013845Y-135244302D01*
X229003935Y-135247304D01*
X229038522Y-135331800D01*
X229048738Y-135364947D01*
X229054470Y-135392498D01*
X229055897Y-135414809D01*
X229053194Y-135432234D01*
X229046540Y-135445128D01*
X229036110Y-135453844D01*
X229022082Y-135458738D01*
X229004632Y-135460163D01*
X228983938Y-135458476D01*
X228960176Y-135454029D01*
X228904158Y-135438275D01*
X228837993Y-135415739D01*
X228680884Y-135361665D01*
X228592770Y-135335797D01*
X228500171Y-135314492D01*
X228452631Y-135306435D01*
X228404501Y-135300583D01*
X228355958Y-135297289D01*
X228307177Y-135296908D01*
X228258337Y-135299794D01*
X228209614Y-135306302D01*
X228161185Y-135316786D01*
X228113227Y-135331601D01*
X228175758Y-135403245D01*
X228213398Y-135454606D01*
X228223438Y-135473604D01*
X228227920Y-135488640D01*
X228227066Y-135500082D01*
X228221098Y-135508300D01*
X228210236Y-135513665D01*
X228194703Y-135516544D01*
X228150509Y-135516324D01*
X228015817Y-135502319D01*
X227928865Y-135494444D01*
X227831205Y-135489926D01*
X227724611Y-135491721D01*
X227610856Y-135502785D01*
X227551847Y-135512716D01*
X227491713Y-135526073D01*
X227430675Y-135543224D01*
X227368954Y-135564539D01*
X227306773Y-135590387D01*
X227244353Y-135621138D01*
X227181916Y-135657162D01*
X227119683Y-135698827D01*
X226655744Y-135698827D01*
X226655619Y-135692213D01*
X226655767Y-135672273D01*
X226656469Y-135652318D01*
X226657592Y-135632014D01*
X226659783Y-135611825D01*
X226663023Y-135591796D01*
X226667292Y-135571975D01*
X226672570Y-135552410D01*
X226678839Y-135533147D01*
X226686077Y-135514234D01*
X226694267Y-135495717D01*
X226703387Y-135477644D01*
X226713420Y-135460062D01*
X226724344Y-135443018D01*
X226736142Y-135426559D01*
X226748792Y-135410732D01*
X226762276Y-135395585D01*
X226776574Y-135381164D01*
X226791667Y-135367516D01*
X226834893Y-135333896D01*
X226879348Y-135301989D01*
X226924961Y-135271802D01*
X226971660Y-135243340D01*
X227019375Y-135216611D01*
X227068033Y-135191620D01*
X227117564Y-135168374D01*
X227167896Y-135146880D01*
X227218958Y-135127143D01*
X227270679Y-135109169D01*
X227322987Y-135092966D01*
X227375811Y-135078540D01*
X227429080Y-135065896D01*
X227482723Y-135055042D01*
X227536667Y-135045982D01*
X227590843Y-135038725D01*
X227612476Y-135024881D01*
X227634555Y-135012274D01*
X227657062Y-135000767D01*
X227679977Y-134990222D01*
X227703281Y-134980500D01*
X227726953Y-134971464D01*
X227775325Y-134954894D01*
X227875632Y-134923904D01*
X227927253Y-134907273D01*
X227953362Y-134898190D01*
X227979644Y-134888411D01*
X228018204Y-134876959D01*
X228058540Y-134866678D01*
X228100404Y-134857594D01*
X228143551Y-134849730D01*
X228187735Y-134843108D01*
X228232710Y-134837753D01*
X228278228Y-134833688D01*
X228324046Y-134830936D01*
X228369915Y-134829521D01*
X228415590Y-134829466D01*
X228460825Y-134830795D01*
X228505374Y-134833532D01*
X228548991Y-134837699D01*
X228591429Y-134843321D01*
X228632442Y-134850420D01*
X228671785Y-134859020D01*
X228714108Y-134849274D01*
X228757345Y-134840627D01*
X228801415Y-134833106D01*
X228846235Y-134826738D01*
X228891724Y-134821552D01*
X228937800Y-134817573D01*
X228984382Y-134814831D01*
X229031388Y-134813351D01*
X229070825Y-134813103D01*
X229110452Y-134813767D01*
G37*
X235963613Y-134813351D02*
X236010619Y-134814831D01*
X236057201Y-134817573D01*
X236103278Y-134821552D01*
X236148767Y-134826738D01*
X236193587Y-134833106D01*
X236237656Y-134840627D01*
X236280893Y-134849274D01*
X236323216Y-134859020D01*
X236362559Y-134850420D01*
X236403572Y-134843321D01*
X236446010Y-134837699D01*
X236489627Y-134833532D01*
X236534176Y-134830795D01*
X236579411Y-134829466D01*
X236625086Y-134829521D01*
X236670956Y-134830936D01*
X236716773Y-134833688D01*
X236762292Y-134837753D01*
X236807266Y-134843108D01*
X236851450Y-134849730D01*
X236894597Y-134857594D01*
X236936462Y-134866678D01*
X236976797Y-134876959D01*
X237015358Y-134888411D01*
X237041639Y-134898190D01*
X237067748Y-134907273D01*
X237119369Y-134923904D01*
X237219676Y-134954894D01*
X237268048Y-134971464D01*
X237291720Y-134980500D01*
X237315024Y-134990222D01*
X237337939Y-135000767D01*
X237360446Y-135012274D01*
X237382526Y-135024881D01*
X237404158Y-135038725D01*
X237458334Y-135045982D01*
X237512279Y-135055042D01*
X237565921Y-135065896D01*
X237619190Y-135078540D01*
X237672014Y-135092966D01*
X237724322Y-135109169D01*
X237776043Y-135127143D01*
X237827105Y-135146880D01*
X237877437Y-135168374D01*
X237926968Y-135191620D01*
X237975626Y-135216611D01*
X238023341Y-135243340D01*
X238070040Y-135271802D01*
X238115653Y-135301989D01*
X238160108Y-135333896D01*
X238203334Y-135367516D01*
X238218426Y-135381164D01*
X238232725Y-135395585D01*
X238246209Y-135410732D01*
X238258859Y-135426559D01*
X238270657Y-135443018D01*
X238281581Y-135460062D01*
X238291614Y-135477644D01*
X238300734Y-135495717D01*
X238308924Y-135514234D01*
X238316162Y-135533147D01*
X238322431Y-135552410D01*
X238327709Y-135571975D01*
X238331978Y-135591796D01*
X238335218Y-135611825D01*
X238337409Y-135632014D01*
X238338532Y-135652318D01*
X238339234Y-135672273D01*
X238339382Y-135692213D01*
X238339007Y-135712137D01*
X238338142Y-135732040D01*
X238336818Y-135751921D01*
X238335067Y-135771775D01*
X238330408Y-135811391D01*
X238324420Y-135850866D01*
X238317354Y-135890173D01*
X238309464Y-135929290D01*
X238301002Y-135968190D01*
X238283225Y-136035590D01*
X238263528Y-136104810D01*
X238241548Y-136174758D01*
X238216924Y-136244343D01*
X238203507Y-136278659D01*
X238189293Y-136312474D01*
X238174237Y-136345653D01*
X238158293Y-136378060D01*
X238141416Y-136409557D01*
X238123562Y-136440008D01*
X238104683Y-136469277D01*
X238084737Y-136497228D01*
X238084287Y-136545289D01*
X238081192Y-136594683D01*
X238075484Y-136645101D01*
X238067191Y-136696230D01*
X238056345Y-136747760D01*
X238042973Y-136799382D01*
X238027107Y-136850784D01*
X238008777Y-136901656D01*
X237988012Y-136951688D01*
X237964842Y-137000568D01*
X237939298Y-137047987D01*
X237911409Y-137093633D01*
X237881205Y-137137196D01*
X237848716Y-137178367D01*
X237813972Y-137216833D01*
X237777003Y-137252285D01*
X237760646Y-137308891D01*
X237742595Y-137362874D01*
X237722961Y-137414301D01*
X237701859Y-137463238D01*
X237679402Y-137509751D01*
X237655701Y-137553906D01*
X237630871Y-137595769D01*
X237605024Y-137635407D01*
X237578274Y-137672885D01*
X237550732Y-137708269D01*
X237522513Y-137741626D01*
X237493729Y-137773022D01*
X237434918Y-137830194D01*
X237375204Y-137880315D01*
X237315490Y-137923912D01*
X237256681Y-137961514D01*
X237199680Y-137993652D01*
X237145391Y-138020852D01*
X237094719Y-138043645D01*
X237048566Y-138062559D01*
X236973435Y-138090864D01*
X236949484Y-138137903D01*
X236921407Y-138182189D01*
X236889448Y-138223780D01*
X236853856Y-138262737D01*
X236814877Y-138299119D01*
X236772756Y-138332984D01*
X236727741Y-138364391D01*
X236680078Y-138393400D01*
X236630013Y-138420070D01*
X236577793Y-138444460D01*
X236523665Y-138466629D01*
X236467874Y-138486636D01*
X236352292Y-138520402D01*
X236233019Y-138546230D01*
X236112027Y-138564592D01*
X235991288Y-138575963D01*
X235872773Y-138580816D01*
X235758454Y-138579622D01*
X235650303Y-138572855D01*
X235550292Y-138560989D01*
X235460392Y-138544495D01*
X235382576Y-138523848D01*
X235292106Y-138483869D01*
X235206191Y-138442127D01*
X235124576Y-138398549D01*
X235047008Y-138353060D01*
X234973233Y-138305587D01*
X234902995Y-138256055D01*
X234836041Y-138204390D01*
X234772117Y-138150518D01*
X234710969Y-138094365D01*
X234652342Y-138035857D01*
X234595982Y-137974920D01*
X234541635Y-137911480D01*
X234489047Y-137845462D01*
X234437963Y-137776792D01*
X234388130Y-137705397D01*
X234339293Y-137631202D01*
X234297196Y-137606157D01*
X234256111Y-137579389D01*
X234216123Y-137550947D01*
X234177315Y-137520879D01*
X234139771Y-137489236D01*
X234103577Y-137456065D01*
X234068815Y-137421416D01*
X234035571Y-137385338D01*
X234003929Y-137347880D01*
X233973972Y-137309090D01*
X233945786Y-137269018D01*
X233919453Y-137227712D01*
X233895059Y-137185222D01*
X233872688Y-137141596D01*
X233852423Y-137096884D01*
X233834350Y-137051135D01*
X233802293Y-136934889D01*
X233778234Y-136820575D01*
X233761883Y-136708323D01*
X233755622Y-136631194D01*
X234217971Y-136631194D01*
X234222291Y-136698885D01*
X234232069Y-136765067D01*
X234247436Y-136829416D01*
X234268523Y-136891602D01*
X234295462Y-136951300D01*
X234328384Y-137008183D01*
X234367420Y-137061922D01*
X234412703Y-137112192D01*
X234464362Y-137158666D01*
X234522531Y-137201015D01*
X234587340Y-137238914D01*
X234708018Y-137142626D01*
X234831653Y-137049659D01*
X234958177Y-136959939D01*
X235087525Y-136873393D01*
X235219630Y-136789950D01*
X235354426Y-136709534D01*
X235491846Y-136632075D01*
X235631825Y-136557498D01*
X235774295Y-136485732D01*
X235919190Y-136416702D01*
X236066445Y-136350335D01*
X236215992Y-136286560D01*
X236367766Y-136225303D01*
X236521699Y-136166491D01*
X236677726Y-136110052D01*
X236835781Y-136055911D01*
X236448014Y-136258730D01*
X236101097Y-136451902D01*
X235793040Y-136635955D01*
X235521856Y-136811421D01*
X235285555Y-136978828D01*
X235179865Y-137059675D01*
X235082151Y-137138706D01*
X234992163Y-137215988D01*
X234909653Y-137291586D01*
X234834373Y-137365567D01*
X234766075Y-137437997D01*
X234822099Y-137520845D01*
X234879002Y-137597548D01*
X234936695Y-137668287D01*
X234995092Y-137733244D01*
X235054107Y-137792600D01*
X235113652Y-137846537D01*
X235173640Y-137895236D01*
X235233985Y-137938880D01*
X235294599Y-137977649D01*
X235355395Y-138011725D01*
X235416288Y-138041290D01*
X235477189Y-138066525D01*
X235538012Y-138087612D01*
X235598669Y-138104733D01*
X235659075Y-138118069D01*
X235719142Y-138127802D01*
X235778783Y-138134113D01*
X235837911Y-138137183D01*
X235896439Y-138137196D01*
X235954281Y-138134331D01*
X236067557Y-138120697D01*
X236177044Y-138097734D01*
X236282045Y-138066895D01*
X236381867Y-138029633D01*
X236475812Y-137987400D01*
X236563187Y-137941648D01*
X236506123Y-137923140D01*
X236459376Y-137905541D01*
X236422424Y-137888749D01*
X236394746Y-137872660D01*
X236375817Y-137857172D01*
X236365117Y-137842182D01*
X236362123Y-137827587D01*
X236366312Y-137813285D01*
X236377162Y-137799172D01*
X236394150Y-137785146D01*
X236416754Y-137771104D01*
X236444452Y-137756944D01*
X236513040Y-137727855D01*
X236595734Y-137697057D01*
X236786723Y-137627045D01*
X236886659Y-137586186D01*
X236983985Y-137540328D01*
X237030363Y-137515267D01*
X237074521Y-137488649D01*
X237115937Y-137460369D01*
X237154088Y-137430326D01*
X237188452Y-137398417D01*
X237218506Y-137364538D01*
X237243729Y-137328587D01*
X237263597Y-137290461D01*
X237146344Y-137292943D01*
X237065473Y-137291199D01*
X237037469Y-137288609D01*
X237017107Y-137284803D01*
X237003902Y-137279728D01*
X236997369Y-137273331D01*
X236997024Y-137265560D01*
X237002382Y-137256360D01*
X237012959Y-137245680D01*
X237028270Y-137233466D01*
X237127161Y-137168212D01*
X237192410Y-137125004D01*
X237263026Y-137074177D01*
X237335131Y-137015307D01*
X237370531Y-136982723D01*
X237404850Y-136947969D01*
X237437602Y-136910992D01*
X237468304Y-136871740D01*
X237496470Y-136830159D01*
X237521617Y-136786196D01*
X237543259Y-136739798D01*
X237560911Y-136690912D01*
X237574091Y-136639486D01*
X237582311Y-136585465D01*
X237492447Y-136578421D01*
X237458702Y-136573351D01*
X237431884Y-136567169D01*
X237411594Y-136559814D01*
X237397434Y-136551228D01*
X237389006Y-136541349D01*
X237385910Y-136530118D01*
X237387749Y-136517475D01*
X237394124Y-136503360D01*
X237404636Y-136487712D01*
X237418886Y-136470472D01*
X237457010Y-136430975D01*
X237505306Y-136384388D01*
X237560587Y-136330231D01*
X237619664Y-136268023D01*
X237679350Y-136197285D01*
X237708424Y-136158567D01*
X237736456Y-136117536D01*
X237763045Y-136074133D01*
X237787793Y-136028296D01*
X237810303Y-135979967D01*
X237830175Y-135929085D01*
X237847011Y-135875590D01*
X237860412Y-135819422D01*
X237869981Y-135760521D01*
X237875317Y-135698827D01*
X237813084Y-135657162D01*
X237750647Y-135621138D01*
X237688227Y-135590387D01*
X237626046Y-135564539D01*
X237564326Y-135543224D01*
X237503288Y-135526073D01*
X237443153Y-135512716D01*
X237384144Y-135502785D01*
X237270389Y-135491721D01*
X237163795Y-135489926D01*
X237066136Y-135494444D01*
X236979183Y-135502319D01*
X236844491Y-135516324D01*
X236800297Y-135516544D01*
X236784764Y-135513665D01*
X236773903Y-135508300D01*
X236767934Y-135500082D01*
X236767080Y-135488640D01*
X236771562Y-135473604D01*
X236781602Y-135454606D01*
X236819242Y-135403245D01*
X236881773Y-135331601D01*
X236833815Y-135316786D01*
X236785386Y-135306302D01*
X236736663Y-135299794D01*
X236687823Y-135296908D01*
X236639042Y-135297289D01*
X236590499Y-135300583D01*
X236542369Y-135306435D01*
X236494829Y-135314492D01*
X236402230Y-135335797D01*
X236314117Y-135361665D01*
X236157007Y-135415739D01*
X236090842Y-135438275D01*
X236034824Y-135454029D01*
X236011062Y-135458476D01*
X235990368Y-135460163D01*
X235972919Y-135458738D01*
X235958890Y-135453844D01*
X235948460Y-135445128D01*
X235941806Y-135432234D01*
X235939103Y-135414809D01*
X235940530Y-135392498D01*
X235946262Y-135364947D01*
X235956477Y-135331800D01*
X235991065Y-135247304D01*
X235981155Y-135244302D01*
X235971224Y-135241658D01*
X235961274Y-135239365D01*
X235951310Y-135237417D01*
X235941332Y-135235810D01*
X235931346Y-135234535D01*
X235921352Y-135233589D01*
X235911354Y-135232964D01*
X235873832Y-135233349D01*
X235836318Y-135237759D01*
X235798900Y-135245832D01*
X235761667Y-135257203D01*
X235724709Y-135271510D01*
X235688113Y-135288390D01*
X235651969Y-135307479D01*
X235616366Y-135328414D01*
X235547136Y-135374372D01*
X235481136Y-135423357D01*
X235361667Y-135518792D01*
X235309619Y-135559431D01*
X235263644Y-135591477D01*
X235243156Y-135603371D01*
X235224453Y-135612027D01*
X235207623Y-135617082D01*
X235192756Y-135618174D01*
X235179940Y-135614939D01*
X235169265Y-135607014D01*
X235160819Y-135594036D01*
X235154690Y-135575641D01*
X235150969Y-135551467D01*
X235149743Y-135521151D01*
X235151102Y-135484329D01*
X235155134Y-135440639D01*
X235075209Y-135464442D01*
X234997982Y-135493605D01*
X234923584Y-135527802D01*
X234852146Y-135566705D01*
X234783799Y-135609987D01*
X234718676Y-135657321D01*
X234656907Y-135708380D01*
X234598624Y-135762837D01*
X234543959Y-135820365D01*
X234493042Y-135880637D01*
X234446006Y-135943325D01*
X234402981Y-136008104D01*
X234364100Y-136074645D01*
X234329493Y-136142623D01*
X234299292Y-136211709D01*
X234273628Y-136281576D01*
X234252633Y-136351899D01*
X234236439Y-136422349D01*
X234225176Y-136492599D01*
X234218976Y-136562324D01*
X234217971Y-136631194D01*
X233755622Y-136631194D01*
X233752949Y-136598261D01*
X233751142Y-136490517D01*
X233756173Y-136385220D01*
X233767751Y-136282499D01*
X233785586Y-136182481D01*
X233809387Y-136085296D01*
X233838865Y-135991073D01*
X233873729Y-135899939D01*
X233913689Y-135812024D01*
X233958456Y-135727456D01*
X234007738Y-135646364D01*
X234061247Y-135568876D01*
X234118690Y-135495120D01*
X234179780Y-135425226D01*
X234244224Y-135359322D01*
X234311734Y-135297537D01*
X234382018Y-135239998D01*
X234454788Y-135186835D01*
X234529752Y-135138177D01*
X234606620Y-135094152D01*
X234685103Y-135054888D01*
X234764910Y-135020514D01*
X234845751Y-134991159D01*
X234927335Y-134966951D01*
X235009374Y-134948019D01*
X235091576Y-134934491D01*
X235173651Y-134926497D01*
X235255310Y-134924164D01*
X235336261Y-134927621D01*
X235373589Y-134912538D01*
X235411388Y-134898588D01*
X235449612Y-134885754D01*
X235488212Y-134874021D01*
X235527142Y-134863373D01*
X235566355Y-134853794D01*
X235605802Y-134845268D01*
X235645438Y-134837781D01*
X235685214Y-134831315D01*
X235725084Y-134825856D01*
X235764999Y-134821387D01*
X235804914Y-134817893D01*
X235844780Y-134815358D01*
X235884550Y-134813767D01*
X235924177Y-134813103D01*
X235963613Y-134813351D01*
G36*
X235963613Y-134813351D02*
G01*
X236010619Y-134814831D01*
X236057201Y-134817573D01*
X236103278Y-134821552D01*
X236148767Y-134826738D01*
X236193587Y-134833106D01*
X236237656Y-134840627D01*
X236280893Y-134849274D01*
X236323216Y-134859020D01*
X236362559Y-134850420D01*
X236403572Y-134843321D01*
X236446010Y-134837699D01*
X236489627Y-134833532D01*
X236534176Y-134830795D01*
X236579411Y-134829466D01*
X236625086Y-134829521D01*
X236670956Y-134830936D01*
X236716773Y-134833688D01*
X236762292Y-134837753D01*
X236807266Y-134843108D01*
X236851450Y-134849730D01*
X236894597Y-134857594D01*
X236936462Y-134866678D01*
X236976797Y-134876959D01*
X237015358Y-134888411D01*
X237041639Y-134898190D01*
X237067748Y-134907273D01*
X237119369Y-134923904D01*
X237219676Y-134954894D01*
X237268048Y-134971464D01*
X237291720Y-134980500D01*
X237315024Y-134990222D01*
X237337939Y-135000767D01*
X237360446Y-135012274D01*
X237382526Y-135024881D01*
X237404158Y-135038725D01*
X237458334Y-135045982D01*
X237512279Y-135055042D01*
X237565921Y-135065896D01*
X237619190Y-135078540D01*
X237672014Y-135092966D01*
X237724322Y-135109169D01*
X237776043Y-135127143D01*
X237827105Y-135146880D01*
X237877437Y-135168374D01*
X237926968Y-135191620D01*
X237975626Y-135216611D01*
X238023341Y-135243340D01*
X238070040Y-135271802D01*
X238115653Y-135301989D01*
X238160108Y-135333896D01*
X238203334Y-135367516D01*
X238218426Y-135381164D01*
X238232725Y-135395585D01*
X238246209Y-135410732D01*
X238258859Y-135426559D01*
X238270657Y-135443018D01*
X238281581Y-135460062D01*
X238291614Y-135477644D01*
X238300734Y-135495717D01*
X238308924Y-135514234D01*
X238316162Y-135533147D01*
X238322431Y-135552410D01*
X238327709Y-135571975D01*
X238331978Y-135591796D01*
X238335218Y-135611825D01*
X238337409Y-135632014D01*
X238338532Y-135652318D01*
X238339234Y-135672273D01*
X238339382Y-135692213D01*
X238339007Y-135712137D01*
X238338142Y-135732040D01*
X238336818Y-135751921D01*
X238335067Y-135771775D01*
X238330408Y-135811391D01*
X238324420Y-135850866D01*
X238317354Y-135890173D01*
X238309464Y-135929290D01*
X238301002Y-135968190D01*
X238283225Y-136035590D01*
X238263528Y-136104810D01*
X238241548Y-136174758D01*
X238216924Y-136244343D01*
X238203507Y-136278659D01*
X238189293Y-136312474D01*
X238174237Y-136345653D01*
X238158293Y-136378060D01*
X238141416Y-136409557D01*
X238123562Y-136440008D01*
X238104683Y-136469277D01*
X238084737Y-136497228D01*
X238084287Y-136545289D01*
X238081192Y-136594683D01*
X238075484Y-136645101D01*
X238067191Y-136696230D01*
X238056345Y-136747760D01*
X238042973Y-136799382D01*
X238027107Y-136850784D01*
X238008777Y-136901656D01*
X237988012Y-136951688D01*
X237964842Y-137000568D01*
X237939298Y-137047987D01*
X237911409Y-137093633D01*
X237881205Y-137137196D01*
X237848716Y-137178367D01*
X237813972Y-137216833D01*
X237777003Y-137252285D01*
X237760646Y-137308891D01*
X237742595Y-137362874D01*
X237722961Y-137414301D01*
X237701859Y-137463238D01*
X237679402Y-137509751D01*
X237655701Y-137553906D01*
X237630871Y-137595769D01*
X237605024Y-137635407D01*
X237578274Y-137672885D01*
X237550732Y-137708269D01*
X237522513Y-137741626D01*
X237493729Y-137773022D01*
X237434918Y-137830194D01*
X237375204Y-137880315D01*
X237315490Y-137923912D01*
X237256681Y-137961514D01*
X237199680Y-137993652D01*
X237145391Y-138020852D01*
X237094719Y-138043645D01*
X237048566Y-138062559D01*
X236973435Y-138090864D01*
X236949484Y-138137903D01*
X236921407Y-138182189D01*
X236889448Y-138223780D01*
X236853856Y-138262737D01*
X236814877Y-138299119D01*
X236772756Y-138332984D01*
X236727741Y-138364391D01*
X236680078Y-138393400D01*
X236630013Y-138420070D01*
X236577793Y-138444460D01*
X236523665Y-138466629D01*
X236467874Y-138486636D01*
X236352292Y-138520402D01*
X236233019Y-138546230D01*
X236112027Y-138564592D01*
X235991288Y-138575963D01*
X235872773Y-138580816D01*
X235758454Y-138579622D01*
X235650303Y-138572855D01*
X235550292Y-138560989D01*
X235460392Y-138544495D01*
X235382576Y-138523848D01*
X235292106Y-138483869D01*
X235206191Y-138442127D01*
X235124576Y-138398549D01*
X235047008Y-138353060D01*
X234973233Y-138305587D01*
X234902995Y-138256055D01*
X234836041Y-138204390D01*
X234772117Y-138150518D01*
X234710969Y-138094365D01*
X234652342Y-138035857D01*
X234595982Y-137974920D01*
X234541635Y-137911480D01*
X234489047Y-137845462D01*
X234437963Y-137776792D01*
X234388130Y-137705397D01*
X234339293Y-137631202D01*
X234297196Y-137606157D01*
X234256111Y-137579389D01*
X234216123Y-137550947D01*
X234177315Y-137520879D01*
X234139771Y-137489236D01*
X234103577Y-137456065D01*
X234068815Y-137421416D01*
X234035571Y-137385338D01*
X234003929Y-137347880D01*
X233973972Y-137309090D01*
X233945786Y-137269018D01*
X233919453Y-137227712D01*
X233895059Y-137185222D01*
X233872688Y-137141596D01*
X233852423Y-137096884D01*
X233834350Y-137051135D01*
X233802293Y-136934889D01*
X233778234Y-136820575D01*
X233761883Y-136708323D01*
X233755622Y-136631194D01*
X234217971Y-136631194D01*
X234222291Y-136698885D01*
X234232069Y-136765067D01*
X234247436Y-136829416D01*
X234268523Y-136891602D01*
X234295462Y-136951300D01*
X234328384Y-137008183D01*
X234367420Y-137061922D01*
X234412703Y-137112192D01*
X234464362Y-137158666D01*
X234522531Y-137201015D01*
X234587340Y-137238914D01*
X234708018Y-137142626D01*
X234831653Y-137049659D01*
X234958177Y-136959939D01*
X235087525Y-136873393D01*
X235219630Y-136789950D01*
X235354426Y-136709534D01*
X235491846Y-136632075D01*
X235631825Y-136557498D01*
X235774295Y-136485732D01*
X235919190Y-136416702D01*
X236066445Y-136350335D01*
X236215992Y-136286560D01*
X236367766Y-136225303D01*
X236521699Y-136166491D01*
X236677726Y-136110052D01*
X236835781Y-136055911D01*
X236448014Y-136258730D01*
X236101097Y-136451902D01*
X235793040Y-136635955D01*
X235521856Y-136811421D01*
X235285555Y-136978828D01*
X235179865Y-137059675D01*
X235082151Y-137138706D01*
X234992163Y-137215988D01*
X234909653Y-137291586D01*
X234834373Y-137365567D01*
X234766075Y-137437997D01*
X234822099Y-137520845D01*
X234879002Y-137597548D01*
X234936695Y-137668287D01*
X234995092Y-137733244D01*
X235054107Y-137792600D01*
X235113652Y-137846537D01*
X235173640Y-137895236D01*
X235233985Y-137938880D01*
X235294599Y-137977649D01*
X235355395Y-138011725D01*
X235416288Y-138041290D01*
X235477189Y-138066525D01*
X235538012Y-138087612D01*
X235598669Y-138104733D01*
X235659075Y-138118069D01*
X235719142Y-138127802D01*
X235778783Y-138134113D01*
X235837911Y-138137183D01*
X235896439Y-138137196D01*
X235954281Y-138134331D01*
X236067557Y-138120697D01*
X236177044Y-138097734D01*
X236282045Y-138066895D01*
X236381867Y-138029633D01*
X236475812Y-137987400D01*
X236563187Y-137941648D01*
X236506123Y-137923140D01*
X236459376Y-137905541D01*
X236422424Y-137888749D01*
X236394746Y-137872660D01*
X236375817Y-137857172D01*
X236365117Y-137842182D01*
X236362123Y-137827587D01*
X236366312Y-137813285D01*
X236377162Y-137799172D01*
X236394150Y-137785146D01*
X236416754Y-137771104D01*
X236444452Y-137756944D01*
X236513040Y-137727855D01*
X236595734Y-137697057D01*
X236786723Y-137627045D01*
X236886659Y-137586186D01*
X236983985Y-137540328D01*
X237030363Y-137515267D01*
X237074521Y-137488649D01*
X237115937Y-137460369D01*
X237154088Y-137430326D01*
X237188452Y-137398417D01*
X237218506Y-137364538D01*
X237243729Y-137328587D01*
X237263597Y-137290461D01*
X237146344Y-137292943D01*
X237065473Y-137291199D01*
X237037469Y-137288609D01*
X237017107Y-137284803D01*
X237003902Y-137279728D01*
X236997369Y-137273331D01*
X236997024Y-137265560D01*
X237002382Y-137256360D01*
X237012959Y-137245680D01*
X237028270Y-137233466D01*
X237127161Y-137168212D01*
X237192410Y-137125004D01*
X237263026Y-137074177D01*
X237335131Y-137015307D01*
X237370531Y-136982723D01*
X237404850Y-136947969D01*
X237437602Y-136910992D01*
X237468304Y-136871740D01*
X237496470Y-136830159D01*
X237521617Y-136786196D01*
X237543259Y-136739798D01*
X237560911Y-136690912D01*
X237574091Y-136639486D01*
X237582311Y-136585465D01*
X237492447Y-136578421D01*
X237458702Y-136573351D01*
X237431884Y-136567169D01*
X237411594Y-136559814D01*
X237397434Y-136551228D01*
X237389006Y-136541349D01*
X237385910Y-136530118D01*
X237387749Y-136517475D01*
X237394124Y-136503360D01*
X237404636Y-136487712D01*
X237418886Y-136470472D01*
X237457010Y-136430975D01*
X237505306Y-136384388D01*
X237560587Y-136330231D01*
X237619664Y-136268023D01*
X237679350Y-136197285D01*
X237708424Y-136158567D01*
X237736456Y-136117536D01*
X237763045Y-136074133D01*
X237787793Y-136028296D01*
X237810303Y-135979967D01*
X237830175Y-135929085D01*
X237847011Y-135875590D01*
X237860412Y-135819422D01*
X237869981Y-135760521D01*
X237875317Y-135698827D01*
X237813084Y-135657162D01*
X237750647Y-135621138D01*
X237688227Y-135590387D01*
X237626046Y-135564539D01*
X237564326Y-135543224D01*
X237503288Y-135526073D01*
X237443153Y-135512716D01*
X237384144Y-135502785D01*
X237270389Y-135491721D01*
X237163795Y-135489926D01*
X237066136Y-135494444D01*
X236979183Y-135502319D01*
X236844491Y-135516324D01*
X236800297Y-135516544D01*
X236784764Y-135513665D01*
X236773903Y-135508300D01*
X236767934Y-135500082D01*
X236767080Y-135488640D01*
X236771562Y-135473604D01*
X236781602Y-135454606D01*
X236819242Y-135403245D01*
X236881773Y-135331601D01*
X236833815Y-135316786D01*
X236785386Y-135306302D01*
X236736663Y-135299794D01*
X236687823Y-135296908D01*
X236639042Y-135297289D01*
X236590499Y-135300583D01*
X236542369Y-135306435D01*
X236494829Y-135314492D01*
X236402230Y-135335797D01*
X236314117Y-135361665D01*
X236157007Y-135415739D01*
X236090842Y-135438275D01*
X236034824Y-135454029D01*
X236011062Y-135458476D01*
X235990368Y-135460163D01*
X235972919Y-135458738D01*
X235958890Y-135453844D01*
X235948460Y-135445128D01*
X235941806Y-135432234D01*
X235939103Y-135414809D01*
X235940530Y-135392498D01*
X235946262Y-135364947D01*
X235956477Y-135331800D01*
X235991065Y-135247304D01*
X235981155Y-135244302D01*
X235971224Y-135241658D01*
X235961274Y-135239365D01*
X235951310Y-135237417D01*
X235941332Y-135235810D01*
X235931346Y-135234535D01*
X235921352Y-135233589D01*
X235911354Y-135232964D01*
X235873832Y-135233349D01*
X235836318Y-135237759D01*
X235798900Y-135245832D01*
X235761667Y-135257203D01*
X235724709Y-135271510D01*
X235688113Y-135288390D01*
X235651969Y-135307479D01*
X235616366Y-135328414D01*
X235547136Y-135374372D01*
X235481136Y-135423357D01*
X235361667Y-135518792D01*
X235309619Y-135559431D01*
X235263644Y-135591477D01*
X235243156Y-135603371D01*
X235224453Y-135612027D01*
X235207623Y-135617082D01*
X235192756Y-135618174D01*
X235179940Y-135614939D01*
X235169265Y-135607014D01*
X235160819Y-135594036D01*
X235154690Y-135575641D01*
X235150969Y-135551467D01*
X235149743Y-135521151D01*
X235151102Y-135484329D01*
X235155134Y-135440639D01*
X235075209Y-135464442D01*
X234997982Y-135493605D01*
X234923584Y-135527802D01*
X234852146Y-135566705D01*
X234783799Y-135609987D01*
X234718676Y-135657321D01*
X234656907Y-135708380D01*
X234598624Y-135762837D01*
X234543959Y-135820365D01*
X234493042Y-135880637D01*
X234446006Y-135943325D01*
X234402981Y-136008104D01*
X234364100Y-136074645D01*
X234329493Y-136142623D01*
X234299292Y-136211709D01*
X234273628Y-136281576D01*
X234252633Y-136351899D01*
X234236439Y-136422349D01*
X234225176Y-136492599D01*
X234218976Y-136562324D01*
X234217971Y-136631194D01*
X233755622Y-136631194D01*
X233752949Y-136598261D01*
X233751142Y-136490517D01*
X233756173Y-136385220D01*
X233767751Y-136282499D01*
X233785586Y-136182481D01*
X233809387Y-136085296D01*
X233838865Y-135991073D01*
X233873729Y-135899939D01*
X233913689Y-135812024D01*
X233958456Y-135727456D01*
X234007738Y-135646364D01*
X234061247Y-135568876D01*
X234118690Y-135495120D01*
X234179780Y-135425226D01*
X234244224Y-135359322D01*
X234311734Y-135297537D01*
X234382018Y-135239998D01*
X234454788Y-135186835D01*
X234529752Y-135138177D01*
X234606620Y-135094152D01*
X234685103Y-135054888D01*
X234764910Y-135020514D01*
X234845751Y-134991159D01*
X234927335Y-134966951D01*
X235009374Y-134948019D01*
X235091576Y-134934491D01*
X235173651Y-134926497D01*
X235255310Y-134924164D01*
X235336261Y-134927621D01*
X235373589Y-134912538D01*
X235411388Y-134898588D01*
X235449612Y-134885754D01*
X235488212Y-134874021D01*
X235527142Y-134863373D01*
X235566355Y-134853794D01*
X235605802Y-134845268D01*
X235645438Y-134837781D01*
X235685214Y-134831315D01*
X235725084Y-134825856D01*
X235764999Y-134821387D01*
X235804914Y-134817893D01*
X235844780Y-134815358D01*
X235884550Y-134813767D01*
X235924177Y-134813103D01*
X235963613Y-134813351D01*
G37*
G36*
X232450144Y-137263842D02*
G01*
X232677533Y-137279834D01*
X232893563Y-137305956D01*
X233098894Y-137342568D01*
X233197753Y-137364920D01*
X233294186Y-137390031D01*
X233388273Y-137417944D01*
X233480099Y-137448705D01*
X233569745Y-137482359D01*
X233657295Y-137518951D01*
X233742830Y-137558527D01*
X233826433Y-137601130D01*
X233908187Y-137646808D01*
X233988174Y-137695603D01*
X234066478Y-137747563D01*
X234143179Y-137802731D01*
X234218362Y-137861153D01*
X234292108Y-137922874D01*
X234364500Y-137987939D01*
X234435621Y-138056393D01*
X234574380Y-138203648D01*
X234709044Y-138365002D01*
X234840273Y-138540813D01*
X234968730Y-138731443D01*
X235095072Y-138937254D01*
X235209963Y-139053302D01*
X235318780Y-139174796D01*
X235421046Y-139301540D01*
X235516280Y-139433336D01*
X235604005Y-139569989D01*
X235683739Y-139711304D01*
X235755005Y-139857084D01*
X235817323Y-140007132D01*
X235870214Y-140161254D01*
X235913198Y-140319253D01*
X235945797Y-140480933D01*
X235967531Y-140646098D01*
X235977921Y-140814552D01*
X235976488Y-140986099D01*
X235962752Y-141160544D01*
X235936235Y-141337689D01*
X235918139Y-141425243D01*
X235897042Y-141509512D01*
X235873133Y-141590552D01*
X235846598Y-141668420D01*
X235817626Y-141743172D01*
X235786403Y-141814863D01*
X235753117Y-141883551D01*
X235717957Y-141949292D01*
X235681108Y-142012140D01*
X235642760Y-142072154D01*
X235603098Y-142129388D01*
X235562311Y-142183900D01*
X235520587Y-142235745D01*
X235478112Y-142284980D01*
X235435075Y-142331660D01*
X235391662Y-142375843D01*
X235304462Y-142456939D01*
X235218010Y-142528717D01*
X235133807Y-142591626D01*
X235053353Y-142646118D01*
X234978149Y-142692641D01*
X234909694Y-142731644D01*
X234799031Y-142788892D01*
X234746429Y-142861974D01*
X234691745Y-142932136D01*
X234576514Y-143063848D01*
X234454104Y-143184335D01*
X234325279Y-143293903D01*
X234190805Y-143392857D01*
X234051444Y-143481505D01*
X233907963Y-143560153D01*
X233761126Y-143629105D01*
X233611697Y-143688670D01*
X233460442Y-143739153D01*
X233308124Y-143780860D01*
X233155510Y-143814098D01*
X233003363Y-143839172D01*
X232852448Y-143856389D01*
X232703529Y-143866056D01*
X232557372Y-143868477D01*
X232403282Y-143865157D01*
X232246104Y-143854704D01*
X232086662Y-143836805D01*
X231925779Y-143811147D01*
X231764277Y-143777414D01*
X231602979Y-143735295D01*
X231442708Y-143684475D01*
X231284286Y-143624640D01*
X231128535Y-143555476D01*
X230976279Y-143476671D01*
X230828340Y-143387910D01*
X230685541Y-143288879D01*
X230548704Y-143179266D01*
X230482778Y-143120392D01*
X230418652Y-143058755D01*
X230356428Y-142994315D01*
X230296208Y-142927034D01*
X230238096Y-142856872D01*
X230182194Y-142783789D01*
X230064588Y-142726538D01*
X229991836Y-142687531D01*
X229911911Y-142641005D01*
X229826408Y-142586508D01*
X229736920Y-142523593D01*
X229645041Y-142451809D01*
X229560773Y-142378064D01*
X230771629Y-142378064D01*
X230774423Y-142429912D01*
X230782665Y-142481821D01*
X230796144Y-142533676D01*
X230814650Y-142585364D01*
X230837972Y-142636771D01*
X230865899Y-142687783D01*
X230898219Y-142738287D01*
X230934724Y-142788168D01*
X231019439Y-142885607D01*
X231118360Y-142979190D01*
X231229799Y-143068005D01*
X231352072Y-143151143D01*
X231483490Y-143227692D01*
X231622370Y-143296742D01*
X231767024Y-143357381D01*
X231915767Y-143408699D01*
X232066913Y-143449785D01*
X232218775Y-143479728D01*
X232369667Y-143497618D01*
X232517904Y-143502544D01*
X232599958Y-143502437D01*
X232681687Y-143498514D01*
X232762943Y-143490949D01*
X232843575Y-143479916D01*
X232923434Y-143465592D01*
X233002372Y-143448151D01*
X233080237Y-143427769D01*
X233156881Y-143404619D01*
X233232154Y-143378877D01*
X233305906Y-143350719D01*
X233377988Y-143320319D01*
X233448250Y-143287851D01*
X233516543Y-143253492D01*
X233582717Y-143217417D01*
X233646622Y-143179799D01*
X233708109Y-143140815D01*
X233767029Y-143100639D01*
X233823231Y-143059446D01*
X233876566Y-143017411D01*
X233926885Y-142974710D01*
X233974039Y-142931516D01*
X234017876Y-142888007D01*
X234058249Y-142844355D01*
X234095006Y-142800737D01*
X234128000Y-142757326D01*
X234157079Y-142714300D01*
X234182096Y-142671831D01*
X234202899Y-142630096D01*
X234219340Y-142589269D01*
X234231268Y-142549526D01*
X234238535Y-142511040D01*
X234240990Y-142473989D01*
X234239257Y-142429946D01*
X234233482Y-142385931D01*
X234223730Y-142342033D01*
X234210068Y-142298338D01*
X234192561Y-142254934D01*
X234171277Y-142211907D01*
X234117637Y-142127335D01*
X234049675Y-142045321D01*
X233967921Y-141966561D01*
X233872902Y-141891755D01*
X233765147Y-141821599D01*
X233645183Y-141756792D01*
X233513538Y-141698032D01*
X233370742Y-141646015D01*
X233217321Y-141601440D01*
X233053804Y-141565005D01*
X232880718Y-141537407D01*
X232698593Y-141519344D01*
X232507957Y-141511515D01*
X232409871Y-141512048D01*
X232314085Y-141514852D01*
X232220653Y-141519869D01*
X232129627Y-141527045D01*
X232041060Y-141536324D01*
X231955004Y-141547650D01*
X231871512Y-141560967D01*
X231790637Y-141576220D01*
X231712431Y-141593353D01*
X231636947Y-141612309D01*
X231564238Y-141633034D01*
X231494356Y-141655472D01*
X231427355Y-141679567D01*
X231363286Y-141705263D01*
X231302203Y-141732504D01*
X231244158Y-141761235D01*
X231189204Y-141791400D01*
X231137394Y-141822944D01*
X231088780Y-141855810D01*
X231043415Y-141889942D01*
X231001351Y-141925286D01*
X230962642Y-141961786D01*
X230927340Y-141999385D01*
X230895497Y-142038027D01*
X230867167Y-142077658D01*
X230842402Y-142118222D01*
X230821255Y-142159662D01*
X230803778Y-142201924D01*
X230790024Y-142244950D01*
X230780046Y-142288686D01*
X230773897Y-142333076D01*
X230771629Y-142378064D01*
X229560773Y-142378064D01*
X229552366Y-142370707D01*
X229460490Y-142279838D01*
X229371005Y-142178753D01*
X229285507Y-142067001D01*
X229244751Y-142006985D01*
X229205590Y-141944134D01*
X229168222Y-141878391D01*
X229132847Y-141809701D01*
X229099665Y-141738008D01*
X229068874Y-141663255D01*
X229040674Y-141585386D01*
X229015264Y-141504344D01*
X228992844Y-141420075D01*
X228973612Y-141332521D01*
X228957477Y-141244135D01*
X228944197Y-141157382D01*
X228933749Y-141072220D01*
X228930529Y-141036970D01*
X229299117Y-141036970D01*
X229303429Y-141133803D01*
X229308973Y-141183493D01*
X229316939Y-141233968D01*
X229327449Y-141285180D01*
X229340624Y-141337079D01*
X229356587Y-141389619D01*
X229375459Y-141442750D01*
X229397364Y-141496425D01*
X229422423Y-141550595D01*
X229452496Y-141596146D01*
X229483360Y-141639292D01*
X229514950Y-141680063D01*
X229547198Y-141718490D01*
X229580036Y-141754603D01*
X229613399Y-141788432D01*
X229647218Y-141820008D01*
X229681427Y-141849359D01*
X229715959Y-141876518D01*
X229750746Y-141901514D01*
X229785722Y-141924376D01*
X229820820Y-141945136D01*
X229855972Y-141963824D01*
X229891111Y-141980469D01*
X229926171Y-141995103D01*
X229961084Y-142007754D01*
X229995783Y-142018454D01*
X230030202Y-142027232D01*
X230064273Y-142034120D01*
X230097929Y-142039146D01*
X230131103Y-142042341D01*
X230163728Y-142043736D01*
X230195737Y-142043361D01*
X230227063Y-142041245D01*
X230257639Y-142037419D01*
X230287398Y-142031914D01*
X230316272Y-142024759D01*
X230344196Y-142015985D01*
X230371101Y-142005621D01*
X230396920Y-141993699D01*
X230421587Y-141980248D01*
X230445035Y-141965298D01*
X230468637Y-141942621D01*
X230490988Y-141916290D01*
X230512060Y-141886508D01*
X230531826Y-141853481D01*
X230567328Y-141778500D01*
X230597277Y-141692979D01*
X230621454Y-141598545D01*
X230639639Y-141496828D01*
X230651615Y-141389459D01*
X230657163Y-141278066D01*
X230656496Y-141209143D01*
X234236665Y-141209143D01*
X234242213Y-141320536D01*
X234254188Y-141427906D01*
X234272374Y-141529622D01*
X234296551Y-141624056D01*
X234326500Y-141709578D01*
X234343571Y-141748487D01*
X234362003Y-141784558D01*
X234381768Y-141817586D01*
X234402840Y-141847367D01*
X234425191Y-141873698D01*
X234448794Y-141896375D01*
X234472242Y-141911325D01*
X234496909Y-141924776D01*
X234522728Y-141936698D01*
X234549633Y-141947062D01*
X234577556Y-141955836D01*
X234606431Y-141962991D01*
X234636190Y-141968496D01*
X234666766Y-141972322D01*
X234698092Y-141974438D01*
X234730101Y-141974813D01*
X234762726Y-141973418D01*
X234795900Y-141970223D01*
X234829556Y-141965197D01*
X234863627Y-141958309D01*
X234898045Y-141949531D01*
X234932745Y-141938831D01*
X234967658Y-141926179D01*
X235002718Y-141911546D01*
X235037857Y-141894901D01*
X235073009Y-141876213D01*
X235108107Y-141855453D01*
X235143083Y-141832590D01*
X235177870Y-141807595D01*
X235212402Y-141780436D01*
X235246611Y-141751084D01*
X235280430Y-141719509D01*
X235313792Y-141685680D01*
X235346631Y-141649567D01*
X235378879Y-141611140D01*
X235410468Y-141570368D01*
X235441333Y-141527222D01*
X235471406Y-141481672D01*
X235496659Y-141427343D01*
X235519120Y-141373203D01*
X235538872Y-141319315D01*
X235555995Y-141265741D01*
X235570571Y-141212546D01*
X235582683Y-141159792D01*
X235592412Y-141107544D01*
X235599840Y-141055864D01*
X235605050Y-141004816D01*
X235608122Y-140954463D01*
X235609139Y-140904869D01*
X235608182Y-140856097D01*
X235605334Y-140808210D01*
X235600676Y-140761272D01*
X235594290Y-140715346D01*
X235586258Y-140670496D01*
X235576662Y-140626784D01*
X235565583Y-140584275D01*
X235553105Y-140543031D01*
X235539307Y-140503117D01*
X235524273Y-140464594D01*
X235508084Y-140427528D01*
X235490821Y-140391981D01*
X235472568Y-140358016D01*
X235453405Y-140325697D01*
X235433415Y-140295087D01*
X235412679Y-140266251D01*
X235391279Y-140239250D01*
X235369298Y-140214148D01*
X235346816Y-140191010D01*
X235323916Y-140169897D01*
X235300680Y-140150874D01*
X235280231Y-140135460D01*
X235259785Y-140120676D01*
X235239328Y-140106572D01*
X235218846Y-140093196D01*
X235198325Y-140080599D01*
X235177750Y-140068830D01*
X235157109Y-140057939D01*
X235136387Y-140047976D01*
X235115569Y-140038989D01*
X235094643Y-140031029D01*
X235073593Y-140024145D01*
X235052407Y-140018386D01*
X235031069Y-140013803D01*
X235009567Y-140010445D01*
X234987885Y-140008361D01*
X234966011Y-140007601D01*
X234966012Y-140007602D01*
X234937581Y-140008651D01*
X234908779Y-140012077D01*
X234879576Y-140017986D01*
X234849941Y-140026482D01*
X234819847Y-140037672D01*
X234789262Y-140051661D01*
X234758158Y-140068554D01*
X234726504Y-140088457D01*
X234694272Y-140111475D01*
X234661431Y-140137714D01*
X234627953Y-140167279D01*
X234593807Y-140200276D01*
X234558965Y-140236810D01*
X234523395Y-140276987D01*
X234487070Y-140320912D01*
X234449959Y-140368691D01*
X234422045Y-140409922D01*
X234396204Y-140453610D01*
X234372407Y-140499551D01*
X234350628Y-140547542D01*
X234330838Y-140597379D01*
X234313011Y-140648857D01*
X234283135Y-140755925D01*
X234260781Y-140867118D01*
X234245731Y-140980804D01*
X234237765Y-141095356D01*
X234236665Y-141209143D01*
X230656496Y-141209143D01*
X230656063Y-141164279D01*
X230648097Y-141049727D01*
X230633047Y-140936041D01*
X230610693Y-140824848D01*
X230580817Y-140717780D01*
X230543201Y-140616465D01*
X230521421Y-140568474D01*
X230497625Y-140522533D01*
X230471784Y-140478845D01*
X230443871Y-140437614D01*
X230410570Y-140395266D01*
X230377381Y-140356569D01*
X230344332Y-140321406D01*
X230311452Y-140289655D01*
X230278772Y-140261199D01*
X230246320Y-140235917D01*
X230214127Y-140213692D01*
X230182221Y-140194403D01*
X230150632Y-140177931D01*
X230119390Y-140164157D01*
X230088524Y-140152962D01*
X230058063Y-140144226D01*
X230028037Y-140137831D01*
X229998476Y-140133657D01*
X229969409Y-140131585D01*
X229940865Y-140131496D01*
X229940867Y-140131495D01*
X229926801Y-140132157D01*
X229912876Y-140133269D01*
X229899097Y-140134817D01*
X229885467Y-140136787D01*
X229858669Y-140141929D01*
X229832512Y-140148575D01*
X229807025Y-140156607D01*
X229782239Y-140165905D01*
X229758182Y-140176349D01*
X229734885Y-140187820D01*
X229712376Y-140200199D01*
X229690686Y-140213365D01*
X229669844Y-140227200D01*
X229649880Y-140241584D01*
X229630823Y-140256397D01*
X229612702Y-140271521D01*
X229595548Y-140286835D01*
X229579390Y-140302221D01*
X229546991Y-140336903D01*
X229513046Y-140379167D01*
X229478531Y-140428626D01*
X229444423Y-140484894D01*
X229411699Y-140547584D01*
X229381336Y-140616311D01*
X229354311Y-140690688D01*
X229331599Y-140770329D01*
X229314179Y-140854847D01*
X229303026Y-140943856D01*
X229299117Y-141036970D01*
X228930529Y-141036970D01*
X228926111Y-140988609D01*
X228921257Y-140906507D01*
X228919166Y-140825873D01*
X228919813Y-140746667D01*
X228923176Y-140668848D01*
X228929230Y-140592374D01*
X228937953Y-140517205D01*
X228949321Y-140443300D01*
X228963311Y-140370618D01*
X228979898Y-140299118D01*
X228999061Y-140228759D01*
X229020775Y-140159500D01*
X229045017Y-140091300D01*
X229071764Y-140024119D01*
X229100992Y-139957914D01*
X229132677Y-139892647D01*
X229166797Y-139828274D01*
X229242248Y-139702053D01*
X229327155Y-139578922D01*
X229372418Y-139521070D01*
X230604074Y-139521070D01*
X230608468Y-139611652D01*
X230618373Y-139700326D01*
X230633626Y-139787010D01*
X230654066Y-139871620D01*
X230679531Y-139954073D01*
X230709859Y-140034286D01*
X230744888Y-140112176D01*
X230784456Y-140187660D01*
X230828402Y-140260655D01*
X230876563Y-140331077D01*
X230928778Y-140398844D01*
X230984884Y-140463873D01*
X231044720Y-140526079D01*
X231108125Y-140585381D01*
X231174935Y-140641696D01*
X231244989Y-140694939D01*
X231318125Y-140745028D01*
X231394182Y-140791880D01*
X231472997Y-140835412D01*
X231554409Y-140875540D01*
X231638256Y-140912183D01*
X231724375Y-140945255D01*
X231812605Y-140974675D01*
X231902784Y-141000359D01*
X231994751Y-141022225D01*
X232088342Y-141040188D01*
X232183397Y-141054167D01*
X232279754Y-141064077D01*
X232377250Y-141069836D01*
X232475723Y-141071361D01*
X232573788Y-141068197D01*
X232670101Y-141060058D01*
X232764571Y-141047116D01*
X232857105Y-141029542D01*
X232947609Y-141007504D01*
X233035991Y-140981175D01*
X233122158Y-140950725D01*
X233206018Y-140916324D01*
X233287476Y-140878143D01*
X233366441Y-140836352D01*
X233442820Y-140791123D01*
X233516519Y-140742625D01*
X233587446Y-140691030D01*
X233655509Y-140636508D01*
X233720613Y-140579229D01*
X233782666Y-140519364D01*
X233841576Y-140457084D01*
X233897250Y-140392559D01*
X233949594Y-140325960D01*
X233998516Y-140257458D01*
X234043923Y-140187222D01*
X234085722Y-140115425D01*
X234123821Y-140042235D01*
X234158126Y-139967825D01*
X234188544Y-139892364D01*
X234214983Y-139816023D01*
X234237350Y-139738972D01*
X234255552Y-139661383D01*
X234269495Y-139583425D01*
X234279088Y-139505270D01*
X234284238Y-139427088D01*
X234284851Y-139349050D01*
X234280819Y-139271492D01*
X234272178Y-139194714D01*
X234259051Y-139118826D01*
X234241559Y-139043939D01*
X234219825Y-138970165D01*
X234193972Y-138897616D01*
X234164121Y-138826401D01*
X234130395Y-138756632D01*
X234092916Y-138688421D01*
X234051807Y-138621879D01*
X234007190Y-138557117D01*
X233959187Y-138494247D01*
X233907920Y-138433378D01*
X233853513Y-138374624D01*
X233796086Y-138318094D01*
X233735763Y-138263901D01*
X233672666Y-138212155D01*
X233606918Y-138162967D01*
X233538639Y-138116450D01*
X233467954Y-138072713D01*
X233394984Y-138031869D01*
X233319851Y-137994028D01*
X233242678Y-137959302D01*
X233163587Y-137927802D01*
X233082701Y-137899639D01*
X233000142Y-137874924D01*
X232916032Y-137853769D01*
X232830493Y-137836285D01*
X232743648Y-137822583D01*
X232655619Y-137812774D01*
X232566528Y-137806970D01*
X232476499Y-137805281D01*
X232297737Y-137812038D01*
X232210114Y-137819873D01*
X232123786Y-137830677D01*
X232038848Y-137844449D01*
X231955393Y-137861189D01*
X231873514Y-137880895D01*
X231793306Y-137903567D01*
X231714861Y-137929203D01*
X231638274Y-137957802D01*
X231563636Y-137989362D01*
X231491044Y-138023884D01*
X231420588Y-138061366D01*
X231352364Y-138101807D01*
X231286465Y-138145206D01*
X231222983Y-138191561D01*
X231162014Y-138240873D01*
X231103650Y-138293139D01*
X231047984Y-138348358D01*
X230995111Y-138406531D01*
X230945123Y-138467654D01*
X230898115Y-138531729D01*
X230854179Y-138598752D01*
X230813410Y-138668724D01*
X230775901Y-138741644D01*
X230741745Y-138817509D01*
X230711035Y-138896320D01*
X230683867Y-138978075D01*
X230660332Y-139062773D01*
X230640524Y-139150414D01*
X230624537Y-139240995D01*
X230612465Y-139334516D01*
X230605352Y-139428663D01*
X230604074Y-139521070D01*
X229372418Y-139521070D01*
X229421331Y-139458554D01*
X229524591Y-139340622D01*
X229636745Y-139224799D01*
X229757608Y-139110757D01*
X229891527Y-138903169D01*
X230026963Y-138707497D01*
X230164573Y-138523821D01*
X230305013Y-138352221D01*
X230448940Y-138192776D01*
X230597012Y-138045566D01*
X230749884Y-137910670D01*
X230908213Y-137788167D01*
X231072657Y-137678137D01*
X231243873Y-137580659D01*
X231422516Y-137495813D01*
X231609245Y-137423678D01*
X231804715Y-137364334D01*
X232009584Y-137317861D01*
X232224507Y-137284336D01*
X232450144Y-137263841D01*
X232450144Y-137263842D01*
G37*
D13*
X155597500Y-73538135D03*
D14*
X157647500Y-73538135D03*
D15*
X161497500Y-73538135D03*
D16*
X163597500Y-73538135D03*
D13*
X174870000Y-70996885D03*
D14*
X176920000Y-70996885D03*
D15*
X180770000Y-70996885D03*
D16*
X182870000Y-70996885D03*
D13*
X193575500Y-68620135D03*
D14*
X195625500Y-68620135D03*
D15*
X199475500Y-68620135D03*
D16*
X201575500Y-68620135D03*
D13*
X212625500Y-71085135D03*
D14*
X214675500Y-71085135D03*
D15*
X218525500Y-71085135D03*
D16*
X220625500Y-71085135D03*
D13*
X231675500Y-75985135D03*
D14*
X233725500Y-75985135D03*
D15*
X237575500Y-75985135D03*
D16*
X239675500Y-75985135D03*
D13*
X250725500Y-75985135D03*
D14*
X252775500Y-75985135D03*
D15*
X256625500Y-75985135D03*
D16*
X258725500Y-75985135D03*
D13*
X155597500Y-111638135D03*
D14*
X157647500Y-111638135D03*
D15*
X161497500Y-111638135D03*
D16*
X163597500Y-111638135D03*
D13*
X155597500Y-130688135D03*
D14*
X157647500Y-130688135D03*
D15*
X161497500Y-130688135D03*
D16*
X163597500Y-130688135D03*
D13*
X134947500Y-127015135D03*
D14*
X136997500Y-127015135D03*
D15*
X140847500Y-127015135D03*
D16*
X142947500Y-127015135D03*
D17*
X139483474Y-156241097D03*
D18*
X141310037Y-155310416D03*
D19*
X144740412Y-153562553D03*
D16*
X146611526Y-152609173D03*
D20*
X164997500Y-63975135D03*
D21*
X164497500Y-67775135D03*
X159497500Y-69875135D03*
D22*
X159497500Y-63975135D03*
D21*
X154497500Y-67775135D03*
D20*
X153997500Y-63975135D03*
D23*
X155997500Y-69975135D03*
D24*
X167997500Y-67775135D03*
D20*
X203097500Y-58975135D03*
D21*
X202597500Y-62775135D03*
X197597500Y-64875135D03*
D22*
X197597500Y-58975135D03*
D21*
X192597500Y-62775135D03*
D20*
X192097500Y-58975135D03*
D23*
X194097500Y-64975135D03*
D24*
X206097500Y-62775135D03*
D20*
X164997500Y-102075135D03*
D21*
X164497500Y-105875135D03*
X159497500Y-107975135D03*
D22*
X159497500Y-102075135D03*
D21*
X154497500Y-105875135D03*
D20*
X153997500Y-102075135D03*
D23*
X155997500Y-108075135D03*
D24*
X167997500Y-105875135D03*
D20*
X184047500Y-99575135D03*
D21*
X183547500Y-103375135D03*
X178547500Y-105475135D03*
D22*
X178547500Y-99575135D03*
D21*
X173547500Y-103375135D03*
D20*
X173047500Y-99575135D03*
D23*
X175047500Y-105575135D03*
D24*
X187047500Y-103375135D03*
D20*
X203097500Y-116125135D03*
D21*
X202597500Y-119925135D03*
X197597500Y-122025135D03*
D22*
X197597500Y-116125135D03*
D21*
X192597500Y-119925135D03*
D20*
X192097500Y-116125135D03*
D23*
X194097500Y-122125135D03*
D24*
X206097500Y-119925135D03*
D20*
X241197500Y-123525135D03*
D21*
X240697500Y-127325135D03*
X235697500Y-129425135D03*
D22*
X235697500Y-123525135D03*
D21*
X230697500Y-127325135D03*
D20*
X230197500Y-123525135D03*
D23*
X232197500Y-129525135D03*
D24*
X244197500Y-127325135D03*
D20*
X138240194Y-152716480D03*
D21*
X134627374Y-153996141D03*
X130486308Y-150494488D03*
D22*
X135743246Y-147815944D03*
D21*
X130087469Y-145086075D03*
D20*
X133246298Y-142915408D03*
D25*
X128808240Y-147421364D03*
D26*
X136216340Y-157114663D03*
D20*
X161860092Y-140951630D03*
D21*
X162360642Y-144751558D03*
X158074532Y-148074097D03*
D22*
X156547500Y-142375135D03*
D21*
X152701383Y-147339748D03*
D20*
X151234908Y-143798640D03*
D27*
X154719674Y-149076557D03*
D28*
X165741382Y-143845691D03*
D20*
X260247500Y-85425135D03*
D21*
X259747500Y-89225135D03*
X254747500Y-91325135D03*
D22*
X254747500Y-85425135D03*
D21*
X249747500Y-89225135D03*
D20*
X249247500Y-85425135D03*
D23*
X251247500Y-91425135D03*
D24*
X263247500Y-89225135D03*
D20*
X260247500Y-104475135D03*
D21*
X259747500Y-108275135D03*
X254747500Y-110375135D03*
D22*
X254747500Y-104475135D03*
D21*
X249747500Y-108275135D03*
D20*
X249247500Y-104475135D03*
D23*
X251247500Y-110475135D03*
D24*
X263247500Y-108275135D03*
D20*
X260247500Y-123525135D03*
D21*
X259747500Y-127325135D03*
X254747500Y-129425135D03*
D22*
X254747500Y-123525135D03*
D21*
X249747500Y-127325135D03*
D20*
X249247500Y-123525135D03*
D23*
X251247500Y-129525135D03*
D24*
X263247500Y-127325135D03*
D20*
X222147500Y-61475135D03*
D21*
X221647500Y-65275135D03*
X216647500Y-67375135D03*
D22*
X216647500Y-61475135D03*
D21*
X211647500Y-65275135D03*
D20*
X211147500Y-61475135D03*
D23*
X213147500Y-67475135D03*
D24*
X225147500Y-65275135D03*
D29*
X245237500Y-75885135D03*
D13*
X155597500Y-92638135D03*
D14*
X157647500Y-92638135D03*
D15*
X161497500Y-92638135D03*
D16*
X163597500Y-92638135D03*
D13*
X174870000Y-90046885D03*
D14*
X176920000Y-90046885D03*
D15*
X180770000Y-90046885D03*
D16*
X182870000Y-90046885D03*
D13*
X193575500Y-87635135D03*
D14*
X195625500Y-87635135D03*
D15*
X199475500Y-87635135D03*
D16*
X201575500Y-87635135D03*
D13*
X212625500Y-90135135D03*
D14*
X214675500Y-90135135D03*
D15*
X218525500Y-90135135D03*
D16*
X220625500Y-90135135D03*
D13*
X231675500Y-95035135D03*
D14*
X233725500Y-95035135D03*
D15*
X237575500Y-95035135D03*
D16*
X239675500Y-95035135D03*
D13*
X250725500Y-95035135D03*
D14*
X252775500Y-95035135D03*
D15*
X256625500Y-95035135D03*
D16*
X258725500Y-95035135D03*
D20*
X241197500Y-66375135D03*
D21*
X240697500Y-70175135D03*
X235697500Y-72275135D03*
D22*
X235697500Y-66375135D03*
D21*
X230697500Y-70175135D03*
D20*
X230197500Y-66375135D03*
D23*
X232197500Y-72375135D03*
D24*
X244197500Y-70175135D03*
D20*
X184047500Y-80525135D03*
D21*
X183547500Y-84325135D03*
X178547500Y-86425135D03*
D22*
X178547500Y-80525135D03*
D21*
X173547500Y-84325135D03*
D20*
X173047500Y-80525135D03*
D23*
X175047500Y-86525135D03*
D24*
X187047500Y-84325135D03*
D20*
X222147500Y-80525135D03*
D21*
X221647500Y-84325135D03*
X216647500Y-86425135D03*
D22*
X216647500Y-80525135D03*
D21*
X211647500Y-84325135D03*
D20*
X211147500Y-80525135D03*
D23*
X213147500Y-86525135D03*
D24*
X225147500Y-84325135D03*
D20*
X203097500Y-78025135D03*
D21*
X202597500Y-81825135D03*
X197597500Y-83925135D03*
D22*
X197597500Y-78025135D03*
D21*
X192597500Y-81825135D03*
D20*
X192097500Y-78025135D03*
D23*
X194097500Y-84025135D03*
D24*
X206097500Y-81825135D03*
D20*
X222147500Y-99575135D03*
D21*
X221647500Y-103375135D03*
X216647500Y-105475135D03*
D22*
X216647500Y-99575135D03*
D21*
X211647500Y-103375135D03*
D20*
X211147500Y-99575135D03*
D23*
X213147500Y-105575135D03*
D24*
X225147500Y-103375135D03*
D20*
X260247500Y-66375135D03*
D21*
X259747500Y-70175135D03*
X254747500Y-72275135D03*
D22*
X254747500Y-66375135D03*
D21*
X249747500Y-70175135D03*
D20*
X249247500Y-66375135D03*
D23*
X251247500Y-72375135D03*
D24*
X263247500Y-70175135D03*
D20*
X222147500Y-137675135D03*
D21*
X221647500Y-141475135D03*
X216647500Y-143575135D03*
D22*
X216647500Y-137675135D03*
D21*
X211647500Y-141475135D03*
D20*
X211147500Y-137675135D03*
D23*
X213147500Y-143675135D03*
D24*
X225147500Y-141475135D03*
D20*
X241197500Y-85425135D03*
D21*
X240697500Y-89225135D03*
X235697500Y-91325135D03*
D22*
X235697500Y-85425135D03*
D21*
X230697500Y-89225135D03*
D20*
X230197500Y-85425135D03*
D23*
X232197500Y-91425135D03*
D24*
X244197500Y-89225135D03*
D20*
X222147500Y-118625135D03*
D21*
X221647500Y-122425135D03*
X216647500Y-124525135D03*
D22*
X216647500Y-118625135D03*
D21*
X211647500Y-122425135D03*
D20*
X211147500Y-118625135D03*
D23*
X213147500Y-124625135D03*
D24*
X225147500Y-122425135D03*
D20*
X241197500Y-104475135D03*
D21*
X240697500Y-108275135D03*
X235697500Y-110375135D03*
D22*
X235697500Y-104475135D03*
D21*
X230697500Y-108275135D03*
D20*
X230197500Y-104475135D03*
D23*
X232197500Y-110475135D03*
D24*
X244197500Y-108275135D03*
D20*
X203097500Y-135175135D03*
D21*
X202597500Y-138975135D03*
X197597500Y-141075135D03*
D22*
X197597500Y-135175135D03*
D21*
X192597500Y-138975135D03*
D20*
X192097500Y-135175135D03*
D23*
X194097500Y-141175135D03*
D24*
X206097500Y-138975135D03*
D20*
X203097500Y-97075135D03*
D21*
X202597500Y-100875135D03*
X197597500Y-102975135D03*
D22*
X197597500Y-97075135D03*
D21*
X192597500Y-100875135D03*
D20*
X192097500Y-97075135D03*
D23*
X194097500Y-103075135D03*
D24*
X206097500Y-100875135D03*
D20*
X184047500Y-61475135D03*
D21*
X183547500Y-65275135D03*
X178547500Y-67375135D03*
D22*
X178547500Y-61475135D03*
D21*
X173547500Y-65275135D03*
D20*
X173047500Y-61475135D03*
D23*
X175047500Y-67475135D03*
D24*
X187047500Y-65275135D03*
D30*
X155386297Y-152910276D03*
D31*
X157366445Y-152379697D03*
D32*
X161085259Y-151383244D03*
D16*
X163113703Y-150839724D03*
D20*
X184047500Y-118625135D03*
D21*
X183547500Y-122425135D03*
X178547500Y-124525135D03*
D22*
X178547500Y-118625135D03*
D21*
X173547500Y-122425135D03*
D20*
X173047500Y-118625135D03*
D23*
X175047500Y-124625135D03*
D24*
X187047500Y-122425135D03*
D13*
X193575500Y-106685135D03*
D14*
X195625500Y-106685135D03*
D15*
X199475500Y-106685135D03*
D16*
X201575500Y-106685135D03*
D13*
X231675500Y-114085135D03*
D14*
X233725500Y-114085135D03*
D15*
X237575500Y-114085135D03*
D16*
X239675500Y-114085135D03*
D13*
X250725500Y-114085135D03*
D14*
X252775500Y-114085135D03*
D15*
X256625500Y-114085135D03*
D16*
X258725500Y-114085135D03*
D13*
X174870000Y-147196885D03*
D14*
X176920000Y-147196885D03*
D15*
X180770000Y-147196885D03*
D16*
X182870000Y-147196885D03*
D13*
X193575500Y-144785135D03*
D14*
X195625500Y-144785135D03*
D15*
X199475500Y-144785135D03*
D16*
X201575500Y-144785135D03*
D13*
X250725500Y-133135135D03*
D14*
X252775500Y-133135135D03*
D15*
X256625500Y-133135135D03*
D16*
X258725500Y-133135135D03*
D13*
X174870000Y-128146885D03*
D14*
X176920000Y-128146885D03*
D15*
X180770000Y-128146885D03*
D16*
X182870000Y-128146885D03*
D13*
X193575500Y-125735135D03*
D14*
X195625500Y-125735135D03*
D15*
X199475500Y-125735135D03*
D16*
X201575500Y-125735135D03*
D13*
X212625500Y-128235135D03*
D14*
X214675500Y-128235135D03*
D15*
X218525500Y-128235135D03*
D16*
X220625500Y-128235135D03*
D13*
X231708000Y-133020135D03*
D14*
X233758000Y-133020135D03*
D15*
X237608000Y-133020135D03*
D16*
X239708000Y-133020135D03*
D13*
X174870000Y-109096885D03*
D14*
X176920000Y-109096885D03*
D15*
X180770000Y-109096885D03*
D16*
X182870000Y-109096885D03*
D13*
X212625500Y-147285135D03*
D14*
X214675500Y-147285135D03*
D15*
X218525500Y-147285135D03*
D16*
X220625500Y-147285135D03*
D20*
X184047500Y-137675135D03*
D21*
X183547500Y-141475135D03*
X178547500Y-143575135D03*
D22*
X178547500Y-137675135D03*
D21*
X173547500Y-141475135D03*
D20*
X173047500Y-137675135D03*
D23*
X175047500Y-143675135D03*
D24*
X187047500Y-141475135D03*
D29*
X168387500Y-73485135D03*
X168477500Y-111435135D03*
D33*
X-14697506Y-117905135D03*
D34*
X-14697506Y-119405135D03*
D35*
X-20297506Y-119405135D03*
D36*
X-20297506Y-117905135D03*
D20*
X83237500Y-102075135D03*
D21*
X82737500Y-105875135D03*
X77737500Y-107975135D03*
D22*
X77737500Y-102075135D03*
D21*
X72737500Y-105875135D03*
D20*
X72237500Y-102075135D03*
D23*
X74237500Y-108075135D03*
D24*
X86237500Y-105875135D03*
D37*
X175732506Y-57355135D03*
D35*
X175732506Y-55855135D03*
D34*
X181332506Y-55855135D03*
D38*
X181332506Y-57355135D03*
D39*
X-13490500Y-95035135D03*
D40*
X-15540500Y-95035135D03*
D41*
X-19390500Y-95035135D03*
D16*
X-21490500Y-95035135D03*
D42*
X152762090Y-139124095D03*
D43*
X152373861Y-137675206D03*
D44*
X157783046Y-136225819D03*
D45*
X158171275Y-137674708D03*
D46*
X122555000Y-92325135D03*
X122555000Y-94865135D03*
X122555000Y-97405135D03*
D47*
X122555000Y-99945135D03*
D37*
X232882506Y-100355135D03*
D35*
X232882506Y-98855135D03*
D34*
X238482506Y-98855135D03*
D38*
X238482506Y-100355135D03*
D48*
X138136213Y-143437326D03*
D49*
X139472722Y-142756340D03*
D50*
X142015069Y-147745976D03*
D51*
X140678560Y-148426962D03*
D20*
X83237500Y-63975135D03*
D21*
X82737500Y-67775135D03*
X77737500Y-69875135D03*
D22*
X77737500Y-63975135D03*
D21*
X72737500Y-67775135D03*
D20*
X72237500Y-63975135D03*
D23*
X74237500Y-69975135D03*
D24*
X86237500Y-67775135D03*
D52*
X114650000Y-58160135D03*
D53*
X114650000Y-56300135D03*
D54*
X114650000Y-52450135D03*
D55*
X114650000Y-50540135D03*
D20*
X164997500Y-121125135D03*
D21*
X164497500Y-124925135D03*
X159497500Y-127025135D03*
D22*
X159497500Y-121125135D03*
D21*
X154497500Y-124925135D03*
D20*
X153997500Y-121125135D03*
D23*
X155997500Y-127125135D03*
D24*
X167997500Y-124925135D03*
D33*
X42452494Y-72405135D03*
D34*
X42452494Y-73905135D03*
D35*
X36852494Y-73905135D03*
D36*
X36852494Y-72405135D03*
D33*
X42452494Y-53355135D03*
D34*
X42452494Y-54855135D03*
D35*
X36852494Y-54855135D03*
D36*
X36852494Y-53355135D03*
D33*
X-14697506Y-60755135D03*
D34*
X-14697506Y-62255135D03*
D35*
X-20297506Y-62255135D03*
D36*
X-20297506Y-60755135D03*
D39*
X24609500Y-109185135D03*
D40*
X22559500Y-109185135D03*
D41*
X18709500Y-109185135D03*
D16*
X16609500Y-109185135D03*
D37*
X232882506Y-81305135D03*
D35*
X232882506Y-79805135D03*
D34*
X238482506Y-79805135D03*
D38*
X238482506Y-81305135D03*
D56*
X118625000Y-130000000D03*
D57*
X114662500Y-60175135D03*
X114662500Y-62250135D03*
D39*
X43659500Y-125735135D03*
D40*
X41609500Y-125735135D03*
D41*
X37759500Y-125735135D03*
D16*
X35659500Y-125735135D03*
D20*
X-12012501Y-85425135D03*
D21*
X-12512501Y-89225135D03*
X-17512501Y-91325135D03*
D22*
X-17512501Y-85425135D03*
D21*
X-22512501Y-89225135D03*
D20*
X-23012501Y-85425135D03*
D23*
X-21012501Y-91425135D03*
D24*
X-9012501Y-89225135D03*
D37*
X232882506Y-62255135D03*
D35*
X232882506Y-60755135D03*
D34*
X238482506Y-60755135D03*
D38*
X238482506Y-62255135D03*
D37*
X232882506Y-119405135D03*
D35*
X232882506Y-117905135D03*
D34*
X238482506Y-117905135D03*
D38*
X238482506Y-119405135D03*
D33*
X23402494Y-132055135D03*
D34*
X23402494Y-133555135D03*
D35*
X17802494Y-133555135D03*
D36*
X17802494Y-132055135D03*
D20*
X7037500Y-66375135D03*
D21*
X6537500Y-70175135D03*
X1537500Y-72275135D03*
D22*
X1537500Y-66375135D03*
D21*
X-3462500Y-70175135D03*
D20*
X-3962500Y-66375135D03*
D23*
X-1962500Y-72375135D03*
D24*
X10037500Y-70175135D03*
D52*
X122585000Y-58160135D03*
D53*
X122585000Y-56300135D03*
D54*
X122585000Y-52450135D03*
D55*
X122585000Y-50540135D03*
D58*
X-26790000Y-133000000D03*
D39*
X62365001Y-70996885D03*
D40*
X60315001Y-70996885D03*
D41*
X56465001Y-70996885D03*
D16*
X54365001Y-70996885D03*
D37*
X175732506Y-76405135D03*
D35*
X175732506Y-74905135D03*
D34*
X181332506Y-74905135D03*
D38*
X181332506Y-76405135D03*
D39*
X43659500Y-106685135D03*
D40*
X41609500Y-106685135D03*
D41*
X37759500Y-106685135D03*
D16*
X35659500Y-106685135D03*
D20*
X26087500Y-118625135D03*
D21*
X25587500Y-122425135D03*
X20587500Y-124525135D03*
D22*
X20587500Y-118625135D03*
D21*
X15587500Y-122425135D03*
D20*
X15087500Y-118625135D03*
D23*
X17087500Y-124625135D03*
D24*
X29087500Y-122425135D03*
D37*
X213832506Y-114505135D03*
D35*
X213832506Y-113005135D03*
D34*
X219432506Y-113005135D03*
D38*
X219432506Y-114505135D03*
D20*
X7037501Y-85425135D03*
D21*
X6537501Y-89225135D03*
X1537501Y-91325135D03*
D22*
X1537501Y-85425135D03*
D21*
X-3462499Y-89225135D03*
D20*
X-3962499Y-85425135D03*
D23*
X-1962499Y-91425135D03*
D24*
X10037501Y-89225135D03*
D33*
X23402494Y-93955135D03*
D34*
X23402494Y-95455135D03*
D35*
X17802494Y-95455135D03*
D36*
X17802494Y-93955135D03*
D37*
X194782506Y-112005135D03*
D35*
X194782506Y-110505135D03*
D34*
X200382506Y-110505135D03*
D38*
X200382506Y-112005135D03*
D33*
X-14697506Y-98855135D03*
D34*
X-14697506Y-100355135D03*
D35*
X-20297506Y-100355135D03*
D36*
X-20297506Y-98855135D03*
D20*
X45137500Y-78025135D03*
D21*
X44637500Y-81825135D03*
X39637500Y-83925135D03*
D22*
X39637500Y-78025135D03*
D21*
X34637500Y-81825135D03*
D20*
X34137500Y-78025135D03*
D23*
X36137500Y-84025135D03*
D24*
X48137500Y-81825135D03*
D20*
X-12012500Y-66375135D03*
D21*
X-12512500Y-70175135D03*
X-17512500Y-72275135D03*
D22*
X-17512500Y-66375135D03*
D21*
X-22512500Y-70175135D03*
D20*
X-23012500Y-66375135D03*
D23*
X-21012500Y-72375135D03*
D24*
X-9012500Y-70175135D03*
D59*
X105367500Y-111295135D03*
D60*
X104517500Y-111295135D03*
D61*
X103347500Y-111295135D03*
D62*
X102827500Y-111295135D03*
D20*
X7037500Y-104475135D03*
D21*
X6537500Y-108275135D03*
X1537500Y-110375135D03*
D22*
X1537500Y-104475135D03*
D21*
X-3462500Y-108275135D03*
D20*
X-3962500Y-104475135D03*
D23*
X-1962500Y-110475135D03*
D24*
X10037500Y-108275135D03*
D57*
X122572500Y-60175135D03*
X122572500Y-62250135D03*
D20*
X45137500Y-116125135D03*
D21*
X44637500Y-119925135D03*
X39637500Y-122025135D03*
D22*
X39637500Y-116125135D03*
D21*
X34637500Y-119925135D03*
D20*
X34137500Y-116125135D03*
D23*
X36137500Y-122125135D03*
D24*
X48137500Y-119925135D03*
D33*
X23402494Y-74905135D03*
D34*
X23402494Y-76405135D03*
D35*
X17802494Y-76405135D03*
D36*
X17802494Y-74905135D03*
D39*
X62365000Y-109096885D03*
D40*
X60315000Y-109096885D03*
D41*
X56465000Y-109096885D03*
D16*
X54365000Y-109096885D03*
D46*
X147857500Y-100025135D03*
X147857500Y-97485135D03*
X147857500Y-94945135D03*
D63*
X147857500Y-92405135D03*
D37*
X251932506Y-100355135D03*
D35*
X251932506Y-98855135D03*
D34*
X257532506Y-98855135D03*
D38*
X257532506Y-100355135D03*
D20*
X64187500Y-80525135D03*
D21*
X63687500Y-84325135D03*
X58687500Y-86425135D03*
D22*
X58687500Y-80525135D03*
D21*
X53687500Y-84325135D03*
D20*
X53187500Y-80525135D03*
D23*
X55187500Y-86525135D03*
D24*
X67187500Y-84325135D03*
D20*
X26087500Y-99575135D03*
D21*
X25587500Y-103375135D03*
X20587500Y-105475135D03*
D22*
X20587500Y-99575135D03*
D21*
X15587500Y-103375135D03*
D20*
X15087500Y-99575135D03*
D23*
X17087500Y-105575135D03*
D24*
X29087500Y-103375135D03*
D13*
X212625500Y-109185135D03*
D14*
X214675500Y-109185135D03*
D15*
X218525500Y-109185135D03*
D16*
X220625500Y-109185135D03*
D33*
X23402494Y-113005135D03*
D34*
X23402494Y-114505135D03*
D35*
X17802494Y-114505135D03*
D36*
X17802494Y-113005135D03*
D39*
X-13490500Y-114085135D03*
D40*
X-15540500Y-114085135D03*
D41*
X-19390500Y-114085135D03*
D16*
X-21490500Y-114085135D03*
D33*
X61502494Y-132055135D03*
D34*
X61502494Y-133555135D03*
D35*
X55902494Y-133555135D03*
D36*
X55902494Y-132055135D03*
D64*
X263000000Y-62800000D03*
D37*
X156682506Y-97955135D03*
D35*
X156682506Y-96455135D03*
D34*
X162282506Y-96455135D03*
D38*
X162282506Y-97955135D03*
D33*
X80552494Y-96455134D03*
D34*
X80552494Y-97955134D03*
D35*
X74952494Y-97955134D03*
D36*
X74952494Y-96455134D03*
D33*
X4352494Y-98855135D03*
D34*
X4352494Y-100355135D03*
D35*
X-1247506Y-100355135D03*
D36*
X-1247506Y-98855135D03*
D37*
X213832506Y-76405135D03*
D35*
X213832506Y-74905135D03*
D34*
X219432506Y-74905135D03*
D38*
X219432506Y-76405135D03*
D33*
X4352494Y-117905135D03*
D34*
X4352494Y-119405135D03*
D35*
X-1247506Y-119405135D03*
D36*
X-1247506Y-117905135D03*
D39*
X43659500Y-144785135D03*
D40*
X41609500Y-144785135D03*
D41*
X37759500Y-144785135D03*
D16*
X35659500Y-144785135D03*
D65*
X169022500Y-95345135D03*
X188072500Y-76295135D03*
X188072500Y-114395135D03*
X207122500Y-95345135D03*
D20*
X103988702Y-142915408D03*
D21*
X107147531Y-145086075D03*
X106748692Y-150494488D03*
D22*
X101491754Y-147815944D03*
D21*
X102607626Y-153996141D03*
D20*
X98994806Y-152716480D03*
D66*
X105248826Y-153658410D03*
D67*
X108736498Y-141967552D03*
D39*
X62365000Y-147196885D03*
D40*
X60315000Y-147196885D03*
D41*
X56465000Y-147196885D03*
D16*
X54365000Y-147196885D03*
D37*
X175732506Y-114505135D03*
D35*
X175732506Y-113005135D03*
D34*
X181332506Y-113005135D03*
D38*
X181332506Y-114505135D03*
D37*
X251932506Y-62255135D03*
D35*
X251932506Y-60755135D03*
D34*
X257532506Y-60755135D03*
D38*
X257532506Y-62255135D03*
D20*
X-12012500Y-123525135D03*
D21*
X-12512500Y-127325135D03*
X-17512500Y-129425135D03*
D22*
X-17512500Y-123525135D03*
D21*
X-22512500Y-127325135D03*
D20*
X-23012500Y-123525135D03*
D23*
X-21012500Y-129525135D03*
D24*
X-9012500Y-127325135D03*
D68*
X84861139Y-137675206D03*
D69*
X84472910Y-139124095D03*
D70*
X79063725Y-137674708D03*
D71*
X79451954Y-136225819D03*
D33*
X42452494Y-91455135D03*
D34*
X42452494Y-92955135D03*
D35*
X36852494Y-92955135D03*
D36*
X36852494Y-91455135D03*
D20*
X26087500Y-80525135D03*
D21*
X25587500Y-84325135D03*
X20587500Y-86425135D03*
D22*
X20587500Y-80525135D03*
D21*
X15587500Y-84325135D03*
D20*
X15087500Y-80525135D03*
D23*
X17087500Y-86525135D03*
D24*
X29087500Y-84325135D03*
D39*
X5559500Y-95035135D03*
D40*
X3509500Y-95035135D03*
D41*
X-340500Y-95035135D03*
D16*
X-2440500Y-95035135D03*
D39*
X43659500Y-68620135D03*
D40*
X41609500Y-68620135D03*
D41*
X37759500Y-68620135D03*
D16*
X35659500Y-68620135D03*
D72*
X97762278Y-142756340D03*
D73*
X99098787Y-143437326D03*
D74*
X96556440Y-148426962D03*
D75*
X95219931Y-147745976D03*
D39*
X24609500Y-71085135D03*
D40*
X22559500Y-71085135D03*
D41*
X18709500Y-71085135D03*
D16*
X16609500Y-71085135D03*
D37*
X156682506Y-59855135D03*
D35*
X156682506Y-58355135D03*
D34*
X162282506Y-58355135D03*
D38*
X162282506Y-59855135D03*
D33*
X61502494Y-74905135D03*
D34*
X61502494Y-76405135D03*
D35*
X55902494Y-76405135D03*
D36*
X55902494Y-74905135D03*
D76*
X255752500Y-58135135D03*
X257752500Y-58135135D03*
X263212500Y-58135135D03*
X265752500Y-58135135D03*
D37*
X194782506Y-54855135D03*
D35*
X194782506Y-53355135D03*
D34*
X200382506Y-53355135D03*
D38*
X200382506Y-54855135D03*
D33*
X80552494Y-58355135D03*
D34*
X80552494Y-59855135D03*
D35*
X74952494Y-59855135D03*
D36*
X74952494Y-58355135D03*
D37*
X194782506Y-131055135D03*
D35*
X194782506Y-129555135D03*
D34*
X200382506Y-129555135D03*
D38*
X200382506Y-131055135D03*
D39*
X81637500Y-92638135D03*
D40*
X79587500Y-92638135D03*
D41*
X75737500Y-92638135D03*
D16*
X73637500Y-92638135D03*
D77*
X136737500Y-108675000D03*
X134662500Y-108675000D03*
D39*
X-13490500Y-133135135D03*
D40*
X-15540500Y-133135135D03*
D41*
X-19390500Y-133135135D03*
D16*
X-21490500Y-133135135D03*
D58*
X262000000Y-56000000D03*
D37*
X194782506Y-73905135D03*
D35*
X194782506Y-72405135D03*
D34*
X200382506Y-72405135D03*
D38*
X200382506Y-73905135D03*
D39*
X24609500Y-128235135D03*
D40*
X22559500Y-128235135D03*
D41*
X18709500Y-128235135D03*
D16*
X16609500Y-128235135D03*
D39*
X81637500Y-73538135D03*
D40*
X79587500Y-73538135D03*
D41*
X75737500Y-73538135D03*
D16*
X73637500Y-73538135D03*
D20*
X45137500Y-97075135D03*
D21*
X44637500Y-100875135D03*
X39637500Y-102975135D03*
D22*
X39637500Y-97075135D03*
D21*
X34637500Y-100875135D03*
D20*
X34137500Y-97075135D03*
D23*
X36137500Y-103075135D03*
D24*
X48137500Y-100875135D03*
D20*
X45137500Y-135175134D03*
D21*
X44637500Y-138975134D03*
X39637500Y-141075134D03*
D22*
X39637500Y-135175134D03*
D21*
X34637500Y-138975134D03*
D20*
X34137500Y-135175134D03*
D23*
X36137500Y-141175134D03*
D24*
X48137500Y-138975134D03*
D57*
X118675000Y-120012500D03*
X118675000Y-122087500D03*
D33*
X61502494Y-113005136D03*
D34*
X61502494Y-114505136D03*
D35*
X55902494Y-114505136D03*
D36*
X55902494Y-113005136D03*
D20*
X64187500Y-61475136D03*
D21*
X63687500Y-65275136D03*
X58687500Y-67375136D03*
D22*
X58687500Y-61475136D03*
D21*
X53687500Y-65275136D03*
D20*
X53187500Y-61475136D03*
D23*
X55187500Y-67475136D03*
D24*
X67187500Y-65275136D03*
D29*
X142537500Y-134505135D03*
D20*
X164997500Y-83025135D03*
D21*
X164497500Y-86825135D03*
X159497500Y-88925135D03*
D22*
X159497500Y-83025135D03*
D21*
X154497500Y-86825135D03*
D20*
X153997500Y-83025135D03*
D23*
X155997500Y-89025135D03*
D24*
X167997500Y-86825135D03*
D33*
X23402495Y-55855135D03*
D34*
X23402495Y-57355135D03*
D35*
X17802495Y-57355135D03*
D36*
X17802495Y-55855135D03*
D37*
X175732506Y-133555135D03*
D35*
X175732506Y-132055135D03*
D34*
X181332506Y-132055135D03*
D38*
X181332506Y-133555135D03*
D39*
X62365000Y-128146885D03*
D40*
X60315000Y-128146885D03*
D41*
X56465000Y-128146885D03*
D16*
X54365000Y-128146885D03*
D20*
X26087500Y-137675135D03*
D21*
X25587500Y-141475135D03*
X20587500Y-143575135D03*
D22*
X20587500Y-137675135D03*
D21*
X15587500Y-141475135D03*
D20*
X15087500Y-137675135D03*
D23*
X17087500Y-143675135D03*
D24*
X29087500Y-141475135D03*
D20*
X26087500Y-61475135D03*
D21*
X25587500Y-65275135D03*
X20587500Y-67375135D03*
D22*
X20587500Y-61475135D03*
D21*
X15587500Y-65275135D03*
D20*
X15087500Y-61475135D03*
D23*
X17087500Y-67475135D03*
D24*
X29087500Y-65275135D03*
D33*
X42452494Y-129555135D03*
D34*
X42452494Y-131055135D03*
D35*
X36852494Y-131055135D03*
D36*
X36852494Y-129555135D03*
D20*
X64187500Y-137675135D03*
D21*
X63687500Y-141475135D03*
X58687500Y-143575135D03*
D22*
X58687500Y-137675135D03*
D21*
X53687500Y-141475135D03*
D20*
X53187500Y-137675135D03*
D23*
X55187500Y-143675135D03*
D24*
X67187500Y-141475135D03*
D29*
X144087500Y-104565135D03*
D39*
X24609501Y-147285135D03*
D40*
X22559501Y-147285135D03*
D41*
X18709501Y-147285135D03*
D16*
X16609501Y-147285135D03*
D37*
X156682506Y-78905135D03*
D35*
X156682506Y-77405135D03*
D34*
X162282506Y-77405135D03*
D38*
X162282506Y-78905135D03*
D37*
X213832506Y-57355135D03*
D35*
X213832506Y-55855135D03*
D34*
X219432506Y-55855135D03*
D38*
X219432506Y-57355135D03*
D37*
X156682506Y-117005135D03*
D35*
X156682506Y-115505135D03*
D34*
X162282506Y-115505135D03*
D38*
X162282506Y-117005135D03*
D39*
X43659500Y-87635135D03*
D40*
X41609500Y-87635135D03*
D41*
X37759500Y-87635135D03*
D16*
X35659500Y-87635135D03*
D33*
X80552495Y-115505135D03*
D34*
X80552495Y-117005135D03*
D35*
X74952495Y-117005135D03*
D36*
X74952495Y-115505135D03*
D37*
X213832506Y-95455135D03*
D35*
X213832506Y-93955135D03*
D34*
X219432506Y-93955135D03*
D38*
X219432506Y-95455135D03*
D20*
X64187500Y-118625135D03*
D21*
X63687500Y-122425135D03*
X58687500Y-124525135D03*
D22*
X58687500Y-118625135D03*
D21*
X53687500Y-122425135D03*
D20*
X53187500Y-118625135D03*
D23*
X55187500Y-124625135D03*
D24*
X67187500Y-122425135D03*
D78*
X131855000Y-111300000D03*
D79*
X132705000Y-111300000D03*
D80*
X133875000Y-111300000D03*
D81*
X134395000Y-111300000D03*
D56*
X118625000Y-95000000D03*
D39*
X5559500Y-114085135D03*
D40*
X3509500Y-114085135D03*
D41*
X-340500Y-114085135D03*
D16*
X-2440500Y-114085135D03*
D37*
X175732506Y-95455135D03*
D35*
X175732506Y-93955135D03*
D34*
X181332506Y-93955135D03*
D38*
X181332506Y-95455135D03*
D33*
X-14697506Y-79805135D03*
D34*
X-14697506Y-81305135D03*
D35*
X-20297506Y-81305135D03*
D36*
X-20297506Y-79805135D03*
D20*
X83237500Y-121125135D03*
D21*
X82737500Y-124925135D03*
X77737500Y-127025135D03*
D22*
X77737500Y-121125135D03*
D21*
X72737500Y-124925135D03*
D20*
X72237500Y-121125135D03*
D23*
X74237500Y-127125135D03*
D24*
X86237500Y-124925135D03*
D37*
X194782506Y-92955135D03*
D35*
X194782506Y-91455135D03*
D34*
X200382506Y-91455135D03*
D38*
X200382506Y-92955135D03*
D29*
X150957500Y-51092635D03*
D33*
X61502494Y-93955134D03*
D34*
X61502494Y-95455134D03*
D35*
X55902494Y-95455134D03*
D36*
X55902494Y-93955134D03*
D82*
X97751526Y-156241097D03*
D83*
X95924963Y-155310416D03*
D84*
X92494588Y-153562553D03*
D16*
X90623474Y-152609173D03*
D20*
X-12012500Y-104475135D03*
D21*
X-12512500Y-108275135D03*
X-17512500Y-110375135D03*
D22*
X-17512500Y-104475135D03*
D21*
X-22512500Y-108275135D03*
D20*
X-23012500Y-104475135D03*
D23*
X-21012500Y-110475135D03*
D24*
X-9012500Y-108275135D03*
D37*
X251932506Y-81305135D03*
D35*
X251932506Y-79805135D03*
D34*
X257532506Y-79805135D03*
D38*
X257532506Y-81305135D03*
D39*
X5527000Y-133020135D03*
D40*
X3477000Y-133020135D03*
D41*
X-373000Y-133020135D03*
D16*
X-2473000Y-133020135D03*
D33*
X42452494Y-110505135D03*
D34*
X42452494Y-112005135D03*
D35*
X36852494Y-112005135D03*
D36*
X36852494Y-110505135D03*
D56*
X118625000Y-54000000D03*
D29*
X245222500Y-114000135D03*
D39*
X62365000Y-90046885D03*
D40*
X60315000Y-90046885D03*
D41*
X56465000Y-90046885D03*
D16*
X54365000Y-90046885D03*
D33*
X61502494Y-55855135D03*
D34*
X61502494Y-57355135D03*
D35*
X55902494Y-57355135D03*
D36*
X55902494Y-55855135D03*
D39*
X5559500Y-75985135D03*
D40*
X3509500Y-75985135D03*
D41*
X-340500Y-75985135D03*
D16*
X-2440500Y-75985135D03*
D85*
X134600000Y-105437500D03*
X136500000Y-105437500D03*
X135550000Y-103562500D03*
D20*
X45137500Y-58975136D03*
D21*
X44637500Y-62775136D03*
X39637500Y-64875136D03*
D22*
X39637500Y-58975136D03*
D21*
X34637500Y-62775136D03*
D20*
X34137500Y-58975136D03*
D23*
X36137500Y-64975136D03*
D24*
X48137500Y-62775136D03*
D39*
X81637501Y-111638135D03*
D40*
X79587501Y-111638135D03*
D41*
X75737501Y-111638135D03*
D16*
X73637501Y-111638135D03*
D39*
X102287501Y-127015135D03*
D40*
X100237501Y-127015135D03*
D41*
X96387501Y-127015135D03*
D16*
X94287501Y-127015135D03*
D20*
X7037500Y-123525135D03*
D21*
X6537500Y-127325135D03*
X1537500Y-129425135D03*
D22*
X1537500Y-123525135D03*
D21*
X-3462500Y-127325135D03*
D20*
X-3962500Y-123525135D03*
D23*
X-1962500Y-129525135D03*
D24*
X10037500Y-127325135D03*
D20*
X64187500Y-99575135D03*
D21*
X63687500Y-103375135D03*
X58687500Y-105475135D03*
D22*
X58687500Y-99575135D03*
D21*
X53687500Y-103375135D03*
D20*
X53187500Y-99575135D03*
D23*
X55187500Y-105575135D03*
D24*
X67187500Y-103375135D03*
D39*
X24609500Y-90135135D03*
D40*
X22559500Y-90135135D03*
D41*
X18709500Y-90135135D03*
D16*
X16609500Y-90135135D03*
D39*
X-13490500Y-75985135D03*
D40*
X-15540500Y-75985135D03*
D41*
X-19390500Y-75985135D03*
D16*
X-21490500Y-75985135D03*
D86*
X100622500Y-102975000D03*
X100622500Y-104875000D03*
X102497500Y-103925000D03*
D33*
X4352494Y-79805135D03*
D34*
X4352494Y-81305135D03*
D35*
X-1247506Y-81305135D03*
D36*
X-1247506Y-79805135D03*
D37*
X251932506Y-119405135D03*
D35*
X251932506Y-117905135D03*
D34*
X257532506Y-117905135D03*
D38*
X257532506Y-119405135D03*
D87*
X81846001Y-152913135D03*
D88*
X79865853Y-152382556D03*
D89*
X76147039Y-151386103D03*
D16*
X74118595Y-150842583D03*
D37*
X213832506Y-133555135D03*
D35*
X213832506Y-132055135D03*
D34*
X219432506Y-132055135D03*
D38*
X219432506Y-133555135D03*
D33*
X4352494Y-60755135D03*
D34*
X4352494Y-62255135D03*
D35*
X-1247506Y-62255135D03*
D36*
X-1247506Y-60755135D03*
D90*
X100497500Y-107575000D03*
X102572500Y-107575000D03*
D29*
X124596533Y-114975135D03*
D39*
X81637500Y-130688135D03*
D40*
X79587500Y-130688135D03*
D41*
X75737500Y-130688135D03*
D16*
X73637500Y-130688135D03*
D20*
X86000092Y-143798640D03*
D21*
X84533617Y-147339748D03*
X79160468Y-148074097D03*
D22*
X80687500Y-142375135D03*
D21*
X74874358Y-144751558D03*
D20*
X75374908Y-140951630D03*
D91*
X75753845Y-147264823D03*
D92*
X87914357Y-148245615D03*
D33*
X80552494Y-77405135D03*
D34*
X80552494Y-78905135D03*
D35*
X74952494Y-78905135D03*
D36*
X74952494Y-77405135D03*
D93*
X128825000Y-105050000D03*
X121825000Y-105050000D03*
X128825000Y-106800000D03*
X121825000Y-106800000D03*
D94*
X132125000Y-104700000D03*
D95*
X130625000Y-108900000D03*
D96*
X126625000Y-108900000D03*
X123625000Y-108900000D03*
D46*
X122525000Y-72065135D03*
X122525000Y-82225135D03*
X122525000Y-69525135D03*
X122525000Y-79685135D03*
X122525000Y-66985135D03*
X122525000Y-74605135D03*
D63*
X122525000Y-64445135D03*
X122525000Y-77145135D03*
D65*
X68212500Y-95345135D03*
X49162500Y-114395135D03*
X49162500Y-76295135D03*
X30112500Y-95345135D03*
D97*
X122640500Y-127635000D03*
D98*
X122640500Y-120015000D03*
D99*
X122640500Y-122555000D03*
X122640500Y-125095000D03*
X122640500Y-130175000D03*
D46*
X89440000Y-72065135D03*
X89440000Y-82225135D03*
X89440000Y-69525135D03*
X89440000Y-79685135D03*
X89440000Y-66985135D03*
X89440000Y-74605135D03*
D63*
X89440000Y-64445135D03*
X89440000Y-77145135D03*
D100*
X129117500Y-120045135D03*
D99*
X129117500Y-122585135D03*
X129117500Y-125125135D03*
X129117500Y-127665135D03*
X129117500Y-130205135D03*
D100*
X111367500Y-120045135D03*
D99*
X111367500Y-122585135D03*
X111367500Y-125125135D03*
X111367500Y-127665135D03*
X111367500Y-130205135D03*
D29*
X94697500Y-134505135D03*
D93*
X108397500Y-106795135D03*
X115397500Y-106795135D03*
X108397500Y-105045135D03*
X115397500Y-105045135D03*
D101*
X105097500Y-107145135D03*
D102*
X106597500Y-102945135D03*
D96*
X110597500Y-102945135D03*
X113597500Y-102945135D03*
D29*
X112638467Y-114975135D03*
D100*
X125867500Y-120045135D03*
D99*
X125867500Y-122585135D03*
X125867500Y-125125135D03*
X125867500Y-127665135D03*
X125867500Y-130205135D03*
D97*
X114594500Y-127640135D03*
D98*
X114594500Y-120020135D03*
D99*
X114594500Y-122560135D03*
X114594500Y-125100135D03*
X114594500Y-130180135D03*
D103*
X145320000Y-50500000D03*
X145320000Y-53040000D03*
D104*
X145320000Y-55580000D03*
D103*
X145320000Y-58120000D03*
X145320000Y-60660000D03*
X145320000Y-63200000D03*
X145320000Y-65740000D03*
D104*
X145320000Y-68280000D03*
D103*
X145320000Y-70820000D03*
X145320000Y-73360000D03*
X145320000Y-75900000D03*
X145320000Y-78440000D03*
D104*
X145320000Y-80980000D03*
D103*
X145320000Y-83520000D03*
X145320000Y-86060000D03*
X145320000Y-88600000D03*
X145320000Y-91140000D03*
D104*
X145320000Y-93680000D03*
D103*
X145320000Y-96220000D03*
X145320000Y-98760000D03*
X127540000Y-98760000D03*
X127540000Y-96220000D03*
D104*
X127540000Y-93680000D03*
D103*
X127540000Y-91140000D03*
X127540000Y-88600000D03*
X127540000Y-86060000D03*
X127540000Y-83520000D03*
D104*
X127540000Y-80980000D03*
D103*
X127540000Y-78440000D03*
X127540000Y-75900000D03*
X127540000Y-73360000D03*
X127540000Y-70820000D03*
D104*
X127540000Y-68280000D03*
D103*
X127540000Y-65740000D03*
X127540000Y-63200000D03*
X127540000Y-60660000D03*
X127540000Y-58120000D03*
D104*
X127540000Y-55580000D03*
D103*
X127540000Y-53040000D03*
X127540000Y-50500000D03*
D20*
X72237500Y-83025135D03*
D21*
X72737500Y-86825135D03*
D22*
X77737500Y-83025135D03*
D21*
X77737500Y-88925135D03*
X82737500Y-86825135D03*
D20*
X83237500Y-83025135D03*
D23*
X74237500Y-89025135D03*
D105*
X86237500Y-86825135D03*
D103*
X112235000Y-50500000D03*
X112235000Y-53040000D03*
D104*
X112235000Y-55580000D03*
D103*
X112235000Y-58120000D03*
X112235000Y-60660000D03*
X112235000Y-63200000D03*
X112235000Y-65740000D03*
D104*
X112235000Y-68280000D03*
D103*
X112235000Y-70820000D03*
X112235000Y-73360000D03*
X112235000Y-75900000D03*
X112235000Y-78440000D03*
D104*
X112235000Y-80980000D03*
D103*
X112235000Y-83520000D03*
X112235000Y-86060000D03*
X112235000Y-88600000D03*
X112235000Y-91140000D03*
D104*
X112235000Y-93680000D03*
D103*
X112235000Y-96220000D03*
X112235000Y-98760000D03*
X94455000Y-98760000D03*
X94455000Y-96220000D03*
D104*
X94455000Y-93680000D03*
D103*
X94455000Y-91140000D03*
X94455000Y-88600000D03*
X94455000Y-86060000D03*
X94455000Y-83520000D03*
D104*
X94455000Y-80980000D03*
D103*
X94455000Y-78440000D03*
X94455000Y-75900000D03*
X94455000Y-73360000D03*
X94455000Y-70820000D03*
D104*
X94455000Y-68280000D03*
D103*
X94455000Y-65740000D03*
X94455000Y-63200000D03*
X94455000Y-60660000D03*
X94455000Y-58120000D03*
D104*
X94455000Y-55580000D03*
D103*
X94455000Y-53040000D03*
X94455000Y-50500000D03*
D76*
X-18517500Y-58135135D03*
X-20517500Y-58135135D03*
X-25977500Y-58135135D03*
X-28517500Y-58135135D03*
D29*
X93147500Y-104565135D03*
D106*
X-25615000Y-62725000D03*
D100*
X108117500Y-120045135D03*
D99*
X108117500Y-122585135D03*
X108117500Y-125125135D03*
X108117500Y-127665135D03*
X108117500Y-130205135D03*
D29*
X86277500Y-51092635D03*
X68757500Y-111435135D03*
D107*
X98287500Y-112875135D03*
X98287500Y-124075135D03*
D108*
X90787500Y-120975135D03*
X90787500Y-115975135D03*
X90787500Y-118475135D03*
X105287500Y-115975135D03*
X105287500Y-120975135D03*
D46*
X114680000Y-92325135D03*
X114680000Y-94865135D03*
X114680000Y-97405135D03*
D47*
X114680000Y-99945135D03*
D29*
X-7987500Y-114000135D03*
D46*
X89377500Y-100025134D03*
X89377500Y-97485134D03*
X89377500Y-94945134D03*
D63*
X89377500Y-92405134D03*
D107*
X138950000Y-124075000D03*
X138950000Y-112875000D03*
D108*
X146450000Y-115975000D03*
X146450000Y-120975000D03*
X146450000Y-118475000D03*
X131950000Y-120975000D03*
X131950000Y-115975000D03*
D29*
X68847500Y-73485135D03*
X-8002500Y-75885135D03*
M02*
