%TF.GenerationSoftware,KiCad,Pcbnew,7.0.10*%
%TF.CreationDate,2024-03-02T14:12:03-05:00*%
%TF.ProjectId,Sofle_Chico_Panel,536f666c-655f-4436-9869-636f5f50616e,v3.5.4*%
%TF.SameCoordinates,Original*%
%TF.FileFunction,Soldermask,Bot*%
%TF.FilePolarity,Negative*%
%FSLAX46Y46*%
G04 Gerber Fmt 4.6, Leading zero omitted, Abs format (unit mm)*
G04 Created by KiCad (PCBNEW 7.0.10) date 2024-03-02 14:12:03*
%MOMM*%
%LPD*%
G01*
G04 APERTURE LIST*
G04 Aperture macros list*
%AMRoundRect*
0 Rectangle with rounded corners*
0 $1 Rounding radius*
0 $2 $3 $4 $5 $6 $7 $8 $9 X,Y pos of 4 corners*
0 Add a 4 corners polygon primitive as box body*
4,1,4,$2,$3,$4,$5,$6,$7,$8,$9,$2,$3,0*
0 Add four circle primitives for the rounded corners*
1,1,$1+$1,$2,$3*
1,1,$1+$1,$4,$5*
1,1,$1+$1,$6,$7*
1,1,$1+$1,$8,$9*
0 Add four rect primitives between the rounded corners*
20,1,$1+$1,$2,$3,$4,$5,0*
20,1,$1+$1,$4,$5,$6,$7,0*
20,1,$1+$1,$6,$7,$8,$9,0*
20,1,$1+$1,$8,$9,$2,$3,0*%
%AMFreePoly0*
4,1,76,-0.169095,1.445104,-0.160134,1.442192,-0.160487,1.441102,-0.133911,1.436156,-0.133902,1.436151,-0.122580,1.429991,-0.110321,1.426008,-0.088437,1.410109,-0.087890,1.411117,-0.079615,1.406615,-0.054810,1.387548,0.786025,0.500000,1.300000,0.500000,1.330900,0.495106,1.330902,0.495106,1.389681,0.476008,1.389684,0.476005,1.399134,0.469137,1.439679,0.439683,1.439683,0.439677,
1.448317,0.427791,1.476006,0.389685,1.476009,0.389677,1.480903,0.374613,1.495106,0.330906,1.495106,0.330902,1.500000,0.300000,1.500000,-1.250000,1.495106,-1.280902,1.476008,-1.339681,1.476005,-1.339684,1.466695,-1.352497,1.439683,-1.389679,1.439677,-1.389683,1.426863,-1.398992,1.389685,-1.426006,1.389677,-1.426009,1.374613,-1.430903,1.374612,-1.430902,1.330906,-1.445106,
1.330900,-1.445106,1.300000,-1.450000,-1.250000,-1.450000,-1.280900,-1.445106,-1.280902,-1.445106,-1.339681,-1.426008,-1.339684,-1.426005,-1.349134,-1.419137,-1.389679,-1.389683,-1.389683,-1.389677,-1.398992,-1.376863,-1.426006,-1.339685,-1.426009,-1.339677,-1.430903,-1.324613,-1.430902,-1.324612,-1.445106,-1.280906,-1.445106,-1.280902,-1.450000,-1.250000,-1.450000,1.250000,-1.445106,1.280902,
-1.440212,1.295964,-1.426008,1.339681,-1.426005,1.339684,-1.416695,1.352497,-1.389683,1.389679,-1.389677,1.389683,-1.376863,1.398992,-1.339685,1.426006,-1.339677,1.426009,-1.324613,1.430903,-1.324612,1.430902,-1.280906,1.445106,-1.280900,1.445106,-1.250000,1.450000,-0.200000,1.450000,-0.169095,1.445104,-0.169095,1.445104,$1*%
%AMFreePoly1*
4,1,35,0.686755,0.459039,0.733825,0.449676,0.751849,0.442210,0.791753,0.415547,0.805547,0.401753,0.832210,0.361849,0.839676,0.343825,0.849039,0.296755,0.850000,0.287000,0.850000,-0.082000,0.835355,-0.117355,0.507355,-0.445355,0.472000,-0.460000,-0.677000,-0.460000,-0.686755,-0.459039,-0.733825,-0.449676,-0.751849,-0.442210,-0.791753,-0.415547,-0.805547,-0.401753,-0.832210,-0.361849,
-0.839676,-0.343825,-0.849039,-0.296755,-0.850000,-0.287000,-0.850000,0.287000,-0.849039,0.296755,-0.839676,0.343825,-0.832210,0.361849,-0.805547,0.401753,-0.791753,0.415547,-0.751849,0.442210,-0.733825,0.449676,-0.686755,0.459039,-0.677000,0.460000,0.677000,0.460000,0.686755,0.459039,0.686755,0.459039,$1*%
%AMFreePoly2*
4,1,39,0.560355,0.785355,0.785355,0.560355,0.800000,0.525000,0.800000,-0.525000,0.785355,-0.560355,0.560355,-0.785355,0.525000,-0.800000,0.000000,-0.800000,-0.005082,-0.799741,-0.156745,-0.784246,-0.167390,-0.781967,-0.332691,-0.727193,-0.343213,-0.722287,-0.491426,-0.630868,-0.500532,-0.623667,-0.623667,-0.500532,-0.630868,-0.491426,-0.722287,-0.343213,-0.727193,-0.332691,-0.781967,-0.167390,
-0.784246,-0.156745,-0.799741,-0.005082,-0.799741,0.005082,-0.784246,0.156745,-0.781967,0.167390,-0.727193,0.332691,-0.722287,0.343213,-0.630868,0.491426,-0.623667,0.500532,-0.500532,0.623667,-0.491426,0.630868,-0.343213,0.722287,-0.332691,0.727193,-0.167390,0.781967,-0.156745,0.784246,-0.005082,0.799741,0.000000,0.800000,0.525000,0.800000,0.560355,0.785355,0.560355,0.785355,
$1*%
%AMFreePoly3*
4,1,14,-0.214645,0.785355,0.535355,0.035355,0.550000,0.000000,0.535355,-0.035355,-0.214645,-0.785355,-0.250000,-0.800000,-0.500000,-0.800000,-0.535355,-0.785355,-0.550000,-0.750000,-0.550000,0.750000,-0.535355,0.785355,-0.500000,0.800000,-0.250000,0.800000,-0.214645,0.785355,-0.214645,0.785355,$1*%
%AMFreePoly4*
4,1,16,0.295355,0.785355,0.310000,0.750000,0.310000,-0.750000,0.295355,-0.785355,0.260000,-0.800000,-0.990000,-0.800000,-1.025355,-0.785355,-1.040000,-0.750000,-1.025355,-0.714645,-0.310710,0.000000,-1.025355,0.714645,-1.040000,0.750000,-1.025355,0.785355,-0.990000,0.800000,0.260000,0.800000,0.295355,0.785355,0.295355,0.785355,$1*%
%AMFreePoly5*
4,1,39,0.005082,0.799741,0.156745,0.784246,0.167390,0.781967,0.332691,0.727193,0.343213,0.722287,0.491426,0.630868,0.500532,0.623667,0.623667,0.500532,0.630868,0.491426,0.722287,0.343213,0.727193,0.332691,0.781967,0.167390,0.784246,0.156745,0.799741,0.005082,0.799741,-0.005082,0.784246,-0.156745,0.781967,-0.167390,0.727193,-0.332691,0.722287,-0.343213,0.630868,-0.491426,
0.623667,-0.500532,0.500532,-0.623667,0.491426,-0.630868,0.343213,-0.722287,0.332691,-0.727193,0.167390,-0.781967,0.156745,-0.784246,0.005082,-0.799741,0.000000,-0.800000,-0.600000,-0.800000,-0.635355,-0.785355,-0.785355,-0.635355,-0.800000,-0.600000,-0.800000,0.600000,-0.785355,0.635355,-0.635355,0.785355,-0.600000,0.800000,0.000000,0.800000,0.005082,0.799741,0.005082,0.799741,
$1*%
%AMFreePoly6*
4,1,56,0.118133,1.292104,0.126817,1.290741,0.305186,1.246382,0.315334,1.242654,0.479998,1.160989,0.489108,1.155166,0.632366,1.040012,0.640012,1.032366,0.755166,0.889108,0.760989,0.879998,0.842654,0.715334,0.846382,0.705186,0.890741,0.526817,0.892104,0.518133,0.899885,0.403383,0.900000,0.400000,0.900000,-0.400000,0.885355,-0.435355,0.035355,-1.285355,0.000000,-1.300000,
-0.003383,-1.299885,-0.118133,-1.292104,-0.126817,-1.290741,-0.305186,-1.246382,-0.315334,-1.242654,-0.479998,-1.160989,-0.489108,-1.155166,-0.632366,-1.040012,-0.640012,-1.032366,-0.755166,-0.889108,-0.760989,-0.879998,-0.842654,-0.715334,-0.846382,-0.705186,-0.890741,-0.526817,-0.892104,-0.518133,-0.899885,-0.403383,-0.900000,-0.400000,-0.900000,0.400000,-0.899885,0.403383,-0.892104,0.518133,
-0.890741,0.526817,-0.846382,0.705186,-0.842654,0.715334,-0.760989,0.879998,-0.755166,0.889108,-0.640012,1.032366,-0.632366,1.040012,-0.489108,1.155166,-0.479998,1.160989,-0.315334,1.242654,-0.305186,1.246382,-0.126817,1.290741,-0.118133,1.292104,-0.003383,1.299885,0.003383,1.299885,0.118133,1.292104,0.118133,1.292104,$1*%
%AMFreePoly7*
4,1,56,0.032882,1.287666,0.035355,1.285355,0.885355,0.435355,0.900000,0.400000,0.900000,-0.400000,0.899885,-0.403383,0.892104,-0.518133,0.890741,-0.526817,0.846382,-0.705186,0.842654,-0.715334,0.760989,-0.879998,0.755166,-0.889108,0.640012,-1.032366,0.632366,-1.040012,0.489108,-1.155166,0.479998,-1.160989,0.315334,-1.242654,0.305186,-1.246382,0.126817,-1.290741,0.118133,-1.292104,
0.003383,-1.299885,-0.003383,-1.299885,-0.118133,-1.292104,-0.126817,-1.290741,-0.305186,-1.246382,-0.315334,-1.242654,-0.479998,-1.160989,-0.489108,-1.155166,-0.632366,-1.040012,-0.640012,-1.032366,-0.755166,-0.889108,-0.760989,-0.879998,-0.842654,-0.715334,-0.846382,-0.705186,-0.890741,-0.526817,-0.892104,-0.518133,-0.899885,-0.403383,-0.900000,-0.400000,-0.900000,0.400000,-0.899885,0.403383,
-0.892104,0.518133,-0.890741,0.526817,-0.846382,0.705186,-0.842654,0.715334,-0.760989,0.879998,-0.755166,0.889108,-0.640012,1.032366,-0.632366,1.040012,-0.489108,1.155166,-0.479998,1.160989,-0.315334,1.242654,-0.305186,1.246382,-0.126817,1.290741,-0.118133,1.292104,-0.003383,1.299885,0.032882,1.287666,0.032882,1.287666,$1*%
G04 Aperture macros list end*
%ADD10C,0.250000*%
%ADD11C,0.100000*%
%ADD12C,0.022619*%
%ADD13RoundRect,0.050000X-0.700000X-0.700000X0.700000X-0.700000X0.700000X0.700000X-0.700000X0.700000X0*%
%ADD14RoundRect,0.325000X-0.425000X-0.325000X0.425000X-0.325000X0.425000X0.325000X-0.425000X0.325000X0*%
%ADD15C,1.500000*%
%ADD16RoundRect,0.050000X-0.305911X-0.941498X0.941498X-0.305911X0.305911X0.941498X-0.941498X0.305911X0*%
%ADD17RoundRect,0.325000X-0.231131X-0.482523X0.526225X-0.096631X0.231131X0.482523X-0.526225X0.096631X0*%
%ADD18C,2.000000*%
%ADD19C,3.150000*%
%ADD20C,3.400000*%
%ADD21FreePoly0,0.000000*%
%ADD22RoundRect,0.260000X1.065000X1.040000X-1.065000X1.040000X-1.065000X-1.040000X1.065000X-1.040000X0*%
%ADD23FreePoly0,297.000000*%
%ADD24RoundRect,0.260000X1.410147X-0.476772X0.443147X1.421072X-1.410147X0.476772X-0.443147X-1.421072X0*%
%ADD25FreePoly0,15.000000*%
%ADD26RoundRect,0.260000X0.759539X1.280205X-1.297883X0.728921X-0.759539X-1.280205X1.297883X-0.728921X0*%
%ADD27C,4.800000*%
%ADD28RoundRect,0.050000X-0.494975X-0.857321X0.857321X-0.494975X0.494975X0.857321X-0.857321X0.494975X0*%
%ADD29RoundRect,0.325000X-0.326402X-0.423924X0.494635X-0.203928X0.326402X0.423924X-0.494635X0.203928X0*%
%ADD30FreePoly1,0.000000*%
%ADD31RoundRect,0.138000X0.712000X0.322000X-0.712000X0.322000X-0.712000X-0.322000X0.712000X-0.322000X0*%
%ADD32RoundRect,0.138000X-0.712000X-0.322000X0.712000X-0.322000X0.712000X0.322000X-0.712000X0.322000X0*%
%ADD33FreePoly1,180.000000*%
%ADD34RoundRect,0.050000X0.700000X0.700000X-0.700000X0.700000X-0.700000X-0.700000X0.700000X-0.700000X0*%
%ADD35RoundRect,0.325000X0.425000X0.325000X-0.425000X0.325000X-0.425000X-0.325000X0.425000X-0.325000X0*%
%ADD36FreePoly1,195.000000*%
%ADD37RoundRect,0.138000X-0.604399X-0.495307X0.771079X-0.126749X0.604399X0.495307X-0.771079X0.126749X0*%
%ADD38RoundRect,0.138000X0.604399X0.495307X-0.771079X0.126749X-0.604399X-0.495307X0.771079X-0.126749X0*%
%ADD39C,1.497000*%
%ADD40RoundRect,0.050000X0.698500X-0.698500X0.698500X0.698500X-0.698500X0.698500X-0.698500X-0.698500X0*%
%ADD41FreePoly1,117.000000*%
%ADD42RoundRect,0.138000X-0.610145X0.488212X0.036337X-0.780582X0.610145X-0.488212X-0.036337X0.780582X0*%
%ADD43RoundRect,0.138000X0.610145X-0.488212X-0.036337X0.780582X-0.610145X0.488212X0.036337X-0.780582X0*%
%ADD44RoundRect,0.050000X0.750000X-0.750000X0.750000X0.750000X-0.750000X0.750000X-0.750000X-0.750000X0*%
%ADD45RoundRect,0.325000X0.325000X-0.475000X0.325000X0.475000X-0.325000X0.475000X-0.325000X-0.475000X0*%
%ADD46RoundRect,0.325000X0.325000X-0.425000X0.325000X0.425000X-0.325000X0.425000X-0.325000X-0.425000X0*%
%ADD47O,1.600000X1.600000*%
%ADD48C,3.300000*%
%ADD49C,1.448000*%
%ADD50FreePoly2,180.000000*%
%ADD51FreePoly3,180.000000*%
%ADD52FreePoly4,180.000000*%
%ADD53FreePoly5,180.000000*%
%ADD54RoundRect,0.050000X-0.698500X0.698500X-0.698500X-0.698500X0.698500X-0.698500X0.698500X0.698500X0*%
%ADD55RoundRect,0.050000X-1.000000X-1.000000X1.000000X-1.000000X1.000000X1.000000X-1.000000X1.000000X0*%
%ADD56C,4.500000*%
%ADD57FreePoly0,63.000000*%
%ADD58RoundRect,0.260000X-0.443147X1.421072X-1.410147X-0.476772X0.443147X-1.421072X1.410147X0.476772X0*%
%ADD59FreePoly1,345.000000*%
%ADD60RoundRect,0.138000X0.771079X0.126749X-0.604399X0.495307X-0.771079X-0.126749X0.604399X-0.495307X0*%
%ADD61RoundRect,0.138000X-0.771079X-0.126749X0.604399X-0.495307X0.771079X0.126749X-0.604399X0.495307X0*%
%ADD62FreePoly1,63.000000*%
%ADD63RoundRect,0.138000X0.036337X0.780582X-0.610145X-0.488212X-0.036337X-0.780582X0.610145X0.488212X0*%
%ADD64RoundRect,0.138000X-0.036337X-0.780582X0.610145X0.488212X0.036337X0.780582X-0.610145X-0.488212X0*%
%ADD65C,0.900000*%
%ADD66FreePoly2,0.000000*%
%ADD67FreePoly3,0.000000*%
%ADD68FreePoly4,0.000000*%
%ADD69FreePoly5,0.000000*%
%ADD70RoundRect,0.050000X0.941498X0.305911X-0.305911X0.941498X-0.941498X-0.305911X0.305911X-0.941498X0*%
%ADD71RoundRect,0.325000X0.526225X0.096631X-0.231131X0.482523X-0.526225X-0.096631X0.231131X-0.482523X0*%
%ADD72RoundRect,0.050000X0.857321X0.494975X-0.494975X0.857321X-0.857321X-0.494975X0.494975X-0.857321X0*%
%ADD73RoundRect,0.325000X0.494635X0.203928X-0.326402X0.423924X-0.494635X-0.203928X0.326402X-0.423924X0*%
%ADD74FreePoly0,345.000000*%
%ADD75RoundRect,0.260000X1.297883X0.728921X-0.759539X1.280205X-1.297883X-0.728921X0.759539X-1.280205X0*%
%ADD76C,1.300000*%
%ADD77FreePoly6,270.000000*%
%ADD78FreePoly7,270.000000*%
%ADD79O,2.600000X1.800000*%
%ADD80C,1.100000*%
%ADD81RoundRect,0.050000X0.850000X0.850000X-0.850000X0.850000X-0.850000X-0.850000X0.850000X-0.850000X0*%
%ADD82O,1.800000X1.800000*%
%ADD83C,1.800000*%
%ADD84FreePoly6,90.000000*%
%ADD85FreePoly7,90.000000*%
%ADD86RoundRect,0.271277X-0.503723X0.366223X-0.503723X-0.366223X0.503723X-0.366223X0.503723X0.366223X0*%
%ADD87C,1.600000*%
%ADD88RoundRect,0.050000X0.750000X0.750000X-0.750000X0.750000X-0.750000X-0.750000X0.750000X-0.750000X0*%
%ADD89RoundRect,0.260000X-1.065000X-1.040000X1.065000X-1.040000X1.065000X1.040000X-1.065000X1.040000X0*%
%ADD90RoundRect,0.050000X1.000000X1.000000X-1.000000X1.000000X-1.000000X-1.000000X1.000000X-1.000000X0*%
%ADD91O,2.900000X1.600000*%
%ADD92C,2.100000*%
G04 APERTURE END LIST*
D10*
X49165900Y-148695000D02*
X104180626Y-164190565D01*
X115387116Y-47944999D02*
X30115901Y-47945000D01*
X207117300Y-47944235D02*
X264431143Y-55343234D01*
X104180630Y-164190552D02*
G75*
G03*
X105913019Y-163424736I395870J1446852D01*
G01*
X116724023Y-142207824D02*
G75*
G03*
X116887499Y-141500135I-1338523J681924D01*
G01*
X-28534099Y-133044999D02*
G75*
G03*
X-27628362Y-134422262I1499543J-301D01*
G01*
X120070701Y-141224370D02*
X117155701Y-141224370D01*
X120070701Y-49719619D02*
X117155701Y-49719619D01*
X131320198Y-163423962D02*
G75*
G03*
X133052575Y-164189800I1336502J680962D01*
G01*
X120345730Y-141499370D02*
G75*
G03*
X120070701Y-141224370I-274930J70D01*
G01*
X-27628362Y-134422262D02*
X11065901Y-148695000D01*
X133052575Y-164189800D02*
X188067300Y-148694235D01*
X116880681Y-49444619D02*
G75*
G03*
X117155701Y-49719619I274919J-81D01*
G01*
X-27197942Y-55343999D02*
G75*
G03*
X-28534099Y-56845000I174816J-1500826D01*
G01*
X-27197942Y-55343999D02*
X30115901Y-47945000D01*
X121846085Y-47944201D02*
G75*
G03*
X120345701Y-49444619I15J-1500399D01*
G01*
X11065901Y-148695000D02*
X49165900Y-148695000D01*
X120345680Y-141499370D02*
G75*
G03*
X120509189Y-142207053I1501420J-25830D01*
G01*
X-28534099Y-133044999D02*
X-28534099Y-56845000D01*
X264861551Y-134421470D02*
G75*
G03*
X265767300Y-133044235I-593951J1377070D01*
G01*
X226167300Y-148694235D02*
X264861563Y-134421497D01*
X207117300Y-47944235D02*
X121846085Y-47944235D01*
X265767315Y-56844235D02*
G75*
G03*
X264431143Y-55343235I-1511015J135D01*
G01*
X105913020Y-163424736D02*
X116724012Y-142207818D01*
X265767300Y-56844235D02*
X265767300Y-133044235D01*
X120509189Y-142207053D02*
X131320181Y-163423971D01*
X116887501Y-49445384D02*
G75*
G03*
X115387116Y-47944999I-1500501J-116D01*
G01*
X120070701Y-49719601D02*
G75*
G03*
X120345701Y-49444619I99J274901D01*
G01*
X117155701Y-141224401D02*
G75*
G03*
X116880701Y-141499370I-101J-274899D01*
G01*
X188067300Y-148694235D02*
X226167300Y-148694235D01*
D11*
X104777500Y-110595135D02*
X103587500Y-110595135D01*
X103587500Y-110595135D02*
X103587500Y-111995135D01*
X103587500Y-111995135D02*
X104777500Y-111995135D01*
X104777500Y-111995135D02*
X104777500Y-110595135D01*
G36*
X104777500Y-110595135D02*
G01*
X103587500Y-110595135D01*
X103587500Y-111995135D01*
X104777500Y-111995135D01*
X104777500Y-110595135D01*
G37*
X132445000Y-112000000D02*
X133635000Y-112000000D01*
X133635000Y-112000000D02*
X133635000Y-110600000D01*
X133635000Y-110600000D02*
X132445000Y-110600000D01*
X132445000Y-110600000D02*
X132445000Y-112000000D01*
G36*
X132445000Y-112000000D02*
G01*
X133635000Y-112000000D01*
X133635000Y-110600000D01*
X132445000Y-110600000D01*
X132445000Y-112000000D01*
G37*
D12*
X10579006Y-135712137D02*
X10578141Y-135732040D01*
X10576817Y-135751921D01*
X10575066Y-135771775D01*
X10570407Y-135811391D01*
X10564419Y-135850866D01*
X10557353Y-135890173D01*
X10549463Y-135929290D01*
X10541001Y-135968190D01*
X10523224Y-136035590D01*
X10503527Y-136104810D01*
X10481547Y-136174758D01*
X10456923Y-136244343D01*
X10443506Y-136278659D01*
X10429292Y-136312474D01*
X10414236Y-136345653D01*
X10398292Y-136378060D01*
X10381415Y-136409557D01*
X10363560Y-136440008D01*
X10344682Y-136469277D01*
X10324735Y-136497228D01*
X10324285Y-136545289D01*
X10321191Y-136594683D01*
X10315483Y-136645101D01*
X10307190Y-136696230D01*
X10296343Y-136747760D01*
X10282972Y-136799382D01*
X10267106Y-136850784D01*
X10248776Y-136901656D01*
X10228011Y-136951688D01*
X10204841Y-137000568D01*
X10179297Y-137047987D01*
X10151408Y-137093633D01*
X10121204Y-137137196D01*
X10088715Y-137178367D01*
X10053971Y-137216833D01*
X10017002Y-137252285D01*
X10000645Y-137308891D01*
X9982594Y-137362874D01*
X9962961Y-137414301D01*
X9941859Y-137463238D01*
X9919401Y-137509751D01*
X9895700Y-137553906D01*
X9870870Y-137595769D01*
X9845023Y-137635407D01*
X9818273Y-137672885D01*
X9790731Y-137708269D01*
X9762512Y-137741626D01*
X9733728Y-137773022D01*
X9674917Y-137830194D01*
X9615203Y-137880315D01*
X9555489Y-137923912D01*
X9496680Y-137961514D01*
X9439679Y-137993652D01*
X9385390Y-138020852D01*
X9334717Y-138043645D01*
X9288564Y-138062559D01*
X9213434Y-138090864D01*
X9189483Y-138137903D01*
X9161405Y-138182189D01*
X9129447Y-138223780D01*
X9093855Y-138262738D01*
X9054876Y-138299119D01*
X9012755Y-138332984D01*
X8967740Y-138364391D01*
X8920077Y-138393401D01*
X8870012Y-138420071D01*
X8817792Y-138444460D01*
X8763664Y-138466629D01*
X8707873Y-138486637D01*
X8592291Y-138520402D01*
X8473018Y-138546230D01*
X8352026Y-138564592D01*
X8231287Y-138575963D01*
X8112771Y-138580816D01*
X7998453Y-138579622D01*
X7890302Y-138572855D01*
X7790291Y-138560989D01*
X7700391Y-138544495D01*
X7622575Y-138523848D01*
X7532105Y-138483869D01*
X7446190Y-138442127D01*
X7364575Y-138398549D01*
X7287007Y-138353060D01*
X7213232Y-138305587D01*
X7142994Y-138256055D01*
X7076040Y-138204390D01*
X7012117Y-138150518D01*
X6950968Y-138094365D01*
X6892341Y-138035857D01*
X6835981Y-137974920D01*
X6781634Y-137911480D01*
X6729046Y-137845462D01*
X6677963Y-137776792D01*
X6628129Y-137705397D01*
X6579292Y-137631202D01*
X6537196Y-137606157D01*
X6496111Y-137579389D01*
X6456122Y-137550947D01*
X6417314Y-137520879D01*
X6379770Y-137489236D01*
X6343576Y-137456065D01*
X6308815Y-137421416D01*
X6275571Y-137385338D01*
X6243928Y-137347880D01*
X6213971Y-137309090D01*
X6185785Y-137269018D01*
X6159452Y-137227712D01*
X6135058Y-137185222D01*
X6112687Y-137141596D01*
X6092422Y-137096884D01*
X6074349Y-137051135D01*
X6042292Y-136934889D01*
X6018233Y-136820575D01*
X6001882Y-136708323D01*
X5995621Y-136631194D01*
X6457971Y-136631194D01*
X6462291Y-136698885D01*
X6472069Y-136765067D01*
X6487436Y-136829416D01*
X6508523Y-136891602D01*
X6535462Y-136951300D01*
X6568384Y-137008183D01*
X6607420Y-137061922D01*
X6652702Y-137112192D01*
X6704362Y-137158666D01*
X6762531Y-137201015D01*
X6827339Y-137238914D01*
X6948018Y-137142626D01*
X7071653Y-137049659D01*
X7198177Y-136959939D01*
X7327525Y-136873393D01*
X7459630Y-136789950D01*
X7594426Y-136709534D01*
X7731847Y-136632075D01*
X7871825Y-136557498D01*
X8014295Y-136485732D01*
X8159191Y-136416702D01*
X8306445Y-136350335D01*
X8455992Y-136286560D01*
X8607766Y-136225303D01*
X8761699Y-136166491D01*
X8917726Y-136110052D01*
X9075781Y-136055911D01*
X8688014Y-136258730D01*
X8341097Y-136451902D01*
X8033040Y-136635955D01*
X7761855Y-136811421D01*
X7525555Y-136978828D01*
X7419865Y-137059675D01*
X7322151Y-137138706D01*
X7232163Y-137215988D01*
X7149653Y-137291586D01*
X7074373Y-137365567D01*
X7006075Y-137437997D01*
X7062099Y-137520845D01*
X7119002Y-137597548D01*
X7176695Y-137668287D01*
X7235092Y-137733244D01*
X7294107Y-137792600D01*
X7353652Y-137846537D01*
X7413640Y-137895236D01*
X7473984Y-137938880D01*
X7534598Y-137977649D01*
X7595395Y-138011725D01*
X7656287Y-138041290D01*
X7717188Y-138066525D01*
X7778011Y-138087612D01*
X7838669Y-138104733D01*
X7899075Y-138118069D01*
X7959141Y-138127802D01*
X8018782Y-138134113D01*
X8077910Y-138137183D01*
X8136439Y-138137196D01*
X8194281Y-138134331D01*
X8307557Y-138120697D01*
X8417043Y-138097734D01*
X8522045Y-138066895D01*
X8621867Y-138029633D01*
X8715812Y-137987400D01*
X8803188Y-137941648D01*
X8746123Y-137923140D01*
X8699376Y-137905541D01*
X8662425Y-137888749D01*
X8634746Y-137872660D01*
X8615818Y-137857172D01*
X8605118Y-137842182D01*
X8602123Y-137827587D01*
X8606312Y-137813285D01*
X8617162Y-137799172D01*
X8634150Y-137785146D01*
X8656755Y-137771104D01*
X8684453Y-137756944D01*
X8753041Y-137727855D01*
X8835734Y-137697057D01*
X9026723Y-137627045D01*
X9126660Y-137586186D01*
X9223985Y-137540328D01*
X9270363Y-137515267D01*
X9314521Y-137488649D01*
X9355937Y-137460369D01*
X9394088Y-137430326D01*
X9428452Y-137398417D01*
X9458506Y-137364538D01*
X9483729Y-137328587D01*
X9503597Y-137290461D01*
X9386344Y-137292943D01*
X9305473Y-137291199D01*
X9277469Y-137288609D01*
X9257107Y-137284803D01*
X9243902Y-137279728D01*
X9237369Y-137273331D01*
X9237024Y-137265560D01*
X9242382Y-137256360D01*
X9252959Y-137245680D01*
X9268270Y-137233466D01*
X9367161Y-137168212D01*
X9432410Y-137125004D01*
X9503026Y-137074177D01*
X9575131Y-137015307D01*
X9610531Y-136982723D01*
X9644849Y-136947969D01*
X9677602Y-136910992D01*
X9708304Y-136871740D01*
X9736470Y-136830159D01*
X9761616Y-136786196D01*
X9783259Y-136739798D01*
X9800911Y-136690912D01*
X9814091Y-136639486D01*
X9822311Y-136585465D01*
X9732447Y-136578421D01*
X9698702Y-136573351D01*
X9671884Y-136567169D01*
X9651594Y-136559814D01*
X9637435Y-136551228D01*
X9629006Y-136541349D01*
X9625911Y-136530118D01*
X9627749Y-136517475D01*
X9634124Y-136503360D01*
X9644636Y-136487712D01*
X9658886Y-136470472D01*
X9697010Y-136430975D01*
X9745306Y-136384388D01*
X9800587Y-136330231D01*
X9859664Y-136268023D01*
X9919350Y-136197285D01*
X9948424Y-136158567D01*
X9976455Y-136117536D01*
X10003045Y-136074133D01*
X10027793Y-136028296D01*
X10050303Y-135979967D01*
X10070175Y-135929085D01*
X10087011Y-135875590D01*
X10100412Y-135819422D01*
X10109980Y-135760521D01*
X10115317Y-135698827D01*
X10053084Y-135657162D01*
X9990647Y-135621138D01*
X9928227Y-135590387D01*
X9866046Y-135564539D01*
X9804325Y-135543224D01*
X9743287Y-135526073D01*
X9683153Y-135512716D01*
X9624144Y-135502785D01*
X9510389Y-135491721D01*
X9403795Y-135489926D01*
X9306135Y-135494444D01*
X9219183Y-135502319D01*
X9084491Y-135516324D01*
X9040297Y-135516544D01*
X9024764Y-135513665D01*
X9013902Y-135508300D01*
X9007934Y-135500082D01*
X9007080Y-135488640D01*
X9011562Y-135473604D01*
X9021602Y-135454606D01*
X9059242Y-135403245D01*
X9121773Y-135331601D01*
X9073815Y-135316786D01*
X9025386Y-135306302D01*
X8976663Y-135299794D01*
X8927823Y-135296908D01*
X8879042Y-135297289D01*
X8830499Y-135300583D01*
X8782369Y-135306435D01*
X8734829Y-135314492D01*
X8642230Y-135335797D01*
X8554116Y-135361665D01*
X8397007Y-135415739D01*
X8330842Y-135438275D01*
X8274824Y-135454029D01*
X8251062Y-135458476D01*
X8230368Y-135460163D01*
X8212918Y-135458738D01*
X8198890Y-135453844D01*
X8188460Y-135445128D01*
X8181806Y-135432234D01*
X8179103Y-135414809D01*
X8180530Y-135392498D01*
X8186262Y-135364947D01*
X8196478Y-135331800D01*
X8231065Y-135247304D01*
X8221155Y-135244302D01*
X8211224Y-135241658D01*
X8201274Y-135239365D01*
X8191310Y-135237417D01*
X8181332Y-135235810D01*
X8171346Y-135234535D01*
X8161352Y-135233589D01*
X8151354Y-135232964D01*
X8113832Y-135233349D01*
X8076318Y-135237759D01*
X8038900Y-135245832D01*
X8001667Y-135257203D01*
X7964709Y-135271510D01*
X7928113Y-135288390D01*
X7891969Y-135307479D01*
X7856365Y-135328414D01*
X7787136Y-135374372D01*
X7721136Y-135423357D01*
X7601666Y-135518792D01*
X7549619Y-135559431D01*
X7503644Y-135591477D01*
X7483156Y-135603371D01*
X7464452Y-135612027D01*
X7447623Y-135617082D01*
X7432756Y-135618174D01*
X7419940Y-135614939D01*
X7409265Y-135607014D01*
X7400818Y-135594036D01*
X7394690Y-135575641D01*
X7390969Y-135551467D01*
X7389743Y-135521151D01*
X7391102Y-135484329D01*
X7395134Y-135440639D01*
X7315210Y-135464442D01*
X7237982Y-135493605D01*
X7163584Y-135527802D01*
X7092146Y-135566705D01*
X7023800Y-135609987D01*
X6958676Y-135657321D01*
X6896907Y-135708380D01*
X6838625Y-135762837D01*
X6783959Y-135820365D01*
X6733043Y-135880637D01*
X6686006Y-135943325D01*
X6642982Y-136008104D01*
X6604100Y-136074645D01*
X6569493Y-136142623D01*
X6539292Y-136211709D01*
X6513628Y-136281576D01*
X6492633Y-136351899D01*
X6476439Y-136422349D01*
X6465176Y-136492599D01*
X6458976Y-136562324D01*
X6457971Y-136631194D01*
X5995621Y-136631194D01*
X5992948Y-136598261D01*
X5991142Y-136490517D01*
X5996172Y-136385220D01*
X6007750Y-136282499D01*
X6025585Y-136182481D01*
X6049386Y-136085296D01*
X6078864Y-135991073D01*
X6113728Y-135899939D01*
X6153689Y-135812024D01*
X6198455Y-135727456D01*
X6247738Y-135646364D01*
X6301246Y-135568876D01*
X6358690Y-135495120D01*
X6419779Y-135425226D01*
X6484223Y-135359322D01*
X6551733Y-135297536D01*
X6622017Y-135239998D01*
X6694787Y-135186835D01*
X6769751Y-135138177D01*
X6846619Y-135094152D01*
X6925102Y-135054888D01*
X7004909Y-135020514D01*
X7085750Y-134991159D01*
X7167334Y-134966951D01*
X7249373Y-134948019D01*
X7331575Y-134934491D01*
X7413650Y-134926497D01*
X7495308Y-134924164D01*
X7576260Y-134927621D01*
X7613588Y-134912538D01*
X7651387Y-134898588D01*
X7689611Y-134885754D01*
X7728211Y-134874021D01*
X7767141Y-134863373D01*
X7806354Y-134853794D01*
X7845802Y-134845268D01*
X7885437Y-134837781D01*
X7925213Y-134831315D01*
X7965083Y-134825856D01*
X8004998Y-134821387D01*
X8044913Y-134817893D01*
X8084778Y-134815358D01*
X8124548Y-134813767D01*
X8164175Y-134813103D01*
X8203612Y-134813351D01*
X8250618Y-134814831D01*
X8297200Y-134817573D01*
X8343276Y-134821552D01*
X8388765Y-134826738D01*
X8433585Y-134833106D01*
X8477655Y-134840627D01*
X8520892Y-134849274D01*
X8563215Y-134859020D01*
X8602558Y-134850420D01*
X8643571Y-134843321D01*
X8686009Y-134837699D01*
X8729626Y-134833532D01*
X8774175Y-134830795D01*
X8819410Y-134829466D01*
X8865085Y-134829521D01*
X8910954Y-134830936D01*
X8956772Y-134833688D01*
X9002290Y-134837753D01*
X9047265Y-134843108D01*
X9091449Y-134849730D01*
X9134596Y-134857594D01*
X9176460Y-134866678D01*
X9216796Y-134876959D01*
X9255356Y-134888411D01*
X9281638Y-134898190D01*
X9307747Y-134907273D01*
X9359368Y-134923904D01*
X9459675Y-134954894D01*
X9508047Y-134971464D01*
X9531719Y-134980500D01*
X9555023Y-134990222D01*
X9577938Y-135000767D01*
X9600445Y-135012274D01*
X9622524Y-135024881D01*
X9644157Y-135038725D01*
X9698333Y-135045982D01*
X9752277Y-135055042D01*
X9805920Y-135065896D01*
X9859189Y-135078540D01*
X9912013Y-135092966D01*
X9964321Y-135109169D01*
X10016042Y-135127143D01*
X10067104Y-135146880D01*
X10117436Y-135168374D01*
X10166967Y-135191620D01*
X10215625Y-135216611D01*
X10263340Y-135243340D01*
X10310039Y-135271802D01*
X10355652Y-135301989D01*
X10400107Y-135333896D01*
X10443333Y-135367516D01*
X10458426Y-135381164D01*
X10472724Y-135395585D01*
X10486208Y-135410732D01*
X10498858Y-135426559D01*
X10510656Y-135443018D01*
X10521580Y-135460062D01*
X10531613Y-135477644D01*
X10540733Y-135495717D01*
X10548923Y-135514234D01*
X10556161Y-135533147D01*
X10562430Y-135552410D01*
X10567708Y-135571975D01*
X10571977Y-135591796D01*
X10575217Y-135611825D01*
X10577408Y-135632014D01*
X10578531Y-135652318D01*
X10579233Y-135672273D01*
X10579381Y-135692213D01*
X10579256Y-135698827D01*
X10579006Y-135712137D01*
G36*
X10579006Y-135712137D02*
G01*
X10578141Y-135732040D01*
X10576817Y-135751921D01*
X10575066Y-135771775D01*
X10570407Y-135811391D01*
X10564419Y-135850866D01*
X10557353Y-135890173D01*
X10549463Y-135929290D01*
X10541001Y-135968190D01*
X10523224Y-136035590D01*
X10503527Y-136104810D01*
X10481547Y-136174758D01*
X10456923Y-136244343D01*
X10443506Y-136278659D01*
X10429292Y-136312474D01*
X10414236Y-136345653D01*
X10398292Y-136378060D01*
X10381415Y-136409557D01*
X10363560Y-136440008D01*
X10344682Y-136469277D01*
X10324735Y-136497228D01*
X10324285Y-136545289D01*
X10321191Y-136594683D01*
X10315483Y-136645101D01*
X10307190Y-136696230D01*
X10296343Y-136747760D01*
X10282972Y-136799382D01*
X10267106Y-136850784D01*
X10248776Y-136901656D01*
X10228011Y-136951688D01*
X10204841Y-137000568D01*
X10179297Y-137047987D01*
X10151408Y-137093633D01*
X10121204Y-137137196D01*
X10088715Y-137178367D01*
X10053971Y-137216833D01*
X10017002Y-137252285D01*
X10000645Y-137308891D01*
X9982594Y-137362874D01*
X9962961Y-137414301D01*
X9941859Y-137463238D01*
X9919401Y-137509751D01*
X9895700Y-137553906D01*
X9870870Y-137595769D01*
X9845023Y-137635407D01*
X9818273Y-137672885D01*
X9790731Y-137708269D01*
X9762512Y-137741626D01*
X9733728Y-137773022D01*
X9674917Y-137830194D01*
X9615203Y-137880315D01*
X9555489Y-137923912D01*
X9496680Y-137961514D01*
X9439679Y-137993652D01*
X9385390Y-138020852D01*
X9334717Y-138043645D01*
X9288564Y-138062559D01*
X9213434Y-138090864D01*
X9189483Y-138137903D01*
X9161405Y-138182189D01*
X9129447Y-138223780D01*
X9093855Y-138262738D01*
X9054876Y-138299119D01*
X9012755Y-138332984D01*
X8967740Y-138364391D01*
X8920077Y-138393401D01*
X8870012Y-138420071D01*
X8817792Y-138444460D01*
X8763664Y-138466629D01*
X8707873Y-138486637D01*
X8592291Y-138520402D01*
X8473018Y-138546230D01*
X8352026Y-138564592D01*
X8231287Y-138575963D01*
X8112771Y-138580816D01*
X7998453Y-138579622D01*
X7890302Y-138572855D01*
X7790291Y-138560989D01*
X7700391Y-138544495D01*
X7622575Y-138523848D01*
X7532105Y-138483869D01*
X7446190Y-138442127D01*
X7364575Y-138398549D01*
X7287007Y-138353060D01*
X7213232Y-138305587D01*
X7142994Y-138256055D01*
X7076040Y-138204390D01*
X7012117Y-138150518D01*
X6950968Y-138094365D01*
X6892341Y-138035857D01*
X6835981Y-137974920D01*
X6781634Y-137911480D01*
X6729046Y-137845462D01*
X6677963Y-137776792D01*
X6628129Y-137705397D01*
X6579292Y-137631202D01*
X6537196Y-137606157D01*
X6496111Y-137579389D01*
X6456122Y-137550947D01*
X6417314Y-137520879D01*
X6379770Y-137489236D01*
X6343576Y-137456065D01*
X6308815Y-137421416D01*
X6275571Y-137385338D01*
X6243928Y-137347880D01*
X6213971Y-137309090D01*
X6185785Y-137269018D01*
X6159452Y-137227712D01*
X6135058Y-137185222D01*
X6112687Y-137141596D01*
X6092422Y-137096884D01*
X6074349Y-137051135D01*
X6042292Y-136934889D01*
X6018233Y-136820575D01*
X6001882Y-136708323D01*
X5995621Y-136631194D01*
X6457971Y-136631194D01*
X6462291Y-136698885D01*
X6472069Y-136765067D01*
X6487436Y-136829416D01*
X6508523Y-136891602D01*
X6535462Y-136951300D01*
X6568384Y-137008183D01*
X6607420Y-137061922D01*
X6652702Y-137112192D01*
X6704362Y-137158666D01*
X6762531Y-137201015D01*
X6827339Y-137238914D01*
X6948018Y-137142626D01*
X7071653Y-137049659D01*
X7198177Y-136959939D01*
X7327525Y-136873393D01*
X7459630Y-136789950D01*
X7594426Y-136709534D01*
X7731847Y-136632075D01*
X7871825Y-136557498D01*
X8014295Y-136485732D01*
X8159191Y-136416702D01*
X8306445Y-136350335D01*
X8455992Y-136286560D01*
X8607766Y-136225303D01*
X8761699Y-136166491D01*
X8917726Y-136110052D01*
X9075781Y-136055911D01*
X8688014Y-136258730D01*
X8341097Y-136451902D01*
X8033040Y-136635955D01*
X7761855Y-136811421D01*
X7525555Y-136978828D01*
X7419865Y-137059675D01*
X7322151Y-137138706D01*
X7232163Y-137215988D01*
X7149653Y-137291586D01*
X7074373Y-137365567D01*
X7006075Y-137437997D01*
X7062099Y-137520845D01*
X7119002Y-137597548D01*
X7176695Y-137668287D01*
X7235092Y-137733244D01*
X7294107Y-137792600D01*
X7353652Y-137846537D01*
X7413640Y-137895236D01*
X7473984Y-137938880D01*
X7534598Y-137977649D01*
X7595395Y-138011725D01*
X7656287Y-138041290D01*
X7717188Y-138066525D01*
X7778011Y-138087612D01*
X7838669Y-138104733D01*
X7899075Y-138118069D01*
X7959141Y-138127802D01*
X8018782Y-138134113D01*
X8077910Y-138137183D01*
X8136439Y-138137196D01*
X8194281Y-138134331D01*
X8307557Y-138120697D01*
X8417043Y-138097734D01*
X8522045Y-138066895D01*
X8621867Y-138029633D01*
X8715812Y-137987400D01*
X8803188Y-137941648D01*
X8746123Y-137923140D01*
X8699376Y-137905541D01*
X8662425Y-137888749D01*
X8634746Y-137872660D01*
X8615818Y-137857172D01*
X8605118Y-137842182D01*
X8602123Y-137827587D01*
X8606312Y-137813285D01*
X8617162Y-137799172D01*
X8634150Y-137785146D01*
X8656755Y-137771104D01*
X8684453Y-137756944D01*
X8753041Y-137727855D01*
X8835734Y-137697057D01*
X9026723Y-137627045D01*
X9126660Y-137586186D01*
X9223985Y-137540328D01*
X9270363Y-137515267D01*
X9314521Y-137488649D01*
X9355937Y-137460369D01*
X9394088Y-137430326D01*
X9428452Y-137398417D01*
X9458506Y-137364538D01*
X9483729Y-137328587D01*
X9503597Y-137290461D01*
X9386344Y-137292943D01*
X9305473Y-137291199D01*
X9277469Y-137288609D01*
X9257107Y-137284803D01*
X9243902Y-137279728D01*
X9237369Y-137273331D01*
X9237024Y-137265560D01*
X9242382Y-137256360D01*
X9252959Y-137245680D01*
X9268270Y-137233466D01*
X9367161Y-137168212D01*
X9432410Y-137125004D01*
X9503026Y-137074177D01*
X9575131Y-137015307D01*
X9610531Y-136982723D01*
X9644849Y-136947969D01*
X9677602Y-136910992D01*
X9708304Y-136871740D01*
X9736470Y-136830159D01*
X9761616Y-136786196D01*
X9783259Y-136739798D01*
X9800911Y-136690912D01*
X9814091Y-136639486D01*
X9822311Y-136585465D01*
X9732447Y-136578421D01*
X9698702Y-136573351D01*
X9671884Y-136567169D01*
X9651594Y-136559814D01*
X9637435Y-136551228D01*
X9629006Y-136541349D01*
X9625911Y-136530118D01*
X9627749Y-136517475D01*
X9634124Y-136503360D01*
X9644636Y-136487712D01*
X9658886Y-136470472D01*
X9697010Y-136430975D01*
X9745306Y-136384388D01*
X9800587Y-136330231D01*
X9859664Y-136268023D01*
X9919350Y-136197285D01*
X9948424Y-136158567D01*
X9976455Y-136117536D01*
X10003045Y-136074133D01*
X10027793Y-136028296D01*
X10050303Y-135979967D01*
X10070175Y-135929085D01*
X10087011Y-135875590D01*
X10100412Y-135819422D01*
X10109980Y-135760521D01*
X10115317Y-135698827D01*
X10053084Y-135657162D01*
X9990647Y-135621138D01*
X9928227Y-135590387D01*
X9866046Y-135564539D01*
X9804325Y-135543224D01*
X9743287Y-135526073D01*
X9683153Y-135512716D01*
X9624144Y-135502785D01*
X9510389Y-135491721D01*
X9403795Y-135489926D01*
X9306135Y-135494444D01*
X9219183Y-135502319D01*
X9084491Y-135516324D01*
X9040297Y-135516544D01*
X9024764Y-135513665D01*
X9013902Y-135508300D01*
X9007934Y-135500082D01*
X9007080Y-135488640D01*
X9011562Y-135473604D01*
X9021602Y-135454606D01*
X9059242Y-135403245D01*
X9121773Y-135331601D01*
X9073815Y-135316786D01*
X9025386Y-135306302D01*
X8976663Y-135299794D01*
X8927823Y-135296908D01*
X8879042Y-135297289D01*
X8830499Y-135300583D01*
X8782369Y-135306435D01*
X8734829Y-135314492D01*
X8642230Y-135335797D01*
X8554116Y-135361665D01*
X8397007Y-135415739D01*
X8330842Y-135438275D01*
X8274824Y-135454029D01*
X8251062Y-135458476D01*
X8230368Y-135460163D01*
X8212918Y-135458738D01*
X8198890Y-135453844D01*
X8188460Y-135445128D01*
X8181806Y-135432234D01*
X8179103Y-135414809D01*
X8180530Y-135392498D01*
X8186262Y-135364947D01*
X8196478Y-135331800D01*
X8231065Y-135247304D01*
X8221155Y-135244302D01*
X8211224Y-135241658D01*
X8201274Y-135239365D01*
X8191310Y-135237417D01*
X8181332Y-135235810D01*
X8171346Y-135234535D01*
X8161352Y-135233589D01*
X8151354Y-135232964D01*
X8113832Y-135233349D01*
X8076318Y-135237759D01*
X8038900Y-135245832D01*
X8001667Y-135257203D01*
X7964709Y-135271510D01*
X7928113Y-135288390D01*
X7891969Y-135307479D01*
X7856365Y-135328414D01*
X7787136Y-135374372D01*
X7721136Y-135423357D01*
X7601666Y-135518792D01*
X7549619Y-135559431D01*
X7503644Y-135591477D01*
X7483156Y-135603371D01*
X7464452Y-135612027D01*
X7447623Y-135617082D01*
X7432756Y-135618174D01*
X7419940Y-135614939D01*
X7409265Y-135607014D01*
X7400818Y-135594036D01*
X7394690Y-135575641D01*
X7390969Y-135551467D01*
X7389743Y-135521151D01*
X7391102Y-135484329D01*
X7395134Y-135440639D01*
X7315210Y-135464442D01*
X7237982Y-135493605D01*
X7163584Y-135527802D01*
X7092146Y-135566705D01*
X7023800Y-135609987D01*
X6958676Y-135657321D01*
X6896907Y-135708380D01*
X6838625Y-135762837D01*
X6783959Y-135820365D01*
X6733043Y-135880637D01*
X6686006Y-135943325D01*
X6642982Y-136008104D01*
X6604100Y-136074645D01*
X6569493Y-136142623D01*
X6539292Y-136211709D01*
X6513628Y-136281576D01*
X6492633Y-136351899D01*
X6476439Y-136422349D01*
X6465176Y-136492599D01*
X6458976Y-136562324D01*
X6457971Y-136631194D01*
X5995621Y-136631194D01*
X5992948Y-136598261D01*
X5991142Y-136490517D01*
X5996172Y-136385220D01*
X6007750Y-136282499D01*
X6025585Y-136182481D01*
X6049386Y-136085296D01*
X6078864Y-135991073D01*
X6113728Y-135899939D01*
X6153689Y-135812024D01*
X6198455Y-135727456D01*
X6247738Y-135646364D01*
X6301246Y-135568876D01*
X6358690Y-135495120D01*
X6419779Y-135425226D01*
X6484223Y-135359322D01*
X6551733Y-135297536D01*
X6622017Y-135239998D01*
X6694787Y-135186835D01*
X6769751Y-135138177D01*
X6846619Y-135094152D01*
X6925102Y-135054888D01*
X7004909Y-135020514D01*
X7085750Y-134991159D01*
X7167334Y-134966951D01*
X7249373Y-134948019D01*
X7331575Y-134934491D01*
X7413650Y-134926497D01*
X7495308Y-134924164D01*
X7576260Y-134927621D01*
X7613588Y-134912538D01*
X7651387Y-134898588D01*
X7689611Y-134885754D01*
X7728211Y-134874021D01*
X7767141Y-134863373D01*
X7806354Y-134853794D01*
X7845802Y-134845268D01*
X7885437Y-134837781D01*
X7925213Y-134831315D01*
X7965083Y-134825856D01*
X8004998Y-134821387D01*
X8044913Y-134817893D01*
X8084778Y-134815358D01*
X8124548Y-134813767D01*
X8164175Y-134813103D01*
X8203612Y-134813351D01*
X8250618Y-134814831D01*
X8297200Y-134817573D01*
X8343276Y-134821552D01*
X8388765Y-134826738D01*
X8433585Y-134833106D01*
X8477655Y-134840627D01*
X8520892Y-134849274D01*
X8563215Y-134859020D01*
X8602558Y-134850420D01*
X8643571Y-134843321D01*
X8686009Y-134837699D01*
X8729626Y-134833532D01*
X8774175Y-134830795D01*
X8819410Y-134829466D01*
X8865085Y-134829521D01*
X8910954Y-134830936D01*
X8956772Y-134833688D01*
X9002290Y-134837753D01*
X9047265Y-134843108D01*
X9091449Y-134849730D01*
X9134596Y-134857594D01*
X9176460Y-134866678D01*
X9216796Y-134876959D01*
X9255356Y-134888411D01*
X9281638Y-134898190D01*
X9307747Y-134907273D01*
X9359368Y-134923904D01*
X9459675Y-134954894D01*
X9508047Y-134971464D01*
X9531719Y-134980500D01*
X9555023Y-134990222D01*
X9577938Y-135000767D01*
X9600445Y-135012274D01*
X9622524Y-135024881D01*
X9644157Y-135038725D01*
X9698333Y-135045982D01*
X9752277Y-135055042D01*
X9805920Y-135065896D01*
X9859189Y-135078540D01*
X9912013Y-135092966D01*
X9964321Y-135109169D01*
X10016042Y-135127143D01*
X10067104Y-135146880D01*
X10117436Y-135168374D01*
X10166967Y-135191620D01*
X10215625Y-135216611D01*
X10263340Y-135243340D01*
X10310039Y-135271802D01*
X10355652Y-135301989D01*
X10400107Y-135333896D01*
X10443333Y-135367516D01*
X10458426Y-135381164D01*
X10472724Y-135395585D01*
X10486208Y-135410732D01*
X10498858Y-135426559D01*
X10510656Y-135443018D01*
X10521580Y-135460062D01*
X10531613Y-135477644D01*
X10540733Y-135495717D01*
X10548923Y-135514234D01*
X10556161Y-135533147D01*
X10562430Y-135552410D01*
X10567708Y-135571975D01*
X10571977Y-135591796D01*
X10575217Y-135611825D01*
X10577408Y-135632014D01*
X10578531Y-135652318D01*
X10579233Y-135672273D01*
X10579381Y-135692213D01*
X10579256Y-135698827D01*
X10579006Y-135712137D01*
G37*
X3473117Y-136708323D02*
X3456766Y-136820575D01*
X3432707Y-136934889D01*
X3400650Y-137051135D01*
X3382577Y-137096884D01*
X3362312Y-137141596D01*
X3339941Y-137185222D01*
X3315547Y-137227712D01*
X3289214Y-137269018D01*
X3261028Y-137309090D01*
X3231071Y-137347880D01*
X3199429Y-137385338D01*
X3166185Y-137421416D01*
X3131423Y-137456065D01*
X3095229Y-137489236D01*
X3057685Y-137520879D01*
X3018877Y-137550947D01*
X2978889Y-137579389D01*
X2937804Y-137606157D01*
X2895707Y-137631202D01*
X2846870Y-137705397D01*
X2797037Y-137776792D01*
X2745953Y-137845462D01*
X2693365Y-137911480D01*
X2639018Y-137974920D01*
X2582658Y-138035857D01*
X2524031Y-138094365D01*
X2462883Y-138150518D01*
X2398959Y-138204390D01*
X2332005Y-138256055D01*
X2261767Y-138305587D01*
X2187992Y-138353060D01*
X2110424Y-138398549D01*
X2028809Y-138442127D01*
X1942894Y-138483869D01*
X1852424Y-138523848D01*
X1774608Y-138544495D01*
X1684708Y-138560989D01*
X1584697Y-138572855D01*
X1476546Y-138579622D01*
X1362227Y-138580816D01*
X1243712Y-138575963D01*
X1122973Y-138564592D01*
X1001981Y-138546230D01*
X882708Y-138520402D01*
X767126Y-138486636D01*
X711335Y-138466629D01*
X657207Y-138444460D01*
X604987Y-138420070D01*
X554922Y-138393400D01*
X507259Y-138364391D01*
X462244Y-138332984D01*
X420123Y-138299119D01*
X381144Y-138262737D01*
X345552Y-138223780D01*
X313593Y-138182189D01*
X285516Y-138137903D01*
X261565Y-138090864D01*
X186434Y-138062559D01*
X140281Y-138043645D01*
X89609Y-138020852D01*
X35320Y-137993652D01*
X-21681Y-137961514D01*
X-80490Y-137923912D01*
X-140204Y-137880315D01*
X-199918Y-137830194D01*
X-258729Y-137773022D01*
X-287513Y-137741626D01*
X-315732Y-137708269D01*
X-343274Y-137672885D01*
X-370024Y-137635407D01*
X-395871Y-137595769D01*
X-420701Y-137553906D01*
X-444402Y-137509751D01*
X-466859Y-137463238D01*
X-487961Y-137414301D01*
X-507595Y-137362874D01*
X-525646Y-137308891D01*
X-542003Y-137252285D01*
X-578972Y-137216833D01*
X-613716Y-137178367D01*
X-646205Y-137137196D01*
X-676409Y-137093633D01*
X-704298Y-137047987D01*
X-729842Y-137000568D01*
X-753012Y-136951688D01*
X-773777Y-136901656D01*
X-792107Y-136850784D01*
X-807973Y-136799382D01*
X-821345Y-136747760D01*
X-832191Y-136696230D01*
X-840484Y-136645101D01*
X-846192Y-136594683D01*
X-849287Y-136545289D01*
X-849737Y-136497228D01*
X-869683Y-136469277D01*
X-888562Y-136440008D01*
X-906416Y-136409557D01*
X-923293Y-136378060D01*
X-939237Y-136345653D01*
X-954293Y-136312474D01*
X-968507Y-136278659D01*
X-981924Y-136244343D01*
X-1006548Y-136174758D01*
X-1028528Y-136104810D01*
X-1048225Y-136035590D01*
X-1066002Y-135968190D01*
X-1074464Y-135929290D01*
X-1082354Y-135890173D01*
X-1089420Y-135850866D01*
X-1095408Y-135811391D01*
X-1100067Y-135771775D01*
X-1101818Y-135751921D01*
X-1103142Y-135732040D01*
X-1104007Y-135712137D01*
X-1104258Y-135698827D01*
X-640317Y-135698827D01*
X-634981Y-135760521D01*
X-625412Y-135819422D01*
X-612011Y-135875590D01*
X-595175Y-135929085D01*
X-575303Y-135979967D01*
X-552793Y-136028296D01*
X-528045Y-136074133D01*
X-501456Y-136117536D01*
X-473424Y-136158567D01*
X-444350Y-136197285D01*
X-384664Y-136268023D01*
X-325587Y-136330231D01*
X-270306Y-136384388D01*
X-222010Y-136430975D01*
X-183886Y-136470472D01*
X-169636Y-136487712D01*
X-159124Y-136503360D01*
X-152749Y-136517475D01*
X-150910Y-136530118D01*
X-154006Y-136541349D01*
X-162434Y-136551228D01*
X-176594Y-136559814D01*
X-196884Y-136567169D01*
X-223702Y-136573351D01*
X-257447Y-136578421D01*
X-347311Y-136585465D01*
X-339091Y-136639486D01*
X-325911Y-136690912D01*
X-308259Y-136739798D01*
X-286617Y-136786196D01*
X-261470Y-136830159D01*
X-233304Y-136871740D01*
X-202602Y-136910992D01*
X-169850Y-136947969D01*
X-135531Y-136982723D01*
X-100131Y-137015307D01*
X-28026Y-137074177D01*
X42590Y-137125004D01*
X107839Y-137168212D01*
X206730Y-137233466D01*
X222041Y-137245680D01*
X232618Y-137256360D01*
X237976Y-137265560D01*
X237631Y-137273331D01*
X231098Y-137279728D01*
X217893Y-137284803D01*
X197531Y-137288609D01*
X169527Y-137291199D01*
X88656Y-137292943D01*
X-28597Y-137290461D01*
X-8729Y-137328587D01*
X16494Y-137364538D01*
X46548Y-137398417D01*
X80912Y-137430326D01*
X119063Y-137460369D01*
X160479Y-137488649D01*
X204637Y-137515267D01*
X251015Y-137540328D01*
X348341Y-137586186D01*
X448277Y-137627045D01*
X639266Y-137697057D01*
X721960Y-137727855D01*
X790548Y-137756944D01*
X818246Y-137771104D01*
X840850Y-137785146D01*
X857838Y-137799172D01*
X868688Y-137813285D01*
X872877Y-137827587D01*
X869883Y-137842182D01*
X859183Y-137857172D01*
X840254Y-137872660D01*
X812576Y-137888749D01*
X775624Y-137905541D01*
X728877Y-137923140D01*
X671813Y-137941648D01*
X759188Y-137987400D01*
X853133Y-138029633D01*
X952955Y-138066895D01*
X1057956Y-138097734D01*
X1167443Y-138120697D01*
X1280719Y-138134331D01*
X1338561Y-138137196D01*
X1397089Y-138137183D01*
X1456217Y-138134113D01*
X1515858Y-138127802D01*
X1575925Y-138118069D01*
X1636331Y-138104733D01*
X1696988Y-138087612D01*
X1757811Y-138066525D01*
X1818712Y-138041290D01*
X1879605Y-138011725D01*
X1940401Y-137977649D01*
X2001015Y-137938880D01*
X2061360Y-137895236D01*
X2121348Y-137846537D01*
X2180893Y-137792600D01*
X2239908Y-137733244D01*
X2298305Y-137668287D01*
X2355998Y-137597548D01*
X2412901Y-137520845D01*
X2468925Y-137437997D01*
X2400627Y-137365567D01*
X2325347Y-137291586D01*
X2242837Y-137215988D01*
X2152849Y-137138706D01*
X2055135Y-137059675D01*
X1949445Y-136978828D01*
X1713144Y-136811421D01*
X1441960Y-136635955D01*
X1133903Y-136451902D01*
X786986Y-136258730D01*
X399219Y-136055911D01*
X557274Y-136110052D01*
X713301Y-136166491D01*
X867234Y-136225303D01*
X1019008Y-136286560D01*
X1168555Y-136350335D01*
X1315810Y-136416702D01*
X1460705Y-136485732D01*
X1603175Y-136557498D01*
X1743154Y-136632075D01*
X1880574Y-136709534D01*
X2015370Y-136789950D01*
X2147475Y-136873393D01*
X2276823Y-136959939D01*
X2403347Y-137049659D01*
X2526982Y-137142626D01*
X2647660Y-137238914D01*
X2712469Y-137201015D01*
X2770638Y-137158666D01*
X2822297Y-137112192D01*
X2867580Y-137061922D01*
X2906616Y-137008183D01*
X2939538Y-136951300D01*
X2966477Y-136891602D01*
X2987564Y-136829416D01*
X3002931Y-136765067D01*
X3012709Y-136698885D01*
X3017029Y-136631194D01*
X3016024Y-136562324D01*
X3009824Y-136492599D01*
X2998561Y-136422349D01*
X2982367Y-136351899D01*
X2961372Y-136281576D01*
X2935708Y-136211709D01*
X2905507Y-136142623D01*
X2870900Y-136074645D01*
X2832019Y-136008104D01*
X2788994Y-135943325D01*
X2741958Y-135880637D01*
X2691041Y-135820365D01*
X2636376Y-135762837D01*
X2578093Y-135708380D01*
X2516324Y-135657321D01*
X2451201Y-135609987D01*
X2382854Y-135566705D01*
X2311416Y-135527802D01*
X2237018Y-135493605D01*
X2159791Y-135464442D01*
X2079866Y-135440639D01*
X2083898Y-135484329D01*
X2085257Y-135521151D01*
X2084031Y-135551467D01*
X2080310Y-135575641D01*
X2074181Y-135594036D01*
X2065735Y-135607014D01*
X2055060Y-135614939D01*
X2042244Y-135618174D01*
X2027377Y-135617082D01*
X2010547Y-135612027D01*
X1991844Y-135603371D01*
X1971356Y-135591477D01*
X1925381Y-135559431D01*
X1873333Y-135518792D01*
X1753864Y-135423357D01*
X1687864Y-135374372D01*
X1618634Y-135328414D01*
X1583031Y-135307479D01*
X1546887Y-135288390D01*
X1510291Y-135271510D01*
X1473333Y-135257203D01*
X1436100Y-135245832D01*
X1398682Y-135237759D01*
X1361168Y-135233349D01*
X1323646Y-135232964D01*
X1313648Y-135233589D01*
X1303654Y-135234535D01*
X1293668Y-135235810D01*
X1283690Y-135237417D01*
X1273726Y-135239365D01*
X1263776Y-135241658D01*
X1253845Y-135244302D01*
X1243935Y-135247304D01*
X1278523Y-135331800D01*
X1288738Y-135364947D01*
X1294470Y-135392498D01*
X1295897Y-135414809D01*
X1293194Y-135432234D01*
X1286540Y-135445128D01*
X1276110Y-135453844D01*
X1262081Y-135458738D01*
X1244632Y-135460163D01*
X1223938Y-135458476D01*
X1200176Y-135454029D01*
X1144158Y-135438275D01*
X1077993Y-135415739D01*
X920883Y-135361665D01*
X832770Y-135335797D01*
X740171Y-135314492D01*
X692631Y-135306435D01*
X644501Y-135300583D01*
X595958Y-135297289D01*
X547177Y-135296908D01*
X498337Y-135299794D01*
X449614Y-135306302D01*
X401185Y-135316786D01*
X353227Y-135331601D01*
X415758Y-135403245D01*
X453398Y-135454606D01*
X463438Y-135473604D01*
X467920Y-135488640D01*
X467066Y-135500082D01*
X461097Y-135508300D01*
X450236Y-135513665D01*
X434703Y-135516544D01*
X390509Y-135516324D01*
X255817Y-135502319D01*
X168864Y-135494444D01*
X71205Y-135489926D01*
X-35389Y-135491721D01*
X-149144Y-135502785D01*
X-208153Y-135512716D01*
X-268288Y-135526073D01*
X-329326Y-135543224D01*
X-391046Y-135564539D01*
X-453227Y-135590387D01*
X-515647Y-135621138D01*
X-578084Y-135657162D01*
X-640317Y-135698827D01*
X-1104258Y-135698827D01*
X-1104382Y-135692213D01*
X-1104234Y-135672273D01*
X-1103532Y-135652318D01*
X-1102409Y-135632014D01*
X-1100218Y-135611825D01*
X-1096978Y-135591796D01*
X-1092709Y-135571975D01*
X-1087431Y-135552410D01*
X-1081162Y-135533147D01*
X-1073924Y-135514234D01*
X-1065734Y-135495717D01*
X-1056614Y-135477644D01*
X-1046581Y-135460062D01*
X-1035657Y-135443018D01*
X-1023859Y-135426559D01*
X-1011209Y-135410732D01*
X-997725Y-135395585D01*
X-983426Y-135381164D01*
X-968334Y-135367516D01*
X-925108Y-135333896D01*
X-880653Y-135301989D01*
X-835040Y-135271802D01*
X-788341Y-135243340D01*
X-740626Y-135216611D01*
X-691968Y-135191620D01*
X-642437Y-135168374D01*
X-592105Y-135146880D01*
X-541043Y-135127143D01*
X-489322Y-135109169D01*
X-437014Y-135092966D01*
X-384190Y-135078540D01*
X-330921Y-135065896D01*
X-277279Y-135055042D01*
X-223334Y-135045982D01*
X-169158Y-135038725D01*
X-147526Y-135024881D01*
X-125446Y-135012274D01*
X-102939Y-135000767D01*
X-80024Y-134990222D01*
X-56720Y-134980500D01*
X-33048Y-134971464D01*
X15324Y-134954894D01*
X115631Y-134923904D01*
X167252Y-134907273D01*
X193361Y-134898190D01*
X219642Y-134888411D01*
X258203Y-134876959D01*
X298538Y-134866678D01*
X340403Y-134857594D01*
X383550Y-134849730D01*
X427734Y-134843108D01*
X472708Y-134837753D01*
X518227Y-134833688D01*
X564044Y-134830936D01*
X609914Y-134829521D01*
X655589Y-134829466D01*
X700824Y-134830795D01*
X745373Y-134833532D01*
X788990Y-134837699D01*
X831428Y-134843321D01*
X872441Y-134850420D01*
X911784Y-134859020D01*
X954107Y-134849274D01*
X997344Y-134840627D01*
X1041413Y-134833106D01*
X1086233Y-134826738D01*
X1131722Y-134821552D01*
X1177799Y-134817573D01*
X1224381Y-134814831D01*
X1271387Y-134813351D01*
X1310823Y-134813103D01*
X1350450Y-134813767D01*
X1390220Y-134815358D01*
X1430086Y-134817893D01*
X1470001Y-134821387D01*
X1509916Y-134825856D01*
X1549786Y-134831315D01*
X1589562Y-134837781D01*
X1629198Y-134845268D01*
X1668645Y-134853794D01*
X1707858Y-134863373D01*
X1746788Y-134874021D01*
X1785388Y-134885754D01*
X1823612Y-134898588D01*
X1861411Y-134912538D01*
X1898739Y-134927621D01*
X1979690Y-134924164D01*
X2061349Y-134926497D01*
X2143424Y-134934491D01*
X2225626Y-134948019D01*
X2307665Y-134966951D01*
X2389249Y-134991159D01*
X2470090Y-135020514D01*
X2549897Y-135054888D01*
X2628380Y-135094152D01*
X2705248Y-135138177D01*
X2780212Y-135186835D01*
X2852982Y-135239998D01*
X2923266Y-135297537D01*
X2990776Y-135359322D01*
X3055220Y-135425226D01*
X3116310Y-135495120D01*
X3173753Y-135568876D01*
X3227262Y-135646364D01*
X3276544Y-135727456D01*
X3321311Y-135812024D01*
X3361271Y-135899939D01*
X3396135Y-135991073D01*
X3425613Y-136085296D01*
X3449414Y-136182481D01*
X3467249Y-136282499D01*
X3478827Y-136385220D01*
X3483858Y-136490517D01*
X3482051Y-136598261D01*
X3479378Y-136631194D01*
X3473117Y-136708323D01*
G36*
X3473117Y-136708323D02*
G01*
X3456766Y-136820575D01*
X3432707Y-136934889D01*
X3400650Y-137051135D01*
X3382577Y-137096884D01*
X3362312Y-137141596D01*
X3339941Y-137185222D01*
X3315547Y-137227712D01*
X3289214Y-137269018D01*
X3261028Y-137309090D01*
X3231071Y-137347880D01*
X3199429Y-137385338D01*
X3166185Y-137421416D01*
X3131423Y-137456065D01*
X3095229Y-137489236D01*
X3057685Y-137520879D01*
X3018877Y-137550947D01*
X2978889Y-137579389D01*
X2937804Y-137606157D01*
X2895707Y-137631202D01*
X2846870Y-137705397D01*
X2797037Y-137776792D01*
X2745953Y-137845462D01*
X2693365Y-137911480D01*
X2639018Y-137974920D01*
X2582658Y-138035857D01*
X2524031Y-138094365D01*
X2462883Y-138150518D01*
X2398959Y-138204390D01*
X2332005Y-138256055D01*
X2261767Y-138305587D01*
X2187992Y-138353060D01*
X2110424Y-138398549D01*
X2028809Y-138442127D01*
X1942894Y-138483869D01*
X1852424Y-138523848D01*
X1774608Y-138544495D01*
X1684708Y-138560989D01*
X1584697Y-138572855D01*
X1476546Y-138579622D01*
X1362227Y-138580816D01*
X1243712Y-138575963D01*
X1122973Y-138564592D01*
X1001981Y-138546230D01*
X882708Y-138520402D01*
X767126Y-138486636D01*
X711335Y-138466629D01*
X657207Y-138444460D01*
X604987Y-138420070D01*
X554922Y-138393400D01*
X507259Y-138364391D01*
X462244Y-138332984D01*
X420123Y-138299119D01*
X381144Y-138262737D01*
X345552Y-138223780D01*
X313593Y-138182189D01*
X285516Y-138137903D01*
X261565Y-138090864D01*
X186434Y-138062559D01*
X140281Y-138043645D01*
X89609Y-138020852D01*
X35320Y-137993652D01*
X-21681Y-137961514D01*
X-80490Y-137923912D01*
X-140204Y-137880315D01*
X-199918Y-137830194D01*
X-258729Y-137773022D01*
X-287513Y-137741626D01*
X-315732Y-137708269D01*
X-343274Y-137672885D01*
X-370024Y-137635407D01*
X-395871Y-137595769D01*
X-420701Y-137553906D01*
X-444402Y-137509751D01*
X-466859Y-137463238D01*
X-487961Y-137414301D01*
X-507595Y-137362874D01*
X-525646Y-137308891D01*
X-542003Y-137252285D01*
X-578972Y-137216833D01*
X-613716Y-137178367D01*
X-646205Y-137137196D01*
X-676409Y-137093633D01*
X-704298Y-137047987D01*
X-729842Y-137000568D01*
X-753012Y-136951688D01*
X-773777Y-136901656D01*
X-792107Y-136850784D01*
X-807973Y-136799382D01*
X-821345Y-136747760D01*
X-832191Y-136696230D01*
X-840484Y-136645101D01*
X-846192Y-136594683D01*
X-849287Y-136545289D01*
X-849737Y-136497228D01*
X-869683Y-136469277D01*
X-888562Y-136440008D01*
X-906416Y-136409557D01*
X-923293Y-136378060D01*
X-939237Y-136345653D01*
X-954293Y-136312474D01*
X-968507Y-136278659D01*
X-981924Y-136244343D01*
X-1006548Y-136174758D01*
X-1028528Y-136104810D01*
X-1048225Y-136035590D01*
X-1066002Y-135968190D01*
X-1074464Y-135929290D01*
X-1082354Y-135890173D01*
X-1089420Y-135850866D01*
X-1095408Y-135811391D01*
X-1100067Y-135771775D01*
X-1101818Y-135751921D01*
X-1103142Y-135732040D01*
X-1104007Y-135712137D01*
X-1104258Y-135698827D01*
X-640317Y-135698827D01*
X-634981Y-135760521D01*
X-625412Y-135819422D01*
X-612011Y-135875590D01*
X-595175Y-135929085D01*
X-575303Y-135979967D01*
X-552793Y-136028296D01*
X-528045Y-136074133D01*
X-501456Y-136117536D01*
X-473424Y-136158567D01*
X-444350Y-136197285D01*
X-384664Y-136268023D01*
X-325587Y-136330231D01*
X-270306Y-136384388D01*
X-222010Y-136430975D01*
X-183886Y-136470472D01*
X-169636Y-136487712D01*
X-159124Y-136503360D01*
X-152749Y-136517475D01*
X-150910Y-136530118D01*
X-154006Y-136541349D01*
X-162434Y-136551228D01*
X-176594Y-136559814D01*
X-196884Y-136567169D01*
X-223702Y-136573351D01*
X-257447Y-136578421D01*
X-347311Y-136585465D01*
X-339091Y-136639486D01*
X-325911Y-136690912D01*
X-308259Y-136739798D01*
X-286617Y-136786196D01*
X-261470Y-136830159D01*
X-233304Y-136871740D01*
X-202602Y-136910992D01*
X-169850Y-136947969D01*
X-135531Y-136982723D01*
X-100131Y-137015307D01*
X-28026Y-137074177D01*
X42590Y-137125004D01*
X107839Y-137168212D01*
X206730Y-137233466D01*
X222041Y-137245680D01*
X232618Y-137256360D01*
X237976Y-137265560D01*
X237631Y-137273331D01*
X231098Y-137279728D01*
X217893Y-137284803D01*
X197531Y-137288609D01*
X169527Y-137291199D01*
X88656Y-137292943D01*
X-28597Y-137290461D01*
X-8729Y-137328587D01*
X16494Y-137364538D01*
X46548Y-137398417D01*
X80912Y-137430326D01*
X119063Y-137460369D01*
X160479Y-137488649D01*
X204637Y-137515267D01*
X251015Y-137540328D01*
X348341Y-137586186D01*
X448277Y-137627045D01*
X639266Y-137697057D01*
X721960Y-137727855D01*
X790548Y-137756944D01*
X818246Y-137771104D01*
X840850Y-137785146D01*
X857838Y-137799172D01*
X868688Y-137813285D01*
X872877Y-137827587D01*
X869883Y-137842182D01*
X859183Y-137857172D01*
X840254Y-137872660D01*
X812576Y-137888749D01*
X775624Y-137905541D01*
X728877Y-137923140D01*
X671813Y-137941648D01*
X759188Y-137987400D01*
X853133Y-138029633D01*
X952955Y-138066895D01*
X1057956Y-138097734D01*
X1167443Y-138120697D01*
X1280719Y-138134331D01*
X1338561Y-138137196D01*
X1397089Y-138137183D01*
X1456217Y-138134113D01*
X1515858Y-138127802D01*
X1575925Y-138118069D01*
X1636331Y-138104733D01*
X1696988Y-138087612D01*
X1757811Y-138066525D01*
X1818712Y-138041290D01*
X1879605Y-138011725D01*
X1940401Y-137977649D01*
X2001015Y-137938880D01*
X2061360Y-137895236D01*
X2121348Y-137846537D01*
X2180893Y-137792600D01*
X2239908Y-137733244D01*
X2298305Y-137668287D01*
X2355998Y-137597548D01*
X2412901Y-137520845D01*
X2468925Y-137437997D01*
X2400627Y-137365567D01*
X2325347Y-137291586D01*
X2242837Y-137215988D01*
X2152849Y-137138706D01*
X2055135Y-137059675D01*
X1949445Y-136978828D01*
X1713144Y-136811421D01*
X1441960Y-136635955D01*
X1133903Y-136451902D01*
X786986Y-136258730D01*
X399219Y-136055911D01*
X557274Y-136110052D01*
X713301Y-136166491D01*
X867234Y-136225303D01*
X1019008Y-136286560D01*
X1168555Y-136350335D01*
X1315810Y-136416702D01*
X1460705Y-136485732D01*
X1603175Y-136557498D01*
X1743154Y-136632075D01*
X1880574Y-136709534D01*
X2015370Y-136789950D01*
X2147475Y-136873393D01*
X2276823Y-136959939D01*
X2403347Y-137049659D01*
X2526982Y-137142626D01*
X2647660Y-137238914D01*
X2712469Y-137201015D01*
X2770638Y-137158666D01*
X2822297Y-137112192D01*
X2867580Y-137061922D01*
X2906616Y-137008183D01*
X2939538Y-136951300D01*
X2966477Y-136891602D01*
X2987564Y-136829416D01*
X3002931Y-136765067D01*
X3012709Y-136698885D01*
X3017029Y-136631194D01*
X3016024Y-136562324D01*
X3009824Y-136492599D01*
X2998561Y-136422349D01*
X2982367Y-136351899D01*
X2961372Y-136281576D01*
X2935708Y-136211709D01*
X2905507Y-136142623D01*
X2870900Y-136074645D01*
X2832019Y-136008104D01*
X2788994Y-135943325D01*
X2741958Y-135880637D01*
X2691041Y-135820365D01*
X2636376Y-135762837D01*
X2578093Y-135708380D01*
X2516324Y-135657321D01*
X2451201Y-135609987D01*
X2382854Y-135566705D01*
X2311416Y-135527802D01*
X2237018Y-135493605D01*
X2159791Y-135464442D01*
X2079866Y-135440639D01*
X2083898Y-135484329D01*
X2085257Y-135521151D01*
X2084031Y-135551467D01*
X2080310Y-135575641D01*
X2074181Y-135594036D01*
X2065735Y-135607014D01*
X2055060Y-135614939D01*
X2042244Y-135618174D01*
X2027377Y-135617082D01*
X2010547Y-135612027D01*
X1991844Y-135603371D01*
X1971356Y-135591477D01*
X1925381Y-135559431D01*
X1873333Y-135518792D01*
X1753864Y-135423357D01*
X1687864Y-135374372D01*
X1618634Y-135328414D01*
X1583031Y-135307479D01*
X1546887Y-135288390D01*
X1510291Y-135271510D01*
X1473333Y-135257203D01*
X1436100Y-135245832D01*
X1398682Y-135237759D01*
X1361168Y-135233349D01*
X1323646Y-135232964D01*
X1313648Y-135233589D01*
X1303654Y-135234535D01*
X1293668Y-135235810D01*
X1283690Y-135237417D01*
X1273726Y-135239365D01*
X1263776Y-135241658D01*
X1253845Y-135244302D01*
X1243935Y-135247304D01*
X1278523Y-135331800D01*
X1288738Y-135364947D01*
X1294470Y-135392498D01*
X1295897Y-135414809D01*
X1293194Y-135432234D01*
X1286540Y-135445128D01*
X1276110Y-135453844D01*
X1262081Y-135458738D01*
X1244632Y-135460163D01*
X1223938Y-135458476D01*
X1200176Y-135454029D01*
X1144158Y-135438275D01*
X1077993Y-135415739D01*
X920883Y-135361665D01*
X832770Y-135335797D01*
X740171Y-135314492D01*
X692631Y-135306435D01*
X644501Y-135300583D01*
X595958Y-135297289D01*
X547177Y-135296908D01*
X498337Y-135299794D01*
X449614Y-135306302D01*
X401185Y-135316786D01*
X353227Y-135331601D01*
X415758Y-135403245D01*
X453398Y-135454606D01*
X463438Y-135473604D01*
X467920Y-135488640D01*
X467066Y-135500082D01*
X461097Y-135508300D01*
X450236Y-135513665D01*
X434703Y-135516544D01*
X390509Y-135516324D01*
X255817Y-135502319D01*
X168864Y-135494444D01*
X71205Y-135489926D01*
X-35389Y-135491721D01*
X-149144Y-135502785D01*
X-208153Y-135512716D01*
X-268288Y-135526073D01*
X-329326Y-135543224D01*
X-391046Y-135564539D01*
X-453227Y-135590387D01*
X-515647Y-135621138D01*
X-578084Y-135657162D01*
X-640317Y-135698827D01*
X-1104258Y-135698827D01*
X-1104382Y-135692213D01*
X-1104234Y-135672273D01*
X-1103532Y-135652318D01*
X-1102409Y-135632014D01*
X-1100218Y-135611825D01*
X-1096978Y-135591796D01*
X-1092709Y-135571975D01*
X-1087431Y-135552410D01*
X-1081162Y-135533147D01*
X-1073924Y-135514234D01*
X-1065734Y-135495717D01*
X-1056614Y-135477644D01*
X-1046581Y-135460062D01*
X-1035657Y-135443018D01*
X-1023859Y-135426559D01*
X-1011209Y-135410732D01*
X-997725Y-135395585D01*
X-983426Y-135381164D01*
X-968334Y-135367516D01*
X-925108Y-135333896D01*
X-880653Y-135301989D01*
X-835040Y-135271802D01*
X-788341Y-135243340D01*
X-740626Y-135216611D01*
X-691968Y-135191620D01*
X-642437Y-135168374D01*
X-592105Y-135146880D01*
X-541043Y-135127143D01*
X-489322Y-135109169D01*
X-437014Y-135092966D01*
X-384190Y-135078540D01*
X-330921Y-135065896D01*
X-277279Y-135055042D01*
X-223334Y-135045982D01*
X-169158Y-135038725D01*
X-147526Y-135024881D01*
X-125446Y-135012274D01*
X-102939Y-135000767D01*
X-80024Y-134990222D01*
X-56720Y-134980500D01*
X-33048Y-134971464D01*
X15324Y-134954894D01*
X115631Y-134923904D01*
X167252Y-134907273D01*
X193361Y-134898190D01*
X219642Y-134888411D01*
X258203Y-134876959D01*
X298538Y-134866678D01*
X340403Y-134857594D01*
X383550Y-134849730D01*
X427734Y-134843108D01*
X472708Y-134837753D01*
X518227Y-134833688D01*
X564044Y-134830936D01*
X609914Y-134829521D01*
X655589Y-134829466D01*
X700824Y-134830795D01*
X745373Y-134833532D01*
X788990Y-134837699D01*
X831428Y-134843321D01*
X872441Y-134850420D01*
X911784Y-134859020D01*
X954107Y-134849274D01*
X997344Y-134840627D01*
X1041413Y-134833106D01*
X1086233Y-134826738D01*
X1131722Y-134821552D01*
X1177799Y-134817573D01*
X1224381Y-134814831D01*
X1271387Y-134813351D01*
X1310823Y-134813103D01*
X1350450Y-134813767D01*
X1390220Y-134815358D01*
X1430086Y-134817893D01*
X1470001Y-134821387D01*
X1509916Y-134825856D01*
X1549786Y-134831315D01*
X1589562Y-134837781D01*
X1629198Y-134845268D01*
X1668645Y-134853794D01*
X1707858Y-134863373D01*
X1746788Y-134874021D01*
X1785388Y-134885754D01*
X1823612Y-134898588D01*
X1861411Y-134912538D01*
X1898739Y-134927621D01*
X1979690Y-134924164D01*
X2061349Y-134926497D01*
X2143424Y-134934491D01*
X2225626Y-134948019D01*
X2307665Y-134966951D01*
X2389249Y-134991159D01*
X2470090Y-135020514D01*
X2549897Y-135054888D01*
X2628380Y-135094152D01*
X2705248Y-135138177D01*
X2780212Y-135186835D01*
X2852982Y-135239998D01*
X2923266Y-135297537D01*
X2990776Y-135359322D01*
X3055220Y-135425226D01*
X3116310Y-135495120D01*
X3173753Y-135568876D01*
X3227262Y-135646364D01*
X3276544Y-135727456D01*
X3321311Y-135812024D01*
X3361271Y-135899939D01*
X3396135Y-135991073D01*
X3425613Y-136085296D01*
X3449414Y-136182481D01*
X3467249Y-136282499D01*
X3478827Y-136385220D01*
X3483858Y-136490517D01*
X3482051Y-136598261D01*
X3479378Y-136631194D01*
X3473117Y-136708323D01*
G37*
G36*
X7907845Y-139578922D02*
G01*
X7992752Y-139702053D01*
X8068203Y-139828274D01*
X8102323Y-139892647D01*
X8134008Y-139957914D01*
X8163236Y-140024119D01*
X8189983Y-140091300D01*
X8214225Y-140159500D01*
X8235939Y-140228759D01*
X8255102Y-140299118D01*
X8271689Y-140370618D01*
X8285679Y-140443300D01*
X8297047Y-140517205D01*
X8305770Y-140592374D01*
X8311824Y-140668848D01*
X8315187Y-140746667D01*
X8315834Y-140825873D01*
X8313743Y-140906507D01*
X8308889Y-140988609D01*
X8304471Y-141036970D01*
X8301251Y-141072220D01*
X8290803Y-141157382D01*
X8277523Y-141244135D01*
X8261388Y-141332521D01*
X8242156Y-141420075D01*
X8219736Y-141504344D01*
X8194326Y-141585386D01*
X8166126Y-141663255D01*
X8135335Y-141738008D01*
X8102153Y-141809701D01*
X8066778Y-141878391D01*
X8029410Y-141944134D01*
X7990249Y-142006985D01*
X7949493Y-142067001D01*
X7863995Y-142178753D01*
X7774510Y-142279838D01*
X7682634Y-142370707D01*
X7674227Y-142378064D01*
X7589959Y-142451809D01*
X7498080Y-142523593D01*
X7408592Y-142586508D01*
X7323089Y-142641005D01*
X7243164Y-142687531D01*
X7170412Y-142726538D01*
X7052806Y-142783789D01*
X6996904Y-142856872D01*
X6938792Y-142927034D01*
X6878572Y-142994315D01*
X6816348Y-143058755D01*
X6752222Y-143120392D01*
X6686296Y-143179266D01*
X6549459Y-143288879D01*
X6406660Y-143387910D01*
X6258721Y-143476671D01*
X6106465Y-143555476D01*
X5950714Y-143624640D01*
X5792292Y-143684475D01*
X5632021Y-143735295D01*
X5470723Y-143777414D01*
X5309221Y-143811147D01*
X5148338Y-143836805D01*
X4988896Y-143854704D01*
X4831718Y-143865157D01*
X4677628Y-143868477D01*
X4531471Y-143866056D01*
X4382552Y-143856389D01*
X4231637Y-143839172D01*
X4079490Y-143814098D01*
X3926876Y-143780860D01*
X3774558Y-143739153D01*
X3623303Y-143688670D01*
X3473874Y-143629105D01*
X3327037Y-143560153D01*
X3183556Y-143481505D01*
X3044195Y-143392857D01*
X2909721Y-143293903D01*
X2780896Y-143184335D01*
X2658486Y-143063848D01*
X2543255Y-142932136D01*
X2488571Y-142861974D01*
X2435969Y-142788892D01*
X2325306Y-142731644D01*
X2256851Y-142692641D01*
X2181647Y-142646118D01*
X2101193Y-142591626D01*
X2016990Y-142528717D01*
X1951074Y-142473989D01*
X2994010Y-142473989D01*
X2996465Y-142511040D01*
X3003732Y-142549526D01*
X3015660Y-142589269D01*
X3032101Y-142630096D01*
X3052904Y-142671831D01*
X3077921Y-142714300D01*
X3107000Y-142757326D01*
X3139994Y-142800737D01*
X3176751Y-142844355D01*
X3217124Y-142888007D01*
X3260961Y-142931516D01*
X3308115Y-142974710D01*
X3358434Y-143017411D01*
X3411769Y-143059446D01*
X3467971Y-143100639D01*
X3526891Y-143140815D01*
X3588378Y-143179799D01*
X3652283Y-143217417D01*
X3718457Y-143253492D01*
X3786750Y-143287851D01*
X3857012Y-143320319D01*
X3929094Y-143350719D01*
X4002846Y-143378877D01*
X4078119Y-143404619D01*
X4154763Y-143427769D01*
X4232628Y-143448151D01*
X4311566Y-143465592D01*
X4391425Y-143479916D01*
X4472057Y-143490949D01*
X4553313Y-143498514D01*
X4635042Y-143502437D01*
X4717096Y-143502544D01*
X4865333Y-143497618D01*
X5016225Y-143479728D01*
X5168087Y-143449785D01*
X5319233Y-143408699D01*
X5467976Y-143357381D01*
X5612630Y-143296742D01*
X5751510Y-143227692D01*
X5882928Y-143151143D01*
X6005201Y-143068005D01*
X6116640Y-142979190D01*
X6215561Y-142885607D01*
X6300276Y-142788168D01*
X6336781Y-142738287D01*
X6369101Y-142687783D01*
X6397028Y-142636771D01*
X6420350Y-142585364D01*
X6438856Y-142533676D01*
X6452335Y-142481821D01*
X6460577Y-142429912D01*
X6463371Y-142378064D01*
X6461103Y-142333076D01*
X6454954Y-142288686D01*
X6444976Y-142244950D01*
X6431222Y-142201924D01*
X6413745Y-142159662D01*
X6392598Y-142118222D01*
X6367833Y-142077658D01*
X6339503Y-142038027D01*
X6307660Y-141999385D01*
X6272358Y-141961786D01*
X6233649Y-141925286D01*
X6191585Y-141889942D01*
X6146220Y-141855810D01*
X6097606Y-141822944D01*
X6045796Y-141791400D01*
X5990842Y-141761235D01*
X5932797Y-141732504D01*
X5871714Y-141705263D01*
X5807645Y-141679567D01*
X5740644Y-141655472D01*
X5670762Y-141633034D01*
X5598053Y-141612309D01*
X5522569Y-141593353D01*
X5444363Y-141576220D01*
X5363488Y-141560967D01*
X5279996Y-141547650D01*
X5193940Y-141536324D01*
X5105373Y-141527045D01*
X5014347Y-141519869D01*
X4920915Y-141514852D01*
X4825129Y-141512048D01*
X4727043Y-141511515D01*
X4536407Y-141519344D01*
X4354282Y-141537407D01*
X4181196Y-141565005D01*
X4017679Y-141601440D01*
X3864258Y-141646015D01*
X3721462Y-141698032D01*
X3589817Y-141756792D01*
X3469853Y-141821599D01*
X3362098Y-141891755D01*
X3267079Y-141966561D01*
X3185325Y-142045321D01*
X3117363Y-142127335D01*
X3063723Y-142211907D01*
X3042439Y-142254934D01*
X3024932Y-142298338D01*
X3011270Y-142342033D01*
X3001518Y-142385931D01*
X2995743Y-142429946D01*
X2994010Y-142473989D01*
X1951074Y-142473989D01*
X1930538Y-142456939D01*
X1843338Y-142375843D01*
X1799925Y-142331660D01*
X1756888Y-142284980D01*
X1714413Y-142235745D01*
X1672689Y-142183900D01*
X1631902Y-142129388D01*
X1592240Y-142072154D01*
X1553892Y-142012140D01*
X1517043Y-141949292D01*
X1481883Y-141883551D01*
X1448597Y-141814863D01*
X1417374Y-141743172D01*
X1388402Y-141668420D01*
X1361867Y-141590552D01*
X1337958Y-141509512D01*
X1316861Y-141425243D01*
X1298765Y-141337689D01*
X1272248Y-141160544D01*
X1258512Y-140986099D01*
X1257833Y-140904869D01*
X1625861Y-140904869D01*
X1626878Y-140954463D01*
X1629950Y-141004816D01*
X1635160Y-141055864D01*
X1642588Y-141107544D01*
X1652317Y-141159792D01*
X1664429Y-141212546D01*
X1679005Y-141265741D01*
X1696128Y-141319315D01*
X1715880Y-141373203D01*
X1738341Y-141427343D01*
X1763594Y-141481672D01*
X1793667Y-141527222D01*
X1824532Y-141570368D01*
X1856121Y-141611140D01*
X1888369Y-141649567D01*
X1921208Y-141685680D01*
X1954570Y-141719509D01*
X1988389Y-141751084D01*
X2022598Y-141780436D01*
X2057130Y-141807595D01*
X2091917Y-141832590D01*
X2126893Y-141855453D01*
X2161991Y-141876213D01*
X2197143Y-141894901D01*
X2232282Y-141911546D01*
X2267342Y-141926179D01*
X2302255Y-141938831D01*
X2336955Y-141949531D01*
X2371373Y-141958309D01*
X2405444Y-141965197D01*
X2439100Y-141970223D01*
X2472274Y-141973418D01*
X2504899Y-141974813D01*
X2536908Y-141974438D01*
X2568234Y-141972322D01*
X2598810Y-141968496D01*
X2628569Y-141962991D01*
X2657444Y-141955836D01*
X2685367Y-141947062D01*
X2712272Y-141936698D01*
X2738091Y-141924776D01*
X2762758Y-141911325D01*
X2786206Y-141896375D01*
X2809809Y-141873698D01*
X2832160Y-141847367D01*
X2853232Y-141817586D01*
X2872997Y-141784558D01*
X2891429Y-141748487D01*
X2908500Y-141709578D01*
X2938449Y-141624056D01*
X2962626Y-141529622D01*
X2980812Y-141427906D01*
X2992787Y-141320536D01*
X2994902Y-141278066D01*
X6577837Y-141278066D01*
X6583385Y-141389459D01*
X6595361Y-141496828D01*
X6613546Y-141598545D01*
X6637723Y-141692979D01*
X6667672Y-141778500D01*
X6703174Y-141853481D01*
X6722940Y-141886508D01*
X6744012Y-141916290D01*
X6766363Y-141942621D01*
X6789965Y-141965298D01*
X6813413Y-141980248D01*
X6838080Y-141993699D01*
X6863899Y-142005621D01*
X6890804Y-142015985D01*
X6918728Y-142024759D01*
X6947602Y-142031914D01*
X6977361Y-142037419D01*
X7007937Y-142041245D01*
X7039263Y-142043361D01*
X7071272Y-142043736D01*
X7103897Y-142042341D01*
X7137071Y-142039146D01*
X7170727Y-142034120D01*
X7204798Y-142027232D01*
X7239217Y-142018454D01*
X7273916Y-142007754D01*
X7308829Y-141995103D01*
X7343889Y-141980469D01*
X7379028Y-141963824D01*
X7414180Y-141945136D01*
X7449278Y-141924376D01*
X7484254Y-141901514D01*
X7519041Y-141876518D01*
X7553573Y-141849359D01*
X7587782Y-141820008D01*
X7621601Y-141788432D01*
X7654964Y-141754603D01*
X7687802Y-141718490D01*
X7720050Y-141680063D01*
X7751640Y-141639292D01*
X7782504Y-141596146D01*
X7812577Y-141550595D01*
X7837636Y-141496425D01*
X7859541Y-141442750D01*
X7878413Y-141389619D01*
X7894376Y-141337079D01*
X7907551Y-141285180D01*
X7918061Y-141233968D01*
X7926027Y-141183493D01*
X7931571Y-141133803D01*
X7935883Y-141036970D01*
X7931974Y-140943856D01*
X7920821Y-140854847D01*
X7903401Y-140770329D01*
X7880689Y-140690688D01*
X7853664Y-140616311D01*
X7823301Y-140547584D01*
X7790577Y-140484894D01*
X7756469Y-140428626D01*
X7721954Y-140379167D01*
X7688009Y-140336903D01*
X7655610Y-140302221D01*
X7639452Y-140286835D01*
X7622298Y-140271521D01*
X7604177Y-140256397D01*
X7585120Y-140241584D01*
X7565156Y-140227200D01*
X7544314Y-140213365D01*
X7522624Y-140200199D01*
X7500115Y-140187820D01*
X7476818Y-140176349D01*
X7452761Y-140165905D01*
X7427975Y-140156607D01*
X7402488Y-140148575D01*
X7376331Y-140141929D01*
X7349533Y-140136787D01*
X7335903Y-140134817D01*
X7322124Y-140133269D01*
X7308199Y-140132157D01*
X7294133Y-140131495D01*
X7294135Y-140131496D01*
X7265591Y-140131585D01*
X7236524Y-140133657D01*
X7206963Y-140137831D01*
X7176937Y-140144226D01*
X7146476Y-140152962D01*
X7115610Y-140164157D01*
X7084368Y-140177931D01*
X7052779Y-140194403D01*
X7020873Y-140213692D01*
X6988680Y-140235917D01*
X6956228Y-140261199D01*
X6923548Y-140289655D01*
X6890668Y-140321406D01*
X6857619Y-140356569D01*
X6824430Y-140395266D01*
X6791129Y-140437614D01*
X6763216Y-140478845D01*
X6737375Y-140522533D01*
X6713579Y-140568474D01*
X6691799Y-140616465D01*
X6654183Y-140717780D01*
X6624307Y-140824848D01*
X6601953Y-140936041D01*
X6586903Y-141049727D01*
X6578937Y-141164279D01*
X6578504Y-141209143D01*
X6577837Y-141278066D01*
X2994902Y-141278066D01*
X2998335Y-141209143D01*
X2997235Y-141095356D01*
X2989269Y-140980804D01*
X2974219Y-140867118D01*
X2951865Y-140755925D01*
X2921989Y-140648857D01*
X2904162Y-140597379D01*
X2884372Y-140547542D01*
X2862593Y-140499551D01*
X2838796Y-140453610D01*
X2812955Y-140409922D01*
X2785041Y-140368691D01*
X2747930Y-140320912D01*
X2711605Y-140276987D01*
X2676035Y-140236810D01*
X2641193Y-140200276D01*
X2607047Y-140167279D01*
X2573569Y-140137714D01*
X2540728Y-140111475D01*
X2508496Y-140088457D01*
X2476842Y-140068554D01*
X2445738Y-140051661D01*
X2415153Y-140037672D01*
X2385059Y-140026482D01*
X2355424Y-140017986D01*
X2326221Y-140012077D01*
X2297419Y-140008651D01*
X2268988Y-140007602D01*
X2268989Y-140007601D01*
X2247115Y-140008361D01*
X2225433Y-140010445D01*
X2203931Y-140013803D01*
X2182593Y-140018386D01*
X2161407Y-140024145D01*
X2140357Y-140031029D01*
X2119431Y-140038989D01*
X2098613Y-140047976D01*
X2077891Y-140057939D01*
X2057250Y-140068830D01*
X2036675Y-140080599D01*
X2016154Y-140093196D01*
X1995672Y-140106572D01*
X1975215Y-140120676D01*
X1954769Y-140135460D01*
X1934320Y-140150874D01*
X1911084Y-140169897D01*
X1888184Y-140191010D01*
X1865702Y-140214148D01*
X1843721Y-140239250D01*
X1822321Y-140266251D01*
X1801585Y-140295087D01*
X1781595Y-140325697D01*
X1762432Y-140358016D01*
X1744179Y-140391981D01*
X1726916Y-140427528D01*
X1710727Y-140464594D01*
X1695693Y-140503117D01*
X1681895Y-140543031D01*
X1669417Y-140584275D01*
X1658338Y-140626784D01*
X1648742Y-140670496D01*
X1640710Y-140715346D01*
X1634324Y-140761272D01*
X1629666Y-140808210D01*
X1626818Y-140856097D01*
X1625861Y-140904869D01*
X1257833Y-140904869D01*
X1257079Y-140814552D01*
X1267469Y-140646098D01*
X1289203Y-140480933D01*
X1321802Y-140319253D01*
X1364786Y-140161254D01*
X1417677Y-140007132D01*
X1479995Y-139857084D01*
X1551261Y-139711304D01*
X1630995Y-139569989D01*
X1718720Y-139433336D01*
X1779624Y-139349050D01*
X2950149Y-139349050D01*
X2950762Y-139427088D01*
X2955912Y-139505270D01*
X2965505Y-139583425D01*
X2979448Y-139661383D01*
X2997650Y-139738972D01*
X3020017Y-139816023D01*
X3046456Y-139892364D01*
X3076874Y-139967825D01*
X3111179Y-140042235D01*
X3149278Y-140115425D01*
X3191077Y-140187222D01*
X3236484Y-140257458D01*
X3285406Y-140325960D01*
X3337750Y-140392559D01*
X3393424Y-140457084D01*
X3452334Y-140519364D01*
X3514387Y-140579229D01*
X3579491Y-140636508D01*
X3647554Y-140691030D01*
X3718481Y-140742625D01*
X3792180Y-140791123D01*
X3868559Y-140836352D01*
X3947524Y-140878143D01*
X4028982Y-140916324D01*
X4112842Y-140950725D01*
X4199009Y-140981175D01*
X4287391Y-141007504D01*
X4377895Y-141029542D01*
X4470429Y-141047116D01*
X4564899Y-141060058D01*
X4661212Y-141068197D01*
X4759277Y-141071361D01*
X4857750Y-141069836D01*
X4955246Y-141064077D01*
X5051603Y-141054167D01*
X5146658Y-141040188D01*
X5240249Y-141022225D01*
X5332216Y-141000359D01*
X5422395Y-140974675D01*
X5510625Y-140945255D01*
X5596744Y-140912183D01*
X5680591Y-140875540D01*
X5762003Y-140835412D01*
X5840818Y-140791880D01*
X5916875Y-140745028D01*
X5990011Y-140694939D01*
X6060065Y-140641696D01*
X6126875Y-140585381D01*
X6190280Y-140526079D01*
X6250116Y-140463873D01*
X6306222Y-140398844D01*
X6358437Y-140331077D01*
X6406598Y-140260655D01*
X6450544Y-140187660D01*
X6490112Y-140112176D01*
X6525141Y-140034286D01*
X6555469Y-139954073D01*
X6580934Y-139871620D01*
X6601374Y-139787010D01*
X6616627Y-139700326D01*
X6626532Y-139611652D01*
X6630926Y-139521070D01*
X6629648Y-139428663D01*
X6622535Y-139334516D01*
X6610463Y-139240995D01*
X6594476Y-139150414D01*
X6574668Y-139062773D01*
X6551133Y-138978075D01*
X6523965Y-138896320D01*
X6493255Y-138817509D01*
X6459099Y-138741644D01*
X6421590Y-138668724D01*
X6380821Y-138598752D01*
X6336885Y-138531729D01*
X6289877Y-138467654D01*
X6239889Y-138406531D01*
X6187016Y-138348358D01*
X6131350Y-138293139D01*
X6072986Y-138240873D01*
X6012017Y-138191561D01*
X5948535Y-138145206D01*
X5882636Y-138101807D01*
X5814412Y-138061366D01*
X5743956Y-138023884D01*
X5671364Y-137989362D01*
X5596726Y-137957802D01*
X5520139Y-137929203D01*
X5441694Y-137903567D01*
X5361486Y-137880895D01*
X5279607Y-137861189D01*
X5196152Y-137844449D01*
X5111214Y-137830677D01*
X5024886Y-137819873D01*
X4937263Y-137812038D01*
X4758501Y-137805281D01*
X4668472Y-137806970D01*
X4579381Y-137812774D01*
X4491352Y-137822583D01*
X4404507Y-137836285D01*
X4318968Y-137853769D01*
X4234858Y-137874924D01*
X4152299Y-137899639D01*
X4071413Y-137927802D01*
X3992322Y-137959302D01*
X3915149Y-137994028D01*
X3840016Y-138031869D01*
X3767046Y-138072713D01*
X3696361Y-138116450D01*
X3628082Y-138162967D01*
X3562334Y-138212155D01*
X3499237Y-138263901D01*
X3438914Y-138318094D01*
X3381487Y-138374624D01*
X3327080Y-138433378D01*
X3275813Y-138494247D01*
X3227810Y-138557117D01*
X3183193Y-138621879D01*
X3142084Y-138688421D01*
X3104605Y-138756632D01*
X3070879Y-138826401D01*
X3041028Y-138897616D01*
X3015175Y-138970165D01*
X2993441Y-139043939D01*
X2975949Y-139118826D01*
X2962822Y-139194714D01*
X2954181Y-139271492D01*
X2950149Y-139349050D01*
X1779624Y-139349050D01*
X1813954Y-139301540D01*
X1916220Y-139174796D01*
X2025037Y-139053302D01*
X2139928Y-138937254D01*
X2266270Y-138731443D01*
X2394727Y-138540813D01*
X2525956Y-138365002D01*
X2660620Y-138203648D01*
X2799379Y-138056393D01*
X2870500Y-137987939D01*
X2942892Y-137922874D01*
X3016638Y-137861153D01*
X3091821Y-137802731D01*
X3168522Y-137747563D01*
X3246826Y-137695603D01*
X3326813Y-137646808D01*
X3408567Y-137601130D01*
X3492170Y-137558527D01*
X3577705Y-137518951D01*
X3665255Y-137482359D01*
X3754901Y-137448705D01*
X3846727Y-137417944D01*
X3940814Y-137390031D01*
X4037247Y-137364920D01*
X4136106Y-137342568D01*
X4341437Y-137305956D01*
X4557467Y-137279834D01*
X4784856Y-137263842D01*
X4784856Y-137263841D01*
X5010493Y-137284336D01*
X5225416Y-137317861D01*
X5430285Y-137364334D01*
X5625755Y-137423678D01*
X5812484Y-137495813D01*
X5991127Y-137580659D01*
X6162343Y-137678137D01*
X6326787Y-137788167D01*
X6485116Y-137910670D01*
X6637988Y-138045566D01*
X6786060Y-138192776D01*
X6929987Y-138352221D01*
X7070427Y-138523821D01*
X7208037Y-138707497D01*
X7343473Y-138903169D01*
X7477392Y-139110757D01*
X7598255Y-139224799D01*
X7710409Y-139340622D01*
X7813669Y-139458554D01*
X7862582Y-139521070D01*
X7907845Y-139578922D01*
G37*
D13*
X155597500Y-73538135D03*
D14*
X157697500Y-73538135D03*
X161497500Y-73538135D03*
D15*
X163597500Y-73538135D03*
D13*
X174870000Y-70996885D03*
D14*
X176970000Y-70996885D03*
X180770000Y-70996885D03*
D15*
X182870000Y-70996885D03*
D13*
X193575500Y-68620135D03*
D14*
X195675500Y-68620135D03*
X199475500Y-68620135D03*
D15*
X201575500Y-68620135D03*
D13*
X212625500Y-71085135D03*
D14*
X214725500Y-71085135D03*
X218525500Y-71085135D03*
D15*
X220625500Y-71085135D03*
D13*
X231675500Y-75985135D03*
D14*
X233775500Y-75985135D03*
X237575500Y-75985135D03*
D15*
X239675500Y-75985135D03*
D13*
X250725500Y-75985135D03*
D14*
X252825500Y-75985135D03*
X256625500Y-75985135D03*
D15*
X258725500Y-75985135D03*
D13*
X155597500Y-111638135D03*
D14*
X157697500Y-111638135D03*
X161497500Y-111638135D03*
D15*
X163597500Y-111638135D03*
D13*
X155597500Y-130688135D03*
D14*
X157697500Y-130688135D03*
X161497500Y-130688135D03*
D15*
X163597500Y-130688135D03*
D13*
X134947500Y-127015135D03*
D14*
X137047500Y-127015135D03*
X140847500Y-127015135D03*
D15*
X142947500Y-127015135D03*
D16*
X139483474Y-156241097D03*
D17*
X141354588Y-155287717D03*
X144740412Y-153562553D03*
D15*
X146611526Y-152609173D03*
D18*
X164997500Y-63975135D03*
D19*
X164497500Y-67775135D03*
X159497500Y-69875135D03*
D20*
X159497500Y-63975135D03*
D19*
X154497500Y-67775135D03*
D18*
X153997500Y-63975135D03*
D21*
X162997500Y-69975135D03*
D22*
X150997500Y-67775135D03*
D18*
X203097500Y-58975135D03*
D19*
X202597500Y-62775135D03*
X197597500Y-64875135D03*
D20*
X197597500Y-58975135D03*
D19*
X192597500Y-62775135D03*
D18*
X192097500Y-58975135D03*
D21*
X201097500Y-64975135D03*
D22*
X189097500Y-62775135D03*
D18*
X164997500Y-102075135D03*
D19*
X164497500Y-105875135D03*
X159497500Y-107975135D03*
D20*
X159497500Y-102075135D03*
D19*
X154497500Y-105875135D03*
D18*
X153997500Y-102075135D03*
D21*
X162997500Y-108075135D03*
D22*
X150997500Y-105875135D03*
D18*
X184047500Y-99575135D03*
D19*
X183547500Y-103375135D03*
X178547500Y-105475135D03*
D20*
X178547500Y-99575135D03*
D19*
X173547500Y-103375135D03*
D18*
X173047500Y-99575135D03*
D21*
X182047500Y-105575135D03*
D22*
X170047500Y-103375135D03*
D18*
X203097500Y-116125135D03*
D19*
X202597500Y-119925135D03*
X197597500Y-122025135D03*
D20*
X197597500Y-116125135D03*
D19*
X192597500Y-119925135D03*
D18*
X192097500Y-116125135D03*
D21*
X201097500Y-122125135D03*
D22*
X189097500Y-119925135D03*
D18*
X241197500Y-123525135D03*
D19*
X240697500Y-127325135D03*
X235697500Y-129425135D03*
D20*
X235697500Y-123525135D03*
D19*
X230697500Y-127325135D03*
D18*
X230197500Y-123525135D03*
D21*
X239197500Y-129525135D03*
D22*
X227197500Y-127325135D03*
D18*
X138240194Y-152716480D03*
D19*
X134627374Y-153996141D03*
X130486308Y-150494488D03*
D20*
X135743246Y-147815944D03*
D19*
X130087469Y-145086075D03*
D18*
X133246298Y-142915408D03*
D23*
X131986174Y-153658410D03*
D24*
X128498502Y-141967552D03*
D18*
X161860092Y-140951630D03*
D19*
X162360642Y-144751558D03*
X158074532Y-148074097D03*
D20*
X156547500Y-142375135D03*
D19*
X152701383Y-147339748D03*
D18*
X151234908Y-143798640D03*
D25*
X161481155Y-147264823D03*
D26*
X149320643Y-148245615D03*
D18*
X260247500Y-85425135D03*
D19*
X259747500Y-89225135D03*
X254747500Y-91325135D03*
D20*
X254747500Y-85425135D03*
D19*
X249747500Y-89225135D03*
D18*
X249247500Y-85425135D03*
D21*
X258247500Y-91425135D03*
D22*
X246247500Y-89225135D03*
D18*
X260247500Y-104475135D03*
D19*
X259747500Y-108275135D03*
X254747500Y-110375135D03*
D20*
X254747500Y-104475135D03*
D19*
X249747500Y-108275135D03*
D18*
X249247500Y-104475135D03*
D21*
X258247500Y-110475135D03*
D22*
X246247500Y-108275135D03*
D18*
X260247500Y-123525135D03*
D19*
X259747500Y-127325135D03*
X254747500Y-129425135D03*
D20*
X254747500Y-123525135D03*
D19*
X249747500Y-127325135D03*
D18*
X249247500Y-123525135D03*
D21*
X258247500Y-129525135D03*
D22*
X246247500Y-127325135D03*
D18*
X222147500Y-61475135D03*
D19*
X221647500Y-65275135D03*
X216647500Y-67375135D03*
D20*
X216647500Y-61475135D03*
D19*
X211647500Y-65275135D03*
D18*
X211147500Y-61475135D03*
D21*
X220147500Y-67475135D03*
D22*
X208147500Y-65275135D03*
D27*
X245237500Y-75885135D03*
D13*
X155597500Y-92638135D03*
D14*
X157697500Y-92638135D03*
X161497500Y-92638135D03*
D15*
X163597500Y-92638135D03*
D13*
X174870000Y-90046885D03*
D14*
X176970000Y-90046885D03*
X180770000Y-90046885D03*
D15*
X182870000Y-90046885D03*
D13*
X193575500Y-87635135D03*
D14*
X195675500Y-87635135D03*
X199475500Y-87635135D03*
D15*
X201575500Y-87635135D03*
D13*
X212625500Y-90135135D03*
D14*
X214725500Y-90135135D03*
X218525500Y-90135135D03*
D15*
X220625500Y-90135135D03*
D13*
X231675500Y-95035135D03*
D14*
X233775500Y-95035135D03*
X237575500Y-95035135D03*
D15*
X239675500Y-95035135D03*
D13*
X250725500Y-95035135D03*
D14*
X252825500Y-95035135D03*
X256625500Y-95035135D03*
D15*
X258725500Y-95035135D03*
D18*
X241197500Y-66375135D03*
D19*
X240697500Y-70175135D03*
X235697500Y-72275135D03*
D20*
X235697500Y-66375135D03*
D19*
X230697500Y-70175135D03*
D18*
X230197500Y-66375135D03*
D21*
X239197500Y-72375135D03*
D22*
X227197500Y-70175135D03*
D18*
X184047500Y-80525135D03*
D19*
X183547500Y-84325135D03*
X178547500Y-86425135D03*
D20*
X178547500Y-80525135D03*
D19*
X173547500Y-84325135D03*
D18*
X173047500Y-80525135D03*
D21*
X182047500Y-86525135D03*
D22*
X170047500Y-84325135D03*
D18*
X222147500Y-80525135D03*
D19*
X221647500Y-84325135D03*
X216647500Y-86425135D03*
D20*
X216647500Y-80525135D03*
D19*
X211647500Y-84325135D03*
D18*
X211147500Y-80525135D03*
D21*
X220147500Y-86525135D03*
D22*
X208147500Y-84325135D03*
D18*
X203097500Y-78025135D03*
D19*
X202597500Y-81825135D03*
X197597500Y-83925135D03*
D20*
X197597500Y-78025135D03*
D19*
X192597500Y-81825135D03*
D18*
X192097500Y-78025135D03*
D21*
X201097500Y-84025135D03*
D22*
X189097500Y-81825135D03*
D18*
X222147500Y-99575135D03*
D19*
X221647500Y-103375135D03*
X216647500Y-105475135D03*
D20*
X216647500Y-99575135D03*
D19*
X211647500Y-103375135D03*
D18*
X211147500Y-99575135D03*
D21*
X220147500Y-105575135D03*
D22*
X208147500Y-103375135D03*
D18*
X260247500Y-66375135D03*
D19*
X259747500Y-70175135D03*
X254747500Y-72275135D03*
D20*
X254747500Y-66375135D03*
D19*
X249747500Y-70175135D03*
D18*
X249247500Y-66375135D03*
D21*
X258247500Y-72375135D03*
D22*
X246247500Y-70175135D03*
D18*
X222147500Y-137675135D03*
D19*
X221647500Y-141475135D03*
X216647500Y-143575135D03*
D20*
X216647500Y-137675135D03*
D19*
X211647500Y-141475135D03*
D18*
X211147500Y-137675135D03*
D21*
X220147500Y-143675135D03*
D22*
X208147500Y-141475135D03*
D18*
X241197500Y-85425135D03*
D19*
X240697500Y-89225135D03*
X235697500Y-91325135D03*
D20*
X235697500Y-85425135D03*
D19*
X230697500Y-89225135D03*
D18*
X230197500Y-85425135D03*
D21*
X239197500Y-91425135D03*
D22*
X227197500Y-89225135D03*
D18*
X222147500Y-118625135D03*
D19*
X221647500Y-122425135D03*
X216647500Y-124525135D03*
D20*
X216647500Y-118625135D03*
D19*
X211647500Y-122425135D03*
D18*
X211147500Y-118625135D03*
D21*
X220147500Y-124625135D03*
D22*
X208147500Y-122425135D03*
D18*
X241197500Y-104475135D03*
D19*
X240697500Y-108275135D03*
X235697500Y-110375135D03*
D20*
X235697500Y-104475135D03*
D19*
X230697500Y-108275135D03*
D18*
X230197500Y-104475135D03*
D21*
X239197500Y-110475135D03*
D22*
X227197500Y-108275135D03*
D18*
X203097500Y-135175135D03*
D19*
X202597500Y-138975135D03*
X197597500Y-141075135D03*
D20*
X197597500Y-135175135D03*
D19*
X192597500Y-138975135D03*
D18*
X192097500Y-135175135D03*
D21*
X201097500Y-141175135D03*
D22*
X189097500Y-138975135D03*
D18*
X203097500Y-97075135D03*
D19*
X202597500Y-100875135D03*
X197597500Y-102975135D03*
D20*
X197597500Y-97075135D03*
D19*
X192597500Y-100875135D03*
D18*
X192097500Y-97075135D03*
D21*
X201097500Y-103075135D03*
D22*
X189097500Y-100875135D03*
D18*
X184047500Y-61475135D03*
D19*
X183547500Y-65275135D03*
X178547500Y-67375135D03*
D20*
X178547500Y-61475135D03*
D19*
X173547500Y-65275135D03*
D18*
X173047500Y-61475135D03*
D21*
X182047500Y-67475135D03*
D22*
X170047500Y-65275135D03*
D28*
X155386297Y-152910276D03*
D29*
X157414741Y-152366756D03*
X161085259Y-151383244D03*
D15*
X163113703Y-150839724D03*
D18*
X184047500Y-118625135D03*
D19*
X183547500Y-122425135D03*
X178547500Y-124525135D03*
D20*
X178547500Y-118625135D03*
D19*
X173547500Y-122425135D03*
D18*
X173047500Y-118625135D03*
D21*
X182047500Y-124625135D03*
D22*
X170047500Y-122425135D03*
D13*
X193575500Y-106685135D03*
D14*
X195675500Y-106685135D03*
X199475500Y-106685135D03*
D15*
X201575500Y-106685135D03*
D13*
X231675500Y-114085135D03*
D14*
X233775500Y-114085135D03*
X237575500Y-114085135D03*
D15*
X239675500Y-114085135D03*
D13*
X250725500Y-114085135D03*
D14*
X252825500Y-114085135D03*
X256625500Y-114085135D03*
D15*
X258725500Y-114085135D03*
D13*
X174870000Y-147196885D03*
D14*
X176970000Y-147196885D03*
X180770000Y-147196885D03*
D15*
X182870000Y-147196885D03*
D13*
X193575500Y-144785135D03*
D14*
X195675500Y-144785135D03*
X199475500Y-144785135D03*
D15*
X201575500Y-144785135D03*
D13*
X250725500Y-133135135D03*
D14*
X252825500Y-133135135D03*
X256625500Y-133135135D03*
D15*
X258725500Y-133135135D03*
D13*
X174870000Y-128146885D03*
D14*
X176970000Y-128146885D03*
X180770000Y-128146885D03*
D15*
X182870000Y-128146885D03*
D13*
X193575500Y-125735135D03*
D14*
X195675500Y-125735135D03*
X199475500Y-125735135D03*
D15*
X201575500Y-125735135D03*
D13*
X212625500Y-128235135D03*
D14*
X214725500Y-128235135D03*
X218525500Y-128235135D03*
D15*
X220625500Y-128235135D03*
D13*
X231708000Y-133020135D03*
D14*
X233808000Y-133020135D03*
X237608000Y-133020135D03*
D15*
X239708000Y-133020135D03*
D13*
X174870000Y-109096885D03*
D14*
X176970000Y-109096885D03*
X180770000Y-109096885D03*
D15*
X182870000Y-109096885D03*
D13*
X212625500Y-147285135D03*
D14*
X214725500Y-147285135D03*
X218525500Y-147285135D03*
D15*
X220625500Y-147285135D03*
D18*
X184047500Y-137675135D03*
D19*
X183547500Y-141475135D03*
X178547500Y-143575135D03*
D20*
X178547500Y-137675135D03*
D19*
X173547500Y-141475135D03*
D18*
X173047500Y-137675135D03*
D21*
X182047500Y-143675135D03*
D22*
X170047500Y-141475135D03*
D27*
X168387500Y-73485135D03*
X168477500Y-111435135D03*
D30*
X-14697506Y-119405135D03*
D31*
X-14697506Y-117905135D03*
D32*
X-20297506Y-117905135D03*
D31*
X-20297506Y-119405135D03*
D18*
X83237500Y-102075135D03*
D19*
X82737500Y-105875135D03*
X77737500Y-107975135D03*
D20*
X77737500Y-102075135D03*
D19*
X72737500Y-105875135D03*
D18*
X72237500Y-102075135D03*
D21*
X81237500Y-108075135D03*
D22*
X69237500Y-105875135D03*
D33*
X175732506Y-55855135D03*
D32*
X175732506Y-57355135D03*
D31*
X181332506Y-57355135D03*
D32*
X181332506Y-55855135D03*
D34*
X-13490500Y-95035135D03*
D35*
X-15590500Y-95035135D03*
X-19390500Y-95035135D03*
D15*
X-21490500Y-95035135D03*
D36*
X152373861Y-137675206D03*
D37*
X152762090Y-139124095D03*
D38*
X158171275Y-137674708D03*
D37*
X157783046Y-136225819D03*
D39*
X122555000Y-92325135D03*
X122555000Y-94865135D03*
X122555000Y-97405135D03*
D40*
X122555000Y-99945135D03*
D33*
X232882506Y-98855135D03*
D32*
X232882506Y-100355135D03*
D31*
X238482506Y-100355135D03*
D32*
X238482506Y-98855135D03*
D41*
X139472722Y-142756340D03*
D42*
X138136213Y-143437326D03*
D43*
X140678560Y-148426962D03*
D42*
X142015069Y-147745976D03*
D18*
X83237500Y-63975135D03*
D19*
X82737500Y-67775135D03*
X77737500Y-69875135D03*
D20*
X77737500Y-63975135D03*
D19*
X72737500Y-67775135D03*
D18*
X72237500Y-63975135D03*
D21*
X81237500Y-69975135D03*
D22*
X69237500Y-67775135D03*
D44*
X114650000Y-58160135D03*
D45*
X114650000Y-56300135D03*
D46*
X114650000Y-52450135D03*
D47*
X114650000Y-50540135D03*
D18*
X164997500Y-121125135D03*
D19*
X164497500Y-124925135D03*
X159497500Y-127025135D03*
D20*
X159497500Y-121125135D03*
D19*
X154497500Y-124925135D03*
D18*
X153997500Y-121125135D03*
D21*
X162997500Y-127125135D03*
D22*
X150997500Y-124925135D03*
D30*
X42452494Y-73905135D03*
D31*
X42452494Y-72405135D03*
D32*
X36852494Y-72405135D03*
D31*
X36852494Y-73905135D03*
D30*
X42452494Y-54855135D03*
D31*
X42452494Y-53355135D03*
D32*
X36852494Y-53355135D03*
D31*
X36852494Y-54855135D03*
D30*
X-14697506Y-62255135D03*
D31*
X-14697506Y-60755135D03*
D32*
X-20297506Y-60755135D03*
D31*
X-20297506Y-62255135D03*
D34*
X24609500Y-109185135D03*
D35*
X22509500Y-109185135D03*
X18709500Y-109185135D03*
D15*
X16609500Y-109185135D03*
D33*
X232882506Y-79805135D03*
D32*
X232882506Y-81305135D03*
D31*
X238482506Y-81305135D03*
D32*
X238482506Y-79805135D03*
D48*
X118625000Y-130000000D03*
D34*
X43659500Y-125735135D03*
D35*
X41559500Y-125735135D03*
X37759500Y-125735135D03*
D15*
X35659500Y-125735135D03*
D18*
X-12012501Y-85425135D03*
D19*
X-12512501Y-89225135D03*
X-17512501Y-91325135D03*
D20*
X-17512501Y-85425135D03*
D19*
X-22512501Y-89225135D03*
D18*
X-23012501Y-85425135D03*
D21*
X-14012501Y-91425135D03*
D22*
X-26012501Y-89225135D03*
D33*
X232882506Y-60755135D03*
D32*
X232882506Y-62255135D03*
D31*
X238482506Y-62255135D03*
D32*
X238482506Y-60755135D03*
D33*
X232882506Y-117905135D03*
D32*
X232882506Y-119405135D03*
D31*
X238482506Y-119405135D03*
D32*
X238482506Y-117905135D03*
D30*
X23402494Y-133555135D03*
D31*
X23402494Y-132055135D03*
D32*
X17802494Y-132055135D03*
D31*
X17802494Y-133555135D03*
D18*
X7037500Y-66375135D03*
D19*
X6537500Y-70175135D03*
X1537500Y-72275135D03*
D20*
X1537500Y-66375135D03*
D19*
X-3462500Y-70175135D03*
D18*
X-3962500Y-66375135D03*
D21*
X5037500Y-72375135D03*
D22*
X-6962500Y-70175135D03*
D44*
X122585000Y-58160135D03*
D45*
X122585000Y-56300135D03*
D46*
X122585000Y-52450135D03*
D47*
X122585000Y-50540135D03*
D49*
X-26790000Y-133000000D03*
D34*
X62365001Y-70996885D03*
D35*
X60265001Y-70996885D03*
X56465001Y-70996885D03*
D15*
X54365001Y-70996885D03*
D33*
X175732506Y-74905135D03*
D32*
X175732506Y-76405135D03*
D31*
X181332506Y-76405135D03*
D32*
X181332506Y-74905135D03*
D34*
X43659500Y-106685135D03*
D35*
X41559500Y-106685135D03*
X37759500Y-106685135D03*
D15*
X35659500Y-106685135D03*
D18*
X26087500Y-118625135D03*
D19*
X25587500Y-122425135D03*
X20587500Y-124525135D03*
D20*
X20587500Y-118625135D03*
D19*
X15587500Y-122425135D03*
D18*
X15087500Y-118625135D03*
D21*
X24087500Y-124625135D03*
D22*
X12087500Y-122425135D03*
D33*
X213832506Y-113005135D03*
D32*
X213832506Y-114505135D03*
D31*
X219432506Y-114505135D03*
D32*
X219432506Y-113005135D03*
D18*
X7037501Y-85425135D03*
D19*
X6537501Y-89225135D03*
X1537501Y-91325135D03*
D20*
X1537501Y-85425135D03*
D19*
X-3462499Y-89225135D03*
D18*
X-3962499Y-85425135D03*
D21*
X5037501Y-91425135D03*
D22*
X-6962499Y-89225135D03*
D30*
X23402494Y-95455135D03*
D31*
X23402494Y-93955135D03*
D32*
X17802494Y-93955135D03*
D31*
X17802494Y-95455135D03*
D33*
X194782506Y-110505135D03*
D32*
X194782506Y-112005135D03*
D31*
X200382506Y-112005135D03*
D32*
X200382506Y-110505135D03*
D30*
X-14697506Y-100355135D03*
D31*
X-14697506Y-98855135D03*
D32*
X-20297506Y-98855135D03*
D31*
X-20297506Y-100355135D03*
D18*
X45137500Y-78025135D03*
D19*
X44637500Y-81825135D03*
X39637500Y-83925135D03*
D20*
X39637500Y-78025135D03*
D19*
X34637500Y-81825135D03*
D18*
X34137500Y-78025135D03*
D21*
X43137500Y-84025135D03*
D22*
X31137500Y-81825135D03*
D18*
X-12012500Y-66375135D03*
D19*
X-12512500Y-70175135D03*
X-17512500Y-72275135D03*
D20*
X-17512500Y-66375135D03*
D19*
X-22512500Y-70175135D03*
D18*
X-23012500Y-66375135D03*
D21*
X-14012500Y-72375135D03*
D22*
X-26012500Y-70175135D03*
D50*
X105367500Y-111295135D03*
D51*
X104517500Y-111295135D03*
D52*
X103347500Y-111295135D03*
D53*
X102827500Y-111295135D03*
D18*
X7037500Y-104475135D03*
D19*
X6537500Y-108275135D03*
X1537500Y-110375135D03*
D20*
X1537500Y-104475135D03*
D19*
X-3462500Y-108275135D03*
D18*
X-3962500Y-104475135D03*
D21*
X5037500Y-110475135D03*
D22*
X-6962500Y-108275135D03*
D18*
X45137500Y-116125135D03*
D19*
X44637500Y-119925135D03*
X39637500Y-122025135D03*
D20*
X39637500Y-116125135D03*
D19*
X34637500Y-119925135D03*
D18*
X34137500Y-116125135D03*
D21*
X43137500Y-122125135D03*
D22*
X31137500Y-119925135D03*
D30*
X23402494Y-76405135D03*
D31*
X23402494Y-74905135D03*
D32*
X17802494Y-74905135D03*
D31*
X17802494Y-76405135D03*
D34*
X62365000Y-109096885D03*
D35*
X60265000Y-109096885D03*
X56465000Y-109096885D03*
D15*
X54365000Y-109096885D03*
D39*
X147857500Y-100025135D03*
X147857500Y-97485135D03*
X147857500Y-94945135D03*
D54*
X147857500Y-92405135D03*
D33*
X251932506Y-98855135D03*
D32*
X251932506Y-100355135D03*
D31*
X257532506Y-100355135D03*
D32*
X257532506Y-98855135D03*
D18*
X64187500Y-80525135D03*
D19*
X63687500Y-84325135D03*
X58687500Y-86425135D03*
D20*
X58687500Y-80525135D03*
D19*
X53687500Y-84325135D03*
D18*
X53187500Y-80525135D03*
D21*
X62187500Y-86525135D03*
D22*
X50187500Y-84325135D03*
D18*
X26087500Y-99575135D03*
D19*
X25587500Y-103375135D03*
X20587500Y-105475135D03*
D20*
X20587500Y-99575135D03*
D19*
X15587500Y-103375135D03*
D18*
X15087500Y-99575135D03*
D21*
X24087500Y-105575135D03*
D22*
X12087500Y-103375135D03*
D13*
X212625500Y-109185135D03*
D14*
X214725500Y-109185135D03*
X218525500Y-109185135D03*
D15*
X220625500Y-109185135D03*
D30*
X23402494Y-114505135D03*
D31*
X23402494Y-113005135D03*
D32*
X17802494Y-113005135D03*
D31*
X17802494Y-114505135D03*
D34*
X-13490500Y-114085135D03*
D35*
X-15590500Y-114085135D03*
X-19390500Y-114085135D03*
D15*
X-21490500Y-114085135D03*
D30*
X61502494Y-133555135D03*
D31*
X61502494Y-132055135D03*
D32*
X55902494Y-132055135D03*
D31*
X55902494Y-133555135D03*
D55*
X263000000Y-62800000D03*
D33*
X156682506Y-96455135D03*
D32*
X156682506Y-97955135D03*
D31*
X162282506Y-97955135D03*
D32*
X162282506Y-96455135D03*
D30*
X80552494Y-97955134D03*
D31*
X80552494Y-96455134D03*
D32*
X74952494Y-96455134D03*
D31*
X74952494Y-97955134D03*
D30*
X4352494Y-100355135D03*
D31*
X4352494Y-98855135D03*
D32*
X-1247506Y-98855135D03*
D31*
X-1247506Y-100355135D03*
D33*
X213832506Y-74905135D03*
D32*
X213832506Y-76405135D03*
D31*
X219432506Y-76405135D03*
D32*
X219432506Y-74905135D03*
D30*
X4352494Y-119405135D03*
D31*
X4352494Y-117905135D03*
D32*
X-1247506Y-117905135D03*
D31*
X-1247506Y-119405135D03*
D34*
X43659500Y-144785135D03*
D35*
X41559500Y-144785135D03*
X37759500Y-144785135D03*
D15*
X35659500Y-144785135D03*
D56*
X169022500Y-95345135D03*
X188072500Y-76295135D03*
X188072500Y-114395135D03*
X207122500Y-95345135D03*
D18*
X103988702Y-142915408D03*
D19*
X107147531Y-145086075D03*
X106748692Y-150494488D03*
D20*
X101491754Y-147815944D03*
D19*
X102607626Y-153996141D03*
D18*
X98994806Y-152716480D03*
D57*
X108426760Y-147421364D03*
D58*
X101018660Y-157114663D03*
D34*
X62365000Y-147196885D03*
D35*
X60265000Y-147196885D03*
X56465000Y-147196885D03*
D15*
X54365000Y-147196885D03*
D33*
X175732506Y-113005135D03*
D32*
X175732506Y-114505135D03*
D31*
X181332506Y-114505135D03*
D32*
X181332506Y-113005135D03*
D33*
X251932506Y-60755135D03*
D32*
X251932506Y-62255135D03*
D31*
X257532506Y-62255135D03*
D32*
X257532506Y-60755135D03*
D18*
X-12012500Y-123525135D03*
D19*
X-12512500Y-127325135D03*
X-17512500Y-129425135D03*
D20*
X-17512500Y-123525135D03*
D19*
X-22512500Y-127325135D03*
D18*
X-23012500Y-123525135D03*
D21*
X-14012500Y-129525135D03*
D22*
X-26012500Y-127325135D03*
D59*
X84472910Y-139124095D03*
D60*
X84861139Y-137675206D03*
D61*
X79451954Y-136225819D03*
D60*
X79063725Y-137674708D03*
D30*
X42452494Y-92955135D03*
D31*
X42452494Y-91455135D03*
D32*
X36852494Y-91455135D03*
D31*
X36852494Y-92955135D03*
D18*
X26087500Y-80525135D03*
D19*
X25587500Y-84325135D03*
X20587500Y-86425135D03*
D20*
X20587500Y-80525135D03*
D19*
X15587500Y-84325135D03*
D18*
X15087500Y-80525135D03*
D21*
X24087500Y-86525135D03*
D22*
X12087500Y-84325135D03*
D34*
X5559500Y-95035135D03*
D35*
X3459500Y-95035135D03*
X-340500Y-95035135D03*
D15*
X-2440500Y-95035135D03*
D34*
X43659500Y-68620135D03*
D35*
X41559500Y-68620135D03*
X37759500Y-68620135D03*
D15*
X35659500Y-68620135D03*
D62*
X99098787Y-143437326D03*
D63*
X97762278Y-142756340D03*
D64*
X95219931Y-147745976D03*
D63*
X96556440Y-148426962D03*
D34*
X24609500Y-71085135D03*
D35*
X22509500Y-71085135D03*
X18709500Y-71085135D03*
D15*
X16609500Y-71085135D03*
D33*
X156682506Y-58355135D03*
D32*
X156682506Y-59855135D03*
D31*
X162282506Y-59855135D03*
D32*
X162282506Y-58355135D03*
D30*
X61502494Y-76405135D03*
D31*
X61502494Y-74905135D03*
D32*
X55902494Y-74905135D03*
D31*
X55902494Y-76405135D03*
D65*
X255752500Y-58135135D03*
X257752500Y-58135135D03*
X263212500Y-58135135D03*
X265752500Y-58135135D03*
D33*
X194782506Y-53355135D03*
D32*
X194782506Y-54855135D03*
D31*
X200382506Y-54855135D03*
D32*
X200382506Y-53355135D03*
D30*
X80552494Y-59855135D03*
D31*
X80552494Y-58355135D03*
D32*
X74952494Y-58355135D03*
D31*
X74952494Y-59855135D03*
D33*
X194782506Y-129555135D03*
D32*
X194782506Y-131055135D03*
D31*
X200382506Y-131055135D03*
D32*
X200382506Y-129555135D03*
D34*
X81637500Y-92638135D03*
D35*
X79537500Y-92638135D03*
X75737500Y-92638135D03*
D15*
X73637500Y-92638135D03*
D34*
X-13490500Y-133135135D03*
D35*
X-15590500Y-133135135D03*
X-19390500Y-133135135D03*
D15*
X-21490500Y-133135135D03*
D49*
X262000000Y-56000000D03*
D33*
X194782506Y-72405135D03*
D32*
X194782506Y-73905135D03*
D31*
X200382506Y-73905135D03*
D32*
X200382506Y-72405135D03*
D34*
X24609500Y-128235135D03*
D35*
X22509500Y-128235135D03*
X18709500Y-128235135D03*
D15*
X16609500Y-128235135D03*
D34*
X81637500Y-73538135D03*
D35*
X79537500Y-73538135D03*
X75737500Y-73538135D03*
D15*
X73637500Y-73538135D03*
D18*
X45137500Y-97075135D03*
D19*
X44637500Y-100875135D03*
X39637500Y-102975135D03*
D20*
X39637500Y-97075135D03*
D19*
X34637500Y-100875135D03*
D18*
X34137500Y-97075135D03*
D21*
X43137500Y-103075135D03*
D22*
X31137500Y-100875135D03*
D18*
X45137500Y-135175134D03*
D19*
X44637500Y-138975134D03*
X39637500Y-141075134D03*
D20*
X39637500Y-135175134D03*
D19*
X34637500Y-138975134D03*
D18*
X34137500Y-135175134D03*
D21*
X43137500Y-141175134D03*
D22*
X31137500Y-138975134D03*
D30*
X61502494Y-114505136D03*
D31*
X61502494Y-113005136D03*
D32*
X55902494Y-113005136D03*
D31*
X55902494Y-114505136D03*
D18*
X64187500Y-61475136D03*
D19*
X63687500Y-65275136D03*
X58687500Y-67375136D03*
D20*
X58687500Y-61475136D03*
D19*
X53687500Y-65275136D03*
D18*
X53187500Y-61475136D03*
D21*
X62187500Y-67475136D03*
D22*
X50187500Y-65275136D03*
D27*
X142537500Y-134505135D03*
D18*
X164997500Y-83025135D03*
D19*
X164497500Y-86825135D03*
X159497500Y-88925135D03*
D20*
X159497500Y-83025135D03*
D19*
X154497500Y-86825135D03*
D18*
X153997500Y-83025135D03*
D21*
X162997500Y-89025135D03*
D22*
X150997500Y-86825135D03*
D30*
X23402495Y-57355135D03*
D31*
X23402495Y-55855135D03*
D32*
X17802495Y-55855135D03*
D31*
X17802495Y-57355135D03*
D33*
X175732506Y-132055135D03*
D32*
X175732506Y-133555135D03*
D31*
X181332506Y-133555135D03*
D32*
X181332506Y-132055135D03*
D34*
X62365000Y-128146885D03*
D35*
X60265000Y-128146885D03*
X56465000Y-128146885D03*
D15*
X54365000Y-128146885D03*
D18*
X26087500Y-137675135D03*
D19*
X25587500Y-141475135D03*
X20587500Y-143575135D03*
D20*
X20587500Y-137675135D03*
D19*
X15587500Y-141475135D03*
D18*
X15087500Y-137675135D03*
D21*
X24087500Y-143675135D03*
D22*
X12087500Y-141475135D03*
D18*
X26087500Y-61475135D03*
D19*
X25587500Y-65275135D03*
X20587500Y-67375135D03*
D20*
X20587500Y-61475135D03*
D19*
X15587500Y-65275135D03*
D18*
X15087500Y-61475135D03*
D21*
X24087500Y-67475135D03*
D22*
X12087500Y-65275135D03*
D30*
X42452494Y-131055135D03*
D31*
X42452494Y-129555135D03*
D32*
X36852494Y-129555135D03*
D31*
X36852494Y-131055135D03*
D18*
X64187500Y-137675135D03*
D19*
X63687500Y-141475135D03*
X58687500Y-143575135D03*
D20*
X58687500Y-137675135D03*
D19*
X53687500Y-141475135D03*
D18*
X53187500Y-137675135D03*
D21*
X62187500Y-143675135D03*
D22*
X50187500Y-141475135D03*
D27*
X144087500Y-104565135D03*
D34*
X24609501Y-147285135D03*
D35*
X22509501Y-147285135D03*
X18709501Y-147285135D03*
D15*
X16609501Y-147285135D03*
D33*
X156682506Y-77405135D03*
D32*
X156682506Y-78905135D03*
D31*
X162282506Y-78905135D03*
D32*
X162282506Y-77405135D03*
D33*
X213832506Y-55855135D03*
D32*
X213832506Y-57355135D03*
D31*
X219432506Y-57355135D03*
D32*
X219432506Y-55855135D03*
D33*
X156682506Y-115505135D03*
D32*
X156682506Y-117005135D03*
D31*
X162282506Y-117005135D03*
D32*
X162282506Y-115505135D03*
D34*
X43659500Y-87635135D03*
D35*
X41559500Y-87635135D03*
X37759500Y-87635135D03*
D15*
X35659500Y-87635135D03*
D30*
X80552495Y-117005135D03*
D31*
X80552495Y-115505135D03*
D32*
X74952495Y-115505135D03*
D31*
X74952495Y-117005135D03*
D33*
X213832506Y-93955135D03*
D32*
X213832506Y-95455135D03*
D31*
X219432506Y-95455135D03*
D32*
X219432506Y-93955135D03*
D18*
X64187500Y-118625135D03*
D19*
X63687500Y-122425135D03*
X58687500Y-124525135D03*
D20*
X58687500Y-118625135D03*
D19*
X53687500Y-122425135D03*
D18*
X53187500Y-118625135D03*
D21*
X62187500Y-124625135D03*
D22*
X50187500Y-122425135D03*
D66*
X131855000Y-111300000D03*
D67*
X132705000Y-111300000D03*
D68*
X133875000Y-111300000D03*
D69*
X134395000Y-111300000D03*
D48*
X118625000Y-95000000D03*
D34*
X5559500Y-114085135D03*
D35*
X3459500Y-114085135D03*
X-340500Y-114085135D03*
D15*
X-2440500Y-114085135D03*
D33*
X175732506Y-93955135D03*
D32*
X175732506Y-95455135D03*
D31*
X181332506Y-95455135D03*
D32*
X181332506Y-93955135D03*
D30*
X-14697506Y-81305135D03*
D31*
X-14697506Y-79805135D03*
D32*
X-20297506Y-79805135D03*
D31*
X-20297506Y-81305135D03*
D18*
X83237500Y-121125135D03*
D19*
X82737500Y-124925135D03*
X77737500Y-127025135D03*
D20*
X77737500Y-121125135D03*
D19*
X72737500Y-124925135D03*
D18*
X72237500Y-121125135D03*
D21*
X81237500Y-127125135D03*
D22*
X69237500Y-124925135D03*
D33*
X194782506Y-91455135D03*
D32*
X194782506Y-92955135D03*
D31*
X200382506Y-92955135D03*
D32*
X200382506Y-91455135D03*
D27*
X150957500Y-51092635D03*
D30*
X61502494Y-95455134D03*
D31*
X61502494Y-93955134D03*
D32*
X55902494Y-93955134D03*
D31*
X55902494Y-95455134D03*
D70*
X97751526Y-156241097D03*
D71*
X95880412Y-155287717D03*
X92494588Y-153562553D03*
D15*
X90623474Y-152609173D03*
D18*
X-12012500Y-104475135D03*
D19*
X-12512500Y-108275135D03*
X-17512500Y-110375135D03*
D20*
X-17512500Y-104475135D03*
D19*
X-22512500Y-108275135D03*
D18*
X-23012500Y-104475135D03*
D21*
X-14012500Y-110475135D03*
D22*
X-26012500Y-108275135D03*
D33*
X251932506Y-79805135D03*
D32*
X251932506Y-81305135D03*
D31*
X257532506Y-81305135D03*
D32*
X257532506Y-79805135D03*
D34*
X5527000Y-133020135D03*
D35*
X3427000Y-133020135D03*
X-373000Y-133020135D03*
D15*
X-2473000Y-133020135D03*
D30*
X42452494Y-112005135D03*
D31*
X42452494Y-110505135D03*
D32*
X36852494Y-110505135D03*
D31*
X36852494Y-112005135D03*
D48*
X118625000Y-54000000D03*
D27*
X245222500Y-114000135D03*
D34*
X62365000Y-90046885D03*
D35*
X60265000Y-90046885D03*
X56465000Y-90046885D03*
D15*
X54365000Y-90046885D03*
D30*
X61502494Y-57355135D03*
D31*
X61502494Y-55855135D03*
D32*
X55902494Y-55855135D03*
D31*
X55902494Y-57355135D03*
D34*
X5559500Y-75985135D03*
D35*
X3459500Y-75985135D03*
X-340500Y-75985135D03*
D15*
X-2440500Y-75985135D03*
D18*
X45137500Y-58975136D03*
D19*
X44637500Y-62775136D03*
X39637500Y-64875136D03*
D20*
X39637500Y-58975136D03*
D19*
X34637500Y-62775136D03*
D18*
X34137500Y-58975136D03*
D21*
X43137500Y-64975136D03*
D22*
X31137500Y-62775136D03*
D34*
X81637501Y-111638135D03*
D35*
X79537501Y-111638135D03*
X75737501Y-111638135D03*
D15*
X73637501Y-111638135D03*
D34*
X102287501Y-127015135D03*
D35*
X100187501Y-127015135D03*
X96387501Y-127015135D03*
D15*
X94287501Y-127015135D03*
D18*
X7037500Y-123525135D03*
D19*
X6537500Y-127325135D03*
X1537500Y-129425135D03*
D20*
X1537500Y-123525135D03*
D19*
X-3462500Y-127325135D03*
D18*
X-3962500Y-123525135D03*
D21*
X5037500Y-129525135D03*
D22*
X-6962500Y-127325135D03*
D18*
X64187500Y-99575135D03*
D19*
X63687500Y-103375135D03*
X58687500Y-105475135D03*
D20*
X58687500Y-99575135D03*
D19*
X53687500Y-103375135D03*
D18*
X53187500Y-99575135D03*
D21*
X62187500Y-105575135D03*
D22*
X50187500Y-103375135D03*
D34*
X24609500Y-90135135D03*
D35*
X22509500Y-90135135D03*
X18709500Y-90135135D03*
D15*
X16609500Y-90135135D03*
D34*
X-13490500Y-75985135D03*
D35*
X-15590500Y-75985135D03*
X-19390500Y-75985135D03*
D15*
X-21490500Y-75985135D03*
D30*
X4352494Y-81305135D03*
D31*
X4352494Y-79805135D03*
D32*
X-1247506Y-79805135D03*
D31*
X-1247506Y-81305135D03*
D33*
X251932506Y-117905135D03*
D32*
X251932506Y-119405135D03*
D31*
X257532506Y-119405135D03*
D32*
X257532506Y-117905135D03*
D72*
X81846001Y-152913135D03*
D73*
X79817557Y-152369615D03*
X76147039Y-151386103D03*
D15*
X74118595Y-150842583D03*
D33*
X213832506Y-132055135D03*
D32*
X213832506Y-133555135D03*
D31*
X219432506Y-133555135D03*
D32*
X219432506Y-132055135D03*
D30*
X4352494Y-62255135D03*
D31*
X4352494Y-60755135D03*
D32*
X-1247506Y-60755135D03*
D31*
X-1247506Y-62255135D03*
D27*
X124596533Y-114975135D03*
D34*
X81637500Y-130688135D03*
D35*
X79537500Y-130688135D03*
X75737500Y-130688135D03*
D15*
X73637500Y-130688135D03*
D18*
X86000092Y-143798640D03*
D19*
X84533617Y-147339748D03*
X79160468Y-148074097D03*
D20*
X80687500Y-142375135D03*
D19*
X74874358Y-144751558D03*
D18*
X75374908Y-140951630D03*
D74*
X82515326Y-149076557D03*
D75*
X71493618Y-143845691D03*
D30*
X80552494Y-78905135D03*
D31*
X80552494Y-77405135D03*
D32*
X74952494Y-77405135D03*
D31*
X74952494Y-78905135D03*
D76*
X128825000Y-105050000D03*
X121825000Y-105050000D03*
X128825000Y-106800000D03*
X121825000Y-106800000D03*
D77*
X132125000Y-107150000D03*
D78*
X130625000Y-102950000D03*
D79*
X126625000Y-102950000D03*
X123625000Y-102950000D03*
D39*
X147735000Y-72065135D03*
X147735000Y-82225135D03*
X147735000Y-69525135D03*
X147735000Y-79685135D03*
X147735000Y-66985135D03*
X147735000Y-74605135D03*
D40*
X147735000Y-64445135D03*
X147735000Y-77145135D03*
D56*
X68212500Y-95345135D03*
X49162500Y-114395135D03*
X49162500Y-76295135D03*
X30112500Y-95345135D03*
D80*
X122640500Y-127635000D03*
D81*
X122640500Y-120015000D03*
D82*
X122640500Y-122555000D03*
X122640500Y-125095000D03*
X122640500Y-130175000D03*
D39*
X114650000Y-72065135D03*
X114650000Y-82225135D03*
X114650000Y-69525135D03*
X114650000Y-79685135D03*
X114650000Y-66985135D03*
X114650000Y-74605135D03*
D40*
X114650000Y-64445135D03*
X114650000Y-77145135D03*
D83*
X129117500Y-120045135D03*
D82*
X129117500Y-122585135D03*
X129117500Y-125125135D03*
X129117500Y-127665135D03*
X129117500Y-130205135D03*
D83*
X111367500Y-120045135D03*
D82*
X111367500Y-122585135D03*
X111367500Y-125125135D03*
X111367500Y-127665135D03*
X111367500Y-130205135D03*
D27*
X94697500Y-134505135D03*
D76*
X108397500Y-106795135D03*
X115397500Y-106795135D03*
X108397500Y-105045135D03*
X115397500Y-105045135D03*
D84*
X105097500Y-104695135D03*
D85*
X106597500Y-108895135D03*
D79*
X110597500Y-108895135D03*
X113597500Y-108895135D03*
D27*
X112638467Y-114975135D03*
D83*
X125867500Y-120045135D03*
D82*
X125867500Y-122585135D03*
X125867500Y-125125135D03*
X125867500Y-127665135D03*
X125867500Y-130205135D03*
D86*
X114662500Y-60187635D03*
X114662500Y-62262635D03*
D80*
X114594500Y-127640135D03*
D81*
X114594500Y-120020135D03*
D82*
X114594500Y-122560135D03*
X114594500Y-125100135D03*
X114594500Y-130180135D03*
D87*
X125000000Y-50500000D03*
X125000000Y-53040000D03*
D88*
X125000000Y-55580000D03*
D87*
X125000000Y-58120000D03*
X125000000Y-60660000D03*
X125000000Y-63200000D03*
X125000000Y-65740000D03*
D88*
X125000000Y-68280000D03*
D87*
X125000000Y-70820000D03*
X125000000Y-73360000D03*
X125000000Y-75900000D03*
X125000000Y-78440000D03*
D88*
X125000000Y-80980000D03*
D87*
X125000000Y-83520000D03*
X125000000Y-86060000D03*
X125000000Y-88600000D03*
X125000000Y-91140000D03*
D88*
X125000000Y-93680000D03*
D87*
X125000000Y-96220000D03*
X125000000Y-98760000D03*
X142780000Y-98760000D03*
X142780000Y-96220000D03*
D88*
X142780000Y-93680000D03*
D87*
X142780000Y-91140000D03*
X142780000Y-88600000D03*
X142780000Y-86060000D03*
X142780000Y-83520000D03*
D88*
X142780000Y-80980000D03*
D87*
X142780000Y-78440000D03*
X142780000Y-75900000D03*
X142780000Y-73360000D03*
X142780000Y-70820000D03*
D88*
X142780000Y-68280000D03*
D87*
X142780000Y-65740000D03*
X142780000Y-63200000D03*
X142780000Y-60660000D03*
X142780000Y-58120000D03*
D88*
X142780000Y-55580000D03*
D87*
X142780000Y-53040000D03*
X142780000Y-50500000D03*
D18*
X72237500Y-83025135D03*
D19*
X72737500Y-86825135D03*
D20*
X77737500Y-83025135D03*
D19*
X77737500Y-88925135D03*
X82737500Y-86825135D03*
D18*
X83237500Y-83025135D03*
D21*
X81237500Y-89025135D03*
D89*
X69237500Y-86825135D03*
D87*
X91915000Y-50500000D03*
X91915000Y-53040000D03*
D88*
X91915000Y-55580000D03*
D87*
X91915000Y-58120000D03*
X91915000Y-60660000D03*
X91915000Y-63200000D03*
X91915000Y-65740000D03*
D88*
X91915000Y-68280000D03*
D87*
X91915000Y-70820000D03*
X91915000Y-73360000D03*
X91915000Y-75900000D03*
X91915000Y-78440000D03*
D88*
X91915000Y-80980000D03*
D87*
X91915000Y-83520000D03*
X91915000Y-86060000D03*
X91915000Y-88600000D03*
X91915000Y-91140000D03*
D88*
X91915000Y-93680000D03*
D87*
X91915000Y-96220000D03*
X91915000Y-98760000D03*
X109695000Y-98760000D03*
X109695000Y-96220000D03*
D88*
X109695000Y-93680000D03*
D87*
X109695000Y-91140000D03*
X109695000Y-88600000D03*
X109695000Y-86060000D03*
X109695000Y-83520000D03*
D88*
X109695000Y-80980000D03*
D87*
X109695000Y-78440000D03*
X109695000Y-75900000D03*
X109695000Y-73360000D03*
X109695000Y-70820000D03*
D88*
X109695000Y-68280000D03*
D87*
X109695000Y-65740000D03*
X109695000Y-63200000D03*
X109695000Y-60660000D03*
X109695000Y-58120000D03*
D88*
X109695000Y-55580000D03*
D87*
X109695000Y-53040000D03*
X109695000Y-50500000D03*
D65*
X-18517500Y-58135135D03*
X-20517500Y-58135135D03*
X-25977500Y-58135135D03*
X-28517500Y-58135135D03*
D27*
X93147500Y-104565135D03*
D90*
X-25615000Y-62725000D03*
D83*
X108117500Y-120045135D03*
D82*
X108117500Y-122585135D03*
X108117500Y-125125135D03*
X108117500Y-127665135D03*
X108117500Y-130205135D03*
D86*
X122572500Y-60187635D03*
X122572500Y-62262635D03*
D27*
X86277500Y-51092635D03*
D86*
X118675000Y-119987500D03*
X118675000Y-122062500D03*
D27*
X68757500Y-111435135D03*
D91*
X98287500Y-112875135D03*
X98287500Y-124075135D03*
D92*
X90787500Y-120975135D03*
X90787500Y-115975135D03*
X90787500Y-118475135D03*
X105287500Y-115975135D03*
X105287500Y-120975135D03*
D39*
X114680000Y-92325135D03*
X114680000Y-94865135D03*
X114680000Y-97405135D03*
D40*
X114680000Y-99945135D03*
D27*
X-7987500Y-114000135D03*
D39*
X89377500Y-100025134D03*
X89377500Y-97485134D03*
X89377500Y-94945134D03*
D54*
X89377500Y-92405134D03*
D91*
X138950000Y-124075000D03*
X138950000Y-112875000D03*
D92*
X146450000Y-115975000D03*
X146450000Y-120975000D03*
X146450000Y-118475000D03*
X131950000Y-120975000D03*
X131950000Y-115975000D03*
D27*
X68847500Y-73485135D03*
X-8002500Y-75885135D03*
M02*
