M48
; DRILL file {KiCad 7.0.10} date Fri Mar  1 16:38:10 2024
; FORMAT={-:-/ absolute / metric / decimal}
; #@! TF.CreationDate,2024-03-01T16:38:10-05:00
; #@! TF.GenerationSoftware,Kicad,Pcbnew,7.0.10
; #@! TF.FileFunction,Plated,1,2,PTH
FMAT,2
METRIC
; #@! TA.AperFunction,Plated,PTH,ViaDrill
T1C0.300
; #@! TA.AperFunction,Plated,PTH,ComponentDrill
T2C0.800
; #@! TA.AperFunction,Plated,PTH,ComponentDrill
T3C0.813
; #@! TA.AperFunction,Plated,PTH,ComponentDrill
T4C0.900
; #@! TA.AperFunction,Plated,PTH,ComponentDrill
T5C1.000
; #@! TA.AperFunction,Plated,PTH,ComponentDrill
T6C2.200
; #@! TA.AperFunction,Plated,PTH,ComponentDrill
T7C4.100
%
G90
G05
T1
X-24.9Y-68.3
X-23.497Y-100.725
X-23.497Y-120.925
X-23.475Y-87.175
X-23.45Y-76.625
X-23.4Y-68.3
X-21.997Y-100.725
X-21.997Y-120.925
X-21.975Y-87.175
X-21.95Y-76.625
X-20.275Y-61.35
X-20.247Y-79.775
X-19.707Y-99.605
X-19.668Y-80.555
X-19.668Y-118.655
X-18.547Y-63.275
X-18.547Y-101.375
X-18.547Y-120.425
X-18.247Y-70.215
X-15.848Y-127.2
X-15.723Y-108.2
X-15.688Y-89.045
X-13.298Y-63.375
X-12.997Y-82.275
X-12.947Y-101.375
X-12.947Y-120.425
X-11.672Y-61.575
X-11.672Y-80.625
X-11.672Y-99.675
X-11.672Y-118.725
X-5.247Y-119.375
X-4.447Y-79.425
X-4.397Y-106.175
X-3.747Y-117.925
X-3.747Y-119.375
X-2.998Y-96.995
X-2.947Y-79.425
X-2.897Y-106.175
X-2.643Y-77.904
X-2.197Y-80.375
X-1.823Y-99.65
X-1.148Y-81.425
X-0.847Y-100.6
X-0.802Y-99.595
X-0.777Y-80.595
X-0.627Y-118.655
X-0.607Y-61.505
X0.502Y-63.225
X0.502Y-120.425
X3.277Y-127.075
X3.277Y-108.2
X3.322Y-89.065
X5.872Y-70.235
X6.103Y-82.275
X6.103Y-120.425
X6.152Y-101.425
X7.152Y-63.35
X7.377Y-61.575
X7.377Y-80.625
X7.377Y-99.675
X7.377Y-118.725
X8.977Y-63.65
X11.152Y-55.575
X11.152Y-57.075
X14.602Y-82.175
X14.652Y-101.325
X14.652Y-120.275
X15.542Y-128.486
X16.102Y-82.175
X16.152Y-101.325
X16.152Y-120.275
X16.602Y-127.425
X18.372Y-94.705
X18.372Y-132.835
X18.392Y-113.805
X18.398Y-56.592
X18.422Y-75.685
X19.552Y-58.325
X19.552Y-77.375
X19.552Y-96.475
X19.552Y-115.475
X19.588Y-134.518
X22.152Y-141.2
X22.277Y-84.145
X22.277Y-103.2
X22.277Y-122.325
X24.922Y-65.175
X25.102Y-77.425
X25.152Y-58.325
X25.152Y-96.475
X25.152Y-134.575
X25.203Y-115.525
X25.752Y-97.125
X26.427Y-75.725
X26.427Y-94.775
X26.427Y-113.825
X26.427Y-132.875
X26.592Y-56.645
X26.644Y-114.983
X27.107Y-97.125
X27.602Y-114.025
X27.802Y-56.625
X28.202Y-76.875
X28.627Y-63.25
X28.752Y-132.125
X28.863Y-57.686
X29.252Y-75.825
X29.982Y-63.25
X30.052Y-130.875
X31.217Y-106.495
X31.667Y-124.275
X31.902Y-58.575
X32.252Y-88.025
X32.453Y-69.705
X32.861Y-59.533
X33.652Y-117.725
X33.703Y-79.675
X34.102Y-106.925
X34.402Y-90.475
X35.152Y-117.725
X35.203Y-79.675
X35.602Y-106.925
X35.902Y-90.475
X36.252Y-73.475
X36.302Y-111.425
X36.703Y-91.475
X36.752Y-92.925
X37.211Y-74.433
X37.252Y-112.375
X37.347Y-111.295
X37.372Y-130.345
X37.413Y-54.025
X37.44Y-73.233
X37.472Y-92.205
X38.538Y-55.895
X38.602Y-132.075
X38.762Y-138.435
X41.392Y-81.655
X41.402Y-100.7
X41.402Y-119.825
X43.902Y-62.695
X44.202Y-74.875
X44.203Y-55.825
X44.203Y-93.925
X44.203Y-112.975
X44.252Y-132.075
X45.477Y-54.065
X45.477Y-73.225
X45.477Y-92.275
X45.477Y-111.325
X45.477Y-130.375
X47.553Y-52.975
X48.613Y-54.036
X51.102Y-125.525
X51.892Y-138.686
X52.618Y-125.525
X52.752Y-101.175
X52.752Y-120.375
X52.953Y-137.625
X54.252Y-101.175
X54.252Y-120.375
X56.273Y-75.645
X56.422Y-56.605
X56.432Y-94.665
X56.447Y-132.82
X56.512Y-113.815
X56.652Y-82.175
X57.638Y-58.445
X57.652Y-77.475
X57.652Y-96.475
X57.652Y-115.525
X57.652Y-134.575
X58.152Y-82.175
X60.277Y-103.075
X60.402Y-84.135
X60.402Y-122.325
X60.427Y-141.35
X62.942Y-65.535
X63.252Y-58.325
X63.252Y-77.375
X63.252Y-96.525
X63.252Y-115.475
X63.252Y-134.575
X64.457Y-132.798
X64.528Y-56.675
X64.528Y-75.725
X64.528Y-94.775
X64.528Y-113.825
X64.802Y-76.975
X64.994Y-134.258
X65.802Y-75.975
X65.953Y-133.3
X66.302Y-111.4
X66.352Y-57.575
X66.48Y-73.347
X66.752Y-101.325
X66.775Y-63.175
X66.903Y-116.925
X67.413Y-58.636
X68.107Y-101.325
X68.13Y-63.175
X68.257Y-116.925
X69.453Y-135.875
X69.742Y-90.205
X69.927Y-131.95
X71.468Y-135.875
X71.552Y-80.325
X71.802Y-115.225
X72.253Y-98.175
X73.052Y-80.325
X73.302Y-115.225
X73.752Y-98.175
X73.953Y-52.6
X74.352Y-98.875
X75.272Y-116.37
X75.487Y-97.229
X75.522Y-59.145
X75.522Y-78.145
X75.752Y-98.875
X76.703Y-60.775
X76.703Y-79.975
X76.703Y-118.025
X77.775Y-50.025
X78.992Y-145.755
X79.075Y-53.3
X79.075Y-56.5
X79.278Y-124.7
X79.403Y-86.7
X79.412Y-105.815
X79.528Y-67.7
X79.778Y-136.65
X80.802Y-138.675
X82.302Y-60.925
X82.302Y-79.875
X82.302Y-118.075
X82.338Y-99.01
X83.75Y-97.458
X83.8Y-78.383
X83.815Y-59.213
X83.825Y-116.533
X84.0Y-75.2
X85.355Y-75.2
X86.752Y-140.275
X86.769Y-97.033
X87.202Y-71.225
X87.203Y-69.825
X87.502Y-59.125
X87.537Y-118.475
X87.877Y-138.75
X89.177Y-97.033
X89.552Y-118.475
X89.703Y-55.425
X89.703Y-56.925
X91.152Y-88.825
X92.502Y-149.075
X93.552Y-148.075
X94.319Y-148.733
X95.277Y-147.775
X97.002Y-149.275
X98.823Y-88.6
X99.203Y-148.825
X99.478Y-85.977
X100.103Y-78.491
X100.739Y-73.36
X100.877Y-141.9
X101.373Y-70.874
X101.902Y-143.625
X102.349Y-109.051
X102.387Y-102.056
X103.4Y-134.69
X104.755Y-134.69
X105.037Y-102.944
X105.05Y-101.994
X106.102Y-125.125
X107.502Y-126.525
X107.988Y-142.85
X109.181Y-97.457
X109.188Y-74.625
X109.193Y-66.985
X109.863Y-114.379
X110.662Y-114.385
X110.752Y-149.725
X128.248Y-149.725
X128.338Y-114.385
X129.137Y-114.379
X129.808Y-66.985
X129.812Y-74.625
X129.819Y-97.457
X131.012Y-142.85
X131.498Y-126.525
X132.898Y-125.125
X134.245Y-134.69
X134.7Y-102.05
X135.55Y-102.05
X135.6Y-134.69
X137.097Y-143.625
X137.626Y-70.874
X138.123Y-141.9
X138.261Y-73.36
X138.897Y-78.491
X139.522Y-85.977
X139.797Y-148.825
X140.177Y-88.6
X141.998Y-149.275
X143.722Y-147.775
X144.681Y-148.733
X145.447Y-148.075
X146.498Y-149.075
X147.847Y-88.825
X149.297Y-55.425
X149.297Y-56.925
X149.447Y-118.475
X149.822Y-97.033
X151.123Y-138.75
X151.463Y-118.475
X151.498Y-59.125
X151.797Y-69.825
X151.797Y-71.225
X152.231Y-97.033
X152.248Y-140.275
X153.645Y-75.2
X155.0Y-75.2
X155.175Y-116.533
X155.185Y-59.213
X155.2Y-78.383
X155.25Y-97.458
X156.662Y-99.01
X156.697Y-60.925
X156.697Y-79.875
X156.697Y-118.075
X157.852Y-52.377
X158.197Y-138.675
X159.222Y-136.65
X159.472Y-67.7
X159.512Y-105.74
X159.597Y-86.7
X159.722Y-124.7
X160.007Y-145.755
X162.297Y-60.775
X162.297Y-79.975
X162.297Y-118.025
X162.375Y-53.3
X162.375Y-56.5
X163.248Y-98.875
X163.477Y-59.145
X163.477Y-78.145
X163.513Y-97.229
X163.727Y-116.37
X164.647Y-98.875
X165.248Y-98.175
X165.697Y-115.225
X165.947Y-80.325
X166.748Y-98.175
X167.197Y-115.225
X167.447Y-80.325
X167.532Y-135.875
X169.072Y-131.95
X169.257Y-90.205
X169.547Y-135.875
X170.743Y-116.925
X170.87Y-63.175
X170.893Y-101.325
X171.587Y-58.636
X172.097Y-116.925
X172.225Y-63.175
X172.248Y-101.325
X172.52Y-73.347
X172.647Y-57.575
X172.697Y-111.4
X173.047Y-133.3
X173.197Y-75.975
X174.006Y-134.258
X174.197Y-76.975
X174.472Y-56.675
X174.472Y-75.725
X174.472Y-94.775
X174.472Y-113.825
X174.543Y-132.798
X175.748Y-58.325
X175.748Y-77.375
X175.748Y-96.525
X175.748Y-115.475
X175.748Y-134.575
X176.058Y-65.535
X178.572Y-141.35
X178.597Y-84.135
X178.597Y-122.325
X178.722Y-103.075
X180.847Y-82.175
X181.347Y-77.475
X181.347Y-96.475
X181.347Y-115.525
X181.347Y-134.575
X181.362Y-58.445
X182.347Y-82.175
X182.487Y-113.815
X182.552Y-132.82
X182.567Y-94.665
X182.577Y-56.605
X182.727Y-75.645
X184.748Y-101.175
X184.748Y-120.375
X186.047Y-137.625
X186.248Y-101.175
X186.248Y-120.375
X186.382Y-125.525
X187.108Y-138.686
X187.897Y-125.525
X190.387Y-54.036
X191.447Y-52.975
X193.522Y-54.065
X193.522Y-73.225
X193.522Y-92.275
X193.522Y-111.325
X193.522Y-130.375
X194.748Y-132.075
X194.797Y-55.825
X194.797Y-74.875
X194.797Y-93.925
X194.797Y-112.975
X195.097Y-62.695
X197.597Y-100.7
X197.597Y-119.825
X197.607Y-81.655
X200.237Y-138.435
X200.397Y-132.075
X200.462Y-55.895
X201.528Y-92.205
X201.56Y-73.233
X201.587Y-54.025
X201.627Y-130.345
X201.653Y-111.295
X201.748Y-112.375
X201.789Y-74.433
X202.248Y-92.925
X202.297Y-91.475
X202.697Y-111.425
X202.748Y-73.475
X203.097Y-90.475
X203.397Y-106.925
X203.797Y-79.675
X203.847Y-117.725
X204.597Y-90.475
X204.897Y-106.925
X205.297Y-79.675
X205.347Y-117.725
X206.139Y-59.533
X206.547Y-69.705
X206.748Y-88.025
X207.097Y-58.575
X207.332Y-124.275
X207.782Y-106.495
X208.947Y-130.875
X209.018Y-63.25
X209.748Y-75.825
X210.137Y-57.686
X210.248Y-132.125
X210.373Y-63.25
X210.797Y-76.875
X211.197Y-56.625
X211.397Y-114.025
X211.893Y-97.125
X212.356Y-114.983
X212.407Y-56.645
X212.572Y-75.725
X212.572Y-94.775
X212.572Y-113.825
X212.572Y-132.875
X213.248Y-97.125
X213.797Y-115.525
X213.847Y-58.325
X213.847Y-96.475
X213.847Y-134.575
X213.897Y-77.425
X214.077Y-65.175
X216.722Y-84.145
X216.722Y-103.2
X216.722Y-122.325
X216.847Y-141.2
X219.412Y-134.518
X219.447Y-58.325
X219.447Y-77.375
X219.447Y-96.475
X219.447Y-115.475
X220.577Y-75.685
X220.602Y-56.592
X220.607Y-113.805
X220.627Y-94.705
X220.627Y-132.835
X222.397Y-127.425
X222.847Y-101.325
X222.847Y-120.275
X222.897Y-82.175
X223.458Y-128.486
X224.347Y-101.325
X224.347Y-120.275
X224.397Y-82.175
X227.847Y-55.575
X227.847Y-57.075
X230.022Y-63.65
X231.623Y-61.575
X231.623Y-80.625
X231.623Y-99.675
X231.623Y-118.725
X231.847Y-63.35
X232.847Y-101.425
X232.897Y-82.275
X232.897Y-120.425
X233.127Y-70.235
X235.677Y-89.065
X235.722Y-108.2
X235.722Y-127.075
X238.498Y-63.225
X238.498Y-120.425
X239.607Y-61.505
X239.627Y-118.655
X239.777Y-80.595
X239.802Y-99.595
X239.847Y-100.6
X240.147Y-81.425
X240.822Y-99.65
X241.197Y-80.375
X241.642Y-77.904
X241.897Y-106.175
X241.947Y-79.425
X241.998Y-96.995
X242.748Y-117.925
X242.748Y-119.375
X243.397Y-106.175
X243.447Y-79.425
X244.248Y-119.375
X250.672Y-61.575
X250.672Y-80.625
X250.672Y-99.675
X250.672Y-118.725
X251.947Y-101.375
X251.947Y-120.425
X251.998Y-82.275
X252.297Y-63.375
X254.688Y-89.045
X254.722Y-108.2
X254.847Y-127.2
X257.248Y-70.215
X257.548Y-63.275
X257.548Y-101.375
X257.548Y-120.425
X258.667Y-80.555
X258.667Y-118.655
X258.707Y-99.605
X259.248Y-79.775
X259.586Y-61.636
X260.397Y-63.025
X260.998Y-81.375
X260.998Y-100.725
X260.998Y-120.925
X261.458Y-64.086
X261.575Y-71.65
X261.575Y-73.15
X262.498Y-81.375
X262.498Y-100.725
X262.498Y-120.925
T2
X83.052Y-49.41
X83.052Y-51.95
X93.68Y-50.5
X93.68Y-53.04
X93.68Y-55.58
X93.68Y-58.12
X93.68Y-60.66
X93.68Y-63.2
X93.68Y-65.74
X93.68Y-68.28
X93.68Y-70.82
X93.68Y-73.36
X93.68Y-75.9
X93.68Y-78.44
X93.68Y-80.98
X93.68Y-83.52
X93.68Y-86.06
X93.68Y-88.6
X93.68Y-91.14
X93.68Y-93.68
X93.68Y-96.22
X93.68Y-98.76
X96.22Y-50.5
X96.22Y-53.04
X96.22Y-55.58
X96.22Y-58.12
X96.22Y-60.66
X96.22Y-63.2
X96.22Y-65.74
X96.22Y-68.28
X96.22Y-70.82
X96.22Y-73.36
X96.22Y-75.9
X96.22Y-78.44
X96.22Y-80.98
X96.22Y-83.52
X96.22Y-86.06
X96.22Y-88.6
X96.22Y-91.14
X96.22Y-93.68
X96.22Y-96.22
X96.22Y-98.76
X104.593Y-111.295
X107.132Y-111.295
X111.46Y-50.5
X111.46Y-53.04
X111.46Y-55.58
X111.46Y-58.12
X111.46Y-60.66
X111.46Y-63.2
X111.46Y-65.74
X111.46Y-68.28
X111.46Y-70.82
X111.46Y-73.36
X111.46Y-75.9
X111.46Y-78.44
X111.46Y-80.98
X111.46Y-83.52
X111.46Y-86.06
X111.46Y-88.6
X111.46Y-91.14
X111.46Y-93.68
X111.46Y-96.22
X111.46Y-98.76
X114.0Y-50.5
X114.0Y-53.04
X114.0Y-55.58
X114.0Y-58.12
X114.0Y-60.66
X114.0Y-63.2
X114.0Y-65.74
X114.0Y-68.28
X114.0Y-70.82
X114.0Y-73.36
X114.0Y-75.9
X114.0Y-78.44
X114.0Y-80.98
X114.0Y-83.52
X114.0Y-86.06
X114.0Y-88.6
X114.0Y-91.14
X114.0Y-93.68
X114.0Y-96.22
X114.0Y-98.76
X125.0Y-50.5
X125.0Y-53.04
X125.0Y-55.58
X125.0Y-58.12
X125.0Y-60.66
X125.0Y-63.2
X125.0Y-65.74
X125.0Y-68.28
X125.0Y-70.82
X125.0Y-73.36
X125.0Y-75.9
X125.0Y-78.44
X125.0Y-80.98
X125.0Y-83.52
X125.0Y-86.06
X125.0Y-88.6
X125.0Y-91.14
X125.0Y-93.68
X125.0Y-96.22
X125.0Y-98.76
X127.54Y-50.5
X127.54Y-53.04
X127.54Y-55.58
X127.54Y-58.12
X127.54Y-60.66
X127.54Y-63.2
X127.54Y-65.74
X127.54Y-68.28
X127.54Y-70.82
X127.54Y-73.36
X127.54Y-75.9
X127.54Y-78.44
X127.54Y-80.98
X127.54Y-83.52
X127.54Y-86.06
X127.54Y-88.6
X127.54Y-91.14
X127.54Y-93.68
X127.54Y-96.22
X127.54Y-98.76
X131.855Y-111.3
X134.395Y-111.3
X142.78Y-50.5
X142.78Y-53.04
X142.78Y-55.58
X142.78Y-58.12
X142.78Y-60.66
X142.78Y-63.2
X142.78Y-65.74
X142.78Y-68.28
X142.78Y-70.82
X142.78Y-73.36
X142.78Y-75.9
X142.78Y-78.44
X142.78Y-80.98
X142.78Y-83.52
X142.78Y-86.06
X142.78Y-88.6
X142.78Y-91.14
X142.78Y-93.68
X142.78Y-96.22
X142.78Y-98.76
X145.32Y-50.5
X145.32Y-53.04
X145.32Y-55.58
X145.32Y-58.12
X145.32Y-60.66
X145.32Y-63.2
X145.32Y-65.74
X145.32Y-68.28
X145.32Y-70.82
X145.32Y-73.36
X145.32Y-75.9
X145.32Y-78.44
X145.32Y-80.98
X145.32Y-83.52
X145.32Y-86.06
X145.32Y-88.6
X145.32Y-91.14
X145.32Y-93.68
X145.32Y-96.22
X145.32Y-98.76
X155.947Y-49.41
X155.947Y-51.95
T3
X91.142Y-92.405
X91.142Y-94.945
X91.142Y-97.485
X91.142Y-100.025
X91.205Y-64.445
X91.205Y-66.985
X91.205Y-69.525
X91.205Y-72.065
X91.205Y-74.605
X91.205Y-77.145
X91.205Y-79.685
X91.205Y-82.225
X116.415Y-64.445
X116.415Y-66.985
X116.415Y-69.525
X116.415Y-72.065
X116.415Y-74.605
X116.415Y-77.145
X116.415Y-79.685
X116.415Y-82.225
X116.445Y-92.325
X116.445Y-94.865
X116.445Y-97.405
X116.445Y-99.945
X122.525Y-64.445
X122.525Y-66.985
X122.525Y-69.525
X122.525Y-72.065
X122.525Y-74.605
X122.525Y-77.145
X122.525Y-79.685
X122.525Y-82.225
X122.555Y-92.325
X122.555Y-94.865
X122.555Y-97.405
X122.555Y-99.945
X147.735Y-64.445
X147.735Y-66.985
X147.735Y-69.525
X147.735Y-72.065
X147.735Y-74.605
X147.735Y-77.145
X147.735Y-79.685
X147.735Y-82.225
X147.857Y-92.405
X147.857Y-94.945
X147.857Y-97.485
X147.857Y-100.025
T4
X-19.726Y-75.985
X-19.726Y-95.035
X-19.726Y-114.085
X-19.726Y-133.135
X-11.726Y-75.985
X-11.726Y-95.035
X-11.726Y-114.085
X-11.726Y-133.135
X-0.708Y-133.02
X-0.675Y-75.985
X-0.675Y-95.035
X-0.675Y-114.085
X7.292Y-133.02
X7.324Y-75.985
X7.324Y-95.035
X7.324Y-114.085
X18.374Y-71.085
X18.374Y-90.135
X18.374Y-109.185
X18.374Y-128.235
X18.375Y-147.285
X26.374Y-71.085
X26.374Y-90.135
X26.374Y-109.185
X26.374Y-128.235
X26.375Y-147.285
X37.424Y-68.62
X37.424Y-87.635
X37.424Y-106.685
X37.424Y-125.735
X37.424Y-144.785
X45.424Y-68.62
X45.424Y-87.635
X45.424Y-106.685
X45.424Y-125.735
X45.424Y-144.785
X56.13Y-90.047
X56.13Y-109.097
X56.13Y-128.147
X56.13Y-147.197
X56.13Y-70.997
X64.13Y-90.047
X64.13Y-109.097
X64.13Y-128.147
X64.13Y-147.197
X64.13Y-70.997
X75.403Y-73.538
X75.403Y-92.638
X75.403Y-130.688
X75.403Y-111.638
X75.884Y-150.843
X83.402Y-73.538
X83.402Y-92.638
X83.402Y-130.688
X83.403Y-111.638
X83.611Y-152.913
X92.388Y-152.609
X96.053Y-127.015
X99.517Y-156.241
X104.053Y-127.015
X116.415Y-50.54
X116.415Y-58.16
X122.585Y-50.54
X122.585Y-58.16
X134.947Y-127.015
X139.483Y-156.241
X142.947Y-127.015
X146.612Y-152.609
X155.386Y-152.91
X155.597Y-73.538
X155.597Y-92.638
X155.597Y-111.638
X155.597Y-130.688
X163.114Y-150.84
X163.597Y-73.538
X163.597Y-92.638
X163.597Y-111.638
X163.597Y-130.688
X174.87Y-70.997
X174.87Y-90.047
X174.87Y-109.097
X174.87Y-128.147
X174.87Y-147.197
X182.87Y-70.997
X182.87Y-90.047
X182.87Y-109.097
X182.87Y-128.147
X182.87Y-147.197
X193.576Y-68.62
X193.576Y-87.635
X193.576Y-106.685
X193.576Y-125.735
X193.576Y-144.785
X201.575Y-68.62
X201.575Y-87.635
X201.575Y-106.685
X201.575Y-125.735
X201.575Y-144.785
X212.625Y-71.085
X212.625Y-90.135
X212.625Y-109.185
X212.625Y-128.235
X212.625Y-147.285
X220.625Y-71.085
X220.625Y-90.135
X220.625Y-109.185
X220.625Y-128.235
X220.625Y-147.285
X231.675Y-75.985
X231.675Y-95.035
X231.675Y-114.085
X231.708Y-133.02
X239.675Y-75.985
X239.675Y-95.035
X239.675Y-114.085
X239.708Y-133.02
X250.725Y-75.985
X250.725Y-95.035
X250.725Y-114.085
X250.725Y-133.135
X258.726Y-75.985
X258.726Y-95.035
X258.726Y-114.085
X258.726Y-133.135
T5
X-23.85Y-62.725
X92.552Y-115.975
X92.552Y-118.475
X92.552Y-120.975
X107.052Y-115.975
X107.052Y-120.975
X109.882Y-120.045
X109.882Y-122.585
X109.882Y-125.125
X109.882Y-127.665
X109.882Y-130.205
X113.132Y-120.045
X113.132Y-122.585
X113.132Y-125.125
X113.132Y-127.665
X113.132Y-130.205
X116.359Y-120.02
X116.359Y-122.56
X116.359Y-125.1
X116.359Y-130.18
X122.64Y-120.015
X122.64Y-122.555
X122.64Y-125.095
X122.64Y-130.175
X125.867Y-120.045
X125.867Y-122.585
X125.867Y-125.125
X125.867Y-127.665
X125.867Y-130.205
X129.118Y-120.045
X129.118Y-122.585
X129.118Y-125.125
X129.118Y-127.665
X129.118Y-130.205
X131.95Y-115.975
X131.95Y-120.975
X146.45Y-115.975
X146.45Y-118.475
X146.45Y-120.975
X263.0Y-62.8
T6
X31.877Y-95.345
X50.927Y-76.295
X50.927Y-114.395
X69.977Y-95.345
X169.022Y-95.345
X188.072Y-76.295
X188.072Y-114.395
X207.123Y-95.345
T7
X-6.237Y-75.885
X-6.223Y-114.0
X70.522Y-111.435
X70.612Y-73.485
X88.042Y-51.093
X94.912Y-104.565
X96.462Y-134.505
X114.403Y-114.975
X124.597Y-114.975
X142.537Y-134.505
X144.088Y-104.565
X150.957Y-51.093
X168.387Y-73.485
X168.477Y-111.435
X245.222Y-114.0
X245.237Y-75.885
T5
X106.612Y-104.695G85X107.112Y-104.695
G05
X106.612Y-107.145G85X107.112Y-107.145
G05
X108.112Y-102.945G85X108.612Y-102.945
G05
X108.112Y-108.895G85X108.612Y-108.895
G05
X112.112Y-102.945G85X112.612Y-102.945
G05
X112.112Y-108.895G85X112.612Y-108.895
G05
X115.112Y-102.945G85X115.612Y-102.945
G05
X115.112Y-108.895G85X115.612Y-108.895
G05
X123.875Y-102.95G85X123.375Y-102.95
G05
X123.875Y-108.9G85X123.375Y-108.9
G05
X126.875Y-102.95G85X126.375Y-102.95
G05
X126.875Y-108.9G85X126.375Y-108.9
G05
X130.875Y-102.95G85X130.375Y-102.95
G05
X130.875Y-108.9G85X130.375Y-108.9
G05
X132.375Y-104.7G85X131.875Y-104.7
G05
X132.375Y-107.15G85X131.875Y-107.15
G05
M30
