M48
; DRILL file {KiCad 7.0.10} date Fri Mar  1 16:38:10 2024
; FORMAT={-:-/ absolute / metric / decimal}
; #@! TF.CreationDate,2024-03-01T16:38:10-05:00
; #@! TF.GenerationSoftware,Kicad,Pcbnew,7.0.10
; #@! TF.FileFunction,NonPlated,1,2,NPTH
FMAT,2
METRIC
; #@! TA.AperFunction,NonPlated,NPTH,ComponentDrill
T1C0.800
; #@! TA.AperFunction,NonPlated,NPTH,ComponentDrill
T2C1.000
; #@! TA.AperFunction,NonPlated,NPTH,ComponentDrill
T3C1.152
; #@! TA.AperFunction,NonPlated,NPTH,ComponentDrill
T4C1.200
; #@! TA.AperFunction,NonPlated,NPTH,ComponentDrill
T5C1.500
; #@! TA.AperFunction,NonPlated,NPTH,ComponentDrill
T6C1.900
; #@! TA.AperFunction,NonPlated,NPTH,ComponentDrill
T7C3.050
; #@! TA.AperFunction,NonPlated,NPTH,ComponentDrill
T8C3.400
%
G90
G05
T1
X-26.752Y-58.135
X-24.212Y-58.135
X-18.752Y-58.135
X-16.752Y-58.135
X255.752Y-58.135
X257.752Y-58.135
X263.212Y-58.135
X265.752Y-58.135
T2
X116.359Y-127.64
X122.64Y-127.635
T3
X-25.025Y-133.0
X262.0Y-56.0
T4
X110.162Y-105.045
X110.162Y-106.795
X117.162Y-105.045
X117.162Y-106.795
X121.825Y-105.05
X121.825Y-106.8
X128.825Y-105.05
X128.825Y-106.8
T6
X-21.248Y-85.425
X-21.247Y-66.375
X-21.247Y-104.475
X-21.247Y-123.525
X-10.248Y-85.425
X-10.247Y-66.375
X-10.247Y-104.475
X-10.247Y-123.525
X-2.197Y-66.375
X-2.197Y-104.475
X-2.197Y-123.525
X-2.197Y-85.425
X8.803Y-66.375
X8.803Y-104.475
X8.803Y-123.525
X8.803Y-85.425
X16.852Y-61.475
X16.852Y-80.525
X16.852Y-99.575
X16.852Y-118.625
X16.852Y-137.675
X27.852Y-61.475
X27.852Y-80.525
X27.852Y-99.575
X27.852Y-118.625
X27.852Y-137.675
X35.902Y-58.975
X35.902Y-78.025
X35.902Y-97.075
X35.902Y-116.125
X35.902Y-135.175
X46.902Y-58.975
X46.902Y-78.025
X46.902Y-97.075
X46.902Y-116.125
X46.902Y-135.175
X54.953Y-61.475
X54.953Y-80.525
X54.953Y-99.575
X54.953Y-118.625
X54.953Y-137.675
X65.953Y-61.475
X65.953Y-80.525
X65.953Y-99.575
X65.953Y-118.625
X65.953Y-137.675
X74.002Y-63.975
X74.002Y-83.025
X74.002Y-102.075
X74.002Y-121.125
X77.14Y-140.952
X85.002Y-63.975
X85.002Y-83.025
X85.002Y-102.075
X85.002Y-121.125
X87.765Y-143.799
X100.76Y-152.716
X105.754Y-142.915
X133.246Y-142.915
X138.24Y-152.716
X151.235Y-143.799
X153.998Y-63.975
X153.998Y-83.025
X153.998Y-102.075
X153.998Y-121.125
X161.86Y-140.952
X164.998Y-63.975
X164.998Y-83.025
X164.998Y-102.075
X164.998Y-121.125
X173.047Y-61.475
X173.047Y-80.525
X173.047Y-99.575
X173.047Y-118.625
X173.047Y-137.675
X184.047Y-61.475
X184.047Y-80.525
X184.047Y-99.575
X184.047Y-118.625
X184.047Y-137.675
X192.097Y-58.975
X192.097Y-78.025
X192.097Y-97.075
X192.097Y-116.125
X192.097Y-135.175
X203.097Y-58.975
X203.097Y-78.025
X203.097Y-97.075
X203.097Y-116.125
X203.097Y-135.175
X211.147Y-61.475
X211.147Y-80.525
X211.147Y-99.575
X211.147Y-118.625
X211.147Y-137.675
X222.147Y-61.475
X222.147Y-80.525
X222.147Y-99.575
X222.147Y-118.625
X222.147Y-137.675
X230.197Y-66.375
X230.197Y-85.425
X230.197Y-104.475
X230.197Y-123.525
X241.197Y-66.375
X241.197Y-85.425
X241.197Y-104.475
X241.197Y-123.525
X249.248Y-66.375
X249.248Y-85.425
X249.248Y-104.475
X249.248Y-123.525
X260.248Y-66.375
X260.248Y-85.425
X260.248Y-104.475
X260.248Y-123.525
T7
X-20.748Y-89.225
X-20.747Y-70.175
X-20.747Y-108.275
X-20.747Y-127.325
X-15.748Y-91.325
X-15.747Y-72.275
X-15.747Y-110.375
X-15.747Y-129.425
X-10.748Y-89.225
X-10.747Y-70.175
X-10.747Y-108.275
X-10.747Y-127.325
X-1.698Y-70.175
X-1.698Y-108.275
X-1.698Y-127.325
X-1.697Y-89.225
X3.302Y-72.275
X3.302Y-110.375
X3.302Y-129.425
X3.303Y-91.325
X8.303Y-70.175
X8.303Y-108.275
X8.303Y-127.325
X8.303Y-89.225
X17.352Y-65.275
X17.352Y-84.325
X17.352Y-103.375
X17.352Y-122.425
X17.352Y-141.475
X22.352Y-67.375
X22.352Y-86.425
X22.352Y-105.475
X22.352Y-124.525
X22.352Y-143.575
X27.352Y-65.275
X27.352Y-84.325
X27.352Y-103.375
X27.352Y-122.425
X27.352Y-141.475
X36.402Y-62.775
X36.402Y-81.825
X36.402Y-100.875
X36.402Y-119.925
X36.402Y-138.975
X41.402Y-64.875
X41.402Y-83.925
X41.402Y-102.975
X41.402Y-122.025
X41.402Y-141.075
X46.402Y-62.775
X46.402Y-81.825
X46.402Y-100.875
X46.402Y-119.925
X46.402Y-138.975
X55.453Y-65.275
X55.453Y-84.325
X55.453Y-103.375
X55.453Y-122.425
X55.453Y-141.475
X60.453Y-67.375
X60.453Y-86.425
X60.453Y-105.475
X60.453Y-124.525
X60.453Y-143.575
X65.453Y-65.275
X65.453Y-84.325
X65.453Y-103.375
X65.453Y-122.425
X65.453Y-141.475
X74.502Y-67.775
X74.502Y-86.825
X74.502Y-105.875
X74.502Y-124.925
X76.639Y-144.752
X79.502Y-69.875
X79.502Y-88.925
X79.502Y-107.975
X79.502Y-127.025
X80.925Y-148.074
X84.502Y-67.775
X84.502Y-86.825
X84.502Y-105.875
X84.502Y-124.925
X86.299Y-147.34
X104.373Y-153.996
X108.514Y-150.494
X108.913Y-145.086
X130.087Y-145.086
X130.486Y-150.494
X134.627Y-153.996
X152.701Y-147.34
X154.498Y-67.775
X154.498Y-86.825
X154.498Y-105.875
X154.498Y-124.925
X158.075Y-148.074
X159.498Y-69.875
X159.498Y-88.925
X159.498Y-107.975
X159.498Y-127.025
X162.361Y-144.752
X164.498Y-67.775
X164.498Y-86.825
X164.498Y-105.875
X164.498Y-124.925
X173.547Y-65.275
X173.547Y-84.325
X173.547Y-103.375
X173.547Y-122.425
X173.547Y-141.475
X178.547Y-67.375
X178.547Y-86.425
X178.547Y-105.475
X178.547Y-124.525
X178.547Y-143.575
X183.547Y-65.275
X183.547Y-84.325
X183.547Y-103.375
X183.547Y-122.425
X183.547Y-141.475
X192.597Y-62.775
X192.597Y-81.825
X192.597Y-100.875
X192.597Y-119.925
X192.597Y-138.975
X197.597Y-64.875
X197.597Y-83.925
X197.597Y-102.975
X197.597Y-122.025
X197.597Y-141.075
X202.597Y-62.775
X202.597Y-81.825
X202.597Y-100.875
X202.597Y-119.925
X202.597Y-138.975
X211.647Y-65.275
X211.647Y-84.325
X211.647Y-103.375
X211.647Y-122.425
X211.647Y-141.475
X216.647Y-67.375
X216.647Y-86.425
X216.647Y-105.475
X216.647Y-124.525
X216.647Y-143.575
X221.647Y-65.275
X221.647Y-84.325
X221.647Y-103.375
X221.647Y-122.425
X221.647Y-141.475
X230.697Y-70.175
X230.697Y-89.225
X230.697Y-108.275
X230.697Y-127.325
X235.697Y-72.275
X235.697Y-91.325
X235.697Y-110.375
X235.697Y-129.425
X240.697Y-70.175
X240.697Y-89.225
X240.697Y-108.275
X240.697Y-127.325
X249.748Y-70.175
X249.748Y-89.225
X249.748Y-108.275
X249.748Y-127.325
X254.748Y-72.275
X254.748Y-91.325
X254.748Y-110.375
X254.748Y-129.425
X259.748Y-70.175
X259.748Y-89.225
X259.748Y-108.275
X259.748Y-127.325
T8
X-15.748Y-85.425
X-15.747Y-66.375
X-15.747Y-104.475
X-15.747Y-123.525
X3.302Y-66.375
X3.302Y-104.475
X3.302Y-123.525
X3.303Y-85.425
X22.352Y-61.475
X22.352Y-80.525
X22.352Y-99.575
X22.352Y-118.625
X22.352Y-137.675
X41.402Y-58.975
X41.402Y-78.025
X41.402Y-97.075
X41.402Y-116.125
X41.402Y-135.175
X60.453Y-61.475
X60.453Y-80.525
X60.453Y-99.575
X60.453Y-118.625
X60.453Y-137.675
X79.502Y-63.975
X79.502Y-83.025
X79.502Y-102.075
X79.502Y-121.125
X82.453Y-142.375
X103.257Y-147.816
X135.743Y-147.816
X156.547Y-142.375
X159.498Y-63.975
X159.498Y-83.025
X159.498Y-102.075
X159.498Y-121.125
X178.547Y-61.475
X178.547Y-80.525
X178.547Y-99.575
X178.547Y-118.625
X178.547Y-137.675
X197.597Y-58.975
X197.597Y-78.025
X197.597Y-97.075
X197.597Y-116.125
X197.597Y-135.175
X216.647Y-61.475
X216.647Y-80.525
X216.647Y-99.575
X216.647Y-118.625
X216.647Y-137.675
X235.697Y-66.375
X235.697Y-85.425
X235.697Y-104.475
X235.697Y-123.525
X254.748Y-66.375
X254.748Y-85.425
X254.748Y-104.475
X254.748Y-123.525
T5
X99.402Y-112.875G85X100.703Y-112.875
G05
X99.402Y-124.075G85X100.703Y-124.075
G05
X139.6Y-112.875G85X138.3Y-112.875
G05
X139.6Y-124.075G85X138.3Y-124.075
G05
M30
