%TF.GenerationSoftware,KiCad,Pcbnew,7.0.10*%
%TF.CreationDate,2024-03-02T14:12:03-05:00*%
%TF.ProjectId,Sofle_Chico_Panel,536f666c-655f-4436-9869-636f5f50616e,v3.5.4*%
%TF.SameCoordinates,Original*%
%TF.FileFunction,Profile,NP*%
%FSLAX46Y46*%
G04 Gerber Fmt 4.6, Leading zero omitted, Abs format (unit mm)*
G04 Created by KiCad (PCBNEW 7.0.10) date 2024-03-02 14:12:03*
%MOMM*%
%LPD*%
G01*
G04 APERTURE LIST*
%TA.AperFunction,Profile*%
%ADD10C,0.100000*%
%TD*%
%TA.AperFunction,Profile*%
%ADD11C,0.150000*%
%TD*%
%TA.AperFunction,Profile*%
%ADD12C,0.050000*%
%TD*%
G04 APERTURE END LIST*
D10*
X104177385Y-164195552D02*
G75*
G03*
X105909776Y-163429736I395915J1446752D01*
G01*
X131325213Y-163429742D02*
G75*
G03*
X133057618Y-164195565I1336487J680942D01*
G01*
X120075000Y-49725000D02*
G75*
G03*
X120350000Y-49450000I100J274900D01*
G01*
D11*
X-27201186Y-55348999D02*
G75*
G03*
X-28537343Y-56850000I174979J-1500971D01*
G01*
D10*
X116720765Y-142212817D02*
G75*
G03*
X116884255Y-141505135I-1338365J681917D01*
G01*
D11*
X265772343Y-56850000D02*
X265772343Y-133050000D01*
D10*
X133057618Y-164195565D02*
X188072343Y-148700000D01*
X115383872Y-47950000D02*
X30112657Y-47950000D01*
X121851128Y-47949944D02*
G75*
G03*
X120350744Y-49450000I72J-1500456D01*
G01*
D11*
X265772355Y-56850000D02*
G75*
G03*
X264436186Y-55349000I-1511055J100D01*
G01*
X226172343Y-148700000D02*
X264866606Y-134427262D01*
D10*
X49162657Y-148700000D02*
X104177382Y-164195565D01*
D11*
X-28537343Y-133050000D02*
X-28537343Y-56850000D01*
X188072343Y-148700000D02*
X226172343Y-148700000D01*
D10*
X120075000Y-49725000D02*
X117160000Y-49725000D01*
D11*
X207122343Y-47950000D02*
X264436186Y-55348999D01*
D10*
X117160000Y-141225000D02*
G75*
G03*
X116885000Y-141500000I-100J-274900D01*
G01*
D11*
X-27631606Y-134427262D02*
X11062658Y-148700000D01*
X264866605Y-134427260D02*
G75*
G03*
X265772343Y-133050000I-594105J1377160D01*
G01*
X-28537342Y-133050000D02*
G75*
G03*
X-27631606Y-134427261I1499906J-61D01*
G01*
D10*
X120514232Y-142212818D02*
X131325224Y-163429736D01*
X207122343Y-47950000D02*
X121851128Y-47950000D01*
X120350732Y-141505135D02*
G75*
G03*
X120514233Y-142212818I1501768J-25765D01*
G01*
D11*
X-27201186Y-55348999D02*
X30112657Y-47950000D01*
D10*
X116884985Y-49450000D02*
G75*
G03*
X115384616Y-47949615I-1500485J-100D01*
G01*
X116885000Y-49450000D02*
G75*
G03*
X117160000Y-49725000I274900J-100D01*
G01*
X120350000Y-141500000D02*
G75*
G03*
X120075000Y-141225000I-274900J100D01*
G01*
D11*
X11062658Y-148700000D02*
X49162657Y-148700000D01*
D10*
X105909776Y-163429736D02*
X116720768Y-142212818D01*
X120075000Y-141225000D02*
X117160000Y-141225000D01*
D12*
X-19247506Y-117205135D02*
X-19247506Y-120105135D01*
X-19047506Y-117005135D02*
X-15947506Y-117005135D01*
X-15947506Y-120305135D02*
X-19047506Y-120305135D01*
X-15747506Y-120105135D02*
X-15747506Y-117205135D01*
X-19047506Y-117005135D02*
G75*
G03*
X-19247506Y-117205135I-2J-199998D01*
G01*
X-19247506Y-120105135D02*
G75*
G03*
X-19047506Y-120305135I199998J-2D01*
G01*
X-15747506Y-117205135D02*
G75*
G03*
X-15947506Y-117005135I-200000J0D01*
G01*
X-15947506Y-120305135D02*
G75*
G03*
X-15747506Y-120105135I0J200000D01*
G01*
X180282506Y-58055135D02*
X180282506Y-55155135D01*
X180082506Y-58255135D02*
X176982506Y-58255135D01*
X176982506Y-54955135D02*
X180082506Y-54955135D01*
X176782506Y-55155135D02*
X176782506Y-58055135D01*
X180082506Y-58255135D02*
G75*
G03*
X180282506Y-58055135I2J199998D01*
G01*
X180282506Y-55155135D02*
G75*
G03*
X180082506Y-54955135I-199998J2D01*
G01*
X176782506Y-58055135D02*
G75*
G03*
X176982506Y-58255135I200000J0D01*
G01*
X176982506Y-54955135D02*
G75*
G03*
X176782506Y-55155135I0J-200000D01*
G01*
X157338226Y-138622616D02*
X156587651Y-135821431D01*
X157196804Y-138867565D02*
X154202434Y-139669904D01*
X153348332Y-136482349D02*
X156342702Y-135680010D01*
X153206910Y-136727298D02*
X153957485Y-139528483D01*
X157196804Y-138867565D02*
G75*
G03*
X157338226Y-138622616I-51761J193184D01*
G01*
X156587651Y-135821431D02*
G75*
G03*
X156342702Y-135680010I-193184J-51762D01*
G01*
X153957487Y-139528483D02*
G75*
G03*
X154202434Y-139669903I193184J51764D01*
G01*
X153348332Y-136482350D02*
G75*
G03*
X153206911Y-136727298I51763J-193184D01*
G01*
X237432506Y-101055135D02*
X237432506Y-98155135D01*
X237232506Y-101255135D02*
X234132506Y-101255135D01*
X234132506Y-97955135D02*
X237232506Y-97955135D01*
X233932506Y-98155135D02*
X233932506Y-101055135D01*
X237232506Y-101255135D02*
G75*
G03*
X237432506Y-101055135I2J199998D01*
G01*
X237432506Y-98155135D02*
G75*
G03*
X237232506Y-97955135I-199998J2D01*
G01*
X233932506Y-101055135D02*
G75*
G03*
X234132506Y-101255135I200000J0D01*
G01*
X234132506Y-97955135D02*
G75*
G03*
X233932506Y-98155135I0J-200000D01*
G01*
X139578165Y-147809199D02*
X142162084Y-146492626D01*
X139309166Y-147721795D02*
X137901795Y-144959675D01*
X140842116Y-143461507D02*
X142249487Y-146223627D01*
X140573117Y-143374103D02*
X137989198Y-144690676D01*
X139309165Y-147721795D02*
G75*
G03*
X139578165Y-147809199I178201J90795D01*
G01*
X142162084Y-146492626D02*
G75*
G03*
X142249487Y-146223627I-90796J178200D01*
G01*
X137989198Y-144690677D02*
G75*
G03*
X137901796Y-144959675I90798J-178200D01*
G01*
X140842116Y-143461507D02*
G75*
G03*
X140573117Y-143374104I-178201J-90798D01*
G01*
X37902494Y-71705135D02*
X37902494Y-74605135D01*
X38102494Y-71505135D02*
X41202494Y-71505135D01*
X41202494Y-74805135D02*
X38102494Y-74805135D01*
X41402494Y-74605135D02*
X41402494Y-71705135D01*
X38102494Y-71505135D02*
G75*
G03*
X37902494Y-71705135I-2J-199998D01*
G01*
X37902494Y-74605135D02*
G75*
G03*
X38102494Y-74805135I199998J-2D01*
G01*
X41402494Y-71705135D02*
G75*
G03*
X41202494Y-71505135I-200000J0D01*
G01*
X41202494Y-74805135D02*
G75*
G03*
X41402494Y-74605135I0J200000D01*
G01*
X37902494Y-52655135D02*
X37902494Y-55555135D01*
X38102494Y-52455135D02*
X41202494Y-52455135D01*
X41202494Y-55755135D02*
X38102494Y-55755135D01*
X41402494Y-55555135D02*
X41402494Y-52655135D01*
X38102494Y-52455135D02*
G75*
G03*
X37902494Y-52655135I-2J-199998D01*
G01*
X37902494Y-55555135D02*
G75*
G03*
X38102494Y-55755135I199998J-2D01*
G01*
X41402494Y-52655135D02*
G75*
G03*
X41202494Y-52455135I-200000J0D01*
G01*
X41202494Y-55755135D02*
G75*
G03*
X41402494Y-55555135I0J200000D01*
G01*
X-19247506Y-60055135D02*
X-19247506Y-62955135D01*
X-19047506Y-59855135D02*
X-15947506Y-59855135D01*
X-15947506Y-63155135D02*
X-19047506Y-63155135D01*
X-15747506Y-62955135D02*
X-15747506Y-60055135D01*
X-19047506Y-59855135D02*
G75*
G03*
X-19247506Y-60055135I-2J-199998D01*
G01*
X-19247506Y-62955135D02*
G75*
G03*
X-19047506Y-63155135I199998J-2D01*
G01*
X-15747506Y-60055135D02*
G75*
G03*
X-15947506Y-59855135I-200000J0D01*
G01*
X-15947506Y-63155135D02*
G75*
G03*
X-15747506Y-62955135I0J200000D01*
G01*
X237432506Y-82005135D02*
X237432506Y-79105135D01*
X237232506Y-82205135D02*
X234132506Y-82205135D01*
X234132506Y-78905135D02*
X237232506Y-78905135D01*
X233932506Y-79105135D02*
X233932506Y-82005135D01*
X237232506Y-82205135D02*
G75*
G03*
X237432506Y-82005135I2J199998D01*
G01*
X237432506Y-79105135D02*
G75*
G03*
X237232506Y-78905135I-199998J2D01*
G01*
X233932506Y-82005135D02*
G75*
G03*
X234132506Y-82205135I200000J0D01*
G01*
X234132506Y-78905135D02*
G75*
G03*
X233932506Y-79105135I0J-200000D01*
G01*
X237432506Y-62955135D02*
X237432506Y-60055135D01*
X237232506Y-63155135D02*
X234132506Y-63155135D01*
X234132506Y-59855135D02*
X237232506Y-59855135D01*
X233932506Y-60055135D02*
X233932506Y-62955135D01*
X237232506Y-63155135D02*
G75*
G03*
X237432506Y-62955135I2J199998D01*
G01*
X237432506Y-60055135D02*
G75*
G03*
X237232506Y-59855135I-199998J2D01*
G01*
X233932506Y-62955135D02*
G75*
G03*
X234132506Y-63155135I200000J0D01*
G01*
X234132506Y-59855135D02*
G75*
G03*
X233932506Y-60055135I0J-200000D01*
G01*
X237432506Y-120105135D02*
X237432506Y-117205135D01*
X237232506Y-120305135D02*
X234132506Y-120305135D01*
X234132506Y-117005135D02*
X237232506Y-117005135D01*
X233932506Y-117205135D02*
X233932506Y-120105135D01*
X237232506Y-120305135D02*
G75*
G03*
X237432506Y-120105135I2J199998D01*
G01*
X237432506Y-117205135D02*
G75*
G03*
X237232506Y-117005135I-199998J2D01*
G01*
X233932506Y-120105135D02*
G75*
G03*
X234132506Y-120305135I200000J0D01*
G01*
X234132506Y-117005135D02*
G75*
G03*
X233932506Y-117205135I0J-200000D01*
G01*
X18852494Y-131355135D02*
X18852494Y-134255135D01*
X19052494Y-131155135D02*
X22152494Y-131155135D01*
X22152494Y-134455135D02*
X19052494Y-134455135D01*
X22352494Y-134255135D02*
X22352494Y-131355135D01*
X19052494Y-131155135D02*
G75*
G03*
X18852494Y-131355135I-2J-199998D01*
G01*
X18852494Y-134255135D02*
G75*
G03*
X19052494Y-134455135I199998J-2D01*
G01*
X22352494Y-131355135D02*
G75*
G03*
X22152494Y-131155135I-200000J0D01*
G01*
X22152494Y-134455135D02*
G75*
G03*
X22352494Y-134255135I0J200000D01*
G01*
X180282506Y-77105135D02*
X180282506Y-74205135D01*
X180082506Y-77305135D02*
X176982506Y-77305135D01*
X176982506Y-74005135D02*
X180082506Y-74005135D01*
X176782506Y-74205135D02*
X176782506Y-77105135D01*
X180082506Y-77305135D02*
G75*
G03*
X180282506Y-77105135I2J199998D01*
G01*
X180282506Y-74205135D02*
G75*
G03*
X180082506Y-74005135I-199998J2D01*
G01*
X176782506Y-77105135D02*
G75*
G03*
X176982506Y-77305135I200000J0D01*
G01*
X176982506Y-74005135D02*
G75*
G03*
X176782506Y-74205135I0J-200000D01*
G01*
X218382506Y-115205135D02*
X218382506Y-112305135D01*
X218182506Y-115405135D02*
X215082506Y-115405135D01*
X215082506Y-112105135D02*
X218182506Y-112105135D01*
X214882506Y-112305135D02*
X214882506Y-115205135D01*
X218182506Y-115405135D02*
G75*
G03*
X218382506Y-115205135I2J199998D01*
G01*
X218382506Y-112305135D02*
G75*
G03*
X218182506Y-112105135I-199998J2D01*
G01*
X214882506Y-115205135D02*
G75*
G03*
X215082506Y-115405135I200000J0D01*
G01*
X215082506Y-112105135D02*
G75*
G03*
X214882506Y-112305135I0J-200000D01*
G01*
X18852494Y-93255135D02*
X18852494Y-96155135D01*
X19052494Y-93055135D02*
X22152494Y-93055135D01*
X22152494Y-96355135D02*
X19052494Y-96355135D01*
X22352494Y-96155135D02*
X22352494Y-93255135D01*
X19052494Y-93055135D02*
G75*
G03*
X18852494Y-93255135I-2J-199998D01*
G01*
X18852494Y-96155135D02*
G75*
G03*
X19052494Y-96355135I199998J-2D01*
G01*
X22352494Y-93255135D02*
G75*
G03*
X22152494Y-93055135I-200000J0D01*
G01*
X22152494Y-96355135D02*
G75*
G03*
X22352494Y-96155135I0J200000D01*
G01*
X199332506Y-112705135D02*
X199332506Y-109805135D01*
X199132506Y-112905135D02*
X196032506Y-112905135D01*
X196032506Y-109605135D02*
X199132506Y-109605135D01*
X195832506Y-109805135D02*
X195832506Y-112705135D01*
X199132506Y-112905135D02*
G75*
G03*
X199332506Y-112705135I2J199998D01*
G01*
X199332506Y-109805135D02*
G75*
G03*
X199132506Y-109605135I-199998J2D01*
G01*
X195832506Y-112705135D02*
G75*
G03*
X196032506Y-112905135I200000J0D01*
G01*
X196032506Y-109605135D02*
G75*
G03*
X195832506Y-109805135I0J-200000D01*
G01*
X-19247506Y-98155135D02*
X-19247506Y-101055135D01*
X-19047506Y-97955135D02*
X-15947506Y-97955135D01*
X-15947506Y-101255135D02*
X-19047506Y-101255135D01*
X-15747506Y-101055135D02*
X-15747506Y-98155135D01*
X-19047506Y-97955135D02*
G75*
G03*
X-19247506Y-98155135I-2J-199998D01*
G01*
X-19247506Y-101055135D02*
G75*
G03*
X-19047506Y-101255135I199998J-2D01*
G01*
X-15747506Y-98155135D02*
G75*
G03*
X-15947506Y-97955135I-200000J0D01*
G01*
X-15947506Y-101255135D02*
G75*
G03*
X-15747506Y-101055135I0J200000D01*
G01*
X18852494Y-74205135D02*
X18852494Y-77105135D01*
X19052494Y-74005135D02*
X22152494Y-74005135D01*
X22152494Y-77305135D02*
X19052494Y-77305135D01*
X22352494Y-77105135D02*
X22352494Y-74205135D01*
X19052494Y-74005135D02*
G75*
G03*
X18852494Y-74205135I-2J-199998D01*
G01*
X18852494Y-77105135D02*
G75*
G03*
X19052494Y-77305135I199998J-2D01*
G01*
X22352494Y-74205135D02*
G75*
G03*
X22152494Y-74005135I-200000J0D01*
G01*
X22152494Y-77305135D02*
G75*
G03*
X22352494Y-77105135I0J200000D01*
G01*
X256482506Y-101055135D02*
X256482506Y-98155135D01*
X256282506Y-101255135D02*
X253182506Y-101255135D01*
X253182506Y-97955135D02*
X256282506Y-97955135D01*
X252982506Y-98155135D02*
X252982506Y-101055135D01*
X256282506Y-101255135D02*
G75*
G03*
X256482506Y-101055135I2J199998D01*
G01*
X256482506Y-98155135D02*
G75*
G03*
X256282506Y-97955135I-199998J2D01*
G01*
X252982506Y-101055135D02*
G75*
G03*
X253182506Y-101255135I200000J0D01*
G01*
X253182506Y-97955135D02*
G75*
G03*
X252982506Y-98155135I0J-200000D01*
G01*
X18852494Y-112305135D02*
X18852494Y-115205135D01*
X19052494Y-112105135D02*
X22152494Y-112105135D01*
X22152494Y-115405135D02*
X19052494Y-115405135D01*
X22352494Y-115205135D02*
X22352494Y-112305135D01*
X19052494Y-112105135D02*
G75*
G03*
X18852494Y-112305135I-2J-199998D01*
G01*
X18852494Y-115205135D02*
G75*
G03*
X19052494Y-115405135I199998J-2D01*
G01*
X22352494Y-112305135D02*
G75*
G03*
X22152494Y-112105135I-200000J0D01*
G01*
X22152494Y-115405135D02*
G75*
G03*
X22352494Y-115205135I0J200000D01*
G01*
X56952494Y-131355135D02*
X56952494Y-134255135D01*
X57152494Y-131155135D02*
X60252494Y-131155135D01*
X60252494Y-134455135D02*
X57152494Y-134455135D01*
X60452494Y-134255135D02*
X60452494Y-131355135D01*
X57152494Y-131155135D02*
G75*
G03*
X56952494Y-131355135I-2J-199998D01*
G01*
X56952494Y-134255135D02*
G75*
G03*
X57152494Y-134455135I199998J-2D01*
G01*
X60452494Y-131355135D02*
G75*
G03*
X60252494Y-131155135I-200000J0D01*
G01*
X60252494Y-134455135D02*
G75*
G03*
X60452494Y-134255135I0J200000D01*
G01*
X161232506Y-98655135D02*
X161232506Y-95755135D01*
X161032506Y-98855135D02*
X157932506Y-98855135D01*
X157932506Y-95555135D02*
X161032506Y-95555135D01*
X157732506Y-95755135D02*
X157732506Y-98655135D01*
X161032506Y-98855135D02*
G75*
G03*
X161232506Y-98655135I2J199998D01*
G01*
X161232506Y-95755135D02*
G75*
G03*
X161032506Y-95555135I-199998J2D01*
G01*
X157732506Y-98655135D02*
G75*
G03*
X157932506Y-98855135I200000J0D01*
G01*
X157932506Y-95555135D02*
G75*
G03*
X157732506Y-95755135I0J-200000D01*
G01*
X76002494Y-95755134D02*
X76002494Y-98655134D01*
X76202494Y-95555134D02*
X79302494Y-95555134D01*
X79302494Y-98855134D02*
X76202494Y-98855134D01*
X79502494Y-98655134D02*
X79502494Y-95755134D01*
X76202494Y-95555134D02*
G75*
G03*
X76002494Y-95755134I-2J-199998D01*
G01*
X76002494Y-98655134D02*
G75*
G03*
X76202494Y-98855134I199998J-2D01*
G01*
X79502494Y-95755134D02*
G75*
G03*
X79302494Y-95555134I-200000J0D01*
G01*
X79302494Y-98855134D02*
G75*
G03*
X79502494Y-98655134I0J200000D01*
G01*
X-197506Y-98155135D02*
X-197506Y-101055135D01*
X2494Y-97955135D02*
X3102494Y-97955135D01*
X3102494Y-101255135D02*
X2494Y-101255135D01*
X3302494Y-101055135D02*
X3302494Y-98155135D01*
X2494Y-97955135D02*
G75*
G03*
X-197506Y-98155135I-2J-199998D01*
G01*
X-197506Y-101055135D02*
G75*
G03*
X2494Y-101255135I199998J-2D01*
G01*
X3302494Y-98155135D02*
G75*
G03*
X3102494Y-97955135I-200000J0D01*
G01*
X3102494Y-101255135D02*
G75*
G03*
X3302494Y-101055135I0J200000D01*
G01*
X218382506Y-77105135D02*
X218382506Y-74205135D01*
X218182506Y-77305135D02*
X215082506Y-77305135D01*
X215082506Y-74005135D02*
X218182506Y-74005135D01*
X214882506Y-74205135D02*
X214882506Y-77105135D01*
X218182506Y-77305135D02*
G75*
G03*
X218382506Y-77105135I2J199998D01*
G01*
X218382506Y-74205135D02*
G75*
G03*
X218182506Y-74005135I-199998J2D01*
G01*
X214882506Y-77105135D02*
G75*
G03*
X215082506Y-77305135I200000J0D01*
G01*
X215082506Y-74005135D02*
G75*
G03*
X214882506Y-74205135I0J-200000D01*
G01*
X-197506Y-117205135D02*
X-197506Y-120105135D01*
X2494Y-117005135D02*
X3102494Y-117005135D01*
X3102494Y-120305135D02*
X2494Y-120305135D01*
X3302494Y-120105135D02*
X3302494Y-117205135D01*
X2494Y-117005135D02*
G75*
G03*
X-197506Y-117205135I-2J-199998D01*
G01*
X-197506Y-120105135D02*
G75*
G03*
X2494Y-120305135I199998J-2D01*
G01*
X3302494Y-117205135D02*
G75*
G03*
X3102494Y-117005135I-200000J0D01*
G01*
X3102494Y-120305135D02*
G75*
G03*
X3302494Y-120105135I0J200000D01*
G01*
X180282506Y-115205135D02*
X180282506Y-112305135D01*
X180082506Y-115405135D02*
X176982506Y-115405135D01*
X176982506Y-112105135D02*
X180082506Y-112105135D01*
X176782506Y-112305135D02*
X176782506Y-115205135D01*
X180082506Y-115405135D02*
G75*
G03*
X180282506Y-115205135I2J199998D01*
G01*
X180282506Y-112305135D02*
G75*
G03*
X180082506Y-112105135I-199998J2D01*
G01*
X176782506Y-115205135D02*
G75*
G03*
X176982506Y-115405135I200000J0D01*
G01*
X176982506Y-112105135D02*
G75*
G03*
X176782506Y-112305135I0J-200000D01*
G01*
X256482506Y-62955135D02*
X256482506Y-60055135D01*
X256282506Y-63155135D02*
X253182506Y-63155135D01*
X253182506Y-59855135D02*
X256282506Y-59855135D01*
X252982506Y-60055135D02*
X252982506Y-62955135D01*
X256282506Y-63155135D02*
G75*
G03*
X256482506Y-62955135I2J199998D01*
G01*
X256482506Y-60055135D02*
G75*
G03*
X256282506Y-59855135I-199998J2D01*
G01*
X252982506Y-62955135D02*
G75*
G03*
X253182506Y-63155135I200000J0D01*
G01*
X253182506Y-59855135D02*
G75*
G03*
X252982506Y-60055135I0J-200000D01*
G01*
X80647349Y-135821431D02*
X79896774Y-138622616D01*
X80892298Y-135680010D02*
X83886668Y-136482349D01*
X83032566Y-139669904D02*
X80038196Y-138867565D01*
X83277515Y-139528483D02*
X84028090Y-136727298D01*
X80892298Y-135680010D02*
G75*
G03*
X80647349Y-135821431I-51765J-193183D01*
G01*
X79896774Y-138622616D02*
G75*
G03*
X80038196Y-138867565I193183J-51765D01*
G01*
X84028089Y-136727298D02*
G75*
G03*
X83886668Y-136482350I-193184J51764D01*
G01*
X83032566Y-139669904D02*
G75*
G03*
X83277514Y-139528483I51763J193185D01*
G01*
X37902494Y-90755135D02*
X37902494Y-93655135D01*
X38102494Y-90555135D02*
X41202494Y-90555135D01*
X41202494Y-93855135D02*
X38102494Y-93855135D01*
X41402494Y-93655135D02*
X41402494Y-90755135D01*
X38102494Y-90555135D02*
G75*
G03*
X37902494Y-90755135I-2J-199998D01*
G01*
X37902494Y-93655135D02*
G75*
G03*
X38102494Y-93855135I199998J-2D01*
G01*
X41402494Y-90755135D02*
G75*
G03*
X41202494Y-90555135I-200000J0D01*
G01*
X41202494Y-93855135D02*
G75*
G03*
X41402494Y-93655135I0J200000D01*
G01*
X95072916Y-146492626D02*
X97656835Y-147809199D01*
X94985513Y-146223627D02*
X96392884Y-143461507D01*
X99333205Y-144959675D02*
X97925834Y-147721795D01*
X99245802Y-144690676D02*
X96661883Y-143374103D01*
X94985514Y-146223628D02*
G75*
G03*
X95072916Y-146492625I178198J-90798D01*
G01*
X97656836Y-147809198D02*
G75*
G03*
X97925834Y-147721795I90798J178198D01*
G01*
X96661882Y-143374104D02*
G75*
G03*
X96392885Y-143461507I-90797J-178201D01*
G01*
X99333204Y-144959675D02*
G75*
G03*
X99245802Y-144690677I-178200J90798D01*
G01*
X161232506Y-60555135D02*
X161232506Y-57655135D01*
X161032506Y-60755135D02*
X157932506Y-60755135D01*
X157932506Y-57455135D02*
X161032506Y-57455135D01*
X157732506Y-57655135D02*
X157732506Y-60555135D01*
X161032506Y-60755135D02*
G75*
G03*
X161232506Y-60555135I2J199998D01*
G01*
X161232506Y-57655135D02*
G75*
G03*
X161032506Y-57455135I-199998J2D01*
G01*
X157732506Y-60555135D02*
G75*
G03*
X157932506Y-60755135I200000J0D01*
G01*
X157932506Y-57455135D02*
G75*
G03*
X157732506Y-57655135I0J-200000D01*
G01*
X56952494Y-74205135D02*
X56952494Y-77105135D01*
X57152494Y-74005135D02*
X60252494Y-74005135D01*
X60252494Y-77305135D02*
X57152494Y-77305135D01*
X60452494Y-77105135D02*
X60452494Y-74205135D01*
X57152494Y-74005135D02*
G75*
G03*
X56952494Y-74205135I-2J-199998D01*
G01*
X56952494Y-77105135D02*
G75*
G03*
X57152494Y-77305135I199998J-2D01*
G01*
X60452494Y-74205135D02*
G75*
G03*
X60252494Y-74005135I-200000J0D01*
G01*
X60252494Y-77305135D02*
G75*
G03*
X60452494Y-77105135I0J200000D01*
G01*
X199332506Y-55555135D02*
X199332506Y-52655135D01*
X199132506Y-55755135D02*
X196032506Y-55755135D01*
X196032506Y-52455135D02*
X199132506Y-52455135D01*
X195832506Y-52655135D02*
X195832506Y-55555135D01*
X199132506Y-55755135D02*
G75*
G03*
X199332506Y-55555135I2J199998D01*
G01*
X199332506Y-52655135D02*
G75*
G03*
X199132506Y-52455135I-199998J2D01*
G01*
X195832506Y-55555135D02*
G75*
G03*
X196032506Y-55755135I200000J0D01*
G01*
X196032506Y-52455135D02*
G75*
G03*
X195832506Y-52655135I0J-200000D01*
G01*
X76002494Y-57655135D02*
X76002494Y-60555135D01*
X76202494Y-57455135D02*
X79302494Y-57455135D01*
X79302494Y-60755135D02*
X76202494Y-60755135D01*
X79502494Y-60555135D02*
X79502494Y-57655135D01*
X76202494Y-57455135D02*
G75*
G03*
X76002494Y-57655135I-2J-199998D01*
G01*
X76002494Y-60555135D02*
G75*
G03*
X76202494Y-60755135I199998J-2D01*
G01*
X79502494Y-57655135D02*
G75*
G03*
X79302494Y-57455135I-200000J0D01*
G01*
X79302494Y-60755135D02*
G75*
G03*
X79502494Y-60555135I0J200000D01*
G01*
X199332506Y-131755135D02*
X199332506Y-128855135D01*
X199132506Y-131955135D02*
X196032506Y-131955135D01*
X196032506Y-128655135D02*
X199132506Y-128655135D01*
X195832506Y-128855135D02*
X195832506Y-131755135D01*
X199132506Y-131955135D02*
G75*
G03*
X199332506Y-131755135I2J199998D01*
G01*
X199332506Y-128855135D02*
G75*
G03*
X199132506Y-128655135I-199998J2D01*
G01*
X195832506Y-131755135D02*
G75*
G03*
X196032506Y-131955135I200000J0D01*
G01*
X196032506Y-128655135D02*
G75*
G03*
X195832506Y-128855135I0J-200000D01*
G01*
X199332506Y-74605135D02*
X199332506Y-71705135D01*
X199132506Y-74805135D02*
X196032506Y-74805135D01*
X196032506Y-71505135D02*
X199132506Y-71505135D01*
X195832506Y-71705135D02*
X195832506Y-74605135D01*
X199132506Y-74805135D02*
G75*
G03*
X199332506Y-74605135I2J199998D01*
G01*
X199332506Y-71705135D02*
G75*
G03*
X199132506Y-71505135I-199998J2D01*
G01*
X195832506Y-74605135D02*
G75*
G03*
X196032506Y-74805135I200000J0D01*
G01*
X196032506Y-71505135D02*
G75*
G03*
X195832506Y-71705135I0J-200000D01*
G01*
X56952494Y-112305136D02*
X56952494Y-115205136D01*
X57152494Y-112105136D02*
X60252494Y-112105136D01*
X60252494Y-115405136D02*
X57152494Y-115405136D01*
X60452494Y-115205136D02*
X60452494Y-112305136D01*
X57152494Y-112105136D02*
G75*
G03*
X56952494Y-112305136I-2J-199998D01*
G01*
X56952494Y-115205136D02*
G75*
G03*
X57152494Y-115405136I199998J-2D01*
G01*
X60452494Y-112305136D02*
G75*
G03*
X60252494Y-112105136I-200000J0D01*
G01*
X60252494Y-115405136D02*
G75*
G03*
X60452494Y-115205136I0J200000D01*
G01*
X18852495Y-55155135D02*
X18852495Y-58055135D01*
X19052495Y-54955135D02*
X22152495Y-54955135D01*
X22152495Y-58255135D02*
X19052495Y-58255135D01*
X22352495Y-58055135D02*
X22352495Y-55155135D01*
X19052495Y-54955135D02*
G75*
G03*
X18852495Y-55155135I-2J-199998D01*
G01*
X18852495Y-58055135D02*
G75*
G03*
X19052495Y-58255135I199998J-2D01*
G01*
X22352495Y-55155135D02*
G75*
G03*
X22152495Y-54955135I-200000J0D01*
G01*
X22152495Y-58255135D02*
G75*
G03*
X22352495Y-58055135I0J200000D01*
G01*
X180282506Y-134255135D02*
X180282506Y-131355135D01*
X180082506Y-134455135D02*
X176982506Y-134455135D01*
X176982506Y-131155135D02*
X180082506Y-131155135D01*
X176782506Y-131355135D02*
X176782506Y-134255135D01*
X180082506Y-134455135D02*
G75*
G03*
X180282506Y-134255135I2J199998D01*
G01*
X180282506Y-131355135D02*
G75*
G03*
X180082506Y-131155135I-199998J2D01*
G01*
X176782506Y-134255135D02*
G75*
G03*
X176982506Y-134455135I200000J0D01*
G01*
X176982506Y-131155135D02*
G75*
G03*
X176782506Y-131355135I0J-200000D01*
G01*
X37902494Y-128855135D02*
X37902494Y-131755135D01*
X38102494Y-128655135D02*
X41202494Y-128655135D01*
X41202494Y-131955135D02*
X38102494Y-131955135D01*
X41402494Y-131755135D02*
X41402494Y-128855135D01*
X38102494Y-128655135D02*
G75*
G03*
X37902494Y-128855135I-2J-199998D01*
G01*
X37902494Y-131755135D02*
G75*
G03*
X38102494Y-131955135I199998J-2D01*
G01*
X41402494Y-128855135D02*
G75*
G03*
X41202494Y-128655135I-200000J0D01*
G01*
X41202494Y-131955135D02*
G75*
G03*
X41402494Y-131755135I0J200000D01*
G01*
X161232506Y-79605135D02*
X161232506Y-76705135D01*
X161032506Y-79805135D02*
X157932506Y-79805135D01*
X157932506Y-76505135D02*
X161032506Y-76505135D01*
X157732506Y-76705135D02*
X157732506Y-79605135D01*
X161032506Y-79805135D02*
G75*
G03*
X161232506Y-79605135I2J199998D01*
G01*
X161232506Y-76705135D02*
G75*
G03*
X161032506Y-76505135I-199998J2D01*
G01*
X157732506Y-79605135D02*
G75*
G03*
X157932506Y-79805135I200000J0D01*
G01*
X157932506Y-76505135D02*
G75*
G03*
X157732506Y-76705135I0J-200000D01*
G01*
X218382506Y-58055135D02*
X218382506Y-55155135D01*
X218182506Y-58255135D02*
X215082506Y-58255135D01*
X215082506Y-54955135D02*
X218182506Y-54955135D01*
X214882506Y-55155135D02*
X214882506Y-58055135D01*
X218182506Y-58255135D02*
G75*
G03*
X218382506Y-58055135I2J199998D01*
G01*
X218382506Y-55155135D02*
G75*
G03*
X218182506Y-54955135I-199998J2D01*
G01*
X214882506Y-58055135D02*
G75*
G03*
X215082506Y-58255135I200000J0D01*
G01*
X215082506Y-54955135D02*
G75*
G03*
X214882506Y-55155135I0J-200000D01*
G01*
X161232506Y-117705135D02*
X161232506Y-114805135D01*
X161032506Y-117905135D02*
X157932506Y-117905135D01*
X157932506Y-114605135D02*
X161032506Y-114605135D01*
X157732506Y-114805135D02*
X157732506Y-117705135D01*
X161032506Y-117905135D02*
G75*
G03*
X161232506Y-117705135I2J199998D01*
G01*
X161232506Y-114805135D02*
G75*
G03*
X161032506Y-114605135I-199998J2D01*
G01*
X157732506Y-117705135D02*
G75*
G03*
X157932506Y-117905135I200000J0D01*
G01*
X157932506Y-114605135D02*
G75*
G03*
X157732506Y-114805135I0J-200000D01*
G01*
X76002495Y-114805135D02*
X76002495Y-117705135D01*
X76202495Y-114605135D02*
X79302495Y-114605135D01*
X79302495Y-117905135D02*
X76202495Y-117905135D01*
X79502495Y-117705135D02*
X79502495Y-114805135D01*
X76202495Y-114605135D02*
G75*
G03*
X76002495Y-114805135I-2J-199998D01*
G01*
X76002495Y-117705135D02*
G75*
G03*
X76202495Y-117905135I199998J-2D01*
G01*
X79502495Y-114805135D02*
G75*
G03*
X79302495Y-114605135I-200000J0D01*
G01*
X79302495Y-117905135D02*
G75*
G03*
X79502495Y-117705135I0J200000D01*
G01*
X218382506Y-96155135D02*
X218382506Y-93255135D01*
X218182506Y-96355135D02*
X215082506Y-96355135D01*
X215082506Y-93055135D02*
X218182506Y-93055135D01*
X214882506Y-93255135D02*
X214882506Y-96155135D01*
X218182506Y-96355135D02*
G75*
G03*
X218382506Y-96155135I2J199998D01*
G01*
X218382506Y-93255135D02*
G75*
G03*
X218182506Y-93055135I-199998J2D01*
G01*
X214882506Y-96155135D02*
G75*
G03*
X215082506Y-96355135I200000J0D01*
G01*
X215082506Y-93055135D02*
G75*
G03*
X214882506Y-93255135I0J-200000D01*
G01*
X180282506Y-96155135D02*
X180282506Y-93255135D01*
X180082506Y-96355135D02*
X176982506Y-96355135D01*
X176982506Y-93055135D02*
X180082506Y-93055135D01*
X176782506Y-93255135D02*
X176782506Y-96155135D01*
X180082506Y-96355135D02*
G75*
G03*
X180282506Y-96155135I2J199998D01*
G01*
X180282506Y-93255135D02*
G75*
G03*
X180082506Y-93055135I-199998J2D01*
G01*
X176782506Y-96155135D02*
G75*
G03*
X176982506Y-96355135I200000J0D01*
G01*
X176982506Y-93055135D02*
G75*
G03*
X176782506Y-93255135I0J-200000D01*
G01*
X-19247506Y-79105135D02*
X-19247506Y-82005135D01*
X-19047506Y-78905135D02*
X-15947506Y-78905135D01*
X-15947506Y-82205135D02*
X-19047506Y-82205135D01*
X-15747506Y-82005135D02*
X-15747506Y-79105135D01*
X-19047506Y-78905135D02*
G75*
G03*
X-19247506Y-79105135I-2J-199998D01*
G01*
X-19247506Y-82005135D02*
G75*
G03*
X-19047506Y-82205135I199998J-2D01*
G01*
X-15747506Y-79105135D02*
G75*
G03*
X-15947506Y-78905135I-200000J0D01*
G01*
X-15947506Y-82205135D02*
G75*
G03*
X-15747506Y-82005135I0J200000D01*
G01*
X199332506Y-93655135D02*
X199332506Y-90755135D01*
X199132506Y-93855135D02*
X196032506Y-93855135D01*
X196032506Y-90555135D02*
X199132506Y-90555135D01*
X195832506Y-90755135D02*
X195832506Y-93655135D01*
X199132506Y-93855135D02*
G75*
G03*
X199332506Y-93655135I2J199998D01*
G01*
X199332506Y-90755135D02*
G75*
G03*
X199132506Y-90555135I-199998J2D01*
G01*
X195832506Y-93655135D02*
G75*
G03*
X196032506Y-93855135I200000J0D01*
G01*
X196032506Y-90555135D02*
G75*
G03*
X195832506Y-90755135I0J-200000D01*
G01*
X56952494Y-93255134D02*
X56952494Y-96155134D01*
X57152494Y-93055134D02*
X60252494Y-93055134D01*
X60252494Y-96355134D02*
X57152494Y-96355134D01*
X60452494Y-96155134D02*
X60452494Y-93255134D01*
X57152494Y-93055134D02*
G75*
G03*
X56952494Y-93255134I-2J-199998D01*
G01*
X56952494Y-96155134D02*
G75*
G03*
X57152494Y-96355134I199998J-2D01*
G01*
X60452494Y-93255134D02*
G75*
G03*
X60252494Y-93055134I-200000J0D01*
G01*
X60252494Y-96355134D02*
G75*
G03*
X60452494Y-96155134I0J200000D01*
G01*
X256482506Y-82005135D02*
X256482506Y-79105135D01*
X256282506Y-82205135D02*
X253182506Y-82205135D01*
X253182506Y-78905135D02*
X256282506Y-78905135D01*
X252982506Y-79105135D02*
X252982506Y-82005135D01*
X256282506Y-82205135D02*
G75*
G03*
X256482506Y-82005135I2J199998D01*
G01*
X256482506Y-79105135D02*
G75*
G03*
X256282506Y-78905135I-199998J2D01*
G01*
X252982506Y-82005135D02*
G75*
G03*
X253182506Y-82205135I200000J0D01*
G01*
X253182506Y-78905135D02*
G75*
G03*
X252982506Y-79105135I0J-200000D01*
G01*
X37902494Y-109805135D02*
X37902494Y-112705135D01*
X38102494Y-109605135D02*
X41202494Y-109605135D01*
X41202494Y-112905135D02*
X38102494Y-112905135D01*
X41402494Y-112705135D02*
X41402494Y-109805135D01*
X38102494Y-109605135D02*
G75*
G03*
X37902494Y-109805135I-2J-199998D01*
G01*
X37902494Y-112705135D02*
G75*
G03*
X38102494Y-112905135I199998J-2D01*
G01*
X41402494Y-109805135D02*
G75*
G03*
X41202494Y-109605135I-200000J0D01*
G01*
X41202494Y-112905135D02*
G75*
G03*
X41402494Y-112705135I0J200000D01*
G01*
X56952494Y-55155135D02*
X56952494Y-58055135D01*
X57152494Y-54955135D02*
X60252494Y-54955135D01*
X60252494Y-58255135D02*
X57152494Y-58255135D01*
X60452494Y-58055135D02*
X60452494Y-55155135D01*
X57152494Y-54955135D02*
G75*
G03*
X56952494Y-55155135I-2J-199998D01*
G01*
X56952494Y-58055135D02*
G75*
G03*
X57152494Y-58255135I199998J-2D01*
G01*
X60452494Y-55155135D02*
G75*
G03*
X60252494Y-54955135I-200000J0D01*
G01*
X60252494Y-58255135D02*
G75*
G03*
X60452494Y-58055135I0J200000D01*
G01*
X-197506Y-79105135D02*
X-197506Y-82005135D01*
X2494Y-78905135D02*
X3102494Y-78905135D01*
X3102494Y-82205135D02*
X2494Y-82205135D01*
X3302494Y-82005135D02*
X3302494Y-79105135D01*
X2494Y-78905135D02*
G75*
G03*
X-197506Y-79105135I-2J-199998D01*
G01*
X-197506Y-82005135D02*
G75*
G03*
X2494Y-82205135I199998J-2D01*
G01*
X3302494Y-79105135D02*
G75*
G03*
X3102494Y-78905135I-200000J0D01*
G01*
X3102494Y-82205135D02*
G75*
G03*
X3302494Y-82005135I0J200000D01*
G01*
X256482506Y-120105135D02*
X256482506Y-117205135D01*
X256282506Y-120305135D02*
X253182506Y-120305135D01*
X253182506Y-117005135D02*
X256282506Y-117005135D01*
X252982506Y-117205135D02*
X252982506Y-120105135D01*
X256282506Y-120305135D02*
G75*
G03*
X256482506Y-120105135I2J199998D01*
G01*
X256482506Y-117205135D02*
G75*
G03*
X256282506Y-117005135I-199998J2D01*
G01*
X252982506Y-120105135D02*
G75*
G03*
X253182506Y-120305135I200000J0D01*
G01*
X253182506Y-117005135D02*
G75*
G03*
X252982506Y-117205135I0J-200000D01*
G01*
X218382506Y-134255135D02*
X218382506Y-131355135D01*
X218182506Y-134455135D02*
X215082506Y-134455135D01*
X215082506Y-131155135D02*
X218182506Y-131155135D01*
X214882506Y-131355135D02*
X214882506Y-134255135D01*
X218182506Y-134455135D02*
G75*
G03*
X218382506Y-134255135I2J199998D01*
G01*
X218382506Y-131355135D02*
G75*
G03*
X218182506Y-131155135I-199998J2D01*
G01*
X214882506Y-134255135D02*
G75*
G03*
X215082506Y-134455135I200000J0D01*
G01*
X215082506Y-131155135D02*
G75*
G03*
X214882506Y-131355135I0J-200000D01*
G01*
X-197506Y-60055135D02*
X-197506Y-62955135D01*
X2494Y-59855135D02*
X3102494Y-59855135D01*
X3102494Y-63155135D02*
X2494Y-63155135D01*
X3302494Y-62955135D02*
X3302494Y-60055135D01*
X2494Y-59855135D02*
G75*
G03*
X-197506Y-60055135I-2J-199998D01*
G01*
X-197506Y-62955135D02*
G75*
G03*
X2494Y-63155135I199998J-2D01*
G01*
X3302494Y-60055135D02*
G75*
G03*
X3102494Y-59855135I-200000J0D01*
G01*
X3102494Y-63155135D02*
G75*
G03*
X3302494Y-62955135I0J200000D01*
G01*
X76002494Y-76705135D02*
X76002494Y-79605135D01*
X76202494Y-76505135D02*
X79302494Y-76505135D01*
X79302494Y-79805135D02*
X76202494Y-79805135D01*
X79502494Y-79605135D02*
X79502494Y-76705135D01*
X76202494Y-76505135D02*
G75*
G03*
X76002494Y-76705135I-2J-199998D01*
G01*
X76002494Y-79605135D02*
G75*
G03*
X76202494Y-79805135I199998J-2D01*
G01*
X79502494Y-76705135D02*
G75*
G03*
X79302494Y-76505135I-200000J0D01*
G01*
X79302494Y-79805135D02*
G75*
G03*
X79502494Y-79605135I0J200000D01*
G01*
M02*
