<?xml version="1.0" standalone="no"?>
 <!DOCTYPE svg PUBLIC "-//W3C//DTD SVG 1.1//EN" 
 "http://www.w3.org/Graphics/SVG/1.1/DTD/svg11.dtd"> 
<svg
  xmlns:svg="http://www.w3.org/2000/svg"
  xmlns="http://www.w3.org/2000/svg"
  xmlns:xlink="http://www.w3.org/1999/xlink"
  version="1.1"
  width="390.6774mm" height="152.5016mm" viewBox="0.0000 0.0000 390.6774 152.5016">
<title>SVG Image created as sofel_v3b-brd.svg date 2023/06/25 18:20:14 </title>
  <desc>Image generated by PCBNEW </desc>
<g style="fill:#000000; fill-opacity:1.0000;stroke:#000000; stroke-opacity:1.0000;
stroke-linecap:round; stroke-linejoin:round;"
 transform="translate(0 0) scale(1 1)">
</g>
<g style="fill:#000000; fill-opacity:0.0; 
stroke:#000000; stroke-width:0.0000; stroke-opacity:1; 
stroke-linecap:round; stroke-linejoin:round;">
</g>
<g style="fill:#000000; fill-opacity:0.0; 
stroke:#000000; stroke-width:0.1000; stroke-opacity:1; 
stroke-linecap:round; stroke-linejoin:round;">
<path d="M2.1895 95.4900 A1.5019 1.5019 0.0 0 0 2.3530 96.1977" />
</g>
<g style="fill:#000000; fill-opacity:0.0; 
stroke:#000000; stroke-width:0.1500; stroke-opacity:1; 
stroke-linecap:round; stroke-linejoin:round;">
<path d="M88.9611 1.9349
L146.2749 9.3339
" />
<path d="M146.7054 88.4121 A1.4999 1.4999 0.0 0 0 147.6111 87.0349" />
<path d="M69.9111 102.6849
L108.0111 102.6849
" />
<path d="M147.6111 10.8349 A1.5111 1.5111 0.0 0 0 146.2749 9.3339" />
</g>
<g style="fill:#000000; fill-opacity:0.0; 
stroke:#000000; stroke-width:0.1000; stroke-opacity:1; 
stroke-linecap:round; stroke-linejoin:round;">
<path d="M88.9611 1.9349
L3.6899 1.9349
" />
<path d="M13.1640 117.4146 A1.4999 1.4999 0.0 0 0 14.8964 118.1804" />
<path d="M2.3530 96.1977
L13.1640 117.4146
" />
<path d="M3.6899 1.9348 A1.5005 1.5005 0.0 0 0 2.1895 3.4352" />
<path d="M2.1895 3.4352
L2.1895 95.4900
" />
</g>
<g style="fill:#000000; fill-opacity:0.0; 
stroke:#000000; stroke-width:0.1500; stroke-opacity:1; 
stroke-linecap:round; stroke-linejoin:round;">
<path d="M147.6111 10.8349
L147.6111 87.0349
" />
<path d="M108.0111 102.6849
L146.7054 88.4121
" />
</g>
<g style="fill:#000000; fill-opacity:0.0; 
stroke:#000000; stroke-width:0.1000; stroke-opacity:1; 
stroke-linecap:round; stroke-linejoin:round;">
<path d="M14.8964 118.1804
L69.9111 102.6849
" />
<circle cx="127.0762" cy="29.8700" r="1.1000" /> 
<circle cx="127.0613" cy="67.9850" r="1.1000" /> 
<circle cx="50.2263" cy="27.4700" r="1.1000" /> 
<circle cx="50.3162" cy="65.4200" r="1.1000" /> 
<circle cx="69.9112" cy="49.3300" r="22.5000" /> 
<circle cx="7.1862" cy="84.9600" r="1.1000" /> 
<circle cx="32.7963" cy="5.2100" r="1.1000" /> 
<circle cx="24.7162" cy="58.5500" r="1.1000" /> 
<circle cx="7.1862" cy="68.9600" r="1.1000" /> 
<g >
</g>
<g >
</g>
<g >
</g>
<g >
</g>
<g >
</g>
<g >
</g>
<g >
</g>
<g >
</g>
<g >
</g>
<g >
</g>
<g >
</g>
<g >
</g>
<g >
</g>
<g >
</g>
<g >
</g>
<g >
</g>
<g >
</g>
<g >
</g>
<g >
</g>
<g >
</g>
<g >
</g>
<g >
</g>
<g >
</g>
<g >
</g>
<g >
</g>
<g >
</g>
<g >
</g>
<g >
</g>
<g >
</g>
<g >
</g>
<g >
</g>
<g >
</g>
<g >
</g>
<g >
</g>
<g >
</g>
<g >
</g>
<g >
</g>
<g >
</g>
<g >
</g>
<g >
</g>
<g >
</g>
<g >
</g>
<g >
</g>
<g >
</g>
<g >
</g>
<g >
</g>
<g >
</g>
<g >
</g>
<g >
</g>
<g >
</g>
<g >
</g>
<g >
</g>
<g >
</g>
<g >
</g>
<g >
</g>
<g >
</g>
<g >
</g>
<g >
</g>
<g >
</g>
<g >
</g>
<g >
</g>
<g >
</g>
<g >
</g>
<g >
</g>
<g >
</g>
<g >
</g>
<g >
</g>
<g >
</g>
<g >
</g>
<g >
</g>
<g >
</g>
<g >
</g>
<g >
</g>
<g >
</g>
<g >
</g>
<g >
</g>
<g >
</g>
<g >
</g>
<g >
</g>
<g >
</g>
<g >
</g>
<g >
</g>
<g >
</g>
<g >
</g>
<g >
</g>
<g >
</g>
<g >
</g>
<g >
</g>
<g >
</g>
<g >
</g>
<g >
</g>
<g >
</g>
<g >
</g>
<g >
</g>
<g >
</g>
<g >
</g>
<g >
</g>
<g >
</g>
<g >
</g>
<g >
</g>
<g >
</g>
<g >
</g>
<g >
</g>
<g >
</g>
<g >
</g>
<g >
</g>
<g >
</g>
<g >
</g>
<g >
</g>
<g >
</g>
</g> 
</svg>
