M48
; DRILL file {KiCad 7.0.5-0} date 2023 November 06, Monday 13:13:21
; FORMAT={-:-/ absolute / metric / decimal}
; #@! TF.CreationDate,2023-11-06T13:13:21-08:00
; #@! TF.GenerationSoftware,Kicad,Pcbnew,7.0.5-0
; #@! TF.FileFunction,Plated,1,2,PTH
FMAT,2
METRIC
; #@! TA.AperFunction,Plated,PTH,ViaDrill
T1C0.300
; #@! TA.AperFunction,Plated,PTH,ComponentDrill
T2C0.300
; #@! TA.AperFunction,Plated,PTH,ComponentDrill
T3C0.800
; #@! TA.AperFunction,Plated,PTH,ComponentDrill
T4C0.813
; #@! TA.AperFunction,Plated,PTH,ComponentDrill
T5C0.900
; #@! TA.AperFunction,Plated,PTH,ComponentDrill
T6C1.000
; #@! TA.AperFunction,Plated,PTH,ComponentDrill
T7C1.500
; #@! TA.AperFunction,Plated,PTH,ComponentDrill
T8C2.200
; #@! TA.AperFunction,Plated,PTH,ComponentDrill
T9C4.100
%
G90
G05
T1
X95.19Y-79.705
X95.93Y-57.98
X96.445Y-60.631
X97.14Y-51.765
X98.06Y-56.845
X98.425Y-64.465
X98.56Y-59.243
X98.875Y-72.085
X99.325Y-74.625
X99.645Y-77.147
X100.17Y-44.145
X101.275Y-46.685
X101.725Y-69.545
X102.49Y-128.57
X103.487Y-126.063
X108.67Y-36.26
X110.522Y-113.066
X111.405Y-113.065
X111.618Y-119.7
X111.653Y-95.21
X112.03Y-60.53
X112.418Y-119.71
X113.85Y-137.69
X120.443Y-117.805
X123.57Y-38.39
X123.6Y-36.46
X125.29Y-118.295
X128.52Y-36.5
X132.449Y-116.944
X133.012Y-40.713
X136.94Y-38.145
X144.92Y-115.305
X151.57Y-113.089
X152.11Y-37.62
X155.92Y-113.574
X168.22Y-37.17
X168.38Y-112.624
X175.0Y-39.294
X186.805Y-114.984
X187.189Y-39.991
X194.057Y-101.81
X203.83Y-118.99
X206.23Y-43.05
T2
X90.536Y-129.948
X96.252Y-141.188
X98.474Y-130.724
X99.641Y-128.609
X100.161Y-129.63
X102.185Y-133.603
X102.71Y-134.632
X103.475Y-131.818
X112.491Y-133.713
X113.074Y-124.53
X114.181Y-124.233
X114.24Y-53.81
X114.24Y-72.86
X114.24Y-91.91
X114.24Y-110.96
X114.9Y-126.111
X117.01Y-121.446
X117.18Y-45.09
X117.18Y-64.14
X117.18Y-83.19
X117.18Y-102.24
X118.326Y-45.09
X118.326Y-64.14
X118.326Y-83.19
X118.326Y-102.24
X118.488Y-123.079
X118.535Y-47.09
X118.535Y-66.14
X118.535Y-85.19
X118.535Y-104.24
X119.604Y-122.78
X121.78Y-43.13
X121.78Y-62.18
X121.78Y-81.23
X121.78Y-100.28
X122.785Y-45.09
X122.785Y-64.14
X122.785Y-83.19
X122.785Y-102.24
X123.94Y-45.09
X123.94Y-64.14
X123.94Y-83.19
X123.94Y-102.24
X124.674Y-130.459
X126.85Y-53.82
X126.85Y-72.87
X126.85Y-91.92
X126.85Y-110.97
X133.29Y-51.31
X133.29Y-70.36
X133.29Y-89.41
X133.29Y-108.46
X133.29Y-127.51
X136.23Y-42.59
X136.23Y-61.64
X136.23Y-80.69
X136.23Y-99.74
X136.23Y-118.79
X137.376Y-42.59
X137.376Y-61.64
X137.376Y-80.69
X137.376Y-99.74
X137.376Y-118.79
X137.585Y-44.59
X137.585Y-63.64
X137.585Y-82.69
X137.585Y-101.74
X137.585Y-120.79
X140.83Y-40.63
X140.83Y-59.68
X140.83Y-78.73
X140.83Y-97.78
X140.83Y-116.83
X141.835Y-42.59
X141.835Y-61.64
X141.835Y-80.69
X141.835Y-99.74
X141.835Y-118.79
X142.99Y-42.59
X142.99Y-61.64
X142.99Y-80.69
X142.99Y-99.74
X142.99Y-118.79
X145.9Y-51.32
X145.9Y-70.37
X145.9Y-89.42
X145.9Y-108.47
X145.9Y-127.52
X152.34Y-48.81
X152.34Y-67.86
X152.34Y-86.91
X152.34Y-105.96
X152.34Y-125.01
X155.28Y-40.09
X155.28Y-59.14
X155.28Y-78.19
X155.28Y-97.24
X155.28Y-116.29
X156.426Y-40.09
X156.426Y-59.14
X156.426Y-78.19
X156.426Y-97.24
X156.426Y-116.29
X156.635Y-42.09
X156.635Y-61.14
X156.635Y-80.19
X156.635Y-99.24
X156.635Y-118.29
X159.88Y-38.13
X159.88Y-57.18
X159.88Y-76.23
X159.88Y-95.28
X159.88Y-114.33
X160.885Y-40.09
X160.885Y-59.14
X160.885Y-78.19
X160.885Y-97.24
X160.885Y-116.29
X162.04Y-40.09
X162.04Y-59.14
X162.04Y-78.19
X162.04Y-97.24
X162.04Y-116.29
X164.95Y-48.82
X164.95Y-67.87
X164.95Y-86.92
X164.95Y-105.97
X164.95Y-125.02
X171.39Y-51.31
X171.39Y-70.36
X171.39Y-89.41
X171.39Y-108.46
X171.39Y-127.51
X174.33Y-42.59
X174.33Y-61.64
X174.33Y-80.69
X174.33Y-99.74
X174.33Y-118.79
X175.476Y-42.59
X175.476Y-61.64
X175.476Y-80.69
X175.476Y-99.74
X175.476Y-118.79
X175.685Y-44.59
X175.685Y-63.64
X175.685Y-82.69
X175.685Y-101.74
X175.685Y-120.79
X178.93Y-40.63
X178.93Y-59.68
X178.93Y-78.73
X178.93Y-97.78
X178.93Y-116.83
X179.935Y-42.59
X179.935Y-61.64
X179.935Y-80.69
X179.935Y-99.74
X179.935Y-118.79
X181.09Y-42.59
X181.09Y-61.64
X181.09Y-80.69
X181.09Y-99.74
X181.09Y-118.79
X184.0Y-51.32
X184.0Y-70.37
X184.0Y-89.42
X184.0Y-108.47
X184.0Y-127.52
X190.44Y-56.21
X190.44Y-75.26
X190.44Y-94.31
X190.44Y-113.36
X193.38Y-47.49
X193.38Y-66.54
X193.38Y-85.59
X193.38Y-104.64
X194.526Y-47.49
X194.526Y-66.54
X194.526Y-85.59
X194.526Y-104.64
X194.735Y-49.49
X194.735Y-68.54
X194.735Y-87.59
X194.735Y-106.64
X197.98Y-45.53
X197.98Y-64.58
X197.98Y-83.63
X197.98Y-102.68
X198.985Y-47.49
X198.985Y-66.54
X198.985Y-85.59
X198.985Y-104.64
X200.14Y-47.49
X200.14Y-66.54
X200.14Y-85.59
X200.14Y-104.64
X203.05Y-56.22
X203.05Y-75.27
X203.05Y-94.32
X203.05Y-113.37
X209.49Y-56.21
X209.49Y-75.26
X209.49Y-94.31
X209.49Y-113.36
X212.43Y-47.49
X212.43Y-66.54
X212.43Y-85.59
X212.43Y-104.64
X213.576Y-47.49
X213.576Y-66.54
X213.576Y-85.59
X213.576Y-104.64
X213.785Y-49.49
X213.785Y-68.54
X213.785Y-87.59
X213.785Y-106.64
X217.03Y-45.53
X217.03Y-64.58
X217.03Y-83.63
X217.03Y-102.68
X218.035Y-47.49
X218.035Y-66.54
X218.035Y-85.59
X218.035Y-104.64
X219.19Y-47.49
X219.19Y-66.54
X219.19Y-85.59
X219.19Y-104.64
X222.1Y-56.22
X222.1Y-75.27
X222.1Y-94.32
X222.1Y-113.37
T3
X86.052Y-36.525
X86.052Y-39.065
X86.052Y-41.605
X86.052Y-44.145
X86.052Y-46.685
X86.052Y-49.225
X86.052Y-51.765
X86.052Y-54.305
X86.052Y-56.845
X86.052Y-59.385
X86.052Y-61.925
X86.052Y-64.465
X86.052Y-67.005
X86.052Y-69.545
X86.052Y-72.085
X86.052Y-74.625
X86.052Y-77.165
X86.052Y-79.705
X86.052Y-82.245
X86.052Y-84.785
X88.593Y-36.525
X88.593Y-39.065
X88.593Y-41.605
X88.593Y-44.145
X88.593Y-46.685
X88.593Y-49.225
X88.593Y-51.765
X88.593Y-54.305
X88.593Y-56.845
X88.593Y-59.385
X88.593Y-61.925
X88.593Y-64.465
X88.593Y-67.005
X88.593Y-69.545
X88.593Y-72.085
X88.593Y-74.625
X88.593Y-77.165
X88.593Y-79.705
X88.593Y-82.245
X88.593Y-84.785
X103.832Y-36.525
X103.832Y-39.065
X103.832Y-41.605
X103.832Y-44.145
X103.832Y-46.685
X103.832Y-49.225
X103.832Y-51.765
X103.832Y-54.305
X103.832Y-56.845
X103.832Y-59.385
X103.832Y-61.925
X103.832Y-64.465
X103.832Y-67.005
X103.832Y-69.545
X103.832Y-72.085
X103.832Y-74.625
X103.832Y-77.165
X103.832Y-79.705
X103.832Y-82.245
X103.832Y-84.785
X106.373Y-36.525
X106.373Y-39.065
X106.373Y-41.605
X106.373Y-44.145
X106.373Y-46.685
X106.373Y-49.225
X106.373Y-51.765
X106.373Y-54.305
X106.373Y-56.845
X106.373Y-59.385
X106.373Y-61.925
X106.373Y-64.465
X106.373Y-67.005
X106.373Y-69.545
X106.373Y-72.085
X106.373Y-74.625
X106.373Y-77.165
X106.373Y-79.705
X106.373Y-82.245
X106.373Y-84.785
X118.4Y-37.46
X120.94Y-37.46
T4
X83.638Y-50.47
X83.638Y-53.01
X83.638Y-55.55
X83.638Y-58.09
X83.638Y-60.63
X83.638Y-63.17
X83.638Y-65.71
X83.638Y-68.25
X108.847Y-50.47
X108.847Y-53.01
X108.847Y-55.55
X108.847Y-58.09
X108.847Y-60.63
X108.847Y-63.17
X108.847Y-65.71
X108.847Y-68.25
T5
X83.301Y-36.597
X83.301Y-44.597
X96.0Y-113.04
X101.193Y-141.279
X104.0Y-113.04
X108.321Y-137.647
X116.221Y-137.567
X116.73Y-58.575
X116.73Y-77.675
X116.73Y-96.675
X116.73Y-115.725
X123.948Y-135.496
X124.73Y-58.575
X124.73Y-77.675
X124.73Y-96.675
X124.73Y-115.725
X135.78Y-56.075
X135.78Y-75.125
X135.78Y-94.175
X135.78Y-113.225
X135.78Y-132.275
X143.78Y-56.075
X143.78Y-75.125
X143.78Y-94.175
X143.78Y-113.225
X143.78Y-132.275
X154.83Y-53.61
X154.83Y-72.625
X154.83Y-91.675
X154.83Y-110.725
X154.83Y-129.775
X162.83Y-53.61
X162.83Y-72.625
X162.83Y-91.675
X162.83Y-110.725
X162.83Y-129.775
X173.88Y-56.075
X173.88Y-75.125
X173.88Y-94.175
X173.88Y-113.225
X173.88Y-132.275
X181.88Y-56.075
X181.88Y-75.125
X181.88Y-94.175
X181.88Y-113.225
X181.88Y-132.275
X192.93Y-60.975
X192.93Y-80.025
X192.93Y-99.075
X192.962Y-118.01
X200.93Y-60.975
X200.93Y-80.025
X200.93Y-99.075
X200.962Y-118.01
X211.98Y-60.975
X211.98Y-80.025
X211.98Y-99.075
X211.98Y-118.125
X219.98Y-60.975
X219.98Y-80.025
X219.98Y-99.075
X219.98Y-118.125
T6
X83.67Y-108.08
X83.67Y-110.62
X83.67Y-113.16
X83.67Y-115.7
X83.67Y-118.24
X86.92Y-108.07
X86.92Y-110.61
X86.92Y-113.15
X86.92Y-115.69
X86.92Y-118.23
X90.24Y-108.07
X90.24Y-110.61
X90.24Y-113.15
X90.24Y-115.69
X90.24Y-118.23
X93.0Y-102.0
X93.0Y-107.0
X107.5Y-102.0
X107.5Y-104.5
X107.5Y-107.0
T8
X130.075Y-81.37
X149.125Y-62.32
X149.125Y-100.42
X168.175Y-81.37
T9
X85.649Y-101.0
X103.59Y-120.53
X105.14Y-90.59
X112.01Y-37.117
X129.44Y-59.51
X129.53Y-97.46
X206.275Y-100.025
X206.29Y-61.91
T6
X84.44Y-88.97G85X84.94Y-88.97
G05
X84.44Y-94.92G85X84.94Y-94.92
G05
X87.44Y-88.97G85X87.94Y-88.97
G05
X87.44Y-94.92G85X87.94Y-94.92
G05
X91.44Y-88.97G85X91.94Y-88.97
G05
X91.44Y-94.92G85X91.94Y-94.92
G05
X92.94Y-90.72G85X93.44Y-90.72
G05
X92.94Y-93.17G85X93.44Y-93.17
G05
T7
X100.65Y-98.9G85X99.35Y-98.9
G05
X100.65Y-110.1G85X99.35Y-110.1
G05
T0
M30
