G04 #@! TF.GenerationSoftware,KiCad,Pcbnew,7.0.5-0*
G04 #@! TF.CreationDate,2023-11-14T08:27:51-08:00*
G04 #@! TF.ProjectId,Sofle_Pico,536f666c-655f-4506-9963-6f2e6b696361,rev?*
G04 #@! TF.SameCoordinates,Original*
G04 #@! TF.FileFunction,Soldermask,Top*
G04 #@! TF.FilePolarity,Negative*
%FSLAX46Y46*%
G04 Gerber Fmt 4.6, Leading zero omitted, Abs format (unit mm)*
G04 Created by KiCad (PCBNEW 7.0.5-0) date 2023-11-14 08:27:51*
%MOMM*%
%LPD*%
G01*
G04 APERTURE LIST*
G04 Aperture macros list*
%AMRoundRect*
0 Rectangle with rounded corners*
0 $1 Rounding radius*
0 $2 $3 $4 $5 $6 $7 $8 $9 X,Y pos of 4 corners*
0 Add a 4 corners polygon primitive as box body*
4,1,4,$2,$3,$4,$5,$6,$7,$8,$9,$2,$3,0*
0 Add four circle primitives for the rounded corners*
1,1,$1+$1,$2,$3*
1,1,$1+$1,$4,$5*
1,1,$1+$1,$6,$7*
1,1,$1+$1,$8,$9*
0 Add four rect primitives between the rounded corners*
20,1,$1+$1,$2,$3,$4,$5,0*
20,1,$1+$1,$4,$5,$6,$7,0*
20,1,$1+$1,$6,$7,$8,$9,0*
20,1,$1+$1,$8,$9,$2,$3,0*%
%AMHorizOval*
0 Thick line with rounded ends*
0 $1 width*
0 $2 $3 position (X,Y) of the first rounded end (center of the circle)*
0 $4 $5 position (X,Y) of the second rounded end (center of the circle)*
0 Add line between two ends*
20,1,$1,$2,$3,$4,$5,0*
0 Add two circle primitives to create the rounded ends*
1,1,$1,$2,$3*
1,1,$1,$4,$5*%
%AMRotRect*
0 Rectangle, with rotation*
0 The origin of the aperture is its center*
0 $1 length*
0 $2 width*
0 $3 Rotation angle, in degrees counterclockwise*
0 Add horizontal line*
21,1,$1,$2,0,0,$3*%
%AMOutline5P*
0 Free polygon, 5 corners , with rotation*
0 The origin of the aperture is its center*
0 number of corners: always 5*
0 $1 to $10 corner X, Y*
0 $11 Rotation angle, in degrees counterclockwise*
0 create outline with 5 corners*
4,1,5,$1,$2,$3,$4,$5,$6,$7,$8,$9,$10,$1,$2,$11*%
%AMOutline6P*
0 Free polygon, 6 corners , with rotation*
0 The origin of the aperture is its center*
0 number of corners: always 6*
0 $1 to $12 corner X, Y*
0 $13 Rotation angle, in degrees counterclockwise*
0 create outline with 6 corners*
4,1,6,$1,$2,$3,$4,$5,$6,$7,$8,$9,$10,$11,$12,$1,$2,$13*%
%AMOutline7P*
0 Free polygon, 7 corners , with rotation*
0 The origin of the aperture is its center*
0 number of corners: always 7*
0 $1 to $14 corner X, Y*
0 $15 Rotation angle, in degrees counterclockwise*
0 create outline with 7 corners*
4,1,7,$1,$2,$3,$4,$5,$6,$7,$8,$9,$10,$11,$12,$13,$14,$1,$2,$15*%
%AMOutline8P*
0 Free polygon, 8 corners , with rotation*
0 The origin of the aperture is its center*
0 number of corners: always 8*
0 $1 to $16 corner X, Y*
0 $17 Rotation angle, in degrees counterclockwise*
0 create outline with 8 corners*
4,1,8,$1,$2,$3,$4,$5,$6,$7,$8,$9,$10,$11,$12,$13,$14,$15,$16,$1,$2,$17*%
%AMFreePoly0*
4,1,28,-0.850000,0.400000,-0.842219,0.514750,-0.797860,0.693119,-0.716195,0.857783,-0.601041,1.001041,-0.457783,1.116195,-0.293119,1.197860,-0.114750,1.242219,0.000000,1.250000,0.850000,0.400000,0.850000,-0.400000,0.842219,-0.514750,0.797860,-0.693119,0.716195,-0.857783,0.601041,-1.001041,0.457783,-1.116195,0.293119,-1.197860,0.114750,-1.242219,0.000000,-1.250000,-0.114750,-1.242219,
-0.293119,-1.197860,-0.457783,-1.116195,-0.601041,-1.001041,-0.716195,-0.857783,-0.797860,-0.693119,-0.842219,-0.514750,-0.850000,-0.400000,-0.850000,0.400000,-0.850000,0.400000,$1*%
%AMFreePoly1*
4,1,28,-0.850000,0.400000,-0.842219,0.514750,-0.797860,0.693119,-0.716195,0.857783,-0.601041,1.001041,-0.457783,1.116195,-0.293119,1.197860,-0.114750,1.242219,0.000000,1.250000,0.114750,1.242219,0.293119,1.197860,0.457783,1.116195,0.601041,1.001041,0.716195,0.857783,0.797860,0.693119,0.842219,0.514750,0.850000,0.400000,0.850000,-0.400000,0.000000,-1.250000,-0.114750,-1.242219,
-0.293119,-1.197860,-0.457783,-1.116195,-0.601041,-1.001041,-0.716195,-0.857783,-0.797860,-0.693119,-0.842219,-0.514750,-0.850000,-0.400000,-0.850000,0.400000,-0.850000,0.400000,$1*%
%AMFreePoly2*
4,1,19,-0.800000,0.000000,-0.784505,0.151663,-0.729731,0.316964,-0.638312,0.465177,-0.515177,0.588312,-0.366964,0.679731,-0.201663,0.734505,-0.050000,0.750000,0.800000,0.750000,0.800000,-0.750000,-0.050000,-0.750000,-0.201663,-0.734505,-0.366964,-0.679731,-0.515177,-0.588312,-0.638312,-0.465177,-0.729731,-0.316964,-0.784505,-0.151663,-0.800000,0.000000,-0.800000,0.000000,-0.800000,0.000000,
$1*%
%AMFreePoly3*
4,1,18,-0.800000,0.750000,0.050000,0.750000,0.201663,0.734505,0.366964,0.679731,0.515177,0.588312,0.638312,0.465177,0.729731,0.316964,0.784505,0.151663,0.800000,0.000000,0.784505,-0.151663,0.729731,-0.316964,0.638312,-0.465177,0.515177,-0.588312,0.366964,-0.679731,0.201663,-0.734505,0.050000,-0.750000,-0.800000,-0.750000,-0.800000,0.750000,-0.800000,0.750000,$1*%
%AMFreePoly4*
4,1,18,-1.275000,0.630000,-0.645000,1.260000,1.023000,1.260000,1.119436,1.240818,1.201191,1.186191,1.255818,1.104436,1.275000,1.008000,1.275000,-1.008000,1.255818,-1.104436,1.201191,-1.186191,1.119436,-1.240818,1.023000,-1.260000,-1.023000,-1.260000,-1.119436,-1.240818,-1.201191,-1.186191,-1.255818,-1.104436,-1.275000,-1.008000,-1.275000,0.630000,-1.275000,0.630000,$1*%
%AMFreePoly5*
4,1,17,-1.275000,1.008000,-1.255818,1.104436,-1.201191,1.186191,-1.119436,1.240818,-1.023000,1.260000,1.023000,1.260000,1.119436,1.240818,1.201191,1.186191,1.255818,1.104436,1.275000,1.008000,1.275000,-1.260000,-1.023000,-1.260000,-1.119436,-1.240818,-1.201191,-1.186191,-1.255818,-1.104436,-1.275000,-1.008000,-1.275000,1.008000,-1.275000,1.008000,$1*%
G04 Aperture macros list end*
%ADD10C,1.200000*%
%ADD11FreePoly0,90.000000*%
%ADD12FreePoly1,90.000000*%
%ADD13O,2.500000X1.700000*%
%ADD14C,1.397000*%
%ADD15C,2.000000*%
%ADD16R,3.200000X2.000000*%
%ADD17C,4.700000*%
%ADD18R,1.700000X1.700000*%
%ADD19O,1.700000X1.700000*%
%ADD20FreePoly2,180.000000*%
%ADD21FreePoly3,180.000000*%
%ADD22C,1.700000*%
%ADD23C,4.400000*%
%ADD24C,1.500000*%
%ADD25R,1.500000X1.500000*%
%ADD26R,1.400000X1.400000*%
%ADD27RoundRect,0.300000X-0.400000X-0.300000X0.400000X-0.300000X0.400000X0.300000X-0.400000X0.300000X0*%
%ADD28C,1.400000*%
%ADD29RotRect,1.400000X1.400000X27.000000*%
%ADD30RoundRect,0.300000X-0.220205X-0.448898X0.492600X-0.085706X0.220205X0.448898X-0.492600X0.085706X0*%
%ADD31C,1.750000*%
%ADD32C,3.000000*%
%ADD33O,1.000000X4.000000*%
%ADD34C,3.987800*%
%ADD35O,3.400000X1.000000*%
%ADD36O,3.400000X3.000000*%
%ADD37R,1.700000X0.820000*%
%ADD38Outline5P,-0.850000X0.410000X0.850000X0.410000X0.850000X-0.410000X-0.440000X-0.410000X-0.850000X0.000000X180.000000*%
%ADD39FreePoly4,0.000000*%
%ADD40FreePoly5,0.000000*%
%ADD41HorizOval,1.000000X-1.336510X-0.680986X1.336510X0.680986X0*%
%ADD42HorizOval,1.000000X-0.544789X1.069208X0.544789X-1.069208X0*%
%ADD43HorizOval,3.000000X-0.090798X0.178201X0.090798X-0.178201X0*%
%ADD44RotRect,1.700000X0.820000X117.000000*%
%ADD45Outline5P,-0.850000X0.410000X0.850000X0.410000X0.850000X-0.410000X-0.440000X-0.410000X-0.850000X0.000000X117.000000*%
%ADD46FreePoly4,297.000000*%
%ADD47FreePoly5,297.000000*%
%ADD48HorizOval,1.000000X-0.388229X1.448889X0.388229X-1.448889X0*%
%ADD49HorizOval,1.000000X-1.159111X-0.310583X1.159111X0.310583X0*%
%ADD50HorizOval,3.000000X-0.193185X-0.051764X0.193185X0.051764X0*%
%ADD51RotRect,1.700000X0.820000X195.000000*%
%ADD52Outline5P,-0.850000X0.410000X0.850000X0.410000X0.850000X-0.410000X-0.440000X-0.410000X-0.850000X0.000000X195.000000*%
%ADD53FreePoly4,15.000000*%
%ADD54FreePoly5,15.000000*%
%ADD55RotRect,1.400000X1.400000X15.000000*%
%ADD56RoundRect,0.300000X-0.308725X-0.393305X0.464016X-0.186250X0.308725X0.393305X-0.464016X0.186250X0*%
%ADD57RoundRect,0.300000X0.300000X-0.400000X0.300000X0.400000X-0.300000X0.400000X-0.300000X-0.400000X0*%
G04 APERTURE END LIST*
D10*
X82890000Y-92820000D03*
X89890000Y-92820000D03*
X82890000Y-91070000D03*
X89890000Y-91070000D03*
D11*
X93190000Y-90720000D03*
D12*
X91690000Y-94920000D03*
D13*
X87690000Y-94920000D03*
X84690000Y-94920000D03*
D14*
X83637500Y-58090000D03*
X83637500Y-68250000D03*
X83637500Y-55550000D03*
X83637500Y-65710000D03*
X83637500Y-53010000D03*
X83637500Y-60630000D03*
X83637500Y-50470000D03*
X83637500Y-63170000D03*
D15*
X107500000Y-107000000D03*
X107500000Y-102000000D03*
X107500000Y-104500000D03*
D16*
X100000000Y-110100000D03*
X100000000Y-98900000D03*
D15*
X93000000Y-102000000D03*
X93000000Y-107000000D03*
D17*
X206290000Y-61910000D03*
X206275000Y-100025000D03*
X129440000Y-59510000D03*
X129530000Y-97460000D03*
D18*
X83670000Y-108080000D03*
D19*
X83670000Y-110620000D03*
X83670000Y-113160000D03*
X83670000Y-118240000D03*
D20*
X120840000Y-37460000D03*
D21*
X118500000Y-37460000D03*
D22*
X90240000Y-108070000D03*
D19*
X90240000Y-110610000D03*
X90240000Y-113150000D03*
X90240000Y-115690000D03*
X90240000Y-118230000D03*
D22*
X86920000Y-108070000D03*
D19*
X86920000Y-110610000D03*
X86920000Y-113150000D03*
X86920000Y-115690000D03*
X86920000Y-118230000D03*
D23*
X130075000Y-81370000D03*
X149125000Y-62320000D03*
X149125000Y-100420000D03*
X168175000Y-81370000D03*
D17*
X103590000Y-120530000D03*
X112010000Y-37117432D03*
X105140000Y-90590000D03*
D24*
X106372500Y-36524865D03*
X106372500Y-39064865D03*
D25*
X106372500Y-41604865D03*
D24*
X106372500Y-44144865D03*
X106372500Y-46684865D03*
X106372500Y-49224865D03*
X106372500Y-51764865D03*
D25*
X106372500Y-54304865D03*
D24*
X106372500Y-56844865D03*
X106372500Y-59384865D03*
X106372500Y-61924865D03*
X106372500Y-64464865D03*
D25*
X106372500Y-67004865D03*
D24*
X106372500Y-69544865D03*
X106372500Y-72084865D03*
X106372500Y-74624865D03*
X106372500Y-77164865D03*
D25*
X106372500Y-79704865D03*
D24*
X106372500Y-82244865D03*
X106372500Y-84784865D03*
X88592500Y-84784865D03*
X88592500Y-82244865D03*
D25*
X88592500Y-79704865D03*
D24*
X88592500Y-77164865D03*
X88592500Y-74624865D03*
X88592500Y-72084865D03*
X88592500Y-69544865D03*
D25*
X88592500Y-67004865D03*
D24*
X88592500Y-64464865D03*
X88592500Y-61924865D03*
X88592500Y-59384865D03*
X88592500Y-56844865D03*
D25*
X88592500Y-54304865D03*
D24*
X88592500Y-51764865D03*
X88592500Y-49224865D03*
X88592500Y-46684865D03*
X88592500Y-44144865D03*
D25*
X88592500Y-41604865D03*
D24*
X88592500Y-39064865D03*
X88592500Y-36524865D03*
D17*
X85649033Y-101000000D03*
D26*
X116730000Y-58575000D03*
D27*
X118830000Y-58575000D03*
X122630000Y-58575000D03*
D28*
X124730000Y-58575000D03*
D26*
X135780000Y-56075000D03*
D27*
X137880000Y-56075000D03*
X141680000Y-56075000D03*
D28*
X143780000Y-56075000D03*
D26*
X154830000Y-53610000D03*
D27*
X156930000Y-53610000D03*
X160730000Y-53610000D03*
D28*
X162830000Y-53610000D03*
D26*
X173880000Y-56075000D03*
D27*
X175980000Y-56075000D03*
X179780000Y-56075000D03*
D28*
X181880000Y-56075000D03*
D26*
X192930000Y-60975000D03*
D27*
X195030000Y-60975000D03*
X198830000Y-60975000D03*
D28*
X200930000Y-60975000D03*
D26*
X211980000Y-60975000D03*
D27*
X214080000Y-60975000D03*
X217880000Y-60975000D03*
D28*
X219980000Y-60975000D03*
D26*
X116730000Y-96675000D03*
D27*
X118830000Y-96675000D03*
X122630000Y-96675000D03*
D28*
X124730000Y-96675000D03*
D26*
X116730000Y-115725000D03*
D27*
X118830000Y-115725000D03*
X122630000Y-115725000D03*
D28*
X124730000Y-115725000D03*
D26*
X96000000Y-113040000D03*
D27*
X98100000Y-113040000D03*
X101900000Y-113040000D03*
D28*
X104000000Y-113040000D03*
D29*
X101193062Y-141278544D03*
D30*
X103064176Y-140325164D03*
X106450000Y-138600000D03*
D28*
X108321114Y-137646620D03*
D31*
X115470000Y-50000000D03*
X115470000Y-50000000D03*
D32*
X116740000Y-52540000D03*
X118010000Y-55080000D03*
D33*
X119359994Y-45130000D03*
D34*
X120550000Y-50000000D03*
X120550000Y-50000000D03*
D35*
X120559994Y-44130000D03*
D36*
X120559994Y-45130000D03*
D35*
X120559994Y-46130000D03*
D33*
X121759994Y-45130000D03*
D32*
X123090000Y-55080000D03*
X124360000Y-52540000D03*
D31*
X125630000Y-50000000D03*
X125630000Y-50000000D03*
D37*
X118009994Y-45880000D03*
X118009994Y-44380000D03*
D38*
X123109994Y-44380000D03*
D37*
X123109994Y-45880000D03*
D39*
X126392000Y-55070000D03*
D40*
X113465000Y-52550000D03*
D31*
X153570000Y-45000000D03*
X153570000Y-45000000D03*
D32*
X154840000Y-47540000D03*
X156110000Y-50080000D03*
D33*
X157459994Y-40130000D03*
D34*
X158650000Y-45000000D03*
X158650000Y-45000000D03*
D35*
X158659994Y-39130000D03*
D36*
X158659994Y-40130000D03*
D35*
X158659994Y-41130000D03*
D33*
X159859994Y-40130000D03*
D32*
X161190000Y-50080000D03*
X162460000Y-47540000D03*
D31*
X163730000Y-45000000D03*
X163730000Y-45000000D03*
D37*
X156109994Y-40880000D03*
X156109994Y-39380000D03*
D38*
X161209994Y-39380000D03*
D37*
X161209994Y-40880000D03*
D39*
X164492000Y-50070000D03*
D40*
X151565000Y-47550000D03*
D31*
X115470000Y-88100000D03*
X115470000Y-88100000D03*
D32*
X116740000Y-90640000D03*
X118010000Y-93180000D03*
D33*
X119359994Y-83230000D03*
D34*
X120550000Y-88100000D03*
X120550000Y-88100000D03*
D35*
X120559994Y-82230000D03*
D36*
X120559994Y-83230000D03*
D35*
X120559994Y-84230000D03*
D33*
X121759994Y-83230000D03*
D32*
X123090000Y-93180000D03*
X124360000Y-90640000D03*
D31*
X125630000Y-88100000D03*
X125630000Y-88100000D03*
D37*
X118009994Y-83980000D03*
X118009994Y-82480000D03*
D38*
X123109994Y-82480000D03*
D37*
X123109994Y-83980000D03*
D39*
X126392000Y-93170000D03*
D40*
X113465000Y-90650000D03*
D31*
X134520000Y-85600000D03*
X134520000Y-85600000D03*
D32*
X135790000Y-88140000D03*
X137060000Y-90680000D03*
D33*
X138409994Y-80730000D03*
D34*
X139600000Y-85600000D03*
X139600000Y-85600000D03*
D35*
X139609994Y-79730000D03*
D36*
X139609994Y-80730000D03*
D35*
X139609994Y-81730000D03*
D33*
X140809994Y-80730000D03*
D32*
X142140000Y-90680000D03*
X143410000Y-88140000D03*
D31*
X144680000Y-85600000D03*
X144680000Y-85600000D03*
D37*
X137059994Y-81480000D03*
X137059994Y-79980000D03*
D38*
X142159994Y-79980000D03*
D37*
X142159994Y-81480000D03*
D39*
X145442000Y-90670000D03*
D40*
X132515000Y-88150000D03*
D31*
X153570000Y-102150000D03*
X153570000Y-102150000D03*
D32*
X154840000Y-104690000D03*
X156110000Y-107230000D03*
D33*
X157459994Y-97280000D03*
D34*
X158650000Y-102150000D03*
X158650000Y-102150000D03*
D35*
X158659994Y-96280000D03*
D36*
X158659994Y-97280000D03*
D35*
X158659994Y-98280000D03*
D33*
X159859994Y-97280000D03*
D32*
X161190000Y-107230000D03*
X162460000Y-104690000D03*
D31*
X163730000Y-102150000D03*
X163730000Y-102150000D03*
D37*
X156109994Y-98030000D03*
X156109994Y-96530000D03*
D38*
X161209994Y-96530000D03*
D37*
X161209994Y-98030000D03*
D39*
X164492000Y-107220000D03*
D40*
X151565000Y-104700000D03*
D31*
X191670000Y-109550000D03*
X191670000Y-109550000D03*
D32*
X192940000Y-112090000D03*
X194210000Y-114630000D03*
D33*
X195559994Y-104680000D03*
D34*
X196750000Y-109550000D03*
X196750000Y-109550000D03*
D35*
X196759994Y-103680000D03*
D36*
X196759994Y-104680000D03*
D35*
X196759994Y-105680000D03*
D33*
X197959994Y-104680000D03*
D32*
X199290000Y-114630000D03*
X200560000Y-112090000D03*
D31*
X201830000Y-109550000D03*
X201830000Y-109550000D03*
D37*
X194209994Y-105430000D03*
X194209994Y-103930000D03*
D38*
X199309994Y-103930000D03*
D37*
X199309994Y-105430000D03*
D39*
X202592000Y-114620000D03*
D40*
X189665000Y-112100000D03*
D31*
X94489474Y-129314496D03*
X94489474Y-129314496D03*
D32*
X92802886Y-131599210D03*
X91116297Y-133883924D03*
D41*
X100594696Y-130569572D03*
D34*
X96795746Y-133840809D03*
X96795746Y-133840809D03*
D42*
X102030491Y-131184789D03*
D43*
X101139485Y-131638780D03*
D42*
X100248478Y-132092770D03*
D41*
X101684274Y-132707988D03*
D32*
X93422569Y-138410237D03*
X96262293Y-138388680D03*
D31*
X99102018Y-138367122D03*
X99102018Y-138367122D03*
D44*
X99313554Y-129707206D03*
X100650064Y-129026220D03*
D45*
X102965416Y-133570354D03*
D44*
X101628906Y-134251339D03*
D46*
X94930555Y-141347801D03*
D47*
X91307157Y-128685704D03*
D31*
X112693097Y-129714801D03*
X112693097Y-129714801D03*
D32*
X114577223Y-131839552D03*
X116461349Y-133964304D03*
D48*
X115190094Y-124003937D03*
D34*
X117600000Y-128400000D03*
X117600000Y-128400000D03*
D49*
X116090386Y-122727429D03*
D50*
X116349205Y-123693355D03*
D49*
X116608024Y-124659280D03*
D48*
X117508316Y-123382772D03*
D32*
X121368252Y-132649503D03*
X121937578Y-129867351D03*
D31*
X122506903Y-127085199D03*
X122506903Y-127085199D03*
D51*
X114080208Y-125077788D03*
X113691980Y-123628899D03*
D52*
X118618201Y-122308922D03*
D51*
X119006430Y-123757810D03*
D53*
X124555151Y-131785223D03*
D54*
X111416404Y-132696844D03*
D31*
X210720000Y-71450000D03*
X210720000Y-71450000D03*
D32*
X211990000Y-73990000D03*
X213260000Y-76530000D03*
D33*
X214609994Y-66580000D03*
D34*
X215800000Y-71450000D03*
X215800000Y-71450000D03*
D35*
X215809994Y-65580000D03*
D36*
X215809994Y-66580000D03*
D35*
X215809994Y-67580000D03*
D33*
X217009994Y-66580000D03*
D32*
X218340000Y-76530000D03*
X219610000Y-73990000D03*
D31*
X220880000Y-71450000D03*
X220880000Y-71450000D03*
D37*
X213259994Y-67330000D03*
X213259994Y-65830000D03*
D38*
X218359994Y-65830000D03*
D37*
X218359994Y-67330000D03*
D39*
X221642000Y-76520000D03*
D40*
X208715000Y-74000000D03*
D31*
X210720000Y-90500000D03*
X210720000Y-90500000D03*
D32*
X211990000Y-93040000D03*
X213260000Y-95580000D03*
D33*
X214609994Y-85630000D03*
D34*
X215800000Y-90500000D03*
X215800000Y-90500000D03*
D35*
X215809994Y-84630000D03*
D36*
X215809994Y-85630000D03*
D35*
X215809994Y-86630000D03*
D33*
X217009994Y-85630000D03*
D32*
X218340000Y-95580000D03*
X219610000Y-93040000D03*
D31*
X220880000Y-90500000D03*
X220880000Y-90500000D03*
D37*
X213259994Y-86380000D03*
X213259994Y-84880000D03*
D38*
X218359994Y-84880000D03*
D37*
X218359994Y-86380000D03*
D39*
X221642000Y-95570000D03*
D40*
X208715000Y-93050000D03*
D31*
X210720000Y-109550000D03*
X210720000Y-109550000D03*
D32*
X211990000Y-112090000D03*
X213260000Y-114630000D03*
D33*
X214609994Y-104680000D03*
D34*
X215800000Y-109550000D03*
X215800000Y-109550000D03*
D35*
X215809994Y-103680000D03*
D36*
X215809994Y-104680000D03*
D35*
X215809994Y-105680000D03*
D33*
X217009994Y-104680000D03*
D32*
X218340000Y-114630000D03*
X219610000Y-112090000D03*
D31*
X220880000Y-109550000D03*
X220880000Y-109550000D03*
D37*
X213259994Y-105430000D03*
X213259994Y-103930000D03*
D38*
X218359994Y-103930000D03*
D37*
X218359994Y-105430000D03*
D39*
X221642000Y-114620000D03*
D40*
X208715000Y-112100000D03*
D31*
X172620000Y-47500000D03*
X172620000Y-47500000D03*
D32*
X173890000Y-50040000D03*
X175160000Y-52580000D03*
D33*
X176509994Y-42630000D03*
D34*
X177700000Y-47500000D03*
X177700000Y-47500000D03*
D35*
X177709994Y-41630000D03*
D36*
X177709994Y-42630000D03*
D35*
X177709994Y-43630000D03*
D33*
X178909994Y-42630000D03*
D32*
X180240000Y-52580000D03*
X181510000Y-50040000D03*
D31*
X182780000Y-47500000D03*
X182780000Y-47500000D03*
D37*
X175159994Y-43380000D03*
X175159994Y-41880000D03*
D38*
X180259994Y-41880000D03*
D37*
X180259994Y-43380000D03*
D39*
X183542000Y-52570000D03*
D40*
X170615000Y-50050000D03*
D26*
X116730000Y-77675000D03*
D27*
X118830000Y-77675000D03*
X122630000Y-77675000D03*
D28*
X124730000Y-77675000D03*
D26*
X135780000Y-75125000D03*
D27*
X137880000Y-75125000D03*
X141680000Y-75125000D03*
D28*
X143780000Y-75125000D03*
D26*
X154830000Y-72625000D03*
D27*
X156930000Y-72625000D03*
X160730000Y-72625000D03*
D28*
X162830000Y-72625000D03*
D26*
X173880000Y-75125000D03*
D27*
X175980000Y-75125000D03*
X179780000Y-75125000D03*
D28*
X181880000Y-75125000D03*
D26*
X192930000Y-80025000D03*
D27*
X195030000Y-80025000D03*
X198830000Y-80025000D03*
D28*
X200930000Y-80025000D03*
D26*
X211980000Y-80025000D03*
D27*
X214080000Y-80025000D03*
X217880000Y-80025000D03*
D28*
X219980000Y-80025000D03*
D31*
X191670000Y-52400000D03*
X191670000Y-52400000D03*
D32*
X192940000Y-54940000D03*
X194210000Y-57480000D03*
D33*
X195559994Y-47530000D03*
D34*
X196750000Y-52400000D03*
X196750000Y-52400000D03*
D35*
X196759994Y-46530000D03*
D36*
X196759994Y-47530000D03*
D35*
X196759994Y-48530000D03*
D33*
X197959994Y-47530000D03*
D32*
X199290000Y-57480000D03*
X200560000Y-54940000D03*
D31*
X201830000Y-52400000D03*
X201830000Y-52400000D03*
D37*
X194209994Y-48280000D03*
X194209994Y-46780000D03*
D38*
X199309994Y-46780000D03*
D37*
X199309994Y-48280000D03*
D39*
X202592000Y-57470000D03*
D40*
X189665000Y-54950000D03*
D31*
X134520000Y-66550000D03*
X134520000Y-66550000D03*
D32*
X135790000Y-69090000D03*
X137060000Y-71630000D03*
D33*
X138409994Y-61680000D03*
D34*
X139600000Y-66550000D03*
X139600000Y-66550000D03*
D35*
X139609994Y-60680000D03*
D36*
X139609994Y-61680000D03*
D35*
X139609994Y-62680000D03*
D33*
X140809994Y-61680000D03*
D32*
X142140000Y-71630000D03*
X143410000Y-69090000D03*
D31*
X144680000Y-66550000D03*
X144680000Y-66550000D03*
D37*
X137059994Y-62430000D03*
X137059994Y-60930000D03*
D38*
X142159994Y-60930000D03*
D37*
X142159994Y-62430000D03*
D39*
X145442000Y-71620000D03*
D40*
X132515000Y-69100000D03*
D31*
X172620000Y-66550000D03*
X172620000Y-66550000D03*
D32*
X173890000Y-69090000D03*
X175160000Y-71630000D03*
D33*
X176509994Y-61680000D03*
D34*
X177700000Y-66550000D03*
X177700000Y-66550000D03*
D35*
X177709994Y-60680000D03*
D36*
X177709994Y-61680000D03*
D35*
X177709994Y-62680000D03*
D33*
X178909994Y-61680000D03*
D32*
X180240000Y-71630000D03*
X181510000Y-69090000D03*
D31*
X182780000Y-66550000D03*
X182780000Y-66550000D03*
D37*
X175159994Y-62430000D03*
X175159994Y-60930000D03*
D38*
X180259994Y-60930000D03*
D37*
X180259994Y-62430000D03*
D39*
X183542000Y-71620000D03*
D40*
X170615000Y-69100000D03*
D31*
X153570000Y-64050000D03*
X153570000Y-64050000D03*
D32*
X154840000Y-66590000D03*
X156110000Y-69130000D03*
D33*
X157459994Y-59180000D03*
D34*
X158650000Y-64050000D03*
X158650000Y-64050000D03*
D35*
X158659994Y-58180000D03*
D36*
X158659994Y-59180000D03*
D35*
X158659994Y-60180000D03*
D33*
X159859994Y-59180000D03*
D32*
X161190000Y-69130000D03*
X162460000Y-66590000D03*
D31*
X163730000Y-64050000D03*
X163730000Y-64050000D03*
D37*
X156109994Y-59930000D03*
X156109994Y-58430000D03*
D38*
X161209994Y-58430000D03*
D37*
X161209994Y-59930000D03*
D39*
X164492000Y-69120000D03*
D40*
X151565000Y-66600000D03*
D31*
X172620000Y-85600000D03*
X172620000Y-85600000D03*
D32*
X173890000Y-88140000D03*
X175160000Y-90680000D03*
D33*
X176509994Y-80730000D03*
D34*
X177700000Y-85600000D03*
X177700000Y-85600000D03*
D35*
X177709994Y-79730000D03*
D36*
X177709994Y-80730000D03*
D35*
X177709994Y-81730000D03*
D33*
X178909994Y-80730000D03*
D32*
X180240000Y-90680000D03*
X181510000Y-88140000D03*
D31*
X182780000Y-85600000D03*
X182780000Y-85600000D03*
D37*
X175159994Y-81480000D03*
X175159994Y-79980000D03*
D38*
X180259994Y-79980000D03*
D37*
X180259994Y-81480000D03*
D39*
X183542000Y-90670000D03*
D40*
X170615000Y-88150000D03*
D31*
X210720000Y-52400000D03*
X210720000Y-52400000D03*
D32*
X211990000Y-54940000D03*
X213260000Y-57480000D03*
D33*
X214609994Y-47530000D03*
D34*
X215800000Y-52400000D03*
X215800000Y-52400000D03*
D35*
X215809994Y-46530000D03*
D36*
X215809994Y-47530000D03*
D35*
X215809994Y-48530000D03*
D33*
X217009994Y-47530000D03*
D32*
X218340000Y-57480000D03*
X219610000Y-54940000D03*
D31*
X220880000Y-52400000D03*
X220880000Y-52400000D03*
D37*
X213259994Y-48280000D03*
X213259994Y-46780000D03*
D38*
X218359994Y-46780000D03*
D37*
X218359994Y-48280000D03*
D39*
X221642000Y-57470000D03*
D40*
X208715000Y-54950000D03*
D31*
X115470000Y-69050000D03*
X115470000Y-69050000D03*
D32*
X116740000Y-71590000D03*
X118010000Y-74130000D03*
D33*
X119359994Y-64180000D03*
D34*
X120550000Y-69050000D03*
X120550000Y-69050000D03*
D35*
X120559994Y-63180000D03*
D36*
X120559994Y-64180000D03*
D35*
X120559994Y-65180000D03*
D33*
X121759994Y-64180000D03*
D32*
X123090000Y-74130000D03*
X124360000Y-71590000D03*
D31*
X125630000Y-69050000D03*
X125630000Y-69050000D03*
D37*
X118009994Y-64930000D03*
X118009994Y-63430000D03*
D38*
X123109994Y-63430000D03*
D37*
X123109994Y-64930000D03*
D39*
X126392000Y-74120000D03*
D40*
X113465000Y-71600000D03*
D31*
X172620000Y-123700000D03*
X172620000Y-123700000D03*
D32*
X173890000Y-126240000D03*
X175160000Y-128780000D03*
D33*
X176509994Y-118830000D03*
D34*
X177700000Y-123700000D03*
X177700000Y-123700000D03*
D35*
X177709994Y-117830000D03*
D36*
X177709994Y-118830000D03*
D35*
X177709994Y-119830000D03*
D33*
X178909994Y-118830000D03*
D32*
X180240000Y-128780000D03*
X181510000Y-126240000D03*
D31*
X182780000Y-123700000D03*
X182780000Y-123700000D03*
D37*
X175159994Y-119580000D03*
X175159994Y-118080000D03*
D38*
X180259994Y-118080000D03*
D37*
X180259994Y-119580000D03*
D39*
X183542000Y-128770000D03*
D40*
X170615000Y-126250000D03*
D31*
X191670000Y-71450000D03*
X191670000Y-71450000D03*
D32*
X192940000Y-73990000D03*
X194210000Y-76530000D03*
D33*
X195559994Y-66580000D03*
D34*
X196750000Y-71450000D03*
X196750000Y-71450000D03*
D35*
X196759994Y-65580000D03*
D36*
X196759994Y-66580000D03*
D35*
X196759994Y-67580000D03*
D33*
X197959994Y-66580000D03*
D32*
X199290000Y-76530000D03*
X200560000Y-73990000D03*
D31*
X201830000Y-71450000D03*
X201830000Y-71450000D03*
D37*
X194209994Y-67330000D03*
X194209994Y-65830000D03*
D38*
X199309994Y-65830000D03*
D37*
X199309994Y-67330000D03*
D39*
X202592000Y-76520000D03*
D40*
X189665000Y-74000000D03*
D31*
X172620000Y-104650000D03*
X172620000Y-104650000D03*
D32*
X173890000Y-107190000D03*
X175160000Y-109730000D03*
D33*
X176509994Y-99780000D03*
D34*
X177700000Y-104650000D03*
X177700000Y-104650000D03*
D35*
X177709994Y-98780000D03*
D36*
X177709994Y-99780000D03*
D35*
X177709994Y-100780000D03*
D33*
X178909994Y-99780000D03*
D32*
X180240000Y-109730000D03*
X181510000Y-107190000D03*
D31*
X182780000Y-104650000D03*
X182780000Y-104650000D03*
D37*
X175159994Y-100530000D03*
X175159994Y-99030000D03*
D38*
X180259994Y-99030000D03*
D37*
X180259994Y-100530000D03*
D39*
X183542000Y-109720000D03*
D40*
X170615000Y-107200000D03*
D31*
X191670000Y-90500000D03*
X191670000Y-90500000D03*
D32*
X192940000Y-93040000D03*
X194210000Y-95580000D03*
D33*
X195559994Y-85630000D03*
D34*
X196750000Y-90500000D03*
X196750000Y-90500000D03*
D35*
X196759994Y-84630000D03*
D36*
X196759994Y-85630000D03*
D35*
X196759994Y-86630000D03*
D33*
X197959994Y-85630000D03*
D32*
X199290000Y-95580000D03*
X200560000Y-93040000D03*
D31*
X201830000Y-90500000D03*
X201830000Y-90500000D03*
D37*
X194209994Y-86380000D03*
X194209994Y-84880000D03*
D38*
X199309994Y-84880000D03*
D37*
X199309994Y-86380000D03*
D39*
X202592000Y-95570000D03*
D40*
X189665000Y-93050000D03*
D31*
X153570000Y-121200000D03*
X153570000Y-121200000D03*
D32*
X154840000Y-123740000D03*
X156110000Y-126280000D03*
D33*
X157459994Y-116330000D03*
D34*
X158650000Y-121200000D03*
X158650000Y-121200000D03*
D35*
X158659994Y-115330000D03*
D36*
X158659994Y-116330000D03*
D35*
X158659994Y-117330000D03*
D33*
X159859994Y-116330000D03*
D32*
X161190000Y-126280000D03*
X162460000Y-123740000D03*
D31*
X163730000Y-121200000D03*
X163730000Y-121200000D03*
D37*
X156109994Y-117080000D03*
X156109994Y-115580000D03*
D38*
X161209994Y-115580000D03*
D37*
X161209994Y-117080000D03*
D39*
X164492000Y-126270000D03*
D40*
X151565000Y-123750000D03*
D31*
X153570000Y-83100000D03*
X153570000Y-83100000D03*
D32*
X154840000Y-85640000D03*
X156110000Y-88180000D03*
D33*
X157459994Y-78230000D03*
D34*
X158650000Y-83100000D03*
X158650000Y-83100000D03*
D35*
X158659994Y-77230000D03*
D36*
X158659994Y-78230000D03*
D35*
X158659994Y-79230000D03*
D33*
X159859994Y-78230000D03*
D32*
X161190000Y-88180000D03*
X162460000Y-85640000D03*
D31*
X163730000Y-83100000D03*
X163730000Y-83100000D03*
D37*
X156109994Y-78980000D03*
X156109994Y-77480000D03*
D38*
X161209994Y-77480000D03*
D37*
X161209994Y-78980000D03*
D39*
X164492000Y-88170000D03*
D40*
X151565000Y-85650000D03*
D31*
X134520000Y-47500000D03*
X134520000Y-47500000D03*
D32*
X135790000Y-50040000D03*
X137060000Y-52580000D03*
D33*
X138409994Y-42630000D03*
D34*
X139600000Y-47500000D03*
X139600000Y-47500000D03*
D35*
X139609994Y-41630000D03*
D36*
X139609994Y-42630000D03*
D35*
X139609994Y-43630000D03*
D33*
X140809994Y-42630000D03*
D32*
X142140000Y-52580000D03*
X143410000Y-50040000D03*
D31*
X144680000Y-47500000D03*
X144680000Y-47500000D03*
D37*
X137059994Y-43380000D03*
X137059994Y-41880000D03*
D38*
X142159994Y-41880000D03*
D37*
X142159994Y-43380000D03*
D39*
X145442000Y-52570000D03*
D40*
X132515000Y-50050000D03*
D55*
X116221038Y-137567032D03*
D56*
X118249482Y-137023512D03*
X121920000Y-136040000D03*
D28*
X123948444Y-135496480D03*
D31*
X134520000Y-104650000D03*
X134520000Y-104650000D03*
D32*
X135790000Y-107190000D03*
X137060000Y-109730000D03*
D33*
X138409994Y-99780000D03*
D34*
X139600000Y-104650000D03*
X139600000Y-104650000D03*
D35*
X139609994Y-98780000D03*
D36*
X139609994Y-99780000D03*
D35*
X139609994Y-100780000D03*
D33*
X140809994Y-99780000D03*
D32*
X142140000Y-109730000D03*
X143410000Y-107190000D03*
D31*
X144680000Y-104650000D03*
X144680000Y-104650000D03*
D37*
X137059994Y-100530000D03*
X137059994Y-99030000D03*
D38*
X142159994Y-99030000D03*
D37*
X142159994Y-100530000D03*
D39*
X145442000Y-109720000D03*
D40*
X132515000Y-107200000D03*
D26*
X154830000Y-91675000D03*
D27*
X156930000Y-91675000D03*
X160730000Y-91675000D03*
D28*
X162830000Y-91675000D03*
D26*
X192930000Y-99075000D03*
D27*
X195030000Y-99075000D03*
X198830000Y-99075000D03*
D28*
X200930000Y-99075000D03*
D26*
X211980000Y-99075000D03*
D27*
X214080000Y-99075000D03*
X217880000Y-99075000D03*
D28*
X219980000Y-99075000D03*
D26*
X135780000Y-132275000D03*
D27*
X137880000Y-132275000D03*
X141680000Y-132275000D03*
D28*
X143780000Y-132275000D03*
D26*
X154830000Y-129775000D03*
D27*
X156930000Y-129775000D03*
X160730000Y-129775000D03*
D28*
X162830000Y-129775000D03*
D26*
X211980000Y-118125000D03*
D27*
X214080000Y-118125000D03*
X217880000Y-118125000D03*
D28*
X219980000Y-118125000D03*
D26*
X135780000Y-113225000D03*
D27*
X137880000Y-113225000D03*
X141680000Y-113225000D03*
D28*
X143780000Y-113225000D03*
D26*
X154830000Y-110725000D03*
D27*
X156930000Y-110725000D03*
X160730000Y-110725000D03*
D28*
X162830000Y-110725000D03*
D26*
X173880000Y-113225000D03*
D27*
X175980000Y-113225000D03*
X179780000Y-113225000D03*
D28*
X181880000Y-113225000D03*
D26*
X192962500Y-118010000D03*
D27*
X195062500Y-118010000D03*
X198862500Y-118010000D03*
D28*
X200962500Y-118010000D03*
D26*
X135780000Y-94175000D03*
D27*
X137880000Y-94175000D03*
X141680000Y-94175000D03*
D28*
X143780000Y-94175000D03*
D26*
X173880000Y-132275000D03*
D27*
X175980000Y-132275000D03*
X179780000Y-132275000D03*
D28*
X181880000Y-132275000D03*
D31*
X134520000Y-123700000D03*
X134520000Y-123700000D03*
D32*
X135790000Y-126240000D03*
X137060000Y-128780000D03*
D33*
X138409994Y-118830000D03*
D34*
X139600000Y-123700000D03*
X139600000Y-123700000D03*
D35*
X139609994Y-117830000D03*
D36*
X139609994Y-118830000D03*
D35*
X139609994Y-119830000D03*
D33*
X140809994Y-118830000D03*
D32*
X142140000Y-128780000D03*
X143410000Y-126240000D03*
D31*
X144680000Y-123700000D03*
X144680000Y-123700000D03*
D37*
X137059994Y-119580000D03*
X137059994Y-118080000D03*
D38*
X142159994Y-118080000D03*
D37*
X142159994Y-119580000D03*
D39*
X145442000Y-128770000D03*
D40*
X132515000Y-126250000D03*
D26*
X83301250Y-44597500D03*
D57*
X83301250Y-42497500D03*
X83301250Y-38697500D03*
D28*
X83301250Y-36597500D03*
D26*
X173880000Y-94175000D03*
D27*
X175980000Y-94175000D03*
X179780000Y-94175000D03*
D28*
X181880000Y-94175000D03*
D31*
X115470000Y-107150000D03*
X115470000Y-107150000D03*
D32*
X116740000Y-109690000D03*
X118010000Y-112230000D03*
D33*
X119359994Y-102280000D03*
D34*
X120550000Y-107150000D03*
X120550000Y-107150000D03*
D35*
X120559994Y-101280000D03*
D36*
X120559994Y-102280000D03*
D35*
X120559994Y-103280000D03*
D33*
X121759994Y-102280000D03*
D32*
X123090000Y-112230000D03*
X124360000Y-109690000D03*
D31*
X125630000Y-107150000D03*
X125630000Y-107150000D03*
D37*
X118009994Y-103030000D03*
X118009994Y-101530000D03*
D38*
X123109994Y-101530000D03*
D37*
X123109994Y-103030000D03*
D39*
X126392000Y-112220000D03*
D40*
X113465000Y-109700000D03*
M02*
