%TF.GenerationSoftware,KiCad,Pcbnew,7.0.10*%
%TF.CreationDate,2024-02-28T12:46:29-05:00*%
%TF.ProjectId,Sofle_Pico,536f666c-655f-4506-9963-6f2e6b696361,v3.5.4*%
%TF.SameCoordinates,Original*%
%TF.FileFunction,Drillmap*%
%TF.FilePolarity,Positive*%
%FSLAX45Y45*%
G04 Gerber Fmt 4.5, Leading zero omitted, Abs format (unit mm)*
G04 Created by KiCad (PCBNEW 7.0.10) date 2024-02-28 12:46:29*
%MOMM*%
%LPD*%
G01*
G04 APERTURE LIST*
%ADD10C,0.100000*%
%ADD11C,0.150000*%
%ADD12C,0.050000*%
%ADD13C,0.200000*%
%ADD14C,0.220000*%
%ADD15C,0.410000*%
G04 APERTURE END LIST*
D10*
X9237768Y-14945462D02*
G75*
G03*
X9411012Y-15022043I133652J68102D01*
G01*
D11*
X22682484Y-4287487D02*
X22682484Y-11907486D01*
D10*
X9411012Y-15022043D02*
X14912484Y-13472486D01*
X8140324Y-3547525D02*
X8140324Y-12753000D01*
X8290363Y-3397484D02*
G75*
G03*
X8140324Y-3547525I7J-150046D01*
G01*
D11*
X22682490Y-4287487D02*
G75*
G03*
X22548869Y-4137386I-151120J-4D01*
G01*
X18722484Y-13472486D02*
X22591911Y-12045213D01*
X14912484Y-13472486D02*
X18722484Y-13472486D01*
X16817484Y-3397486D02*
X22548869Y-4137386D01*
X22591909Y-12045210D02*
G75*
G03*
X22682484Y-11907486I-59399J137710D01*
G01*
D10*
X8156673Y-12823768D02*
X9237772Y-14945460D01*
X16817484Y-3397486D02*
X8290363Y-3397486D01*
X8140325Y-12753000D02*
G75*
G03*
X8156673Y-12823768I150175J-2580D01*
G01*
D12*
X14133501Y-4118000D02*
X14133501Y-4408000D01*
X14113501Y-4098000D02*
X13803501Y-4098000D01*
X13803501Y-4428000D02*
X14113501Y-4428000D01*
X13783501Y-4408000D02*
X13783501Y-4118000D01*
X14133501Y-4118000D02*
G75*
G03*
X14113501Y-4098000I-20000J0D01*
G01*
X14113501Y-4428000D02*
G75*
G03*
X14133501Y-4408000I0J20000D01*
G01*
X13803501Y-4098000D02*
G75*
G03*
X13783501Y-4118000I0J-20000D01*
G01*
X13783501Y-4408000D02*
G75*
G03*
X13803501Y-4428000I20000J0D01*
G01*
X11764015Y-12184630D02*
X11839073Y-12464748D01*
X11739520Y-12170487D02*
X11440083Y-12250721D01*
X11525493Y-12569477D02*
X11824930Y-12489243D01*
X11500998Y-12555335D02*
X11425941Y-12275216D01*
X11764015Y-12184630D02*
G75*
G03*
X11739520Y-12170487I-19318J-5176D01*
G01*
X11824930Y-12489243D02*
G75*
G03*
X11839073Y-12464748I-5176J19318D01*
G01*
X11440083Y-12250721D02*
G75*
G03*
X11425941Y-12275216I5176J-19318D01*
G01*
X11500999Y-12555335D02*
G75*
G03*
X11525493Y-12569477I19318J5176D01*
G01*
X19848501Y-8418000D02*
X19848501Y-8708000D01*
X19828501Y-8398000D02*
X19518501Y-8398000D01*
X19518501Y-8728000D02*
X19828501Y-8728000D01*
X19498501Y-8708000D02*
X19498501Y-8418000D01*
X19848501Y-8418000D02*
G75*
G03*
X19828501Y-8398000I-20000J0D01*
G01*
X19828501Y-8728000D02*
G75*
G03*
X19848501Y-8708000I0J20000D01*
G01*
X19518501Y-8398000D02*
G75*
G03*
X19498501Y-8418000I0J-20000D01*
G01*
X19498501Y-8708000D02*
G75*
G03*
X19518501Y-8728000I20000J0D01*
G01*
X10321458Y-13251749D02*
X10063067Y-13383406D01*
X10330199Y-13224849D02*
X10189462Y-12948637D01*
X9895430Y-13098454D02*
X10036167Y-13374666D01*
X9904170Y-13071554D02*
X10162562Y-12939897D01*
X10321458Y-13251749D02*
G75*
G03*
X10330199Y-13224849I-9080J17820D01*
G01*
X10036167Y-13374666D02*
G75*
G03*
X10063067Y-13383406I17820J9080D01*
G01*
X10189462Y-12948637D02*
G75*
G03*
X10162562Y-12939897I-17820J-9080D01*
G01*
X9904170Y-13071554D02*
G75*
G03*
X9895430Y-13098454I9080J-17820D01*
G01*
X19848501Y-6513000D02*
X19848501Y-6803000D01*
X19828501Y-6493000D02*
X19518501Y-6493000D01*
X19518501Y-6823000D02*
X19828501Y-6823000D01*
X19498501Y-6803000D02*
X19498501Y-6513000D01*
X19848501Y-6513000D02*
G75*
G03*
X19828501Y-6493000I-20000J0D01*
G01*
X19828501Y-6823000D02*
G75*
G03*
X19848501Y-6803000I0J20000D01*
G01*
X19518501Y-6493000D02*
G75*
G03*
X19498501Y-6513000I0J-20000D01*
G01*
X19498501Y-6803000D02*
G75*
G03*
X19518501Y-6823000I20000J0D01*
G01*
X19848501Y-4608000D02*
X19848501Y-4898000D01*
X19828501Y-4588000D02*
X19518501Y-4588000D01*
X19518501Y-4918000D02*
X19828501Y-4918000D01*
X19498501Y-4898000D02*
X19498501Y-4608000D01*
X19848501Y-4608000D02*
G75*
G03*
X19828501Y-4588000I-20000J0D01*
G01*
X19828501Y-4918000D02*
G75*
G03*
X19848501Y-4898000I0J20000D01*
G01*
X19518501Y-4588000D02*
G75*
G03*
X19498501Y-4608000I0J-20000D01*
G01*
X19498501Y-4898000D02*
G75*
G03*
X19518501Y-4918000I20000J0D01*
G01*
X19848501Y-10323000D02*
X19848501Y-10613000D01*
X19828501Y-10303000D02*
X19518501Y-10303000D01*
X19518501Y-10633000D02*
X19828501Y-10633000D01*
X19498501Y-10613000D02*
X19498501Y-10323000D01*
X19848501Y-10323000D02*
G75*
G03*
X19828501Y-10303000I-20000J0D01*
G01*
X19828501Y-10633000D02*
G75*
G03*
X19848501Y-10613000I0J20000D01*
G01*
X19518501Y-10303000D02*
G75*
G03*
X19498501Y-10323000I0J-20000D01*
G01*
X19498501Y-10613000D02*
G75*
G03*
X19518501Y-10633000I20000J0D01*
G01*
X14133501Y-6023000D02*
X14133501Y-6313000D01*
X14113501Y-6003000D02*
X13803501Y-6003000D01*
X13803501Y-6333000D02*
X14113501Y-6333000D01*
X13783501Y-6313000D02*
X13783501Y-6023000D01*
X14133501Y-6023000D02*
G75*
G03*
X14113501Y-6003000I-20000J0D01*
G01*
X14113501Y-6333000D02*
G75*
G03*
X14133501Y-6313000I0J20000D01*
G01*
X13803501Y-6003000D02*
G75*
G03*
X13783501Y-6023000I0J-20000D01*
G01*
X13783501Y-6313000D02*
G75*
G03*
X13803501Y-6333000I20000J0D01*
G01*
X17943501Y-9833000D02*
X17943501Y-10123000D01*
X17923501Y-9813000D02*
X17613501Y-9813000D01*
X17613501Y-10143000D02*
X17923501Y-10143000D01*
X17593501Y-10123000D02*
X17593501Y-9833000D01*
X17943501Y-9833000D02*
G75*
G03*
X17923501Y-9813000I-20000J0D01*
G01*
X17923501Y-10143000D02*
G75*
G03*
X17943501Y-10123000I0J20000D01*
G01*
X17613501Y-9813000D02*
G75*
G03*
X17593501Y-9833000I0J-20000D01*
G01*
X17593501Y-10123000D02*
G75*
G03*
X17613501Y-10143000I20000J0D01*
G01*
X16038501Y-9583000D02*
X16038501Y-9873000D01*
X16018501Y-9563000D02*
X15708501Y-9563000D01*
X15708501Y-9893000D02*
X16018501Y-9893000D01*
X15688501Y-9873000D02*
X15688501Y-9583000D01*
X16038501Y-9583000D02*
G75*
G03*
X16018501Y-9563000I-20000J0D01*
G01*
X16018501Y-9893000D02*
G75*
G03*
X16038501Y-9873000I0J20000D01*
G01*
X15708501Y-9563000D02*
G75*
G03*
X15688501Y-9583000I0J-20000D01*
G01*
X15688501Y-9873000D02*
G75*
G03*
X15708501Y-9893000I20000J0D01*
G01*
X21753501Y-8418000D02*
X21753501Y-8708000D01*
X21733501Y-8398000D02*
X21423501Y-8398000D01*
X21423501Y-8728000D02*
X21733501Y-8728000D01*
X21403501Y-8708000D02*
X21403501Y-8418000D01*
X21753501Y-8418000D02*
G75*
G03*
X21733501Y-8398000I-20000J0D01*
G01*
X21733501Y-8728000D02*
G75*
G03*
X21753501Y-8708000I0J20000D01*
G01*
X21423501Y-8398000D02*
G75*
G03*
X21403501Y-8418000I0J-20000D01*
G01*
X21403501Y-8708000D02*
G75*
G03*
X21423501Y-8728000I20000J0D01*
G01*
X12228501Y-8178000D02*
X12228501Y-8468000D01*
X12208501Y-8158000D02*
X11898501Y-8158000D01*
X11898501Y-8488000D02*
X12208501Y-8488000D01*
X11878501Y-8468000D02*
X11878501Y-8178000D01*
X12228501Y-8178000D02*
G75*
G03*
X12208501Y-8158000I-20000J0D01*
G01*
X12208501Y-8488000D02*
G75*
G03*
X12228501Y-8468000I0J20000D01*
G01*
X11898501Y-8158000D02*
G75*
G03*
X11878501Y-8178000I0J-20000D01*
G01*
X11878501Y-8468000D02*
G75*
G03*
X11898501Y-8488000I20000J0D01*
G01*
X17943501Y-6023000D02*
X17943501Y-6313000D01*
X17923501Y-6003000D02*
X17613501Y-6003000D01*
X17613501Y-6333000D02*
X17923501Y-6333000D01*
X17593501Y-6313000D02*
X17593501Y-6023000D01*
X17943501Y-6023000D02*
G75*
G03*
X17923501Y-6003000I-20000J0D01*
G01*
X17923501Y-6333000D02*
G75*
G03*
X17943501Y-6313000I0J20000D01*
G01*
X17613501Y-6003000D02*
G75*
G03*
X17593501Y-6023000I0J-20000D01*
G01*
X17593501Y-6313000D02*
G75*
G03*
X17613501Y-6333000I20000J0D01*
G01*
X14133501Y-9833000D02*
X14133501Y-10123000D01*
X14113501Y-9813000D02*
X13803501Y-9813000D01*
X13803501Y-10143000D02*
X14113501Y-10143000D01*
X13783501Y-10123000D02*
X13783501Y-9833000D01*
X14133501Y-9833000D02*
G75*
G03*
X14113501Y-9813000I-20000J0D01*
G01*
X14113501Y-10143000D02*
G75*
G03*
X14133501Y-10123000I0J20000D01*
G01*
X13803501Y-9813000D02*
G75*
G03*
X13783501Y-9833000I0J-20000D01*
G01*
X13783501Y-10123000D02*
G75*
G03*
X13803501Y-10143000I20000J0D01*
G01*
X21753501Y-4608000D02*
X21753501Y-4898000D01*
X21733501Y-4588000D02*
X21423501Y-4588000D01*
X21423501Y-4918000D02*
X21733501Y-4918000D01*
X21403501Y-4898000D02*
X21403501Y-4608000D01*
X21753501Y-4608000D02*
G75*
G03*
X21733501Y-4588000I-20000J0D01*
G01*
X21733501Y-4918000D02*
G75*
G03*
X21753501Y-4898000I0J20000D01*
G01*
X21423501Y-4588000D02*
G75*
G03*
X21403501Y-4608000I0J-20000D01*
G01*
X21403501Y-4898000D02*
G75*
G03*
X21423501Y-4918000I20000J0D01*
G01*
X12228501Y-4368000D02*
X12228501Y-4658000D01*
X12208501Y-4348000D02*
X11898501Y-4348000D01*
X11898501Y-4678000D02*
X12208501Y-4678000D01*
X11878501Y-4658000D02*
X11878501Y-4368000D01*
X12228501Y-4368000D02*
G75*
G03*
X12208501Y-4348000I-20000J0D01*
G01*
X12208501Y-4678000D02*
G75*
G03*
X12228501Y-4658000I0J20000D01*
G01*
X11898501Y-4348000D02*
G75*
G03*
X11878501Y-4368000I0J-20000D01*
G01*
X11878501Y-4658000D02*
G75*
G03*
X11898501Y-4678000I20000J0D01*
G01*
X16038501Y-3868000D02*
X16038501Y-4158000D01*
X16018501Y-3848000D02*
X15708501Y-3848000D01*
X15708501Y-4178000D02*
X16018501Y-4178000D01*
X15688501Y-4158000D02*
X15688501Y-3868000D01*
X16038501Y-3868000D02*
G75*
G03*
X16018501Y-3848000I-20000J0D01*
G01*
X16018501Y-4178000D02*
G75*
G03*
X16038501Y-4158000I0J20000D01*
G01*
X15708501Y-3848000D02*
G75*
G03*
X15688501Y-3868000I0J-20000D01*
G01*
X15688501Y-4158000D02*
G75*
G03*
X15708501Y-4178000I20000J0D01*
G01*
X16038501Y-11488000D02*
X16038501Y-11778000D01*
X16018501Y-11468000D02*
X15708501Y-11468000D01*
X15708501Y-11798000D02*
X16018501Y-11798000D01*
X15688501Y-11778000D02*
X15688501Y-11488000D01*
X16038501Y-11488000D02*
G75*
G03*
X16018501Y-11468000I-20000J0D01*
G01*
X16018501Y-11798000D02*
G75*
G03*
X16038501Y-11778000I0J20000D01*
G01*
X15708501Y-11468000D02*
G75*
G03*
X15688501Y-11488000I0J-20000D01*
G01*
X15688501Y-11778000D02*
G75*
G03*
X15708501Y-11798000I20000J0D01*
G01*
X16038501Y-5773000D02*
X16038501Y-6063000D01*
X16018501Y-5753000D02*
X15708501Y-5753000D01*
X15708501Y-6083000D02*
X16018501Y-6083000D01*
X15688501Y-6063000D02*
X15688501Y-5773000D01*
X16038501Y-5773000D02*
G75*
G03*
X16018501Y-5753000I-20000J0D01*
G01*
X16018501Y-6083000D02*
G75*
G03*
X16038501Y-6063000I0J20000D01*
G01*
X15708501Y-5753000D02*
G75*
G03*
X15688501Y-5773000I0J-20000D01*
G01*
X15688501Y-6063000D02*
G75*
G03*
X15708501Y-6083000I20000J0D01*
G01*
X14133501Y-11738000D02*
X14133501Y-12028000D01*
X14113501Y-11718000D02*
X13803501Y-11718000D01*
X13803501Y-12048000D02*
X14113501Y-12048000D01*
X13783501Y-12028000D02*
X13783501Y-11738000D01*
X14133501Y-11738000D02*
G75*
G03*
X14113501Y-11718000I-20000J0D01*
G01*
X14113501Y-12048000D02*
G75*
G03*
X14133501Y-12028000I0J20000D01*
G01*
X13803501Y-11718000D02*
G75*
G03*
X13783501Y-11738000I0J-20000D01*
G01*
X13783501Y-12028000D02*
G75*
G03*
X13803501Y-12048000I20000J0D01*
G01*
X12228501Y-6273000D02*
X12228501Y-6563000D01*
X12208501Y-6253000D02*
X11898501Y-6253000D01*
X11898501Y-6583000D02*
X12208501Y-6583000D01*
X11878501Y-6563000D02*
X11878501Y-6273000D01*
X12228501Y-6273000D02*
G75*
G03*
X12208501Y-6253000I-20000J0D01*
G01*
X12208501Y-6583000D02*
G75*
G03*
X12228501Y-6563000I0J20000D01*
G01*
X11898501Y-6253000D02*
G75*
G03*
X11878501Y-6273000I0J-20000D01*
G01*
X11878501Y-6563000D02*
G75*
G03*
X11898501Y-6583000I20000J0D01*
G01*
X17943501Y-4118000D02*
X17943501Y-4408000D01*
X17923501Y-4098000D02*
X17613501Y-4098000D01*
X17613501Y-4428000D02*
X17923501Y-4428000D01*
X17593501Y-4408000D02*
X17593501Y-4118000D01*
X17943501Y-4118000D02*
G75*
G03*
X17923501Y-4098000I-20000J0D01*
G01*
X17923501Y-4428000D02*
G75*
G03*
X17943501Y-4408000I0J20000D01*
G01*
X17613501Y-4098000D02*
G75*
G03*
X17593501Y-4118000I0J-20000D01*
G01*
X17593501Y-4408000D02*
G75*
G03*
X17613501Y-4428000I20000J0D01*
G01*
X12228501Y-10083000D02*
X12228501Y-10373000D01*
X12208501Y-10063000D02*
X11898501Y-10063000D01*
X11898501Y-10393000D02*
X12208501Y-10393000D01*
X11878501Y-10373000D02*
X11878501Y-10083000D01*
X12228501Y-10083000D02*
G75*
G03*
X12208501Y-10063000I-20000J0D01*
G01*
X12208501Y-10393000D02*
G75*
G03*
X12228501Y-10373000I0J20000D01*
G01*
X11898501Y-10063000D02*
G75*
G03*
X11878501Y-10083000I0J-20000D01*
G01*
X11878501Y-10373000D02*
G75*
G03*
X11898501Y-10393000I20000J0D01*
G01*
X17943501Y-7928000D02*
X17943501Y-8218000D01*
X17923501Y-7908000D02*
X17613501Y-7908000D01*
X17613501Y-8238000D02*
X17923501Y-8238000D01*
X17593501Y-8218000D02*
X17593501Y-7928000D01*
X17943501Y-7928000D02*
G75*
G03*
X17923501Y-7908000I-20000J0D01*
G01*
X17923501Y-8238000D02*
G75*
G03*
X17943501Y-8218000I0J20000D01*
G01*
X17613501Y-7908000D02*
G75*
G03*
X17593501Y-7928000I0J-20000D01*
G01*
X17593501Y-8218000D02*
G75*
G03*
X17613501Y-8238000I20000J0D01*
G01*
X14133501Y-7928000D02*
X14133501Y-8218000D01*
X14113501Y-7908000D02*
X13803501Y-7908000D01*
X13803501Y-8238000D02*
X14113501Y-8238000D01*
X13783501Y-8218000D02*
X13783501Y-7928000D01*
X14133501Y-7928000D02*
G75*
G03*
X14113501Y-7908000I-20000J0D01*
G01*
X14113501Y-8238000D02*
G75*
G03*
X14133501Y-8218000I0J20000D01*
G01*
X13803501Y-7908000D02*
G75*
G03*
X13783501Y-7928000I0J-20000D01*
G01*
X13783501Y-8218000D02*
G75*
G03*
X13803501Y-8238000I20000J0D01*
G01*
X16038501Y-7678000D02*
X16038501Y-7968000D01*
X16018501Y-7658000D02*
X15708501Y-7658000D01*
X15708501Y-7988000D02*
X16018501Y-7988000D01*
X15688501Y-7968000D02*
X15688501Y-7678000D01*
X16038501Y-7678000D02*
G75*
G03*
X16018501Y-7658000I-20000J0D01*
G01*
X16018501Y-7988000D02*
G75*
G03*
X16038501Y-7968000I0J20000D01*
G01*
X15708501Y-7658000D02*
G75*
G03*
X15688501Y-7678000I0J-20000D01*
G01*
X15688501Y-7968000D02*
G75*
G03*
X15708501Y-7988000I20000J0D01*
G01*
X21753501Y-6513000D02*
X21753501Y-6803000D01*
X21733501Y-6493000D02*
X21423501Y-6493000D01*
X21423501Y-6823000D02*
X21733501Y-6823000D01*
X21403501Y-6803000D02*
X21403501Y-6513000D01*
X21753501Y-6513000D02*
G75*
G03*
X21733501Y-6493000I-20000J0D01*
G01*
X21733501Y-6823000D02*
G75*
G03*
X21753501Y-6803000I0J20000D01*
G01*
X21423501Y-6493000D02*
G75*
G03*
X21403501Y-6513000I0J-20000D01*
G01*
X21403501Y-6803000D02*
G75*
G03*
X21423501Y-6823000I20000J0D01*
G01*
X21753501Y-10323000D02*
X21753501Y-10613000D01*
X21733501Y-10303000D02*
X21423501Y-10303000D01*
X21423501Y-10633000D02*
X21733501Y-10633000D01*
X21403501Y-10613000D02*
X21403501Y-10323000D01*
X21753501Y-10323000D02*
G75*
G03*
X21733501Y-10303000I-20000J0D01*
G01*
X21733501Y-10633000D02*
G75*
G03*
X21753501Y-10613000I0J20000D01*
G01*
X21423501Y-10303000D02*
G75*
G03*
X21403501Y-10323000I0J-20000D01*
G01*
X21403501Y-10613000D02*
G75*
G03*
X21423501Y-10633000I20000J0D01*
G01*
X17943501Y-11738000D02*
X17943501Y-12028000D01*
X17923501Y-11718000D02*
X17613501Y-11718000D01*
X17613501Y-12048000D02*
X17923501Y-12048000D01*
X17593501Y-12028000D02*
X17593501Y-11738000D01*
X17943501Y-11738000D02*
G75*
G03*
X17923501Y-11718000I-20000J0D01*
G01*
X17923501Y-12048000D02*
G75*
G03*
X17943501Y-12028000I0J20000D01*
G01*
X17613501Y-11718000D02*
G75*
G03*
X17593501Y-11738000I0J-20000D01*
G01*
X17593501Y-12028000D02*
G75*
G03*
X17613501Y-12048000I20000J0D01*
G01*
D13*
D10*
X8745000Y-12335000D02*
X8775000Y-12365000D01*
X8775000Y-12335000D02*
X8745000Y-12365000D01*
X8890000Y-12335000D02*
X8920000Y-12365000D01*
X8920000Y-12335000D02*
X8890000Y-12365000D01*
X8924000Y-9725000D02*
X8954000Y-9755000D01*
X8954000Y-9725000D02*
X8924000Y-9755000D01*
X9022000Y-9725000D02*
X9052000Y-9755000D01*
X9052000Y-9725000D02*
X9022000Y-9755000D01*
X9052500Y-5280500D02*
X9082500Y-5310500D01*
X9082500Y-5280500D02*
X9052500Y-5310500D01*
X9052500Y-6048000D02*
X9082500Y-6078000D01*
X9082500Y-6048000D02*
X9052500Y-6078000D01*
X9055500Y-8335000D02*
X9085500Y-8365000D01*
X9085500Y-8335000D02*
X9055500Y-8365000D01*
X9445000Y-11010000D02*
X9475000Y-11040000D01*
X9475000Y-11010000D02*
X9445000Y-11040000D01*
X9575000Y-10880000D02*
X9605000Y-10910000D01*
X9605000Y-10880000D02*
X9575000Y-10910000D01*
X9622500Y-9491121D02*
X9652500Y-9521121D01*
X9652500Y-9491121D02*
X9622500Y-9521121D01*
X9776000Y-9195000D02*
X9806000Y-9225000D01*
X9806000Y-9195000D02*
X9776000Y-9225000D01*
X9822500Y-12990000D02*
X9852500Y-13020000D01*
X9852500Y-12990000D02*
X9822500Y-13020000D01*
X9852900Y-5674886D02*
X9882900Y-5704886D01*
X9882900Y-5674886D02*
X9852900Y-5704886D01*
X9902500Y-12777500D02*
X9932500Y-12807500D01*
X9932500Y-12777500D02*
X9902500Y-12807500D01*
X9916400Y-5923486D02*
X9946400Y-5953486D01*
X9946400Y-5923486D02*
X9916400Y-5953486D01*
X9979900Y-6436600D02*
X10009900Y-6466600D01*
X10009900Y-6436600D02*
X9979900Y-6466600D01*
X10042400Y-7185207D02*
X10072400Y-7215207D01*
X10072400Y-7185207D02*
X10042400Y-7215207D01*
X10062500Y-13465000D02*
X10092500Y-13495000D01*
X10092500Y-13465000D02*
X10062500Y-13495000D01*
X10107900Y-7447500D02*
X10137900Y-7477500D01*
X10137900Y-7447500D02*
X10107900Y-7477500D01*
X10273969Y-13509000D02*
X10303969Y-13539000D01*
X10303969Y-13509000D02*
X10273969Y-13539000D01*
X10877500Y-7522500D02*
X10907500Y-7552500D01*
X10907500Y-7522500D02*
X10877500Y-7552500D01*
X11005000Y-10121250D02*
X11035000Y-10151250D01*
X11035000Y-10121250D02*
X11005000Y-10151250D01*
X11007500Y-9976250D02*
X11037500Y-10006250D01*
X11037500Y-9976250D02*
X11007500Y-10006250D01*
X11065000Y-11730000D02*
X11095000Y-11760000D01*
X11095000Y-11730000D02*
X11065000Y-11760000D01*
X11080000Y-4100000D02*
X11110000Y-4130000D01*
X11110000Y-4100000D02*
X11080000Y-4130000D01*
X11167531Y-11832530D02*
X11197530Y-11862530D01*
X11197530Y-11832530D02*
X11167531Y-11862530D01*
X11175000Y-7515000D02*
X11205000Y-7545000D01*
X11205000Y-7515000D02*
X11175000Y-7545000D01*
X11175000Y-7660000D02*
X11205000Y-7690000D01*
X11205000Y-7660000D02*
X11175000Y-7690000D01*
X11202500Y-12462500D02*
X11232500Y-12492500D01*
X11232500Y-12462500D02*
X11202500Y-12492500D01*
X11240000Y-4575000D02*
X11270000Y-4605000D01*
X11270000Y-4575000D02*
X11240000Y-4605000D01*
X11245000Y-4265000D02*
X11275000Y-4295000D01*
X11275000Y-4265000D02*
X11245000Y-4295000D01*
X11337500Y-8492500D02*
X11367500Y-8522500D01*
X11367500Y-8492500D02*
X11337500Y-8522500D01*
X11375000Y-12597500D02*
X11405000Y-12627500D01*
X11405000Y-12597500D02*
X11375000Y-12627500D01*
X11476005Y-6017419D02*
X11506005Y-6047419D01*
X11506005Y-6017419D02*
X11476005Y-6047419D01*
X11482500Y-8492500D02*
X11512500Y-8522500D01*
X11512500Y-8492500D02*
X11482500Y-8522500D01*
X11575000Y-6115000D02*
X11605000Y-6145000D01*
X11605000Y-6115000D02*
X11575000Y-6145000D01*
X11607748Y-10240750D02*
X11637748Y-10270750D01*
X11637748Y-10240750D02*
X11607748Y-10270750D01*
X11608750Y-4508750D02*
X11638750Y-4538750D01*
X11638750Y-4508750D02*
X11608750Y-4538750D01*
X11610248Y-6425750D02*
X11640248Y-6455750D01*
X11640248Y-6425750D02*
X11610248Y-6455750D01*
X11615248Y-8333250D02*
X11645248Y-8363250D01*
X11645248Y-8333250D02*
X11615248Y-8363250D01*
X11765000Y-10385000D02*
X11795000Y-10415000D01*
X11795000Y-10385000D02*
X11765000Y-10415000D01*
X11767500Y-4664000D02*
X11797500Y-4694000D01*
X11797500Y-4664000D02*
X11767500Y-4694000D01*
X11768998Y-6572000D02*
X11798998Y-6602000D01*
X11798998Y-6572000D02*
X11768998Y-6602000D01*
X11773998Y-8479500D02*
X11803998Y-8509500D01*
X11803998Y-8479500D02*
X11773998Y-8509500D01*
X12012500Y-12252500D02*
X12042500Y-12282500D01*
X12042500Y-12252500D02*
X12012500Y-12282500D01*
X12035000Y-3875000D02*
X12065000Y-3905000D01*
X12065000Y-3875000D02*
X12035000Y-3905000D01*
X12035000Y-4235000D02*
X12065000Y-4265000D01*
X12065000Y-4235000D02*
X12035000Y-4265000D01*
X12090000Y-12175000D02*
X12120000Y-12205000D01*
X12120000Y-12175000D02*
X12090000Y-12205000D01*
X12090000Y-12320000D02*
X12120000Y-12350000D01*
X12120000Y-12320000D02*
X12090000Y-12350000D01*
X12170000Y-3590000D02*
X12200000Y-3620000D01*
X12200000Y-3590000D02*
X12170000Y-3620000D01*
X12303998Y-8479500D02*
X12333998Y-8509500D01*
X12333998Y-8479500D02*
X12303998Y-8509500D01*
X12435500Y-6557000D02*
X12465500Y-6587000D01*
X12465500Y-6557000D02*
X12435500Y-6587000D01*
X12438000Y-4502000D02*
X12468000Y-4532000D01*
X12468000Y-4502000D02*
X12438000Y-4532000D01*
X12438000Y-6402000D02*
X12468000Y-6432000D01*
X12468000Y-6402000D02*
X12438000Y-6432000D01*
X12441548Y-8310359D02*
X12471548Y-8340359D01*
X12471548Y-8310359D02*
X12441548Y-8340359D01*
X12442500Y-10354857D02*
X12472500Y-10384857D01*
X12472500Y-10354857D02*
X12442500Y-10384857D01*
X12450000Y-4640000D02*
X12480000Y-4670000D01*
X12480000Y-4640000D02*
X12450000Y-4670000D01*
X12463000Y-10224500D02*
X12493000Y-10254500D01*
X12493000Y-10224500D02*
X12463000Y-10254500D01*
X12546250Y-3849000D02*
X12576250Y-3879000D01*
X12576250Y-3849000D02*
X12546250Y-3879000D01*
X12567500Y-10355000D02*
X12597500Y-10385000D01*
X12597500Y-10355000D02*
X12567500Y-10385000D01*
X12595000Y-4640000D02*
X12625000Y-4670000D01*
X12625000Y-4640000D02*
X12595000Y-4670000D01*
X12641000Y-12186000D02*
X12671000Y-12216000D01*
X12671000Y-12186000D02*
X12641000Y-12216000D01*
X12675500Y-10096000D02*
X12705500Y-10126000D01*
X12705500Y-10096000D02*
X12675500Y-10126000D01*
X12752000Y-3920000D02*
X12782000Y-3950000D01*
X12782000Y-3920000D02*
X12752000Y-3950000D01*
X12753000Y-4263000D02*
X12783000Y-4293000D01*
X12783000Y-4263000D02*
X12753000Y-4293000D01*
X12780000Y-12185000D02*
X12810000Y-12215000D01*
X12810000Y-12185000D02*
X12780000Y-12215000D01*
X12813000Y-10096000D02*
X12843000Y-10126000D01*
X12843000Y-10096000D02*
X12813000Y-10126000D01*
X13106005Y-11117419D02*
X13136005Y-11147419D01*
X13136005Y-11117419D02*
X13106005Y-11147419D01*
X13195000Y-5540000D02*
X13225000Y-5570000D01*
X13225000Y-5540000D02*
X13195000Y-5570000D01*
X13205000Y-11215000D02*
X13235000Y-11245000D01*
X13235000Y-11215000D02*
X13205000Y-11245000D01*
X13237500Y-7415000D02*
X13267500Y-7445000D01*
X13267500Y-7415000D02*
X13237500Y-7445000D01*
X13242500Y-9270000D02*
X13272500Y-9300000D01*
X13272500Y-9270000D02*
X13242500Y-9300000D01*
X13340000Y-5540000D02*
X13370000Y-5570000D01*
X13370000Y-5540000D02*
X13340000Y-5570000D01*
X13371005Y-5792419D02*
X13401005Y-5822419D01*
X13401005Y-5792419D02*
X13371005Y-5822419D01*
X13382500Y-7415000D02*
X13412500Y-7445000D01*
X13412500Y-7415000D02*
X13382500Y-7445000D01*
X13387500Y-9270000D02*
X13417500Y-9300000D01*
X13417500Y-9270000D02*
X13387500Y-9300000D01*
X13394000Y-9371000D02*
X13424000Y-9401000D01*
X13424000Y-9371000D02*
X13394000Y-9401000D01*
X13395000Y-9510000D02*
X13425000Y-9540000D01*
X13425000Y-9510000D02*
X13395000Y-9540000D01*
X13404000Y-7526000D02*
X13434000Y-7556000D01*
X13434000Y-7526000D02*
X13404000Y-7556000D01*
X13405000Y-7665000D02*
X13435000Y-7695000D01*
X13435000Y-7665000D02*
X13405000Y-7695000D01*
X13465000Y-4505000D02*
X13495000Y-4535000D01*
X13495000Y-4505000D02*
X13465000Y-4535000D01*
X13470000Y-5890000D02*
X13500000Y-5920000D01*
X13500000Y-5890000D02*
X13470000Y-5920000D01*
X13537500Y-4255000D02*
X13567500Y-4285000D01*
X13567500Y-4255000D02*
X13537500Y-4285000D01*
X13537500Y-6160000D02*
X13567500Y-6190000D01*
X13567500Y-6160000D02*
X13537500Y-6190000D01*
X13537500Y-8065000D02*
X13567500Y-8095000D01*
X13567500Y-8065000D02*
X13537500Y-8095000D01*
X13537500Y-9970000D02*
X13567500Y-10000000D01*
X13567500Y-9970000D02*
X13537500Y-10000000D01*
X13544502Y-11867251D02*
X13574502Y-11897251D01*
X13574502Y-11867251D02*
X13544502Y-11897251D01*
X13610000Y-4505000D02*
X13640000Y-4535000D01*
X13640000Y-4505000D02*
X13610000Y-4535000D01*
X13670000Y-4420000D02*
X13700000Y-4450000D01*
X13700000Y-4420000D02*
X13670000Y-4450000D01*
X13670000Y-6325000D02*
X13700000Y-6355000D01*
X13700000Y-6325000D02*
X13670000Y-6355000D01*
X13670000Y-8230000D02*
X13700000Y-8260000D01*
X13700000Y-8230000D02*
X13670000Y-8260000D01*
X13670000Y-10135000D02*
X13700000Y-10165000D01*
X13700000Y-10135000D02*
X13670000Y-10165000D01*
X13672500Y-12037500D02*
X13702500Y-12067500D01*
X13702500Y-12037500D02*
X13672500Y-12067500D01*
X14200000Y-6322500D02*
X14230000Y-6352500D01*
X14230000Y-6322500D02*
X14200000Y-6352500D01*
X14200000Y-8227500D02*
X14230000Y-8257500D01*
X14230000Y-8227500D02*
X14200000Y-8257500D01*
X14200000Y-10132500D02*
X14230000Y-10162500D01*
X14230000Y-10132500D02*
X14200000Y-10162500D01*
X14201000Y-12044000D02*
X14231000Y-12074000D01*
X14231000Y-12044000D02*
X14201000Y-12074000D01*
X14339000Y-9969000D02*
X14369000Y-9999000D01*
X14369000Y-9969000D02*
X14339000Y-9999000D01*
X14345500Y-11869500D02*
X14375500Y-11899500D01*
X14375500Y-11869500D02*
X14345500Y-11899500D01*
X14347000Y-8054000D02*
X14377000Y-8084000D01*
X14377000Y-8054000D02*
X14347000Y-8084000D01*
X14348000Y-4248000D02*
X14378000Y-4278000D01*
X14378000Y-4248000D02*
X14348000Y-4278000D01*
X14363000Y-6152000D02*
X14393000Y-6182000D01*
X14393000Y-6152000D02*
X14363000Y-6182000D01*
X14408000Y-4319500D02*
X14438000Y-4349500D01*
X14438000Y-4319500D02*
X14408000Y-4349500D01*
X14410500Y-4182000D02*
X14440500Y-4212000D01*
X14440500Y-4182000D02*
X14410500Y-4212000D01*
X14651005Y-11867419D02*
X14681005Y-11897419D01*
X14681005Y-11867419D02*
X14651005Y-11897419D01*
X14750000Y-11965000D02*
X14780000Y-11995000D01*
X14780000Y-11965000D02*
X14750000Y-11995000D01*
X14900000Y-9550000D02*
X14930000Y-9580000D01*
X14930000Y-9550000D02*
X14900000Y-9580000D01*
X14901000Y-9689000D02*
X14931000Y-9719000D01*
X14931000Y-9689000D02*
X14901000Y-9719000D01*
X15000000Y-11865000D02*
X15030000Y-11895000D01*
X15030000Y-11865000D02*
X15000000Y-11895000D01*
X15037419Y-4313995D02*
X15067419Y-4343995D01*
X15067419Y-4313995D02*
X15037419Y-4343995D01*
X15095000Y-7980000D02*
X15125000Y-8010000D01*
X15125000Y-7980000D02*
X15095000Y-8010000D01*
X15102530Y-11967530D02*
X15132530Y-11997530D01*
X15132530Y-11967530D02*
X15102530Y-11997530D01*
X15135000Y-4215000D02*
X15165000Y-4245000D01*
X15165000Y-4215000D02*
X15135000Y-4245000D01*
X15234000Y-7281000D02*
X15264000Y-7311000D01*
X15264000Y-7281000D02*
X15234000Y-7311000D01*
X15235000Y-7420000D02*
X15265000Y-7450000D01*
X15265000Y-7420000D02*
X15235000Y-7450000D01*
X15240000Y-7980000D02*
X15270000Y-8010000D01*
X15270000Y-7980000D02*
X15240000Y-8010000D01*
X15279000Y-5381000D02*
X15309000Y-5411000D01*
X15309000Y-5381000D02*
X15279000Y-5411000D01*
X15280000Y-5520000D02*
X15310000Y-5550000D01*
X15310000Y-5520000D02*
X15280000Y-5550000D01*
X15330306Y-4173694D02*
X15360306Y-4203694D01*
X15360306Y-4173694D02*
X15330306Y-4203694D01*
X15422000Y-4083000D02*
X15452000Y-4113000D01*
X15452000Y-4083000D02*
X15422000Y-4113000D01*
X15442500Y-3994000D02*
X15472500Y-4024000D01*
X15472500Y-3994000D02*
X15442500Y-4024000D01*
X15442500Y-5910000D02*
X15472500Y-5940000D01*
X15472500Y-5910000D02*
X15442500Y-5940000D01*
X15442500Y-7815000D02*
X15472500Y-7845000D01*
X15472500Y-7815000D02*
X15442500Y-7845000D01*
X15442500Y-9720000D02*
X15472500Y-9750000D01*
X15472500Y-9720000D02*
X15442500Y-9750000D01*
X15442500Y-11625000D02*
X15472500Y-11655000D01*
X15472500Y-11625000D02*
X15442500Y-11655000D01*
X15575000Y-6075000D02*
X15605000Y-6105000D01*
X15605000Y-6075000D02*
X15575000Y-6105000D01*
X15575000Y-7980000D02*
X15605000Y-8010000D01*
X15605000Y-7980000D02*
X15575000Y-8010000D01*
X15575000Y-9885000D02*
X15605000Y-9915000D01*
X15605000Y-9885000D02*
X15575000Y-9915000D01*
X15575000Y-11790000D02*
X15605000Y-11820000D01*
X15605000Y-11790000D02*
X15575000Y-11820000D01*
X16105000Y-6072500D02*
X16135000Y-6102500D01*
X16135000Y-6072500D02*
X16105000Y-6102500D01*
X16105000Y-7977500D02*
X16135000Y-8007500D01*
X16135000Y-7977500D02*
X16105000Y-8007500D01*
X16105000Y-11787500D02*
X16135000Y-11817500D01*
X16135000Y-11787500D02*
X16105000Y-11817500D01*
X16106000Y-4169000D02*
X16136000Y-4199000D01*
X16136000Y-4169000D02*
X16106000Y-4199000D01*
X16243000Y-7808000D02*
X16273000Y-7838000D01*
X16273000Y-7808000D02*
X16243000Y-7838000D01*
X16246251Y-5910749D02*
X16276251Y-5940749D01*
X16276251Y-5910749D02*
X16246251Y-5940749D01*
X16249000Y-3990000D02*
X16279000Y-4020000D01*
X16279000Y-3990000D02*
X16249000Y-4020000D01*
X16253000Y-11622000D02*
X16283000Y-11652000D01*
X16283000Y-11622000D02*
X16253000Y-11652000D01*
X16255500Y-9717000D02*
X16285500Y-9747000D01*
X16285500Y-9717000D02*
X16255500Y-9747000D01*
X16267934Y-9818711D02*
X16297934Y-9848711D01*
X16297934Y-9818711D02*
X16267934Y-9848711D01*
X16360500Y-9734500D02*
X16390500Y-9764500D01*
X16390500Y-9734500D02*
X16360500Y-9764500D01*
X16860000Y-9315000D02*
X16890000Y-9345000D01*
X16890000Y-9315000D02*
X16860000Y-9345000D01*
X16861000Y-9454000D02*
X16891000Y-9484000D01*
X16891000Y-9454000D02*
X16861000Y-9484000D01*
X16925000Y-11800000D02*
X16955000Y-11830000D01*
X16955000Y-11800000D02*
X16925000Y-11830000D01*
X16925000Y-11945000D02*
X16955000Y-11975000D01*
X16955000Y-11945000D02*
X16925000Y-11975000D01*
X17036005Y-11622419D02*
X17066005Y-11652419D01*
X17066005Y-11622419D02*
X17036005Y-11652419D01*
X17040000Y-7360000D02*
X17070000Y-7390000D01*
X17070000Y-7360000D02*
X17040000Y-7390000D01*
X17045000Y-5985000D02*
X17075000Y-6015000D01*
X17075000Y-5985000D02*
X17045000Y-6015000D01*
X17055000Y-9295000D02*
X17085000Y-9325000D01*
X17085000Y-9295000D02*
X17055000Y-9325000D01*
X17135000Y-11720000D02*
X17165000Y-11750000D01*
X17165000Y-11720000D02*
X17135000Y-11750000D01*
X17185000Y-7360000D02*
X17215000Y-7390000D01*
X17215000Y-7360000D02*
X17185000Y-7390000D01*
X17190000Y-5985000D02*
X17220000Y-6015000D01*
X17220000Y-5985000D02*
X17190000Y-6015000D01*
X17199000Y-5626000D02*
X17229000Y-5656000D01*
X17229000Y-5626000D02*
X17199000Y-5656000D01*
X17199000Y-7531000D02*
X17229000Y-7561000D01*
X17229000Y-7531000D02*
X17199000Y-7561000D01*
X17200000Y-5765000D02*
X17230000Y-5795000D01*
X17230000Y-5765000D02*
X17200000Y-5795000D01*
X17200000Y-7670000D02*
X17230000Y-7700000D01*
X17230000Y-7670000D02*
X17200000Y-7700000D01*
X17200000Y-9295000D02*
X17230000Y-9325000D01*
X17230000Y-9295000D02*
X17200000Y-9325000D01*
X17343487Y-4248487D02*
X17373487Y-4278487D01*
X17373487Y-4248487D02*
X17343487Y-4278487D01*
X17343501Y-4350840D02*
X17373501Y-4380840D01*
X17373501Y-4350840D02*
X17343501Y-4380840D01*
X17347500Y-6160000D02*
X17377500Y-6190000D01*
X17377500Y-6160000D02*
X17347500Y-6190000D01*
X17347500Y-8065000D02*
X17377500Y-8095000D01*
X17377500Y-8065000D02*
X17347500Y-8095000D01*
X17347500Y-9970000D02*
X17377500Y-10000000D01*
X17377500Y-9970000D02*
X17347500Y-10000000D01*
X17347500Y-11875000D02*
X17377500Y-11905000D01*
X17377500Y-11875000D02*
X17347500Y-11905000D01*
X17480000Y-6325000D02*
X17510000Y-6355000D01*
X17510000Y-6325000D02*
X17480000Y-6355000D01*
X17480000Y-8230000D02*
X17510000Y-8260000D01*
X17510000Y-8230000D02*
X17480000Y-8260000D01*
X17480000Y-10135000D02*
X17510000Y-10165000D01*
X17510000Y-10135000D02*
X17480000Y-10165000D01*
X17480000Y-12040000D02*
X17510000Y-12070000D01*
X17510000Y-12040000D02*
X17480000Y-12070000D01*
X17486000Y-11246000D02*
X17516000Y-11276000D01*
X17516000Y-11246000D02*
X17486000Y-11276000D01*
X17625000Y-11245000D02*
X17655000Y-11275000D01*
X17655000Y-11245000D02*
X17625000Y-11275000D01*
X18010000Y-6322500D02*
X18040000Y-6352500D01*
X18040000Y-6322500D02*
X18010000Y-6352500D01*
X18010000Y-8227500D02*
X18040000Y-8257500D01*
X18040000Y-8227500D02*
X18010000Y-8257500D01*
X18010000Y-10132500D02*
X18040000Y-10162500D01*
X18040000Y-10132500D02*
X18010000Y-10162500D01*
X18010000Y-12037500D02*
X18040000Y-12067500D01*
X18040000Y-12037500D02*
X18010000Y-12067500D01*
X18148000Y-6156000D02*
X18178000Y-6186000D01*
X18178000Y-6156000D02*
X18148000Y-6186000D01*
X18150500Y-4246660D02*
X18180500Y-4276660D01*
X18180500Y-4246660D02*
X18150500Y-4276660D01*
X18151000Y-9968000D02*
X18181000Y-9998000D01*
X18181000Y-9968000D02*
X18151000Y-9998000D01*
X18153000Y-8058000D02*
X18183000Y-8088000D01*
X18183000Y-8058000D02*
X18153000Y-8088000D01*
X18153000Y-11871000D02*
X18183000Y-11901000D01*
X18183000Y-11871000D02*
X18153000Y-11901000D01*
X18213000Y-4315000D02*
X18243000Y-4345000D01*
X18243000Y-4315000D02*
X18213000Y-4345000D01*
X18214000Y-4179000D02*
X18244000Y-4209000D01*
X18244000Y-4179000D02*
X18214000Y-4209000D01*
X18825000Y-11585000D02*
X18855000Y-11615000D01*
X18855000Y-11585000D02*
X18825000Y-11615000D01*
X18825000Y-11730000D02*
X18855000Y-11760000D01*
X18855000Y-11730000D02*
X18825000Y-11760000D01*
X18856000Y-4731000D02*
X18886000Y-4761000D01*
X18886000Y-4731000D02*
X18856000Y-4761000D01*
X18880000Y-10640000D02*
X18910000Y-10670000D01*
X18910000Y-10640000D02*
X18880000Y-10670000D01*
X18995000Y-4730000D02*
X19025000Y-4760000D01*
X19025000Y-4730000D02*
X18995000Y-4760000D01*
X19024000Y-6111000D02*
X19054000Y-6141000D01*
X19054000Y-6111000D02*
X19024000Y-6141000D01*
X19025000Y-6250000D02*
X19055000Y-6280000D01*
X19055000Y-6250000D02*
X19025000Y-6280000D01*
X19025000Y-10640000D02*
X19055000Y-10670000D01*
X19055000Y-10640000D02*
X19025000Y-10670000D01*
X19030000Y-9925000D02*
X19060000Y-9955000D01*
X19060000Y-9925000D02*
X19030000Y-9955000D01*
X19031000Y-10064000D02*
X19061000Y-10094000D01*
X19061000Y-10064000D02*
X19031000Y-10094000D01*
X19034000Y-8016000D02*
X19064000Y-8046000D01*
X19064000Y-8016000D02*
X19034000Y-8046000D01*
X19035000Y-8155000D02*
X19065000Y-8185000D01*
X19065000Y-8155000D02*
X19035000Y-8185000D01*
X19252500Y-4745000D02*
X19282500Y-4775000D01*
X19282500Y-4745000D02*
X19252500Y-4775000D01*
X19252500Y-6650000D02*
X19282500Y-6680000D01*
X19282500Y-6650000D02*
X19252500Y-6680000D01*
X19252500Y-8555000D02*
X19282500Y-8585000D01*
X19282500Y-8555000D02*
X19252500Y-8585000D01*
X19252500Y-10460000D02*
X19282500Y-10490000D01*
X19282500Y-10460000D02*
X19252500Y-10490000D01*
X19370000Y-4155000D02*
X19400000Y-4185000D01*
X19400000Y-4155000D02*
X19370000Y-4185000D01*
X19370500Y-4293000D02*
X19400500Y-4323000D01*
X19400500Y-4293000D02*
X19370500Y-4323000D01*
X19380000Y-4910000D02*
X19410000Y-4940000D01*
X19410000Y-4910000D02*
X19380000Y-4940000D01*
X19385000Y-6815000D02*
X19415000Y-6845000D01*
X19415000Y-6815000D02*
X19385000Y-6845000D01*
X19385000Y-8720000D02*
X19415000Y-8750000D01*
X19415000Y-8720000D02*
X19385000Y-8750000D01*
X19385000Y-10625000D02*
X19415000Y-10655000D01*
X19415000Y-10625000D02*
X19385000Y-10655000D01*
X19916000Y-10636000D02*
X19946000Y-10666000D01*
X19946000Y-10636000D02*
X19916000Y-10666000D01*
X20051000Y-4738000D02*
X20081000Y-4768000D01*
X20081000Y-4738000D02*
X20051000Y-4768000D01*
X20053000Y-10453000D02*
X20083000Y-10483000D01*
X20083000Y-10453000D02*
X20053000Y-10483000D01*
X20068000Y-6647000D02*
X20098000Y-6677000D01*
X20098000Y-6647000D02*
X20068000Y-6677000D01*
X20070000Y-8655000D02*
X20100000Y-8685000D01*
X20100000Y-8655000D02*
X20070000Y-8685000D01*
X20070500Y-8547000D02*
X20100500Y-8577000D01*
X20100500Y-8547000D02*
X20070500Y-8577000D01*
X20126000Y-4675502D02*
X20156000Y-4705502D01*
X20156000Y-4675502D02*
X20126000Y-4705502D01*
X20126000Y-4800498D02*
X20156000Y-4830498D01*
X20156000Y-4800498D02*
X20126000Y-4830498D01*
X20170000Y-6730000D02*
X20200000Y-6760000D01*
X20200000Y-6730000D02*
X20170000Y-6760000D01*
X20205000Y-8655000D02*
X20235000Y-8685000D01*
X20235000Y-8655000D02*
X20205000Y-8685000D01*
X20275000Y-6226000D02*
X20305000Y-6256000D01*
X20305000Y-6226000D02*
X20275000Y-6256000D01*
X20276000Y-6365000D02*
X20306000Y-6395000D01*
X20306000Y-6365000D02*
X20276000Y-6395000D01*
X20540000Y-11585000D02*
X20570000Y-11615000D01*
X20570000Y-11585000D02*
X20540000Y-11615000D01*
X20540000Y-11730000D02*
X20570000Y-11760000D01*
X20570000Y-11730000D02*
X20540000Y-11760000D01*
X20760000Y-10380000D02*
X20790000Y-10410000D01*
X20790000Y-10380000D02*
X20760000Y-10410000D01*
X20760000Y-10525000D02*
X20790000Y-10555000D01*
X20790000Y-10525000D02*
X20760000Y-10555000D01*
X20856000Y-10525000D02*
X20886000Y-10555000D01*
X20886000Y-10525000D02*
X20856000Y-10555000D01*
X20860000Y-8300000D02*
X20890000Y-8330000D01*
X20890000Y-8300000D02*
X20860000Y-8330000D01*
X20865000Y-6560000D02*
X20895000Y-6590000D01*
X20895000Y-6560000D02*
X20865000Y-6590000D01*
X20927419Y-10003995D02*
X20957419Y-10033995D01*
X20957419Y-10003995D02*
X20927419Y-10033995D01*
X20995000Y-10524000D02*
X21025000Y-10554000D01*
X21025000Y-10524000D02*
X20995000Y-10554000D01*
X21004000Y-7926000D02*
X21034000Y-7956000D01*
X21034000Y-7926000D02*
X21004000Y-7956000D01*
X21005000Y-8065000D02*
X21035000Y-8095000D01*
X21035000Y-8065000D02*
X21005000Y-8095000D01*
X21005000Y-8300000D02*
X21035000Y-8330000D01*
X21035000Y-8300000D02*
X21005000Y-8330000D01*
X21010000Y-6560000D02*
X21040000Y-6590000D01*
X21040000Y-6560000D02*
X21010000Y-6590000D01*
X21025000Y-9905000D02*
X21055000Y-9935000D01*
X21055000Y-9905000D02*
X21025000Y-9935000D01*
X21157500Y-4745000D02*
X21187500Y-4775000D01*
X21187500Y-4745000D02*
X21157500Y-4775000D01*
X21157500Y-6650000D02*
X21187500Y-6680000D01*
X21187500Y-6650000D02*
X21157500Y-6680000D01*
X21157500Y-8555000D02*
X21187500Y-8585000D01*
X21187500Y-8555000D02*
X21157500Y-8585000D01*
X21157500Y-10460000D02*
X21187500Y-10490000D01*
X21187500Y-10460000D02*
X21157500Y-10490000D01*
X21290000Y-4910000D02*
X21320000Y-4940000D01*
X21320000Y-4910000D02*
X21290000Y-4940000D01*
X21290000Y-6815000D02*
X21320000Y-6845000D01*
X21320000Y-6815000D02*
X21290000Y-6845000D01*
X21290000Y-8720000D02*
X21320000Y-8750000D01*
X21320000Y-8720000D02*
X21290000Y-8750000D01*
X21290000Y-10625000D02*
X21320000Y-10655000D01*
X21320000Y-10625000D02*
X21290000Y-10655000D01*
X21820000Y-4907500D02*
X21850000Y-4937500D01*
X21850000Y-4907500D02*
X21820000Y-4937500D01*
X21820000Y-8717500D02*
X21850000Y-8747500D01*
X21850000Y-8717500D02*
X21820000Y-8747500D01*
X21823000Y-10632000D02*
X21853000Y-10662000D01*
X21853000Y-10632000D02*
X21823000Y-10662000D01*
X21845000Y-6815000D02*
X21875000Y-6845000D01*
X21875000Y-6815000D02*
X21845000Y-6845000D01*
X21957000Y-6643000D02*
X21987000Y-6673000D01*
X21987000Y-6643000D02*
X21957000Y-6673000D01*
X21957000Y-10453000D02*
X21987000Y-10483000D01*
X21987000Y-10453000D02*
X21957000Y-10483000D01*
X21961000Y-8548000D02*
X21991000Y-8578000D01*
X21991000Y-8548000D02*
X21961000Y-8578000D01*
X22145000Y-4880000D02*
X22175000Y-4910000D01*
X22175000Y-4880000D02*
X22145000Y-4910000D01*
X22242934Y-4977227D02*
X22272934Y-5007227D01*
X22272934Y-4977227D02*
X22242934Y-5007227D01*
X9068633Y-12994826D02*
G75*
G03*
X9038633Y-12994826I-15000J0D01*
G01*
X9038633Y-12994826D02*
G75*
G03*
X9068633Y-12994826I15000J0D01*
G01*
X9640224Y-14118839D02*
G75*
G03*
X9610224Y-14118839I-15000J0D01*
G01*
X9610224Y-14118839D02*
G75*
G03*
X9640224Y-14118839I15000J0D01*
G01*
X11264111Y-13371333D02*
G75*
G03*
X11234111Y-13371333I-15000J0D01*
G01*
X11234111Y-13371333D02*
G75*
G03*
X11264111Y-13371333I15000J0D01*
G01*
X11439000Y-5381000D02*
G75*
G03*
X11409000Y-5381000I-15000J0D01*
G01*
X11409000Y-5381000D02*
G75*
G03*
X11439000Y-5381000I15000J0D01*
G01*
X11439000Y-7286000D02*
G75*
G03*
X11409000Y-7286000I-15000J0D01*
G01*
X11409000Y-7286000D02*
G75*
G03*
X11439000Y-7286000I15000J0D01*
G01*
X11439000Y-9191000D02*
G75*
G03*
X11409000Y-9191000I-15000J0D01*
G01*
X11409000Y-9191000D02*
G75*
G03*
X11439000Y-9191000I15000J0D01*
G01*
X11439000Y-11096000D02*
G75*
G03*
X11409000Y-11096000I-15000J0D01*
G01*
X11409000Y-11096000D02*
G75*
G03*
X11439000Y-11096000I15000J0D01*
G01*
X12482402Y-13045928D02*
G75*
G03*
X12452402Y-13045928I-15000J0D01*
G01*
X12452402Y-13045928D02*
G75*
G03*
X12482402Y-13045928I15000J0D01*
G01*
X12700000Y-5382000D02*
G75*
G03*
X12670000Y-5382000I-15000J0D01*
G01*
X12670000Y-5382000D02*
G75*
G03*
X12700000Y-5382000I15000J0D01*
G01*
X12700000Y-7287000D02*
G75*
G03*
X12670000Y-7287000I-15000J0D01*
G01*
X12670000Y-7287000D02*
G75*
G03*
X12700000Y-7287000I15000J0D01*
G01*
X12700000Y-9192000D02*
G75*
G03*
X12670000Y-9192000I-15000J0D01*
G01*
X12670000Y-9192000D02*
G75*
G03*
X12700000Y-9192000I15000J0D01*
G01*
X12700000Y-11097000D02*
G75*
G03*
X12670000Y-11097000I-15000J0D01*
G01*
X12670000Y-11097000D02*
G75*
G03*
X12700000Y-11097000I15000J0D01*
G01*
X13344000Y-5131000D02*
G75*
G03*
X13314000Y-5131000I-15000J0D01*
G01*
X13314000Y-5131000D02*
G75*
G03*
X13344000Y-5131000I15000J0D01*
G01*
X13344000Y-7036000D02*
G75*
G03*
X13314000Y-7036000I-15000J0D01*
G01*
X13314000Y-7036000D02*
G75*
G03*
X13344000Y-7036000I15000J0D01*
G01*
X13344000Y-8941000D02*
G75*
G03*
X13314000Y-8941000I-15000J0D01*
G01*
X13314000Y-8941000D02*
G75*
G03*
X13344000Y-8941000I15000J0D01*
G01*
X13344000Y-10846000D02*
G75*
G03*
X13314000Y-10846000I-15000J0D01*
G01*
X13314000Y-10846000D02*
G75*
G03*
X13344000Y-10846000I15000J0D01*
G01*
X13344000Y-12751000D02*
G75*
G03*
X13314000Y-12751000I-15000J0D01*
G01*
X13314000Y-12751000D02*
G75*
G03*
X13344000Y-12751000I15000J0D01*
G01*
X14605000Y-5132000D02*
G75*
G03*
X14575000Y-5132000I-15000J0D01*
G01*
X14575000Y-5132000D02*
G75*
G03*
X14605000Y-5132000I15000J0D01*
G01*
X14605000Y-7037000D02*
G75*
G03*
X14575000Y-7037000I-15000J0D01*
G01*
X14575000Y-7037000D02*
G75*
G03*
X14605000Y-7037000I15000J0D01*
G01*
X14605000Y-8942000D02*
G75*
G03*
X14575000Y-8942000I-15000J0D01*
G01*
X14575000Y-8942000D02*
G75*
G03*
X14605000Y-8942000I15000J0D01*
G01*
X14605000Y-10847000D02*
G75*
G03*
X14575000Y-10847000I-15000J0D01*
G01*
X14575000Y-10847000D02*
G75*
G03*
X14605000Y-10847000I15000J0D01*
G01*
X14605000Y-12752000D02*
G75*
G03*
X14575000Y-12752000I-15000J0D01*
G01*
X14575000Y-12752000D02*
G75*
G03*
X14605000Y-12752000I15000J0D01*
G01*
X15249000Y-4881000D02*
G75*
G03*
X15219000Y-4881000I-15000J0D01*
G01*
X15219000Y-4881000D02*
G75*
G03*
X15249000Y-4881000I15000J0D01*
G01*
X15249000Y-6786000D02*
G75*
G03*
X15219000Y-6786000I-15000J0D01*
G01*
X15219000Y-6786000D02*
G75*
G03*
X15249000Y-6786000I15000J0D01*
G01*
X15249000Y-8691000D02*
G75*
G03*
X15219000Y-8691000I-15000J0D01*
G01*
X15219000Y-8691000D02*
G75*
G03*
X15249000Y-8691000I15000J0D01*
G01*
X15249000Y-10596000D02*
G75*
G03*
X15219000Y-10596000I-15000J0D01*
G01*
X15219000Y-10596000D02*
G75*
G03*
X15249000Y-10596000I15000J0D01*
G01*
X15249000Y-12501000D02*
G75*
G03*
X15219000Y-12501000I-15000J0D01*
G01*
X15219000Y-12501000D02*
G75*
G03*
X15249000Y-12501000I15000J0D01*
G01*
X16510000Y-4882000D02*
G75*
G03*
X16480000Y-4882000I-15000J0D01*
G01*
X16480000Y-4882000D02*
G75*
G03*
X16510000Y-4882000I15000J0D01*
G01*
X16510000Y-6787000D02*
G75*
G03*
X16480000Y-6787000I-15000J0D01*
G01*
X16480000Y-6787000D02*
G75*
G03*
X16510000Y-6787000I15000J0D01*
G01*
X16510000Y-8692000D02*
G75*
G03*
X16480000Y-8692000I-15000J0D01*
G01*
X16480000Y-8692000D02*
G75*
G03*
X16510000Y-8692000I15000J0D01*
G01*
X16510000Y-10597000D02*
G75*
G03*
X16480000Y-10597000I-15000J0D01*
G01*
X16480000Y-10597000D02*
G75*
G03*
X16510000Y-10597000I15000J0D01*
G01*
X16510000Y-12502000D02*
G75*
G03*
X16480000Y-12502000I-15000J0D01*
G01*
X16480000Y-12502000D02*
G75*
G03*
X16510000Y-12502000I15000J0D01*
G01*
X17154000Y-5131000D02*
G75*
G03*
X17124000Y-5131000I-15000J0D01*
G01*
X17124000Y-5131000D02*
G75*
G03*
X17154000Y-5131000I15000J0D01*
G01*
X17154000Y-7036000D02*
G75*
G03*
X17124000Y-7036000I-15000J0D01*
G01*
X17124000Y-7036000D02*
G75*
G03*
X17154000Y-7036000I15000J0D01*
G01*
X17154000Y-8941000D02*
G75*
G03*
X17124000Y-8941000I-15000J0D01*
G01*
X17124000Y-8941000D02*
G75*
G03*
X17154000Y-8941000I15000J0D01*
G01*
X17154000Y-10846000D02*
G75*
G03*
X17124000Y-10846000I-15000J0D01*
G01*
X17124000Y-10846000D02*
G75*
G03*
X17154000Y-10846000I15000J0D01*
G01*
X17154000Y-12751000D02*
G75*
G03*
X17124000Y-12751000I-15000J0D01*
G01*
X17124000Y-12751000D02*
G75*
G03*
X17154000Y-12751000I15000J0D01*
G01*
X18415000Y-5132000D02*
G75*
G03*
X18385000Y-5132000I-15000J0D01*
G01*
X18385000Y-5132000D02*
G75*
G03*
X18415000Y-5132000I15000J0D01*
G01*
X18415000Y-7037000D02*
G75*
G03*
X18385000Y-7037000I-15000J0D01*
G01*
X18385000Y-7037000D02*
G75*
G03*
X18415000Y-7037000I15000J0D01*
G01*
X18415000Y-8942000D02*
G75*
G03*
X18385000Y-8942000I-15000J0D01*
G01*
X18385000Y-8942000D02*
G75*
G03*
X18415000Y-8942000I15000J0D01*
G01*
X18415000Y-10847000D02*
G75*
G03*
X18385000Y-10847000I-15000J0D01*
G01*
X18385000Y-10847000D02*
G75*
G03*
X18415000Y-10847000I15000J0D01*
G01*
X18415000Y-12752000D02*
G75*
G03*
X18385000Y-12752000I-15000J0D01*
G01*
X18385000Y-12752000D02*
G75*
G03*
X18415000Y-12752000I15000J0D01*
G01*
X19059000Y-5621000D02*
G75*
G03*
X19029000Y-5621000I-15000J0D01*
G01*
X19029000Y-5621000D02*
G75*
G03*
X19059000Y-5621000I15000J0D01*
G01*
X19059000Y-7526000D02*
G75*
G03*
X19029000Y-7526000I-15000J0D01*
G01*
X19029000Y-7526000D02*
G75*
G03*
X19059000Y-7526000I15000J0D01*
G01*
X19059000Y-9431000D02*
G75*
G03*
X19029000Y-9431000I-15000J0D01*
G01*
X19029000Y-9431000D02*
G75*
G03*
X19059000Y-9431000I15000J0D01*
G01*
X19059000Y-11336000D02*
G75*
G03*
X19029000Y-11336000I-15000J0D01*
G01*
X19029000Y-11336000D02*
G75*
G03*
X19059000Y-11336000I15000J0D01*
G01*
X20320000Y-5622000D02*
G75*
G03*
X20290000Y-5622000I-15000J0D01*
G01*
X20290000Y-5622000D02*
G75*
G03*
X20320000Y-5622000I15000J0D01*
G01*
X20320000Y-7527000D02*
G75*
G03*
X20290000Y-7527000I-15000J0D01*
G01*
X20290000Y-7527000D02*
G75*
G03*
X20320000Y-7527000I15000J0D01*
G01*
X20320000Y-9432000D02*
G75*
G03*
X20290000Y-9432000I-15000J0D01*
G01*
X20290000Y-9432000D02*
G75*
G03*
X20320000Y-9432000I15000J0D01*
G01*
X20320000Y-11337000D02*
G75*
G03*
X20290000Y-11337000I-15000J0D01*
G01*
X20290000Y-11337000D02*
G75*
G03*
X20320000Y-11337000I15000J0D01*
G01*
X20964000Y-5621000D02*
G75*
G03*
X20934000Y-5621000I-15000J0D01*
G01*
X20934000Y-5621000D02*
G75*
G03*
X20964000Y-5621000I15000J0D01*
G01*
X20964000Y-7526000D02*
G75*
G03*
X20934000Y-7526000I-15000J0D01*
G01*
X20934000Y-7526000D02*
G75*
G03*
X20964000Y-7526000I15000J0D01*
G01*
X20964000Y-9431000D02*
G75*
G03*
X20934000Y-9431000I-15000J0D01*
G01*
X20934000Y-9431000D02*
G75*
G03*
X20964000Y-9431000I15000J0D01*
G01*
X20964000Y-11336000D02*
G75*
G03*
X20934000Y-11336000I-15000J0D01*
G01*
X20934000Y-11336000D02*
G75*
G03*
X20964000Y-11336000I15000J0D01*
G01*
X22225000Y-5622000D02*
G75*
G03*
X22195000Y-5622000I-15000J0D01*
G01*
X22195000Y-5622000D02*
G75*
G03*
X22225000Y-5622000I15000J0D01*
G01*
X22225000Y-7527000D02*
G75*
G03*
X22195000Y-7527000I-15000J0D01*
G01*
X22195000Y-7527000D02*
G75*
G03*
X22225000Y-7527000I15000J0D01*
G01*
X22225000Y-9432000D02*
G75*
G03*
X22195000Y-9432000I-15000J0D01*
G01*
X22195000Y-9432000D02*
G75*
G03*
X22225000Y-9432000I15000J0D01*
G01*
X22225000Y-11337000D02*
G75*
G03*
X22195000Y-11337000I-15000J0D01*
G01*
X22195000Y-11337000D02*
G75*
G03*
X22225000Y-11337000I15000J0D01*
G01*
X8605250Y-3612486D02*
X8605250Y-3692486D01*
X8565250Y-3652486D02*
X8645250Y-3652486D01*
X8605250Y-3866486D02*
X8605250Y-3946486D01*
X8565250Y-3906486D02*
X8645250Y-3906486D01*
X8605250Y-4120486D02*
X8605250Y-4200487D01*
X8565250Y-4160486D02*
X8645250Y-4160486D01*
X8605250Y-4374487D02*
X8605250Y-4454487D01*
X8565250Y-4414487D02*
X8645250Y-4414487D01*
X8605250Y-4628487D02*
X8605250Y-4708487D01*
X8565250Y-4668487D02*
X8645250Y-4668487D01*
X8605250Y-4882487D02*
X8605250Y-4962487D01*
X8565250Y-4922487D02*
X8645250Y-4922487D01*
X8605250Y-5136487D02*
X8605250Y-5216487D01*
X8565250Y-5176487D02*
X8645250Y-5176487D01*
X8605250Y-5390487D02*
X8605250Y-5470487D01*
X8565250Y-5430487D02*
X8645250Y-5430487D01*
X8605250Y-5644486D02*
X8605250Y-5724486D01*
X8565250Y-5684486D02*
X8645250Y-5684486D01*
X8605250Y-5898486D02*
X8605250Y-5978486D01*
X8565250Y-5938486D02*
X8645250Y-5938486D01*
X8605250Y-6152486D02*
X8605250Y-6232486D01*
X8565250Y-6192486D02*
X8645250Y-6192486D01*
X8605250Y-6406486D02*
X8605250Y-6486486D01*
X8565250Y-6446486D02*
X8645250Y-6446486D01*
X8605250Y-6660486D02*
X8605250Y-6740486D01*
X8565250Y-6700486D02*
X8645250Y-6700486D01*
X8605250Y-6914486D02*
X8605250Y-6994486D01*
X8565250Y-6954486D02*
X8645250Y-6954486D01*
X8605250Y-7168486D02*
X8605250Y-7248486D01*
X8565250Y-7208486D02*
X8645250Y-7208486D01*
X8605250Y-7422486D02*
X8605250Y-7502486D01*
X8565250Y-7462486D02*
X8645250Y-7462486D01*
X8605250Y-7676486D02*
X8605250Y-7756486D01*
X8565250Y-7716486D02*
X8645250Y-7716486D01*
X8605250Y-7930486D02*
X8605250Y-8010486D01*
X8565250Y-7970486D02*
X8645250Y-7970486D01*
X8605250Y-8184486D02*
X8605250Y-8264486D01*
X8565250Y-8224486D02*
X8645250Y-8224486D01*
X8605250Y-8438487D02*
X8605250Y-8518487D01*
X8565250Y-8478487D02*
X8645250Y-8478487D01*
X8859250Y-3612486D02*
X8859250Y-3692486D01*
X8819250Y-3652486D02*
X8899250Y-3652486D01*
X8859250Y-3866486D02*
X8859250Y-3946486D01*
X8819250Y-3906486D02*
X8899250Y-3906486D01*
X8859250Y-4120486D02*
X8859250Y-4200487D01*
X8819250Y-4160486D02*
X8899250Y-4160486D01*
X8859250Y-4374487D02*
X8859250Y-4454487D01*
X8819250Y-4414487D02*
X8899250Y-4414487D01*
X8859250Y-4628487D02*
X8859250Y-4708487D01*
X8819250Y-4668487D02*
X8899250Y-4668487D01*
X8859250Y-4882487D02*
X8859250Y-4962487D01*
X8819250Y-4922487D02*
X8899250Y-4922487D01*
X8859250Y-5136487D02*
X8859250Y-5216487D01*
X8819250Y-5176487D02*
X8899250Y-5176487D01*
X8859250Y-5390487D02*
X8859250Y-5470487D01*
X8819250Y-5430487D02*
X8899250Y-5430487D01*
X8859250Y-5644486D02*
X8859250Y-5724486D01*
X8819250Y-5684486D02*
X8899250Y-5684486D01*
X8859250Y-5898486D02*
X8859250Y-5978486D01*
X8819250Y-5938486D02*
X8899250Y-5938486D01*
X8859250Y-6152486D02*
X8859250Y-6232486D01*
X8819250Y-6192486D02*
X8899250Y-6192486D01*
X8859250Y-6406486D02*
X8859250Y-6486486D01*
X8819250Y-6446486D02*
X8899250Y-6446486D01*
X8859250Y-6660486D02*
X8859250Y-6740486D01*
X8819250Y-6700486D02*
X8899250Y-6700486D01*
X8859250Y-6914486D02*
X8859250Y-6994486D01*
X8819250Y-6954486D02*
X8899250Y-6954486D01*
X8859250Y-7168486D02*
X8859250Y-7248486D01*
X8819250Y-7208486D02*
X8899250Y-7208486D01*
X8859250Y-7422486D02*
X8859250Y-7502486D01*
X8819250Y-7462486D02*
X8899250Y-7462486D01*
X8859250Y-7676486D02*
X8859250Y-7756486D01*
X8819250Y-7716486D02*
X8899250Y-7716486D01*
X8859250Y-7930486D02*
X8859250Y-8010486D01*
X8819250Y-7970486D02*
X8899250Y-7970486D01*
X8859250Y-8184486D02*
X8859250Y-8264486D01*
X8819250Y-8224486D02*
X8899250Y-8224486D01*
X8859250Y-8438487D02*
X8859250Y-8518487D01*
X8819250Y-8478487D02*
X8899250Y-8478487D01*
X9625000Y-8783000D02*
X9625000Y-8863000D01*
X9585000Y-8823000D02*
X9665000Y-8823000D01*
X9625000Y-9037000D02*
X9625000Y-9117000D01*
X9585000Y-9077000D02*
X9665000Y-9077000D01*
X10383250Y-3612486D02*
X10383250Y-3692486D01*
X10343250Y-3652486D02*
X10423250Y-3652486D01*
X10383250Y-3866486D02*
X10383250Y-3946486D01*
X10343250Y-3906486D02*
X10423250Y-3906486D01*
X10383250Y-4120486D02*
X10383250Y-4200487D01*
X10343250Y-4160486D02*
X10423250Y-4160486D01*
X10383250Y-4374487D02*
X10383250Y-4454487D01*
X10343250Y-4414487D02*
X10423250Y-4414487D01*
X10383250Y-4628487D02*
X10383250Y-4708487D01*
X10343250Y-4668487D02*
X10423250Y-4668487D01*
X10383250Y-4882487D02*
X10383250Y-4962487D01*
X10343250Y-4922487D02*
X10423250Y-4922487D01*
X10383250Y-5136487D02*
X10383250Y-5216487D01*
X10343250Y-5176487D02*
X10423250Y-5176487D01*
X10383250Y-5390487D02*
X10383250Y-5470487D01*
X10343250Y-5430487D02*
X10423250Y-5430487D01*
X10383250Y-5644486D02*
X10383250Y-5724486D01*
X10343250Y-5684486D02*
X10423250Y-5684486D01*
X10383250Y-5898486D02*
X10383250Y-5978486D01*
X10343250Y-5938486D02*
X10423250Y-5938486D01*
X10383250Y-6152486D02*
X10383250Y-6232486D01*
X10343250Y-6192486D02*
X10423250Y-6192486D01*
X10383250Y-6406486D02*
X10383250Y-6486486D01*
X10343250Y-6446486D02*
X10423250Y-6446486D01*
X10383250Y-6660486D02*
X10383250Y-6740486D01*
X10343250Y-6700486D02*
X10423250Y-6700486D01*
X10383250Y-6914486D02*
X10383250Y-6994486D01*
X10343250Y-6954486D02*
X10423250Y-6954486D01*
X10383250Y-7168486D02*
X10383250Y-7248486D01*
X10343250Y-7208486D02*
X10423250Y-7208486D01*
X10383250Y-7422486D02*
X10383250Y-7502486D01*
X10343250Y-7462486D02*
X10423250Y-7462486D01*
X10383250Y-7676486D02*
X10383250Y-7756486D01*
X10343250Y-7716486D02*
X10423250Y-7716486D01*
X10383250Y-7930486D02*
X10383250Y-8010486D01*
X10343250Y-7970486D02*
X10423250Y-7970486D01*
X10383250Y-8184486D02*
X10383250Y-8264486D01*
X10343250Y-8224486D02*
X10423250Y-8224486D01*
X10383250Y-8438487D02*
X10383250Y-8518487D01*
X10343250Y-8478487D02*
X10423250Y-8478487D01*
X10637250Y-3612486D02*
X10637250Y-3692486D01*
X10597250Y-3652486D02*
X10677250Y-3652486D01*
X10637250Y-3866486D02*
X10637250Y-3946486D01*
X10597250Y-3906486D02*
X10677250Y-3906486D01*
X10637250Y-4120486D02*
X10637250Y-4200487D01*
X10597250Y-4160486D02*
X10677250Y-4160486D01*
X10637250Y-4374487D02*
X10637250Y-4454487D01*
X10597250Y-4414487D02*
X10677250Y-4414487D01*
X10637250Y-4628487D02*
X10637250Y-4708487D01*
X10597250Y-4668487D02*
X10677250Y-4668487D01*
X10637250Y-4882487D02*
X10637250Y-4962487D01*
X10597250Y-4922487D02*
X10677250Y-4922487D01*
X10637250Y-5136487D02*
X10637250Y-5216487D01*
X10597250Y-5176487D02*
X10677250Y-5176487D01*
X10637250Y-5390487D02*
X10637250Y-5470487D01*
X10597250Y-5430487D02*
X10677250Y-5430487D01*
X10637250Y-5644486D02*
X10637250Y-5724486D01*
X10597250Y-5684486D02*
X10677250Y-5684486D01*
X10637250Y-5898486D02*
X10637250Y-5978486D01*
X10597250Y-5938486D02*
X10677250Y-5938486D01*
X10637250Y-6152486D02*
X10637250Y-6232486D01*
X10597250Y-6192486D02*
X10677250Y-6192486D01*
X10637250Y-6406486D02*
X10637250Y-6486486D01*
X10597250Y-6446486D02*
X10677250Y-6446486D01*
X10637250Y-6660486D02*
X10637250Y-6740486D01*
X10597250Y-6700486D02*
X10677250Y-6700486D01*
X10637250Y-6914486D02*
X10637250Y-6994486D01*
X10597250Y-6954486D02*
X10677250Y-6954486D01*
X10637250Y-7168486D02*
X10637250Y-7248486D01*
X10597250Y-7208486D02*
X10677250Y-7208486D01*
X10637250Y-7422486D02*
X10637250Y-7502486D01*
X10597250Y-7462486D02*
X10677250Y-7462486D01*
X10637250Y-7676486D02*
X10637250Y-7756486D01*
X10597250Y-7716486D02*
X10677250Y-7716486D01*
X10637250Y-7930486D02*
X10637250Y-8010486D01*
X10597250Y-7970486D02*
X10677250Y-7970486D01*
X10637250Y-8184486D02*
X10637250Y-8264486D01*
X10597250Y-8224486D02*
X10677250Y-8224486D01*
X10637250Y-8438487D02*
X10637250Y-8518487D01*
X10597250Y-8478487D02*
X10677250Y-8478487D01*
X11695000Y-3498000D02*
X11695000Y-3578000D01*
X11655000Y-3538000D02*
X11735000Y-3538000D01*
X11695000Y-3752000D02*
X11695000Y-3832000D01*
X11655000Y-3792000D02*
X11735000Y-3792000D01*
X8389487Y-7863737D02*
X8389487Y-7806263D01*
X8332013Y-7806263D01*
X8332013Y-7863737D01*
X8389487Y-7863737D01*
X8389487Y-8117737D02*
X8389487Y-8060263D01*
X8332013Y-8060263D01*
X8332013Y-8117737D01*
X8389487Y-8117737D01*
X8389487Y-8371737D02*
X8389487Y-8314263D01*
X8332013Y-8314263D01*
X8332013Y-8371737D01*
X8389487Y-8371737D01*
X8389487Y-8625737D02*
X8389487Y-8568263D01*
X8332013Y-8568263D01*
X8332013Y-8625737D01*
X8389487Y-8625737D01*
X8392487Y-5075737D02*
X8392487Y-5018263D01*
X8335013Y-5018263D01*
X8335013Y-5075737D01*
X8392487Y-5075737D01*
X8392487Y-5329737D02*
X8392487Y-5272263D01*
X8335013Y-5272263D01*
X8335013Y-5329737D01*
X8392487Y-5329737D01*
X8392487Y-5583737D02*
X8392487Y-5526263D01*
X8335013Y-5526263D01*
X8335013Y-5583737D01*
X8392487Y-5583737D01*
X8392487Y-5837737D02*
X8392487Y-5780263D01*
X8335013Y-5780263D01*
X8335013Y-5837737D01*
X8392487Y-5837737D01*
X8392487Y-6091737D02*
X8392487Y-6034263D01*
X8335013Y-6034263D01*
X8335013Y-6091737D01*
X8392487Y-6091737D01*
X8392487Y-6345737D02*
X8392487Y-6288263D01*
X8335013Y-6288263D01*
X8335013Y-6345737D01*
X8392487Y-6345737D01*
X8392487Y-6599737D02*
X8392487Y-6542263D01*
X8335013Y-6542263D01*
X8335013Y-6599737D01*
X8392487Y-6599737D01*
X8392487Y-6853737D02*
X8392487Y-6796263D01*
X8335013Y-6796263D01*
X8335013Y-6853737D01*
X8392487Y-6853737D01*
X10913487Y-5075737D02*
X10913487Y-5018263D01*
X10856013Y-5018263D01*
X10856013Y-5075737D01*
X10913487Y-5075737D01*
X10913487Y-5329737D02*
X10913487Y-5272263D01*
X10856013Y-5272263D01*
X10856013Y-5329737D01*
X10913487Y-5329737D01*
X10913487Y-5583737D02*
X10913487Y-5526263D01*
X10856013Y-5526263D01*
X10856013Y-5583737D01*
X10913487Y-5583737D01*
X10913487Y-5837737D02*
X10913487Y-5780263D01*
X10856013Y-5780263D01*
X10856013Y-5837737D01*
X10913487Y-5837737D01*
X10913487Y-6091737D02*
X10913487Y-6034263D01*
X10856013Y-6034263D01*
X10856013Y-6091737D01*
X10913487Y-6091737D01*
X10913487Y-6345737D02*
X10913487Y-6288263D01*
X10856013Y-6288263D01*
X10856013Y-6345737D01*
X10913487Y-6345737D01*
X10913487Y-6599737D02*
X10913487Y-6542263D01*
X10856013Y-6542263D01*
X10856013Y-6599737D01*
X10913487Y-6599737D01*
X10913487Y-6853737D02*
X10913487Y-6796263D01*
X10856013Y-6796263D01*
X10856013Y-6853737D01*
X10913487Y-6853737D01*
X10919737Y-7871737D02*
X10919737Y-7814263D01*
X10862263Y-7814263D01*
X10862263Y-7871737D01*
X10919737Y-7871737D01*
X10919737Y-8125737D02*
X10919737Y-8068263D01*
X10862263Y-8068263D01*
X10862263Y-8125737D01*
X10919737Y-8125737D01*
X10919737Y-8379737D02*
X10919737Y-8322263D01*
X10862263Y-8322263D01*
X10862263Y-8379737D01*
X10919737Y-8379737D01*
X10919737Y-8633737D02*
X10919737Y-8576263D01*
X10862263Y-8576263D01*
X10862263Y-8633737D01*
X10919737Y-8633737D01*
X8363750Y-3701500D02*
X8408750Y-3656500D01*
X8363750Y-3611500D01*
X8318750Y-3656500D01*
X8363750Y-3701500D01*
X8363750Y-4463500D02*
X8408750Y-4418500D01*
X8363750Y-4373500D01*
X8318750Y-4418500D01*
X8363750Y-4463500D01*
X9600000Y-11349000D02*
X9645000Y-11304000D01*
X9600000Y-11259000D01*
X9555000Y-11304000D01*
X9600000Y-11349000D01*
X10053597Y-14271596D02*
X10098597Y-14226596D01*
X10053597Y-14181596D01*
X10008597Y-14226596D01*
X10053597Y-14271596D01*
X10400000Y-11349000D02*
X10445000Y-11304000D01*
X10400000Y-11259000D01*
X10355000Y-11304000D01*
X10400000Y-11349000D01*
X10766403Y-13908404D02*
X10811403Y-13863404D01*
X10766403Y-13818404D01*
X10721403Y-13863404D01*
X10766403Y-13908404D01*
X11644150Y-13938800D02*
X11689150Y-13893800D01*
X11644150Y-13848800D01*
X11599150Y-13893800D01*
X11644150Y-13938800D01*
X11665000Y-6001300D02*
X11710000Y-5956300D01*
X11665000Y-5911300D01*
X11620000Y-5956300D01*
X11665000Y-6001300D01*
X11665000Y-7911300D02*
X11710000Y-7866300D01*
X11665000Y-7821300D01*
X11620000Y-7866300D01*
X11665000Y-7911300D01*
X11665000Y-9811300D02*
X11710000Y-9766300D01*
X11665000Y-9721300D01*
X11620000Y-9766300D01*
X11665000Y-9811300D01*
X11665000Y-11716300D02*
X11710000Y-11671300D01*
X11665000Y-11626300D01*
X11620000Y-11671300D01*
X11665000Y-11716300D01*
X12416890Y-13731745D02*
X12461890Y-13686745D01*
X12416890Y-13641745D01*
X12371890Y-13686745D01*
X12416890Y-13731745D01*
X12465000Y-6001300D02*
X12510000Y-5956300D01*
X12465000Y-5911300D01*
X12420000Y-5956300D01*
X12465000Y-6001300D01*
X12465000Y-7911300D02*
X12510000Y-7866300D01*
X12465000Y-7821300D01*
X12420000Y-7866300D01*
X12465000Y-7911300D01*
X12465000Y-9811300D02*
X12510000Y-9766300D01*
X12465000Y-9721300D01*
X12420000Y-9766300D01*
X12465000Y-9811300D01*
X12465000Y-11716300D02*
X12510000Y-11671300D01*
X12465000Y-11626300D01*
X12420000Y-11671300D01*
X12465000Y-11716300D01*
X13592250Y-5747175D02*
X13637250Y-5702175D01*
X13592250Y-5657175D01*
X13547250Y-5702175D01*
X13592250Y-5747175D01*
X13592250Y-7652175D02*
X13637250Y-7607175D01*
X13592250Y-7562175D01*
X13547250Y-7607175D01*
X13592250Y-7652175D01*
X13592250Y-9557175D02*
X13637250Y-9512175D01*
X13592250Y-9467175D01*
X13547250Y-9512175D01*
X13592250Y-9557175D01*
X13592250Y-11462175D02*
X13637250Y-11417175D01*
X13592250Y-11372175D01*
X13547250Y-11417175D01*
X13592250Y-11462175D01*
X13592250Y-13367175D02*
X13637250Y-13322175D01*
X13592250Y-13277175D01*
X13547250Y-13322175D01*
X13592250Y-13367175D01*
X14392250Y-5747175D02*
X14437250Y-5702175D01*
X14392250Y-5657175D01*
X14347250Y-5702175D01*
X14392250Y-5747175D01*
X14392250Y-7652175D02*
X14437250Y-7607175D01*
X14392250Y-7562175D01*
X14347250Y-7607175D01*
X14392250Y-7652175D01*
X14392250Y-9557175D02*
X14437250Y-9512175D01*
X14392250Y-9467175D01*
X14347250Y-9512175D01*
X14392250Y-9557175D01*
X14392250Y-11462175D02*
X14437250Y-11417175D01*
X14392250Y-11372175D01*
X14347250Y-11417175D01*
X14392250Y-11462175D01*
X14392250Y-13367175D02*
X14437250Y-13322175D01*
X14392250Y-13277175D01*
X14347250Y-13322175D01*
X14392250Y-13367175D01*
X15462800Y-5509500D02*
X15507800Y-5464500D01*
X15462800Y-5419500D01*
X15417800Y-5464500D01*
X15462800Y-5509500D01*
X15462800Y-7411000D02*
X15507800Y-7366000D01*
X15462800Y-7321000D01*
X15417800Y-7366000D01*
X15462800Y-7411000D01*
X15462800Y-9316000D02*
X15507800Y-9271000D01*
X15462800Y-9226000D01*
X15417800Y-9271000D01*
X15462800Y-9316000D01*
X15462800Y-11221000D02*
X15507800Y-11176000D01*
X15462800Y-11131000D01*
X15417800Y-11176000D01*
X15462800Y-11221000D01*
X15462800Y-13126000D02*
X15507800Y-13081000D01*
X15462800Y-13036000D01*
X15417800Y-13081000D01*
X15462800Y-13126000D01*
X16262800Y-5509500D02*
X16307800Y-5464500D01*
X16262800Y-5419500D01*
X16217800Y-5464500D01*
X16262800Y-5509500D01*
X16262800Y-7411000D02*
X16307800Y-7366000D01*
X16262800Y-7321000D01*
X16217800Y-7366000D01*
X16262800Y-7411000D01*
X16262800Y-9316000D02*
X16307800Y-9271000D01*
X16262800Y-9226000D01*
X16217800Y-9271000D01*
X16262800Y-9316000D01*
X16262800Y-11221000D02*
X16307800Y-11176000D01*
X16262800Y-11131000D01*
X16217800Y-11176000D01*
X16262800Y-11221000D01*
X16262800Y-13126000D02*
X16307800Y-13081000D01*
X16262800Y-13036000D01*
X16217800Y-13081000D01*
X16262800Y-13126000D01*
X17367800Y-5756000D02*
X17412800Y-5711000D01*
X17367800Y-5666000D01*
X17322800Y-5711000D01*
X17367800Y-5756000D01*
X17367800Y-7661000D02*
X17412800Y-7616000D01*
X17367800Y-7571000D01*
X17322800Y-7616000D01*
X17367800Y-7661000D01*
X17367800Y-9566000D02*
X17412800Y-9521000D01*
X17367800Y-9476000D01*
X17322800Y-9521000D01*
X17367800Y-9566000D01*
X17367800Y-11471000D02*
X17412800Y-11426000D01*
X17367800Y-11381000D01*
X17322800Y-11426000D01*
X17367800Y-11471000D01*
X17367800Y-13376000D02*
X17412800Y-13331000D01*
X17367800Y-13286000D01*
X17322800Y-13331000D01*
X17367800Y-13376000D01*
X18167800Y-5756000D02*
X18212800Y-5711000D01*
X18167800Y-5666000D01*
X18122800Y-5711000D01*
X18167800Y-5756000D01*
X18167800Y-7661000D02*
X18212800Y-7616000D01*
X18167800Y-7571000D01*
X18122800Y-7616000D01*
X18167800Y-7661000D01*
X18167800Y-9566000D02*
X18212800Y-9521000D01*
X18167800Y-9476000D01*
X18122800Y-9521000D01*
X18167800Y-9566000D01*
X18167800Y-11471000D02*
X18212800Y-11426000D01*
X18167800Y-11381000D01*
X18122800Y-11426000D01*
X18167800Y-11471000D01*
X18167800Y-13376000D02*
X18212800Y-13331000D01*
X18167800Y-13286000D01*
X18122800Y-13331000D01*
X18167800Y-13376000D01*
X19272800Y-6246000D02*
X19317800Y-6201000D01*
X19272800Y-6156000D01*
X19227800Y-6201000D01*
X19272800Y-6246000D01*
X19272800Y-8151000D02*
X19317800Y-8106000D01*
X19272800Y-8061000D01*
X19227800Y-8106000D01*
X19272800Y-8151000D01*
X19272800Y-10056000D02*
X19317800Y-10011000D01*
X19272800Y-9966000D01*
X19227800Y-10011000D01*
X19272800Y-10056000D01*
X19276050Y-11949500D02*
X19321050Y-11904500D01*
X19276050Y-11859500D01*
X19231050Y-11904500D01*
X19276050Y-11949500D01*
X20072800Y-6246000D02*
X20117800Y-6201000D01*
X20072800Y-6156000D01*
X20027800Y-6201000D01*
X20072800Y-6246000D01*
X20072800Y-8151000D02*
X20117800Y-8106000D01*
X20072800Y-8061000D01*
X20027800Y-8106000D01*
X20072800Y-8151000D01*
X20072800Y-10056000D02*
X20117800Y-10011000D01*
X20072800Y-9966000D01*
X20027800Y-10011000D01*
X20072800Y-10056000D01*
X20076050Y-11949500D02*
X20121050Y-11904500D01*
X20076050Y-11859500D01*
X20031050Y-11904500D01*
X20076050Y-11949500D01*
X21177800Y-6246000D02*
X21222800Y-6201000D01*
X21177800Y-6156000D01*
X21132800Y-6201000D01*
X21177800Y-6246000D01*
X21177800Y-8151000D02*
X21222800Y-8106000D01*
X21177800Y-8061000D01*
X21132800Y-8106000D01*
X21177800Y-8151000D01*
X21177800Y-10056000D02*
X21222800Y-10011000D01*
X21177800Y-9966000D01*
X21132800Y-10011000D01*
X21177800Y-10056000D01*
X21177800Y-11961000D02*
X21222800Y-11916000D01*
X21177800Y-11871000D01*
X21132800Y-11916000D01*
X21177800Y-11961000D01*
X21977800Y-6246000D02*
X22022800Y-6201000D01*
X21977800Y-6156000D01*
X21932800Y-6201000D01*
X21977800Y-6246000D01*
X21977800Y-8151000D02*
X22022800Y-8106000D01*
X21977800Y-8061000D01*
X21932800Y-8106000D01*
X21977800Y-8151000D01*
X21977800Y-10056000D02*
X22022800Y-10011000D01*
X21977800Y-9966000D01*
X21932800Y-10011000D01*
X21977800Y-10056000D01*
X21977800Y-11961000D02*
X22022800Y-11916000D01*
X21977800Y-11871000D01*
X21932800Y-11916000D01*
X21977800Y-11961000D01*
X8319300Y-10554500D02*
X8419300Y-10654500D01*
X8419300Y-10554500D02*
X8319300Y-10654500D01*
X8419300Y-10604500D02*
G75*
G03*
X8319300Y-10604500I-50000J0D01*
G01*
X8319300Y-10604500D02*
G75*
G03*
X8419300Y-10604500I50000J0D01*
G01*
X8319300Y-10808500D02*
X8419300Y-10908500D01*
X8419300Y-10808500D02*
X8319300Y-10908500D01*
X8419300Y-10858500D02*
G75*
G03*
X8319300Y-10858500I-50000J0D01*
G01*
X8319300Y-10858500D02*
G75*
G03*
X8419300Y-10858500I50000J0D01*
G01*
X8319300Y-11062500D02*
X8419300Y-11162500D01*
X8419300Y-11062500D02*
X8319300Y-11162500D01*
X8419300Y-11112500D02*
G75*
G03*
X8319300Y-11112500I-50000J0D01*
G01*
X8319300Y-11112500D02*
G75*
G03*
X8419300Y-11112500I50000J0D01*
G01*
X8319300Y-11570500D02*
X8419300Y-11670500D01*
X8419300Y-11570500D02*
X8319300Y-11670500D01*
X8419300Y-11620500D02*
G75*
G03*
X8319300Y-11620500I-50000J0D01*
G01*
X8319300Y-11620500D02*
G75*
G03*
X8419300Y-11620500I50000J0D01*
G01*
X8419000Y-8847000D02*
X8519000Y-8947000D01*
X8519000Y-8847000D02*
X8419000Y-8947000D01*
X8519000Y-8897000D02*
G75*
G03*
X8419000Y-8897000I-50000J0D01*
G01*
X8419000Y-8897000D02*
G75*
G03*
X8519000Y-8897000I50000J0D01*
G01*
X8444000Y-8947000D02*
X8494000Y-8947000D01*
X8494000Y-8947000D02*
G75*
G03*
X8494000Y-8847000I0J50000D01*
G01*
X8494000Y-8847000D02*
X8444000Y-8847000D01*
X8444000Y-8847000D02*
G75*
G03*
X8444000Y-8947000I0J-50000D01*
G01*
X8419000Y-9442000D02*
X8519000Y-9542000D01*
X8519000Y-9442000D02*
X8419000Y-9542000D01*
X8519000Y-9492000D02*
G75*
G03*
X8419000Y-9492000I-50000J0D01*
G01*
X8419000Y-9492000D02*
G75*
G03*
X8519000Y-9492000I50000J0D01*
G01*
X8444000Y-9542000D02*
X8494000Y-9542000D01*
X8494000Y-9542000D02*
G75*
G03*
X8494000Y-9442000I0J50000D01*
G01*
X8494000Y-9442000D02*
X8444000Y-9442000D01*
X8444000Y-9442000D02*
G75*
G03*
X8444000Y-9542000I0J-50000D01*
G01*
X8642000Y-10557000D02*
X8742000Y-10657000D01*
X8742000Y-10557000D02*
X8642000Y-10657000D01*
X8742000Y-10607000D02*
G75*
G03*
X8642000Y-10607000I-50000J0D01*
G01*
X8642000Y-10607000D02*
G75*
G03*
X8742000Y-10607000I50000J0D01*
G01*
X8642000Y-10811000D02*
X8742000Y-10911000D01*
X8742000Y-10811000D02*
X8642000Y-10911000D01*
X8742000Y-10861000D02*
G75*
G03*
X8642000Y-10861000I-50000J0D01*
G01*
X8642000Y-10861000D02*
G75*
G03*
X8742000Y-10861000I50000J0D01*
G01*
X8642000Y-11065000D02*
X8742000Y-11165000D01*
X8742000Y-11065000D02*
X8642000Y-11165000D01*
X8742000Y-11115000D02*
G75*
G03*
X8642000Y-11115000I-50000J0D01*
G01*
X8642000Y-11115000D02*
G75*
G03*
X8742000Y-11115000I50000J0D01*
G01*
X8642000Y-11319000D02*
X8742000Y-11419000D01*
X8742000Y-11319000D02*
X8642000Y-11419000D01*
X8742000Y-11369000D02*
G75*
G03*
X8642000Y-11369000I-50000J0D01*
G01*
X8642000Y-11369000D02*
G75*
G03*
X8742000Y-11369000I50000J0D01*
G01*
X8642000Y-11573000D02*
X8742000Y-11673000D01*
X8742000Y-11573000D02*
X8642000Y-11673000D01*
X8742000Y-11623000D02*
G75*
G03*
X8642000Y-11623000I-50000J0D01*
G01*
X8642000Y-11623000D02*
G75*
G03*
X8742000Y-11623000I50000J0D01*
G01*
X8719000Y-8847000D02*
X8819000Y-8947000D01*
X8819000Y-8847000D02*
X8719000Y-8947000D01*
X8819000Y-8897000D02*
G75*
G03*
X8719000Y-8897000I-50000J0D01*
G01*
X8719000Y-8897000D02*
G75*
G03*
X8819000Y-8897000I50000J0D01*
G01*
X8744000Y-8947000D02*
X8794000Y-8947000D01*
X8794000Y-8947000D02*
G75*
G03*
X8794000Y-8847000I0J50000D01*
G01*
X8794000Y-8847000D02*
X8744000Y-8847000D01*
X8744000Y-8847000D02*
G75*
G03*
X8744000Y-8947000I0J-50000D01*
G01*
X8719000Y-9442000D02*
X8819000Y-9542000D01*
X8819000Y-9442000D02*
X8719000Y-9542000D01*
X8819000Y-9492000D02*
G75*
G03*
X8719000Y-9492000I-50000J0D01*
G01*
X8719000Y-9492000D02*
G75*
G03*
X8819000Y-9492000I50000J0D01*
G01*
X8744000Y-9542000D02*
X8794000Y-9542000D01*
X8794000Y-9542000D02*
G75*
G03*
X8794000Y-9442000I0J50000D01*
G01*
X8794000Y-9442000D02*
X8744000Y-9442000D01*
X8744000Y-9442000D02*
G75*
G03*
X8744000Y-9542000I0J-50000D01*
G01*
X8967000Y-10557000D02*
X9067000Y-10657000D01*
X9067000Y-10557000D02*
X8967000Y-10657000D01*
X9067000Y-10607000D02*
G75*
G03*
X8967000Y-10607000I-50000J0D01*
G01*
X8967000Y-10607000D02*
G75*
G03*
X9067000Y-10607000I50000J0D01*
G01*
X8967000Y-10811000D02*
X9067000Y-10911000D01*
X9067000Y-10811000D02*
X8967000Y-10911000D01*
X9067000Y-10861000D02*
G75*
G03*
X8967000Y-10861000I-50000J0D01*
G01*
X8967000Y-10861000D02*
G75*
G03*
X9067000Y-10861000I50000J0D01*
G01*
X8967000Y-11065000D02*
X9067000Y-11165000D01*
X9067000Y-11065000D02*
X8967000Y-11165000D01*
X9067000Y-11115000D02*
G75*
G03*
X8967000Y-11115000I-50000J0D01*
G01*
X8967000Y-11115000D02*
G75*
G03*
X9067000Y-11115000I50000J0D01*
G01*
X8967000Y-11319000D02*
X9067000Y-11419000D01*
X9067000Y-11319000D02*
X8967000Y-11419000D01*
X9067000Y-11369000D02*
G75*
G03*
X8967000Y-11369000I-50000J0D01*
G01*
X8967000Y-11369000D02*
G75*
G03*
X9067000Y-11369000I50000J0D01*
G01*
X8967000Y-11573000D02*
X9067000Y-11673000D01*
X9067000Y-11573000D02*
X8967000Y-11673000D01*
X9067000Y-11623000D02*
G75*
G03*
X8967000Y-11623000I-50000J0D01*
G01*
X8967000Y-11623000D02*
G75*
G03*
X9067000Y-11623000I50000J0D01*
G01*
X9119000Y-8847000D02*
X9219000Y-8947000D01*
X9219000Y-8847000D02*
X9119000Y-8947000D01*
X9219000Y-8897000D02*
G75*
G03*
X9119000Y-8897000I-50000J0D01*
G01*
X9119000Y-8897000D02*
G75*
G03*
X9219000Y-8897000I50000J0D01*
G01*
X9144000Y-8947000D02*
X9194000Y-8947000D01*
X9194000Y-8947000D02*
G75*
G03*
X9194000Y-8847000I0J50000D01*
G01*
X9194000Y-8847000D02*
X9144000Y-8847000D01*
X9144000Y-8847000D02*
G75*
G03*
X9144000Y-8947000I0J-50000D01*
G01*
X9119000Y-9442000D02*
X9219000Y-9542000D01*
X9219000Y-9442000D02*
X9119000Y-9542000D01*
X9219000Y-9492000D02*
G75*
G03*
X9119000Y-9492000I-50000J0D01*
G01*
X9119000Y-9492000D02*
G75*
G03*
X9219000Y-9492000I50000J0D01*
G01*
X9144000Y-9542000D02*
X9194000Y-9542000D01*
X9194000Y-9542000D02*
G75*
G03*
X9194000Y-9442000I0J50000D01*
G01*
X9194000Y-9442000D02*
X9144000Y-9442000D01*
X9144000Y-9442000D02*
G75*
G03*
X9144000Y-9542000I0J-50000D01*
G01*
X9250000Y-10150000D02*
X9350000Y-10250000D01*
X9350000Y-10150000D02*
X9250000Y-10250000D01*
X9350000Y-10200000D02*
G75*
G03*
X9250000Y-10200000I-50000J0D01*
G01*
X9250000Y-10200000D02*
G75*
G03*
X9350000Y-10200000I50000J0D01*
G01*
X9250000Y-10650000D02*
X9350000Y-10750000D01*
X9350000Y-10650000D02*
X9250000Y-10750000D01*
X9350000Y-10700000D02*
G75*
G03*
X9250000Y-10700000I-50000J0D01*
G01*
X9250000Y-10700000D02*
G75*
G03*
X9350000Y-10700000I50000J0D01*
G01*
X9269000Y-9022000D02*
X9369000Y-9122000D01*
X9369000Y-9022000D02*
X9269000Y-9122000D01*
X9369000Y-9072000D02*
G75*
G03*
X9269000Y-9072000I-50000J0D01*
G01*
X9269000Y-9072000D02*
G75*
G03*
X9369000Y-9072000I50000J0D01*
G01*
X9294000Y-9122000D02*
X9344000Y-9122000D01*
X9344000Y-9122000D02*
G75*
G03*
X9344000Y-9022000I0J50000D01*
G01*
X9344000Y-9022000D02*
X9294000Y-9022000D01*
X9294000Y-9022000D02*
G75*
G03*
X9294000Y-9122000I0J-50000D01*
G01*
X9269000Y-9267000D02*
X9369000Y-9367000D01*
X9369000Y-9267000D02*
X9269000Y-9367000D01*
X9369000Y-9317000D02*
G75*
G03*
X9269000Y-9317000I-50000J0D01*
G01*
X9269000Y-9317000D02*
G75*
G03*
X9369000Y-9317000I50000J0D01*
G01*
X9294000Y-9367000D02*
X9344000Y-9367000D01*
X9344000Y-9367000D02*
G75*
G03*
X9344000Y-9267000I0J50000D01*
G01*
X9344000Y-9267000D02*
X9294000Y-9267000D01*
X9294000Y-9267000D02*
G75*
G03*
X9294000Y-9367000I0J-50000D01*
G01*
X10700000Y-10150000D02*
X10800000Y-10250000D01*
X10800000Y-10150000D02*
X10700000Y-10250000D01*
X10800000Y-10200000D02*
G75*
G03*
X10700000Y-10200000I-50000J0D01*
G01*
X10700000Y-10200000D02*
G75*
G03*
X10800000Y-10200000I50000J0D01*
G01*
X10700000Y-10400000D02*
X10800000Y-10500000D01*
X10800000Y-10400000D02*
X10700000Y-10500000D01*
X10800000Y-10450000D02*
G75*
G03*
X10700000Y-10450000I-50000J0D01*
G01*
X10700000Y-10450000D02*
G75*
G03*
X10800000Y-10450000I50000J0D01*
G01*
X10700000Y-10650000D02*
X10800000Y-10750000D01*
X10800000Y-10650000D02*
X10700000Y-10750000D01*
X10800000Y-10700000D02*
G75*
G03*
X10700000Y-10700000I-50000J0D01*
G01*
X10700000Y-10700000D02*
G75*
G03*
X10800000Y-10700000I50000J0D01*
G01*
X22090500Y-4639500D02*
X22190500Y-4739500D01*
X22190500Y-4639500D02*
X22090500Y-4739500D01*
X22190500Y-4689500D02*
G75*
G03*
X22090500Y-4689500I-50000J0D01*
G01*
X22090500Y-4689500D02*
G75*
G03*
X22190500Y-4689500I50000J0D01*
G01*
D14*
X12897500Y-8027000D02*
X13117500Y-8247000D01*
X13117500Y-8027000D02*
X12897500Y-8247000D01*
X13007500Y-8027000D02*
X13007500Y-8247000D01*
X12897500Y-8137000D02*
X13117500Y-8137000D01*
X14802500Y-6122000D02*
X15022500Y-6342000D01*
X15022500Y-6122000D02*
X14802500Y-6342000D01*
X14912500Y-6122000D02*
X14912500Y-6342000D01*
X14802500Y-6232000D02*
X15022500Y-6232000D01*
X14802500Y-9932000D02*
X15022500Y-10152000D01*
X15022500Y-9932000D02*
X14802500Y-10152000D01*
X14912500Y-9932000D02*
X14912500Y-10152000D01*
X14802500Y-10042000D02*
X15022500Y-10042000D01*
X16707500Y-8027000D02*
X16927500Y-8247000D01*
X16927500Y-8027000D02*
X16707500Y-8247000D01*
X16817500Y-8027000D02*
X16817500Y-8247000D01*
X16707500Y-8137000D02*
X16927500Y-8137000D01*
D15*
X8359903Y-9895000D02*
X8769903Y-10305000D01*
X8769903Y-9895000D02*
X8359903Y-10305000D01*
X8709862Y-10244958D02*
X8709862Y-9955042D01*
X8419945Y-9955042D01*
X8419945Y-10244958D01*
X8709862Y-10244958D01*
X10154000Y-11848000D02*
X10564000Y-12258000D01*
X10564000Y-11848000D02*
X10154000Y-12258000D01*
X10503958Y-12197958D02*
X10503958Y-11908042D01*
X10214042Y-11908042D01*
X10214042Y-12197958D01*
X10503958Y-12197958D01*
X10309000Y-8854000D02*
X10719000Y-9264000D01*
X10719000Y-8854000D02*
X10309000Y-9264000D01*
X10658958Y-9203958D02*
X10658958Y-8914042D01*
X10369042Y-8914042D01*
X10369042Y-9203958D01*
X10658958Y-9203958D01*
X10996000Y-3506750D02*
X11406000Y-3916750D01*
X11406000Y-3506750D02*
X10996000Y-3916750D01*
X11345958Y-3856708D02*
X11345958Y-3566792D01*
X11056042Y-3566792D01*
X11056042Y-3856708D01*
X11345958Y-3856708D01*
X12739000Y-5746000D02*
X13149000Y-6156000D01*
X13149000Y-5746000D02*
X12739000Y-6156000D01*
X13088958Y-6095958D02*
X13088958Y-5806042D01*
X12799042Y-5806042D01*
X12799042Y-6095958D01*
X13088958Y-6095958D01*
X12748000Y-9541000D02*
X13158000Y-9951000D01*
X13158000Y-9541000D02*
X12748000Y-9951000D01*
X13097958Y-9890958D02*
X13097958Y-9601042D01*
X12808042Y-9601042D01*
X12808042Y-9890958D01*
X13097958Y-9890958D01*
X20422500Y-9797500D02*
X20832500Y-10207500D01*
X20832500Y-9797500D02*
X20422500Y-10207500D01*
X20772458Y-10147458D02*
X20772458Y-9857542D01*
X20482542Y-9857542D01*
X20482542Y-10147458D01*
X20772458Y-10147458D01*
X20424000Y-5986000D02*
X20834000Y-6396000D01*
X20834000Y-5986000D02*
X20424000Y-6396000D01*
X20773958Y-6335958D02*
X20773958Y-6046042D01*
X20484042Y-6046042D01*
X20484042Y-6335958D01*
X20773958Y-6335958D01*
D13*
X8396079Y-15343846D02*
X8396079Y-15143846D01*
X8396079Y-15143846D02*
X8443698Y-15143846D01*
X8443698Y-15143846D02*
X8472270Y-15153370D01*
X8472270Y-15153370D02*
X8491318Y-15172417D01*
X8491318Y-15172417D02*
X8500841Y-15191465D01*
X8500841Y-15191465D02*
X8510365Y-15229560D01*
X8510365Y-15229560D02*
X8510365Y-15258132D01*
X8510365Y-15258132D02*
X8500841Y-15296227D01*
X8500841Y-15296227D02*
X8491318Y-15315275D01*
X8491318Y-15315275D02*
X8472270Y-15334322D01*
X8472270Y-15334322D02*
X8443698Y-15343846D01*
X8443698Y-15343846D02*
X8396079Y-15343846D01*
X8596079Y-15343846D02*
X8596079Y-15210513D01*
X8596079Y-15248608D02*
X8605603Y-15229560D01*
X8605603Y-15229560D02*
X8615127Y-15220036D01*
X8615127Y-15220036D02*
X8634175Y-15210513D01*
X8634175Y-15210513D02*
X8653222Y-15210513D01*
X8719889Y-15343846D02*
X8719889Y-15210513D01*
X8719889Y-15143846D02*
X8710365Y-15153370D01*
X8710365Y-15153370D02*
X8719889Y-15162894D01*
X8719889Y-15162894D02*
X8729413Y-15153370D01*
X8729413Y-15153370D02*
X8719889Y-15143846D01*
X8719889Y-15143846D02*
X8719889Y-15162894D01*
X8843698Y-15343846D02*
X8824651Y-15334322D01*
X8824651Y-15334322D02*
X8815127Y-15315275D01*
X8815127Y-15315275D02*
X8815127Y-15143846D01*
X8948460Y-15343846D02*
X8929413Y-15334322D01*
X8929413Y-15334322D02*
X8919889Y-15315275D01*
X8919889Y-15315275D02*
X8919889Y-15143846D01*
X9177032Y-15343846D02*
X9177032Y-15143846D01*
X9177032Y-15143846D02*
X9243699Y-15286703D01*
X9243699Y-15286703D02*
X9310365Y-15143846D01*
X9310365Y-15143846D02*
X9310365Y-15343846D01*
X9491318Y-15343846D02*
X9491318Y-15239084D01*
X9491318Y-15239084D02*
X9481794Y-15220036D01*
X9481794Y-15220036D02*
X9462746Y-15210513D01*
X9462746Y-15210513D02*
X9424651Y-15210513D01*
X9424651Y-15210513D02*
X9405603Y-15220036D01*
X9491318Y-15334322D02*
X9472270Y-15343846D01*
X9472270Y-15343846D02*
X9424651Y-15343846D01*
X9424651Y-15343846D02*
X9405603Y-15334322D01*
X9405603Y-15334322D02*
X9396079Y-15315275D01*
X9396079Y-15315275D02*
X9396079Y-15296227D01*
X9396079Y-15296227D02*
X9405603Y-15277179D01*
X9405603Y-15277179D02*
X9424651Y-15267656D01*
X9424651Y-15267656D02*
X9472270Y-15267656D01*
X9472270Y-15267656D02*
X9491318Y-15258132D01*
X9586556Y-15210513D02*
X9586556Y-15410513D01*
X9586556Y-15220036D02*
X9605603Y-15210513D01*
X9605603Y-15210513D02*
X9643699Y-15210513D01*
X9643699Y-15210513D02*
X9662746Y-15220036D01*
X9662746Y-15220036D02*
X9672270Y-15229560D01*
X9672270Y-15229560D02*
X9681794Y-15248608D01*
X9681794Y-15248608D02*
X9681794Y-15305751D01*
X9681794Y-15305751D02*
X9672270Y-15324798D01*
X9672270Y-15324798D02*
X9662746Y-15334322D01*
X9662746Y-15334322D02*
X9643699Y-15343846D01*
X9643699Y-15343846D02*
X9605603Y-15343846D01*
X9605603Y-15343846D02*
X9586556Y-15334322D01*
X9767508Y-15324798D02*
X9777032Y-15334322D01*
X9777032Y-15334322D02*
X9767508Y-15343846D01*
X9767508Y-15343846D02*
X9757984Y-15334322D01*
X9757984Y-15334322D02*
X9767508Y-15324798D01*
X9767508Y-15324798D02*
X9767508Y-15343846D01*
X9767508Y-15220036D02*
X9777032Y-15229560D01*
X9777032Y-15229560D02*
X9767508Y-15239084D01*
X9767508Y-15239084D02*
X9757984Y-15229560D01*
X9757984Y-15229560D02*
X9767508Y-15220036D01*
X9767508Y-15220036D02*
X9767508Y-15239084D01*
D10*
X8105303Y-15657362D02*
X8135303Y-15687362D01*
X8135303Y-15657362D02*
X8105303Y-15687362D01*
D13*
X8434175Y-15563846D02*
X8453222Y-15563846D01*
X8453222Y-15563846D02*
X8472270Y-15573370D01*
X8472270Y-15573370D02*
X8481794Y-15582894D01*
X8481794Y-15582894D02*
X8491318Y-15601941D01*
X8491318Y-15601941D02*
X8500841Y-15640036D01*
X8500841Y-15640036D02*
X8500841Y-15687656D01*
X8500841Y-15687656D02*
X8491318Y-15725751D01*
X8491318Y-15725751D02*
X8481794Y-15744798D01*
X8481794Y-15744798D02*
X8472270Y-15754322D01*
X8472270Y-15754322D02*
X8453222Y-15763846D01*
X8453222Y-15763846D02*
X8434175Y-15763846D01*
X8434175Y-15763846D02*
X8415127Y-15754322D01*
X8415127Y-15754322D02*
X8405603Y-15744798D01*
X8405603Y-15744798D02*
X8396079Y-15725751D01*
X8396079Y-15725751D02*
X8386556Y-15687656D01*
X8386556Y-15687656D02*
X8386556Y-15640036D01*
X8386556Y-15640036D02*
X8396079Y-15601941D01*
X8396079Y-15601941D02*
X8405603Y-15582894D01*
X8405603Y-15582894D02*
X8415127Y-15573370D01*
X8415127Y-15573370D02*
X8434175Y-15563846D01*
X8586556Y-15744798D02*
X8596079Y-15754322D01*
X8596079Y-15754322D02*
X8586556Y-15763846D01*
X8586556Y-15763846D02*
X8577032Y-15754322D01*
X8577032Y-15754322D02*
X8586556Y-15744798D01*
X8586556Y-15744798D02*
X8586556Y-15763846D01*
X8662746Y-15563846D02*
X8786556Y-15563846D01*
X8786556Y-15563846D02*
X8719889Y-15640036D01*
X8719889Y-15640036D02*
X8748460Y-15640036D01*
X8748460Y-15640036D02*
X8767508Y-15649560D01*
X8767508Y-15649560D02*
X8777032Y-15659084D01*
X8777032Y-15659084D02*
X8786556Y-15678132D01*
X8786556Y-15678132D02*
X8786556Y-15725751D01*
X8786556Y-15725751D02*
X8777032Y-15744798D01*
X8777032Y-15744798D02*
X8767508Y-15754322D01*
X8767508Y-15754322D02*
X8748460Y-15763846D01*
X8748460Y-15763846D02*
X8691318Y-15763846D01*
X8691318Y-15763846D02*
X8672270Y-15754322D01*
X8672270Y-15754322D02*
X8662746Y-15744798D01*
X8910365Y-15563846D02*
X8929413Y-15563846D01*
X8929413Y-15563846D02*
X8948460Y-15573370D01*
X8948460Y-15573370D02*
X8957984Y-15582894D01*
X8957984Y-15582894D02*
X8967508Y-15601941D01*
X8967508Y-15601941D02*
X8977032Y-15640036D01*
X8977032Y-15640036D02*
X8977032Y-15687656D01*
X8977032Y-15687656D02*
X8967508Y-15725751D01*
X8967508Y-15725751D02*
X8957984Y-15744798D01*
X8957984Y-15744798D02*
X8948460Y-15754322D01*
X8948460Y-15754322D02*
X8929413Y-15763846D01*
X8929413Y-15763846D02*
X8910365Y-15763846D01*
X8910365Y-15763846D02*
X8891318Y-15754322D01*
X8891318Y-15754322D02*
X8881794Y-15744798D01*
X8881794Y-15744798D02*
X8872270Y-15725751D01*
X8872270Y-15725751D02*
X8862746Y-15687656D01*
X8862746Y-15687656D02*
X8862746Y-15640036D01*
X8862746Y-15640036D02*
X8872270Y-15601941D01*
X8872270Y-15601941D02*
X8881794Y-15582894D01*
X8881794Y-15582894D02*
X8891318Y-15573370D01*
X8891318Y-15573370D02*
X8910365Y-15563846D01*
X9100841Y-15563846D02*
X9119889Y-15563846D01*
X9119889Y-15563846D02*
X9138937Y-15573370D01*
X9138937Y-15573370D02*
X9148460Y-15582894D01*
X9148460Y-15582894D02*
X9157984Y-15601941D01*
X9157984Y-15601941D02*
X9167508Y-15640036D01*
X9167508Y-15640036D02*
X9167508Y-15687656D01*
X9167508Y-15687656D02*
X9157984Y-15725751D01*
X9157984Y-15725751D02*
X9148460Y-15744798D01*
X9148460Y-15744798D02*
X9138937Y-15754322D01*
X9138937Y-15754322D02*
X9119889Y-15763846D01*
X9119889Y-15763846D02*
X9100841Y-15763846D01*
X9100841Y-15763846D02*
X9081794Y-15754322D01*
X9081794Y-15754322D02*
X9072270Y-15744798D01*
X9072270Y-15744798D02*
X9062746Y-15725751D01*
X9062746Y-15725751D02*
X9053222Y-15687656D01*
X9053222Y-15687656D02*
X9053222Y-15640036D01*
X9053222Y-15640036D02*
X9062746Y-15601941D01*
X9062746Y-15601941D02*
X9072270Y-15582894D01*
X9072270Y-15582894D02*
X9081794Y-15573370D01*
X9081794Y-15573370D02*
X9100841Y-15563846D01*
X9253222Y-15763846D02*
X9253222Y-15630513D01*
X9253222Y-15649560D02*
X9262746Y-15640036D01*
X9262746Y-15640036D02*
X9281794Y-15630513D01*
X9281794Y-15630513D02*
X9310365Y-15630513D01*
X9310365Y-15630513D02*
X9329413Y-15640036D01*
X9329413Y-15640036D02*
X9338937Y-15659084D01*
X9338937Y-15659084D02*
X9338937Y-15763846D01*
X9338937Y-15659084D02*
X9348460Y-15640036D01*
X9348460Y-15640036D02*
X9367508Y-15630513D01*
X9367508Y-15630513D02*
X9396079Y-15630513D01*
X9396079Y-15630513D02*
X9415127Y-15640036D01*
X9415127Y-15640036D02*
X9424651Y-15659084D01*
X9424651Y-15659084D02*
X9424651Y-15763846D01*
X9519889Y-15763846D02*
X9519889Y-15630513D01*
X9519889Y-15649560D02*
X9529413Y-15640036D01*
X9529413Y-15640036D02*
X9548460Y-15630513D01*
X9548460Y-15630513D02*
X9577032Y-15630513D01*
X9577032Y-15630513D02*
X9596080Y-15640036D01*
X9596080Y-15640036D02*
X9605603Y-15659084D01*
X9605603Y-15659084D02*
X9605603Y-15763846D01*
X9605603Y-15659084D02*
X9615127Y-15640036D01*
X9615127Y-15640036D02*
X9634175Y-15630513D01*
X9634175Y-15630513D02*
X9662746Y-15630513D01*
X9662746Y-15630513D02*
X9681794Y-15640036D01*
X9681794Y-15640036D02*
X9691318Y-15659084D01*
X9691318Y-15659084D02*
X9691318Y-15763846D01*
X10081794Y-15554322D02*
X9910365Y-15811465D01*
X10338937Y-15563846D02*
X10357984Y-15563846D01*
X10357984Y-15563846D02*
X10377032Y-15573370D01*
X10377032Y-15573370D02*
X10386556Y-15582894D01*
X10386556Y-15582894D02*
X10396080Y-15601941D01*
X10396080Y-15601941D02*
X10405603Y-15640036D01*
X10405603Y-15640036D02*
X10405603Y-15687656D01*
X10405603Y-15687656D02*
X10396080Y-15725751D01*
X10396080Y-15725751D02*
X10386556Y-15744798D01*
X10386556Y-15744798D02*
X10377032Y-15754322D01*
X10377032Y-15754322D02*
X10357984Y-15763846D01*
X10357984Y-15763846D02*
X10338937Y-15763846D01*
X10338937Y-15763846D02*
X10319889Y-15754322D01*
X10319889Y-15754322D02*
X10310365Y-15744798D01*
X10310365Y-15744798D02*
X10300842Y-15725751D01*
X10300842Y-15725751D02*
X10291318Y-15687656D01*
X10291318Y-15687656D02*
X10291318Y-15640036D01*
X10291318Y-15640036D02*
X10300842Y-15601941D01*
X10300842Y-15601941D02*
X10310365Y-15582894D01*
X10310365Y-15582894D02*
X10319889Y-15573370D01*
X10319889Y-15573370D02*
X10338937Y-15563846D01*
X10491318Y-15744798D02*
X10500842Y-15754322D01*
X10500842Y-15754322D02*
X10491318Y-15763846D01*
X10491318Y-15763846D02*
X10481794Y-15754322D01*
X10481794Y-15754322D02*
X10491318Y-15744798D01*
X10491318Y-15744798D02*
X10491318Y-15763846D01*
X10624651Y-15563846D02*
X10643699Y-15563846D01*
X10643699Y-15563846D02*
X10662746Y-15573370D01*
X10662746Y-15573370D02*
X10672270Y-15582894D01*
X10672270Y-15582894D02*
X10681794Y-15601941D01*
X10681794Y-15601941D02*
X10691318Y-15640036D01*
X10691318Y-15640036D02*
X10691318Y-15687656D01*
X10691318Y-15687656D02*
X10681794Y-15725751D01*
X10681794Y-15725751D02*
X10672270Y-15744798D01*
X10672270Y-15744798D02*
X10662746Y-15754322D01*
X10662746Y-15754322D02*
X10643699Y-15763846D01*
X10643699Y-15763846D02*
X10624651Y-15763846D01*
X10624651Y-15763846D02*
X10605603Y-15754322D01*
X10605603Y-15754322D02*
X10596080Y-15744798D01*
X10596080Y-15744798D02*
X10586556Y-15725751D01*
X10586556Y-15725751D02*
X10577032Y-15687656D01*
X10577032Y-15687656D02*
X10577032Y-15640036D01*
X10577032Y-15640036D02*
X10586556Y-15601941D01*
X10586556Y-15601941D02*
X10596080Y-15582894D01*
X10596080Y-15582894D02*
X10605603Y-15573370D01*
X10605603Y-15573370D02*
X10624651Y-15563846D01*
X10881794Y-15763846D02*
X10767508Y-15763846D01*
X10824651Y-15763846D02*
X10824651Y-15563846D01*
X10824651Y-15563846D02*
X10805603Y-15592417D01*
X10805603Y-15592417D02*
X10786556Y-15611465D01*
X10786556Y-15611465D02*
X10767508Y-15620989D01*
X11072270Y-15763846D02*
X10957984Y-15763846D01*
X11015127Y-15763846D02*
X11015127Y-15563846D01*
X11015127Y-15563846D02*
X10996080Y-15592417D01*
X10996080Y-15592417D02*
X10977032Y-15611465D01*
X10977032Y-15611465D02*
X10957984Y-15620989D01*
X11186556Y-15649560D02*
X11167508Y-15640036D01*
X11167508Y-15640036D02*
X11157984Y-15630513D01*
X11157984Y-15630513D02*
X11148461Y-15611465D01*
X11148461Y-15611465D02*
X11148461Y-15601941D01*
X11148461Y-15601941D02*
X11157984Y-15582894D01*
X11157984Y-15582894D02*
X11167508Y-15573370D01*
X11167508Y-15573370D02*
X11186556Y-15563846D01*
X11186556Y-15563846D02*
X11224651Y-15563846D01*
X11224651Y-15563846D02*
X11243699Y-15573370D01*
X11243699Y-15573370D02*
X11253222Y-15582894D01*
X11253222Y-15582894D02*
X11262746Y-15601941D01*
X11262746Y-15601941D02*
X11262746Y-15611465D01*
X11262746Y-15611465D02*
X11253222Y-15630513D01*
X11253222Y-15630513D02*
X11243699Y-15640036D01*
X11243699Y-15640036D02*
X11224651Y-15649560D01*
X11224651Y-15649560D02*
X11186556Y-15649560D01*
X11186556Y-15649560D02*
X11167508Y-15659084D01*
X11167508Y-15659084D02*
X11157984Y-15668608D01*
X11157984Y-15668608D02*
X11148461Y-15687656D01*
X11148461Y-15687656D02*
X11148461Y-15725751D01*
X11148461Y-15725751D02*
X11157984Y-15744798D01*
X11157984Y-15744798D02*
X11167508Y-15754322D01*
X11167508Y-15754322D02*
X11186556Y-15763846D01*
X11186556Y-15763846D02*
X11224651Y-15763846D01*
X11224651Y-15763846D02*
X11243699Y-15754322D01*
X11243699Y-15754322D02*
X11253222Y-15744798D01*
X11253222Y-15744798D02*
X11262746Y-15725751D01*
X11262746Y-15725751D02*
X11262746Y-15687656D01*
X11262746Y-15687656D02*
X11253222Y-15668608D01*
X11253222Y-15668608D02*
X11243699Y-15659084D01*
X11243699Y-15659084D02*
X11224651Y-15649560D01*
X11338937Y-15563846D02*
X11338937Y-15601941D01*
X11415127Y-15563846D02*
X11415127Y-15601941D01*
X11710365Y-15840036D02*
X11700842Y-15830513D01*
X11700842Y-15830513D02*
X11681794Y-15801941D01*
X11681794Y-15801941D02*
X11672270Y-15782894D01*
X11672270Y-15782894D02*
X11662746Y-15754322D01*
X11662746Y-15754322D02*
X11653223Y-15706703D01*
X11653223Y-15706703D02*
X11653223Y-15668608D01*
X11653223Y-15668608D02*
X11662746Y-15620989D01*
X11662746Y-15620989D02*
X11672270Y-15592417D01*
X11672270Y-15592417D02*
X11681794Y-15573370D01*
X11681794Y-15573370D02*
X11700842Y-15544798D01*
X11700842Y-15544798D02*
X11710365Y-15535275D01*
X11777032Y-15582894D02*
X11786556Y-15573370D01*
X11786556Y-15573370D02*
X11805603Y-15563846D01*
X11805603Y-15563846D02*
X11853223Y-15563846D01*
X11853223Y-15563846D02*
X11872270Y-15573370D01*
X11872270Y-15573370D02*
X11881794Y-15582894D01*
X11881794Y-15582894D02*
X11891318Y-15601941D01*
X11891318Y-15601941D02*
X11891318Y-15620989D01*
X11891318Y-15620989D02*
X11881794Y-15649560D01*
X11881794Y-15649560D02*
X11767508Y-15763846D01*
X11767508Y-15763846D02*
X11891318Y-15763846D01*
X12062746Y-15630513D02*
X12062746Y-15763846D01*
X12015127Y-15554322D02*
X11967508Y-15697179D01*
X11967508Y-15697179D02*
X12091318Y-15697179D01*
X12253223Y-15630513D02*
X12253223Y-15763846D01*
X12205603Y-15554322D02*
X12157984Y-15697179D01*
X12157984Y-15697179D02*
X12281794Y-15697179D01*
X12510365Y-15763846D02*
X12510365Y-15563846D01*
X12596080Y-15763846D02*
X12596080Y-15659084D01*
X12596080Y-15659084D02*
X12586556Y-15640036D01*
X12586556Y-15640036D02*
X12567508Y-15630513D01*
X12567508Y-15630513D02*
X12538937Y-15630513D01*
X12538937Y-15630513D02*
X12519889Y-15640036D01*
X12519889Y-15640036D02*
X12510365Y-15649560D01*
X12719889Y-15763846D02*
X12700842Y-15754322D01*
X12700842Y-15754322D02*
X12691318Y-15744798D01*
X12691318Y-15744798D02*
X12681794Y-15725751D01*
X12681794Y-15725751D02*
X12681794Y-15668608D01*
X12681794Y-15668608D02*
X12691318Y-15649560D01*
X12691318Y-15649560D02*
X12700842Y-15640036D01*
X12700842Y-15640036D02*
X12719889Y-15630513D01*
X12719889Y-15630513D02*
X12748461Y-15630513D01*
X12748461Y-15630513D02*
X12767508Y-15640036D01*
X12767508Y-15640036D02*
X12777032Y-15649560D01*
X12777032Y-15649560D02*
X12786556Y-15668608D01*
X12786556Y-15668608D02*
X12786556Y-15725751D01*
X12786556Y-15725751D02*
X12777032Y-15744798D01*
X12777032Y-15744798D02*
X12767508Y-15754322D01*
X12767508Y-15754322D02*
X12748461Y-15763846D01*
X12748461Y-15763846D02*
X12719889Y-15763846D01*
X12900842Y-15763846D02*
X12881794Y-15754322D01*
X12881794Y-15754322D02*
X12872270Y-15735275D01*
X12872270Y-15735275D02*
X12872270Y-15563846D01*
X13053223Y-15754322D02*
X13034175Y-15763846D01*
X13034175Y-15763846D02*
X12996080Y-15763846D01*
X12996080Y-15763846D02*
X12977032Y-15754322D01*
X12977032Y-15754322D02*
X12967508Y-15735275D01*
X12967508Y-15735275D02*
X12967508Y-15659084D01*
X12967508Y-15659084D02*
X12977032Y-15640036D01*
X12977032Y-15640036D02*
X12996080Y-15630513D01*
X12996080Y-15630513D02*
X13034175Y-15630513D01*
X13034175Y-15630513D02*
X13053223Y-15640036D01*
X13053223Y-15640036D02*
X13062746Y-15659084D01*
X13062746Y-15659084D02*
X13062746Y-15678132D01*
X13062746Y-15678132D02*
X12967508Y-15697179D01*
X13138937Y-15754322D02*
X13157985Y-15763846D01*
X13157985Y-15763846D02*
X13196080Y-15763846D01*
X13196080Y-15763846D02*
X13215127Y-15754322D01*
X13215127Y-15754322D02*
X13224651Y-15735275D01*
X13224651Y-15735275D02*
X13224651Y-15725751D01*
X13224651Y-15725751D02*
X13215127Y-15706703D01*
X13215127Y-15706703D02*
X13196080Y-15697179D01*
X13196080Y-15697179D02*
X13167508Y-15697179D01*
X13167508Y-15697179D02*
X13148461Y-15687656D01*
X13148461Y-15687656D02*
X13138937Y-15668608D01*
X13138937Y-15668608D02*
X13138937Y-15659084D01*
X13138937Y-15659084D02*
X13148461Y-15640036D01*
X13148461Y-15640036D02*
X13167508Y-15630513D01*
X13167508Y-15630513D02*
X13196080Y-15630513D01*
X13196080Y-15630513D02*
X13215127Y-15640036D01*
X13291318Y-15840036D02*
X13300842Y-15830513D01*
X13300842Y-15830513D02*
X13319889Y-15801941D01*
X13319889Y-15801941D02*
X13329413Y-15782894D01*
X13329413Y-15782894D02*
X13338937Y-15754322D01*
X13338937Y-15754322D02*
X13348461Y-15706703D01*
X13348461Y-15706703D02*
X13348461Y-15668608D01*
X13348461Y-15668608D02*
X13338937Y-15620989D01*
X13338937Y-15620989D02*
X13329413Y-15592417D01*
X13329413Y-15592417D02*
X13319889Y-15573370D01*
X13319889Y-15573370D02*
X13300842Y-15544798D01*
X13300842Y-15544798D02*
X13291318Y-15535275D01*
D10*
X8135303Y-15936362D02*
G75*
G03*
X8105303Y-15936362I-15000J0D01*
G01*
X8105303Y-15936362D02*
G75*
G03*
X8135303Y-15936362I15000J0D01*
G01*
D13*
X8434175Y-15827846D02*
X8453222Y-15827846D01*
X8453222Y-15827846D02*
X8472270Y-15837370D01*
X8472270Y-15837370D02*
X8481794Y-15846894D01*
X8481794Y-15846894D02*
X8491318Y-15865941D01*
X8491318Y-15865941D02*
X8500841Y-15904036D01*
X8500841Y-15904036D02*
X8500841Y-15951656D01*
X8500841Y-15951656D02*
X8491318Y-15989751D01*
X8491318Y-15989751D02*
X8481794Y-16008798D01*
X8481794Y-16008798D02*
X8472270Y-16018322D01*
X8472270Y-16018322D02*
X8453222Y-16027846D01*
X8453222Y-16027846D02*
X8434175Y-16027846D01*
X8434175Y-16027846D02*
X8415127Y-16018322D01*
X8415127Y-16018322D02*
X8405603Y-16008798D01*
X8405603Y-16008798D02*
X8396079Y-15989751D01*
X8396079Y-15989751D02*
X8386556Y-15951656D01*
X8386556Y-15951656D02*
X8386556Y-15904036D01*
X8386556Y-15904036D02*
X8396079Y-15865941D01*
X8396079Y-15865941D02*
X8405603Y-15846894D01*
X8405603Y-15846894D02*
X8415127Y-15837370D01*
X8415127Y-15837370D02*
X8434175Y-15827846D01*
X8586556Y-16008798D02*
X8596079Y-16018322D01*
X8596079Y-16018322D02*
X8586556Y-16027846D01*
X8586556Y-16027846D02*
X8577032Y-16018322D01*
X8577032Y-16018322D02*
X8586556Y-16008798D01*
X8586556Y-16008798D02*
X8586556Y-16027846D01*
X8662746Y-15827846D02*
X8786556Y-15827846D01*
X8786556Y-15827846D02*
X8719889Y-15904036D01*
X8719889Y-15904036D02*
X8748460Y-15904036D01*
X8748460Y-15904036D02*
X8767508Y-15913560D01*
X8767508Y-15913560D02*
X8777032Y-15923084D01*
X8777032Y-15923084D02*
X8786556Y-15942132D01*
X8786556Y-15942132D02*
X8786556Y-15989751D01*
X8786556Y-15989751D02*
X8777032Y-16008798D01*
X8777032Y-16008798D02*
X8767508Y-16018322D01*
X8767508Y-16018322D02*
X8748460Y-16027846D01*
X8748460Y-16027846D02*
X8691318Y-16027846D01*
X8691318Y-16027846D02*
X8672270Y-16018322D01*
X8672270Y-16018322D02*
X8662746Y-16008798D01*
X8910365Y-15827846D02*
X8929413Y-15827846D01*
X8929413Y-15827846D02*
X8948460Y-15837370D01*
X8948460Y-15837370D02*
X8957984Y-15846894D01*
X8957984Y-15846894D02*
X8967508Y-15865941D01*
X8967508Y-15865941D02*
X8977032Y-15904036D01*
X8977032Y-15904036D02*
X8977032Y-15951656D01*
X8977032Y-15951656D02*
X8967508Y-15989751D01*
X8967508Y-15989751D02*
X8957984Y-16008798D01*
X8957984Y-16008798D02*
X8948460Y-16018322D01*
X8948460Y-16018322D02*
X8929413Y-16027846D01*
X8929413Y-16027846D02*
X8910365Y-16027846D01*
X8910365Y-16027846D02*
X8891318Y-16018322D01*
X8891318Y-16018322D02*
X8881794Y-16008798D01*
X8881794Y-16008798D02*
X8872270Y-15989751D01*
X8872270Y-15989751D02*
X8862746Y-15951656D01*
X8862746Y-15951656D02*
X8862746Y-15904036D01*
X8862746Y-15904036D02*
X8872270Y-15865941D01*
X8872270Y-15865941D02*
X8881794Y-15846894D01*
X8881794Y-15846894D02*
X8891318Y-15837370D01*
X8891318Y-15837370D02*
X8910365Y-15827846D01*
X9100841Y-15827846D02*
X9119889Y-15827846D01*
X9119889Y-15827846D02*
X9138937Y-15837370D01*
X9138937Y-15837370D02*
X9148460Y-15846894D01*
X9148460Y-15846894D02*
X9157984Y-15865941D01*
X9157984Y-15865941D02*
X9167508Y-15904036D01*
X9167508Y-15904036D02*
X9167508Y-15951656D01*
X9167508Y-15951656D02*
X9157984Y-15989751D01*
X9157984Y-15989751D02*
X9148460Y-16008798D01*
X9148460Y-16008798D02*
X9138937Y-16018322D01*
X9138937Y-16018322D02*
X9119889Y-16027846D01*
X9119889Y-16027846D02*
X9100841Y-16027846D01*
X9100841Y-16027846D02*
X9081794Y-16018322D01*
X9081794Y-16018322D02*
X9072270Y-16008798D01*
X9072270Y-16008798D02*
X9062746Y-15989751D01*
X9062746Y-15989751D02*
X9053222Y-15951656D01*
X9053222Y-15951656D02*
X9053222Y-15904036D01*
X9053222Y-15904036D02*
X9062746Y-15865941D01*
X9062746Y-15865941D02*
X9072270Y-15846894D01*
X9072270Y-15846894D02*
X9081794Y-15837370D01*
X9081794Y-15837370D02*
X9100841Y-15827846D01*
X9253222Y-16027846D02*
X9253222Y-15894513D01*
X9253222Y-15913560D02*
X9262746Y-15904036D01*
X9262746Y-15904036D02*
X9281794Y-15894513D01*
X9281794Y-15894513D02*
X9310365Y-15894513D01*
X9310365Y-15894513D02*
X9329413Y-15904036D01*
X9329413Y-15904036D02*
X9338937Y-15923084D01*
X9338937Y-15923084D02*
X9338937Y-16027846D01*
X9338937Y-15923084D02*
X9348460Y-15904036D01*
X9348460Y-15904036D02*
X9367508Y-15894513D01*
X9367508Y-15894513D02*
X9396079Y-15894513D01*
X9396079Y-15894513D02*
X9415127Y-15904036D01*
X9415127Y-15904036D02*
X9424651Y-15923084D01*
X9424651Y-15923084D02*
X9424651Y-16027846D01*
X9519889Y-16027846D02*
X9519889Y-15894513D01*
X9519889Y-15913560D02*
X9529413Y-15904036D01*
X9529413Y-15904036D02*
X9548460Y-15894513D01*
X9548460Y-15894513D02*
X9577032Y-15894513D01*
X9577032Y-15894513D02*
X9596080Y-15904036D01*
X9596080Y-15904036D02*
X9605603Y-15923084D01*
X9605603Y-15923084D02*
X9605603Y-16027846D01*
X9605603Y-15923084D02*
X9615127Y-15904036D01*
X9615127Y-15904036D02*
X9634175Y-15894513D01*
X9634175Y-15894513D02*
X9662746Y-15894513D01*
X9662746Y-15894513D02*
X9681794Y-15904036D01*
X9681794Y-15904036D02*
X9691318Y-15923084D01*
X9691318Y-15923084D02*
X9691318Y-16027846D01*
X10081794Y-15818322D02*
X9910365Y-16075465D01*
X10338937Y-15827846D02*
X10357984Y-15827846D01*
X10357984Y-15827846D02*
X10377032Y-15837370D01*
X10377032Y-15837370D02*
X10386556Y-15846894D01*
X10386556Y-15846894D02*
X10396080Y-15865941D01*
X10396080Y-15865941D02*
X10405603Y-15904036D01*
X10405603Y-15904036D02*
X10405603Y-15951656D01*
X10405603Y-15951656D02*
X10396080Y-15989751D01*
X10396080Y-15989751D02*
X10386556Y-16008798D01*
X10386556Y-16008798D02*
X10377032Y-16018322D01*
X10377032Y-16018322D02*
X10357984Y-16027846D01*
X10357984Y-16027846D02*
X10338937Y-16027846D01*
X10338937Y-16027846D02*
X10319889Y-16018322D01*
X10319889Y-16018322D02*
X10310365Y-16008798D01*
X10310365Y-16008798D02*
X10300842Y-15989751D01*
X10300842Y-15989751D02*
X10291318Y-15951656D01*
X10291318Y-15951656D02*
X10291318Y-15904036D01*
X10291318Y-15904036D02*
X10300842Y-15865941D01*
X10300842Y-15865941D02*
X10310365Y-15846894D01*
X10310365Y-15846894D02*
X10319889Y-15837370D01*
X10319889Y-15837370D02*
X10338937Y-15827846D01*
X10491318Y-16008798D02*
X10500842Y-16018322D01*
X10500842Y-16018322D02*
X10491318Y-16027846D01*
X10491318Y-16027846D02*
X10481794Y-16018322D01*
X10481794Y-16018322D02*
X10491318Y-16008798D01*
X10491318Y-16008798D02*
X10491318Y-16027846D01*
X10624651Y-15827846D02*
X10643699Y-15827846D01*
X10643699Y-15827846D02*
X10662746Y-15837370D01*
X10662746Y-15837370D02*
X10672270Y-15846894D01*
X10672270Y-15846894D02*
X10681794Y-15865941D01*
X10681794Y-15865941D02*
X10691318Y-15904036D01*
X10691318Y-15904036D02*
X10691318Y-15951656D01*
X10691318Y-15951656D02*
X10681794Y-15989751D01*
X10681794Y-15989751D02*
X10672270Y-16008798D01*
X10672270Y-16008798D02*
X10662746Y-16018322D01*
X10662746Y-16018322D02*
X10643699Y-16027846D01*
X10643699Y-16027846D02*
X10624651Y-16027846D01*
X10624651Y-16027846D02*
X10605603Y-16018322D01*
X10605603Y-16018322D02*
X10596080Y-16008798D01*
X10596080Y-16008798D02*
X10586556Y-15989751D01*
X10586556Y-15989751D02*
X10577032Y-15951656D01*
X10577032Y-15951656D02*
X10577032Y-15904036D01*
X10577032Y-15904036D02*
X10586556Y-15865941D01*
X10586556Y-15865941D02*
X10596080Y-15846894D01*
X10596080Y-15846894D02*
X10605603Y-15837370D01*
X10605603Y-15837370D02*
X10624651Y-15827846D01*
X10881794Y-16027846D02*
X10767508Y-16027846D01*
X10824651Y-16027846D02*
X10824651Y-15827846D01*
X10824651Y-15827846D02*
X10805603Y-15856417D01*
X10805603Y-15856417D02*
X10786556Y-15875465D01*
X10786556Y-15875465D02*
X10767508Y-15884989D01*
X11072270Y-16027846D02*
X10957984Y-16027846D01*
X11015127Y-16027846D02*
X11015127Y-15827846D01*
X11015127Y-15827846D02*
X10996080Y-15856417D01*
X10996080Y-15856417D02*
X10977032Y-15875465D01*
X10977032Y-15875465D02*
X10957984Y-15884989D01*
X11186556Y-15913560D02*
X11167508Y-15904036D01*
X11167508Y-15904036D02*
X11157984Y-15894513D01*
X11157984Y-15894513D02*
X11148461Y-15875465D01*
X11148461Y-15875465D02*
X11148461Y-15865941D01*
X11148461Y-15865941D02*
X11157984Y-15846894D01*
X11157984Y-15846894D02*
X11167508Y-15837370D01*
X11167508Y-15837370D02*
X11186556Y-15827846D01*
X11186556Y-15827846D02*
X11224651Y-15827846D01*
X11224651Y-15827846D02*
X11243699Y-15837370D01*
X11243699Y-15837370D02*
X11253222Y-15846894D01*
X11253222Y-15846894D02*
X11262746Y-15865941D01*
X11262746Y-15865941D02*
X11262746Y-15875465D01*
X11262746Y-15875465D02*
X11253222Y-15894513D01*
X11253222Y-15894513D02*
X11243699Y-15904036D01*
X11243699Y-15904036D02*
X11224651Y-15913560D01*
X11224651Y-15913560D02*
X11186556Y-15913560D01*
X11186556Y-15913560D02*
X11167508Y-15923084D01*
X11167508Y-15923084D02*
X11157984Y-15932608D01*
X11157984Y-15932608D02*
X11148461Y-15951656D01*
X11148461Y-15951656D02*
X11148461Y-15989751D01*
X11148461Y-15989751D02*
X11157984Y-16008798D01*
X11157984Y-16008798D02*
X11167508Y-16018322D01*
X11167508Y-16018322D02*
X11186556Y-16027846D01*
X11186556Y-16027846D02*
X11224651Y-16027846D01*
X11224651Y-16027846D02*
X11243699Y-16018322D01*
X11243699Y-16018322D02*
X11253222Y-16008798D01*
X11253222Y-16008798D02*
X11262746Y-15989751D01*
X11262746Y-15989751D02*
X11262746Y-15951656D01*
X11262746Y-15951656D02*
X11253222Y-15932608D01*
X11253222Y-15932608D02*
X11243699Y-15923084D01*
X11243699Y-15923084D02*
X11224651Y-15913560D01*
X11338937Y-15827846D02*
X11338937Y-15865941D01*
X11415127Y-15827846D02*
X11415127Y-15865941D01*
X11710365Y-16104036D02*
X11700842Y-16094513D01*
X11700842Y-16094513D02*
X11681794Y-16065941D01*
X11681794Y-16065941D02*
X11672270Y-16046894D01*
X11672270Y-16046894D02*
X11662746Y-16018322D01*
X11662746Y-16018322D02*
X11653223Y-15970703D01*
X11653223Y-15970703D02*
X11653223Y-15932608D01*
X11653223Y-15932608D02*
X11662746Y-15884989D01*
X11662746Y-15884989D02*
X11672270Y-15856417D01*
X11672270Y-15856417D02*
X11681794Y-15837370D01*
X11681794Y-15837370D02*
X11700842Y-15808798D01*
X11700842Y-15808798D02*
X11710365Y-15799275D01*
X11881794Y-15827846D02*
X11786556Y-15827846D01*
X11786556Y-15827846D02*
X11777032Y-15923084D01*
X11777032Y-15923084D02*
X11786556Y-15913560D01*
X11786556Y-15913560D02*
X11805603Y-15904036D01*
X11805603Y-15904036D02*
X11853223Y-15904036D01*
X11853223Y-15904036D02*
X11872270Y-15913560D01*
X11872270Y-15913560D02*
X11881794Y-15923084D01*
X11881794Y-15923084D02*
X11891318Y-15942132D01*
X11891318Y-15942132D02*
X11891318Y-15989751D01*
X11891318Y-15989751D02*
X11881794Y-16008798D01*
X11881794Y-16008798D02*
X11872270Y-16018322D01*
X11872270Y-16018322D02*
X11853223Y-16027846D01*
X11853223Y-16027846D02*
X11805603Y-16027846D01*
X11805603Y-16027846D02*
X11786556Y-16018322D01*
X11786556Y-16018322D02*
X11777032Y-16008798D01*
X12005603Y-15913560D02*
X11986556Y-15904036D01*
X11986556Y-15904036D02*
X11977032Y-15894513D01*
X11977032Y-15894513D02*
X11967508Y-15875465D01*
X11967508Y-15875465D02*
X11967508Y-15865941D01*
X11967508Y-15865941D02*
X11977032Y-15846894D01*
X11977032Y-15846894D02*
X11986556Y-15837370D01*
X11986556Y-15837370D02*
X12005603Y-15827846D01*
X12005603Y-15827846D02*
X12043699Y-15827846D01*
X12043699Y-15827846D02*
X12062746Y-15837370D01*
X12062746Y-15837370D02*
X12072270Y-15846894D01*
X12072270Y-15846894D02*
X12081794Y-15865941D01*
X12081794Y-15865941D02*
X12081794Y-15875465D01*
X12081794Y-15875465D02*
X12072270Y-15894513D01*
X12072270Y-15894513D02*
X12062746Y-15904036D01*
X12062746Y-15904036D02*
X12043699Y-15913560D01*
X12043699Y-15913560D02*
X12005603Y-15913560D01*
X12005603Y-15913560D02*
X11986556Y-15923084D01*
X11986556Y-15923084D02*
X11977032Y-15932608D01*
X11977032Y-15932608D02*
X11967508Y-15951656D01*
X11967508Y-15951656D02*
X11967508Y-15989751D01*
X11967508Y-15989751D02*
X11977032Y-16008798D01*
X11977032Y-16008798D02*
X11986556Y-16018322D01*
X11986556Y-16018322D02*
X12005603Y-16027846D01*
X12005603Y-16027846D02*
X12043699Y-16027846D01*
X12043699Y-16027846D02*
X12062746Y-16018322D01*
X12062746Y-16018322D02*
X12072270Y-16008798D01*
X12072270Y-16008798D02*
X12081794Y-15989751D01*
X12081794Y-15989751D02*
X12081794Y-15951656D01*
X12081794Y-15951656D02*
X12072270Y-15932608D01*
X12072270Y-15932608D02*
X12062746Y-15923084D01*
X12062746Y-15923084D02*
X12043699Y-15913560D01*
X12319889Y-16027846D02*
X12319889Y-15827846D01*
X12405604Y-16027846D02*
X12405604Y-15923084D01*
X12405604Y-15923084D02*
X12396080Y-15904036D01*
X12396080Y-15904036D02*
X12377032Y-15894513D01*
X12377032Y-15894513D02*
X12348461Y-15894513D01*
X12348461Y-15894513D02*
X12329413Y-15904036D01*
X12329413Y-15904036D02*
X12319889Y-15913560D01*
X12529413Y-16027846D02*
X12510365Y-16018322D01*
X12510365Y-16018322D02*
X12500842Y-16008798D01*
X12500842Y-16008798D02*
X12491318Y-15989751D01*
X12491318Y-15989751D02*
X12491318Y-15932608D01*
X12491318Y-15932608D02*
X12500842Y-15913560D01*
X12500842Y-15913560D02*
X12510365Y-15904036D01*
X12510365Y-15904036D02*
X12529413Y-15894513D01*
X12529413Y-15894513D02*
X12557985Y-15894513D01*
X12557985Y-15894513D02*
X12577032Y-15904036D01*
X12577032Y-15904036D02*
X12586556Y-15913560D01*
X12586556Y-15913560D02*
X12596080Y-15932608D01*
X12596080Y-15932608D02*
X12596080Y-15989751D01*
X12596080Y-15989751D02*
X12586556Y-16008798D01*
X12586556Y-16008798D02*
X12577032Y-16018322D01*
X12577032Y-16018322D02*
X12557985Y-16027846D01*
X12557985Y-16027846D02*
X12529413Y-16027846D01*
X12710365Y-16027846D02*
X12691318Y-16018322D01*
X12691318Y-16018322D02*
X12681794Y-15999275D01*
X12681794Y-15999275D02*
X12681794Y-15827846D01*
X12862746Y-16018322D02*
X12843699Y-16027846D01*
X12843699Y-16027846D02*
X12805604Y-16027846D01*
X12805604Y-16027846D02*
X12786556Y-16018322D01*
X12786556Y-16018322D02*
X12777032Y-15999275D01*
X12777032Y-15999275D02*
X12777032Y-15923084D01*
X12777032Y-15923084D02*
X12786556Y-15904036D01*
X12786556Y-15904036D02*
X12805604Y-15894513D01*
X12805604Y-15894513D02*
X12843699Y-15894513D01*
X12843699Y-15894513D02*
X12862746Y-15904036D01*
X12862746Y-15904036D02*
X12872270Y-15923084D01*
X12872270Y-15923084D02*
X12872270Y-15942132D01*
X12872270Y-15942132D02*
X12777032Y-15961179D01*
X12948461Y-16018322D02*
X12967508Y-16027846D01*
X12967508Y-16027846D02*
X13005604Y-16027846D01*
X13005604Y-16027846D02*
X13024651Y-16018322D01*
X13024651Y-16018322D02*
X13034175Y-15999275D01*
X13034175Y-15999275D02*
X13034175Y-15989751D01*
X13034175Y-15989751D02*
X13024651Y-15970703D01*
X13024651Y-15970703D02*
X13005604Y-15961179D01*
X13005604Y-15961179D02*
X12977032Y-15961179D01*
X12977032Y-15961179D02*
X12957985Y-15951656D01*
X12957985Y-15951656D02*
X12948461Y-15932608D01*
X12948461Y-15932608D02*
X12948461Y-15923084D01*
X12948461Y-15923084D02*
X12957985Y-15904036D01*
X12957985Y-15904036D02*
X12977032Y-15894513D01*
X12977032Y-15894513D02*
X13005604Y-15894513D01*
X13005604Y-15894513D02*
X13024651Y-15904036D01*
X13100842Y-16104036D02*
X13110366Y-16094513D01*
X13110366Y-16094513D02*
X13129413Y-16065941D01*
X13129413Y-16065941D02*
X13138937Y-16046894D01*
X13138937Y-16046894D02*
X13148461Y-16018322D01*
X13148461Y-16018322D02*
X13157985Y-15970703D01*
X13157985Y-15970703D02*
X13157985Y-15932608D01*
X13157985Y-15932608D02*
X13148461Y-15884989D01*
X13148461Y-15884989D02*
X13138937Y-15856417D01*
X13138937Y-15856417D02*
X13129413Y-15837370D01*
X13129413Y-15837370D02*
X13110366Y-15808798D01*
X13110366Y-15808798D02*
X13100842Y-15799275D01*
D10*
X8095303Y-16160362D02*
X8095303Y-16240362D01*
X8055303Y-16200362D02*
X8135303Y-16200362D01*
D13*
X8434175Y-16091846D02*
X8453222Y-16091846D01*
X8453222Y-16091846D02*
X8472270Y-16101370D01*
X8472270Y-16101370D02*
X8481794Y-16110894D01*
X8481794Y-16110894D02*
X8491318Y-16129941D01*
X8491318Y-16129941D02*
X8500841Y-16168036D01*
X8500841Y-16168036D02*
X8500841Y-16215656D01*
X8500841Y-16215656D02*
X8491318Y-16253751D01*
X8491318Y-16253751D02*
X8481794Y-16272798D01*
X8481794Y-16272798D02*
X8472270Y-16282322D01*
X8472270Y-16282322D02*
X8453222Y-16291846D01*
X8453222Y-16291846D02*
X8434175Y-16291846D01*
X8434175Y-16291846D02*
X8415127Y-16282322D01*
X8415127Y-16282322D02*
X8405603Y-16272798D01*
X8405603Y-16272798D02*
X8396079Y-16253751D01*
X8396079Y-16253751D02*
X8386556Y-16215656D01*
X8386556Y-16215656D02*
X8386556Y-16168036D01*
X8386556Y-16168036D02*
X8396079Y-16129941D01*
X8396079Y-16129941D02*
X8405603Y-16110894D01*
X8405603Y-16110894D02*
X8415127Y-16101370D01*
X8415127Y-16101370D02*
X8434175Y-16091846D01*
X8586556Y-16272798D02*
X8596079Y-16282322D01*
X8596079Y-16282322D02*
X8586556Y-16291846D01*
X8586556Y-16291846D02*
X8577032Y-16282322D01*
X8577032Y-16282322D02*
X8586556Y-16272798D01*
X8586556Y-16272798D02*
X8586556Y-16291846D01*
X8710365Y-16177560D02*
X8691318Y-16168036D01*
X8691318Y-16168036D02*
X8681794Y-16158513D01*
X8681794Y-16158513D02*
X8672270Y-16139465D01*
X8672270Y-16139465D02*
X8672270Y-16129941D01*
X8672270Y-16129941D02*
X8681794Y-16110894D01*
X8681794Y-16110894D02*
X8691318Y-16101370D01*
X8691318Y-16101370D02*
X8710365Y-16091846D01*
X8710365Y-16091846D02*
X8748460Y-16091846D01*
X8748460Y-16091846D02*
X8767508Y-16101370D01*
X8767508Y-16101370D02*
X8777032Y-16110894D01*
X8777032Y-16110894D02*
X8786556Y-16129941D01*
X8786556Y-16129941D02*
X8786556Y-16139465D01*
X8786556Y-16139465D02*
X8777032Y-16158513D01*
X8777032Y-16158513D02*
X8767508Y-16168036D01*
X8767508Y-16168036D02*
X8748460Y-16177560D01*
X8748460Y-16177560D02*
X8710365Y-16177560D01*
X8710365Y-16177560D02*
X8691318Y-16187084D01*
X8691318Y-16187084D02*
X8681794Y-16196608D01*
X8681794Y-16196608D02*
X8672270Y-16215656D01*
X8672270Y-16215656D02*
X8672270Y-16253751D01*
X8672270Y-16253751D02*
X8681794Y-16272798D01*
X8681794Y-16272798D02*
X8691318Y-16282322D01*
X8691318Y-16282322D02*
X8710365Y-16291846D01*
X8710365Y-16291846D02*
X8748460Y-16291846D01*
X8748460Y-16291846D02*
X8767508Y-16282322D01*
X8767508Y-16282322D02*
X8777032Y-16272798D01*
X8777032Y-16272798D02*
X8786556Y-16253751D01*
X8786556Y-16253751D02*
X8786556Y-16215656D01*
X8786556Y-16215656D02*
X8777032Y-16196608D01*
X8777032Y-16196608D02*
X8767508Y-16187084D01*
X8767508Y-16187084D02*
X8748460Y-16177560D01*
X8910365Y-16091846D02*
X8929413Y-16091846D01*
X8929413Y-16091846D02*
X8948460Y-16101370D01*
X8948460Y-16101370D02*
X8957984Y-16110894D01*
X8957984Y-16110894D02*
X8967508Y-16129941D01*
X8967508Y-16129941D02*
X8977032Y-16168036D01*
X8977032Y-16168036D02*
X8977032Y-16215656D01*
X8977032Y-16215656D02*
X8967508Y-16253751D01*
X8967508Y-16253751D02*
X8957984Y-16272798D01*
X8957984Y-16272798D02*
X8948460Y-16282322D01*
X8948460Y-16282322D02*
X8929413Y-16291846D01*
X8929413Y-16291846D02*
X8910365Y-16291846D01*
X8910365Y-16291846D02*
X8891318Y-16282322D01*
X8891318Y-16282322D02*
X8881794Y-16272798D01*
X8881794Y-16272798D02*
X8872270Y-16253751D01*
X8872270Y-16253751D02*
X8862746Y-16215656D01*
X8862746Y-16215656D02*
X8862746Y-16168036D01*
X8862746Y-16168036D02*
X8872270Y-16129941D01*
X8872270Y-16129941D02*
X8881794Y-16110894D01*
X8881794Y-16110894D02*
X8891318Y-16101370D01*
X8891318Y-16101370D02*
X8910365Y-16091846D01*
X9100841Y-16091846D02*
X9119889Y-16091846D01*
X9119889Y-16091846D02*
X9138937Y-16101370D01*
X9138937Y-16101370D02*
X9148460Y-16110894D01*
X9148460Y-16110894D02*
X9157984Y-16129941D01*
X9157984Y-16129941D02*
X9167508Y-16168036D01*
X9167508Y-16168036D02*
X9167508Y-16215656D01*
X9167508Y-16215656D02*
X9157984Y-16253751D01*
X9157984Y-16253751D02*
X9148460Y-16272798D01*
X9148460Y-16272798D02*
X9138937Y-16282322D01*
X9138937Y-16282322D02*
X9119889Y-16291846D01*
X9119889Y-16291846D02*
X9100841Y-16291846D01*
X9100841Y-16291846D02*
X9081794Y-16282322D01*
X9081794Y-16282322D02*
X9072270Y-16272798D01*
X9072270Y-16272798D02*
X9062746Y-16253751D01*
X9062746Y-16253751D02*
X9053222Y-16215656D01*
X9053222Y-16215656D02*
X9053222Y-16168036D01*
X9053222Y-16168036D02*
X9062746Y-16129941D01*
X9062746Y-16129941D02*
X9072270Y-16110894D01*
X9072270Y-16110894D02*
X9081794Y-16101370D01*
X9081794Y-16101370D02*
X9100841Y-16091846D01*
X9253222Y-16291846D02*
X9253222Y-16158513D01*
X9253222Y-16177560D02*
X9262746Y-16168036D01*
X9262746Y-16168036D02*
X9281794Y-16158513D01*
X9281794Y-16158513D02*
X9310365Y-16158513D01*
X9310365Y-16158513D02*
X9329413Y-16168036D01*
X9329413Y-16168036D02*
X9338937Y-16187084D01*
X9338937Y-16187084D02*
X9338937Y-16291846D01*
X9338937Y-16187084D02*
X9348460Y-16168036D01*
X9348460Y-16168036D02*
X9367508Y-16158513D01*
X9367508Y-16158513D02*
X9396079Y-16158513D01*
X9396079Y-16158513D02*
X9415127Y-16168036D01*
X9415127Y-16168036D02*
X9424651Y-16187084D01*
X9424651Y-16187084D02*
X9424651Y-16291846D01*
X9519889Y-16291846D02*
X9519889Y-16158513D01*
X9519889Y-16177560D02*
X9529413Y-16168036D01*
X9529413Y-16168036D02*
X9548460Y-16158513D01*
X9548460Y-16158513D02*
X9577032Y-16158513D01*
X9577032Y-16158513D02*
X9596080Y-16168036D01*
X9596080Y-16168036D02*
X9605603Y-16187084D01*
X9605603Y-16187084D02*
X9605603Y-16291846D01*
X9605603Y-16187084D02*
X9615127Y-16168036D01*
X9615127Y-16168036D02*
X9634175Y-16158513D01*
X9634175Y-16158513D02*
X9662746Y-16158513D01*
X9662746Y-16158513D02*
X9681794Y-16168036D01*
X9681794Y-16168036D02*
X9691318Y-16187084D01*
X9691318Y-16187084D02*
X9691318Y-16291846D01*
X10081794Y-16082322D02*
X9910365Y-16339465D01*
X10338937Y-16091846D02*
X10357984Y-16091846D01*
X10357984Y-16091846D02*
X10377032Y-16101370D01*
X10377032Y-16101370D02*
X10386556Y-16110894D01*
X10386556Y-16110894D02*
X10396080Y-16129941D01*
X10396080Y-16129941D02*
X10405603Y-16168036D01*
X10405603Y-16168036D02*
X10405603Y-16215656D01*
X10405603Y-16215656D02*
X10396080Y-16253751D01*
X10396080Y-16253751D02*
X10386556Y-16272798D01*
X10386556Y-16272798D02*
X10377032Y-16282322D01*
X10377032Y-16282322D02*
X10357984Y-16291846D01*
X10357984Y-16291846D02*
X10338937Y-16291846D01*
X10338937Y-16291846D02*
X10319889Y-16282322D01*
X10319889Y-16282322D02*
X10310365Y-16272798D01*
X10310365Y-16272798D02*
X10300842Y-16253751D01*
X10300842Y-16253751D02*
X10291318Y-16215656D01*
X10291318Y-16215656D02*
X10291318Y-16168036D01*
X10291318Y-16168036D02*
X10300842Y-16129941D01*
X10300842Y-16129941D02*
X10310365Y-16110894D01*
X10310365Y-16110894D02*
X10319889Y-16101370D01*
X10319889Y-16101370D02*
X10338937Y-16091846D01*
X10491318Y-16272798D02*
X10500842Y-16282322D01*
X10500842Y-16282322D02*
X10491318Y-16291846D01*
X10491318Y-16291846D02*
X10481794Y-16282322D01*
X10481794Y-16282322D02*
X10491318Y-16272798D01*
X10491318Y-16272798D02*
X10491318Y-16291846D01*
X10624651Y-16091846D02*
X10643699Y-16091846D01*
X10643699Y-16091846D02*
X10662746Y-16101370D01*
X10662746Y-16101370D02*
X10672270Y-16110894D01*
X10672270Y-16110894D02*
X10681794Y-16129941D01*
X10681794Y-16129941D02*
X10691318Y-16168036D01*
X10691318Y-16168036D02*
X10691318Y-16215656D01*
X10691318Y-16215656D02*
X10681794Y-16253751D01*
X10681794Y-16253751D02*
X10672270Y-16272798D01*
X10672270Y-16272798D02*
X10662746Y-16282322D01*
X10662746Y-16282322D02*
X10643699Y-16291846D01*
X10643699Y-16291846D02*
X10624651Y-16291846D01*
X10624651Y-16291846D02*
X10605603Y-16282322D01*
X10605603Y-16282322D02*
X10596080Y-16272798D01*
X10596080Y-16272798D02*
X10586556Y-16253751D01*
X10586556Y-16253751D02*
X10577032Y-16215656D01*
X10577032Y-16215656D02*
X10577032Y-16168036D01*
X10577032Y-16168036D02*
X10586556Y-16129941D01*
X10586556Y-16129941D02*
X10596080Y-16110894D01*
X10596080Y-16110894D02*
X10605603Y-16101370D01*
X10605603Y-16101370D02*
X10624651Y-16091846D01*
X10757984Y-16091846D02*
X10881794Y-16091846D01*
X10881794Y-16091846D02*
X10815127Y-16168036D01*
X10815127Y-16168036D02*
X10843699Y-16168036D01*
X10843699Y-16168036D02*
X10862746Y-16177560D01*
X10862746Y-16177560D02*
X10872270Y-16187084D01*
X10872270Y-16187084D02*
X10881794Y-16206132D01*
X10881794Y-16206132D02*
X10881794Y-16253751D01*
X10881794Y-16253751D02*
X10872270Y-16272798D01*
X10872270Y-16272798D02*
X10862746Y-16282322D01*
X10862746Y-16282322D02*
X10843699Y-16291846D01*
X10843699Y-16291846D02*
X10786556Y-16291846D01*
X10786556Y-16291846D02*
X10767508Y-16282322D01*
X10767508Y-16282322D02*
X10757984Y-16272798D01*
X11072270Y-16291846D02*
X10957984Y-16291846D01*
X11015127Y-16291846D02*
X11015127Y-16091846D01*
X11015127Y-16091846D02*
X10996080Y-16120417D01*
X10996080Y-16120417D02*
X10977032Y-16139465D01*
X10977032Y-16139465D02*
X10957984Y-16148989D01*
X11253222Y-16091846D02*
X11157984Y-16091846D01*
X11157984Y-16091846D02*
X11148461Y-16187084D01*
X11148461Y-16187084D02*
X11157984Y-16177560D01*
X11157984Y-16177560D02*
X11177032Y-16168036D01*
X11177032Y-16168036D02*
X11224651Y-16168036D01*
X11224651Y-16168036D02*
X11243699Y-16177560D01*
X11243699Y-16177560D02*
X11253222Y-16187084D01*
X11253222Y-16187084D02*
X11262746Y-16206132D01*
X11262746Y-16206132D02*
X11262746Y-16253751D01*
X11262746Y-16253751D02*
X11253222Y-16272798D01*
X11253222Y-16272798D02*
X11243699Y-16282322D01*
X11243699Y-16282322D02*
X11224651Y-16291846D01*
X11224651Y-16291846D02*
X11177032Y-16291846D01*
X11177032Y-16291846D02*
X11157984Y-16282322D01*
X11157984Y-16282322D02*
X11148461Y-16272798D01*
X11338937Y-16091846D02*
X11338937Y-16129941D01*
X11415127Y-16091846D02*
X11415127Y-16129941D01*
X11710365Y-16368036D02*
X11700842Y-16358513D01*
X11700842Y-16358513D02*
X11681794Y-16329941D01*
X11681794Y-16329941D02*
X11672270Y-16310894D01*
X11672270Y-16310894D02*
X11662746Y-16282322D01*
X11662746Y-16282322D02*
X11653223Y-16234703D01*
X11653223Y-16234703D02*
X11653223Y-16196608D01*
X11653223Y-16196608D02*
X11662746Y-16148989D01*
X11662746Y-16148989D02*
X11672270Y-16120417D01*
X11672270Y-16120417D02*
X11681794Y-16101370D01*
X11681794Y-16101370D02*
X11700842Y-16072798D01*
X11700842Y-16072798D02*
X11710365Y-16063275D01*
X11815127Y-16177560D02*
X11796080Y-16168036D01*
X11796080Y-16168036D02*
X11786556Y-16158513D01*
X11786556Y-16158513D02*
X11777032Y-16139465D01*
X11777032Y-16139465D02*
X11777032Y-16129941D01*
X11777032Y-16129941D02*
X11786556Y-16110894D01*
X11786556Y-16110894D02*
X11796080Y-16101370D01*
X11796080Y-16101370D02*
X11815127Y-16091846D01*
X11815127Y-16091846D02*
X11853223Y-16091846D01*
X11853223Y-16091846D02*
X11872270Y-16101370D01*
X11872270Y-16101370D02*
X11881794Y-16110894D01*
X11881794Y-16110894D02*
X11891318Y-16129941D01*
X11891318Y-16129941D02*
X11891318Y-16139465D01*
X11891318Y-16139465D02*
X11881794Y-16158513D01*
X11881794Y-16158513D02*
X11872270Y-16168036D01*
X11872270Y-16168036D02*
X11853223Y-16177560D01*
X11853223Y-16177560D02*
X11815127Y-16177560D01*
X11815127Y-16177560D02*
X11796080Y-16187084D01*
X11796080Y-16187084D02*
X11786556Y-16196608D01*
X11786556Y-16196608D02*
X11777032Y-16215656D01*
X11777032Y-16215656D02*
X11777032Y-16253751D01*
X11777032Y-16253751D02*
X11786556Y-16272798D01*
X11786556Y-16272798D02*
X11796080Y-16282322D01*
X11796080Y-16282322D02*
X11815127Y-16291846D01*
X11815127Y-16291846D02*
X11853223Y-16291846D01*
X11853223Y-16291846D02*
X11872270Y-16282322D01*
X11872270Y-16282322D02*
X11881794Y-16272798D01*
X11881794Y-16272798D02*
X11891318Y-16253751D01*
X11891318Y-16253751D02*
X11891318Y-16215656D01*
X11891318Y-16215656D02*
X11881794Y-16196608D01*
X11881794Y-16196608D02*
X11872270Y-16187084D01*
X11872270Y-16187084D02*
X11853223Y-16177560D01*
X12062746Y-16158513D02*
X12062746Y-16291846D01*
X12015127Y-16082322D02*
X11967508Y-16225179D01*
X11967508Y-16225179D02*
X12091318Y-16225179D01*
X12319889Y-16291846D02*
X12319889Y-16091846D01*
X12405604Y-16291846D02*
X12405604Y-16187084D01*
X12405604Y-16187084D02*
X12396080Y-16168036D01*
X12396080Y-16168036D02*
X12377032Y-16158513D01*
X12377032Y-16158513D02*
X12348461Y-16158513D01*
X12348461Y-16158513D02*
X12329413Y-16168036D01*
X12329413Y-16168036D02*
X12319889Y-16177560D01*
X12529413Y-16291846D02*
X12510365Y-16282322D01*
X12510365Y-16282322D02*
X12500842Y-16272798D01*
X12500842Y-16272798D02*
X12491318Y-16253751D01*
X12491318Y-16253751D02*
X12491318Y-16196608D01*
X12491318Y-16196608D02*
X12500842Y-16177560D01*
X12500842Y-16177560D02*
X12510365Y-16168036D01*
X12510365Y-16168036D02*
X12529413Y-16158513D01*
X12529413Y-16158513D02*
X12557985Y-16158513D01*
X12557985Y-16158513D02*
X12577032Y-16168036D01*
X12577032Y-16168036D02*
X12586556Y-16177560D01*
X12586556Y-16177560D02*
X12596080Y-16196608D01*
X12596080Y-16196608D02*
X12596080Y-16253751D01*
X12596080Y-16253751D02*
X12586556Y-16272798D01*
X12586556Y-16272798D02*
X12577032Y-16282322D01*
X12577032Y-16282322D02*
X12557985Y-16291846D01*
X12557985Y-16291846D02*
X12529413Y-16291846D01*
X12710365Y-16291846D02*
X12691318Y-16282322D01*
X12691318Y-16282322D02*
X12681794Y-16263275D01*
X12681794Y-16263275D02*
X12681794Y-16091846D01*
X12862746Y-16282322D02*
X12843699Y-16291846D01*
X12843699Y-16291846D02*
X12805604Y-16291846D01*
X12805604Y-16291846D02*
X12786556Y-16282322D01*
X12786556Y-16282322D02*
X12777032Y-16263275D01*
X12777032Y-16263275D02*
X12777032Y-16187084D01*
X12777032Y-16187084D02*
X12786556Y-16168036D01*
X12786556Y-16168036D02*
X12805604Y-16158513D01*
X12805604Y-16158513D02*
X12843699Y-16158513D01*
X12843699Y-16158513D02*
X12862746Y-16168036D01*
X12862746Y-16168036D02*
X12872270Y-16187084D01*
X12872270Y-16187084D02*
X12872270Y-16206132D01*
X12872270Y-16206132D02*
X12777032Y-16225179D01*
X12948461Y-16282322D02*
X12967508Y-16291846D01*
X12967508Y-16291846D02*
X13005604Y-16291846D01*
X13005604Y-16291846D02*
X13024651Y-16282322D01*
X13024651Y-16282322D02*
X13034175Y-16263275D01*
X13034175Y-16263275D02*
X13034175Y-16253751D01*
X13034175Y-16253751D02*
X13024651Y-16234703D01*
X13024651Y-16234703D02*
X13005604Y-16225179D01*
X13005604Y-16225179D02*
X12977032Y-16225179D01*
X12977032Y-16225179D02*
X12957985Y-16215656D01*
X12957985Y-16215656D02*
X12948461Y-16196608D01*
X12948461Y-16196608D02*
X12948461Y-16187084D01*
X12948461Y-16187084D02*
X12957985Y-16168036D01*
X12957985Y-16168036D02*
X12977032Y-16158513D01*
X12977032Y-16158513D02*
X13005604Y-16158513D01*
X13005604Y-16158513D02*
X13024651Y-16168036D01*
X13100842Y-16368036D02*
X13110366Y-16358513D01*
X13110366Y-16358513D02*
X13129413Y-16329941D01*
X13129413Y-16329941D02*
X13138937Y-16310894D01*
X13138937Y-16310894D02*
X13148461Y-16282322D01*
X13148461Y-16282322D02*
X13157985Y-16234703D01*
X13157985Y-16234703D02*
X13157985Y-16196608D01*
X13157985Y-16196608D02*
X13148461Y-16148989D01*
X13148461Y-16148989D02*
X13138937Y-16120417D01*
X13138937Y-16120417D02*
X13129413Y-16101370D01*
X13129413Y-16101370D02*
X13110366Y-16072798D01*
X13110366Y-16072798D02*
X13100842Y-16063275D01*
D10*
X8123400Y-16493099D02*
X8123400Y-16435625D01*
X8065925Y-16435625D01*
X8065925Y-16493099D01*
X8123400Y-16493099D01*
D13*
X8434175Y-16355846D02*
X8453222Y-16355846D01*
X8453222Y-16355846D02*
X8472270Y-16365370D01*
X8472270Y-16365370D02*
X8481794Y-16374894D01*
X8481794Y-16374894D02*
X8491318Y-16393941D01*
X8491318Y-16393941D02*
X8500841Y-16432036D01*
X8500841Y-16432036D02*
X8500841Y-16479656D01*
X8500841Y-16479656D02*
X8491318Y-16517751D01*
X8491318Y-16517751D02*
X8481794Y-16536798D01*
X8481794Y-16536798D02*
X8472270Y-16546322D01*
X8472270Y-16546322D02*
X8453222Y-16555846D01*
X8453222Y-16555846D02*
X8434175Y-16555846D01*
X8434175Y-16555846D02*
X8415127Y-16546322D01*
X8415127Y-16546322D02*
X8405603Y-16536798D01*
X8405603Y-16536798D02*
X8396079Y-16517751D01*
X8396079Y-16517751D02*
X8386556Y-16479656D01*
X8386556Y-16479656D02*
X8386556Y-16432036D01*
X8386556Y-16432036D02*
X8396079Y-16393941D01*
X8396079Y-16393941D02*
X8405603Y-16374894D01*
X8405603Y-16374894D02*
X8415127Y-16365370D01*
X8415127Y-16365370D02*
X8434175Y-16355846D01*
X8586556Y-16536798D02*
X8596079Y-16546322D01*
X8596079Y-16546322D02*
X8586556Y-16555846D01*
X8586556Y-16555846D02*
X8577032Y-16546322D01*
X8577032Y-16546322D02*
X8586556Y-16536798D01*
X8586556Y-16536798D02*
X8586556Y-16555846D01*
X8710365Y-16441560D02*
X8691318Y-16432036D01*
X8691318Y-16432036D02*
X8681794Y-16422513D01*
X8681794Y-16422513D02*
X8672270Y-16403465D01*
X8672270Y-16403465D02*
X8672270Y-16393941D01*
X8672270Y-16393941D02*
X8681794Y-16374894D01*
X8681794Y-16374894D02*
X8691318Y-16365370D01*
X8691318Y-16365370D02*
X8710365Y-16355846D01*
X8710365Y-16355846D02*
X8748460Y-16355846D01*
X8748460Y-16355846D02*
X8767508Y-16365370D01*
X8767508Y-16365370D02*
X8777032Y-16374894D01*
X8777032Y-16374894D02*
X8786556Y-16393941D01*
X8786556Y-16393941D02*
X8786556Y-16403465D01*
X8786556Y-16403465D02*
X8777032Y-16422513D01*
X8777032Y-16422513D02*
X8767508Y-16432036D01*
X8767508Y-16432036D02*
X8748460Y-16441560D01*
X8748460Y-16441560D02*
X8710365Y-16441560D01*
X8710365Y-16441560D02*
X8691318Y-16451084D01*
X8691318Y-16451084D02*
X8681794Y-16460608D01*
X8681794Y-16460608D02*
X8672270Y-16479656D01*
X8672270Y-16479656D02*
X8672270Y-16517751D01*
X8672270Y-16517751D02*
X8681794Y-16536798D01*
X8681794Y-16536798D02*
X8691318Y-16546322D01*
X8691318Y-16546322D02*
X8710365Y-16555846D01*
X8710365Y-16555846D02*
X8748460Y-16555846D01*
X8748460Y-16555846D02*
X8767508Y-16546322D01*
X8767508Y-16546322D02*
X8777032Y-16536798D01*
X8777032Y-16536798D02*
X8786556Y-16517751D01*
X8786556Y-16517751D02*
X8786556Y-16479656D01*
X8786556Y-16479656D02*
X8777032Y-16460608D01*
X8777032Y-16460608D02*
X8767508Y-16451084D01*
X8767508Y-16451084D02*
X8748460Y-16441560D01*
X8977032Y-16555846D02*
X8862746Y-16555846D01*
X8919889Y-16555846D02*
X8919889Y-16355846D01*
X8919889Y-16355846D02*
X8900841Y-16384417D01*
X8900841Y-16384417D02*
X8881794Y-16403465D01*
X8881794Y-16403465D02*
X8862746Y-16412989D01*
X9043699Y-16355846D02*
X9167508Y-16355846D01*
X9167508Y-16355846D02*
X9100841Y-16432036D01*
X9100841Y-16432036D02*
X9129413Y-16432036D01*
X9129413Y-16432036D02*
X9148460Y-16441560D01*
X9148460Y-16441560D02*
X9157984Y-16451084D01*
X9157984Y-16451084D02*
X9167508Y-16470132D01*
X9167508Y-16470132D02*
X9167508Y-16517751D01*
X9167508Y-16517751D02*
X9157984Y-16536798D01*
X9157984Y-16536798D02*
X9148460Y-16546322D01*
X9148460Y-16546322D02*
X9129413Y-16555846D01*
X9129413Y-16555846D02*
X9072270Y-16555846D01*
X9072270Y-16555846D02*
X9053222Y-16546322D01*
X9053222Y-16546322D02*
X9043699Y-16536798D01*
X9253222Y-16555846D02*
X9253222Y-16422513D01*
X9253222Y-16441560D02*
X9262746Y-16432036D01*
X9262746Y-16432036D02*
X9281794Y-16422513D01*
X9281794Y-16422513D02*
X9310365Y-16422513D01*
X9310365Y-16422513D02*
X9329413Y-16432036D01*
X9329413Y-16432036D02*
X9338937Y-16451084D01*
X9338937Y-16451084D02*
X9338937Y-16555846D01*
X9338937Y-16451084D02*
X9348460Y-16432036D01*
X9348460Y-16432036D02*
X9367508Y-16422513D01*
X9367508Y-16422513D02*
X9396079Y-16422513D01*
X9396079Y-16422513D02*
X9415127Y-16432036D01*
X9415127Y-16432036D02*
X9424651Y-16451084D01*
X9424651Y-16451084D02*
X9424651Y-16555846D01*
X9519889Y-16555846D02*
X9519889Y-16422513D01*
X9519889Y-16441560D02*
X9529413Y-16432036D01*
X9529413Y-16432036D02*
X9548460Y-16422513D01*
X9548460Y-16422513D02*
X9577032Y-16422513D01*
X9577032Y-16422513D02*
X9596080Y-16432036D01*
X9596080Y-16432036D02*
X9605603Y-16451084D01*
X9605603Y-16451084D02*
X9605603Y-16555846D01*
X9605603Y-16451084D02*
X9615127Y-16432036D01*
X9615127Y-16432036D02*
X9634175Y-16422513D01*
X9634175Y-16422513D02*
X9662746Y-16422513D01*
X9662746Y-16422513D02*
X9681794Y-16432036D01*
X9681794Y-16432036D02*
X9691318Y-16451084D01*
X9691318Y-16451084D02*
X9691318Y-16555846D01*
X10081794Y-16346322D02*
X9910365Y-16603465D01*
X10338937Y-16355846D02*
X10357984Y-16355846D01*
X10357984Y-16355846D02*
X10377032Y-16365370D01*
X10377032Y-16365370D02*
X10386556Y-16374894D01*
X10386556Y-16374894D02*
X10396080Y-16393941D01*
X10396080Y-16393941D02*
X10405603Y-16432036D01*
X10405603Y-16432036D02*
X10405603Y-16479656D01*
X10405603Y-16479656D02*
X10396080Y-16517751D01*
X10396080Y-16517751D02*
X10386556Y-16536798D01*
X10386556Y-16536798D02*
X10377032Y-16546322D01*
X10377032Y-16546322D02*
X10357984Y-16555846D01*
X10357984Y-16555846D02*
X10338937Y-16555846D01*
X10338937Y-16555846D02*
X10319889Y-16546322D01*
X10319889Y-16546322D02*
X10310365Y-16536798D01*
X10310365Y-16536798D02*
X10300842Y-16517751D01*
X10300842Y-16517751D02*
X10291318Y-16479656D01*
X10291318Y-16479656D02*
X10291318Y-16432036D01*
X10291318Y-16432036D02*
X10300842Y-16393941D01*
X10300842Y-16393941D02*
X10310365Y-16374894D01*
X10310365Y-16374894D02*
X10319889Y-16365370D01*
X10319889Y-16365370D02*
X10338937Y-16355846D01*
X10491318Y-16536798D02*
X10500842Y-16546322D01*
X10500842Y-16546322D02*
X10491318Y-16555846D01*
X10491318Y-16555846D02*
X10481794Y-16546322D01*
X10481794Y-16546322D02*
X10491318Y-16536798D01*
X10491318Y-16536798D02*
X10491318Y-16555846D01*
X10624651Y-16355846D02*
X10643699Y-16355846D01*
X10643699Y-16355846D02*
X10662746Y-16365370D01*
X10662746Y-16365370D02*
X10672270Y-16374894D01*
X10672270Y-16374894D02*
X10681794Y-16393941D01*
X10681794Y-16393941D02*
X10691318Y-16432036D01*
X10691318Y-16432036D02*
X10691318Y-16479656D01*
X10691318Y-16479656D02*
X10681794Y-16517751D01*
X10681794Y-16517751D02*
X10672270Y-16536798D01*
X10672270Y-16536798D02*
X10662746Y-16546322D01*
X10662746Y-16546322D02*
X10643699Y-16555846D01*
X10643699Y-16555846D02*
X10624651Y-16555846D01*
X10624651Y-16555846D02*
X10605603Y-16546322D01*
X10605603Y-16546322D02*
X10596080Y-16536798D01*
X10596080Y-16536798D02*
X10586556Y-16517751D01*
X10586556Y-16517751D02*
X10577032Y-16479656D01*
X10577032Y-16479656D02*
X10577032Y-16432036D01*
X10577032Y-16432036D02*
X10586556Y-16393941D01*
X10586556Y-16393941D02*
X10596080Y-16374894D01*
X10596080Y-16374894D02*
X10605603Y-16365370D01*
X10605603Y-16365370D02*
X10624651Y-16355846D01*
X10757984Y-16355846D02*
X10881794Y-16355846D01*
X10881794Y-16355846D02*
X10815127Y-16432036D01*
X10815127Y-16432036D02*
X10843699Y-16432036D01*
X10843699Y-16432036D02*
X10862746Y-16441560D01*
X10862746Y-16441560D02*
X10872270Y-16451084D01*
X10872270Y-16451084D02*
X10881794Y-16470132D01*
X10881794Y-16470132D02*
X10881794Y-16517751D01*
X10881794Y-16517751D02*
X10872270Y-16536798D01*
X10872270Y-16536798D02*
X10862746Y-16546322D01*
X10862746Y-16546322D02*
X10843699Y-16555846D01*
X10843699Y-16555846D02*
X10786556Y-16555846D01*
X10786556Y-16555846D02*
X10767508Y-16546322D01*
X10767508Y-16546322D02*
X10757984Y-16536798D01*
X10957984Y-16374894D02*
X10967508Y-16365370D01*
X10967508Y-16365370D02*
X10986556Y-16355846D01*
X10986556Y-16355846D02*
X11034175Y-16355846D01*
X11034175Y-16355846D02*
X11053223Y-16365370D01*
X11053223Y-16365370D02*
X11062746Y-16374894D01*
X11062746Y-16374894D02*
X11072270Y-16393941D01*
X11072270Y-16393941D02*
X11072270Y-16412989D01*
X11072270Y-16412989D02*
X11062746Y-16441560D01*
X11062746Y-16441560D02*
X10948461Y-16555846D01*
X10948461Y-16555846D02*
X11072270Y-16555846D01*
X11196080Y-16355846D02*
X11215127Y-16355846D01*
X11215127Y-16355846D02*
X11234175Y-16365370D01*
X11234175Y-16365370D02*
X11243699Y-16374894D01*
X11243699Y-16374894D02*
X11253222Y-16393941D01*
X11253222Y-16393941D02*
X11262746Y-16432036D01*
X11262746Y-16432036D02*
X11262746Y-16479656D01*
X11262746Y-16479656D02*
X11253222Y-16517751D01*
X11253222Y-16517751D02*
X11243699Y-16536798D01*
X11243699Y-16536798D02*
X11234175Y-16546322D01*
X11234175Y-16546322D02*
X11215127Y-16555846D01*
X11215127Y-16555846D02*
X11196080Y-16555846D01*
X11196080Y-16555846D02*
X11177032Y-16546322D01*
X11177032Y-16546322D02*
X11167508Y-16536798D01*
X11167508Y-16536798D02*
X11157984Y-16517751D01*
X11157984Y-16517751D02*
X11148461Y-16479656D01*
X11148461Y-16479656D02*
X11148461Y-16432036D01*
X11148461Y-16432036D02*
X11157984Y-16393941D01*
X11157984Y-16393941D02*
X11167508Y-16374894D01*
X11167508Y-16374894D02*
X11177032Y-16365370D01*
X11177032Y-16365370D02*
X11196080Y-16355846D01*
X11338937Y-16355846D02*
X11338937Y-16393941D01*
X11415127Y-16355846D02*
X11415127Y-16393941D01*
X11710365Y-16632036D02*
X11700842Y-16622513D01*
X11700842Y-16622513D02*
X11681794Y-16593941D01*
X11681794Y-16593941D02*
X11672270Y-16574894D01*
X11672270Y-16574894D02*
X11662746Y-16546322D01*
X11662746Y-16546322D02*
X11653223Y-16498703D01*
X11653223Y-16498703D02*
X11653223Y-16460608D01*
X11653223Y-16460608D02*
X11662746Y-16412989D01*
X11662746Y-16412989D02*
X11672270Y-16384417D01*
X11672270Y-16384417D02*
X11681794Y-16365370D01*
X11681794Y-16365370D02*
X11700842Y-16336798D01*
X11700842Y-16336798D02*
X11710365Y-16327275D01*
X11777032Y-16374894D02*
X11786556Y-16365370D01*
X11786556Y-16365370D02*
X11805603Y-16355846D01*
X11805603Y-16355846D02*
X11853223Y-16355846D01*
X11853223Y-16355846D02*
X11872270Y-16365370D01*
X11872270Y-16365370D02*
X11881794Y-16374894D01*
X11881794Y-16374894D02*
X11891318Y-16393941D01*
X11891318Y-16393941D02*
X11891318Y-16412989D01*
X11891318Y-16412989D02*
X11881794Y-16441560D01*
X11881794Y-16441560D02*
X11767508Y-16555846D01*
X11767508Y-16555846D02*
X11891318Y-16555846D01*
X12062746Y-16422513D02*
X12062746Y-16555846D01*
X12015127Y-16346322D02*
X11967508Y-16489179D01*
X11967508Y-16489179D02*
X12091318Y-16489179D01*
X12319889Y-16555846D02*
X12319889Y-16355846D01*
X12405604Y-16555846D02*
X12405604Y-16451084D01*
X12405604Y-16451084D02*
X12396080Y-16432036D01*
X12396080Y-16432036D02*
X12377032Y-16422513D01*
X12377032Y-16422513D02*
X12348461Y-16422513D01*
X12348461Y-16422513D02*
X12329413Y-16432036D01*
X12329413Y-16432036D02*
X12319889Y-16441560D01*
X12529413Y-16555846D02*
X12510365Y-16546322D01*
X12510365Y-16546322D02*
X12500842Y-16536798D01*
X12500842Y-16536798D02*
X12491318Y-16517751D01*
X12491318Y-16517751D02*
X12491318Y-16460608D01*
X12491318Y-16460608D02*
X12500842Y-16441560D01*
X12500842Y-16441560D02*
X12510365Y-16432036D01*
X12510365Y-16432036D02*
X12529413Y-16422513D01*
X12529413Y-16422513D02*
X12557985Y-16422513D01*
X12557985Y-16422513D02*
X12577032Y-16432036D01*
X12577032Y-16432036D02*
X12586556Y-16441560D01*
X12586556Y-16441560D02*
X12596080Y-16460608D01*
X12596080Y-16460608D02*
X12596080Y-16517751D01*
X12596080Y-16517751D02*
X12586556Y-16536798D01*
X12586556Y-16536798D02*
X12577032Y-16546322D01*
X12577032Y-16546322D02*
X12557985Y-16555846D01*
X12557985Y-16555846D02*
X12529413Y-16555846D01*
X12710365Y-16555846D02*
X12691318Y-16546322D01*
X12691318Y-16546322D02*
X12681794Y-16527275D01*
X12681794Y-16527275D02*
X12681794Y-16355846D01*
X12862746Y-16546322D02*
X12843699Y-16555846D01*
X12843699Y-16555846D02*
X12805604Y-16555846D01*
X12805604Y-16555846D02*
X12786556Y-16546322D01*
X12786556Y-16546322D02*
X12777032Y-16527275D01*
X12777032Y-16527275D02*
X12777032Y-16451084D01*
X12777032Y-16451084D02*
X12786556Y-16432036D01*
X12786556Y-16432036D02*
X12805604Y-16422513D01*
X12805604Y-16422513D02*
X12843699Y-16422513D01*
X12843699Y-16422513D02*
X12862746Y-16432036D01*
X12862746Y-16432036D02*
X12872270Y-16451084D01*
X12872270Y-16451084D02*
X12872270Y-16470132D01*
X12872270Y-16470132D02*
X12777032Y-16489179D01*
X12948461Y-16546322D02*
X12967508Y-16555846D01*
X12967508Y-16555846D02*
X13005604Y-16555846D01*
X13005604Y-16555846D02*
X13024651Y-16546322D01*
X13024651Y-16546322D02*
X13034175Y-16527275D01*
X13034175Y-16527275D02*
X13034175Y-16517751D01*
X13034175Y-16517751D02*
X13024651Y-16498703D01*
X13024651Y-16498703D02*
X13005604Y-16489179D01*
X13005604Y-16489179D02*
X12977032Y-16489179D01*
X12977032Y-16489179D02*
X12957985Y-16479656D01*
X12957985Y-16479656D02*
X12948461Y-16460608D01*
X12948461Y-16460608D02*
X12948461Y-16451084D01*
X12948461Y-16451084D02*
X12957985Y-16432036D01*
X12957985Y-16432036D02*
X12977032Y-16422513D01*
X12977032Y-16422513D02*
X13005604Y-16422513D01*
X13005604Y-16422513D02*
X13024651Y-16432036D01*
X13100842Y-16632036D02*
X13110366Y-16622513D01*
X13110366Y-16622513D02*
X13129413Y-16593941D01*
X13129413Y-16593941D02*
X13138937Y-16574894D01*
X13138937Y-16574894D02*
X13148461Y-16546322D01*
X13148461Y-16546322D02*
X13157985Y-16498703D01*
X13157985Y-16498703D02*
X13157985Y-16460608D01*
X13157985Y-16460608D02*
X13148461Y-16412989D01*
X13148461Y-16412989D02*
X13138937Y-16384417D01*
X13138937Y-16384417D02*
X13129413Y-16365370D01*
X13129413Y-16365370D02*
X13110366Y-16336798D01*
X13110366Y-16336798D02*
X13100842Y-16327275D01*
D10*
X8090303Y-16773362D02*
X8135303Y-16728362D01*
X8090303Y-16683362D01*
X8045303Y-16728362D01*
X8090303Y-16773362D01*
D13*
X8434175Y-16619846D02*
X8453222Y-16619846D01*
X8453222Y-16619846D02*
X8472270Y-16629370D01*
X8472270Y-16629370D02*
X8481794Y-16638894D01*
X8481794Y-16638894D02*
X8491318Y-16657941D01*
X8491318Y-16657941D02*
X8500841Y-16696036D01*
X8500841Y-16696036D02*
X8500841Y-16743656D01*
X8500841Y-16743656D02*
X8491318Y-16781751D01*
X8491318Y-16781751D02*
X8481794Y-16800798D01*
X8481794Y-16800798D02*
X8472270Y-16810322D01*
X8472270Y-16810322D02*
X8453222Y-16819846D01*
X8453222Y-16819846D02*
X8434175Y-16819846D01*
X8434175Y-16819846D02*
X8415127Y-16810322D01*
X8415127Y-16810322D02*
X8405603Y-16800798D01*
X8405603Y-16800798D02*
X8396079Y-16781751D01*
X8396079Y-16781751D02*
X8386556Y-16743656D01*
X8386556Y-16743656D02*
X8386556Y-16696036D01*
X8386556Y-16696036D02*
X8396079Y-16657941D01*
X8396079Y-16657941D02*
X8405603Y-16638894D01*
X8405603Y-16638894D02*
X8415127Y-16629370D01*
X8415127Y-16629370D02*
X8434175Y-16619846D01*
X8586556Y-16800798D02*
X8596079Y-16810322D01*
X8596079Y-16810322D02*
X8586556Y-16819846D01*
X8586556Y-16819846D02*
X8577032Y-16810322D01*
X8577032Y-16810322D02*
X8586556Y-16800798D01*
X8586556Y-16800798D02*
X8586556Y-16819846D01*
X8691318Y-16819846D02*
X8729413Y-16819846D01*
X8729413Y-16819846D02*
X8748460Y-16810322D01*
X8748460Y-16810322D02*
X8757984Y-16800798D01*
X8757984Y-16800798D02*
X8777032Y-16772227D01*
X8777032Y-16772227D02*
X8786556Y-16734132D01*
X8786556Y-16734132D02*
X8786556Y-16657941D01*
X8786556Y-16657941D02*
X8777032Y-16638894D01*
X8777032Y-16638894D02*
X8767508Y-16629370D01*
X8767508Y-16629370D02*
X8748460Y-16619846D01*
X8748460Y-16619846D02*
X8710365Y-16619846D01*
X8710365Y-16619846D02*
X8691318Y-16629370D01*
X8691318Y-16629370D02*
X8681794Y-16638894D01*
X8681794Y-16638894D02*
X8672270Y-16657941D01*
X8672270Y-16657941D02*
X8672270Y-16705560D01*
X8672270Y-16705560D02*
X8681794Y-16724608D01*
X8681794Y-16724608D02*
X8691318Y-16734132D01*
X8691318Y-16734132D02*
X8710365Y-16743656D01*
X8710365Y-16743656D02*
X8748460Y-16743656D01*
X8748460Y-16743656D02*
X8767508Y-16734132D01*
X8767508Y-16734132D02*
X8777032Y-16724608D01*
X8777032Y-16724608D02*
X8786556Y-16705560D01*
X8910365Y-16619846D02*
X8929413Y-16619846D01*
X8929413Y-16619846D02*
X8948460Y-16629370D01*
X8948460Y-16629370D02*
X8957984Y-16638894D01*
X8957984Y-16638894D02*
X8967508Y-16657941D01*
X8967508Y-16657941D02*
X8977032Y-16696036D01*
X8977032Y-16696036D02*
X8977032Y-16743656D01*
X8977032Y-16743656D02*
X8967508Y-16781751D01*
X8967508Y-16781751D02*
X8957984Y-16800798D01*
X8957984Y-16800798D02*
X8948460Y-16810322D01*
X8948460Y-16810322D02*
X8929413Y-16819846D01*
X8929413Y-16819846D02*
X8910365Y-16819846D01*
X8910365Y-16819846D02*
X8891318Y-16810322D01*
X8891318Y-16810322D02*
X8881794Y-16800798D01*
X8881794Y-16800798D02*
X8872270Y-16781751D01*
X8872270Y-16781751D02*
X8862746Y-16743656D01*
X8862746Y-16743656D02*
X8862746Y-16696036D01*
X8862746Y-16696036D02*
X8872270Y-16657941D01*
X8872270Y-16657941D02*
X8881794Y-16638894D01*
X8881794Y-16638894D02*
X8891318Y-16629370D01*
X8891318Y-16629370D02*
X8910365Y-16619846D01*
X9100841Y-16619846D02*
X9119889Y-16619846D01*
X9119889Y-16619846D02*
X9138937Y-16629370D01*
X9138937Y-16629370D02*
X9148460Y-16638894D01*
X9148460Y-16638894D02*
X9157984Y-16657941D01*
X9157984Y-16657941D02*
X9167508Y-16696036D01*
X9167508Y-16696036D02*
X9167508Y-16743656D01*
X9167508Y-16743656D02*
X9157984Y-16781751D01*
X9157984Y-16781751D02*
X9148460Y-16800798D01*
X9148460Y-16800798D02*
X9138937Y-16810322D01*
X9138937Y-16810322D02*
X9119889Y-16819846D01*
X9119889Y-16819846D02*
X9100841Y-16819846D01*
X9100841Y-16819846D02*
X9081794Y-16810322D01*
X9081794Y-16810322D02*
X9072270Y-16800798D01*
X9072270Y-16800798D02*
X9062746Y-16781751D01*
X9062746Y-16781751D02*
X9053222Y-16743656D01*
X9053222Y-16743656D02*
X9053222Y-16696036D01*
X9053222Y-16696036D02*
X9062746Y-16657941D01*
X9062746Y-16657941D02*
X9072270Y-16638894D01*
X9072270Y-16638894D02*
X9081794Y-16629370D01*
X9081794Y-16629370D02*
X9100841Y-16619846D01*
X9253222Y-16819846D02*
X9253222Y-16686513D01*
X9253222Y-16705560D02*
X9262746Y-16696036D01*
X9262746Y-16696036D02*
X9281794Y-16686513D01*
X9281794Y-16686513D02*
X9310365Y-16686513D01*
X9310365Y-16686513D02*
X9329413Y-16696036D01*
X9329413Y-16696036D02*
X9338937Y-16715084D01*
X9338937Y-16715084D02*
X9338937Y-16819846D01*
X9338937Y-16715084D02*
X9348460Y-16696036D01*
X9348460Y-16696036D02*
X9367508Y-16686513D01*
X9367508Y-16686513D02*
X9396079Y-16686513D01*
X9396079Y-16686513D02*
X9415127Y-16696036D01*
X9415127Y-16696036D02*
X9424651Y-16715084D01*
X9424651Y-16715084D02*
X9424651Y-16819846D01*
X9519889Y-16819846D02*
X9519889Y-16686513D01*
X9519889Y-16705560D02*
X9529413Y-16696036D01*
X9529413Y-16696036D02*
X9548460Y-16686513D01*
X9548460Y-16686513D02*
X9577032Y-16686513D01*
X9577032Y-16686513D02*
X9596080Y-16696036D01*
X9596080Y-16696036D02*
X9605603Y-16715084D01*
X9605603Y-16715084D02*
X9605603Y-16819846D01*
X9605603Y-16715084D02*
X9615127Y-16696036D01*
X9615127Y-16696036D02*
X9634175Y-16686513D01*
X9634175Y-16686513D02*
X9662746Y-16686513D01*
X9662746Y-16686513D02*
X9681794Y-16696036D01*
X9681794Y-16696036D02*
X9691318Y-16715084D01*
X9691318Y-16715084D02*
X9691318Y-16819846D01*
X10081794Y-16610322D02*
X9910365Y-16867465D01*
X10338937Y-16619846D02*
X10357984Y-16619846D01*
X10357984Y-16619846D02*
X10377032Y-16629370D01*
X10377032Y-16629370D02*
X10386556Y-16638894D01*
X10386556Y-16638894D02*
X10396080Y-16657941D01*
X10396080Y-16657941D02*
X10405603Y-16696036D01*
X10405603Y-16696036D02*
X10405603Y-16743656D01*
X10405603Y-16743656D02*
X10396080Y-16781751D01*
X10396080Y-16781751D02*
X10386556Y-16800798D01*
X10386556Y-16800798D02*
X10377032Y-16810322D01*
X10377032Y-16810322D02*
X10357984Y-16819846D01*
X10357984Y-16819846D02*
X10338937Y-16819846D01*
X10338937Y-16819846D02*
X10319889Y-16810322D01*
X10319889Y-16810322D02*
X10310365Y-16800798D01*
X10310365Y-16800798D02*
X10300842Y-16781751D01*
X10300842Y-16781751D02*
X10291318Y-16743656D01*
X10291318Y-16743656D02*
X10291318Y-16696036D01*
X10291318Y-16696036D02*
X10300842Y-16657941D01*
X10300842Y-16657941D02*
X10310365Y-16638894D01*
X10310365Y-16638894D02*
X10319889Y-16629370D01*
X10319889Y-16629370D02*
X10338937Y-16619846D01*
X10491318Y-16800798D02*
X10500842Y-16810322D01*
X10500842Y-16810322D02*
X10491318Y-16819846D01*
X10491318Y-16819846D02*
X10481794Y-16810322D01*
X10481794Y-16810322D02*
X10491318Y-16800798D01*
X10491318Y-16800798D02*
X10491318Y-16819846D01*
X10624651Y-16619846D02*
X10643699Y-16619846D01*
X10643699Y-16619846D02*
X10662746Y-16629370D01*
X10662746Y-16629370D02*
X10672270Y-16638894D01*
X10672270Y-16638894D02*
X10681794Y-16657941D01*
X10681794Y-16657941D02*
X10691318Y-16696036D01*
X10691318Y-16696036D02*
X10691318Y-16743656D01*
X10691318Y-16743656D02*
X10681794Y-16781751D01*
X10681794Y-16781751D02*
X10672270Y-16800798D01*
X10672270Y-16800798D02*
X10662746Y-16810322D01*
X10662746Y-16810322D02*
X10643699Y-16819846D01*
X10643699Y-16819846D02*
X10624651Y-16819846D01*
X10624651Y-16819846D02*
X10605603Y-16810322D01*
X10605603Y-16810322D02*
X10596080Y-16800798D01*
X10596080Y-16800798D02*
X10586556Y-16781751D01*
X10586556Y-16781751D02*
X10577032Y-16743656D01*
X10577032Y-16743656D02*
X10577032Y-16696036D01*
X10577032Y-16696036D02*
X10586556Y-16657941D01*
X10586556Y-16657941D02*
X10596080Y-16638894D01*
X10596080Y-16638894D02*
X10605603Y-16629370D01*
X10605603Y-16629370D02*
X10624651Y-16619846D01*
X10757984Y-16619846D02*
X10881794Y-16619846D01*
X10881794Y-16619846D02*
X10815127Y-16696036D01*
X10815127Y-16696036D02*
X10843699Y-16696036D01*
X10843699Y-16696036D02*
X10862746Y-16705560D01*
X10862746Y-16705560D02*
X10872270Y-16715084D01*
X10872270Y-16715084D02*
X10881794Y-16734132D01*
X10881794Y-16734132D02*
X10881794Y-16781751D01*
X10881794Y-16781751D02*
X10872270Y-16800798D01*
X10872270Y-16800798D02*
X10862746Y-16810322D01*
X10862746Y-16810322D02*
X10843699Y-16819846D01*
X10843699Y-16819846D02*
X10786556Y-16819846D01*
X10786556Y-16819846D02*
X10767508Y-16810322D01*
X10767508Y-16810322D02*
X10757984Y-16800798D01*
X11062746Y-16619846D02*
X10967508Y-16619846D01*
X10967508Y-16619846D02*
X10957984Y-16715084D01*
X10957984Y-16715084D02*
X10967508Y-16705560D01*
X10967508Y-16705560D02*
X10986556Y-16696036D01*
X10986556Y-16696036D02*
X11034175Y-16696036D01*
X11034175Y-16696036D02*
X11053223Y-16705560D01*
X11053223Y-16705560D02*
X11062746Y-16715084D01*
X11062746Y-16715084D02*
X11072270Y-16734132D01*
X11072270Y-16734132D02*
X11072270Y-16781751D01*
X11072270Y-16781751D02*
X11062746Y-16800798D01*
X11062746Y-16800798D02*
X11053223Y-16810322D01*
X11053223Y-16810322D02*
X11034175Y-16819846D01*
X11034175Y-16819846D02*
X10986556Y-16819846D01*
X10986556Y-16819846D02*
X10967508Y-16810322D01*
X10967508Y-16810322D02*
X10957984Y-16800798D01*
X11243699Y-16686513D02*
X11243699Y-16819846D01*
X11196080Y-16610322D02*
X11148461Y-16753179D01*
X11148461Y-16753179D02*
X11272270Y-16753179D01*
X11338937Y-16619846D02*
X11338937Y-16657941D01*
X11415127Y-16619846D02*
X11415127Y-16657941D01*
X11710365Y-16896037D02*
X11700842Y-16886513D01*
X11700842Y-16886513D02*
X11681794Y-16857941D01*
X11681794Y-16857941D02*
X11672270Y-16838894D01*
X11672270Y-16838894D02*
X11662746Y-16810322D01*
X11662746Y-16810322D02*
X11653223Y-16762703D01*
X11653223Y-16762703D02*
X11653223Y-16724608D01*
X11653223Y-16724608D02*
X11662746Y-16676989D01*
X11662746Y-16676989D02*
X11672270Y-16648417D01*
X11672270Y-16648417D02*
X11681794Y-16629370D01*
X11681794Y-16629370D02*
X11700842Y-16600798D01*
X11700842Y-16600798D02*
X11710365Y-16591275D01*
X11872270Y-16619846D02*
X11834175Y-16619846D01*
X11834175Y-16619846D02*
X11815127Y-16629370D01*
X11815127Y-16629370D02*
X11805603Y-16638894D01*
X11805603Y-16638894D02*
X11786556Y-16667465D01*
X11786556Y-16667465D02*
X11777032Y-16705560D01*
X11777032Y-16705560D02*
X11777032Y-16781751D01*
X11777032Y-16781751D02*
X11786556Y-16800798D01*
X11786556Y-16800798D02*
X11796080Y-16810322D01*
X11796080Y-16810322D02*
X11815127Y-16819846D01*
X11815127Y-16819846D02*
X11853223Y-16819846D01*
X11853223Y-16819846D02*
X11872270Y-16810322D01*
X11872270Y-16810322D02*
X11881794Y-16800798D01*
X11881794Y-16800798D02*
X11891318Y-16781751D01*
X11891318Y-16781751D02*
X11891318Y-16734132D01*
X11891318Y-16734132D02*
X11881794Y-16715084D01*
X11881794Y-16715084D02*
X11872270Y-16705560D01*
X11872270Y-16705560D02*
X11853223Y-16696036D01*
X11853223Y-16696036D02*
X11815127Y-16696036D01*
X11815127Y-16696036D02*
X11796080Y-16705560D01*
X11796080Y-16705560D02*
X11786556Y-16715084D01*
X11786556Y-16715084D02*
X11777032Y-16734132D01*
X11967508Y-16638894D02*
X11977032Y-16629370D01*
X11977032Y-16629370D02*
X11996080Y-16619846D01*
X11996080Y-16619846D02*
X12043699Y-16619846D01*
X12043699Y-16619846D02*
X12062746Y-16629370D01*
X12062746Y-16629370D02*
X12072270Y-16638894D01*
X12072270Y-16638894D02*
X12081794Y-16657941D01*
X12081794Y-16657941D02*
X12081794Y-16676989D01*
X12081794Y-16676989D02*
X12072270Y-16705560D01*
X12072270Y-16705560D02*
X11957984Y-16819846D01*
X11957984Y-16819846D02*
X12081794Y-16819846D01*
X12319889Y-16819846D02*
X12319889Y-16619846D01*
X12405604Y-16819846D02*
X12405604Y-16715084D01*
X12405604Y-16715084D02*
X12396080Y-16696036D01*
X12396080Y-16696036D02*
X12377032Y-16686513D01*
X12377032Y-16686513D02*
X12348461Y-16686513D01*
X12348461Y-16686513D02*
X12329413Y-16696036D01*
X12329413Y-16696036D02*
X12319889Y-16705560D01*
X12529413Y-16819846D02*
X12510365Y-16810322D01*
X12510365Y-16810322D02*
X12500842Y-16800798D01*
X12500842Y-16800798D02*
X12491318Y-16781751D01*
X12491318Y-16781751D02*
X12491318Y-16724608D01*
X12491318Y-16724608D02*
X12500842Y-16705560D01*
X12500842Y-16705560D02*
X12510365Y-16696036D01*
X12510365Y-16696036D02*
X12529413Y-16686513D01*
X12529413Y-16686513D02*
X12557985Y-16686513D01*
X12557985Y-16686513D02*
X12577032Y-16696036D01*
X12577032Y-16696036D02*
X12586556Y-16705560D01*
X12586556Y-16705560D02*
X12596080Y-16724608D01*
X12596080Y-16724608D02*
X12596080Y-16781751D01*
X12596080Y-16781751D02*
X12586556Y-16800798D01*
X12586556Y-16800798D02*
X12577032Y-16810322D01*
X12577032Y-16810322D02*
X12557985Y-16819846D01*
X12557985Y-16819846D02*
X12529413Y-16819846D01*
X12710365Y-16819846D02*
X12691318Y-16810322D01*
X12691318Y-16810322D02*
X12681794Y-16791275D01*
X12681794Y-16791275D02*
X12681794Y-16619846D01*
X12862746Y-16810322D02*
X12843699Y-16819846D01*
X12843699Y-16819846D02*
X12805604Y-16819846D01*
X12805604Y-16819846D02*
X12786556Y-16810322D01*
X12786556Y-16810322D02*
X12777032Y-16791275D01*
X12777032Y-16791275D02*
X12777032Y-16715084D01*
X12777032Y-16715084D02*
X12786556Y-16696036D01*
X12786556Y-16696036D02*
X12805604Y-16686513D01*
X12805604Y-16686513D02*
X12843699Y-16686513D01*
X12843699Y-16686513D02*
X12862746Y-16696036D01*
X12862746Y-16696036D02*
X12872270Y-16715084D01*
X12872270Y-16715084D02*
X12872270Y-16734132D01*
X12872270Y-16734132D02*
X12777032Y-16753179D01*
X12948461Y-16810322D02*
X12967508Y-16819846D01*
X12967508Y-16819846D02*
X13005604Y-16819846D01*
X13005604Y-16819846D02*
X13024651Y-16810322D01*
X13024651Y-16810322D02*
X13034175Y-16791275D01*
X13034175Y-16791275D02*
X13034175Y-16781751D01*
X13034175Y-16781751D02*
X13024651Y-16762703D01*
X13024651Y-16762703D02*
X13005604Y-16753179D01*
X13005604Y-16753179D02*
X12977032Y-16753179D01*
X12977032Y-16753179D02*
X12957985Y-16743656D01*
X12957985Y-16743656D02*
X12948461Y-16724608D01*
X12948461Y-16724608D02*
X12948461Y-16715084D01*
X12948461Y-16715084D02*
X12957985Y-16696036D01*
X12957985Y-16696036D02*
X12977032Y-16686513D01*
X12977032Y-16686513D02*
X13005604Y-16686513D01*
X13005604Y-16686513D02*
X13024651Y-16696036D01*
X13100842Y-16896037D02*
X13110366Y-16886513D01*
X13110366Y-16886513D02*
X13129413Y-16857941D01*
X13129413Y-16857941D02*
X13138937Y-16838894D01*
X13138937Y-16838894D02*
X13148461Y-16810322D01*
X13148461Y-16810322D02*
X13157985Y-16762703D01*
X13157985Y-16762703D02*
X13157985Y-16724608D01*
X13157985Y-16724608D02*
X13148461Y-16676989D01*
X13148461Y-16676989D02*
X13138937Y-16648417D01*
X13138937Y-16648417D02*
X13129413Y-16629370D01*
X13129413Y-16629370D02*
X13110366Y-16600798D01*
X13110366Y-16600798D02*
X13100842Y-16591275D01*
D10*
X8035303Y-16942362D02*
X8135303Y-17042362D01*
X8135303Y-16942362D02*
X8035303Y-17042362D01*
X8135303Y-16992362D02*
G75*
G03*
X8035303Y-16992362I-50000J0D01*
G01*
X8035303Y-16992362D02*
G75*
G03*
X8135303Y-16992362I50000J0D01*
G01*
D13*
X8500841Y-17083846D02*
X8386556Y-17083846D01*
X8443698Y-17083846D02*
X8443698Y-16883846D01*
X8443698Y-16883846D02*
X8424651Y-16912418D01*
X8424651Y-16912418D02*
X8405603Y-16931465D01*
X8405603Y-16931465D02*
X8386556Y-16940989D01*
X8586556Y-17064798D02*
X8596079Y-17074322D01*
X8596079Y-17074322D02*
X8586556Y-17083846D01*
X8586556Y-17083846D02*
X8577032Y-17074322D01*
X8577032Y-17074322D02*
X8586556Y-17064798D01*
X8586556Y-17064798D02*
X8586556Y-17083846D01*
X8719889Y-16883846D02*
X8738937Y-16883846D01*
X8738937Y-16883846D02*
X8757984Y-16893370D01*
X8757984Y-16893370D02*
X8767508Y-16902894D01*
X8767508Y-16902894D02*
X8777032Y-16921941D01*
X8777032Y-16921941D02*
X8786556Y-16960037D01*
X8786556Y-16960037D02*
X8786556Y-17007656D01*
X8786556Y-17007656D02*
X8777032Y-17045751D01*
X8777032Y-17045751D02*
X8767508Y-17064798D01*
X8767508Y-17064798D02*
X8757984Y-17074322D01*
X8757984Y-17074322D02*
X8738937Y-17083846D01*
X8738937Y-17083846D02*
X8719889Y-17083846D01*
X8719889Y-17083846D02*
X8700841Y-17074322D01*
X8700841Y-17074322D02*
X8691318Y-17064798D01*
X8691318Y-17064798D02*
X8681794Y-17045751D01*
X8681794Y-17045751D02*
X8672270Y-17007656D01*
X8672270Y-17007656D02*
X8672270Y-16960037D01*
X8672270Y-16960037D02*
X8681794Y-16921941D01*
X8681794Y-16921941D02*
X8691318Y-16902894D01*
X8691318Y-16902894D02*
X8700841Y-16893370D01*
X8700841Y-16893370D02*
X8719889Y-16883846D01*
X8910365Y-16883846D02*
X8929413Y-16883846D01*
X8929413Y-16883846D02*
X8948460Y-16893370D01*
X8948460Y-16893370D02*
X8957984Y-16902894D01*
X8957984Y-16902894D02*
X8967508Y-16921941D01*
X8967508Y-16921941D02*
X8977032Y-16960037D01*
X8977032Y-16960037D02*
X8977032Y-17007656D01*
X8977032Y-17007656D02*
X8967508Y-17045751D01*
X8967508Y-17045751D02*
X8957984Y-17064798D01*
X8957984Y-17064798D02*
X8948460Y-17074322D01*
X8948460Y-17074322D02*
X8929413Y-17083846D01*
X8929413Y-17083846D02*
X8910365Y-17083846D01*
X8910365Y-17083846D02*
X8891318Y-17074322D01*
X8891318Y-17074322D02*
X8881794Y-17064798D01*
X8881794Y-17064798D02*
X8872270Y-17045751D01*
X8872270Y-17045751D02*
X8862746Y-17007656D01*
X8862746Y-17007656D02*
X8862746Y-16960037D01*
X8862746Y-16960037D02*
X8872270Y-16921941D01*
X8872270Y-16921941D02*
X8881794Y-16902894D01*
X8881794Y-16902894D02*
X8891318Y-16893370D01*
X8891318Y-16893370D02*
X8910365Y-16883846D01*
X9100841Y-16883846D02*
X9119889Y-16883846D01*
X9119889Y-16883846D02*
X9138937Y-16893370D01*
X9138937Y-16893370D02*
X9148460Y-16902894D01*
X9148460Y-16902894D02*
X9157984Y-16921941D01*
X9157984Y-16921941D02*
X9167508Y-16960037D01*
X9167508Y-16960037D02*
X9167508Y-17007656D01*
X9167508Y-17007656D02*
X9157984Y-17045751D01*
X9157984Y-17045751D02*
X9148460Y-17064798D01*
X9148460Y-17064798D02*
X9138937Y-17074322D01*
X9138937Y-17074322D02*
X9119889Y-17083846D01*
X9119889Y-17083846D02*
X9100841Y-17083846D01*
X9100841Y-17083846D02*
X9081794Y-17074322D01*
X9081794Y-17074322D02*
X9072270Y-17064798D01*
X9072270Y-17064798D02*
X9062746Y-17045751D01*
X9062746Y-17045751D02*
X9053222Y-17007656D01*
X9053222Y-17007656D02*
X9053222Y-16960037D01*
X9053222Y-16960037D02*
X9062746Y-16921941D01*
X9062746Y-16921941D02*
X9072270Y-16902894D01*
X9072270Y-16902894D02*
X9081794Y-16893370D01*
X9081794Y-16893370D02*
X9100841Y-16883846D01*
X9253222Y-17083846D02*
X9253222Y-16950513D01*
X9253222Y-16969560D02*
X9262746Y-16960037D01*
X9262746Y-16960037D02*
X9281794Y-16950513D01*
X9281794Y-16950513D02*
X9310365Y-16950513D01*
X9310365Y-16950513D02*
X9329413Y-16960037D01*
X9329413Y-16960037D02*
X9338937Y-16979084D01*
X9338937Y-16979084D02*
X9338937Y-17083846D01*
X9338937Y-16979084D02*
X9348460Y-16960037D01*
X9348460Y-16960037D02*
X9367508Y-16950513D01*
X9367508Y-16950513D02*
X9396079Y-16950513D01*
X9396079Y-16950513D02*
X9415127Y-16960037D01*
X9415127Y-16960037D02*
X9424651Y-16979084D01*
X9424651Y-16979084D02*
X9424651Y-17083846D01*
X9519889Y-17083846D02*
X9519889Y-16950513D01*
X9519889Y-16969560D02*
X9529413Y-16960037D01*
X9529413Y-16960037D02*
X9548460Y-16950513D01*
X9548460Y-16950513D02*
X9577032Y-16950513D01*
X9577032Y-16950513D02*
X9596080Y-16960037D01*
X9596080Y-16960037D02*
X9605603Y-16979084D01*
X9605603Y-16979084D02*
X9605603Y-17083846D01*
X9605603Y-16979084D02*
X9615127Y-16960037D01*
X9615127Y-16960037D02*
X9634175Y-16950513D01*
X9634175Y-16950513D02*
X9662746Y-16950513D01*
X9662746Y-16950513D02*
X9681794Y-16960037D01*
X9681794Y-16960037D02*
X9691318Y-16979084D01*
X9691318Y-16979084D02*
X9691318Y-17083846D01*
X10081794Y-16874322D02*
X9910365Y-17131465D01*
X10338937Y-16883846D02*
X10357984Y-16883846D01*
X10357984Y-16883846D02*
X10377032Y-16893370D01*
X10377032Y-16893370D02*
X10386556Y-16902894D01*
X10386556Y-16902894D02*
X10396080Y-16921941D01*
X10396080Y-16921941D02*
X10405603Y-16960037D01*
X10405603Y-16960037D02*
X10405603Y-17007656D01*
X10405603Y-17007656D02*
X10396080Y-17045751D01*
X10396080Y-17045751D02*
X10386556Y-17064798D01*
X10386556Y-17064798D02*
X10377032Y-17074322D01*
X10377032Y-17074322D02*
X10357984Y-17083846D01*
X10357984Y-17083846D02*
X10338937Y-17083846D01*
X10338937Y-17083846D02*
X10319889Y-17074322D01*
X10319889Y-17074322D02*
X10310365Y-17064798D01*
X10310365Y-17064798D02*
X10300842Y-17045751D01*
X10300842Y-17045751D02*
X10291318Y-17007656D01*
X10291318Y-17007656D02*
X10291318Y-16960037D01*
X10291318Y-16960037D02*
X10300842Y-16921941D01*
X10300842Y-16921941D02*
X10310365Y-16902894D01*
X10310365Y-16902894D02*
X10319889Y-16893370D01*
X10319889Y-16893370D02*
X10338937Y-16883846D01*
X10491318Y-17064798D02*
X10500842Y-17074322D01*
X10500842Y-17074322D02*
X10491318Y-17083846D01*
X10491318Y-17083846D02*
X10481794Y-17074322D01*
X10481794Y-17074322D02*
X10491318Y-17064798D01*
X10491318Y-17064798D02*
X10491318Y-17083846D01*
X10624651Y-16883846D02*
X10643699Y-16883846D01*
X10643699Y-16883846D02*
X10662746Y-16893370D01*
X10662746Y-16893370D02*
X10672270Y-16902894D01*
X10672270Y-16902894D02*
X10681794Y-16921941D01*
X10681794Y-16921941D02*
X10691318Y-16960037D01*
X10691318Y-16960037D02*
X10691318Y-17007656D01*
X10691318Y-17007656D02*
X10681794Y-17045751D01*
X10681794Y-17045751D02*
X10672270Y-17064798D01*
X10672270Y-17064798D02*
X10662746Y-17074322D01*
X10662746Y-17074322D02*
X10643699Y-17083846D01*
X10643699Y-17083846D02*
X10624651Y-17083846D01*
X10624651Y-17083846D02*
X10605603Y-17074322D01*
X10605603Y-17074322D02*
X10596080Y-17064798D01*
X10596080Y-17064798D02*
X10586556Y-17045751D01*
X10586556Y-17045751D02*
X10577032Y-17007656D01*
X10577032Y-17007656D02*
X10577032Y-16960037D01*
X10577032Y-16960037D02*
X10586556Y-16921941D01*
X10586556Y-16921941D02*
X10596080Y-16902894D01*
X10596080Y-16902894D02*
X10605603Y-16893370D01*
X10605603Y-16893370D02*
X10624651Y-16883846D01*
X10757984Y-16883846D02*
X10881794Y-16883846D01*
X10881794Y-16883846D02*
X10815127Y-16960037D01*
X10815127Y-16960037D02*
X10843699Y-16960037D01*
X10843699Y-16960037D02*
X10862746Y-16969560D01*
X10862746Y-16969560D02*
X10872270Y-16979084D01*
X10872270Y-16979084D02*
X10881794Y-16998132D01*
X10881794Y-16998132D02*
X10881794Y-17045751D01*
X10881794Y-17045751D02*
X10872270Y-17064798D01*
X10872270Y-17064798D02*
X10862746Y-17074322D01*
X10862746Y-17074322D02*
X10843699Y-17083846D01*
X10843699Y-17083846D02*
X10786556Y-17083846D01*
X10786556Y-17083846D02*
X10767508Y-17074322D01*
X10767508Y-17074322D02*
X10757984Y-17064798D01*
X10977032Y-17083846D02*
X11015127Y-17083846D01*
X11015127Y-17083846D02*
X11034175Y-17074322D01*
X11034175Y-17074322D02*
X11043699Y-17064798D01*
X11043699Y-17064798D02*
X11062746Y-17036227D01*
X11062746Y-17036227D02*
X11072270Y-16998132D01*
X11072270Y-16998132D02*
X11072270Y-16921941D01*
X11072270Y-16921941D02*
X11062746Y-16902894D01*
X11062746Y-16902894D02*
X11053223Y-16893370D01*
X11053223Y-16893370D02*
X11034175Y-16883846D01*
X11034175Y-16883846D02*
X10996080Y-16883846D01*
X10996080Y-16883846D02*
X10977032Y-16893370D01*
X10977032Y-16893370D02*
X10967508Y-16902894D01*
X10967508Y-16902894D02*
X10957984Y-16921941D01*
X10957984Y-16921941D02*
X10957984Y-16969560D01*
X10957984Y-16969560D02*
X10967508Y-16988608D01*
X10967508Y-16988608D02*
X10977032Y-16998132D01*
X10977032Y-16998132D02*
X10996080Y-17007656D01*
X10996080Y-17007656D02*
X11034175Y-17007656D01*
X11034175Y-17007656D02*
X11053223Y-16998132D01*
X11053223Y-16998132D02*
X11062746Y-16988608D01*
X11062746Y-16988608D02*
X11072270Y-16969560D01*
X11243699Y-16950513D02*
X11243699Y-17083846D01*
X11196080Y-16874322D02*
X11148461Y-17017179D01*
X11148461Y-17017179D02*
X11272270Y-17017179D01*
X11338937Y-16883846D02*
X11338937Y-16921941D01*
X11415127Y-16883846D02*
X11415127Y-16921941D01*
X11710365Y-17160037D02*
X11700842Y-17150513D01*
X11700842Y-17150513D02*
X11681794Y-17121941D01*
X11681794Y-17121941D02*
X11672270Y-17102894D01*
X11672270Y-17102894D02*
X11662746Y-17074322D01*
X11662746Y-17074322D02*
X11653223Y-17026703D01*
X11653223Y-17026703D02*
X11653223Y-16988608D01*
X11653223Y-16988608D02*
X11662746Y-16940989D01*
X11662746Y-16940989D02*
X11672270Y-16912418D01*
X11672270Y-16912418D02*
X11681794Y-16893370D01*
X11681794Y-16893370D02*
X11700842Y-16864798D01*
X11700842Y-16864798D02*
X11710365Y-16855275D01*
X11777032Y-16902894D02*
X11786556Y-16893370D01*
X11786556Y-16893370D02*
X11805603Y-16883846D01*
X11805603Y-16883846D02*
X11853223Y-16883846D01*
X11853223Y-16883846D02*
X11872270Y-16893370D01*
X11872270Y-16893370D02*
X11881794Y-16902894D01*
X11881794Y-16902894D02*
X11891318Y-16921941D01*
X11891318Y-16921941D02*
X11891318Y-16940989D01*
X11891318Y-16940989D02*
X11881794Y-16969560D01*
X11881794Y-16969560D02*
X11767508Y-17083846D01*
X11767508Y-17083846D02*
X11891318Y-17083846D01*
X12015127Y-16883846D02*
X12034175Y-16883846D01*
X12034175Y-16883846D02*
X12053223Y-16893370D01*
X12053223Y-16893370D02*
X12062746Y-16902894D01*
X12062746Y-16902894D02*
X12072270Y-16921941D01*
X12072270Y-16921941D02*
X12081794Y-16960037D01*
X12081794Y-16960037D02*
X12081794Y-17007656D01*
X12081794Y-17007656D02*
X12072270Y-17045751D01*
X12072270Y-17045751D02*
X12062746Y-17064798D01*
X12062746Y-17064798D02*
X12053223Y-17074322D01*
X12053223Y-17074322D02*
X12034175Y-17083846D01*
X12034175Y-17083846D02*
X12015127Y-17083846D01*
X12015127Y-17083846D02*
X11996080Y-17074322D01*
X11996080Y-17074322D02*
X11986556Y-17064798D01*
X11986556Y-17064798D02*
X11977032Y-17045751D01*
X11977032Y-17045751D02*
X11967508Y-17007656D01*
X11967508Y-17007656D02*
X11967508Y-16960037D01*
X11967508Y-16960037D02*
X11977032Y-16921941D01*
X11977032Y-16921941D02*
X11986556Y-16902894D01*
X11986556Y-16902894D02*
X11996080Y-16893370D01*
X11996080Y-16893370D02*
X12015127Y-16883846D01*
X12319889Y-17083846D02*
X12319889Y-16883846D01*
X12405604Y-17083846D02*
X12405604Y-16979084D01*
X12405604Y-16979084D02*
X12396080Y-16960037D01*
X12396080Y-16960037D02*
X12377032Y-16950513D01*
X12377032Y-16950513D02*
X12348461Y-16950513D01*
X12348461Y-16950513D02*
X12329413Y-16960037D01*
X12329413Y-16960037D02*
X12319889Y-16969560D01*
X12529413Y-17083846D02*
X12510365Y-17074322D01*
X12510365Y-17074322D02*
X12500842Y-17064798D01*
X12500842Y-17064798D02*
X12491318Y-17045751D01*
X12491318Y-17045751D02*
X12491318Y-16988608D01*
X12491318Y-16988608D02*
X12500842Y-16969560D01*
X12500842Y-16969560D02*
X12510365Y-16960037D01*
X12510365Y-16960037D02*
X12529413Y-16950513D01*
X12529413Y-16950513D02*
X12557985Y-16950513D01*
X12557985Y-16950513D02*
X12577032Y-16960037D01*
X12577032Y-16960037D02*
X12586556Y-16969560D01*
X12586556Y-16969560D02*
X12596080Y-16988608D01*
X12596080Y-16988608D02*
X12596080Y-17045751D01*
X12596080Y-17045751D02*
X12586556Y-17064798D01*
X12586556Y-17064798D02*
X12577032Y-17074322D01*
X12577032Y-17074322D02*
X12557985Y-17083846D01*
X12557985Y-17083846D02*
X12529413Y-17083846D01*
X12710365Y-17083846D02*
X12691318Y-17074322D01*
X12691318Y-17074322D02*
X12681794Y-17055275D01*
X12681794Y-17055275D02*
X12681794Y-16883846D01*
X12862746Y-17074322D02*
X12843699Y-17083846D01*
X12843699Y-17083846D02*
X12805604Y-17083846D01*
X12805604Y-17083846D02*
X12786556Y-17074322D01*
X12786556Y-17074322D02*
X12777032Y-17055275D01*
X12777032Y-17055275D02*
X12777032Y-16979084D01*
X12777032Y-16979084D02*
X12786556Y-16960037D01*
X12786556Y-16960037D02*
X12805604Y-16950513D01*
X12805604Y-16950513D02*
X12843699Y-16950513D01*
X12843699Y-16950513D02*
X12862746Y-16960037D01*
X12862746Y-16960037D02*
X12872270Y-16979084D01*
X12872270Y-16979084D02*
X12872270Y-16998132D01*
X12872270Y-16998132D02*
X12777032Y-17017179D01*
X12948461Y-17074322D02*
X12967508Y-17083846D01*
X12967508Y-17083846D02*
X13005604Y-17083846D01*
X13005604Y-17083846D02*
X13024651Y-17074322D01*
X13024651Y-17074322D02*
X13034175Y-17055275D01*
X13034175Y-17055275D02*
X13034175Y-17045751D01*
X13034175Y-17045751D02*
X13024651Y-17026703D01*
X13024651Y-17026703D02*
X13005604Y-17017179D01*
X13005604Y-17017179D02*
X12977032Y-17017179D01*
X12977032Y-17017179D02*
X12957985Y-17007656D01*
X12957985Y-17007656D02*
X12948461Y-16988608D01*
X12948461Y-16988608D02*
X12948461Y-16979084D01*
X12948461Y-16979084D02*
X12957985Y-16960037D01*
X12957985Y-16960037D02*
X12977032Y-16950513D01*
X12977032Y-16950513D02*
X13005604Y-16950513D01*
X13005604Y-16950513D02*
X13024651Y-16960037D01*
X13272270Y-17007656D02*
X13424651Y-17007656D01*
X13348461Y-17083846D02*
X13348461Y-16931465D01*
X13700842Y-16969560D02*
X13681794Y-16960037D01*
X13681794Y-16960037D02*
X13672270Y-16950513D01*
X13672270Y-16950513D02*
X13662747Y-16931465D01*
X13662747Y-16931465D02*
X13662747Y-16921941D01*
X13662747Y-16921941D02*
X13672270Y-16902894D01*
X13672270Y-16902894D02*
X13681794Y-16893370D01*
X13681794Y-16893370D02*
X13700842Y-16883846D01*
X13700842Y-16883846D02*
X13738937Y-16883846D01*
X13738937Y-16883846D02*
X13757985Y-16893370D01*
X13757985Y-16893370D02*
X13767508Y-16902894D01*
X13767508Y-16902894D02*
X13777032Y-16921941D01*
X13777032Y-16921941D02*
X13777032Y-16931465D01*
X13777032Y-16931465D02*
X13767508Y-16950513D01*
X13767508Y-16950513D02*
X13757985Y-16960037D01*
X13757985Y-16960037D02*
X13738937Y-16969560D01*
X13738937Y-16969560D02*
X13700842Y-16969560D01*
X13700842Y-16969560D02*
X13681794Y-16979084D01*
X13681794Y-16979084D02*
X13672270Y-16988608D01*
X13672270Y-16988608D02*
X13662747Y-17007656D01*
X13662747Y-17007656D02*
X13662747Y-17045751D01*
X13662747Y-17045751D02*
X13672270Y-17064798D01*
X13672270Y-17064798D02*
X13681794Y-17074322D01*
X13681794Y-17074322D02*
X13700842Y-17083846D01*
X13700842Y-17083846D02*
X13738937Y-17083846D01*
X13738937Y-17083846D02*
X13757985Y-17074322D01*
X13757985Y-17074322D02*
X13767508Y-17064798D01*
X13767508Y-17064798D02*
X13777032Y-17045751D01*
X13777032Y-17045751D02*
X13777032Y-17007656D01*
X13777032Y-17007656D02*
X13767508Y-16988608D01*
X13767508Y-16988608D02*
X13757985Y-16979084D01*
X13757985Y-16979084D02*
X13738937Y-16969560D01*
X14005604Y-17074322D02*
X14024651Y-17083846D01*
X14024651Y-17083846D02*
X14062747Y-17083846D01*
X14062747Y-17083846D02*
X14081794Y-17074322D01*
X14081794Y-17074322D02*
X14091318Y-17055275D01*
X14091318Y-17055275D02*
X14091318Y-17045751D01*
X14091318Y-17045751D02*
X14081794Y-17026703D01*
X14081794Y-17026703D02*
X14062747Y-17017179D01*
X14062747Y-17017179D02*
X14034175Y-17017179D01*
X14034175Y-17017179D02*
X14015128Y-17007656D01*
X14015128Y-17007656D02*
X14005604Y-16988608D01*
X14005604Y-16988608D02*
X14005604Y-16979084D01*
X14005604Y-16979084D02*
X14015128Y-16960037D01*
X14015128Y-16960037D02*
X14034175Y-16950513D01*
X14034175Y-16950513D02*
X14062747Y-16950513D01*
X14062747Y-16950513D02*
X14081794Y-16960037D01*
X14205604Y-17083846D02*
X14186556Y-17074322D01*
X14186556Y-17074322D02*
X14177032Y-17055275D01*
X14177032Y-17055275D02*
X14177032Y-16883846D01*
X14310366Y-17083846D02*
X14291318Y-17074322D01*
X14291318Y-17074322D02*
X14281794Y-17064798D01*
X14281794Y-17064798D02*
X14272270Y-17045751D01*
X14272270Y-17045751D02*
X14272270Y-16988608D01*
X14272270Y-16988608D02*
X14281794Y-16969560D01*
X14281794Y-16969560D02*
X14291318Y-16960037D01*
X14291318Y-16960037D02*
X14310366Y-16950513D01*
X14310366Y-16950513D02*
X14338937Y-16950513D01*
X14338937Y-16950513D02*
X14357985Y-16960037D01*
X14357985Y-16960037D02*
X14367509Y-16969560D01*
X14367509Y-16969560D02*
X14377032Y-16988608D01*
X14377032Y-16988608D02*
X14377032Y-17045751D01*
X14377032Y-17045751D02*
X14367509Y-17064798D01*
X14367509Y-17064798D02*
X14357985Y-17074322D01*
X14357985Y-17074322D02*
X14338937Y-17083846D01*
X14338937Y-17083846D02*
X14310366Y-17083846D01*
X14434175Y-16950513D02*
X14510366Y-16950513D01*
X14462747Y-16883846D02*
X14462747Y-17055275D01*
X14462747Y-17055275D02*
X14472270Y-17074322D01*
X14472270Y-17074322D02*
X14491318Y-17083846D01*
X14491318Y-17083846D02*
X14510366Y-17083846D01*
X14567509Y-17074322D02*
X14586556Y-17083846D01*
X14586556Y-17083846D02*
X14624651Y-17083846D01*
X14624651Y-17083846D02*
X14643699Y-17074322D01*
X14643699Y-17074322D02*
X14653223Y-17055275D01*
X14653223Y-17055275D02*
X14653223Y-17045751D01*
X14653223Y-17045751D02*
X14643699Y-17026703D01*
X14643699Y-17026703D02*
X14624651Y-17017179D01*
X14624651Y-17017179D02*
X14596080Y-17017179D01*
X14596080Y-17017179D02*
X14577032Y-17007656D01*
X14577032Y-17007656D02*
X14567509Y-16988608D01*
X14567509Y-16988608D02*
X14567509Y-16979084D01*
X14567509Y-16979084D02*
X14577032Y-16960037D01*
X14577032Y-16960037D02*
X14596080Y-16950513D01*
X14596080Y-16950513D02*
X14624651Y-16950513D01*
X14624651Y-16950513D02*
X14643699Y-16960037D01*
X14719890Y-17160037D02*
X14729413Y-17150513D01*
X14729413Y-17150513D02*
X14748461Y-17121941D01*
X14748461Y-17121941D02*
X14757985Y-17102894D01*
X14757985Y-17102894D02*
X14767509Y-17074322D01*
X14767509Y-17074322D02*
X14777032Y-17026703D01*
X14777032Y-17026703D02*
X14777032Y-16988608D01*
X14777032Y-16988608D02*
X14767509Y-16940989D01*
X14767509Y-16940989D02*
X14757985Y-16912418D01*
X14757985Y-16912418D02*
X14748461Y-16893370D01*
X14748461Y-16893370D02*
X14729413Y-16864798D01*
X14729413Y-16864798D02*
X14719890Y-16855275D01*
X7935303Y-17156362D02*
X8135303Y-17356362D01*
X8135303Y-17156362D02*
X7935303Y-17356362D01*
X8035303Y-17156362D02*
X8035303Y-17356362D01*
X7935303Y-17256362D02*
X8135303Y-17256362D01*
X8386556Y-17166894D02*
X8396079Y-17157370D01*
X8396079Y-17157370D02*
X8415127Y-17147846D01*
X8415127Y-17147846D02*
X8462746Y-17147846D01*
X8462746Y-17147846D02*
X8481794Y-17157370D01*
X8481794Y-17157370D02*
X8491318Y-17166894D01*
X8491318Y-17166894D02*
X8500841Y-17185941D01*
X8500841Y-17185941D02*
X8500841Y-17204989D01*
X8500841Y-17204989D02*
X8491318Y-17233560D01*
X8491318Y-17233560D02*
X8377032Y-17347846D01*
X8377032Y-17347846D02*
X8500841Y-17347846D01*
X8586556Y-17328798D02*
X8596079Y-17338322D01*
X8596079Y-17338322D02*
X8586556Y-17347846D01*
X8586556Y-17347846D02*
X8577032Y-17338322D01*
X8577032Y-17338322D02*
X8586556Y-17328798D01*
X8586556Y-17328798D02*
X8586556Y-17347846D01*
X8672270Y-17166894D02*
X8681794Y-17157370D01*
X8681794Y-17157370D02*
X8700841Y-17147846D01*
X8700841Y-17147846D02*
X8748460Y-17147846D01*
X8748460Y-17147846D02*
X8767508Y-17157370D01*
X8767508Y-17157370D02*
X8777032Y-17166894D01*
X8777032Y-17166894D02*
X8786556Y-17185941D01*
X8786556Y-17185941D02*
X8786556Y-17204989D01*
X8786556Y-17204989D02*
X8777032Y-17233560D01*
X8777032Y-17233560D02*
X8662746Y-17347846D01*
X8662746Y-17347846D02*
X8786556Y-17347846D01*
X8910365Y-17147846D02*
X8929413Y-17147846D01*
X8929413Y-17147846D02*
X8948460Y-17157370D01*
X8948460Y-17157370D02*
X8957984Y-17166894D01*
X8957984Y-17166894D02*
X8967508Y-17185941D01*
X8967508Y-17185941D02*
X8977032Y-17224037D01*
X8977032Y-17224037D02*
X8977032Y-17271656D01*
X8977032Y-17271656D02*
X8967508Y-17309751D01*
X8967508Y-17309751D02*
X8957984Y-17328798D01*
X8957984Y-17328798D02*
X8948460Y-17338322D01*
X8948460Y-17338322D02*
X8929413Y-17347846D01*
X8929413Y-17347846D02*
X8910365Y-17347846D01*
X8910365Y-17347846D02*
X8891318Y-17338322D01*
X8891318Y-17338322D02*
X8881794Y-17328798D01*
X8881794Y-17328798D02*
X8872270Y-17309751D01*
X8872270Y-17309751D02*
X8862746Y-17271656D01*
X8862746Y-17271656D02*
X8862746Y-17224037D01*
X8862746Y-17224037D02*
X8872270Y-17185941D01*
X8872270Y-17185941D02*
X8881794Y-17166894D01*
X8881794Y-17166894D02*
X8891318Y-17157370D01*
X8891318Y-17157370D02*
X8910365Y-17147846D01*
X9100841Y-17147846D02*
X9119889Y-17147846D01*
X9119889Y-17147846D02*
X9138937Y-17157370D01*
X9138937Y-17157370D02*
X9148460Y-17166894D01*
X9148460Y-17166894D02*
X9157984Y-17185941D01*
X9157984Y-17185941D02*
X9167508Y-17224037D01*
X9167508Y-17224037D02*
X9167508Y-17271656D01*
X9167508Y-17271656D02*
X9157984Y-17309751D01*
X9157984Y-17309751D02*
X9148460Y-17328798D01*
X9148460Y-17328798D02*
X9138937Y-17338322D01*
X9138937Y-17338322D02*
X9119889Y-17347846D01*
X9119889Y-17347846D02*
X9100841Y-17347846D01*
X9100841Y-17347846D02*
X9081794Y-17338322D01*
X9081794Y-17338322D02*
X9072270Y-17328798D01*
X9072270Y-17328798D02*
X9062746Y-17309751D01*
X9062746Y-17309751D02*
X9053222Y-17271656D01*
X9053222Y-17271656D02*
X9053222Y-17224037D01*
X9053222Y-17224037D02*
X9062746Y-17185941D01*
X9062746Y-17185941D02*
X9072270Y-17166894D01*
X9072270Y-17166894D02*
X9081794Y-17157370D01*
X9081794Y-17157370D02*
X9100841Y-17147846D01*
X9253222Y-17347846D02*
X9253222Y-17214513D01*
X9253222Y-17233560D02*
X9262746Y-17224037D01*
X9262746Y-17224037D02*
X9281794Y-17214513D01*
X9281794Y-17214513D02*
X9310365Y-17214513D01*
X9310365Y-17214513D02*
X9329413Y-17224037D01*
X9329413Y-17224037D02*
X9338937Y-17243084D01*
X9338937Y-17243084D02*
X9338937Y-17347846D01*
X9338937Y-17243084D02*
X9348460Y-17224037D01*
X9348460Y-17224037D02*
X9367508Y-17214513D01*
X9367508Y-17214513D02*
X9396079Y-17214513D01*
X9396079Y-17214513D02*
X9415127Y-17224037D01*
X9415127Y-17224037D02*
X9424651Y-17243084D01*
X9424651Y-17243084D02*
X9424651Y-17347846D01*
X9519889Y-17347846D02*
X9519889Y-17214513D01*
X9519889Y-17233560D02*
X9529413Y-17224037D01*
X9529413Y-17224037D02*
X9548460Y-17214513D01*
X9548460Y-17214513D02*
X9577032Y-17214513D01*
X9577032Y-17214513D02*
X9596080Y-17224037D01*
X9596080Y-17224037D02*
X9605603Y-17243084D01*
X9605603Y-17243084D02*
X9605603Y-17347846D01*
X9605603Y-17243084D02*
X9615127Y-17224037D01*
X9615127Y-17224037D02*
X9634175Y-17214513D01*
X9634175Y-17214513D02*
X9662746Y-17214513D01*
X9662746Y-17214513D02*
X9681794Y-17224037D01*
X9681794Y-17224037D02*
X9691318Y-17243084D01*
X9691318Y-17243084D02*
X9691318Y-17347846D01*
X10081794Y-17138322D02*
X9910365Y-17395465D01*
X10338937Y-17147846D02*
X10357984Y-17147846D01*
X10357984Y-17147846D02*
X10377032Y-17157370D01*
X10377032Y-17157370D02*
X10386556Y-17166894D01*
X10386556Y-17166894D02*
X10396080Y-17185941D01*
X10396080Y-17185941D02*
X10405603Y-17224037D01*
X10405603Y-17224037D02*
X10405603Y-17271656D01*
X10405603Y-17271656D02*
X10396080Y-17309751D01*
X10396080Y-17309751D02*
X10386556Y-17328798D01*
X10386556Y-17328798D02*
X10377032Y-17338322D01*
X10377032Y-17338322D02*
X10357984Y-17347846D01*
X10357984Y-17347846D02*
X10338937Y-17347846D01*
X10338937Y-17347846D02*
X10319889Y-17338322D01*
X10319889Y-17338322D02*
X10310365Y-17328798D01*
X10310365Y-17328798D02*
X10300842Y-17309751D01*
X10300842Y-17309751D02*
X10291318Y-17271656D01*
X10291318Y-17271656D02*
X10291318Y-17224037D01*
X10291318Y-17224037D02*
X10300842Y-17185941D01*
X10300842Y-17185941D02*
X10310365Y-17166894D01*
X10310365Y-17166894D02*
X10319889Y-17157370D01*
X10319889Y-17157370D02*
X10338937Y-17147846D01*
X10491318Y-17328798D02*
X10500842Y-17338322D01*
X10500842Y-17338322D02*
X10491318Y-17347846D01*
X10491318Y-17347846D02*
X10481794Y-17338322D01*
X10481794Y-17338322D02*
X10491318Y-17328798D01*
X10491318Y-17328798D02*
X10491318Y-17347846D01*
X10624651Y-17147846D02*
X10643699Y-17147846D01*
X10643699Y-17147846D02*
X10662746Y-17157370D01*
X10662746Y-17157370D02*
X10672270Y-17166894D01*
X10672270Y-17166894D02*
X10681794Y-17185941D01*
X10681794Y-17185941D02*
X10691318Y-17224037D01*
X10691318Y-17224037D02*
X10691318Y-17271656D01*
X10691318Y-17271656D02*
X10681794Y-17309751D01*
X10681794Y-17309751D02*
X10672270Y-17328798D01*
X10672270Y-17328798D02*
X10662746Y-17338322D01*
X10662746Y-17338322D02*
X10643699Y-17347846D01*
X10643699Y-17347846D02*
X10624651Y-17347846D01*
X10624651Y-17347846D02*
X10605603Y-17338322D01*
X10605603Y-17338322D02*
X10596080Y-17328798D01*
X10596080Y-17328798D02*
X10586556Y-17309751D01*
X10586556Y-17309751D02*
X10577032Y-17271656D01*
X10577032Y-17271656D02*
X10577032Y-17224037D01*
X10577032Y-17224037D02*
X10586556Y-17185941D01*
X10586556Y-17185941D02*
X10596080Y-17166894D01*
X10596080Y-17166894D02*
X10605603Y-17157370D01*
X10605603Y-17157370D02*
X10624651Y-17147846D01*
X10805603Y-17233560D02*
X10786556Y-17224037D01*
X10786556Y-17224037D02*
X10777032Y-17214513D01*
X10777032Y-17214513D02*
X10767508Y-17195465D01*
X10767508Y-17195465D02*
X10767508Y-17185941D01*
X10767508Y-17185941D02*
X10777032Y-17166894D01*
X10777032Y-17166894D02*
X10786556Y-17157370D01*
X10786556Y-17157370D02*
X10805603Y-17147846D01*
X10805603Y-17147846D02*
X10843699Y-17147846D01*
X10843699Y-17147846D02*
X10862746Y-17157370D01*
X10862746Y-17157370D02*
X10872270Y-17166894D01*
X10872270Y-17166894D02*
X10881794Y-17185941D01*
X10881794Y-17185941D02*
X10881794Y-17195465D01*
X10881794Y-17195465D02*
X10872270Y-17214513D01*
X10872270Y-17214513D02*
X10862746Y-17224037D01*
X10862746Y-17224037D02*
X10843699Y-17233560D01*
X10843699Y-17233560D02*
X10805603Y-17233560D01*
X10805603Y-17233560D02*
X10786556Y-17243084D01*
X10786556Y-17243084D02*
X10777032Y-17252608D01*
X10777032Y-17252608D02*
X10767508Y-17271656D01*
X10767508Y-17271656D02*
X10767508Y-17309751D01*
X10767508Y-17309751D02*
X10777032Y-17328798D01*
X10777032Y-17328798D02*
X10786556Y-17338322D01*
X10786556Y-17338322D02*
X10805603Y-17347846D01*
X10805603Y-17347846D02*
X10843699Y-17347846D01*
X10843699Y-17347846D02*
X10862746Y-17338322D01*
X10862746Y-17338322D02*
X10872270Y-17328798D01*
X10872270Y-17328798D02*
X10881794Y-17309751D01*
X10881794Y-17309751D02*
X10881794Y-17271656D01*
X10881794Y-17271656D02*
X10872270Y-17252608D01*
X10872270Y-17252608D02*
X10862746Y-17243084D01*
X10862746Y-17243084D02*
X10843699Y-17233560D01*
X11053223Y-17147846D02*
X11015127Y-17147846D01*
X11015127Y-17147846D02*
X10996080Y-17157370D01*
X10996080Y-17157370D02*
X10986556Y-17166894D01*
X10986556Y-17166894D02*
X10967508Y-17195465D01*
X10967508Y-17195465D02*
X10957984Y-17233560D01*
X10957984Y-17233560D02*
X10957984Y-17309751D01*
X10957984Y-17309751D02*
X10967508Y-17328798D01*
X10967508Y-17328798D02*
X10977032Y-17338322D01*
X10977032Y-17338322D02*
X10996080Y-17347846D01*
X10996080Y-17347846D02*
X11034175Y-17347846D01*
X11034175Y-17347846D02*
X11053223Y-17338322D01*
X11053223Y-17338322D02*
X11062746Y-17328798D01*
X11062746Y-17328798D02*
X11072270Y-17309751D01*
X11072270Y-17309751D02*
X11072270Y-17262132D01*
X11072270Y-17262132D02*
X11062746Y-17243084D01*
X11062746Y-17243084D02*
X11053223Y-17233560D01*
X11053223Y-17233560D02*
X11034175Y-17224037D01*
X11034175Y-17224037D02*
X10996080Y-17224037D01*
X10996080Y-17224037D02*
X10977032Y-17233560D01*
X10977032Y-17233560D02*
X10967508Y-17243084D01*
X10967508Y-17243084D02*
X10957984Y-17262132D01*
X11243699Y-17147846D02*
X11205603Y-17147846D01*
X11205603Y-17147846D02*
X11186556Y-17157370D01*
X11186556Y-17157370D02*
X11177032Y-17166894D01*
X11177032Y-17166894D02*
X11157984Y-17195465D01*
X11157984Y-17195465D02*
X11148461Y-17233560D01*
X11148461Y-17233560D02*
X11148461Y-17309751D01*
X11148461Y-17309751D02*
X11157984Y-17328798D01*
X11157984Y-17328798D02*
X11167508Y-17338322D01*
X11167508Y-17338322D02*
X11186556Y-17347846D01*
X11186556Y-17347846D02*
X11224651Y-17347846D01*
X11224651Y-17347846D02*
X11243699Y-17338322D01*
X11243699Y-17338322D02*
X11253222Y-17328798D01*
X11253222Y-17328798D02*
X11262746Y-17309751D01*
X11262746Y-17309751D02*
X11262746Y-17262132D01*
X11262746Y-17262132D02*
X11253222Y-17243084D01*
X11253222Y-17243084D02*
X11243699Y-17233560D01*
X11243699Y-17233560D02*
X11224651Y-17224037D01*
X11224651Y-17224037D02*
X11186556Y-17224037D01*
X11186556Y-17224037D02*
X11167508Y-17233560D01*
X11167508Y-17233560D02*
X11157984Y-17243084D01*
X11157984Y-17243084D02*
X11148461Y-17262132D01*
X11338937Y-17147846D02*
X11338937Y-17185941D01*
X11415127Y-17147846D02*
X11415127Y-17185941D01*
X11710365Y-17424037D02*
X11700842Y-17414513D01*
X11700842Y-17414513D02*
X11681794Y-17385941D01*
X11681794Y-17385941D02*
X11672270Y-17366894D01*
X11672270Y-17366894D02*
X11662746Y-17338322D01*
X11662746Y-17338322D02*
X11653223Y-17290703D01*
X11653223Y-17290703D02*
X11653223Y-17252608D01*
X11653223Y-17252608D02*
X11662746Y-17204989D01*
X11662746Y-17204989D02*
X11672270Y-17176418D01*
X11672270Y-17176418D02*
X11681794Y-17157370D01*
X11681794Y-17157370D02*
X11700842Y-17128798D01*
X11700842Y-17128798D02*
X11710365Y-17119275D01*
X11872270Y-17214513D02*
X11872270Y-17347846D01*
X11824651Y-17138322D02*
X11777032Y-17281179D01*
X11777032Y-17281179D02*
X11900842Y-17281179D01*
X12129413Y-17347846D02*
X12129413Y-17147846D01*
X12215127Y-17347846D02*
X12215127Y-17243084D01*
X12215127Y-17243084D02*
X12205604Y-17224037D01*
X12205604Y-17224037D02*
X12186556Y-17214513D01*
X12186556Y-17214513D02*
X12157984Y-17214513D01*
X12157984Y-17214513D02*
X12138937Y-17224037D01*
X12138937Y-17224037D02*
X12129413Y-17233560D01*
X12338937Y-17347846D02*
X12319889Y-17338322D01*
X12319889Y-17338322D02*
X12310365Y-17328798D01*
X12310365Y-17328798D02*
X12300842Y-17309751D01*
X12300842Y-17309751D02*
X12300842Y-17252608D01*
X12300842Y-17252608D02*
X12310365Y-17233560D01*
X12310365Y-17233560D02*
X12319889Y-17224037D01*
X12319889Y-17224037D02*
X12338937Y-17214513D01*
X12338937Y-17214513D02*
X12367508Y-17214513D01*
X12367508Y-17214513D02*
X12386556Y-17224037D01*
X12386556Y-17224037D02*
X12396080Y-17233560D01*
X12396080Y-17233560D02*
X12405604Y-17252608D01*
X12405604Y-17252608D02*
X12405604Y-17309751D01*
X12405604Y-17309751D02*
X12396080Y-17328798D01*
X12396080Y-17328798D02*
X12386556Y-17338322D01*
X12386556Y-17338322D02*
X12367508Y-17347846D01*
X12367508Y-17347846D02*
X12338937Y-17347846D01*
X12519889Y-17347846D02*
X12500842Y-17338322D01*
X12500842Y-17338322D02*
X12491318Y-17319275D01*
X12491318Y-17319275D02*
X12491318Y-17147846D01*
X12672270Y-17338322D02*
X12653223Y-17347846D01*
X12653223Y-17347846D02*
X12615127Y-17347846D01*
X12615127Y-17347846D02*
X12596080Y-17338322D01*
X12596080Y-17338322D02*
X12586556Y-17319275D01*
X12586556Y-17319275D02*
X12586556Y-17243084D01*
X12586556Y-17243084D02*
X12596080Y-17224037D01*
X12596080Y-17224037D02*
X12615127Y-17214513D01*
X12615127Y-17214513D02*
X12653223Y-17214513D01*
X12653223Y-17214513D02*
X12672270Y-17224037D01*
X12672270Y-17224037D02*
X12681794Y-17243084D01*
X12681794Y-17243084D02*
X12681794Y-17262132D01*
X12681794Y-17262132D02*
X12586556Y-17281179D01*
X12757985Y-17338322D02*
X12777032Y-17347846D01*
X12777032Y-17347846D02*
X12815127Y-17347846D01*
X12815127Y-17347846D02*
X12834175Y-17338322D01*
X12834175Y-17338322D02*
X12843699Y-17319275D01*
X12843699Y-17319275D02*
X12843699Y-17309751D01*
X12843699Y-17309751D02*
X12834175Y-17290703D01*
X12834175Y-17290703D02*
X12815127Y-17281179D01*
X12815127Y-17281179D02*
X12786556Y-17281179D01*
X12786556Y-17281179D02*
X12767508Y-17271656D01*
X12767508Y-17271656D02*
X12757985Y-17252608D01*
X12757985Y-17252608D02*
X12757985Y-17243084D01*
X12757985Y-17243084D02*
X12767508Y-17224037D01*
X12767508Y-17224037D02*
X12786556Y-17214513D01*
X12786556Y-17214513D02*
X12815127Y-17214513D01*
X12815127Y-17214513D02*
X12834175Y-17224037D01*
X12910366Y-17424037D02*
X12919889Y-17414513D01*
X12919889Y-17414513D02*
X12938937Y-17385941D01*
X12938937Y-17385941D02*
X12948461Y-17366894D01*
X12948461Y-17366894D02*
X12957985Y-17338322D01*
X12957985Y-17338322D02*
X12967508Y-17290703D01*
X12967508Y-17290703D02*
X12967508Y-17252608D01*
X12967508Y-17252608D02*
X12957985Y-17204989D01*
X12957985Y-17204989D02*
X12948461Y-17176418D01*
X12948461Y-17176418D02*
X12938937Y-17157370D01*
X12938937Y-17157370D02*
X12919889Y-17128798D01*
X12919889Y-17128798D02*
X12910366Y-17119275D01*
X7935303Y-17476362D02*
X8135303Y-17676362D01*
X8135303Y-17476362D02*
X7935303Y-17676362D01*
X8106014Y-17647074D02*
X8106014Y-17505651D01*
X7964591Y-17505651D01*
X7964591Y-17647074D01*
X8106014Y-17647074D01*
X8481794Y-17534513D02*
X8481794Y-17667846D01*
X8434175Y-17458322D02*
X8386556Y-17601179D01*
X8386556Y-17601179D02*
X8510365Y-17601179D01*
X8586556Y-17648798D02*
X8596079Y-17658322D01*
X8596079Y-17658322D02*
X8586556Y-17667846D01*
X8586556Y-17667846D02*
X8577032Y-17658322D01*
X8577032Y-17658322D02*
X8586556Y-17648798D01*
X8586556Y-17648798D02*
X8586556Y-17667846D01*
X8786556Y-17667846D02*
X8672270Y-17667846D01*
X8729413Y-17667846D02*
X8729413Y-17467846D01*
X8729413Y-17467846D02*
X8710365Y-17496418D01*
X8710365Y-17496418D02*
X8691318Y-17515465D01*
X8691318Y-17515465D02*
X8672270Y-17524989D01*
X8910365Y-17467846D02*
X8929413Y-17467846D01*
X8929413Y-17467846D02*
X8948460Y-17477370D01*
X8948460Y-17477370D02*
X8957984Y-17486894D01*
X8957984Y-17486894D02*
X8967508Y-17505941D01*
X8967508Y-17505941D02*
X8977032Y-17544037D01*
X8977032Y-17544037D02*
X8977032Y-17591656D01*
X8977032Y-17591656D02*
X8967508Y-17629751D01*
X8967508Y-17629751D02*
X8957984Y-17648798D01*
X8957984Y-17648798D02*
X8948460Y-17658322D01*
X8948460Y-17658322D02*
X8929413Y-17667846D01*
X8929413Y-17667846D02*
X8910365Y-17667846D01*
X8910365Y-17667846D02*
X8891318Y-17658322D01*
X8891318Y-17658322D02*
X8881794Y-17648798D01*
X8881794Y-17648798D02*
X8872270Y-17629751D01*
X8872270Y-17629751D02*
X8862746Y-17591656D01*
X8862746Y-17591656D02*
X8862746Y-17544037D01*
X8862746Y-17544037D02*
X8872270Y-17505941D01*
X8872270Y-17505941D02*
X8881794Y-17486894D01*
X8881794Y-17486894D02*
X8891318Y-17477370D01*
X8891318Y-17477370D02*
X8910365Y-17467846D01*
X9100841Y-17467846D02*
X9119889Y-17467846D01*
X9119889Y-17467846D02*
X9138937Y-17477370D01*
X9138937Y-17477370D02*
X9148460Y-17486894D01*
X9148460Y-17486894D02*
X9157984Y-17505941D01*
X9157984Y-17505941D02*
X9167508Y-17544037D01*
X9167508Y-17544037D02*
X9167508Y-17591656D01*
X9167508Y-17591656D02*
X9157984Y-17629751D01*
X9157984Y-17629751D02*
X9148460Y-17648798D01*
X9148460Y-17648798D02*
X9138937Y-17658322D01*
X9138937Y-17658322D02*
X9119889Y-17667846D01*
X9119889Y-17667846D02*
X9100841Y-17667846D01*
X9100841Y-17667846D02*
X9081794Y-17658322D01*
X9081794Y-17658322D02*
X9072270Y-17648798D01*
X9072270Y-17648798D02*
X9062746Y-17629751D01*
X9062746Y-17629751D02*
X9053222Y-17591656D01*
X9053222Y-17591656D02*
X9053222Y-17544037D01*
X9053222Y-17544037D02*
X9062746Y-17505941D01*
X9062746Y-17505941D02*
X9072270Y-17486894D01*
X9072270Y-17486894D02*
X9081794Y-17477370D01*
X9081794Y-17477370D02*
X9100841Y-17467846D01*
X9253222Y-17667846D02*
X9253222Y-17534513D01*
X9253222Y-17553560D02*
X9262746Y-17544037D01*
X9262746Y-17544037D02*
X9281794Y-17534513D01*
X9281794Y-17534513D02*
X9310365Y-17534513D01*
X9310365Y-17534513D02*
X9329413Y-17544037D01*
X9329413Y-17544037D02*
X9338937Y-17563084D01*
X9338937Y-17563084D02*
X9338937Y-17667846D01*
X9338937Y-17563084D02*
X9348460Y-17544037D01*
X9348460Y-17544037D02*
X9367508Y-17534513D01*
X9367508Y-17534513D02*
X9396079Y-17534513D01*
X9396079Y-17534513D02*
X9415127Y-17544037D01*
X9415127Y-17544037D02*
X9424651Y-17563084D01*
X9424651Y-17563084D02*
X9424651Y-17667846D01*
X9519889Y-17667846D02*
X9519889Y-17534513D01*
X9519889Y-17553560D02*
X9529413Y-17544037D01*
X9529413Y-17544037D02*
X9548460Y-17534513D01*
X9548460Y-17534513D02*
X9577032Y-17534513D01*
X9577032Y-17534513D02*
X9596080Y-17544037D01*
X9596080Y-17544037D02*
X9605603Y-17563084D01*
X9605603Y-17563084D02*
X9605603Y-17667846D01*
X9605603Y-17563084D02*
X9615127Y-17544037D01*
X9615127Y-17544037D02*
X9634175Y-17534513D01*
X9634175Y-17534513D02*
X9662746Y-17534513D01*
X9662746Y-17534513D02*
X9681794Y-17544037D01*
X9681794Y-17544037D02*
X9691318Y-17563084D01*
X9691318Y-17563084D02*
X9691318Y-17667846D01*
X10081794Y-17458322D02*
X9910365Y-17715465D01*
X10338937Y-17467846D02*
X10357984Y-17467846D01*
X10357984Y-17467846D02*
X10377032Y-17477370D01*
X10377032Y-17477370D02*
X10386556Y-17486894D01*
X10386556Y-17486894D02*
X10396080Y-17505941D01*
X10396080Y-17505941D02*
X10405603Y-17544037D01*
X10405603Y-17544037D02*
X10405603Y-17591656D01*
X10405603Y-17591656D02*
X10396080Y-17629751D01*
X10396080Y-17629751D02*
X10386556Y-17648798D01*
X10386556Y-17648798D02*
X10377032Y-17658322D01*
X10377032Y-17658322D02*
X10357984Y-17667846D01*
X10357984Y-17667846D02*
X10338937Y-17667846D01*
X10338937Y-17667846D02*
X10319889Y-17658322D01*
X10319889Y-17658322D02*
X10310365Y-17648798D01*
X10310365Y-17648798D02*
X10300842Y-17629751D01*
X10300842Y-17629751D02*
X10291318Y-17591656D01*
X10291318Y-17591656D02*
X10291318Y-17544037D01*
X10291318Y-17544037D02*
X10300842Y-17505941D01*
X10300842Y-17505941D02*
X10310365Y-17486894D01*
X10310365Y-17486894D02*
X10319889Y-17477370D01*
X10319889Y-17477370D02*
X10338937Y-17467846D01*
X10491318Y-17648798D02*
X10500842Y-17658322D01*
X10500842Y-17658322D02*
X10491318Y-17667846D01*
X10491318Y-17667846D02*
X10481794Y-17658322D01*
X10481794Y-17658322D02*
X10491318Y-17648798D01*
X10491318Y-17648798D02*
X10491318Y-17667846D01*
X10691318Y-17667846D02*
X10577032Y-17667846D01*
X10634175Y-17667846D02*
X10634175Y-17467846D01*
X10634175Y-17467846D02*
X10615127Y-17496418D01*
X10615127Y-17496418D02*
X10596080Y-17515465D01*
X10596080Y-17515465D02*
X10577032Y-17524989D01*
X10862746Y-17467846D02*
X10824651Y-17467846D01*
X10824651Y-17467846D02*
X10805603Y-17477370D01*
X10805603Y-17477370D02*
X10796080Y-17486894D01*
X10796080Y-17486894D02*
X10777032Y-17515465D01*
X10777032Y-17515465D02*
X10767508Y-17553560D01*
X10767508Y-17553560D02*
X10767508Y-17629751D01*
X10767508Y-17629751D02*
X10777032Y-17648798D01*
X10777032Y-17648798D02*
X10786556Y-17658322D01*
X10786556Y-17658322D02*
X10805603Y-17667846D01*
X10805603Y-17667846D02*
X10843699Y-17667846D01*
X10843699Y-17667846D02*
X10862746Y-17658322D01*
X10862746Y-17658322D02*
X10872270Y-17648798D01*
X10872270Y-17648798D02*
X10881794Y-17629751D01*
X10881794Y-17629751D02*
X10881794Y-17582132D01*
X10881794Y-17582132D02*
X10872270Y-17563084D01*
X10872270Y-17563084D02*
X10862746Y-17553560D01*
X10862746Y-17553560D02*
X10843699Y-17544037D01*
X10843699Y-17544037D02*
X10805603Y-17544037D01*
X10805603Y-17544037D02*
X10786556Y-17553560D01*
X10786556Y-17553560D02*
X10777032Y-17563084D01*
X10777032Y-17563084D02*
X10767508Y-17582132D01*
X11072270Y-17667846D02*
X10957984Y-17667846D01*
X11015127Y-17667846D02*
X11015127Y-17467846D01*
X11015127Y-17467846D02*
X10996080Y-17496418D01*
X10996080Y-17496418D02*
X10977032Y-17515465D01*
X10977032Y-17515465D02*
X10957984Y-17524989D01*
X11243699Y-17534513D02*
X11243699Y-17667846D01*
X11196080Y-17458322D02*
X11148461Y-17601179D01*
X11148461Y-17601179D02*
X11272270Y-17601179D01*
X11338937Y-17467846D02*
X11338937Y-17505941D01*
X11415127Y-17467846D02*
X11415127Y-17505941D01*
X11710365Y-17744037D02*
X11700842Y-17734513D01*
X11700842Y-17734513D02*
X11681794Y-17705941D01*
X11681794Y-17705941D02*
X11672270Y-17686894D01*
X11672270Y-17686894D02*
X11662746Y-17658322D01*
X11662746Y-17658322D02*
X11653223Y-17610703D01*
X11653223Y-17610703D02*
X11653223Y-17572608D01*
X11653223Y-17572608D02*
X11662746Y-17524989D01*
X11662746Y-17524989D02*
X11672270Y-17496418D01*
X11672270Y-17496418D02*
X11681794Y-17477370D01*
X11681794Y-17477370D02*
X11700842Y-17448798D01*
X11700842Y-17448798D02*
X11710365Y-17439275D01*
X11815127Y-17553560D02*
X11796080Y-17544037D01*
X11796080Y-17544037D02*
X11786556Y-17534513D01*
X11786556Y-17534513D02*
X11777032Y-17515465D01*
X11777032Y-17515465D02*
X11777032Y-17505941D01*
X11777032Y-17505941D02*
X11786556Y-17486894D01*
X11786556Y-17486894D02*
X11796080Y-17477370D01*
X11796080Y-17477370D02*
X11815127Y-17467846D01*
X11815127Y-17467846D02*
X11853223Y-17467846D01*
X11853223Y-17467846D02*
X11872270Y-17477370D01*
X11872270Y-17477370D02*
X11881794Y-17486894D01*
X11881794Y-17486894D02*
X11891318Y-17505941D01*
X11891318Y-17505941D02*
X11891318Y-17515465D01*
X11891318Y-17515465D02*
X11881794Y-17534513D01*
X11881794Y-17534513D02*
X11872270Y-17544037D01*
X11872270Y-17544037D02*
X11853223Y-17553560D01*
X11853223Y-17553560D02*
X11815127Y-17553560D01*
X11815127Y-17553560D02*
X11796080Y-17563084D01*
X11796080Y-17563084D02*
X11786556Y-17572608D01*
X11786556Y-17572608D02*
X11777032Y-17591656D01*
X11777032Y-17591656D02*
X11777032Y-17629751D01*
X11777032Y-17629751D02*
X11786556Y-17648798D01*
X11786556Y-17648798D02*
X11796080Y-17658322D01*
X11796080Y-17658322D02*
X11815127Y-17667846D01*
X11815127Y-17667846D02*
X11853223Y-17667846D01*
X11853223Y-17667846D02*
X11872270Y-17658322D01*
X11872270Y-17658322D02*
X11881794Y-17648798D01*
X11881794Y-17648798D02*
X11891318Y-17629751D01*
X11891318Y-17629751D02*
X11891318Y-17591656D01*
X11891318Y-17591656D02*
X11881794Y-17572608D01*
X11881794Y-17572608D02*
X11872270Y-17563084D01*
X11872270Y-17563084D02*
X11853223Y-17553560D01*
X12129413Y-17667846D02*
X12129413Y-17467846D01*
X12215127Y-17667846D02*
X12215127Y-17563084D01*
X12215127Y-17563084D02*
X12205604Y-17544037D01*
X12205604Y-17544037D02*
X12186556Y-17534513D01*
X12186556Y-17534513D02*
X12157984Y-17534513D01*
X12157984Y-17534513D02*
X12138937Y-17544037D01*
X12138937Y-17544037D02*
X12129413Y-17553560D01*
X12338937Y-17667846D02*
X12319889Y-17658322D01*
X12319889Y-17658322D02*
X12310365Y-17648798D01*
X12310365Y-17648798D02*
X12300842Y-17629751D01*
X12300842Y-17629751D02*
X12300842Y-17572608D01*
X12300842Y-17572608D02*
X12310365Y-17553560D01*
X12310365Y-17553560D02*
X12319889Y-17544037D01*
X12319889Y-17544037D02*
X12338937Y-17534513D01*
X12338937Y-17534513D02*
X12367508Y-17534513D01*
X12367508Y-17534513D02*
X12386556Y-17544037D01*
X12386556Y-17544037D02*
X12396080Y-17553560D01*
X12396080Y-17553560D02*
X12405604Y-17572608D01*
X12405604Y-17572608D02*
X12405604Y-17629751D01*
X12405604Y-17629751D02*
X12396080Y-17648798D01*
X12396080Y-17648798D02*
X12386556Y-17658322D01*
X12386556Y-17658322D02*
X12367508Y-17667846D01*
X12367508Y-17667846D02*
X12338937Y-17667846D01*
X12519889Y-17667846D02*
X12500842Y-17658322D01*
X12500842Y-17658322D02*
X12491318Y-17639275D01*
X12491318Y-17639275D02*
X12491318Y-17467846D01*
X12672270Y-17658322D02*
X12653223Y-17667846D01*
X12653223Y-17667846D02*
X12615127Y-17667846D01*
X12615127Y-17667846D02*
X12596080Y-17658322D01*
X12596080Y-17658322D02*
X12586556Y-17639275D01*
X12586556Y-17639275D02*
X12586556Y-17563084D01*
X12586556Y-17563084D02*
X12596080Y-17544037D01*
X12596080Y-17544037D02*
X12615127Y-17534513D01*
X12615127Y-17534513D02*
X12653223Y-17534513D01*
X12653223Y-17534513D02*
X12672270Y-17544037D01*
X12672270Y-17544037D02*
X12681794Y-17563084D01*
X12681794Y-17563084D02*
X12681794Y-17582132D01*
X12681794Y-17582132D02*
X12586556Y-17601179D01*
X12757985Y-17658322D02*
X12777032Y-17667846D01*
X12777032Y-17667846D02*
X12815127Y-17667846D01*
X12815127Y-17667846D02*
X12834175Y-17658322D01*
X12834175Y-17658322D02*
X12843699Y-17639275D01*
X12843699Y-17639275D02*
X12843699Y-17629751D01*
X12843699Y-17629751D02*
X12834175Y-17610703D01*
X12834175Y-17610703D02*
X12815127Y-17601179D01*
X12815127Y-17601179D02*
X12786556Y-17601179D01*
X12786556Y-17601179D02*
X12767508Y-17591656D01*
X12767508Y-17591656D02*
X12757985Y-17572608D01*
X12757985Y-17572608D02*
X12757985Y-17563084D01*
X12757985Y-17563084D02*
X12767508Y-17544037D01*
X12767508Y-17544037D02*
X12786556Y-17534513D01*
X12786556Y-17534513D02*
X12815127Y-17534513D01*
X12815127Y-17534513D02*
X12834175Y-17544037D01*
X12910366Y-17744037D02*
X12919889Y-17734513D01*
X12919889Y-17734513D02*
X12938937Y-17705941D01*
X12938937Y-17705941D02*
X12948461Y-17686894D01*
X12948461Y-17686894D02*
X12957985Y-17658322D01*
X12957985Y-17658322D02*
X12967508Y-17610703D01*
X12967508Y-17610703D02*
X12967508Y-17572608D01*
X12967508Y-17572608D02*
X12957985Y-17524989D01*
X12957985Y-17524989D02*
X12948461Y-17496418D01*
X12948461Y-17496418D02*
X12938937Y-17477370D01*
X12938937Y-17477370D02*
X12919889Y-17448798D01*
X12919889Y-17448798D02*
X12910366Y-17439275D01*
M02*
