%TF.GenerationSoftware,KiCad,Pcbnew,8.0.2*%
%TF.CreationDate,2024-06-08T11:25:09-04:00*%
%TF.ProjectId,Sofle_Pico,536f666c-655f-4506-9963-6f2e6b696361,v3.5.5*%
%TF.SameCoordinates,Original*%
%TF.FileFunction,Drillmap*%
%TF.FilePolarity,Positive*%
%FSLAX45Y45*%
G04 Gerber Fmt 4.5, Leading zero omitted, Abs format (unit mm)*
G04 Created by KiCad (PCBNEW 8.0.2) date 2024-06-08 11:25:09*
%MOMM*%
%LPD*%
G01*
G04 APERTURE LIST*
%ADD10C,0.100000*%
%ADD11C,0.150000*%
%ADD12C,0.050000*%
%ADD13C,0.200000*%
%ADD14C,0.220000*%
%ADD15C,0.410000*%
G04 APERTURE END LIST*
D10*
X9411012Y-15022043D02*
G75*
G02*
X9237768Y-14945462I-39592J144683D01*
G01*
D11*
X22682484Y-4287487D02*
X22682484Y-11907486D01*
D10*
X9411012Y-15022043D02*
X14912484Y-13472486D01*
X8140324Y-3547525D02*
X8140324Y-12753000D01*
X8140324Y-3547525D02*
G75*
G02*
X8290363Y-3397484I150046J-5D01*
G01*
D11*
X22548869Y-4137386D02*
G75*
G02*
X22682490Y-4287487I-17499J-150104D01*
G01*
D10*
X8156873Y-12823831D02*
G75*
G02*
X8140524Y-12753063I133837J68192D01*
G01*
D11*
X18722484Y-13472486D02*
X22591911Y-12045213D01*
X14912484Y-13472486D02*
X18722484Y-13472486D01*
X16817484Y-3397486D02*
X22548869Y-4137386D01*
X22682484Y-11907486D02*
G75*
G02*
X22591909Y-12045210I-149974J-14D01*
G01*
D10*
X8156673Y-12823768D02*
X9237772Y-14945460D01*
X16817484Y-3397486D02*
X8290363Y-3397486D01*
D12*
X13788501Y-4403000D02*
X13788501Y-4123000D01*
X13798501Y-4413000D02*
X14118501Y-4413000D01*
X14118501Y-4113000D02*
X13798501Y-4113000D01*
X14128501Y-4123000D02*
X14128501Y-4403000D01*
X13788501Y-4123000D02*
G75*
G02*
X13798501Y-4113000I10000J0D01*
G01*
X13798501Y-4413000D02*
G75*
G02*
X13788501Y-4403000I0J10000D01*
G01*
X14118501Y-4113000D02*
G75*
G02*
X14128501Y-4123000I0J-10000D01*
G01*
X14128501Y-4403000D02*
G75*
G02*
X14118501Y-4413000I-10000J0D01*
G01*
X11504534Y-12549211D02*
X11432065Y-12278752D01*
X11516781Y-12556282D02*
X11825878Y-12473460D01*
X11748232Y-12183682D02*
X11439136Y-12266504D01*
X11760479Y-12190753D02*
X11832949Y-12461213D01*
X11432065Y-12278752D02*
G75*
G02*
X11439136Y-12266504I9659J2588D01*
G01*
X11516781Y-12556282D02*
G75*
G02*
X11504534Y-12549211I-2588J9659D01*
G01*
X11748232Y-12183682D02*
G75*
G02*
X11760479Y-12190753I2588J-9659D01*
G01*
X11832949Y-12461213D02*
G75*
G02*
X11825878Y-12473460I-9659J-2588D01*
G01*
X19503501Y-8703000D02*
X19503501Y-8423000D01*
X19513501Y-8713000D02*
X19833501Y-8713000D01*
X19833501Y-8413000D02*
X19513501Y-8413000D01*
X19843501Y-8423000D02*
X19843501Y-8703000D01*
X19503501Y-8423000D02*
G75*
G02*
X19513501Y-8413000I10000J0D01*
G01*
X19513501Y-8713000D02*
G75*
G02*
X19503501Y-8703000I0J10000D01*
G01*
X19833501Y-8413000D02*
G75*
G02*
X19843501Y-8423000I0J-10000D01*
G01*
X19843501Y-8703000D02*
G75*
G02*
X19833501Y-8713000I-10000J0D01*
G01*
X9906525Y-13087189D02*
X10051802Y-13372311D01*
X9910895Y-13073739D02*
X10160377Y-12946622D01*
X10314733Y-13249564D02*
X10065252Y-13376681D01*
X10319104Y-13236114D02*
X10173827Y-12950992D01*
X9906525Y-13087189D02*
G75*
G02*
X9910895Y-13073739I8910J4540D01*
G01*
X10065252Y-13376681D02*
G75*
G02*
X10051802Y-13372311I-4540J8910D01*
G01*
X10160377Y-12946622D02*
G75*
G02*
X10173827Y-12950992I4540J-8910D01*
G01*
X10319104Y-13236114D02*
G75*
G02*
X10314733Y-13249564I-8910J-4540D01*
G01*
X19503501Y-6798000D02*
X19503501Y-6518000D01*
X19513501Y-6808000D02*
X19833501Y-6808000D01*
X19833501Y-6508000D02*
X19513501Y-6508000D01*
X19843501Y-6518000D02*
X19843501Y-6798000D01*
X19503501Y-6518000D02*
G75*
G02*
X19513501Y-6508000I10000J0D01*
G01*
X19513501Y-6808000D02*
G75*
G02*
X19503501Y-6798000I0J10000D01*
G01*
X19833501Y-6508000D02*
G75*
G02*
X19843501Y-6518000I0J-10000D01*
G01*
X19843501Y-6798000D02*
G75*
G02*
X19833501Y-6808000I-10000J0D01*
G01*
X19503501Y-4893000D02*
X19503501Y-4613000D01*
X19513501Y-4903000D02*
X19833501Y-4903000D01*
X19833501Y-4603000D02*
X19513501Y-4603000D01*
X19843501Y-4613000D02*
X19843501Y-4893000D01*
X19503501Y-4613000D02*
G75*
G02*
X19513501Y-4603000I10000J0D01*
G01*
X19513501Y-4903000D02*
G75*
G02*
X19503501Y-4893000I0J10000D01*
G01*
X19833501Y-4603000D02*
G75*
G02*
X19843501Y-4613000I0J-10000D01*
G01*
X19843501Y-4893000D02*
G75*
G02*
X19833501Y-4903000I-10000J0D01*
G01*
X19503501Y-10608000D02*
X19503501Y-10328000D01*
X19513501Y-10618000D02*
X19833501Y-10618000D01*
X19833501Y-10318000D02*
X19513501Y-10318000D01*
X19843501Y-10328000D02*
X19843501Y-10608000D01*
X19503501Y-10328000D02*
G75*
G02*
X19513501Y-10318000I10000J0D01*
G01*
X19513501Y-10618000D02*
G75*
G02*
X19503501Y-10608000I0J10000D01*
G01*
X19833501Y-10318000D02*
G75*
G02*
X19843501Y-10328000I0J-10000D01*
G01*
X19843501Y-10608000D02*
G75*
G02*
X19833501Y-10618000I-10000J0D01*
G01*
X13788501Y-6308000D02*
X13788501Y-6028000D01*
X13798501Y-6318000D02*
X14118501Y-6318000D01*
X14118501Y-6018000D02*
X13798501Y-6018000D01*
X14128501Y-6028000D02*
X14128501Y-6308000D01*
X13788501Y-6028000D02*
G75*
G02*
X13798501Y-6018000I10000J0D01*
G01*
X13798501Y-6318000D02*
G75*
G02*
X13788501Y-6308000I0J10000D01*
G01*
X14118501Y-6018000D02*
G75*
G02*
X14128501Y-6028000I0J-10000D01*
G01*
X14128501Y-6308000D02*
G75*
G02*
X14118501Y-6318000I-10000J0D01*
G01*
X17598501Y-10118000D02*
X17598501Y-9838000D01*
X17608501Y-10128000D02*
X17928501Y-10128000D01*
X17928501Y-9828000D02*
X17608501Y-9828000D01*
X17938501Y-9838000D02*
X17938501Y-10118000D01*
X17598501Y-9838000D02*
G75*
G02*
X17608501Y-9828000I10000J0D01*
G01*
X17608501Y-10128000D02*
G75*
G02*
X17598501Y-10118000I0J10000D01*
G01*
X17928501Y-9828000D02*
G75*
G02*
X17938501Y-9838000I0J-10000D01*
G01*
X17938501Y-10118000D02*
G75*
G02*
X17928501Y-10128000I-10000J0D01*
G01*
X15693501Y-9868000D02*
X15693501Y-9588000D01*
X15703501Y-9878000D02*
X16023501Y-9878000D01*
X16023501Y-9578000D02*
X15703501Y-9578000D01*
X16033501Y-9588000D02*
X16033501Y-9868000D01*
X15693501Y-9588000D02*
G75*
G02*
X15703501Y-9578000I10000J0D01*
G01*
X15703501Y-9878000D02*
G75*
G02*
X15693501Y-9868000I0J10000D01*
G01*
X16023501Y-9578000D02*
G75*
G02*
X16033501Y-9588000I0J-10000D01*
G01*
X16033501Y-9868000D02*
G75*
G02*
X16023501Y-9878000I-10000J0D01*
G01*
X21408501Y-8703000D02*
X21408501Y-8423000D01*
X21418501Y-8713000D02*
X21738501Y-8713000D01*
X21738501Y-8413000D02*
X21418501Y-8413000D01*
X21748501Y-8423000D02*
X21748501Y-8703000D01*
X21408501Y-8423000D02*
G75*
G02*
X21418501Y-8413000I10000J0D01*
G01*
X21418501Y-8713000D02*
G75*
G02*
X21408501Y-8703000I0J10000D01*
G01*
X21738501Y-8413000D02*
G75*
G02*
X21748501Y-8423000I0J-10000D01*
G01*
X21748501Y-8703000D02*
G75*
G02*
X21738501Y-8713000I-10000J0D01*
G01*
X11883501Y-8463000D02*
X11883501Y-8183000D01*
X11893501Y-8473000D02*
X12213501Y-8473000D01*
X12213501Y-8173000D02*
X11893501Y-8173000D01*
X12223501Y-8183000D02*
X12223501Y-8463000D01*
X11883501Y-8183000D02*
G75*
G02*
X11893501Y-8173000I10000J0D01*
G01*
X11893501Y-8473000D02*
G75*
G02*
X11883501Y-8463000I0J10000D01*
G01*
X12213501Y-8173000D02*
G75*
G02*
X12223501Y-8183000I0J-10000D01*
G01*
X12223501Y-8463000D02*
G75*
G02*
X12213501Y-8473000I-10000J0D01*
G01*
X17598501Y-6308000D02*
X17598501Y-6028000D01*
X17608501Y-6318000D02*
X17928501Y-6318000D01*
X17928501Y-6018000D02*
X17608501Y-6018000D01*
X17938501Y-6028000D02*
X17938501Y-6308000D01*
X17598501Y-6028000D02*
G75*
G02*
X17608501Y-6018000I10000J0D01*
G01*
X17608501Y-6318000D02*
G75*
G02*
X17598501Y-6308000I0J10000D01*
G01*
X17928501Y-6018000D02*
G75*
G02*
X17938501Y-6028000I0J-10000D01*
G01*
X17938501Y-6308000D02*
G75*
G02*
X17928501Y-6318000I-10000J0D01*
G01*
X13788501Y-10118000D02*
X13788501Y-9838000D01*
X13798501Y-10128000D02*
X14118501Y-10128000D01*
X14118501Y-9828000D02*
X13798501Y-9828000D01*
X14128501Y-9838000D02*
X14128501Y-10118000D01*
X13788501Y-9838000D02*
G75*
G02*
X13798501Y-9828000I10000J0D01*
G01*
X13798501Y-10128000D02*
G75*
G02*
X13788501Y-10118000I0J10000D01*
G01*
X14118501Y-9828000D02*
G75*
G02*
X14128501Y-9838000I0J-10000D01*
G01*
X14128501Y-10118000D02*
G75*
G02*
X14118501Y-10128000I-10000J0D01*
G01*
X21408501Y-4893000D02*
X21408501Y-4613000D01*
X21418501Y-4903000D02*
X21738501Y-4903000D01*
X21738501Y-4603000D02*
X21418501Y-4603000D01*
X21748501Y-4613000D02*
X21748501Y-4893000D01*
X21408501Y-4613000D02*
G75*
G02*
X21418501Y-4603000I10000J0D01*
G01*
X21418501Y-4903000D02*
G75*
G02*
X21408501Y-4893000I0J10000D01*
G01*
X21738501Y-4603000D02*
G75*
G02*
X21748501Y-4613000I0J-10000D01*
G01*
X21748501Y-4893000D02*
G75*
G02*
X21738501Y-4903000I-10000J0D01*
G01*
X11883501Y-4653000D02*
X11883501Y-4373000D01*
X11893501Y-4663000D02*
X12213501Y-4663000D01*
X12213501Y-4363000D02*
X11893501Y-4363000D01*
X12223501Y-4373000D02*
X12223501Y-4653000D01*
X11883501Y-4373000D02*
G75*
G02*
X11893501Y-4363000I10000J0D01*
G01*
X11893501Y-4663000D02*
G75*
G02*
X11883501Y-4653000I0J10000D01*
G01*
X12213501Y-4363000D02*
G75*
G02*
X12223501Y-4373000I0J-10000D01*
G01*
X12223501Y-4653000D02*
G75*
G02*
X12213501Y-4663000I-10000J0D01*
G01*
X15693501Y-4153000D02*
X15693501Y-3873000D01*
X15703501Y-4163000D02*
X16023501Y-4163000D01*
X16023501Y-3863000D02*
X15703501Y-3863000D01*
X16033501Y-3873000D02*
X16033501Y-4153000D01*
X15693501Y-3873000D02*
G75*
G02*
X15703501Y-3863000I10000J0D01*
G01*
X15703501Y-4163000D02*
G75*
G02*
X15693501Y-4153000I0J10000D01*
G01*
X16023501Y-3863000D02*
G75*
G02*
X16033501Y-3873000I0J-10000D01*
G01*
X16033501Y-4153000D02*
G75*
G02*
X16023501Y-4163000I-10000J0D01*
G01*
X15693501Y-11773000D02*
X15693501Y-11493000D01*
X15703501Y-11783000D02*
X16023501Y-11783000D01*
X16023501Y-11483000D02*
X15703501Y-11483000D01*
X16033501Y-11493000D02*
X16033501Y-11773000D01*
X15693501Y-11493000D02*
G75*
G02*
X15703501Y-11483000I10000J0D01*
G01*
X15703501Y-11783000D02*
G75*
G02*
X15693501Y-11773000I0J10000D01*
G01*
X16023501Y-11483000D02*
G75*
G02*
X16033501Y-11493000I0J-10000D01*
G01*
X16033501Y-11773000D02*
G75*
G02*
X16023501Y-11783000I-10000J0D01*
G01*
X15693501Y-6058000D02*
X15693501Y-5778000D01*
X15703501Y-6068000D02*
X16023501Y-6068000D01*
X16023501Y-5768000D02*
X15703501Y-5768000D01*
X16033501Y-5778000D02*
X16033501Y-6058000D01*
X15693501Y-5778000D02*
G75*
G02*
X15703501Y-5768000I10000J0D01*
G01*
X15703501Y-6068000D02*
G75*
G02*
X15693501Y-6058000I0J10000D01*
G01*
X16023501Y-5768000D02*
G75*
G02*
X16033501Y-5778000I0J-10000D01*
G01*
X16033501Y-6058000D02*
G75*
G02*
X16023501Y-6068000I-10000J0D01*
G01*
X13788501Y-12023000D02*
X13788501Y-11743000D01*
X13798501Y-12033000D02*
X14118501Y-12033000D01*
X14118501Y-11733000D02*
X13798501Y-11733000D01*
X14128501Y-11743000D02*
X14128501Y-12023000D01*
X13788501Y-11743000D02*
G75*
G02*
X13798501Y-11733000I10000J0D01*
G01*
X13798501Y-12033000D02*
G75*
G02*
X13788501Y-12023000I0J10000D01*
G01*
X14118501Y-11733000D02*
G75*
G02*
X14128501Y-11743000I0J-10000D01*
G01*
X14128501Y-12023000D02*
G75*
G02*
X14118501Y-12033000I-10000J0D01*
G01*
X11883501Y-6558000D02*
X11883501Y-6278000D01*
X11893501Y-6568000D02*
X12213501Y-6568000D01*
X12213501Y-6268000D02*
X11893501Y-6268000D01*
X12223501Y-6278000D02*
X12223501Y-6558000D01*
X11883501Y-6278000D02*
G75*
G02*
X11893501Y-6268000I10000J0D01*
G01*
X11893501Y-6568000D02*
G75*
G02*
X11883501Y-6558000I0J10000D01*
G01*
X12213501Y-6268000D02*
G75*
G02*
X12223501Y-6278000I0J-10000D01*
G01*
X12223501Y-6558000D02*
G75*
G02*
X12213501Y-6568000I-10000J0D01*
G01*
X17598501Y-4403000D02*
X17598501Y-4123000D01*
X17608501Y-4413000D02*
X17928501Y-4413000D01*
X17928501Y-4113000D02*
X17608501Y-4113000D01*
X17938501Y-4123000D02*
X17938501Y-4403000D01*
X17598501Y-4123000D02*
G75*
G02*
X17608501Y-4113000I10000J0D01*
G01*
X17608501Y-4413000D02*
G75*
G02*
X17598501Y-4403000I0J10000D01*
G01*
X17928501Y-4113000D02*
G75*
G02*
X17938501Y-4123000I0J-10000D01*
G01*
X17938501Y-4403000D02*
G75*
G02*
X17928501Y-4413000I-10000J0D01*
G01*
X11883501Y-10368000D02*
X11883501Y-10088000D01*
X11893501Y-10378000D02*
X12213501Y-10378000D01*
X12213501Y-10078000D02*
X11893501Y-10078000D01*
X12223501Y-10088000D02*
X12223501Y-10368000D01*
X11883501Y-10088000D02*
G75*
G02*
X11893501Y-10078000I10000J0D01*
G01*
X11893501Y-10378000D02*
G75*
G02*
X11883501Y-10368000I0J10000D01*
G01*
X12213501Y-10078000D02*
G75*
G02*
X12223501Y-10088000I0J-10000D01*
G01*
X12223501Y-10368000D02*
G75*
G02*
X12213501Y-10378000I-10000J0D01*
G01*
X17598501Y-8213000D02*
X17598501Y-7933000D01*
X17608501Y-8223000D02*
X17928501Y-8223000D01*
X17928501Y-7923000D02*
X17608501Y-7923000D01*
X17938501Y-7933000D02*
X17938501Y-8213000D01*
X17598501Y-7933000D02*
G75*
G02*
X17608501Y-7923000I10000J0D01*
G01*
X17608501Y-8223000D02*
G75*
G02*
X17598501Y-8213000I0J10000D01*
G01*
X17928501Y-7923000D02*
G75*
G02*
X17938501Y-7933000I0J-10000D01*
G01*
X17938501Y-8213000D02*
G75*
G02*
X17928501Y-8223000I-10000J0D01*
G01*
X13788501Y-8213000D02*
X13788501Y-7933000D01*
X13798501Y-8223000D02*
X14118501Y-8223000D01*
X14118501Y-7923000D02*
X13798501Y-7923000D01*
X14128501Y-7933000D02*
X14128501Y-8213000D01*
X13788501Y-7933000D02*
G75*
G02*
X13798501Y-7923000I10000J0D01*
G01*
X13798501Y-8223000D02*
G75*
G02*
X13788501Y-8213000I0J10000D01*
G01*
X14118501Y-7923000D02*
G75*
G02*
X14128501Y-7933000I0J-10000D01*
G01*
X14128501Y-8213000D02*
G75*
G02*
X14118501Y-8223000I-10000J0D01*
G01*
X15693501Y-7963000D02*
X15693501Y-7683000D01*
X15703501Y-7973000D02*
X16023501Y-7973000D01*
X16023501Y-7673000D02*
X15703501Y-7673000D01*
X16033501Y-7683000D02*
X16033501Y-7963000D01*
X15693501Y-7683000D02*
G75*
G02*
X15703501Y-7673000I10000J0D01*
G01*
X15703501Y-7973000D02*
G75*
G02*
X15693501Y-7963000I0J10000D01*
G01*
X16023501Y-7673000D02*
G75*
G02*
X16033501Y-7683000I0J-10000D01*
G01*
X16033501Y-7963000D02*
G75*
G02*
X16023501Y-7973000I-10000J0D01*
G01*
X21408501Y-6798000D02*
X21408501Y-6518000D01*
X21418501Y-6808000D02*
X21738501Y-6808000D01*
X21738501Y-6508000D02*
X21418501Y-6508000D01*
X21748501Y-6518000D02*
X21748501Y-6798000D01*
X21408501Y-6518000D02*
G75*
G02*
X21418501Y-6508000I10000J0D01*
G01*
X21418501Y-6808000D02*
G75*
G02*
X21408501Y-6798000I0J10000D01*
G01*
X21738501Y-6508000D02*
G75*
G02*
X21748501Y-6518000I0J-10000D01*
G01*
X21748501Y-6798000D02*
G75*
G02*
X21738501Y-6808000I-10000J0D01*
G01*
X21408501Y-10608000D02*
X21408501Y-10328000D01*
X21418501Y-10618000D02*
X21738501Y-10618000D01*
X21738501Y-10318000D02*
X21418501Y-10318000D01*
X21748501Y-10328000D02*
X21748501Y-10608000D01*
X21408501Y-10328000D02*
G75*
G02*
X21418501Y-10318000I10000J0D01*
G01*
X21418501Y-10618000D02*
G75*
G02*
X21408501Y-10608000I0J10000D01*
G01*
X21738501Y-10318000D02*
G75*
G02*
X21748501Y-10328000I0J-10000D01*
G01*
X21748501Y-10608000D02*
G75*
G02*
X21738501Y-10618000I-10000J0D01*
G01*
X17598501Y-12023000D02*
X17598501Y-11743000D01*
X17608501Y-12033000D02*
X17928501Y-12033000D01*
X17928501Y-11733000D02*
X17608501Y-11733000D01*
X17938501Y-11743000D02*
X17938501Y-12023000D01*
X17598501Y-11743000D02*
G75*
G02*
X17608501Y-11733000I10000J0D01*
G01*
X17608501Y-12033000D02*
G75*
G02*
X17598501Y-12023000I0J10000D01*
G01*
X17928501Y-11733000D02*
G75*
G02*
X17938501Y-11743000I0J-10000D01*
G01*
X17938501Y-12023000D02*
G75*
G02*
X17928501Y-12033000I-10000J0D01*
G01*
D13*
D10*
X8993940Y-8085540D02*
X9023940Y-8115540D01*
X9023940Y-8085540D02*
X8993940Y-8115540D01*
X8995300Y-6045920D02*
X9025300Y-6075920D01*
X9025300Y-6045920D02*
X8995300Y-6075920D01*
X9730000Y-9490000D02*
X9760000Y-9520000D01*
X9760000Y-9490000D02*
X9730000Y-9520000D01*
X9770000Y-9062500D02*
X9800000Y-9092500D01*
X9800000Y-9062500D02*
X9770000Y-9092500D01*
X9776000Y-9179000D02*
X9806000Y-9209000D01*
X9806000Y-9179000D02*
X9776000Y-9209000D01*
X9800000Y-12950000D02*
X9830000Y-12980000D01*
X9830000Y-12950000D02*
X9800000Y-12980000D01*
X9857540Y-3891486D02*
X9887540Y-3921486D01*
X9887540Y-3891486D02*
X9857540Y-3921486D01*
X9902500Y-12777500D02*
X9932500Y-12807500D01*
X9932500Y-12777500D02*
X9902500Y-12807500D01*
X10070000Y-13470000D02*
X10100000Y-13500000D01*
X10100000Y-13470000D02*
X10070000Y-13500000D01*
X10088680Y-4199730D02*
X10118680Y-4229730D01*
X10118680Y-4199730D02*
X10088680Y-4229730D01*
X10193260Y-6100360D02*
X10223260Y-6130360D01*
X10223260Y-6100360D02*
X10193260Y-6130360D01*
X10290000Y-13515000D02*
X10320000Y-13545000D01*
X10320000Y-13515000D02*
X10290000Y-13545000D01*
X10482500Y-13125888D02*
X10512500Y-13155888D01*
X10512500Y-13125888D02*
X10482500Y-13155888D01*
X10495000Y-3447500D02*
X10525000Y-3477500D01*
X10525000Y-3447500D02*
X10495000Y-3477500D01*
X10495000Y-3607500D02*
X10525000Y-3637500D01*
X10525000Y-3607500D02*
X10495000Y-3637500D01*
X10625000Y-13122500D02*
X10655000Y-13152500D01*
X10655000Y-13122500D02*
X10625000Y-13152500D01*
X10876000Y-7471000D02*
X10906000Y-7501000D01*
X10906000Y-7471000D02*
X10876000Y-7501000D01*
X10892500Y-12847500D02*
X10922500Y-12877500D01*
X10922500Y-12847500D02*
X10892500Y-12877500D01*
X10995000Y-5342114D02*
X11025000Y-5372114D01*
X11025000Y-5342114D02*
X10995000Y-5372114D01*
X10995000Y-5492500D02*
X11025000Y-5522500D01*
X11025000Y-5492500D02*
X10995000Y-5522500D01*
X11064550Y-8855000D02*
X11094550Y-8885000D01*
X11094550Y-8855000D02*
X11064550Y-8885000D01*
X11080000Y-12847500D02*
X11110000Y-12877500D01*
X11110000Y-12847500D02*
X11080000Y-12877500D01*
X11090980Y-4208480D02*
X11120980Y-4238480D01*
X11120980Y-4208480D02*
X11090980Y-4238480D01*
X11142500Y-11837500D02*
X11172500Y-11867500D01*
X11172500Y-11837500D02*
X11142500Y-11867500D01*
X11145888Y-11980000D02*
X11175888Y-12010000D01*
X11175888Y-11980000D02*
X11145888Y-12010000D01*
X11202500Y-12462500D02*
X11232500Y-12492500D01*
X11232500Y-12462500D02*
X11202500Y-12492500D01*
X11210000Y-6157500D02*
X11240000Y-6187500D01*
X11240000Y-6157500D02*
X11210000Y-6187500D01*
X11289100Y-4401520D02*
X11319100Y-4431520D01*
X11319100Y-4401520D02*
X11289100Y-4431520D01*
X11305450Y-8855000D02*
X11335450Y-8885000D01*
X11335450Y-8855000D02*
X11305450Y-8885000D01*
X11312346Y-6258666D02*
X11342346Y-6288666D01*
X11342346Y-6258666D02*
X11312346Y-6288666D01*
X11312500Y-8615888D02*
X11342500Y-8645888D01*
X11342500Y-8615888D02*
X11312500Y-8645888D01*
X11315000Y-12620000D02*
X11345000Y-12650000D01*
X11345000Y-12620000D02*
X11315000Y-12650000D01*
X11318388Y-9964112D02*
X11348388Y-9994112D01*
X11348388Y-9964112D02*
X11318388Y-9994112D01*
X11465000Y-8615000D02*
X11495000Y-8645000D01*
X11495000Y-8615000D02*
X11465000Y-8645000D01*
X11507944Y-9964112D02*
X11537944Y-9994112D01*
X11537944Y-9964112D02*
X11507944Y-9994112D01*
X11607748Y-10240750D02*
X11637748Y-10270750D01*
X11637748Y-10240750D02*
X11607748Y-10270750D01*
X11608750Y-4508750D02*
X11638750Y-4538750D01*
X11638750Y-4508750D02*
X11608750Y-4538750D01*
X11610248Y-6425750D02*
X11640248Y-6455750D01*
X11640248Y-6425750D02*
X11610248Y-6455750D01*
X11615248Y-8333250D02*
X11645248Y-8363250D01*
X11645248Y-8333250D02*
X11615248Y-8363250D01*
X11756499Y-8488501D02*
X11786499Y-8518501D01*
X11786499Y-8488501D02*
X11756499Y-8518501D01*
X11760000Y-4680000D02*
X11790000Y-4710000D01*
X11790000Y-4680000D02*
X11760000Y-4710000D01*
X11760000Y-6575000D02*
X11790000Y-6605000D01*
X11790000Y-6575000D02*
X11760000Y-6605000D01*
X11760000Y-10395000D02*
X11790000Y-10425000D01*
X11790000Y-10395000D02*
X11760000Y-10425000D01*
X11910000Y-12455000D02*
X11940000Y-12485000D01*
X11940000Y-12455000D02*
X11910000Y-12485000D01*
X12012500Y-12252500D02*
X12042500Y-12282500D01*
X12042500Y-12252500D02*
X12012500Y-12282500D01*
X12320000Y-4665000D02*
X12350000Y-4695000D01*
X12350000Y-4665000D02*
X12320000Y-4695000D01*
X12320000Y-6585000D02*
X12350000Y-6615000D01*
X12350000Y-6585000D02*
X12320000Y-6615000D01*
X12320000Y-10390000D02*
X12350000Y-10420000D01*
X12350000Y-10390000D02*
X12320000Y-10420000D01*
X12415000Y-8475000D02*
X12445000Y-8505000D01*
X12445000Y-8475000D02*
X12415000Y-8505000D01*
X12438000Y-4502000D02*
X12468000Y-4532000D01*
X12468000Y-4502000D02*
X12438000Y-4532000D01*
X12438000Y-6402000D02*
X12468000Y-6432000D01*
X12468000Y-6402000D02*
X12438000Y-6432000D01*
X12441548Y-8310359D02*
X12471548Y-8340359D01*
X12471548Y-8310359D02*
X12441548Y-8340359D01*
X12463000Y-10224500D02*
X12493000Y-10254500D01*
X12493000Y-10224500D02*
X12463000Y-10254500D01*
X12555000Y-8475000D02*
X12585000Y-8505000D01*
X12585000Y-8475000D02*
X12555000Y-8505000D01*
X12747500Y-4655000D02*
X12777500Y-4685000D01*
X12777500Y-4655000D02*
X12747500Y-4685000D01*
X12853566Y-4548934D02*
X12883566Y-4578934D01*
X12883566Y-4548934D02*
X12853566Y-4578934D01*
X12937255Y-10435000D02*
X12967255Y-10465000D01*
X12967255Y-10435000D02*
X12937255Y-10465000D01*
X12972307Y-7320000D02*
X13002307Y-7350000D01*
X13002307Y-7320000D02*
X12972307Y-7350000D01*
X13063661Y-8431161D02*
X13093661Y-8461161D01*
X13093661Y-8431161D02*
X13063661Y-8461161D01*
X13072745Y-10435000D02*
X13102745Y-10465000D01*
X13102745Y-10435000D02*
X13072745Y-10465000D01*
X13110594Y-12325839D02*
X13140594Y-12355839D01*
X13140594Y-12325839D02*
X13110594Y-12355839D01*
X13112500Y-12180000D02*
X13142500Y-12210000D01*
X13142500Y-12180000D02*
X13112500Y-12210000D01*
X13122693Y-7320000D02*
X13152693Y-7350000D01*
X13152693Y-7320000D02*
X13122693Y-7350000D01*
X13125000Y-9327500D02*
X13155000Y-9357500D01*
X13155000Y-9327500D02*
X13125000Y-9357500D01*
X13127500Y-7590000D02*
X13157500Y-7620000D01*
X13157500Y-7590000D02*
X13127500Y-7620000D01*
X13170000Y-8537500D02*
X13200000Y-8567500D01*
X13200000Y-8537500D02*
X13170000Y-8567500D01*
X13185000Y-6257500D02*
X13215000Y-6287500D01*
X13215000Y-6257500D02*
X13185000Y-6287500D01*
X13232500Y-7657500D02*
X13262500Y-7687500D01*
X13262500Y-7657500D02*
X13232500Y-7687500D01*
X13232500Y-10272500D02*
X13262500Y-10302500D01*
X13262500Y-10272500D02*
X13232500Y-10302500D01*
X13330000Y-4360000D02*
X13360000Y-4390000D01*
X13360000Y-4360000D02*
X13330000Y-4390000D01*
X13335000Y-6257500D02*
X13365000Y-6287500D01*
X13365000Y-6257500D02*
X13335000Y-6287500D01*
X13382500Y-7657500D02*
X13412500Y-7687500D01*
X13412500Y-7657500D02*
X13382500Y-7687500D01*
X13382500Y-10272500D02*
X13412500Y-10302500D01*
X13412500Y-10272500D02*
X13382500Y-10302500D01*
X13410000Y-6185000D02*
X13440000Y-6215000D01*
X13440000Y-6185000D02*
X13410000Y-6215000D01*
X13435000Y-4460000D02*
X13465000Y-4490000D01*
X13465000Y-4460000D02*
X13435000Y-4490000D01*
X13510000Y-6285000D02*
X13540000Y-6315000D01*
X13540000Y-6285000D02*
X13510000Y-6315000D01*
X13537500Y-4255000D02*
X13567500Y-4285000D01*
X13567500Y-4255000D02*
X13537500Y-4285000D01*
X13537500Y-6160000D02*
X13567500Y-6190000D01*
X13567500Y-6160000D02*
X13537500Y-6190000D01*
X13537500Y-8065000D02*
X13567500Y-8095000D01*
X13567500Y-8065000D02*
X13537500Y-8095000D01*
X13537500Y-9970000D02*
X13567500Y-10000000D01*
X13567500Y-9970000D02*
X13537500Y-10000000D01*
X13544502Y-11867251D02*
X13574502Y-11897251D01*
X13574502Y-11867251D02*
X13544502Y-11897251D01*
X13665000Y-4420000D02*
X13695000Y-4450000D01*
X13695000Y-4420000D02*
X13665000Y-4450000D01*
X13665000Y-6325000D02*
X13695000Y-6355000D01*
X13695000Y-6325000D02*
X13665000Y-6355000D01*
X13665000Y-8240000D02*
X13695000Y-8270000D01*
X13695000Y-8240000D02*
X13665000Y-8270000D01*
X13665000Y-10135000D02*
X13695000Y-10165000D01*
X13695000Y-10135000D02*
X13665000Y-10165000D01*
X13665000Y-12045000D02*
X13695000Y-12075000D01*
X13695000Y-12045000D02*
X13665000Y-12075000D01*
X14225000Y-6335000D02*
X14255000Y-6365000D01*
X14255000Y-6335000D02*
X14225000Y-6365000D01*
X14225000Y-8235000D02*
X14255000Y-8265000D01*
X14255000Y-8235000D02*
X14225000Y-8265000D01*
X14225000Y-10140000D02*
X14255000Y-10170000D01*
X14255000Y-10140000D02*
X14225000Y-10170000D01*
X14225000Y-12045000D02*
X14255000Y-12075000D01*
X14255000Y-12045000D02*
X14225000Y-12075000D01*
X14226499Y-4432000D02*
X14256499Y-4462000D01*
X14256499Y-4432000D02*
X14226499Y-4462000D01*
X14345500Y-11869500D02*
X14375500Y-11899500D01*
X14375500Y-11869500D02*
X14345500Y-11899500D01*
X14347000Y-8054000D02*
X14377000Y-8084000D01*
X14377000Y-8054000D02*
X14347000Y-8084000D01*
X14348000Y-4248000D02*
X14378000Y-4278000D01*
X14378000Y-4248000D02*
X14348000Y-4278000D01*
X14363000Y-6152000D02*
X14393000Y-6182000D01*
X14393000Y-6152000D02*
X14363000Y-6182000D01*
X14377500Y-9980000D02*
X14407500Y-10010000D01*
X14407500Y-9980000D02*
X14377500Y-10010000D01*
X14422500Y-4072500D02*
X14452500Y-4102500D01*
X14452500Y-4072500D02*
X14422500Y-4102500D01*
X14527500Y-4172500D02*
X14557500Y-4202500D01*
X14557500Y-4172500D02*
X14527500Y-4202500D01*
X14814917Y-11389917D02*
X14844917Y-11419917D01*
X14844917Y-11389917D02*
X14814917Y-11419917D01*
X14832500Y-4482500D02*
X14862500Y-4512500D01*
X14862500Y-4482500D02*
X14832500Y-4512500D01*
X14857500Y-7627307D02*
X14887500Y-7657307D01*
X14887500Y-7627307D02*
X14857500Y-7657307D01*
X14857500Y-7777693D02*
X14887500Y-7807693D01*
X14887500Y-7777693D02*
X14857500Y-7807693D01*
X14865000Y-11084807D02*
X14895000Y-11114807D01*
X14895000Y-11084807D02*
X14865000Y-11114807D01*
X14865000Y-11235193D02*
X14895000Y-11265193D01*
X14895000Y-11235193D02*
X14865000Y-11265193D01*
X14875000Y-9529807D02*
X14905000Y-9559807D01*
X14905000Y-9529807D02*
X14875000Y-9559807D01*
X14875000Y-9680193D02*
X14905000Y-9710193D01*
X14905000Y-9680193D02*
X14875000Y-9710193D01*
X14902500Y-5372114D02*
X14932500Y-5402114D01*
X14932500Y-5372114D02*
X14902500Y-5402114D01*
X14902500Y-5522500D02*
X14932500Y-5552500D01*
X14932500Y-5522500D02*
X14902500Y-5552500D01*
X14938566Y-4376434D02*
X14968566Y-4406434D01*
X14968566Y-4376434D02*
X14938566Y-4406434D01*
X14947500Y-11522500D02*
X14977500Y-11552500D01*
X14977500Y-11522500D02*
X14947500Y-11552500D01*
X15095000Y-7172500D02*
X15125000Y-7202500D01*
X15125000Y-7172500D02*
X15095000Y-7202500D01*
X15110000Y-9747500D02*
X15140000Y-9777500D01*
X15140000Y-9747500D02*
X15110000Y-9777500D01*
X15137500Y-5770000D02*
X15167500Y-5800000D01*
X15167500Y-5770000D02*
X15137500Y-5800000D01*
X15245000Y-7172500D02*
X15275000Y-7202500D01*
X15275000Y-7172500D02*
X15245000Y-7202500D01*
X15260000Y-9747500D02*
X15290000Y-9777500D01*
X15290000Y-9747500D02*
X15260000Y-9777500D01*
X15287500Y-5770000D02*
X15317500Y-5800000D01*
X15317500Y-5770000D02*
X15287500Y-5800000D01*
X15442500Y-3994000D02*
X15472500Y-4024000D01*
X15472500Y-3994000D02*
X15442500Y-4024000D01*
X15442500Y-5910000D02*
X15472500Y-5940000D01*
X15472500Y-5910000D02*
X15442500Y-5940000D01*
X15442500Y-7815000D02*
X15472500Y-7845000D01*
X15472500Y-7815000D02*
X15442500Y-7845000D01*
X15442500Y-9720000D02*
X15472500Y-9750000D01*
X15472500Y-9720000D02*
X15442500Y-9750000D01*
X15442500Y-11625000D02*
X15472500Y-11655000D01*
X15472500Y-11625000D02*
X15442500Y-11655000D01*
X15565000Y-11795000D02*
X15595000Y-11825000D01*
X15595000Y-11795000D02*
X15565000Y-11825000D01*
X15570000Y-4170000D02*
X15600000Y-4200000D01*
X15600000Y-4170000D02*
X15570000Y-4200000D01*
X15570000Y-6075000D02*
X15600000Y-6105000D01*
X15600000Y-6075000D02*
X15570000Y-6105000D01*
X15570000Y-7980000D02*
X15600000Y-8010000D01*
X15600000Y-7980000D02*
X15570000Y-8010000D01*
X15570000Y-9885000D02*
X15600000Y-9915000D01*
X15600000Y-9885000D02*
X15570000Y-9915000D01*
X16243000Y-7808000D02*
X16273000Y-7838000D01*
X16273000Y-7808000D02*
X16243000Y-7838000D01*
X16246251Y-5910749D02*
X16276251Y-5940749D01*
X16276251Y-5910749D02*
X16246251Y-5940749D01*
X16249000Y-3990000D02*
X16279000Y-4020000D01*
X16279000Y-3990000D02*
X16249000Y-4020000D01*
X16253000Y-11622000D02*
X16283000Y-11652000D01*
X16283000Y-11622000D02*
X16253000Y-11652000D01*
X16255500Y-9717000D02*
X16285500Y-9747000D01*
X16285500Y-9717000D02*
X16255500Y-9747000D01*
X16265000Y-9825000D02*
X16295000Y-9855000D01*
X16295000Y-9825000D02*
X16265000Y-9855000D01*
X16269194Y-6030806D02*
X16299194Y-6060806D01*
X16299194Y-6030806D02*
X16269194Y-6060806D01*
X16275000Y-11750000D02*
X16305000Y-11780000D01*
X16305000Y-11750000D02*
X16275000Y-11780000D01*
X16280000Y-4125000D02*
X16310000Y-4155000D01*
X16310000Y-4125000D02*
X16280000Y-4155000D01*
X16315000Y-7880000D02*
X16345000Y-7910000D01*
X16345000Y-7880000D02*
X16315000Y-7910000D01*
X16320000Y-7735000D02*
X16350000Y-7765000D01*
X16350000Y-7735000D02*
X16320000Y-7765000D01*
X16360000Y-9730000D02*
X16390000Y-9760000D01*
X16390000Y-9730000D02*
X16360000Y-9760000D01*
X16365000Y-5935000D02*
X16395000Y-5965000D01*
X16395000Y-5935000D02*
X16365000Y-5965000D01*
X16382500Y-11642500D02*
X16412500Y-11672500D01*
X16412500Y-11642500D02*
X16382500Y-11672500D01*
X16392500Y-4015000D02*
X16422500Y-4045000D01*
X16422500Y-4015000D02*
X16392500Y-4045000D01*
X16759807Y-9285000D02*
X16789807Y-9315000D01*
X16789807Y-9285000D02*
X16759807Y-9315000D01*
X16760000Y-4265000D02*
X16790000Y-4295000D01*
X16790000Y-4265000D02*
X16760000Y-4295000D01*
X16807500Y-10943750D02*
X16837500Y-10973750D01*
X16837500Y-10943750D02*
X16807500Y-10973750D01*
X16807500Y-11131250D02*
X16837500Y-11161250D01*
X16837500Y-11131250D02*
X16807500Y-11161250D01*
X16866066Y-4158934D02*
X16896066Y-4188934D01*
X16896066Y-4158934D02*
X16866066Y-4188934D01*
X16900000Y-3563223D02*
X16930000Y-3593223D01*
X16930000Y-3563223D02*
X16900000Y-3593223D01*
X16900000Y-3740000D02*
X16930000Y-3770000D01*
X16930000Y-3740000D02*
X16900000Y-3770000D01*
X16902500Y-9382500D02*
X16932500Y-9412500D01*
X16932500Y-9382500D02*
X16902500Y-9412500D01*
X16905000Y-5562500D02*
X16935000Y-5592500D01*
X16935000Y-5562500D02*
X16905000Y-5592500D01*
X16905000Y-7565000D02*
X16935000Y-7595000D01*
X16935000Y-7565000D02*
X16905000Y-7595000D01*
X16910193Y-9285000D02*
X16940193Y-9315000D01*
X16940193Y-9285000D02*
X16910193Y-9315000D01*
X17020000Y-7417500D02*
X17050000Y-7447500D01*
X17050000Y-7417500D02*
X17020000Y-7447500D01*
X17025000Y-6035000D02*
X17055000Y-6065000D01*
X17055000Y-6035000D02*
X17025000Y-6065000D01*
X17027500Y-9872500D02*
X17057500Y-9902500D01*
X17057500Y-9872500D02*
X17027500Y-9902500D01*
X17170000Y-7417500D02*
X17200000Y-7447500D01*
X17200000Y-7417500D02*
X17170000Y-7447500D01*
X17175000Y-6035000D02*
X17205000Y-6065000D01*
X17205000Y-6035000D02*
X17175000Y-6065000D01*
X17177500Y-9872500D02*
X17207500Y-9902500D01*
X17207500Y-9872500D02*
X17177500Y-9902500D01*
X17230000Y-9990000D02*
X17260000Y-10020000D01*
X17260000Y-9990000D02*
X17230000Y-10020000D01*
X17325806Y-10085806D02*
X17355806Y-10115806D01*
X17355806Y-10085806D02*
X17325806Y-10115806D01*
X17331000Y-4252000D02*
X17361000Y-4282000D01*
X17361000Y-4252000D02*
X17331000Y-4282000D01*
X17347500Y-6160000D02*
X17377500Y-6190000D01*
X17377500Y-6160000D02*
X17347500Y-6190000D01*
X17347500Y-8065000D02*
X17377500Y-8095000D01*
X17377500Y-8065000D02*
X17347500Y-8095000D01*
X17347500Y-9970000D02*
X17377500Y-10000000D01*
X17377500Y-9970000D02*
X17347500Y-10000000D01*
X17347500Y-11875000D02*
X17377500Y-11905000D01*
X17377500Y-11875000D02*
X17347500Y-11905000D01*
X17470000Y-10140000D02*
X17500000Y-10170000D01*
X17500000Y-10140000D02*
X17470000Y-10170000D01*
X17475000Y-4420000D02*
X17505000Y-4450000D01*
X17505000Y-4420000D02*
X17475000Y-4450000D01*
X17475000Y-8235000D02*
X17505000Y-8265000D01*
X17505000Y-8235000D02*
X17475000Y-8265000D01*
X17475000Y-12045000D02*
X17505000Y-12075000D01*
X17505000Y-12045000D02*
X17475000Y-12075000D01*
X17480000Y-6330000D02*
X17510000Y-6360000D01*
X17510000Y-6330000D02*
X17480000Y-6360000D01*
X18031499Y-12039250D02*
X18061499Y-12069250D01*
X18061499Y-12039250D02*
X18031499Y-12069250D01*
X18035000Y-4420000D02*
X18065000Y-4450000D01*
X18065000Y-4420000D02*
X18035000Y-4450000D01*
X18035000Y-6325000D02*
X18065000Y-6355000D01*
X18065000Y-6325000D02*
X18035000Y-6355000D01*
X18035000Y-8235000D02*
X18065000Y-8265000D01*
X18065000Y-8235000D02*
X18035000Y-8265000D01*
X18035000Y-10135000D02*
X18065000Y-10165000D01*
X18065000Y-10135000D02*
X18035000Y-10165000D01*
X18129807Y-7867500D02*
X18159807Y-7897500D01*
X18159807Y-7867500D02*
X18129807Y-7897500D01*
X18148000Y-6156000D02*
X18178000Y-6186000D01*
X18178000Y-6156000D02*
X18148000Y-6186000D01*
X18150500Y-4246660D02*
X18180500Y-4276660D01*
X18180500Y-4246660D02*
X18150500Y-4276660D01*
X18151000Y-9968000D02*
X18181000Y-9998000D01*
X18181000Y-9968000D02*
X18151000Y-9998000D01*
X18153000Y-8058000D02*
X18183000Y-8088000D01*
X18183000Y-8058000D02*
X18153000Y-8088000D01*
X18153000Y-11871000D02*
X18183000Y-11901000D01*
X18183000Y-11871000D02*
X18153000Y-11901000D01*
X18280193Y-7867500D02*
X18310193Y-7897500D01*
X18310193Y-7867500D02*
X18280193Y-7897500D01*
X18600000Y-4577500D02*
X18630000Y-4607500D01*
X18630000Y-4577500D02*
X18600000Y-4607500D01*
X18630000Y-5727307D02*
X18660000Y-5757307D01*
X18660000Y-5727307D02*
X18630000Y-5757307D01*
X18630000Y-5877693D02*
X18660000Y-5907693D01*
X18660000Y-5877693D02*
X18630000Y-5907693D01*
X18706066Y-4471434D02*
X18736066Y-4501434D01*
X18736066Y-4471434D02*
X18706066Y-4501434D01*
X18710000Y-9544807D02*
X18740000Y-9574807D01*
X18740000Y-9544807D02*
X18710000Y-9574807D01*
X18710000Y-9695193D02*
X18740000Y-9725193D01*
X18740000Y-9695193D02*
X18710000Y-9725193D01*
X18712500Y-7629807D02*
X18742500Y-7659807D01*
X18742500Y-7629807D02*
X18712500Y-7659807D01*
X18712500Y-7780193D02*
X18742500Y-7810193D01*
X18742500Y-7780193D02*
X18712500Y-7810193D01*
X18942500Y-6415000D02*
X18972500Y-6445000D01*
X18972500Y-6415000D02*
X18942500Y-6445000D01*
X18942500Y-8740000D02*
X18972500Y-8770000D01*
X18972500Y-8740000D02*
X18942500Y-8770000D01*
X18945000Y-5040000D02*
X18975000Y-5070000D01*
X18975000Y-5040000D02*
X18945000Y-5070000D01*
X18947500Y-10720000D02*
X18977500Y-10750000D01*
X18977500Y-10720000D02*
X18947500Y-10750000D01*
X19092500Y-6415000D02*
X19122500Y-6445000D01*
X19122500Y-6415000D02*
X19092500Y-6445000D01*
X19092500Y-8740000D02*
X19122500Y-8770000D01*
X19122500Y-8740000D02*
X19092500Y-8770000D01*
X19095000Y-5040000D02*
X19125000Y-5070000D01*
X19125000Y-5040000D02*
X19095000Y-5070000D01*
X19097500Y-10720000D02*
X19127500Y-10750000D01*
X19127500Y-10720000D02*
X19097500Y-10750000D01*
X19252500Y-4745000D02*
X19282500Y-4775000D01*
X19282500Y-4745000D02*
X19252500Y-4775000D01*
X19252500Y-6650000D02*
X19282500Y-6680000D01*
X19282500Y-6650000D02*
X19252500Y-6680000D01*
X19252500Y-8555000D02*
X19282500Y-8585000D01*
X19282500Y-8555000D02*
X19252500Y-8585000D01*
X19252500Y-10460000D02*
X19282500Y-10490000D01*
X19282500Y-10460000D02*
X19252500Y-10490000D01*
X19275000Y-4922500D02*
X19305000Y-4952500D01*
X19305000Y-4922500D02*
X19275000Y-4952500D01*
X19375000Y-8730000D02*
X19405000Y-8760000D01*
X19405000Y-8730000D02*
X19375000Y-8760000D01*
X19380000Y-6815000D02*
X19410000Y-6845000D01*
X19410000Y-6815000D02*
X19380000Y-6845000D01*
X19380000Y-10630000D02*
X19410000Y-10660000D01*
X19410000Y-10630000D02*
X19380000Y-10660000D01*
X19940000Y-4910000D02*
X19970000Y-4940000D01*
X19970000Y-4910000D02*
X19940000Y-4940000D01*
X19940000Y-10630000D02*
X19970000Y-10660000D01*
X19970000Y-10630000D02*
X19940000Y-10660000D01*
X20051000Y-4738000D02*
X20081000Y-4768000D01*
X20081000Y-4738000D02*
X20051000Y-4768000D01*
X20053000Y-10453000D02*
X20083000Y-10483000D01*
X20083000Y-10453000D02*
X20053000Y-10483000D01*
X20068000Y-6647000D02*
X20098000Y-6677000D01*
X20098000Y-6647000D02*
X20068000Y-6677000D01*
X20070500Y-8547000D02*
X20100500Y-8577000D01*
X20100500Y-8547000D02*
X20070500Y-8577000D01*
X20075000Y-8647500D02*
X20105000Y-8677500D01*
X20105000Y-8647500D02*
X20075000Y-8677500D01*
X20105000Y-6730000D02*
X20135000Y-6760000D01*
X20135000Y-6730000D02*
X20105000Y-6760000D01*
X20172500Y-8552500D02*
X20202500Y-8582500D01*
X20202500Y-8552500D02*
X20172500Y-8582500D01*
X20210000Y-6625000D02*
X20240000Y-6655000D01*
X20240000Y-6625000D02*
X20210000Y-6655000D01*
X20456434Y-4958566D02*
X20486434Y-4988566D01*
X20486434Y-4958566D02*
X20456434Y-4988566D01*
X20562500Y-4852500D02*
X20592500Y-4882500D01*
X20592500Y-4852500D02*
X20562500Y-4882500D01*
X20617500Y-10377500D02*
X20647500Y-10407500D01*
X20647500Y-10377500D02*
X20617500Y-10407500D01*
X20617500Y-10527886D02*
X20647500Y-10557886D01*
X20647500Y-10527886D02*
X20617500Y-10557886D01*
X20630000Y-6580000D02*
X20660000Y-6610000D01*
X20660000Y-6580000D02*
X20630000Y-6610000D01*
X20630000Y-8090000D02*
X20660000Y-8120000D01*
X20660000Y-8090000D02*
X20630000Y-8120000D01*
X20842500Y-10302500D02*
X20872500Y-10332500D01*
X20872500Y-10302500D02*
X20842500Y-10332500D01*
X20847500Y-8730000D02*
X20877500Y-8760000D01*
X20877500Y-8730000D02*
X20847500Y-8760000D01*
X20852500Y-10705000D02*
X20882500Y-10735000D01*
X20882500Y-10705000D02*
X20852500Y-10735000D01*
X20855000Y-6812500D02*
X20885000Y-6842500D01*
X20885000Y-6812500D02*
X20855000Y-6842500D01*
X20997500Y-8730000D02*
X21027500Y-8760000D01*
X21027500Y-8730000D02*
X20997500Y-8760000D01*
X21002500Y-10705000D02*
X21032500Y-10735000D01*
X21032500Y-10705000D02*
X21002500Y-10735000D01*
X21005000Y-6812500D02*
X21035000Y-6842500D01*
X21035000Y-6812500D02*
X21005000Y-6842500D01*
X21157500Y-4745000D02*
X21187500Y-4775000D01*
X21187500Y-4745000D02*
X21157500Y-4775000D01*
X21157500Y-6650000D02*
X21187500Y-6680000D01*
X21187500Y-6650000D02*
X21157500Y-6680000D01*
X21157500Y-8555000D02*
X21187500Y-8585000D01*
X21187500Y-8555000D02*
X21157500Y-8585000D01*
X21157500Y-10460000D02*
X21187500Y-10490000D01*
X21187500Y-10460000D02*
X21157500Y-10490000D01*
X21285000Y-8725000D02*
X21315000Y-8755000D01*
X21315000Y-8725000D02*
X21285000Y-8755000D01*
X21285000Y-10630000D02*
X21315000Y-10660000D01*
X21315000Y-10630000D02*
X21285000Y-10660000D01*
X21290000Y-6815000D02*
X21320000Y-6845000D01*
X21320000Y-6815000D02*
X21290000Y-6845000D01*
X21320000Y-4925000D02*
X21350000Y-4955000D01*
X21350000Y-4925000D02*
X21320000Y-4955000D01*
X21845000Y-4915000D02*
X21875000Y-4945000D01*
X21875000Y-4915000D02*
X21845000Y-4945000D01*
X21845000Y-8725000D02*
X21875000Y-8755000D01*
X21875000Y-8725000D02*
X21845000Y-8755000D01*
X21845000Y-10630000D02*
X21875000Y-10660000D01*
X21875000Y-10630000D02*
X21845000Y-10660000D01*
X21948782Y-6796501D02*
X21978782Y-6826501D01*
X21978782Y-6796501D02*
X21948782Y-6826501D01*
X21957000Y-6643000D02*
X21987000Y-6673000D01*
X21987000Y-6643000D02*
X21957000Y-6673000D01*
X21957000Y-10453000D02*
X21987000Y-10483000D01*
X21987000Y-10453000D02*
X21957000Y-10483000D01*
X21961000Y-8548000D02*
X21991000Y-8578000D01*
X21991000Y-8548000D02*
X21961000Y-8578000D01*
X21979807Y-8342500D02*
X22009807Y-8372500D01*
X22009807Y-8342500D02*
X21979807Y-8372500D01*
X22130193Y-8342500D02*
X22160193Y-8372500D01*
X22160193Y-8342500D02*
X22130193Y-8372500D01*
X22190000Y-6725000D02*
X22220000Y-6755000D01*
X22220000Y-6725000D02*
X22190000Y-6755000D01*
X22190000Y-10680000D02*
X22220000Y-10710000D01*
X22220000Y-10680000D02*
X22190000Y-10710000D01*
X22340000Y-6725000D02*
X22370000Y-6755000D01*
X22370000Y-6725000D02*
X22340000Y-6755000D01*
X22340000Y-10680000D02*
X22370000Y-10710000D01*
X22370000Y-10680000D02*
X22340000Y-10710000D01*
X9068633Y-12994826D02*
G75*
G02*
X9038633Y-12994826I-15000J0D01*
G01*
X9038633Y-12994826D02*
G75*
G02*
X9068633Y-12994826I15000J0D01*
G01*
X9640224Y-14118839D02*
G75*
G02*
X9610224Y-14118839I-15000J0D01*
G01*
X9610224Y-14118839D02*
G75*
G02*
X9640224Y-14118839I15000J0D01*
G01*
X11264111Y-13371333D02*
G75*
G02*
X11234111Y-13371333I-15000J0D01*
G01*
X11234111Y-13371333D02*
G75*
G02*
X11264111Y-13371333I15000J0D01*
G01*
X11439000Y-5381000D02*
G75*
G02*
X11409000Y-5381000I-15000J0D01*
G01*
X11409000Y-5381000D02*
G75*
G02*
X11439000Y-5381000I15000J0D01*
G01*
X11439000Y-7286000D02*
G75*
G02*
X11409000Y-7286000I-15000J0D01*
G01*
X11409000Y-7286000D02*
G75*
G02*
X11439000Y-7286000I15000J0D01*
G01*
X11439000Y-9191000D02*
G75*
G02*
X11409000Y-9191000I-15000J0D01*
G01*
X11409000Y-9191000D02*
G75*
G02*
X11439000Y-9191000I15000J0D01*
G01*
X11439000Y-11096000D02*
G75*
G02*
X11409000Y-11096000I-15000J0D01*
G01*
X11409000Y-11096000D02*
G75*
G02*
X11439000Y-11096000I15000J0D01*
G01*
X12482402Y-13045928D02*
G75*
G02*
X12452402Y-13045928I-15000J0D01*
G01*
X12452402Y-13045928D02*
G75*
G02*
X12482402Y-13045928I15000J0D01*
G01*
X12700000Y-5382000D02*
G75*
G02*
X12670000Y-5382000I-15000J0D01*
G01*
X12670000Y-5382000D02*
G75*
G02*
X12700000Y-5382000I15000J0D01*
G01*
X12700000Y-7287000D02*
G75*
G02*
X12670000Y-7287000I-15000J0D01*
G01*
X12670000Y-7287000D02*
G75*
G02*
X12700000Y-7287000I15000J0D01*
G01*
X12700000Y-9192000D02*
G75*
G02*
X12670000Y-9192000I-15000J0D01*
G01*
X12670000Y-9192000D02*
G75*
G02*
X12700000Y-9192000I15000J0D01*
G01*
X12700000Y-11097000D02*
G75*
G02*
X12670000Y-11097000I-15000J0D01*
G01*
X12670000Y-11097000D02*
G75*
G02*
X12700000Y-11097000I15000J0D01*
G01*
X13344000Y-5131000D02*
G75*
G02*
X13314000Y-5131000I-15000J0D01*
G01*
X13314000Y-5131000D02*
G75*
G02*
X13344000Y-5131000I15000J0D01*
G01*
X13344000Y-7036000D02*
G75*
G02*
X13314000Y-7036000I-15000J0D01*
G01*
X13314000Y-7036000D02*
G75*
G02*
X13344000Y-7036000I15000J0D01*
G01*
X13344000Y-8941000D02*
G75*
G02*
X13314000Y-8941000I-15000J0D01*
G01*
X13314000Y-8941000D02*
G75*
G02*
X13344000Y-8941000I15000J0D01*
G01*
X13344000Y-10846000D02*
G75*
G02*
X13314000Y-10846000I-15000J0D01*
G01*
X13314000Y-10846000D02*
G75*
G02*
X13344000Y-10846000I15000J0D01*
G01*
X13344000Y-12751000D02*
G75*
G02*
X13314000Y-12751000I-15000J0D01*
G01*
X13314000Y-12751000D02*
G75*
G02*
X13344000Y-12751000I15000J0D01*
G01*
X14605000Y-5132000D02*
G75*
G02*
X14575000Y-5132000I-15000J0D01*
G01*
X14575000Y-5132000D02*
G75*
G02*
X14605000Y-5132000I15000J0D01*
G01*
X14605000Y-7037000D02*
G75*
G02*
X14575000Y-7037000I-15000J0D01*
G01*
X14575000Y-7037000D02*
G75*
G02*
X14605000Y-7037000I15000J0D01*
G01*
X14605000Y-8942000D02*
G75*
G02*
X14575000Y-8942000I-15000J0D01*
G01*
X14575000Y-8942000D02*
G75*
G02*
X14605000Y-8942000I15000J0D01*
G01*
X14605000Y-10847000D02*
G75*
G02*
X14575000Y-10847000I-15000J0D01*
G01*
X14575000Y-10847000D02*
G75*
G02*
X14605000Y-10847000I15000J0D01*
G01*
X14605000Y-12752000D02*
G75*
G02*
X14575000Y-12752000I-15000J0D01*
G01*
X14575000Y-12752000D02*
G75*
G02*
X14605000Y-12752000I15000J0D01*
G01*
X15249000Y-4881000D02*
G75*
G02*
X15219000Y-4881000I-15000J0D01*
G01*
X15219000Y-4881000D02*
G75*
G02*
X15249000Y-4881000I15000J0D01*
G01*
X15249000Y-6786000D02*
G75*
G02*
X15219000Y-6786000I-15000J0D01*
G01*
X15219000Y-6786000D02*
G75*
G02*
X15249000Y-6786000I15000J0D01*
G01*
X15249000Y-8691000D02*
G75*
G02*
X15219000Y-8691000I-15000J0D01*
G01*
X15219000Y-8691000D02*
G75*
G02*
X15249000Y-8691000I15000J0D01*
G01*
X15249000Y-10596000D02*
G75*
G02*
X15219000Y-10596000I-15000J0D01*
G01*
X15219000Y-10596000D02*
G75*
G02*
X15249000Y-10596000I15000J0D01*
G01*
X15249000Y-12501000D02*
G75*
G02*
X15219000Y-12501000I-15000J0D01*
G01*
X15219000Y-12501000D02*
G75*
G02*
X15249000Y-12501000I15000J0D01*
G01*
X16510000Y-4882000D02*
G75*
G02*
X16480000Y-4882000I-15000J0D01*
G01*
X16480000Y-4882000D02*
G75*
G02*
X16510000Y-4882000I15000J0D01*
G01*
X16510000Y-6787000D02*
G75*
G02*
X16480000Y-6787000I-15000J0D01*
G01*
X16480000Y-6787000D02*
G75*
G02*
X16510000Y-6787000I15000J0D01*
G01*
X16510000Y-8692000D02*
G75*
G02*
X16480000Y-8692000I-15000J0D01*
G01*
X16480000Y-8692000D02*
G75*
G02*
X16510000Y-8692000I15000J0D01*
G01*
X16510000Y-10597000D02*
G75*
G02*
X16480000Y-10597000I-15000J0D01*
G01*
X16480000Y-10597000D02*
G75*
G02*
X16510000Y-10597000I15000J0D01*
G01*
X16510000Y-12502000D02*
G75*
G02*
X16480000Y-12502000I-15000J0D01*
G01*
X16480000Y-12502000D02*
G75*
G02*
X16510000Y-12502000I15000J0D01*
G01*
X17154000Y-5131000D02*
G75*
G02*
X17124000Y-5131000I-15000J0D01*
G01*
X17124000Y-5131000D02*
G75*
G02*
X17154000Y-5131000I15000J0D01*
G01*
X17154000Y-7036000D02*
G75*
G02*
X17124000Y-7036000I-15000J0D01*
G01*
X17124000Y-7036000D02*
G75*
G02*
X17154000Y-7036000I15000J0D01*
G01*
X17154000Y-8941000D02*
G75*
G02*
X17124000Y-8941000I-15000J0D01*
G01*
X17124000Y-8941000D02*
G75*
G02*
X17154000Y-8941000I15000J0D01*
G01*
X17154000Y-10846000D02*
G75*
G02*
X17124000Y-10846000I-15000J0D01*
G01*
X17124000Y-10846000D02*
G75*
G02*
X17154000Y-10846000I15000J0D01*
G01*
X17154000Y-12751000D02*
G75*
G02*
X17124000Y-12751000I-15000J0D01*
G01*
X17124000Y-12751000D02*
G75*
G02*
X17154000Y-12751000I15000J0D01*
G01*
X18415000Y-5132000D02*
G75*
G02*
X18385000Y-5132000I-15000J0D01*
G01*
X18385000Y-5132000D02*
G75*
G02*
X18415000Y-5132000I15000J0D01*
G01*
X18415000Y-7037000D02*
G75*
G02*
X18385000Y-7037000I-15000J0D01*
G01*
X18385000Y-7037000D02*
G75*
G02*
X18415000Y-7037000I15000J0D01*
G01*
X18415000Y-8942000D02*
G75*
G02*
X18385000Y-8942000I-15000J0D01*
G01*
X18385000Y-8942000D02*
G75*
G02*
X18415000Y-8942000I15000J0D01*
G01*
X18415000Y-10847000D02*
G75*
G02*
X18385000Y-10847000I-15000J0D01*
G01*
X18385000Y-10847000D02*
G75*
G02*
X18415000Y-10847000I15000J0D01*
G01*
X18415000Y-12752000D02*
G75*
G02*
X18385000Y-12752000I-15000J0D01*
G01*
X18385000Y-12752000D02*
G75*
G02*
X18415000Y-12752000I15000J0D01*
G01*
X19059000Y-5621000D02*
G75*
G02*
X19029000Y-5621000I-15000J0D01*
G01*
X19029000Y-5621000D02*
G75*
G02*
X19059000Y-5621000I15000J0D01*
G01*
X19059000Y-7526000D02*
G75*
G02*
X19029000Y-7526000I-15000J0D01*
G01*
X19029000Y-7526000D02*
G75*
G02*
X19059000Y-7526000I15000J0D01*
G01*
X19059000Y-9431000D02*
G75*
G02*
X19029000Y-9431000I-15000J0D01*
G01*
X19029000Y-9431000D02*
G75*
G02*
X19059000Y-9431000I15000J0D01*
G01*
X19059000Y-11336000D02*
G75*
G02*
X19029000Y-11336000I-15000J0D01*
G01*
X19029000Y-11336000D02*
G75*
G02*
X19059000Y-11336000I15000J0D01*
G01*
X20320000Y-5622000D02*
G75*
G02*
X20290000Y-5622000I-15000J0D01*
G01*
X20290000Y-5622000D02*
G75*
G02*
X20320000Y-5622000I15000J0D01*
G01*
X20320000Y-7527000D02*
G75*
G02*
X20290000Y-7527000I-15000J0D01*
G01*
X20290000Y-7527000D02*
G75*
G02*
X20320000Y-7527000I15000J0D01*
G01*
X20320000Y-9432000D02*
G75*
G02*
X20290000Y-9432000I-15000J0D01*
G01*
X20290000Y-9432000D02*
G75*
G02*
X20320000Y-9432000I15000J0D01*
G01*
X20320000Y-11337000D02*
G75*
G02*
X20290000Y-11337000I-15000J0D01*
G01*
X20290000Y-11337000D02*
G75*
G02*
X20320000Y-11337000I15000J0D01*
G01*
X20964000Y-5621000D02*
G75*
G02*
X20934000Y-5621000I-15000J0D01*
G01*
X20934000Y-5621000D02*
G75*
G02*
X20964000Y-5621000I15000J0D01*
G01*
X20964000Y-7526000D02*
G75*
G02*
X20934000Y-7526000I-15000J0D01*
G01*
X20934000Y-7526000D02*
G75*
G02*
X20964000Y-7526000I15000J0D01*
G01*
X20964000Y-9431000D02*
G75*
G02*
X20934000Y-9431000I-15000J0D01*
G01*
X20934000Y-9431000D02*
G75*
G02*
X20964000Y-9431000I15000J0D01*
G01*
X20964000Y-11336000D02*
G75*
G02*
X20934000Y-11336000I-15000J0D01*
G01*
X20934000Y-11336000D02*
G75*
G02*
X20964000Y-11336000I15000J0D01*
G01*
X22225000Y-5622000D02*
G75*
G02*
X22195000Y-5622000I-15000J0D01*
G01*
X22195000Y-5622000D02*
G75*
G02*
X22225000Y-5622000I15000J0D01*
G01*
X22225000Y-7527000D02*
G75*
G02*
X22195000Y-7527000I-15000J0D01*
G01*
X22195000Y-7527000D02*
G75*
G02*
X22225000Y-7527000I15000J0D01*
G01*
X22225000Y-9432000D02*
G75*
G02*
X22195000Y-9432000I-15000J0D01*
G01*
X22195000Y-9432000D02*
G75*
G02*
X22225000Y-9432000I15000J0D01*
G01*
X22225000Y-11337000D02*
G75*
G02*
X22195000Y-11337000I-15000J0D01*
G01*
X22195000Y-11337000D02*
G75*
G02*
X22225000Y-11337000I15000J0D01*
G01*
X8357040Y-11927640D02*
X8357040Y-12007640D01*
X8317040Y-11967640D02*
X8397040Y-11967640D01*
X8357040Y-12284080D02*
X8357040Y-12364080D01*
X8317040Y-12324080D02*
X8397040Y-12324080D01*
X8605250Y-3612490D02*
X8605250Y-3692490D01*
X8565250Y-3652490D02*
X8645250Y-3652490D01*
X8605250Y-3866490D02*
X8605250Y-3946490D01*
X8565250Y-3906490D02*
X8645250Y-3906490D01*
X8605250Y-4120490D02*
X8605250Y-4200490D01*
X8565250Y-4160490D02*
X8645250Y-4160490D01*
X8605250Y-4374490D02*
X8605250Y-4454490D01*
X8565250Y-4414490D02*
X8645250Y-4414490D01*
X8605250Y-4628490D02*
X8605250Y-4708490D01*
X8565250Y-4668490D02*
X8645250Y-4668490D01*
X8605250Y-4882490D02*
X8605250Y-4962490D01*
X8565250Y-4922490D02*
X8645250Y-4922490D01*
X8605250Y-5136490D02*
X8605250Y-5216490D01*
X8565250Y-5176490D02*
X8645250Y-5176490D01*
X8605250Y-5390490D02*
X8605250Y-5470490D01*
X8565250Y-5430490D02*
X8645250Y-5430490D01*
X8605250Y-5644490D02*
X8605250Y-5724490D01*
X8565250Y-5684490D02*
X8645250Y-5684490D01*
X8605250Y-5898490D02*
X8605250Y-5978490D01*
X8565250Y-5938490D02*
X8645250Y-5938490D01*
X8605250Y-6152490D02*
X8605250Y-6232490D01*
X8565250Y-6192490D02*
X8645250Y-6192490D01*
X8605250Y-6406490D02*
X8605250Y-6486490D01*
X8565250Y-6446490D02*
X8645250Y-6446490D01*
X8605250Y-6660490D02*
X8605250Y-6740490D01*
X8565250Y-6700490D02*
X8645250Y-6700490D01*
X8605250Y-6914490D02*
X8605250Y-6994490D01*
X8565250Y-6954490D02*
X8645250Y-6954490D01*
X8605250Y-7168490D02*
X8605250Y-7248490D01*
X8565250Y-7208490D02*
X8645250Y-7208490D01*
X8605250Y-7422490D02*
X8605250Y-7502490D01*
X8565250Y-7462490D02*
X8645250Y-7462490D01*
X8605250Y-7676490D02*
X8605250Y-7756490D01*
X8565250Y-7716490D02*
X8645250Y-7716490D01*
X8605250Y-7930490D02*
X8605250Y-8010490D01*
X8565250Y-7970490D02*
X8645250Y-7970490D01*
X8605250Y-8184490D02*
X8605250Y-8264490D01*
X8565250Y-8224490D02*
X8645250Y-8224490D01*
X8605250Y-8438490D02*
X8605250Y-8518490D01*
X8565250Y-8478490D02*
X8645250Y-8478490D01*
X8859250Y-3612490D02*
X8859250Y-3692490D01*
X8819250Y-3652490D02*
X8899250Y-3652490D01*
X8859250Y-3866490D02*
X8859250Y-3946490D01*
X8819250Y-3906490D02*
X8899250Y-3906490D01*
X8859250Y-4120490D02*
X8859250Y-4200490D01*
X8819250Y-4160490D02*
X8899250Y-4160490D01*
X8859250Y-4374490D02*
X8859250Y-4454490D01*
X8819250Y-4414490D02*
X8899250Y-4414490D01*
X8859250Y-4628490D02*
X8859250Y-4708490D01*
X8819250Y-4668490D02*
X8899250Y-4668490D01*
X8859250Y-4882490D02*
X8859250Y-4962490D01*
X8819250Y-4922490D02*
X8899250Y-4922490D01*
X8859250Y-5136490D02*
X8859250Y-5216490D01*
X8819250Y-5176490D02*
X8899250Y-5176490D01*
X8859250Y-5390490D02*
X8859250Y-5470490D01*
X8819250Y-5430490D02*
X8899250Y-5430490D01*
X8859250Y-5644490D02*
X8859250Y-5724490D01*
X8819250Y-5684490D02*
X8899250Y-5684490D01*
X8859250Y-5898490D02*
X8859250Y-5978490D01*
X8819250Y-5938490D02*
X8899250Y-5938490D01*
X8859250Y-6152490D02*
X8859250Y-6232490D01*
X8819250Y-6192490D02*
X8899250Y-6192490D01*
X8859250Y-6406490D02*
X8859250Y-6486490D01*
X8819250Y-6446490D02*
X8899250Y-6446490D01*
X8859250Y-6660490D02*
X8859250Y-6740490D01*
X8819250Y-6700490D02*
X8899250Y-6700490D01*
X8859250Y-6914490D02*
X8859250Y-6994490D01*
X8819250Y-6954490D02*
X8899250Y-6954490D01*
X8859250Y-7168490D02*
X8859250Y-7248490D01*
X8819250Y-7208490D02*
X8899250Y-7208490D01*
X8859250Y-7422490D02*
X8859250Y-7502490D01*
X8819250Y-7462490D02*
X8899250Y-7462490D01*
X8859250Y-7676490D02*
X8859250Y-7756490D01*
X8819250Y-7716490D02*
X8899250Y-7716490D01*
X8859250Y-7930490D02*
X8859250Y-8010490D01*
X8819250Y-7970490D02*
X8899250Y-7970490D01*
X8859250Y-8184490D02*
X8859250Y-8264490D01*
X8819250Y-8224490D02*
X8899250Y-8224490D01*
X8859250Y-8438490D02*
X8859250Y-8518490D01*
X8819250Y-8478490D02*
X8899250Y-8478490D01*
X9373040Y-11927640D02*
X9373040Y-12007640D01*
X9333040Y-11967640D02*
X9413040Y-11967640D01*
X9373040Y-12284080D02*
X9373040Y-12364080D01*
X9333040Y-12324080D02*
X9413040Y-12324080D01*
X9422960Y-4629000D02*
X9422960Y-4709000D01*
X9382960Y-4669000D02*
X9462960Y-4669000D01*
X9422960Y-5645000D02*
X9422960Y-5725000D01*
X9382960Y-5685000D02*
X9462960Y-5685000D01*
X9529640Y-8855560D02*
X9529640Y-8935560D01*
X9489640Y-8895560D02*
X9569640Y-8895560D01*
X9776020Y-4629000D02*
X9776020Y-4709000D01*
X9736020Y-4669000D02*
X9816020Y-4669000D01*
X9776020Y-5645000D02*
X9776020Y-5725000D01*
X9736020Y-5685000D02*
X9816020Y-5685000D01*
X9783640Y-8855560D02*
X9783640Y-8935560D01*
X9743640Y-8895560D02*
X9823640Y-8895560D01*
X10383250Y-3612490D02*
X10383250Y-3692490D01*
X10343250Y-3652490D02*
X10423250Y-3652490D01*
X10383250Y-3866490D02*
X10383250Y-3946490D01*
X10343250Y-3906490D02*
X10423250Y-3906490D01*
X10383250Y-4120490D02*
X10383250Y-4200490D01*
X10343250Y-4160490D02*
X10423250Y-4160490D01*
X10383250Y-4374490D02*
X10383250Y-4454490D01*
X10343250Y-4414490D02*
X10423250Y-4414490D01*
X10383250Y-4628490D02*
X10383250Y-4708490D01*
X10343250Y-4668490D02*
X10423250Y-4668490D01*
X10383250Y-4882490D02*
X10383250Y-4962490D01*
X10343250Y-4922490D02*
X10423250Y-4922490D01*
X10383250Y-5136490D02*
X10383250Y-5216490D01*
X10343250Y-5176490D02*
X10423250Y-5176490D01*
X10383250Y-5390490D02*
X10383250Y-5470490D01*
X10343250Y-5430490D02*
X10423250Y-5430490D01*
X10383250Y-5644490D02*
X10383250Y-5724490D01*
X10343250Y-5684490D02*
X10423250Y-5684490D01*
X10383250Y-5898490D02*
X10383250Y-5978490D01*
X10343250Y-5938490D02*
X10423250Y-5938490D01*
X10383250Y-6152490D02*
X10383250Y-6232490D01*
X10343250Y-6192490D02*
X10423250Y-6192490D01*
X10383250Y-6406490D02*
X10383250Y-6486490D01*
X10343250Y-6446490D02*
X10423250Y-6446490D01*
X10383250Y-6660490D02*
X10383250Y-6740490D01*
X10343250Y-6700490D02*
X10423250Y-6700490D01*
X10383250Y-6914490D02*
X10383250Y-6994490D01*
X10343250Y-6954490D02*
X10423250Y-6954490D01*
X10383250Y-7168490D02*
X10383250Y-7248490D01*
X10343250Y-7208490D02*
X10423250Y-7208490D01*
X10383250Y-7422490D02*
X10383250Y-7502490D01*
X10343250Y-7462490D02*
X10423250Y-7462490D01*
X10383250Y-7676490D02*
X10383250Y-7756490D01*
X10343250Y-7716490D02*
X10423250Y-7716490D01*
X10383250Y-7930490D02*
X10383250Y-8010490D01*
X10343250Y-7970490D02*
X10423250Y-7970490D01*
X10383250Y-8184490D02*
X10383250Y-8264490D01*
X10343250Y-8224490D02*
X10423250Y-8224490D01*
X10383250Y-8438490D02*
X10383250Y-8518490D01*
X10343250Y-8478490D02*
X10423250Y-8478490D01*
X10637250Y-3612490D02*
X10637250Y-3692490D01*
X10597250Y-3652490D02*
X10677250Y-3652490D01*
X10637250Y-3866490D02*
X10637250Y-3946490D01*
X10597250Y-3906490D02*
X10677250Y-3906490D01*
X10637250Y-4120490D02*
X10637250Y-4200490D01*
X10597250Y-4160490D02*
X10677250Y-4160490D01*
X10637250Y-4374490D02*
X10637250Y-4454490D01*
X10597250Y-4414490D02*
X10677250Y-4414490D01*
X10637250Y-4628490D02*
X10637250Y-4708490D01*
X10597250Y-4668490D02*
X10677250Y-4668490D01*
X10637250Y-4882490D02*
X10637250Y-4962490D01*
X10597250Y-4922490D02*
X10677250Y-4922490D01*
X10637250Y-5136490D02*
X10637250Y-5216490D01*
X10597250Y-5176490D02*
X10677250Y-5176490D01*
X10637250Y-5390490D02*
X10637250Y-5470490D01*
X10597250Y-5430490D02*
X10677250Y-5430490D01*
X10637250Y-5644490D02*
X10637250Y-5724490D01*
X10597250Y-5684490D02*
X10677250Y-5684490D01*
X10637250Y-5898490D02*
X10637250Y-5978490D01*
X10597250Y-5938490D02*
X10677250Y-5938490D01*
X10637250Y-6152490D02*
X10637250Y-6232490D01*
X10597250Y-6192490D02*
X10677250Y-6192490D01*
X10637250Y-6406490D02*
X10637250Y-6486490D01*
X10597250Y-6446490D02*
X10677250Y-6446490D01*
X10637250Y-6660490D02*
X10637250Y-6740490D01*
X10597250Y-6700490D02*
X10677250Y-6700490D01*
X10637250Y-6914490D02*
X10637250Y-6994490D01*
X10597250Y-6954490D02*
X10677250Y-6954490D01*
X10637250Y-7168490D02*
X10637250Y-7248490D01*
X10597250Y-7208490D02*
X10677250Y-7208490D01*
X10637250Y-7422490D02*
X10637250Y-7502490D01*
X10597250Y-7462490D02*
X10677250Y-7462490D01*
X10637250Y-7676490D02*
X10637250Y-7756490D01*
X10597250Y-7716490D02*
X10677250Y-7716490D01*
X10637250Y-7930490D02*
X10637250Y-8010490D01*
X10597250Y-7970490D02*
X10677250Y-7970490D01*
X10637250Y-8184490D02*
X10637250Y-8264490D01*
X10597250Y-8224490D02*
X10677250Y-8224490D01*
X10637250Y-8438490D02*
X10637250Y-8518490D01*
X10597250Y-8478490D02*
X10677250Y-8478490D01*
X8389487Y-7863737D02*
X8389487Y-7806263D01*
X8332013Y-7806263D01*
X8332013Y-7863737D01*
X8389487Y-7863737D01*
X8389487Y-8117737D02*
X8389487Y-8060263D01*
X8332013Y-8060263D01*
X8332013Y-8117737D01*
X8389487Y-8117737D01*
X8389487Y-8371737D02*
X8389487Y-8314263D01*
X8332013Y-8314263D01*
X8332013Y-8371737D01*
X8389487Y-8371737D01*
X8389487Y-8625737D02*
X8389487Y-8568263D01*
X8332013Y-8568263D01*
X8332013Y-8625737D01*
X8389487Y-8625737D01*
X8392487Y-5075737D02*
X8392487Y-5018263D01*
X8335013Y-5018263D01*
X8335013Y-5075737D01*
X8392487Y-5075737D01*
X8392487Y-5329737D02*
X8392487Y-5272263D01*
X8335013Y-5272263D01*
X8335013Y-5329737D01*
X8392487Y-5329737D01*
X8392487Y-5583737D02*
X8392487Y-5526263D01*
X8335013Y-5526263D01*
X8335013Y-5583737D01*
X8392487Y-5583737D01*
X8392487Y-5837737D02*
X8392487Y-5780263D01*
X8335013Y-5780263D01*
X8335013Y-5837737D01*
X8392487Y-5837737D01*
X8392487Y-6091737D02*
X8392487Y-6034263D01*
X8335013Y-6034263D01*
X8335013Y-6091737D01*
X8392487Y-6091737D01*
X8392487Y-6345737D02*
X8392487Y-6288263D01*
X8335013Y-6288263D01*
X8335013Y-6345737D01*
X8392487Y-6345737D01*
X8392487Y-6599737D02*
X8392487Y-6542263D01*
X8335013Y-6542263D01*
X8335013Y-6599737D01*
X8392487Y-6599737D01*
X8392487Y-6853737D02*
X8392487Y-6796263D01*
X8335013Y-6796263D01*
X8335013Y-6853737D01*
X8392487Y-6853737D01*
X10913487Y-5075737D02*
X10913487Y-5018263D01*
X10856013Y-5018263D01*
X10856013Y-5075737D01*
X10913487Y-5075737D01*
X10913487Y-5329737D02*
X10913487Y-5272263D01*
X10856013Y-5272263D01*
X10856013Y-5329737D01*
X10913487Y-5329737D01*
X10913487Y-5583737D02*
X10913487Y-5526263D01*
X10856013Y-5526263D01*
X10856013Y-5583737D01*
X10913487Y-5583737D01*
X10913487Y-5837737D02*
X10913487Y-5780263D01*
X10856013Y-5780263D01*
X10856013Y-5837737D01*
X10913487Y-5837737D01*
X10913487Y-6091737D02*
X10913487Y-6034263D01*
X10856013Y-6034263D01*
X10856013Y-6091737D01*
X10913487Y-6091737D01*
X10913487Y-6345737D02*
X10913487Y-6288263D01*
X10856013Y-6288263D01*
X10856013Y-6345737D01*
X10913487Y-6345737D01*
X10913487Y-6599737D02*
X10913487Y-6542263D01*
X10856013Y-6542263D01*
X10856013Y-6599737D01*
X10913487Y-6599737D01*
X10913487Y-6853737D02*
X10913487Y-6796263D01*
X10856013Y-6796263D01*
X10856013Y-6853737D01*
X10913487Y-6853737D01*
X10919737Y-7871737D02*
X10919737Y-7814263D01*
X10862263Y-7814263D01*
X10862263Y-7871737D01*
X10919737Y-7871737D01*
X10919737Y-8125737D02*
X10919737Y-8068263D01*
X10862263Y-8068263D01*
X10862263Y-8125737D01*
X10919737Y-8125737D01*
X10919737Y-8379737D02*
X10919737Y-8322263D01*
X10862263Y-8322263D01*
X10862263Y-8379737D01*
X10919737Y-8379737D01*
X10919737Y-8633737D02*
X10919737Y-8576263D01*
X10862263Y-8576263D01*
X10862263Y-8633737D01*
X10919737Y-8633737D01*
X8363750Y-3698000D02*
X8408750Y-3653000D01*
X8363750Y-3608000D01*
X8318750Y-3653000D01*
X8363750Y-3698000D01*
X8363750Y-4460000D02*
X8408750Y-4415000D01*
X8363750Y-4370000D01*
X8318750Y-4415000D01*
X8363750Y-4460000D01*
X9600000Y-11349000D02*
X9645000Y-11304000D01*
X9600000Y-11259000D01*
X9555000Y-11304000D01*
X9600000Y-11349000D01*
X10153597Y-14171596D02*
X10198597Y-14126596D01*
X10153597Y-14081596D01*
X10108597Y-14126596D01*
X10153597Y-14171596D01*
X10400000Y-11349000D02*
X10445000Y-11304000D01*
X10400000Y-11259000D01*
X10355000Y-11304000D01*
X10400000Y-11349000D01*
X10866403Y-13808404D02*
X10911403Y-13763404D01*
X10866403Y-13718404D01*
X10821403Y-13763404D01*
X10866403Y-13808404D01*
X11644150Y-13938800D02*
X11689150Y-13893800D01*
X11644150Y-13848800D01*
X11599150Y-13893800D01*
X11644150Y-13938800D01*
X11665000Y-6001300D02*
X11710000Y-5956300D01*
X11665000Y-5911300D01*
X11620000Y-5956300D01*
X11665000Y-6001300D01*
X11665000Y-7911300D02*
X11710000Y-7866300D01*
X11665000Y-7821300D01*
X11620000Y-7866300D01*
X11665000Y-7911300D01*
X11665000Y-9811300D02*
X11710000Y-9766300D01*
X11665000Y-9721300D01*
X11620000Y-9766300D01*
X11665000Y-9811300D01*
X11665000Y-11716300D02*
X11710000Y-11671300D01*
X11665000Y-11626300D01*
X11620000Y-11671300D01*
X11665000Y-11716300D01*
X12416890Y-13731745D02*
X12461890Y-13686745D01*
X12416890Y-13641745D01*
X12371890Y-13686745D01*
X12416890Y-13731745D01*
X12465000Y-6001300D02*
X12510000Y-5956300D01*
X12465000Y-5911300D01*
X12420000Y-5956300D01*
X12465000Y-6001300D01*
X12465000Y-7911300D02*
X12510000Y-7866300D01*
X12465000Y-7821300D01*
X12420000Y-7866300D01*
X12465000Y-7911300D01*
X12465000Y-9811300D02*
X12510000Y-9766300D01*
X12465000Y-9721300D01*
X12420000Y-9766300D01*
X12465000Y-9811300D01*
X12465000Y-11716300D02*
X12510000Y-11671300D01*
X12465000Y-11626300D01*
X12420000Y-11671300D01*
X12465000Y-11716300D01*
X13592250Y-5747175D02*
X13637250Y-5702175D01*
X13592250Y-5657175D01*
X13547250Y-5702175D01*
X13592250Y-5747175D01*
X13592250Y-7652175D02*
X13637250Y-7607175D01*
X13592250Y-7562175D01*
X13547250Y-7607175D01*
X13592250Y-7652175D01*
X13592250Y-9557175D02*
X13637250Y-9512175D01*
X13592250Y-9467175D01*
X13547250Y-9512175D01*
X13592250Y-9557175D01*
X13592250Y-11462175D02*
X13637250Y-11417175D01*
X13592250Y-11372175D01*
X13547250Y-11417175D01*
X13592250Y-11462175D01*
X13592250Y-13367175D02*
X13637250Y-13322175D01*
X13592250Y-13277175D01*
X13547250Y-13322175D01*
X13592250Y-13367175D01*
X14392250Y-5747175D02*
X14437250Y-5702175D01*
X14392250Y-5657175D01*
X14347250Y-5702175D01*
X14392250Y-5747175D01*
X14392250Y-7652175D02*
X14437250Y-7607175D01*
X14392250Y-7562175D01*
X14347250Y-7607175D01*
X14392250Y-7652175D01*
X14392250Y-9557175D02*
X14437250Y-9512175D01*
X14392250Y-9467175D01*
X14347250Y-9512175D01*
X14392250Y-9557175D01*
X14392250Y-11462175D02*
X14437250Y-11417175D01*
X14392250Y-11372175D01*
X14347250Y-11417175D01*
X14392250Y-11462175D01*
X14392250Y-13367175D02*
X14437250Y-13322175D01*
X14392250Y-13277175D01*
X14347250Y-13322175D01*
X14392250Y-13367175D01*
X15462800Y-5509500D02*
X15507800Y-5464500D01*
X15462800Y-5419500D01*
X15417800Y-5464500D01*
X15462800Y-5509500D01*
X15462800Y-7411000D02*
X15507800Y-7366000D01*
X15462800Y-7321000D01*
X15417800Y-7366000D01*
X15462800Y-7411000D01*
X15462800Y-9316000D02*
X15507800Y-9271000D01*
X15462800Y-9226000D01*
X15417800Y-9271000D01*
X15462800Y-9316000D01*
X15462800Y-11221000D02*
X15507800Y-11176000D01*
X15462800Y-11131000D01*
X15417800Y-11176000D01*
X15462800Y-11221000D01*
X15462800Y-13126000D02*
X15507800Y-13081000D01*
X15462800Y-13036000D01*
X15417800Y-13081000D01*
X15462800Y-13126000D01*
X16262800Y-5509500D02*
X16307800Y-5464500D01*
X16262800Y-5419500D01*
X16217800Y-5464500D01*
X16262800Y-5509500D01*
X16262800Y-7411000D02*
X16307800Y-7366000D01*
X16262800Y-7321000D01*
X16217800Y-7366000D01*
X16262800Y-7411000D01*
X16262800Y-9316000D02*
X16307800Y-9271000D01*
X16262800Y-9226000D01*
X16217800Y-9271000D01*
X16262800Y-9316000D01*
X16262800Y-11221000D02*
X16307800Y-11176000D01*
X16262800Y-11131000D01*
X16217800Y-11176000D01*
X16262800Y-11221000D01*
X16262800Y-13126000D02*
X16307800Y-13081000D01*
X16262800Y-13036000D01*
X16217800Y-13081000D01*
X16262800Y-13126000D01*
X17367800Y-5756000D02*
X17412800Y-5711000D01*
X17367800Y-5666000D01*
X17322800Y-5711000D01*
X17367800Y-5756000D01*
X17367800Y-7661000D02*
X17412800Y-7616000D01*
X17367800Y-7571000D01*
X17322800Y-7616000D01*
X17367800Y-7661000D01*
X17367800Y-9566000D02*
X17412800Y-9521000D01*
X17367800Y-9476000D01*
X17322800Y-9521000D01*
X17367800Y-9566000D01*
X17367800Y-11471000D02*
X17412800Y-11426000D01*
X17367800Y-11381000D01*
X17322800Y-11426000D01*
X17367800Y-11471000D01*
X17367800Y-13376000D02*
X17412800Y-13331000D01*
X17367800Y-13286000D01*
X17322800Y-13331000D01*
X17367800Y-13376000D01*
X18167800Y-5756000D02*
X18212800Y-5711000D01*
X18167800Y-5666000D01*
X18122800Y-5711000D01*
X18167800Y-5756000D01*
X18167800Y-7661000D02*
X18212800Y-7616000D01*
X18167800Y-7571000D01*
X18122800Y-7616000D01*
X18167800Y-7661000D01*
X18167800Y-9566000D02*
X18212800Y-9521000D01*
X18167800Y-9476000D01*
X18122800Y-9521000D01*
X18167800Y-9566000D01*
X18167800Y-11471000D02*
X18212800Y-11426000D01*
X18167800Y-11381000D01*
X18122800Y-11426000D01*
X18167800Y-11471000D01*
X18167800Y-13376000D02*
X18212800Y-13331000D01*
X18167800Y-13286000D01*
X18122800Y-13331000D01*
X18167800Y-13376000D01*
X19272800Y-6246000D02*
X19317800Y-6201000D01*
X19272800Y-6156000D01*
X19227800Y-6201000D01*
X19272800Y-6246000D01*
X19272800Y-8151000D02*
X19317800Y-8106000D01*
X19272800Y-8061000D01*
X19227800Y-8106000D01*
X19272800Y-8151000D01*
X19272800Y-10056000D02*
X19317800Y-10011000D01*
X19272800Y-9966000D01*
X19227800Y-10011000D01*
X19272800Y-10056000D01*
X19276050Y-11949500D02*
X19321050Y-11904500D01*
X19276050Y-11859500D01*
X19231050Y-11904500D01*
X19276050Y-11949500D01*
X20072800Y-6246000D02*
X20117800Y-6201000D01*
X20072800Y-6156000D01*
X20027800Y-6201000D01*
X20072800Y-6246000D01*
X20072800Y-8151000D02*
X20117800Y-8106000D01*
X20072800Y-8061000D01*
X20027800Y-8106000D01*
X20072800Y-8151000D01*
X20072800Y-10056000D02*
X20117800Y-10011000D01*
X20072800Y-9966000D01*
X20027800Y-10011000D01*
X20072800Y-10056000D01*
X20076050Y-11949500D02*
X20121050Y-11904500D01*
X20076050Y-11859500D01*
X20031050Y-11904500D01*
X20076050Y-11949500D01*
X21177800Y-6246000D02*
X21222800Y-6201000D01*
X21177800Y-6156000D01*
X21132800Y-6201000D01*
X21177800Y-6246000D01*
X21177800Y-8151000D02*
X21222800Y-8106000D01*
X21177800Y-8061000D01*
X21132800Y-8106000D01*
X21177800Y-8151000D01*
X21177800Y-10056000D02*
X21222800Y-10011000D01*
X21177800Y-9966000D01*
X21132800Y-10011000D01*
X21177800Y-10056000D01*
X21177800Y-11961000D02*
X21222800Y-11916000D01*
X21177800Y-11871000D01*
X21132800Y-11916000D01*
X21177800Y-11961000D01*
X21977800Y-6246000D02*
X22022800Y-6201000D01*
X21977800Y-6156000D01*
X21932800Y-6201000D01*
X21977800Y-6246000D01*
X21977800Y-8151000D02*
X22022800Y-8106000D01*
X21977800Y-8061000D01*
X21932800Y-8106000D01*
X21977800Y-8151000D01*
X21977800Y-10056000D02*
X22022800Y-10011000D01*
X21977800Y-9966000D01*
X21932800Y-10011000D01*
X21977800Y-10056000D01*
X21977800Y-11961000D02*
X22022800Y-11916000D01*
X21977800Y-11871000D01*
X21932800Y-11916000D01*
X21977800Y-11961000D01*
X8319300Y-10554500D02*
X8419300Y-10654500D01*
X8419300Y-10554500D02*
X8319300Y-10654500D01*
X8419300Y-10604500D02*
G75*
G02*
X8319300Y-10604500I-50000J0D01*
G01*
X8319300Y-10604500D02*
G75*
G02*
X8419300Y-10604500I50000J0D01*
G01*
X8319300Y-10808500D02*
X8419300Y-10908500D01*
X8419300Y-10808500D02*
X8319300Y-10908500D01*
X8419300Y-10858500D02*
G75*
G02*
X8319300Y-10858500I-50000J0D01*
G01*
X8319300Y-10858500D02*
G75*
G02*
X8419300Y-10858500I50000J0D01*
G01*
X8319300Y-11062500D02*
X8419300Y-11162500D01*
X8419300Y-11062500D02*
X8319300Y-11162500D01*
X8419300Y-11112500D02*
G75*
G02*
X8319300Y-11112500I-50000J0D01*
G01*
X8319300Y-11112500D02*
G75*
G02*
X8419300Y-11112500I50000J0D01*
G01*
X8319300Y-11570500D02*
X8419300Y-11670500D01*
X8419300Y-11570500D02*
X8319300Y-11670500D01*
X8419300Y-11620500D02*
G75*
G02*
X8319300Y-11620500I-50000J0D01*
G01*
X8319300Y-11620500D02*
G75*
G02*
X8419300Y-11620500I50000J0D01*
G01*
X8419000Y-8847000D02*
X8519000Y-8947000D01*
X8519000Y-8847000D02*
X8419000Y-8947000D01*
X8519000Y-8897000D02*
G75*
G02*
X8419000Y-8897000I-50000J0D01*
G01*
X8419000Y-8897000D02*
G75*
G02*
X8519000Y-8897000I50000J0D01*
G01*
X8444000Y-8947000D02*
X8494000Y-8947000D01*
X8494000Y-8847000D02*
G75*
G02*
X8494000Y-8947000I0J-50000D01*
G01*
X8494000Y-8847000D02*
X8444000Y-8847000D01*
X8444000Y-8847000D02*
G75*
G03*
X8444000Y-8947000I0J-50000D01*
G01*
X8419000Y-9442000D02*
X8519000Y-9542000D01*
X8519000Y-9442000D02*
X8419000Y-9542000D01*
X8519000Y-9492000D02*
G75*
G02*
X8419000Y-9492000I-50000J0D01*
G01*
X8419000Y-9492000D02*
G75*
G02*
X8519000Y-9492000I50000J0D01*
G01*
X8444000Y-9542000D02*
X8494000Y-9542000D01*
X8494000Y-9442000D02*
G75*
G02*
X8494000Y-9542000I0J-50000D01*
G01*
X8494000Y-9442000D02*
X8444000Y-9442000D01*
X8444000Y-9442000D02*
G75*
G03*
X8444000Y-9542000I0J-50000D01*
G01*
X8573300Y-10554500D02*
X8673300Y-10654500D01*
X8673300Y-10554500D02*
X8573300Y-10654500D01*
X8673300Y-10604500D02*
G75*
G02*
X8573300Y-10604500I-50000J0D01*
G01*
X8573300Y-10604500D02*
G75*
G02*
X8673300Y-10604500I50000J0D01*
G01*
X8573300Y-10808500D02*
X8673300Y-10908500D01*
X8673300Y-10808500D02*
X8573300Y-10908500D01*
X8673300Y-10858500D02*
G75*
G02*
X8573300Y-10858500I-50000J0D01*
G01*
X8573300Y-10858500D02*
G75*
G02*
X8673300Y-10858500I50000J0D01*
G01*
X8573300Y-11062500D02*
X8673300Y-11162500D01*
X8673300Y-11062500D02*
X8573300Y-11162500D01*
X8673300Y-11112500D02*
G75*
G02*
X8573300Y-11112500I-50000J0D01*
G01*
X8573300Y-11112500D02*
G75*
G02*
X8673300Y-11112500I50000J0D01*
G01*
X8573300Y-11316500D02*
X8673300Y-11416500D01*
X8673300Y-11316500D02*
X8573300Y-11416500D01*
X8673300Y-11366500D02*
G75*
G02*
X8573300Y-11366500I-50000J0D01*
G01*
X8573300Y-11366500D02*
G75*
G02*
X8673300Y-11366500I50000J0D01*
G01*
X8573300Y-11570500D02*
X8673300Y-11670500D01*
X8673300Y-11570500D02*
X8573300Y-11670500D01*
X8673300Y-11620500D02*
G75*
G02*
X8573300Y-11620500I-50000J0D01*
G01*
X8573300Y-11620500D02*
G75*
G02*
X8673300Y-11620500I50000J0D01*
G01*
X8719000Y-8847000D02*
X8819000Y-8947000D01*
X8819000Y-8847000D02*
X8719000Y-8947000D01*
X8819000Y-8897000D02*
G75*
G02*
X8719000Y-8897000I-50000J0D01*
G01*
X8719000Y-8897000D02*
G75*
G02*
X8819000Y-8897000I50000J0D01*
G01*
X8744000Y-8947000D02*
X8794000Y-8947000D01*
X8794000Y-8847000D02*
G75*
G02*
X8794000Y-8947000I0J-50000D01*
G01*
X8794000Y-8847000D02*
X8744000Y-8847000D01*
X8744000Y-8847000D02*
G75*
G03*
X8744000Y-8947000I0J-50000D01*
G01*
X8719000Y-9442000D02*
X8819000Y-9542000D01*
X8819000Y-9442000D02*
X8719000Y-9542000D01*
X8819000Y-9492000D02*
G75*
G02*
X8719000Y-9492000I-50000J0D01*
G01*
X8719000Y-9492000D02*
G75*
G02*
X8819000Y-9492000I50000J0D01*
G01*
X8744000Y-9542000D02*
X8794000Y-9542000D01*
X8794000Y-9442000D02*
G75*
G02*
X8794000Y-9542000I0J-50000D01*
G01*
X8794000Y-9442000D02*
X8744000Y-9442000D01*
X8744000Y-9442000D02*
G75*
G03*
X8744000Y-9542000I0J-50000D01*
G01*
X8827300Y-10554500D02*
X8927300Y-10654500D01*
X8927300Y-10554500D02*
X8827300Y-10654500D01*
X8927300Y-10604500D02*
G75*
G02*
X8827300Y-10604500I-50000J0D01*
G01*
X8827300Y-10604500D02*
G75*
G02*
X8927300Y-10604500I50000J0D01*
G01*
X8827300Y-10808500D02*
X8927300Y-10908500D01*
X8927300Y-10808500D02*
X8827300Y-10908500D01*
X8927300Y-10858500D02*
G75*
G02*
X8827300Y-10858500I-50000J0D01*
G01*
X8827300Y-10858500D02*
G75*
G02*
X8927300Y-10858500I50000J0D01*
G01*
X8827300Y-11062500D02*
X8927300Y-11162500D01*
X8927300Y-11062500D02*
X8827300Y-11162500D01*
X8927300Y-11112500D02*
G75*
G02*
X8827300Y-11112500I-50000J0D01*
G01*
X8827300Y-11112500D02*
G75*
G02*
X8927300Y-11112500I50000J0D01*
G01*
X8827300Y-11316500D02*
X8927300Y-11416500D01*
X8927300Y-11316500D02*
X8827300Y-11416500D01*
X8927300Y-11366500D02*
G75*
G02*
X8827300Y-11366500I-50000J0D01*
G01*
X8827300Y-11366500D02*
G75*
G02*
X8927300Y-11366500I50000J0D01*
G01*
X8827300Y-11570500D02*
X8927300Y-11670500D01*
X8927300Y-11570500D02*
X8827300Y-11670500D01*
X8927300Y-11620500D02*
G75*
G02*
X8827300Y-11620500I-50000J0D01*
G01*
X8827300Y-11620500D02*
G75*
G02*
X8927300Y-11620500I50000J0D01*
G01*
X9119000Y-8847000D02*
X9219000Y-8947000D01*
X9219000Y-8847000D02*
X9119000Y-8947000D01*
X9219000Y-8897000D02*
G75*
G02*
X9119000Y-8897000I-50000J0D01*
G01*
X9119000Y-8897000D02*
G75*
G02*
X9219000Y-8897000I50000J0D01*
G01*
X9144000Y-8947000D02*
X9194000Y-8947000D01*
X9194000Y-8847000D02*
G75*
G02*
X9194000Y-8947000I0J-50000D01*
G01*
X9194000Y-8847000D02*
X9144000Y-8847000D01*
X9144000Y-8847000D02*
G75*
G03*
X9144000Y-8947000I0J-50000D01*
G01*
X9119000Y-9442000D02*
X9219000Y-9542000D01*
X9219000Y-9442000D02*
X9119000Y-9542000D01*
X9219000Y-9492000D02*
G75*
G02*
X9119000Y-9492000I-50000J0D01*
G01*
X9119000Y-9492000D02*
G75*
G02*
X9219000Y-9492000I50000J0D01*
G01*
X9144000Y-9542000D02*
X9194000Y-9542000D01*
X9194000Y-9442000D02*
G75*
G02*
X9194000Y-9542000I0J-50000D01*
G01*
X9194000Y-9442000D02*
X9144000Y-9442000D01*
X9144000Y-9442000D02*
G75*
G03*
X9144000Y-9542000I0J-50000D01*
G01*
X9250000Y-10150000D02*
X9350000Y-10250000D01*
X9350000Y-10150000D02*
X9250000Y-10250000D01*
X9350000Y-10200000D02*
G75*
G02*
X9250000Y-10200000I-50000J0D01*
G01*
X9250000Y-10200000D02*
G75*
G02*
X9350000Y-10200000I50000J0D01*
G01*
X9250000Y-10650000D02*
X9350000Y-10750000D01*
X9350000Y-10650000D02*
X9250000Y-10750000D01*
X9350000Y-10700000D02*
G75*
G02*
X9250000Y-10700000I-50000J0D01*
G01*
X9250000Y-10700000D02*
G75*
G02*
X9350000Y-10700000I50000J0D01*
G01*
X9269000Y-9022000D02*
X9369000Y-9122000D01*
X9369000Y-9022000D02*
X9269000Y-9122000D01*
X9369000Y-9072000D02*
G75*
G02*
X9269000Y-9072000I-50000J0D01*
G01*
X9269000Y-9072000D02*
G75*
G02*
X9369000Y-9072000I50000J0D01*
G01*
X9294000Y-9122000D02*
X9344000Y-9122000D01*
X9344000Y-9022000D02*
G75*
G02*
X9344000Y-9122000I0J-50000D01*
G01*
X9344000Y-9022000D02*
X9294000Y-9022000D01*
X9294000Y-9022000D02*
G75*
G03*
X9294000Y-9122000I0J-50000D01*
G01*
X9269000Y-9267000D02*
X9369000Y-9367000D01*
X9369000Y-9267000D02*
X9269000Y-9367000D01*
X9369000Y-9317000D02*
G75*
G02*
X9269000Y-9317000I-50000J0D01*
G01*
X9269000Y-9317000D02*
G75*
G02*
X9369000Y-9317000I50000J0D01*
G01*
X9294000Y-9367000D02*
X9344000Y-9367000D01*
X9344000Y-9267000D02*
G75*
G02*
X9344000Y-9367000I0J-50000D01*
G01*
X9344000Y-9267000D02*
X9294000Y-9267000D01*
X9294000Y-9267000D02*
G75*
G03*
X9294000Y-9367000I0J-50000D01*
G01*
X10700000Y-10150000D02*
X10800000Y-10250000D01*
X10800000Y-10150000D02*
X10700000Y-10250000D01*
X10800000Y-10200000D02*
G75*
G02*
X10700000Y-10200000I-50000J0D01*
G01*
X10700000Y-10200000D02*
G75*
G02*
X10800000Y-10200000I50000J0D01*
G01*
X10700000Y-10400000D02*
X10800000Y-10500000D01*
X10800000Y-10400000D02*
X10700000Y-10500000D01*
X10800000Y-10450000D02*
G75*
G02*
X10700000Y-10450000I-50000J0D01*
G01*
X10700000Y-10450000D02*
G75*
G02*
X10800000Y-10450000I50000J0D01*
G01*
X10700000Y-10650000D02*
X10800000Y-10750000D01*
X10800000Y-10650000D02*
X10700000Y-10750000D01*
X10800000Y-10700000D02*
G75*
G02*
X10700000Y-10700000I-50000J0D01*
G01*
X10700000Y-10700000D02*
G75*
G02*
X10800000Y-10700000I50000J0D01*
G01*
X22090500Y-4639500D02*
X22190500Y-4739500D01*
X22190500Y-4639500D02*
X22090500Y-4739500D01*
X22190500Y-4689500D02*
G75*
G02*
X22090500Y-4689500I-50000J0D01*
G01*
X22090500Y-4689500D02*
G75*
G02*
X22190500Y-4689500I50000J0D01*
G01*
D14*
X12897500Y-8027000D02*
X13117500Y-8247000D01*
X13117500Y-8027000D02*
X12897500Y-8247000D01*
X13007500Y-8027000D02*
X13007500Y-8247000D01*
X12897500Y-8137000D02*
X13117500Y-8137000D01*
X14802500Y-6122000D02*
X15022500Y-6342000D01*
X15022500Y-6122000D02*
X14802500Y-6342000D01*
X14912500Y-6122000D02*
X14912500Y-6342000D01*
X14802500Y-6232000D02*
X15022500Y-6232000D01*
X14802500Y-9932000D02*
X15022500Y-10152000D01*
X15022500Y-9932000D02*
X14802500Y-10152000D01*
X14912500Y-9932000D02*
X14912500Y-10152000D01*
X14802500Y-10042000D02*
X15022500Y-10042000D01*
X16707500Y-8027000D02*
X16927500Y-8247000D01*
X16927500Y-8027000D02*
X16707500Y-8247000D01*
X16817500Y-8027000D02*
X16817500Y-8247000D01*
X16707500Y-8137000D02*
X16927500Y-8137000D01*
D15*
X8359903Y-9895000D02*
X8769903Y-10305000D01*
X8769903Y-9895000D02*
X8359903Y-10305000D01*
X8709862Y-10244958D02*
X8709862Y-9955042D01*
X8419945Y-9955042D01*
X8419945Y-10244958D01*
X8709862Y-10244958D01*
X10154000Y-11848000D02*
X10564000Y-12258000D01*
X10564000Y-11848000D02*
X10154000Y-12258000D01*
X10503958Y-12197958D02*
X10503958Y-11908042D01*
X10214042Y-11908042D01*
X10214042Y-12197958D01*
X10503958Y-12197958D01*
X10309000Y-8854000D02*
X10719000Y-9264000D01*
X10719000Y-8854000D02*
X10309000Y-9264000D01*
X10658958Y-9203958D02*
X10658958Y-8914042D01*
X10369042Y-8914042D01*
X10369042Y-9203958D01*
X10658958Y-9203958D01*
X10996000Y-3506750D02*
X11406000Y-3916750D01*
X11406000Y-3506750D02*
X10996000Y-3916750D01*
X11345958Y-3856708D02*
X11345958Y-3566792D01*
X11056042Y-3566792D01*
X11056042Y-3856708D01*
X11345958Y-3856708D01*
X12739000Y-5746000D02*
X13149000Y-6156000D01*
X13149000Y-5746000D02*
X12739000Y-6156000D01*
X13088958Y-6095958D02*
X13088958Y-5806042D01*
X12799042Y-5806042D01*
X12799042Y-6095958D01*
X13088958Y-6095958D01*
X12748000Y-9541000D02*
X13158000Y-9951000D01*
X13158000Y-9541000D02*
X12748000Y-9951000D01*
X13097958Y-9890958D02*
X13097958Y-9601042D01*
X12808042Y-9601042D01*
X12808042Y-9890958D01*
X13097958Y-9890958D01*
X20422500Y-9797500D02*
X20832500Y-10207500D01*
X20832500Y-9797500D02*
X20422500Y-10207500D01*
X20772458Y-10147458D02*
X20772458Y-9857542D01*
X20482542Y-9857542D01*
X20482542Y-10147458D01*
X20772458Y-10147458D01*
X20424000Y-5986000D02*
X20834000Y-6396000D01*
X20834000Y-5986000D02*
X20424000Y-6396000D01*
X20773958Y-6335958D02*
X20773958Y-6046042D01*
X20484042Y-6046042D01*
X20484042Y-6335958D01*
X20773958Y-6335958D01*
D13*
X8396101Y-15343846D02*
X8396101Y-15143846D01*
X8396101Y-15143846D02*
X8443720Y-15143846D01*
X8443720Y-15143846D02*
X8472292Y-15153370D01*
X8472292Y-15153370D02*
X8491339Y-15172417D01*
X8491339Y-15172417D02*
X8500863Y-15191465D01*
X8500863Y-15191465D02*
X8510387Y-15229560D01*
X8510387Y-15229560D02*
X8510387Y-15258132D01*
X8510387Y-15258132D02*
X8500863Y-15296227D01*
X8500863Y-15296227D02*
X8491339Y-15315275D01*
X8491339Y-15315275D02*
X8472292Y-15334322D01*
X8472292Y-15334322D02*
X8443720Y-15343846D01*
X8443720Y-15343846D02*
X8396101Y-15343846D01*
X8596101Y-15343846D02*
X8596101Y-15210513D01*
X8596101Y-15248608D02*
X8605625Y-15229560D01*
X8605625Y-15229560D02*
X8615149Y-15220036D01*
X8615149Y-15220036D02*
X8634196Y-15210513D01*
X8634196Y-15210513D02*
X8653244Y-15210513D01*
X8719911Y-15343846D02*
X8719911Y-15210513D01*
X8719911Y-15143846D02*
X8710387Y-15153370D01*
X8710387Y-15153370D02*
X8719911Y-15162894D01*
X8719911Y-15162894D02*
X8729435Y-15153370D01*
X8729435Y-15153370D02*
X8719911Y-15143846D01*
X8719911Y-15143846D02*
X8719911Y-15162894D01*
X8843720Y-15343846D02*
X8824673Y-15334322D01*
X8824673Y-15334322D02*
X8815149Y-15315275D01*
X8815149Y-15315275D02*
X8815149Y-15143846D01*
X8948482Y-15343846D02*
X8929435Y-15334322D01*
X8929435Y-15334322D02*
X8919911Y-15315275D01*
X8919911Y-15315275D02*
X8919911Y-15143846D01*
X9177054Y-15343846D02*
X9177054Y-15143846D01*
X9177054Y-15143846D02*
X9243720Y-15286703D01*
X9243720Y-15286703D02*
X9310387Y-15143846D01*
X9310387Y-15143846D02*
X9310387Y-15343846D01*
X9491339Y-15343846D02*
X9491339Y-15239084D01*
X9491339Y-15239084D02*
X9481816Y-15220036D01*
X9481816Y-15220036D02*
X9462768Y-15210513D01*
X9462768Y-15210513D02*
X9424673Y-15210513D01*
X9424673Y-15210513D02*
X9405625Y-15220036D01*
X9491339Y-15334322D02*
X9472292Y-15343846D01*
X9472292Y-15343846D02*
X9424673Y-15343846D01*
X9424673Y-15343846D02*
X9405625Y-15334322D01*
X9405625Y-15334322D02*
X9396101Y-15315275D01*
X9396101Y-15315275D02*
X9396101Y-15296227D01*
X9396101Y-15296227D02*
X9405625Y-15277179D01*
X9405625Y-15277179D02*
X9424673Y-15267656D01*
X9424673Y-15267656D02*
X9472292Y-15267656D01*
X9472292Y-15267656D02*
X9491339Y-15258132D01*
X9586577Y-15210513D02*
X9586577Y-15410513D01*
X9586577Y-15220036D02*
X9605625Y-15210513D01*
X9605625Y-15210513D02*
X9643720Y-15210513D01*
X9643720Y-15210513D02*
X9662768Y-15220036D01*
X9662768Y-15220036D02*
X9672292Y-15229560D01*
X9672292Y-15229560D02*
X9681816Y-15248608D01*
X9681816Y-15248608D02*
X9681816Y-15305751D01*
X9681816Y-15305751D02*
X9672292Y-15324798D01*
X9672292Y-15324798D02*
X9662768Y-15334322D01*
X9662768Y-15334322D02*
X9643720Y-15343846D01*
X9643720Y-15343846D02*
X9605625Y-15343846D01*
X9605625Y-15343846D02*
X9586577Y-15334322D01*
X9767530Y-15324798D02*
X9777054Y-15334322D01*
X9777054Y-15334322D02*
X9767530Y-15343846D01*
X9767530Y-15343846D02*
X9758006Y-15334322D01*
X9758006Y-15334322D02*
X9767530Y-15324798D01*
X9767530Y-15324798D02*
X9767530Y-15343846D01*
X9767530Y-15220036D02*
X9777054Y-15229560D01*
X9777054Y-15229560D02*
X9767530Y-15239084D01*
X9767530Y-15239084D02*
X9758006Y-15229560D01*
X9758006Y-15229560D02*
X9767530Y-15220036D01*
X9767530Y-15220036D02*
X9767530Y-15239084D01*
D10*
X8105324Y-15657362D02*
X8135324Y-15687362D01*
X8135324Y-15657362D02*
X8105324Y-15687362D01*
D13*
X8434196Y-15563846D02*
X8453244Y-15563846D01*
X8453244Y-15563846D02*
X8472292Y-15573370D01*
X8472292Y-15573370D02*
X8481816Y-15582894D01*
X8481816Y-15582894D02*
X8491339Y-15601941D01*
X8491339Y-15601941D02*
X8500863Y-15640036D01*
X8500863Y-15640036D02*
X8500863Y-15687656D01*
X8500863Y-15687656D02*
X8491339Y-15725751D01*
X8491339Y-15725751D02*
X8481816Y-15744798D01*
X8481816Y-15744798D02*
X8472292Y-15754322D01*
X8472292Y-15754322D02*
X8453244Y-15763846D01*
X8453244Y-15763846D02*
X8434196Y-15763846D01*
X8434196Y-15763846D02*
X8415149Y-15754322D01*
X8415149Y-15754322D02*
X8405625Y-15744798D01*
X8405625Y-15744798D02*
X8396101Y-15725751D01*
X8396101Y-15725751D02*
X8386577Y-15687656D01*
X8386577Y-15687656D02*
X8386577Y-15640036D01*
X8386577Y-15640036D02*
X8396101Y-15601941D01*
X8396101Y-15601941D02*
X8405625Y-15582894D01*
X8405625Y-15582894D02*
X8415149Y-15573370D01*
X8415149Y-15573370D02*
X8434196Y-15563846D01*
X8586577Y-15744798D02*
X8596101Y-15754322D01*
X8596101Y-15754322D02*
X8586577Y-15763846D01*
X8586577Y-15763846D02*
X8577054Y-15754322D01*
X8577054Y-15754322D02*
X8586577Y-15744798D01*
X8586577Y-15744798D02*
X8586577Y-15763846D01*
X8662768Y-15563846D02*
X8786577Y-15563846D01*
X8786577Y-15563846D02*
X8719911Y-15640036D01*
X8719911Y-15640036D02*
X8748482Y-15640036D01*
X8748482Y-15640036D02*
X8767530Y-15649560D01*
X8767530Y-15649560D02*
X8777054Y-15659084D01*
X8777054Y-15659084D02*
X8786577Y-15678132D01*
X8786577Y-15678132D02*
X8786577Y-15725751D01*
X8786577Y-15725751D02*
X8777054Y-15744798D01*
X8777054Y-15744798D02*
X8767530Y-15754322D01*
X8767530Y-15754322D02*
X8748482Y-15763846D01*
X8748482Y-15763846D02*
X8691339Y-15763846D01*
X8691339Y-15763846D02*
X8672292Y-15754322D01*
X8672292Y-15754322D02*
X8662768Y-15744798D01*
X8910387Y-15563846D02*
X8929435Y-15563846D01*
X8929435Y-15563846D02*
X8948482Y-15573370D01*
X8948482Y-15573370D02*
X8958006Y-15582894D01*
X8958006Y-15582894D02*
X8967530Y-15601941D01*
X8967530Y-15601941D02*
X8977054Y-15640036D01*
X8977054Y-15640036D02*
X8977054Y-15687656D01*
X8977054Y-15687656D02*
X8967530Y-15725751D01*
X8967530Y-15725751D02*
X8958006Y-15744798D01*
X8958006Y-15744798D02*
X8948482Y-15754322D01*
X8948482Y-15754322D02*
X8929435Y-15763846D01*
X8929435Y-15763846D02*
X8910387Y-15763846D01*
X8910387Y-15763846D02*
X8891339Y-15754322D01*
X8891339Y-15754322D02*
X8881816Y-15744798D01*
X8881816Y-15744798D02*
X8872292Y-15725751D01*
X8872292Y-15725751D02*
X8862768Y-15687656D01*
X8862768Y-15687656D02*
X8862768Y-15640036D01*
X8862768Y-15640036D02*
X8872292Y-15601941D01*
X8872292Y-15601941D02*
X8881816Y-15582894D01*
X8881816Y-15582894D02*
X8891339Y-15573370D01*
X8891339Y-15573370D02*
X8910387Y-15563846D01*
X9100863Y-15563846D02*
X9119911Y-15563846D01*
X9119911Y-15563846D02*
X9138958Y-15573370D01*
X9138958Y-15573370D02*
X9148482Y-15582894D01*
X9148482Y-15582894D02*
X9158006Y-15601941D01*
X9158006Y-15601941D02*
X9167530Y-15640036D01*
X9167530Y-15640036D02*
X9167530Y-15687656D01*
X9167530Y-15687656D02*
X9158006Y-15725751D01*
X9158006Y-15725751D02*
X9148482Y-15744798D01*
X9148482Y-15744798D02*
X9138958Y-15754322D01*
X9138958Y-15754322D02*
X9119911Y-15763846D01*
X9119911Y-15763846D02*
X9100863Y-15763846D01*
X9100863Y-15763846D02*
X9081816Y-15754322D01*
X9081816Y-15754322D02*
X9072292Y-15744798D01*
X9072292Y-15744798D02*
X9062768Y-15725751D01*
X9062768Y-15725751D02*
X9053244Y-15687656D01*
X9053244Y-15687656D02*
X9053244Y-15640036D01*
X9053244Y-15640036D02*
X9062768Y-15601941D01*
X9062768Y-15601941D02*
X9072292Y-15582894D01*
X9072292Y-15582894D02*
X9081816Y-15573370D01*
X9081816Y-15573370D02*
X9100863Y-15563846D01*
X9253244Y-15763846D02*
X9253244Y-15630513D01*
X9253244Y-15649560D02*
X9262768Y-15640036D01*
X9262768Y-15640036D02*
X9281816Y-15630513D01*
X9281816Y-15630513D02*
X9310387Y-15630513D01*
X9310387Y-15630513D02*
X9329435Y-15640036D01*
X9329435Y-15640036D02*
X9338958Y-15659084D01*
X9338958Y-15659084D02*
X9338958Y-15763846D01*
X9338958Y-15659084D02*
X9348482Y-15640036D01*
X9348482Y-15640036D02*
X9367530Y-15630513D01*
X9367530Y-15630513D02*
X9396101Y-15630513D01*
X9396101Y-15630513D02*
X9415149Y-15640036D01*
X9415149Y-15640036D02*
X9424673Y-15659084D01*
X9424673Y-15659084D02*
X9424673Y-15763846D01*
X9519911Y-15763846D02*
X9519911Y-15630513D01*
X9519911Y-15649560D02*
X9529435Y-15640036D01*
X9529435Y-15640036D02*
X9548482Y-15630513D01*
X9548482Y-15630513D02*
X9577054Y-15630513D01*
X9577054Y-15630513D02*
X9596101Y-15640036D01*
X9596101Y-15640036D02*
X9605625Y-15659084D01*
X9605625Y-15659084D02*
X9605625Y-15763846D01*
X9605625Y-15659084D02*
X9615149Y-15640036D01*
X9615149Y-15640036D02*
X9634197Y-15630513D01*
X9634197Y-15630513D02*
X9662768Y-15630513D01*
X9662768Y-15630513D02*
X9681816Y-15640036D01*
X9681816Y-15640036D02*
X9691339Y-15659084D01*
X9691339Y-15659084D02*
X9691339Y-15763846D01*
X10081816Y-15554322D02*
X9910387Y-15811465D01*
X10338959Y-15563846D02*
X10358006Y-15563846D01*
X10358006Y-15563846D02*
X10377054Y-15573370D01*
X10377054Y-15573370D02*
X10386578Y-15582894D01*
X10386578Y-15582894D02*
X10396101Y-15601941D01*
X10396101Y-15601941D02*
X10405625Y-15640036D01*
X10405625Y-15640036D02*
X10405625Y-15687656D01*
X10405625Y-15687656D02*
X10396101Y-15725751D01*
X10396101Y-15725751D02*
X10386578Y-15744798D01*
X10386578Y-15744798D02*
X10377054Y-15754322D01*
X10377054Y-15754322D02*
X10358006Y-15763846D01*
X10358006Y-15763846D02*
X10338959Y-15763846D01*
X10338959Y-15763846D02*
X10319911Y-15754322D01*
X10319911Y-15754322D02*
X10310387Y-15744798D01*
X10310387Y-15744798D02*
X10300863Y-15725751D01*
X10300863Y-15725751D02*
X10291340Y-15687656D01*
X10291340Y-15687656D02*
X10291340Y-15640036D01*
X10291340Y-15640036D02*
X10300863Y-15601941D01*
X10300863Y-15601941D02*
X10310387Y-15582894D01*
X10310387Y-15582894D02*
X10319911Y-15573370D01*
X10319911Y-15573370D02*
X10338959Y-15563846D01*
X10491340Y-15744798D02*
X10500863Y-15754322D01*
X10500863Y-15754322D02*
X10491340Y-15763846D01*
X10491340Y-15763846D02*
X10481816Y-15754322D01*
X10481816Y-15754322D02*
X10491340Y-15744798D01*
X10491340Y-15744798D02*
X10491340Y-15763846D01*
X10624673Y-15563846D02*
X10643721Y-15563846D01*
X10643721Y-15563846D02*
X10662768Y-15573370D01*
X10662768Y-15573370D02*
X10672292Y-15582894D01*
X10672292Y-15582894D02*
X10681816Y-15601941D01*
X10681816Y-15601941D02*
X10691340Y-15640036D01*
X10691340Y-15640036D02*
X10691340Y-15687656D01*
X10691340Y-15687656D02*
X10681816Y-15725751D01*
X10681816Y-15725751D02*
X10672292Y-15744798D01*
X10672292Y-15744798D02*
X10662768Y-15754322D01*
X10662768Y-15754322D02*
X10643721Y-15763846D01*
X10643721Y-15763846D02*
X10624673Y-15763846D01*
X10624673Y-15763846D02*
X10605625Y-15754322D01*
X10605625Y-15754322D02*
X10596101Y-15744798D01*
X10596101Y-15744798D02*
X10586578Y-15725751D01*
X10586578Y-15725751D02*
X10577054Y-15687656D01*
X10577054Y-15687656D02*
X10577054Y-15640036D01*
X10577054Y-15640036D02*
X10586578Y-15601941D01*
X10586578Y-15601941D02*
X10596101Y-15582894D01*
X10596101Y-15582894D02*
X10605625Y-15573370D01*
X10605625Y-15573370D02*
X10624673Y-15563846D01*
X10881816Y-15763846D02*
X10767530Y-15763846D01*
X10824673Y-15763846D02*
X10824673Y-15563846D01*
X10824673Y-15563846D02*
X10805625Y-15592417D01*
X10805625Y-15592417D02*
X10786578Y-15611465D01*
X10786578Y-15611465D02*
X10767530Y-15620989D01*
X11072292Y-15763846D02*
X10958006Y-15763846D01*
X11015149Y-15763846D02*
X11015149Y-15563846D01*
X11015149Y-15563846D02*
X10996101Y-15592417D01*
X10996101Y-15592417D02*
X10977054Y-15611465D01*
X10977054Y-15611465D02*
X10958006Y-15620989D01*
X11186578Y-15649560D02*
X11167530Y-15640036D01*
X11167530Y-15640036D02*
X11158006Y-15630513D01*
X11158006Y-15630513D02*
X11148482Y-15611465D01*
X11148482Y-15611465D02*
X11148482Y-15601941D01*
X11148482Y-15601941D02*
X11158006Y-15582894D01*
X11158006Y-15582894D02*
X11167530Y-15573370D01*
X11167530Y-15573370D02*
X11186578Y-15563846D01*
X11186578Y-15563846D02*
X11224673Y-15563846D01*
X11224673Y-15563846D02*
X11243720Y-15573370D01*
X11243720Y-15573370D02*
X11253244Y-15582894D01*
X11253244Y-15582894D02*
X11262768Y-15601941D01*
X11262768Y-15601941D02*
X11262768Y-15611465D01*
X11262768Y-15611465D02*
X11253244Y-15630513D01*
X11253244Y-15630513D02*
X11243720Y-15640036D01*
X11243720Y-15640036D02*
X11224673Y-15649560D01*
X11224673Y-15649560D02*
X11186578Y-15649560D01*
X11186578Y-15649560D02*
X11167530Y-15659084D01*
X11167530Y-15659084D02*
X11158006Y-15668608D01*
X11158006Y-15668608D02*
X11148482Y-15687656D01*
X11148482Y-15687656D02*
X11148482Y-15725751D01*
X11148482Y-15725751D02*
X11158006Y-15744798D01*
X11158006Y-15744798D02*
X11167530Y-15754322D01*
X11167530Y-15754322D02*
X11186578Y-15763846D01*
X11186578Y-15763846D02*
X11224673Y-15763846D01*
X11224673Y-15763846D02*
X11243720Y-15754322D01*
X11243720Y-15754322D02*
X11253244Y-15744798D01*
X11253244Y-15744798D02*
X11262768Y-15725751D01*
X11262768Y-15725751D02*
X11262768Y-15687656D01*
X11262768Y-15687656D02*
X11253244Y-15668608D01*
X11253244Y-15668608D02*
X11243720Y-15659084D01*
X11243720Y-15659084D02*
X11224673Y-15649560D01*
X11338959Y-15563846D02*
X11338959Y-15601941D01*
X11415149Y-15563846D02*
X11415149Y-15601941D01*
X11710387Y-15840036D02*
X11700863Y-15830513D01*
X11700863Y-15830513D02*
X11681816Y-15801941D01*
X11681816Y-15801941D02*
X11672292Y-15782894D01*
X11672292Y-15782894D02*
X11662768Y-15754322D01*
X11662768Y-15754322D02*
X11653244Y-15706703D01*
X11653244Y-15706703D02*
X11653244Y-15668608D01*
X11653244Y-15668608D02*
X11662768Y-15620989D01*
X11662768Y-15620989D02*
X11672292Y-15592417D01*
X11672292Y-15592417D02*
X11681816Y-15573370D01*
X11681816Y-15573370D02*
X11700863Y-15544798D01*
X11700863Y-15544798D02*
X11710387Y-15535275D01*
X11777054Y-15582894D02*
X11786578Y-15573370D01*
X11786578Y-15573370D02*
X11805625Y-15563846D01*
X11805625Y-15563846D02*
X11853244Y-15563846D01*
X11853244Y-15563846D02*
X11872292Y-15573370D01*
X11872292Y-15573370D02*
X11881816Y-15582894D01*
X11881816Y-15582894D02*
X11891340Y-15601941D01*
X11891340Y-15601941D02*
X11891340Y-15620989D01*
X11891340Y-15620989D02*
X11881816Y-15649560D01*
X11881816Y-15649560D02*
X11767530Y-15763846D01*
X11767530Y-15763846D02*
X11891340Y-15763846D01*
X12072292Y-15563846D02*
X11977054Y-15563846D01*
X11977054Y-15563846D02*
X11967530Y-15659084D01*
X11967530Y-15659084D02*
X11977054Y-15649560D01*
X11977054Y-15649560D02*
X11996101Y-15640036D01*
X11996101Y-15640036D02*
X12043721Y-15640036D01*
X12043721Y-15640036D02*
X12062768Y-15649560D01*
X12062768Y-15649560D02*
X12072292Y-15659084D01*
X12072292Y-15659084D02*
X12081816Y-15678132D01*
X12081816Y-15678132D02*
X12081816Y-15725751D01*
X12081816Y-15725751D02*
X12072292Y-15744798D01*
X12072292Y-15744798D02*
X12062768Y-15754322D01*
X12062768Y-15754322D02*
X12043721Y-15763846D01*
X12043721Y-15763846D02*
X11996101Y-15763846D01*
X11996101Y-15763846D02*
X11977054Y-15754322D01*
X11977054Y-15754322D02*
X11967530Y-15744798D01*
X12205625Y-15563846D02*
X12224673Y-15563846D01*
X12224673Y-15563846D02*
X12243721Y-15573370D01*
X12243721Y-15573370D02*
X12253244Y-15582894D01*
X12253244Y-15582894D02*
X12262768Y-15601941D01*
X12262768Y-15601941D02*
X12272292Y-15640036D01*
X12272292Y-15640036D02*
X12272292Y-15687656D01*
X12272292Y-15687656D02*
X12262768Y-15725751D01*
X12262768Y-15725751D02*
X12253244Y-15744798D01*
X12253244Y-15744798D02*
X12243721Y-15754322D01*
X12243721Y-15754322D02*
X12224673Y-15763846D01*
X12224673Y-15763846D02*
X12205625Y-15763846D01*
X12205625Y-15763846D02*
X12186578Y-15754322D01*
X12186578Y-15754322D02*
X12177054Y-15744798D01*
X12177054Y-15744798D02*
X12167530Y-15725751D01*
X12167530Y-15725751D02*
X12158006Y-15687656D01*
X12158006Y-15687656D02*
X12158006Y-15640036D01*
X12158006Y-15640036D02*
X12167530Y-15601941D01*
X12167530Y-15601941D02*
X12177054Y-15582894D01*
X12177054Y-15582894D02*
X12186578Y-15573370D01*
X12186578Y-15573370D02*
X12205625Y-15563846D01*
X12510387Y-15763846D02*
X12510387Y-15563846D01*
X12596102Y-15763846D02*
X12596102Y-15659084D01*
X12596102Y-15659084D02*
X12586578Y-15640036D01*
X12586578Y-15640036D02*
X12567530Y-15630513D01*
X12567530Y-15630513D02*
X12538959Y-15630513D01*
X12538959Y-15630513D02*
X12519911Y-15640036D01*
X12519911Y-15640036D02*
X12510387Y-15649560D01*
X12719911Y-15763846D02*
X12700863Y-15754322D01*
X12700863Y-15754322D02*
X12691340Y-15744798D01*
X12691340Y-15744798D02*
X12681816Y-15725751D01*
X12681816Y-15725751D02*
X12681816Y-15668608D01*
X12681816Y-15668608D02*
X12691340Y-15649560D01*
X12691340Y-15649560D02*
X12700863Y-15640036D01*
X12700863Y-15640036D02*
X12719911Y-15630513D01*
X12719911Y-15630513D02*
X12748483Y-15630513D01*
X12748483Y-15630513D02*
X12767530Y-15640036D01*
X12767530Y-15640036D02*
X12777054Y-15649560D01*
X12777054Y-15649560D02*
X12786578Y-15668608D01*
X12786578Y-15668608D02*
X12786578Y-15725751D01*
X12786578Y-15725751D02*
X12777054Y-15744798D01*
X12777054Y-15744798D02*
X12767530Y-15754322D01*
X12767530Y-15754322D02*
X12748483Y-15763846D01*
X12748483Y-15763846D02*
X12719911Y-15763846D01*
X12900863Y-15763846D02*
X12881816Y-15754322D01*
X12881816Y-15754322D02*
X12872292Y-15735275D01*
X12872292Y-15735275D02*
X12872292Y-15563846D01*
X13053244Y-15754322D02*
X13034197Y-15763846D01*
X13034197Y-15763846D02*
X12996102Y-15763846D01*
X12996102Y-15763846D02*
X12977054Y-15754322D01*
X12977054Y-15754322D02*
X12967530Y-15735275D01*
X12967530Y-15735275D02*
X12967530Y-15659084D01*
X12967530Y-15659084D02*
X12977054Y-15640036D01*
X12977054Y-15640036D02*
X12996102Y-15630513D01*
X12996102Y-15630513D02*
X13034197Y-15630513D01*
X13034197Y-15630513D02*
X13053244Y-15640036D01*
X13053244Y-15640036D02*
X13062768Y-15659084D01*
X13062768Y-15659084D02*
X13062768Y-15678132D01*
X13062768Y-15678132D02*
X12967530Y-15697179D01*
X13138959Y-15754322D02*
X13158006Y-15763846D01*
X13158006Y-15763846D02*
X13196102Y-15763846D01*
X13196102Y-15763846D02*
X13215149Y-15754322D01*
X13215149Y-15754322D02*
X13224673Y-15735275D01*
X13224673Y-15735275D02*
X13224673Y-15725751D01*
X13224673Y-15725751D02*
X13215149Y-15706703D01*
X13215149Y-15706703D02*
X13196102Y-15697179D01*
X13196102Y-15697179D02*
X13167530Y-15697179D01*
X13167530Y-15697179D02*
X13148483Y-15687656D01*
X13148483Y-15687656D02*
X13138959Y-15668608D01*
X13138959Y-15668608D02*
X13138959Y-15659084D01*
X13138959Y-15659084D02*
X13148483Y-15640036D01*
X13148483Y-15640036D02*
X13167530Y-15630513D01*
X13167530Y-15630513D02*
X13196102Y-15630513D01*
X13196102Y-15630513D02*
X13215149Y-15640036D01*
X13291340Y-15840036D02*
X13300864Y-15830513D01*
X13300864Y-15830513D02*
X13319911Y-15801941D01*
X13319911Y-15801941D02*
X13329435Y-15782894D01*
X13329435Y-15782894D02*
X13338959Y-15754322D01*
X13338959Y-15754322D02*
X13348483Y-15706703D01*
X13348483Y-15706703D02*
X13348483Y-15668608D01*
X13348483Y-15668608D02*
X13338959Y-15620989D01*
X13338959Y-15620989D02*
X13329435Y-15592417D01*
X13329435Y-15592417D02*
X13319911Y-15573370D01*
X13319911Y-15573370D02*
X13300864Y-15544798D01*
X13300864Y-15544798D02*
X13291340Y-15535275D01*
D10*
X8135324Y-15936362D02*
G75*
G02*
X8105324Y-15936362I-15000J0D01*
G01*
X8105324Y-15936362D02*
G75*
G02*
X8135324Y-15936362I15000J0D01*
G01*
D13*
X8434196Y-15827846D02*
X8453244Y-15827846D01*
X8453244Y-15827846D02*
X8472292Y-15837370D01*
X8472292Y-15837370D02*
X8481816Y-15846894D01*
X8481816Y-15846894D02*
X8491339Y-15865941D01*
X8491339Y-15865941D02*
X8500863Y-15904036D01*
X8500863Y-15904036D02*
X8500863Y-15951656D01*
X8500863Y-15951656D02*
X8491339Y-15989751D01*
X8491339Y-15989751D02*
X8481816Y-16008798D01*
X8481816Y-16008798D02*
X8472292Y-16018322D01*
X8472292Y-16018322D02*
X8453244Y-16027846D01*
X8453244Y-16027846D02*
X8434196Y-16027846D01*
X8434196Y-16027846D02*
X8415149Y-16018322D01*
X8415149Y-16018322D02*
X8405625Y-16008798D01*
X8405625Y-16008798D02*
X8396101Y-15989751D01*
X8396101Y-15989751D02*
X8386577Y-15951656D01*
X8386577Y-15951656D02*
X8386577Y-15904036D01*
X8386577Y-15904036D02*
X8396101Y-15865941D01*
X8396101Y-15865941D02*
X8405625Y-15846894D01*
X8405625Y-15846894D02*
X8415149Y-15837370D01*
X8415149Y-15837370D02*
X8434196Y-15827846D01*
X8586577Y-16008798D02*
X8596101Y-16018322D01*
X8596101Y-16018322D02*
X8586577Y-16027846D01*
X8586577Y-16027846D02*
X8577054Y-16018322D01*
X8577054Y-16018322D02*
X8586577Y-16008798D01*
X8586577Y-16008798D02*
X8586577Y-16027846D01*
X8662768Y-15827846D02*
X8786577Y-15827846D01*
X8786577Y-15827846D02*
X8719911Y-15904036D01*
X8719911Y-15904036D02*
X8748482Y-15904036D01*
X8748482Y-15904036D02*
X8767530Y-15913560D01*
X8767530Y-15913560D02*
X8777054Y-15923084D01*
X8777054Y-15923084D02*
X8786577Y-15942132D01*
X8786577Y-15942132D02*
X8786577Y-15989751D01*
X8786577Y-15989751D02*
X8777054Y-16008798D01*
X8777054Y-16008798D02*
X8767530Y-16018322D01*
X8767530Y-16018322D02*
X8748482Y-16027846D01*
X8748482Y-16027846D02*
X8691339Y-16027846D01*
X8691339Y-16027846D02*
X8672292Y-16018322D01*
X8672292Y-16018322D02*
X8662768Y-16008798D01*
X8910387Y-15827846D02*
X8929435Y-15827846D01*
X8929435Y-15827846D02*
X8948482Y-15837370D01*
X8948482Y-15837370D02*
X8958006Y-15846894D01*
X8958006Y-15846894D02*
X8967530Y-15865941D01*
X8967530Y-15865941D02*
X8977054Y-15904036D01*
X8977054Y-15904036D02*
X8977054Y-15951656D01*
X8977054Y-15951656D02*
X8967530Y-15989751D01*
X8967530Y-15989751D02*
X8958006Y-16008798D01*
X8958006Y-16008798D02*
X8948482Y-16018322D01*
X8948482Y-16018322D02*
X8929435Y-16027846D01*
X8929435Y-16027846D02*
X8910387Y-16027846D01*
X8910387Y-16027846D02*
X8891339Y-16018322D01*
X8891339Y-16018322D02*
X8881816Y-16008798D01*
X8881816Y-16008798D02*
X8872292Y-15989751D01*
X8872292Y-15989751D02*
X8862768Y-15951656D01*
X8862768Y-15951656D02*
X8862768Y-15904036D01*
X8862768Y-15904036D02*
X8872292Y-15865941D01*
X8872292Y-15865941D02*
X8881816Y-15846894D01*
X8881816Y-15846894D02*
X8891339Y-15837370D01*
X8891339Y-15837370D02*
X8910387Y-15827846D01*
X9100863Y-15827846D02*
X9119911Y-15827846D01*
X9119911Y-15827846D02*
X9138958Y-15837370D01*
X9138958Y-15837370D02*
X9148482Y-15846894D01*
X9148482Y-15846894D02*
X9158006Y-15865941D01*
X9158006Y-15865941D02*
X9167530Y-15904036D01*
X9167530Y-15904036D02*
X9167530Y-15951656D01*
X9167530Y-15951656D02*
X9158006Y-15989751D01*
X9158006Y-15989751D02*
X9148482Y-16008798D01*
X9148482Y-16008798D02*
X9138958Y-16018322D01*
X9138958Y-16018322D02*
X9119911Y-16027846D01*
X9119911Y-16027846D02*
X9100863Y-16027846D01*
X9100863Y-16027846D02*
X9081816Y-16018322D01*
X9081816Y-16018322D02*
X9072292Y-16008798D01*
X9072292Y-16008798D02*
X9062768Y-15989751D01*
X9062768Y-15989751D02*
X9053244Y-15951656D01*
X9053244Y-15951656D02*
X9053244Y-15904036D01*
X9053244Y-15904036D02*
X9062768Y-15865941D01*
X9062768Y-15865941D02*
X9072292Y-15846894D01*
X9072292Y-15846894D02*
X9081816Y-15837370D01*
X9081816Y-15837370D02*
X9100863Y-15827846D01*
X9253244Y-16027846D02*
X9253244Y-15894513D01*
X9253244Y-15913560D02*
X9262768Y-15904036D01*
X9262768Y-15904036D02*
X9281816Y-15894513D01*
X9281816Y-15894513D02*
X9310387Y-15894513D01*
X9310387Y-15894513D02*
X9329435Y-15904036D01*
X9329435Y-15904036D02*
X9338958Y-15923084D01*
X9338958Y-15923084D02*
X9338958Y-16027846D01*
X9338958Y-15923084D02*
X9348482Y-15904036D01*
X9348482Y-15904036D02*
X9367530Y-15894513D01*
X9367530Y-15894513D02*
X9396101Y-15894513D01*
X9396101Y-15894513D02*
X9415149Y-15904036D01*
X9415149Y-15904036D02*
X9424673Y-15923084D01*
X9424673Y-15923084D02*
X9424673Y-16027846D01*
X9519911Y-16027846D02*
X9519911Y-15894513D01*
X9519911Y-15913560D02*
X9529435Y-15904036D01*
X9529435Y-15904036D02*
X9548482Y-15894513D01*
X9548482Y-15894513D02*
X9577054Y-15894513D01*
X9577054Y-15894513D02*
X9596101Y-15904036D01*
X9596101Y-15904036D02*
X9605625Y-15923084D01*
X9605625Y-15923084D02*
X9605625Y-16027846D01*
X9605625Y-15923084D02*
X9615149Y-15904036D01*
X9615149Y-15904036D02*
X9634197Y-15894513D01*
X9634197Y-15894513D02*
X9662768Y-15894513D01*
X9662768Y-15894513D02*
X9681816Y-15904036D01*
X9681816Y-15904036D02*
X9691339Y-15923084D01*
X9691339Y-15923084D02*
X9691339Y-16027846D01*
X10081816Y-15818322D02*
X9910387Y-16075465D01*
X10338959Y-15827846D02*
X10358006Y-15827846D01*
X10358006Y-15827846D02*
X10377054Y-15837370D01*
X10377054Y-15837370D02*
X10386578Y-15846894D01*
X10386578Y-15846894D02*
X10396101Y-15865941D01*
X10396101Y-15865941D02*
X10405625Y-15904036D01*
X10405625Y-15904036D02*
X10405625Y-15951656D01*
X10405625Y-15951656D02*
X10396101Y-15989751D01*
X10396101Y-15989751D02*
X10386578Y-16008798D01*
X10386578Y-16008798D02*
X10377054Y-16018322D01*
X10377054Y-16018322D02*
X10358006Y-16027846D01*
X10358006Y-16027846D02*
X10338959Y-16027846D01*
X10338959Y-16027846D02*
X10319911Y-16018322D01*
X10319911Y-16018322D02*
X10310387Y-16008798D01*
X10310387Y-16008798D02*
X10300863Y-15989751D01*
X10300863Y-15989751D02*
X10291340Y-15951656D01*
X10291340Y-15951656D02*
X10291340Y-15904036D01*
X10291340Y-15904036D02*
X10300863Y-15865941D01*
X10300863Y-15865941D02*
X10310387Y-15846894D01*
X10310387Y-15846894D02*
X10319911Y-15837370D01*
X10319911Y-15837370D02*
X10338959Y-15827846D01*
X10491340Y-16008798D02*
X10500863Y-16018322D01*
X10500863Y-16018322D02*
X10491340Y-16027846D01*
X10491340Y-16027846D02*
X10481816Y-16018322D01*
X10481816Y-16018322D02*
X10491340Y-16008798D01*
X10491340Y-16008798D02*
X10491340Y-16027846D01*
X10624673Y-15827846D02*
X10643721Y-15827846D01*
X10643721Y-15827846D02*
X10662768Y-15837370D01*
X10662768Y-15837370D02*
X10672292Y-15846894D01*
X10672292Y-15846894D02*
X10681816Y-15865941D01*
X10681816Y-15865941D02*
X10691340Y-15904036D01*
X10691340Y-15904036D02*
X10691340Y-15951656D01*
X10691340Y-15951656D02*
X10681816Y-15989751D01*
X10681816Y-15989751D02*
X10672292Y-16008798D01*
X10672292Y-16008798D02*
X10662768Y-16018322D01*
X10662768Y-16018322D02*
X10643721Y-16027846D01*
X10643721Y-16027846D02*
X10624673Y-16027846D01*
X10624673Y-16027846D02*
X10605625Y-16018322D01*
X10605625Y-16018322D02*
X10596101Y-16008798D01*
X10596101Y-16008798D02*
X10586578Y-15989751D01*
X10586578Y-15989751D02*
X10577054Y-15951656D01*
X10577054Y-15951656D02*
X10577054Y-15904036D01*
X10577054Y-15904036D02*
X10586578Y-15865941D01*
X10586578Y-15865941D02*
X10596101Y-15846894D01*
X10596101Y-15846894D02*
X10605625Y-15837370D01*
X10605625Y-15837370D02*
X10624673Y-15827846D01*
X10881816Y-16027846D02*
X10767530Y-16027846D01*
X10824673Y-16027846D02*
X10824673Y-15827846D01*
X10824673Y-15827846D02*
X10805625Y-15856417D01*
X10805625Y-15856417D02*
X10786578Y-15875465D01*
X10786578Y-15875465D02*
X10767530Y-15884989D01*
X11072292Y-16027846D02*
X10958006Y-16027846D01*
X11015149Y-16027846D02*
X11015149Y-15827846D01*
X11015149Y-15827846D02*
X10996101Y-15856417D01*
X10996101Y-15856417D02*
X10977054Y-15875465D01*
X10977054Y-15875465D02*
X10958006Y-15884989D01*
X11186578Y-15913560D02*
X11167530Y-15904036D01*
X11167530Y-15904036D02*
X11158006Y-15894513D01*
X11158006Y-15894513D02*
X11148482Y-15875465D01*
X11148482Y-15875465D02*
X11148482Y-15865941D01*
X11148482Y-15865941D02*
X11158006Y-15846894D01*
X11158006Y-15846894D02*
X11167530Y-15837370D01*
X11167530Y-15837370D02*
X11186578Y-15827846D01*
X11186578Y-15827846D02*
X11224673Y-15827846D01*
X11224673Y-15827846D02*
X11243720Y-15837370D01*
X11243720Y-15837370D02*
X11253244Y-15846894D01*
X11253244Y-15846894D02*
X11262768Y-15865941D01*
X11262768Y-15865941D02*
X11262768Y-15875465D01*
X11262768Y-15875465D02*
X11253244Y-15894513D01*
X11253244Y-15894513D02*
X11243720Y-15904036D01*
X11243720Y-15904036D02*
X11224673Y-15913560D01*
X11224673Y-15913560D02*
X11186578Y-15913560D01*
X11186578Y-15913560D02*
X11167530Y-15923084D01*
X11167530Y-15923084D02*
X11158006Y-15932608D01*
X11158006Y-15932608D02*
X11148482Y-15951656D01*
X11148482Y-15951656D02*
X11148482Y-15989751D01*
X11148482Y-15989751D02*
X11158006Y-16008798D01*
X11158006Y-16008798D02*
X11167530Y-16018322D01*
X11167530Y-16018322D02*
X11186578Y-16027846D01*
X11186578Y-16027846D02*
X11224673Y-16027846D01*
X11224673Y-16027846D02*
X11243720Y-16018322D01*
X11243720Y-16018322D02*
X11253244Y-16008798D01*
X11253244Y-16008798D02*
X11262768Y-15989751D01*
X11262768Y-15989751D02*
X11262768Y-15951656D01*
X11262768Y-15951656D02*
X11253244Y-15932608D01*
X11253244Y-15932608D02*
X11243720Y-15923084D01*
X11243720Y-15923084D02*
X11224673Y-15913560D01*
X11338959Y-15827846D02*
X11338959Y-15865941D01*
X11415149Y-15827846D02*
X11415149Y-15865941D01*
X11710387Y-16104036D02*
X11700863Y-16094513D01*
X11700863Y-16094513D02*
X11681816Y-16065941D01*
X11681816Y-16065941D02*
X11672292Y-16046894D01*
X11672292Y-16046894D02*
X11662768Y-16018322D01*
X11662768Y-16018322D02*
X11653244Y-15970703D01*
X11653244Y-15970703D02*
X11653244Y-15932608D01*
X11653244Y-15932608D02*
X11662768Y-15884989D01*
X11662768Y-15884989D02*
X11672292Y-15856417D01*
X11672292Y-15856417D02*
X11681816Y-15837370D01*
X11681816Y-15837370D02*
X11700863Y-15808798D01*
X11700863Y-15808798D02*
X11710387Y-15799275D01*
X11881816Y-15827846D02*
X11786578Y-15827846D01*
X11786578Y-15827846D02*
X11777054Y-15923084D01*
X11777054Y-15923084D02*
X11786578Y-15913560D01*
X11786578Y-15913560D02*
X11805625Y-15904036D01*
X11805625Y-15904036D02*
X11853244Y-15904036D01*
X11853244Y-15904036D02*
X11872292Y-15913560D01*
X11872292Y-15913560D02*
X11881816Y-15923084D01*
X11881816Y-15923084D02*
X11891340Y-15942132D01*
X11891340Y-15942132D02*
X11891340Y-15989751D01*
X11891340Y-15989751D02*
X11881816Y-16008798D01*
X11881816Y-16008798D02*
X11872292Y-16018322D01*
X11872292Y-16018322D02*
X11853244Y-16027846D01*
X11853244Y-16027846D02*
X11805625Y-16027846D01*
X11805625Y-16027846D02*
X11786578Y-16018322D01*
X11786578Y-16018322D02*
X11777054Y-16008798D01*
X12005625Y-15913560D02*
X11986578Y-15904036D01*
X11986578Y-15904036D02*
X11977054Y-15894513D01*
X11977054Y-15894513D02*
X11967530Y-15875465D01*
X11967530Y-15875465D02*
X11967530Y-15865941D01*
X11967530Y-15865941D02*
X11977054Y-15846894D01*
X11977054Y-15846894D02*
X11986578Y-15837370D01*
X11986578Y-15837370D02*
X12005625Y-15827846D01*
X12005625Y-15827846D02*
X12043721Y-15827846D01*
X12043721Y-15827846D02*
X12062768Y-15837370D01*
X12062768Y-15837370D02*
X12072292Y-15846894D01*
X12072292Y-15846894D02*
X12081816Y-15865941D01*
X12081816Y-15865941D02*
X12081816Y-15875465D01*
X12081816Y-15875465D02*
X12072292Y-15894513D01*
X12072292Y-15894513D02*
X12062768Y-15904036D01*
X12062768Y-15904036D02*
X12043721Y-15913560D01*
X12043721Y-15913560D02*
X12005625Y-15913560D01*
X12005625Y-15913560D02*
X11986578Y-15923084D01*
X11986578Y-15923084D02*
X11977054Y-15932608D01*
X11977054Y-15932608D02*
X11967530Y-15951656D01*
X11967530Y-15951656D02*
X11967530Y-15989751D01*
X11967530Y-15989751D02*
X11977054Y-16008798D01*
X11977054Y-16008798D02*
X11986578Y-16018322D01*
X11986578Y-16018322D02*
X12005625Y-16027846D01*
X12005625Y-16027846D02*
X12043721Y-16027846D01*
X12043721Y-16027846D02*
X12062768Y-16018322D01*
X12062768Y-16018322D02*
X12072292Y-16008798D01*
X12072292Y-16008798D02*
X12081816Y-15989751D01*
X12081816Y-15989751D02*
X12081816Y-15951656D01*
X12081816Y-15951656D02*
X12072292Y-15932608D01*
X12072292Y-15932608D02*
X12062768Y-15923084D01*
X12062768Y-15923084D02*
X12043721Y-15913560D01*
X12319911Y-16027846D02*
X12319911Y-15827846D01*
X12405625Y-16027846D02*
X12405625Y-15923084D01*
X12405625Y-15923084D02*
X12396102Y-15904036D01*
X12396102Y-15904036D02*
X12377054Y-15894513D01*
X12377054Y-15894513D02*
X12348482Y-15894513D01*
X12348482Y-15894513D02*
X12329435Y-15904036D01*
X12329435Y-15904036D02*
X12319911Y-15913560D01*
X12529435Y-16027846D02*
X12510387Y-16018322D01*
X12510387Y-16018322D02*
X12500863Y-16008798D01*
X12500863Y-16008798D02*
X12491340Y-15989751D01*
X12491340Y-15989751D02*
X12491340Y-15932608D01*
X12491340Y-15932608D02*
X12500863Y-15913560D01*
X12500863Y-15913560D02*
X12510387Y-15904036D01*
X12510387Y-15904036D02*
X12529435Y-15894513D01*
X12529435Y-15894513D02*
X12558006Y-15894513D01*
X12558006Y-15894513D02*
X12577054Y-15904036D01*
X12577054Y-15904036D02*
X12586578Y-15913560D01*
X12586578Y-15913560D02*
X12596102Y-15932608D01*
X12596102Y-15932608D02*
X12596102Y-15989751D01*
X12596102Y-15989751D02*
X12586578Y-16008798D01*
X12586578Y-16008798D02*
X12577054Y-16018322D01*
X12577054Y-16018322D02*
X12558006Y-16027846D01*
X12558006Y-16027846D02*
X12529435Y-16027846D01*
X12710387Y-16027846D02*
X12691340Y-16018322D01*
X12691340Y-16018322D02*
X12681816Y-15999275D01*
X12681816Y-15999275D02*
X12681816Y-15827846D01*
X12862768Y-16018322D02*
X12843721Y-16027846D01*
X12843721Y-16027846D02*
X12805625Y-16027846D01*
X12805625Y-16027846D02*
X12786578Y-16018322D01*
X12786578Y-16018322D02*
X12777054Y-15999275D01*
X12777054Y-15999275D02*
X12777054Y-15923084D01*
X12777054Y-15923084D02*
X12786578Y-15904036D01*
X12786578Y-15904036D02*
X12805625Y-15894513D01*
X12805625Y-15894513D02*
X12843721Y-15894513D01*
X12843721Y-15894513D02*
X12862768Y-15904036D01*
X12862768Y-15904036D02*
X12872292Y-15923084D01*
X12872292Y-15923084D02*
X12872292Y-15942132D01*
X12872292Y-15942132D02*
X12777054Y-15961179D01*
X12948483Y-16018322D02*
X12967530Y-16027846D01*
X12967530Y-16027846D02*
X13005625Y-16027846D01*
X13005625Y-16027846D02*
X13024673Y-16018322D01*
X13024673Y-16018322D02*
X13034197Y-15999275D01*
X13034197Y-15999275D02*
X13034197Y-15989751D01*
X13034197Y-15989751D02*
X13024673Y-15970703D01*
X13024673Y-15970703D02*
X13005625Y-15961179D01*
X13005625Y-15961179D02*
X12977054Y-15961179D01*
X12977054Y-15961179D02*
X12958006Y-15951656D01*
X12958006Y-15951656D02*
X12948483Y-15932608D01*
X12948483Y-15932608D02*
X12948483Y-15923084D01*
X12948483Y-15923084D02*
X12958006Y-15904036D01*
X12958006Y-15904036D02*
X12977054Y-15894513D01*
X12977054Y-15894513D02*
X13005625Y-15894513D01*
X13005625Y-15894513D02*
X13024673Y-15904036D01*
X13100864Y-16104036D02*
X13110387Y-16094513D01*
X13110387Y-16094513D02*
X13129435Y-16065941D01*
X13129435Y-16065941D02*
X13138959Y-16046894D01*
X13138959Y-16046894D02*
X13148483Y-16018322D01*
X13148483Y-16018322D02*
X13158006Y-15970703D01*
X13158006Y-15970703D02*
X13158006Y-15932608D01*
X13158006Y-15932608D02*
X13148483Y-15884989D01*
X13148483Y-15884989D02*
X13138959Y-15856417D01*
X13138959Y-15856417D02*
X13129435Y-15837370D01*
X13129435Y-15837370D02*
X13110387Y-15808798D01*
X13110387Y-15808798D02*
X13100864Y-15799275D01*
D10*
X8095324Y-16160362D02*
X8095324Y-16240362D01*
X8055324Y-16200362D02*
X8135324Y-16200362D01*
D13*
X8434196Y-16091846D02*
X8453244Y-16091846D01*
X8453244Y-16091846D02*
X8472292Y-16101370D01*
X8472292Y-16101370D02*
X8481816Y-16110894D01*
X8481816Y-16110894D02*
X8491339Y-16129941D01*
X8491339Y-16129941D02*
X8500863Y-16168036D01*
X8500863Y-16168036D02*
X8500863Y-16215656D01*
X8500863Y-16215656D02*
X8491339Y-16253751D01*
X8491339Y-16253751D02*
X8481816Y-16272798D01*
X8481816Y-16272798D02*
X8472292Y-16282322D01*
X8472292Y-16282322D02*
X8453244Y-16291846D01*
X8453244Y-16291846D02*
X8434196Y-16291846D01*
X8434196Y-16291846D02*
X8415149Y-16282322D01*
X8415149Y-16282322D02*
X8405625Y-16272798D01*
X8405625Y-16272798D02*
X8396101Y-16253751D01*
X8396101Y-16253751D02*
X8386577Y-16215656D01*
X8386577Y-16215656D02*
X8386577Y-16168036D01*
X8386577Y-16168036D02*
X8396101Y-16129941D01*
X8396101Y-16129941D02*
X8405625Y-16110894D01*
X8405625Y-16110894D02*
X8415149Y-16101370D01*
X8415149Y-16101370D02*
X8434196Y-16091846D01*
X8586577Y-16272798D02*
X8596101Y-16282322D01*
X8596101Y-16282322D02*
X8586577Y-16291846D01*
X8586577Y-16291846D02*
X8577054Y-16282322D01*
X8577054Y-16282322D02*
X8586577Y-16272798D01*
X8586577Y-16272798D02*
X8586577Y-16291846D01*
X8710387Y-16177560D02*
X8691339Y-16168036D01*
X8691339Y-16168036D02*
X8681816Y-16158513D01*
X8681816Y-16158513D02*
X8672292Y-16139465D01*
X8672292Y-16139465D02*
X8672292Y-16129941D01*
X8672292Y-16129941D02*
X8681816Y-16110894D01*
X8681816Y-16110894D02*
X8691339Y-16101370D01*
X8691339Y-16101370D02*
X8710387Y-16091846D01*
X8710387Y-16091846D02*
X8748482Y-16091846D01*
X8748482Y-16091846D02*
X8767530Y-16101370D01*
X8767530Y-16101370D02*
X8777054Y-16110894D01*
X8777054Y-16110894D02*
X8786577Y-16129941D01*
X8786577Y-16129941D02*
X8786577Y-16139465D01*
X8786577Y-16139465D02*
X8777054Y-16158513D01*
X8777054Y-16158513D02*
X8767530Y-16168036D01*
X8767530Y-16168036D02*
X8748482Y-16177560D01*
X8748482Y-16177560D02*
X8710387Y-16177560D01*
X8710387Y-16177560D02*
X8691339Y-16187084D01*
X8691339Y-16187084D02*
X8681816Y-16196608D01*
X8681816Y-16196608D02*
X8672292Y-16215656D01*
X8672292Y-16215656D02*
X8672292Y-16253751D01*
X8672292Y-16253751D02*
X8681816Y-16272798D01*
X8681816Y-16272798D02*
X8691339Y-16282322D01*
X8691339Y-16282322D02*
X8710387Y-16291846D01*
X8710387Y-16291846D02*
X8748482Y-16291846D01*
X8748482Y-16291846D02*
X8767530Y-16282322D01*
X8767530Y-16282322D02*
X8777054Y-16272798D01*
X8777054Y-16272798D02*
X8786577Y-16253751D01*
X8786577Y-16253751D02*
X8786577Y-16215656D01*
X8786577Y-16215656D02*
X8777054Y-16196608D01*
X8777054Y-16196608D02*
X8767530Y-16187084D01*
X8767530Y-16187084D02*
X8748482Y-16177560D01*
X8910387Y-16091846D02*
X8929435Y-16091846D01*
X8929435Y-16091846D02*
X8948482Y-16101370D01*
X8948482Y-16101370D02*
X8958006Y-16110894D01*
X8958006Y-16110894D02*
X8967530Y-16129941D01*
X8967530Y-16129941D02*
X8977054Y-16168036D01*
X8977054Y-16168036D02*
X8977054Y-16215656D01*
X8977054Y-16215656D02*
X8967530Y-16253751D01*
X8967530Y-16253751D02*
X8958006Y-16272798D01*
X8958006Y-16272798D02*
X8948482Y-16282322D01*
X8948482Y-16282322D02*
X8929435Y-16291846D01*
X8929435Y-16291846D02*
X8910387Y-16291846D01*
X8910387Y-16291846D02*
X8891339Y-16282322D01*
X8891339Y-16282322D02*
X8881816Y-16272798D01*
X8881816Y-16272798D02*
X8872292Y-16253751D01*
X8872292Y-16253751D02*
X8862768Y-16215656D01*
X8862768Y-16215656D02*
X8862768Y-16168036D01*
X8862768Y-16168036D02*
X8872292Y-16129941D01*
X8872292Y-16129941D02*
X8881816Y-16110894D01*
X8881816Y-16110894D02*
X8891339Y-16101370D01*
X8891339Y-16101370D02*
X8910387Y-16091846D01*
X9100863Y-16091846D02*
X9119911Y-16091846D01*
X9119911Y-16091846D02*
X9138958Y-16101370D01*
X9138958Y-16101370D02*
X9148482Y-16110894D01*
X9148482Y-16110894D02*
X9158006Y-16129941D01*
X9158006Y-16129941D02*
X9167530Y-16168036D01*
X9167530Y-16168036D02*
X9167530Y-16215656D01*
X9167530Y-16215656D02*
X9158006Y-16253751D01*
X9158006Y-16253751D02*
X9148482Y-16272798D01*
X9148482Y-16272798D02*
X9138958Y-16282322D01*
X9138958Y-16282322D02*
X9119911Y-16291846D01*
X9119911Y-16291846D02*
X9100863Y-16291846D01*
X9100863Y-16291846D02*
X9081816Y-16282322D01*
X9081816Y-16282322D02*
X9072292Y-16272798D01*
X9072292Y-16272798D02*
X9062768Y-16253751D01*
X9062768Y-16253751D02*
X9053244Y-16215656D01*
X9053244Y-16215656D02*
X9053244Y-16168036D01*
X9053244Y-16168036D02*
X9062768Y-16129941D01*
X9062768Y-16129941D02*
X9072292Y-16110894D01*
X9072292Y-16110894D02*
X9081816Y-16101370D01*
X9081816Y-16101370D02*
X9100863Y-16091846D01*
X9253244Y-16291846D02*
X9253244Y-16158513D01*
X9253244Y-16177560D02*
X9262768Y-16168036D01*
X9262768Y-16168036D02*
X9281816Y-16158513D01*
X9281816Y-16158513D02*
X9310387Y-16158513D01*
X9310387Y-16158513D02*
X9329435Y-16168036D01*
X9329435Y-16168036D02*
X9338958Y-16187084D01*
X9338958Y-16187084D02*
X9338958Y-16291846D01*
X9338958Y-16187084D02*
X9348482Y-16168036D01*
X9348482Y-16168036D02*
X9367530Y-16158513D01*
X9367530Y-16158513D02*
X9396101Y-16158513D01*
X9396101Y-16158513D02*
X9415149Y-16168036D01*
X9415149Y-16168036D02*
X9424673Y-16187084D01*
X9424673Y-16187084D02*
X9424673Y-16291846D01*
X9519911Y-16291846D02*
X9519911Y-16158513D01*
X9519911Y-16177560D02*
X9529435Y-16168036D01*
X9529435Y-16168036D02*
X9548482Y-16158513D01*
X9548482Y-16158513D02*
X9577054Y-16158513D01*
X9577054Y-16158513D02*
X9596101Y-16168036D01*
X9596101Y-16168036D02*
X9605625Y-16187084D01*
X9605625Y-16187084D02*
X9605625Y-16291846D01*
X9605625Y-16187084D02*
X9615149Y-16168036D01*
X9615149Y-16168036D02*
X9634197Y-16158513D01*
X9634197Y-16158513D02*
X9662768Y-16158513D01*
X9662768Y-16158513D02*
X9681816Y-16168036D01*
X9681816Y-16168036D02*
X9691339Y-16187084D01*
X9691339Y-16187084D02*
X9691339Y-16291846D01*
X10081816Y-16082322D02*
X9910387Y-16339465D01*
X10338959Y-16091846D02*
X10358006Y-16091846D01*
X10358006Y-16091846D02*
X10377054Y-16101370D01*
X10377054Y-16101370D02*
X10386578Y-16110894D01*
X10386578Y-16110894D02*
X10396101Y-16129941D01*
X10396101Y-16129941D02*
X10405625Y-16168036D01*
X10405625Y-16168036D02*
X10405625Y-16215656D01*
X10405625Y-16215656D02*
X10396101Y-16253751D01*
X10396101Y-16253751D02*
X10386578Y-16272798D01*
X10386578Y-16272798D02*
X10377054Y-16282322D01*
X10377054Y-16282322D02*
X10358006Y-16291846D01*
X10358006Y-16291846D02*
X10338959Y-16291846D01*
X10338959Y-16291846D02*
X10319911Y-16282322D01*
X10319911Y-16282322D02*
X10310387Y-16272798D01*
X10310387Y-16272798D02*
X10300863Y-16253751D01*
X10300863Y-16253751D02*
X10291340Y-16215656D01*
X10291340Y-16215656D02*
X10291340Y-16168036D01*
X10291340Y-16168036D02*
X10300863Y-16129941D01*
X10300863Y-16129941D02*
X10310387Y-16110894D01*
X10310387Y-16110894D02*
X10319911Y-16101370D01*
X10319911Y-16101370D02*
X10338959Y-16091846D01*
X10491340Y-16272798D02*
X10500863Y-16282322D01*
X10500863Y-16282322D02*
X10491340Y-16291846D01*
X10491340Y-16291846D02*
X10481816Y-16282322D01*
X10481816Y-16282322D02*
X10491340Y-16272798D01*
X10491340Y-16272798D02*
X10491340Y-16291846D01*
X10624673Y-16091846D02*
X10643721Y-16091846D01*
X10643721Y-16091846D02*
X10662768Y-16101370D01*
X10662768Y-16101370D02*
X10672292Y-16110894D01*
X10672292Y-16110894D02*
X10681816Y-16129941D01*
X10681816Y-16129941D02*
X10691340Y-16168036D01*
X10691340Y-16168036D02*
X10691340Y-16215656D01*
X10691340Y-16215656D02*
X10681816Y-16253751D01*
X10681816Y-16253751D02*
X10672292Y-16272798D01*
X10672292Y-16272798D02*
X10662768Y-16282322D01*
X10662768Y-16282322D02*
X10643721Y-16291846D01*
X10643721Y-16291846D02*
X10624673Y-16291846D01*
X10624673Y-16291846D02*
X10605625Y-16282322D01*
X10605625Y-16282322D02*
X10596101Y-16272798D01*
X10596101Y-16272798D02*
X10586578Y-16253751D01*
X10586578Y-16253751D02*
X10577054Y-16215656D01*
X10577054Y-16215656D02*
X10577054Y-16168036D01*
X10577054Y-16168036D02*
X10586578Y-16129941D01*
X10586578Y-16129941D02*
X10596101Y-16110894D01*
X10596101Y-16110894D02*
X10605625Y-16101370D01*
X10605625Y-16101370D02*
X10624673Y-16091846D01*
X10758006Y-16091846D02*
X10881816Y-16091846D01*
X10881816Y-16091846D02*
X10815149Y-16168036D01*
X10815149Y-16168036D02*
X10843721Y-16168036D01*
X10843721Y-16168036D02*
X10862768Y-16177560D01*
X10862768Y-16177560D02*
X10872292Y-16187084D01*
X10872292Y-16187084D02*
X10881816Y-16206132D01*
X10881816Y-16206132D02*
X10881816Y-16253751D01*
X10881816Y-16253751D02*
X10872292Y-16272798D01*
X10872292Y-16272798D02*
X10862768Y-16282322D01*
X10862768Y-16282322D02*
X10843721Y-16291846D01*
X10843721Y-16291846D02*
X10786578Y-16291846D01*
X10786578Y-16291846D02*
X10767530Y-16282322D01*
X10767530Y-16282322D02*
X10758006Y-16272798D01*
X11072292Y-16291846D02*
X10958006Y-16291846D01*
X11015149Y-16291846D02*
X11015149Y-16091846D01*
X11015149Y-16091846D02*
X10996101Y-16120417D01*
X10996101Y-16120417D02*
X10977054Y-16139465D01*
X10977054Y-16139465D02*
X10958006Y-16148989D01*
X11253244Y-16091846D02*
X11158006Y-16091846D01*
X11158006Y-16091846D02*
X11148482Y-16187084D01*
X11148482Y-16187084D02*
X11158006Y-16177560D01*
X11158006Y-16177560D02*
X11177054Y-16168036D01*
X11177054Y-16168036D02*
X11224673Y-16168036D01*
X11224673Y-16168036D02*
X11243720Y-16177560D01*
X11243720Y-16177560D02*
X11253244Y-16187084D01*
X11253244Y-16187084D02*
X11262768Y-16206132D01*
X11262768Y-16206132D02*
X11262768Y-16253751D01*
X11262768Y-16253751D02*
X11253244Y-16272798D01*
X11253244Y-16272798D02*
X11243720Y-16282322D01*
X11243720Y-16282322D02*
X11224673Y-16291846D01*
X11224673Y-16291846D02*
X11177054Y-16291846D01*
X11177054Y-16291846D02*
X11158006Y-16282322D01*
X11158006Y-16282322D02*
X11148482Y-16272798D01*
X11338959Y-16091846D02*
X11338959Y-16129941D01*
X11415149Y-16091846D02*
X11415149Y-16129941D01*
X11710387Y-16368036D02*
X11700863Y-16358513D01*
X11700863Y-16358513D02*
X11681816Y-16329941D01*
X11681816Y-16329941D02*
X11672292Y-16310894D01*
X11672292Y-16310894D02*
X11662768Y-16282322D01*
X11662768Y-16282322D02*
X11653244Y-16234703D01*
X11653244Y-16234703D02*
X11653244Y-16196608D01*
X11653244Y-16196608D02*
X11662768Y-16148989D01*
X11662768Y-16148989D02*
X11672292Y-16120417D01*
X11672292Y-16120417D02*
X11681816Y-16101370D01*
X11681816Y-16101370D02*
X11700863Y-16072798D01*
X11700863Y-16072798D02*
X11710387Y-16063275D01*
X11796101Y-16291846D02*
X11834197Y-16291846D01*
X11834197Y-16291846D02*
X11853244Y-16282322D01*
X11853244Y-16282322D02*
X11862768Y-16272798D01*
X11862768Y-16272798D02*
X11881816Y-16244227D01*
X11881816Y-16244227D02*
X11891340Y-16206132D01*
X11891340Y-16206132D02*
X11891340Y-16129941D01*
X11891340Y-16129941D02*
X11881816Y-16110894D01*
X11881816Y-16110894D02*
X11872292Y-16101370D01*
X11872292Y-16101370D02*
X11853244Y-16091846D01*
X11853244Y-16091846D02*
X11815149Y-16091846D01*
X11815149Y-16091846D02*
X11796101Y-16101370D01*
X11796101Y-16101370D02*
X11786578Y-16110894D01*
X11786578Y-16110894D02*
X11777054Y-16129941D01*
X11777054Y-16129941D02*
X11777054Y-16177560D01*
X11777054Y-16177560D02*
X11786578Y-16196608D01*
X11786578Y-16196608D02*
X11796101Y-16206132D01*
X11796101Y-16206132D02*
X11815149Y-16215656D01*
X11815149Y-16215656D02*
X11853244Y-16215656D01*
X11853244Y-16215656D02*
X11872292Y-16206132D01*
X11872292Y-16206132D02*
X11881816Y-16196608D01*
X11881816Y-16196608D02*
X11891340Y-16177560D01*
X12015149Y-16091846D02*
X12034197Y-16091846D01*
X12034197Y-16091846D02*
X12053244Y-16101370D01*
X12053244Y-16101370D02*
X12062768Y-16110894D01*
X12062768Y-16110894D02*
X12072292Y-16129941D01*
X12072292Y-16129941D02*
X12081816Y-16168036D01*
X12081816Y-16168036D02*
X12081816Y-16215656D01*
X12081816Y-16215656D02*
X12072292Y-16253751D01*
X12072292Y-16253751D02*
X12062768Y-16272798D01*
X12062768Y-16272798D02*
X12053244Y-16282322D01*
X12053244Y-16282322D02*
X12034197Y-16291846D01*
X12034197Y-16291846D02*
X12015149Y-16291846D01*
X12015149Y-16291846D02*
X11996101Y-16282322D01*
X11996101Y-16282322D02*
X11986578Y-16272798D01*
X11986578Y-16272798D02*
X11977054Y-16253751D01*
X11977054Y-16253751D02*
X11967530Y-16215656D01*
X11967530Y-16215656D02*
X11967530Y-16168036D01*
X11967530Y-16168036D02*
X11977054Y-16129941D01*
X11977054Y-16129941D02*
X11986578Y-16110894D01*
X11986578Y-16110894D02*
X11996101Y-16101370D01*
X11996101Y-16101370D02*
X12015149Y-16091846D01*
X12319911Y-16291846D02*
X12319911Y-16091846D01*
X12405625Y-16291846D02*
X12405625Y-16187084D01*
X12405625Y-16187084D02*
X12396102Y-16168036D01*
X12396102Y-16168036D02*
X12377054Y-16158513D01*
X12377054Y-16158513D02*
X12348482Y-16158513D01*
X12348482Y-16158513D02*
X12329435Y-16168036D01*
X12329435Y-16168036D02*
X12319911Y-16177560D01*
X12529435Y-16291846D02*
X12510387Y-16282322D01*
X12510387Y-16282322D02*
X12500863Y-16272798D01*
X12500863Y-16272798D02*
X12491340Y-16253751D01*
X12491340Y-16253751D02*
X12491340Y-16196608D01*
X12491340Y-16196608D02*
X12500863Y-16177560D01*
X12500863Y-16177560D02*
X12510387Y-16168036D01*
X12510387Y-16168036D02*
X12529435Y-16158513D01*
X12529435Y-16158513D02*
X12558006Y-16158513D01*
X12558006Y-16158513D02*
X12577054Y-16168036D01*
X12577054Y-16168036D02*
X12586578Y-16177560D01*
X12586578Y-16177560D02*
X12596102Y-16196608D01*
X12596102Y-16196608D02*
X12596102Y-16253751D01*
X12596102Y-16253751D02*
X12586578Y-16272798D01*
X12586578Y-16272798D02*
X12577054Y-16282322D01*
X12577054Y-16282322D02*
X12558006Y-16291846D01*
X12558006Y-16291846D02*
X12529435Y-16291846D01*
X12710387Y-16291846D02*
X12691340Y-16282322D01*
X12691340Y-16282322D02*
X12681816Y-16263275D01*
X12681816Y-16263275D02*
X12681816Y-16091846D01*
X12862768Y-16282322D02*
X12843721Y-16291846D01*
X12843721Y-16291846D02*
X12805625Y-16291846D01*
X12805625Y-16291846D02*
X12786578Y-16282322D01*
X12786578Y-16282322D02*
X12777054Y-16263275D01*
X12777054Y-16263275D02*
X12777054Y-16187084D01*
X12777054Y-16187084D02*
X12786578Y-16168036D01*
X12786578Y-16168036D02*
X12805625Y-16158513D01*
X12805625Y-16158513D02*
X12843721Y-16158513D01*
X12843721Y-16158513D02*
X12862768Y-16168036D01*
X12862768Y-16168036D02*
X12872292Y-16187084D01*
X12872292Y-16187084D02*
X12872292Y-16206132D01*
X12872292Y-16206132D02*
X12777054Y-16225179D01*
X12948483Y-16282322D02*
X12967530Y-16291846D01*
X12967530Y-16291846D02*
X13005625Y-16291846D01*
X13005625Y-16291846D02*
X13024673Y-16282322D01*
X13024673Y-16282322D02*
X13034197Y-16263275D01*
X13034197Y-16263275D02*
X13034197Y-16253751D01*
X13034197Y-16253751D02*
X13024673Y-16234703D01*
X13024673Y-16234703D02*
X13005625Y-16225179D01*
X13005625Y-16225179D02*
X12977054Y-16225179D01*
X12977054Y-16225179D02*
X12958006Y-16215656D01*
X12958006Y-16215656D02*
X12948483Y-16196608D01*
X12948483Y-16196608D02*
X12948483Y-16187084D01*
X12948483Y-16187084D02*
X12958006Y-16168036D01*
X12958006Y-16168036D02*
X12977054Y-16158513D01*
X12977054Y-16158513D02*
X13005625Y-16158513D01*
X13005625Y-16158513D02*
X13024673Y-16168036D01*
X13100864Y-16368036D02*
X13110387Y-16358513D01*
X13110387Y-16358513D02*
X13129435Y-16329941D01*
X13129435Y-16329941D02*
X13138959Y-16310894D01*
X13138959Y-16310894D02*
X13148483Y-16282322D01*
X13148483Y-16282322D02*
X13158006Y-16234703D01*
X13158006Y-16234703D02*
X13158006Y-16196608D01*
X13158006Y-16196608D02*
X13148483Y-16148989D01*
X13148483Y-16148989D02*
X13138959Y-16120417D01*
X13138959Y-16120417D02*
X13129435Y-16101370D01*
X13129435Y-16101370D02*
X13110387Y-16072798D01*
X13110387Y-16072798D02*
X13100864Y-16063275D01*
D10*
X8123421Y-16493099D02*
X8123421Y-16435625D01*
X8065947Y-16435625D01*
X8065947Y-16493099D01*
X8123421Y-16493099D01*
D13*
X8434196Y-16355846D02*
X8453244Y-16355846D01*
X8453244Y-16355846D02*
X8472292Y-16365370D01*
X8472292Y-16365370D02*
X8481816Y-16374894D01*
X8481816Y-16374894D02*
X8491339Y-16393941D01*
X8491339Y-16393941D02*
X8500863Y-16432036D01*
X8500863Y-16432036D02*
X8500863Y-16479656D01*
X8500863Y-16479656D02*
X8491339Y-16517751D01*
X8491339Y-16517751D02*
X8481816Y-16536798D01*
X8481816Y-16536798D02*
X8472292Y-16546322D01*
X8472292Y-16546322D02*
X8453244Y-16555846D01*
X8453244Y-16555846D02*
X8434196Y-16555846D01*
X8434196Y-16555846D02*
X8415149Y-16546322D01*
X8415149Y-16546322D02*
X8405625Y-16536798D01*
X8405625Y-16536798D02*
X8396101Y-16517751D01*
X8396101Y-16517751D02*
X8386577Y-16479656D01*
X8386577Y-16479656D02*
X8386577Y-16432036D01*
X8386577Y-16432036D02*
X8396101Y-16393941D01*
X8396101Y-16393941D02*
X8405625Y-16374894D01*
X8405625Y-16374894D02*
X8415149Y-16365370D01*
X8415149Y-16365370D02*
X8434196Y-16355846D01*
X8586577Y-16536798D02*
X8596101Y-16546322D01*
X8596101Y-16546322D02*
X8586577Y-16555846D01*
X8586577Y-16555846D02*
X8577054Y-16546322D01*
X8577054Y-16546322D02*
X8586577Y-16536798D01*
X8586577Y-16536798D02*
X8586577Y-16555846D01*
X8710387Y-16441560D02*
X8691339Y-16432036D01*
X8691339Y-16432036D02*
X8681816Y-16422513D01*
X8681816Y-16422513D02*
X8672292Y-16403465D01*
X8672292Y-16403465D02*
X8672292Y-16393941D01*
X8672292Y-16393941D02*
X8681816Y-16374894D01*
X8681816Y-16374894D02*
X8691339Y-16365370D01*
X8691339Y-16365370D02*
X8710387Y-16355846D01*
X8710387Y-16355846D02*
X8748482Y-16355846D01*
X8748482Y-16355846D02*
X8767530Y-16365370D01*
X8767530Y-16365370D02*
X8777054Y-16374894D01*
X8777054Y-16374894D02*
X8786577Y-16393941D01*
X8786577Y-16393941D02*
X8786577Y-16403465D01*
X8786577Y-16403465D02*
X8777054Y-16422513D01*
X8777054Y-16422513D02*
X8767530Y-16432036D01*
X8767530Y-16432036D02*
X8748482Y-16441560D01*
X8748482Y-16441560D02*
X8710387Y-16441560D01*
X8710387Y-16441560D02*
X8691339Y-16451084D01*
X8691339Y-16451084D02*
X8681816Y-16460608D01*
X8681816Y-16460608D02*
X8672292Y-16479656D01*
X8672292Y-16479656D02*
X8672292Y-16517751D01*
X8672292Y-16517751D02*
X8681816Y-16536798D01*
X8681816Y-16536798D02*
X8691339Y-16546322D01*
X8691339Y-16546322D02*
X8710387Y-16555846D01*
X8710387Y-16555846D02*
X8748482Y-16555846D01*
X8748482Y-16555846D02*
X8767530Y-16546322D01*
X8767530Y-16546322D02*
X8777054Y-16536798D01*
X8777054Y-16536798D02*
X8786577Y-16517751D01*
X8786577Y-16517751D02*
X8786577Y-16479656D01*
X8786577Y-16479656D02*
X8777054Y-16460608D01*
X8777054Y-16460608D02*
X8767530Y-16451084D01*
X8767530Y-16451084D02*
X8748482Y-16441560D01*
X8977054Y-16555846D02*
X8862768Y-16555846D01*
X8919911Y-16555846D02*
X8919911Y-16355846D01*
X8919911Y-16355846D02*
X8900863Y-16384417D01*
X8900863Y-16384417D02*
X8881816Y-16403465D01*
X8881816Y-16403465D02*
X8862768Y-16412989D01*
X9043720Y-16355846D02*
X9167530Y-16355846D01*
X9167530Y-16355846D02*
X9100863Y-16432036D01*
X9100863Y-16432036D02*
X9129435Y-16432036D01*
X9129435Y-16432036D02*
X9148482Y-16441560D01*
X9148482Y-16441560D02*
X9158006Y-16451084D01*
X9158006Y-16451084D02*
X9167530Y-16470132D01*
X9167530Y-16470132D02*
X9167530Y-16517751D01*
X9167530Y-16517751D02*
X9158006Y-16536798D01*
X9158006Y-16536798D02*
X9148482Y-16546322D01*
X9148482Y-16546322D02*
X9129435Y-16555846D01*
X9129435Y-16555846D02*
X9072292Y-16555846D01*
X9072292Y-16555846D02*
X9053244Y-16546322D01*
X9053244Y-16546322D02*
X9043720Y-16536798D01*
X9253244Y-16555846D02*
X9253244Y-16422513D01*
X9253244Y-16441560D02*
X9262768Y-16432036D01*
X9262768Y-16432036D02*
X9281816Y-16422513D01*
X9281816Y-16422513D02*
X9310387Y-16422513D01*
X9310387Y-16422513D02*
X9329435Y-16432036D01*
X9329435Y-16432036D02*
X9338958Y-16451084D01*
X9338958Y-16451084D02*
X9338958Y-16555846D01*
X9338958Y-16451084D02*
X9348482Y-16432036D01*
X9348482Y-16432036D02*
X9367530Y-16422513D01*
X9367530Y-16422513D02*
X9396101Y-16422513D01*
X9396101Y-16422513D02*
X9415149Y-16432036D01*
X9415149Y-16432036D02*
X9424673Y-16451084D01*
X9424673Y-16451084D02*
X9424673Y-16555846D01*
X9519911Y-16555846D02*
X9519911Y-16422513D01*
X9519911Y-16441560D02*
X9529435Y-16432036D01*
X9529435Y-16432036D02*
X9548482Y-16422513D01*
X9548482Y-16422513D02*
X9577054Y-16422513D01*
X9577054Y-16422513D02*
X9596101Y-16432036D01*
X9596101Y-16432036D02*
X9605625Y-16451084D01*
X9605625Y-16451084D02*
X9605625Y-16555846D01*
X9605625Y-16451084D02*
X9615149Y-16432036D01*
X9615149Y-16432036D02*
X9634197Y-16422513D01*
X9634197Y-16422513D02*
X9662768Y-16422513D01*
X9662768Y-16422513D02*
X9681816Y-16432036D01*
X9681816Y-16432036D02*
X9691339Y-16451084D01*
X9691339Y-16451084D02*
X9691339Y-16555846D01*
X10081816Y-16346322D02*
X9910387Y-16603465D01*
X10338959Y-16355846D02*
X10358006Y-16355846D01*
X10358006Y-16355846D02*
X10377054Y-16365370D01*
X10377054Y-16365370D02*
X10386578Y-16374894D01*
X10386578Y-16374894D02*
X10396101Y-16393941D01*
X10396101Y-16393941D02*
X10405625Y-16432036D01*
X10405625Y-16432036D02*
X10405625Y-16479656D01*
X10405625Y-16479656D02*
X10396101Y-16517751D01*
X10396101Y-16517751D02*
X10386578Y-16536798D01*
X10386578Y-16536798D02*
X10377054Y-16546322D01*
X10377054Y-16546322D02*
X10358006Y-16555846D01*
X10358006Y-16555846D02*
X10338959Y-16555846D01*
X10338959Y-16555846D02*
X10319911Y-16546322D01*
X10319911Y-16546322D02*
X10310387Y-16536798D01*
X10310387Y-16536798D02*
X10300863Y-16517751D01*
X10300863Y-16517751D02*
X10291340Y-16479656D01*
X10291340Y-16479656D02*
X10291340Y-16432036D01*
X10291340Y-16432036D02*
X10300863Y-16393941D01*
X10300863Y-16393941D02*
X10310387Y-16374894D01*
X10310387Y-16374894D02*
X10319911Y-16365370D01*
X10319911Y-16365370D02*
X10338959Y-16355846D01*
X10491340Y-16536798D02*
X10500863Y-16546322D01*
X10500863Y-16546322D02*
X10491340Y-16555846D01*
X10491340Y-16555846D02*
X10481816Y-16546322D01*
X10481816Y-16546322D02*
X10491340Y-16536798D01*
X10491340Y-16536798D02*
X10491340Y-16555846D01*
X10624673Y-16355846D02*
X10643721Y-16355846D01*
X10643721Y-16355846D02*
X10662768Y-16365370D01*
X10662768Y-16365370D02*
X10672292Y-16374894D01*
X10672292Y-16374894D02*
X10681816Y-16393941D01*
X10681816Y-16393941D02*
X10691340Y-16432036D01*
X10691340Y-16432036D02*
X10691340Y-16479656D01*
X10691340Y-16479656D02*
X10681816Y-16517751D01*
X10681816Y-16517751D02*
X10672292Y-16536798D01*
X10672292Y-16536798D02*
X10662768Y-16546322D01*
X10662768Y-16546322D02*
X10643721Y-16555846D01*
X10643721Y-16555846D02*
X10624673Y-16555846D01*
X10624673Y-16555846D02*
X10605625Y-16546322D01*
X10605625Y-16546322D02*
X10596101Y-16536798D01*
X10596101Y-16536798D02*
X10586578Y-16517751D01*
X10586578Y-16517751D02*
X10577054Y-16479656D01*
X10577054Y-16479656D02*
X10577054Y-16432036D01*
X10577054Y-16432036D02*
X10586578Y-16393941D01*
X10586578Y-16393941D02*
X10596101Y-16374894D01*
X10596101Y-16374894D02*
X10605625Y-16365370D01*
X10605625Y-16365370D02*
X10624673Y-16355846D01*
X10758006Y-16355846D02*
X10881816Y-16355846D01*
X10881816Y-16355846D02*
X10815149Y-16432036D01*
X10815149Y-16432036D02*
X10843721Y-16432036D01*
X10843721Y-16432036D02*
X10862768Y-16441560D01*
X10862768Y-16441560D02*
X10872292Y-16451084D01*
X10872292Y-16451084D02*
X10881816Y-16470132D01*
X10881816Y-16470132D02*
X10881816Y-16517751D01*
X10881816Y-16517751D02*
X10872292Y-16536798D01*
X10872292Y-16536798D02*
X10862768Y-16546322D01*
X10862768Y-16546322D02*
X10843721Y-16555846D01*
X10843721Y-16555846D02*
X10786578Y-16555846D01*
X10786578Y-16555846D02*
X10767530Y-16546322D01*
X10767530Y-16546322D02*
X10758006Y-16536798D01*
X10958006Y-16374894D02*
X10967530Y-16365370D01*
X10967530Y-16365370D02*
X10986578Y-16355846D01*
X10986578Y-16355846D02*
X11034197Y-16355846D01*
X11034197Y-16355846D02*
X11053244Y-16365370D01*
X11053244Y-16365370D02*
X11062768Y-16374894D01*
X11062768Y-16374894D02*
X11072292Y-16393941D01*
X11072292Y-16393941D02*
X11072292Y-16412989D01*
X11072292Y-16412989D02*
X11062768Y-16441560D01*
X11062768Y-16441560D02*
X10948482Y-16555846D01*
X10948482Y-16555846D02*
X11072292Y-16555846D01*
X11196101Y-16355846D02*
X11215149Y-16355846D01*
X11215149Y-16355846D02*
X11234197Y-16365370D01*
X11234197Y-16365370D02*
X11243720Y-16374894D01*
X11243720Y-16374894D02*
X11253244Y-16393941D01*
X11253244Y-16393941D02*
X11262768Y-16432036D01*
X11262768Y-16432036D02*
X11262768Y-16479656D01*
X11262768Y-16479656D02*
X11253244Y-16517751D01*
X11253244Y-16517751D02*
X11243720Y-16536798D01*
X11243720Y-16536798D02*
X11234197Y-16546322D01*
X11234197Y-16546322D02*
X11215149Y-16555846D01*
X11215149Y-16555846D02*
X11196101Y-16555846D01*
X11196101Y-16555846D02*
X11177054Y-16546322D01*
X11177054Y-16546322D02*
X11167530Y-16536798D01*
X11167530Y-16536798D02*
X11158006Y-16517751D01*
X11158006Y-16517751D02*
X11148482Y-16479656D01*
X11148482Y-16479656D02*
X11148482Y-16432036D01*
X11148482Y-16432036D02*
X11158006Y-16393941D01*
X11158006Y-16393941D02*
X11167530Y-16374894D01*
X11167530Y-16374894D02*
X11177054Y-16365370D01*
X11177054Y-16365370D02*
X11196101Y-16355846D01*
X11338959Y-16355846D02*
X11338959Y-16393941D01*
X11415149Y-16355846D02*
X11415149Y-16393941D01*
X11710387Y-16632036D02*
X11700863Y-16622513D01*
X11700863Y-16622513D02*
X11681816Y-16593941D01*
X11681816Y-16593941D02*
X11672292Y-16574894D01*
X11672292Y-16574894D02*
X11662768Y-16546322D01*
X11662768Y-16546322D02*
X11653244Y-16498703D01*
X11653244Y-16498703D02*
X11653244Y-16460608D01*
X11653244Y-16460608D02*
X11662768Y-16412989D01*
X11662768Y-16412989D02*
X11672292Y-16384417D01*
X11672292Y-16384417D02*
X11681816Y-16365370D01*
X11681816Y-16365370D02*
X11700863Y-16336798D01*
X11700863Y-16336798D02*
X11710387Y-16327275D01*
X11777054Y-16374894D02*
X11786578Y-16365370D01*
X11786578Y-16365370D02*
X11805625Y-16355846D01*
X11805625Y-16355846D02*
X11853244Y-16355846D01*
X11853244Y-16355846D02*
X11872292Y-16365370D01*
X11872292Y-16365370D02*
X11881816Y-16374894D01*
X11881816Y-16374894D02*
X11891340Y-16393941D01*
X11891340Y-16393941D02*
X11891340Y-16412989D01*
X11891340Y-16412989D02*
X11881816Y-16441560D01*
X11881816Y-16441560D02*
X11767530Y-16555846D01*
X11767530Y-16555846D02*
X11891340Y-16555846D01*
X12062768Y-16422513D02*
X12062768Y-16555846D01*
X12015149Y-16346322D02*
X11967530Y-16489179D01*
X11967530Y-16489179D02*
X12091340Y-16489179D01*
X12319911Y-16555846D02*
X12319911Y-16355846D01*
X12405625Y-16555846D02*
X12405625Y-16451084D01*
X12405625Y-16451084D02*
X12396102Y-16432036D01*
X12396102Y-16432036D02*
X12377054Y-16422513D01*
X12377054Y-16422513D02*
X12348482Y-16422513D01*
X12348482Y-16422513D02*
X12329435Y-16432036D01*
X12329435Y-16432036D02*
X12319911Y-16441560D01*
X12529435Y-16555846D02*
X12510387Y-16546322D01*
X12510387Y-16546322D02*
X12500863Y-16536798D01*
X12500863Y-16536798D02*
X12491340Y-16517751D01*
X12491340Y-16517751D02*
X12491340Y-16460608D01*
X12491340Y-16460608D02*
X12500863Y-16441560D01*
X12500863Y-16441560D02*
X12510387Y-16432036D01*
X12510387Y-16432036D02*
X12529435Y-16422513D01*
X12529435Y-16422513D02*
X12558006Y-16422513D01*
X12558006Y-16422513D02*
X12577054Y-16432036D01*
X12577054Y-16432036D02*
X12586578Y-16441560D01*
X12586578Y-16441560D02*
X12596102Y-16460608D01*
X12596102Y-16460608D02*
X12596102Y-16517751D01*
X12596102Y-16517751D02*
X12586578Y-16536798D01*
X12586578Y-16536798D02*
X12577054Y-16546322D01*
X12577054Y-16546322D02*
X12558006Y-16555846D01*
X12558006Y-16555846D02*
X12529435Y-16555846D01*
X12710387Y-16555846D02*
X12691340Y-16546322D01*
X12691340Y-16546322D02*
X12681816Y-16527275D01*
X12681816Y-16527275D02*
X12681816Y-16355846D01*
X12862768Y-16546322D02*
X12843721Y-16555846D01*
X12843721Y-16555846D02*
X12805625Y-16555846D01*
X12805625Y-16555846D02*
X12786578Y-16546322D01*
X12786578Y-16546322D02*
X12777054Y-16527275D01*
X12777054Y-16527275D02*
X12777054Y-16451084D01*
X12777054Y-16451084D02*
X12786578Y-16432036D01*
X12786578Y-16432036D02*
X12805625Y-16422513D01*
X12805625Y-16422513D02*
X12843721Y-16422513D01*
X12843721Y-16422513D02*
X12862768Y-16432036D01*
X12862768Y-16432036D02*
X12872292Y-16451084D01*
X12872292Y-16451084D02*
X12872292Y-16470132D01*
X12872292Y-16470132D02*
X12777054Y-16489179D01*
X12948483Y-16546322D02*
X12967530Y-16555846D01*
X12967530Y-16555846D02*
X13005625Y-16555846D01*
X13005625Y-16555846D02*
X13024673Y-16546322D01*
X13024673Y-16546322D02*
X13034197Y-16527275D01*
X13034197Y-16527275D02*
X13034197Y-16517751D01*
X13034197Y-16517751D02*
X13024673Y-16498703D01*
X13024673Y-16498703D02*
X13005625Y-16489179D01*
X13005625Y-16489179D02*
X12977054Y-16489179D01*
X12977054Y-16489179D02*
X12958006Y-16479656D01*
X12958006Y-16479656D02*
X12948483Y-16460608D01*
X12948483Y-16460608D02*
X12948483Y-16451084D01*
X12948483Y-16451084D02*
X12958006Y-16432036D01*
X12958006Y-16432036D02*
X12977054Y-16422513D01*
X12977054Y-16422513D02*
X13005625Y-16422513D01*
X13005625Y-16422513D02*
X13024673Y-16432036D01*
X13100864Y-16632036D02*
X13110387Y-16622513D01*
X13110387Y-16622513D02*
X13129435Y-16593941D01*
X13129435Y-16593941D02*
X13138959Y-16574894D01*
X13138959Y-16574894D02*
X13148483Y-16546322D01*
X13148483Y-16546322D02*
X13158006Y-16498703D01*
X13158006Y-16498703D02*
X13158006Y-16460608D01*
X13158006Y-16460608D02*
X13148483Y-16412989D01*
X13148483Y-16412989D02*
X13138959Y-16384417D01*
X13138959Y-16384417D02*
X13129435Y-16365370D01*
X13129435Y-16365370D02*
X13110387Y-16336798D01*
X13110387Y-16336798D02*
X13100864Y-16327275D01*
D10*
X8090324Y-16773362D02*
X8135324Y-16728362D01*
X8090324Y-16683362D01*
X8045324Y-16728362D01*
X8090324Y-16773362D01*
D13*
X8434196Y-16619846D02*
X8453244Y-16619846D01*
X8453244Y-16619846D02*
X8472292Y-16629370D01*
X8472292Y-16629370D02*
X8481816Y-16638894D01*
X8481816Y-16638894D02*
X8491339Y-16657941D01*
X8491339Y-16657941D02*
X8500863Y-16696036D01*
X8500863Y-16696036D02*
X8500863Y-16743656D01*
X8500863Y-16743656D02*
X8491339Y-16781751D01*
X8491339Y-16781751D02*
X8481816Y-16800798D01*
X8481816Y-16800798D02*
X8472292Y-16810322D01*
X8472292Y-16810322D02*
X8453244Y-16819846D01*
X8453244Y-16819846D02*
X8434196Y-16819846D01*
X8434196Y-16819846D02*
X8415149Y-16810322D01*
X8415149Y-16810322D02*
X8405625Y-16800798D01*
X8405625Y-16800798D02*
X8396101Y-16781751D01*
X8396101Y-16781751D02*
X8386577Y-16743656D01*
X8386577Y-16743656D02*
X8386577Y-16696036D01*
X8386577Y-16696036D02*
X8396101Y-16657941D01*
X8396101Y-16657941D02*
X8405625Y-16638894D01*
X8405625Y-16638894D02*
X8415149Y-16629370D01*
X8415149Y-16629370D02*
X8434196Y-16619846D01*
X8586577Y-16800798D02*
X8596101Y-16810322D01*
X8596101Y-16810322D02*
X8586577Y-16819846D01*
X8586577Y-16819846D02*
X8577054Y-16810322D01*
X8577054Y-16810322D02*
X8586577Y-16800798D01*
X8586577Y-16800798D02*
X8586577Y-16819846D01*
X8691339Y-16819846D02*
X8729435Y-16819846D01*
X8729435Y-16819846D02*
X8748482Y-16810322D01*
X8748482Y-16810322D02*
X8758006Y-16800798D01*
X8758006Y-16800798D02*
X8777054Y-16772227D01*
X8777054Y-16772227D02*
X8786577Y-16734132D01*
X8786577Y-16734132D02*
X8786577Y-16657941D01*
X8786577Y-16657941D02*
X8777054Y-16638894D01*
X8777054Y-16638894D02*
X8767530Y-16629370D01*
X8767530Y-16629370D02*
X8748482Y-16619846D01*
X8748482Y-16619846D02*
X8710387Y-16619846D01*
X8710387Y-16619846D02*
X8691339Y-16629370D01*
X8691339Y-16629370D02*
X8681816Y-16638894D01*
X8681816Y-16638894D02*
X8672292Y-16657941D01*
X8672292Y-16657941D02*
X8672292Y-16705560D01*
X8672292Y-16705560D02*
X8681816Y-16724608D01*
X8681816Y-16724608D02*
X8691339Y-16734132D01*
X8691339Y-16734132D02*
X8710387Y-16743656D01*
X8710387Y-16743656D02*
X8748482Y-16743656D01*
X8748482Y-16743656D02*
X8767530Y-16734132D01*
X8767530Y-16734132D02*
X8777054Y-16724608D01*
X8777054Y-16724608D02*
X8786577Y-16705560D01*
X8910387Y-16619846D02*
X8929435Y-16619846D01*
X8929435Y-16619846D02*
X8948482Y-16629370D01*
X8948482Y-16629370D02*
X8958006Y-16638894D01*
X8958006Y-16638894D02*
X8967530Y-16657941D01*
X8967530Y-16657941D02*
X8977054Y-16696036D01*
X8977054Y-16696036D02*
X8977054Y-16743656D01*
X8977054Y-16743656D02*
X8967530Y-16781751D01*
X8967530Y-16781751D02*
X8958006Y-16800798D01*
X8958006Y-16800798D02*
X8948482Y-16810322D01*
X8948482Y-16810322D02*
X8929435Y-16819846D01*
X8929435Y-16819846D02*
X8910387Y-16819846D01*
X8910387Y-16819846D02*
X8891339Y-16810322D01*
X8891339Y-16810322D02*
X8881816Y-16800798D01*
X8881816Y-16800798D02*
X8872292Y-16781751D01*
X8872292Y-16781751D02*
X8862768Y-16743656D01*
X8862768Y-16743656D02*
X8862768Y-16696036D01*
X8862768Y-16696036D02*
X8872292Y-16657941D01*
X8872292Y-16657941D02*
X8881816Y-16638894D01*
X8881816Y-16638894D02*
X8891339Y-16629370D01*
X8891339Y-16629370D02*
X8910387Y-16619846D01*
X9100863Y-16619846D02*
X9119911Y-16619846D01*
X9119911Y-16619846D02*
X9138958Y-16629370D01*
X9138958Y-16629370D02*
X9148482Y-16638894D01*
X9148482Y-16638894D02*
X9158006Y-16657941D01*
X9158006Y-16657941D02*
X9167530Y-16696036D01*
X9167530Y-16696036D02*
X9167530Y-16743656D01*
X9167530Y-16743656D02*
X9158006Y-16781751D01*
X9158006Y-16781751D02*
X9148482Y-16800798D01*
X9148482Y-16800798D02*
X9138958Y-16810322D01*
X9138958Y-16810322D02*
X9119911Y-16819846D01*
X9119911Y-16819846D02*
X9100863Y-16819846D01*
X9100863Y-16819846D02*
X9081816Y-16810322D01*
X9081816Y-16810322D02*
X9072292Y-16800798D01*
X9072292Y-16800798D02*
X9062768Y-16781751D01*
X9062768Y-16781751D02*
X9053244Y-16743656D01*
X9053244Y-16743656D02*
X9053244Y-16696036D01*
X9053244Y-16696036D02*
X9062768Y-16657941D01*
X9062768Y-16657941D02*
X9072292Y-16638894D01*
X9072292Y-16638894D02*
X9081816Y-16629370D01*
X9081816Y-16629370D02*
X9100863Y-16619846D01*
X9253244Y-16819846D02*
X9253244Y-16686513D01*
X9253244Y-16705560D02*
X9262768Y-16696036D01*
X9262768Y-16696036D02*
X9281816Y-16686513D01*
X9281816Y-16686513D02*
X9310387Y-16686513D01*
X9310387Y-16686513D02*
X9329435Y-16696036D01*
X9329435Y-16696036D02*
X9338958Y-16715084D01*
X9338958Y-16715084D02*
X9338958Y-16819846D01*
X9338958Y-16715084D02*
X9348482Y-16696036D01*
X9348482Y-16696036D02*
X9367530Y-16686513D01*
X9367530Y-16686513D02*
X9396101Y-16686513D01*
X9396101Y-16686513D02*
X9415149Y-16696036D01*
X9415149Y-16696036D02*
X9424673Y-16715084D01*
X9424673Y-16715084D02*
X9424673Y-16819846D01*
X9519911Y-16819846D02*
X9519911Y-16686513D01*
X9519911Y-16705560D02*
X9529435Y-16696036D01*
X9529435Y-16696036D02*
X9548482Y-16686513D01*
X9548482Y-16686513D02*
X9577054Y-16686513D01*
X9577054Y-16686513D02*
X9596101Y-16696036D01*
X9596101Y-16696036D02*
X9605625Y-16715084D01*
X9605625Y-16715084D02*
X9605625Y-16819846D01*
X9605625Y-16715084D02*
X9615149Y-16696036D01*
X9615149Y-16696036D02*
X9634197Y-16686513D01*
X9634197Y-16686513D02*
X9662768Y-16686513D01*
X9662768Y-16686513D02*
X9681816Y-16696036D01*
X9681816Y-16696036D02*
X9691339Y-16715084D01*
X9691339Y-16715084D02*
X9691339Y-16819846D01*
X10081816Y-16610322D02*
X9910387Y-16867465D01*
X10338959Y-16619846D02*
X10358006Y-16619846D01*
X10358006Y-16619846D02*
X10377054Y-16629370D01*
X10377054Y-16629370D02*
X10386578Y-16638894D01*
X10386578Y-16638894D02*
X10396101Y-16657941D01*
X10396101Y-16657941D02*
X10405625Y-16696036D01*
X10405625Y-16696036D02*
X10405625Y-16743656D01*
X10405625Y-16743656D02*
X10396101Y-16781751D01*
X10396101Y-16781751D02*
X10386578Y-16800798D01*
X10386578Y-16800798D02*
X10377054Y-16810322D01*
X10377054Y-16810322D02*
X10358006Y-16819846D01*
X10358006Y-16819846D02*
X10338959Y-16819846D01*
X10338959Y-16819846D02*
X10319911Y-16810322D01*
X10319911Y-16810322D02*
X10310387Y-16800798D01*
X10310387Y-16800798D02*
X10300863Y-16781751D01*
X10300863Y-16781751D02*
X10291340Y-16743656D01*
X10291340Y-16743656D02*
X10291340Y-16696036D01*
X10291340Y-16696036D02*
X10300863Y-16657941D01*
X10300863Y-16657941D02*
X10310387Y-16638894D01*
X10310387Y-16638894D02*
X10319911Y-16629370D01*
X10319911Y-16629370D02*
X10338959Y-16619846D01*
X10491340Y-16800798D02*
X10500863Y-16810322D01*
X10500863Y-16810322D02*
X10491340Y-16819846D01*
X10491340Y-16819846D02*
X10481816Y-16810322D01*
X10481816Y-16810322D02*
X10491340Y-16800798D01*
X10491340Y-16800798D02*
X10491340Y-16819846D01*
X10624673Y-16619846D02*
X10643721Y-16619846D01*
X10643721Y-16619846D02*
X10662768Y-16629370D01*
X10662768Y-16629370D02*
X10672292Y-16638894D01*
X10672292Y-16638894D02*
X10681816Y-16657941D01*
X10681816Y-16657941D02*
X10691340Y-16696036D01*
X10691340Y-16696036D02*
X10691340Y-16743656D01*
X10691340Y-16743656D02*
X10681816Y-16781751D01*
X10681816Y-16781751D02*
X10672292Y-16800798D01*
X10672292Y-16800798D02*
X10662768Y-16810322D01*
X10662768Y-16810322D02*
X10643721Y-16819846D01*
X10643721Y-16819846D02*
X10624673Y-16819846D01*
X10624673Y-16819846D02*
X10605625Y-16810322D01*
X10605625Y-16810322D02*
X10596101Y-16800798D01*
X10596101Y-16800798D02*
X10586578Y-16781751D01*
X10586578Y-16781751D02*
X10577054Y-16743656D01*
X10577054Y-16743656D02*
X10577054Y-16696036D01*
X10577054Y-16696036D02*
X10586578Y-16657941D01*
X10586578Y-16657941D02*
X10596101Y-16638894D01*
X10596101Y-16638894D02*
X10605625Y-16629370D01*
X10605625Y-16629370D02*
X10624673Y-16619846D01*
X10758006Y-16619846D02*
X10881816Y-16619846D01*
X10881816Y-16619846D02*
X10815149Y-16696036D01*
X10815149Y-16696036D02*
X10843721Y-16696036D01*
X10843721Y-16696036D02*
X10862768Y-16705560D01*
X10862768Y-16705560D02*
X10872292Y-16715084D01*
X10872292Y-16715084D02*
X10881816Y-16734132D01*
X10881816Y-16734132D02*
X10881816Y-16781751D01*
X10881816Y-16781751D02*
X10872292Y-16800798D01*
X10872292Y-16800798D02*
X10862768Y-16810322D01*
X10862768Y-16810322D02*
X10843721Y-16819846D01*
X10843721Y-16819846D02*
X10786578Y-16819846D01*
X10786578Y-16819846D02*
X10767530Y-16810322D01*
X10767530Y-16810322D02*
X10758006Y-16800798D01*
X11062768Y-16619846D02*
X10967530Y-16619846D01*
X10967530Y-16619846D02*
X10958006Y-16715084D01*
X10958006Y-16715084D02*
X10967530Y-16705560D01*
X10967530Y-16705560D02*
X10986578Y-16696036D01*
X10986578Y-16696036D02*
X11034197Y-16696036D01*
X11034197Y-16696036D02*
X11053244Y-16705560D01*
X11053244Y-16705560D02*
X11062768Y-16715084D01*
X11062768Y-16715084D02*
X11072292Y-16734132D01*
X11072292Y-16734132D02*
X11072292Y-16781751D01*
X11072292Y-16781751D02*
X11062768Y-16800798D01*
X11062768Y-16800798D02*
X11053244Y-16810322D01*
X11053244Y-16810322D02*
X11034197Y-16819846D01*
X11034197Y-16819846D02*
X10986578Y-16819846D01*
X10986578Y-16819846D02*
X10967530Y-16810322D01*
X10967530Y-16810322D02*
X10958006Y-16800798D01*
X11243720Y-16686513D02*
X11243720Y-16819846D01*
X11196101Y-16610322D02*
X11148482Y-16753179D01*
X11148482Y-16753179D02*
X11272292Y-16753179D01*
X11338959Y-16619846D02*
X11338959Y-16657941D01*
X11415149Y-16619846D02*
X11415149Y-16657941D01*
X11710387Y-16896037D02*
X11700863Y-16886513D01*
X11700863Y-16886513D02*
X11681816Y-16857941D01*
X11681816Y-16857941D02*
X11672292Y-16838894D01*
X11672292Y-16838894D02*
X11662768Y-16810322D01*
X11662768Y-16810322D02*
X11653244Y-16762703D01*
X11653244Y-16762703D02*
X11653244Y-16724608D01*
X11653244Y-16724608D02*
X11662768Y-16676989D01*
X11662768Y-16676989D02*
X11672292Y-16648417D01*
X11672292Y-16648417D02*
X11681816Y-16629370D01*
X11681816Y-16629370D02*
X11700863Y-16600798D01*
X11700863Y-16600798D02*
X11710387Y-16591275D01*
X11872292Y-16619846D02*
X11834197Y-16619846D01*
X11834197Y-16619846D02*
X11815149Y-16629370D01*
X11815149Y-16629370D02*
X11805625Y-16638894D01*
X11805625Y-16638894D02*
X11786578Y-16667465D01*
X11786578Y-16667465D02*
X11777054Y-16705560D01*
X11777054Y-16705560D02*
X11777054Y-16781751D01*
X11777054Y-16781751D02*
X11786578Y-16800798D01*
X11786578Y-16800798D02*
X11796101Y-16810322D01*
X11796101Y-16810322D02*
X11815149Y-16819846D01*
X11815149Y-16819846D02*
X11853244Y-16819846D01*
X11853244Y-16819846D02*
X11872292Y-16810322D01*
X11872292Y-16810322D02*
X11881816Y-16800798D01*
X11881816Y-16800798D02*
X11891340Y-16781751D01*
X11891340Y-16781751D02*
X11891340Y-16734132D01*
X11891340Y-16734132D02*
X11881816Y-16715084D01*
X11881816Y-16715084D02*
X11872292Y-16705560D01*
X11872292Y-16705560D02*
X11853244Y-16696036D01*
X11853244Y-16696036D02*
X11815149Y-16696036D01*
X11815149Y-16696036D02*
X11796101Y-16705560D01*
X11796101Y-16705560D02*
X11786578Y-16715084D01*
X11786578Y-16715084D02*
X11777054Y-16734132D01*
X11967530Y-16638894D02*
X11977054Y-16629370D01*
X11977054Y-16629370D02*
X11996101Y-16619846D01*
X11996101Y-16619846D02*
X12043721Y-16619846D01*
X12043721Y-16619846D02*
X12062768Y-16629370D01*
X12062768Y-16629370D02*
X12072292Y-16638894D01*
X12072292Y-16638894D02*
X12081816Y-16657941D01*
X12081816Y-16657941D02*
X12081816Y-16676989D01*
X12081816Y-16676989D02*
X12072292Y-16705560D01*
X12072292Y-16705560D02*
X11958006Y-16819846D01*
X11958006Y-16819846D02*
X12081816Y-16819846D01*
X12319911Y-16819846D02*
X12319911Y-16619846D01*
X12405625Y-16819846D02*
X12405625Y-16715084D01*
X12405625Y-16715084D02*
X12396102Y-16696036D01*
X12396102Y-16696036D02*
X12377054Y-16686513D01*
X12377054Y-16686513D02*
X12348482Y-16686513D01*
X12348482Y-16686513D02*
X12329435Y-16696036D01*
X12329435Y-16696036D02*
X12319911Y-16705560D01*
X12529435Y-16819846D02*
X12510387Y-16810322D01*
X12510387Y-16810322D02*
X12500863Y-16800798D01*
X12500863Y-16800798D02*
X12491340Y-16781751D01*
X12491340Y-16781751D02*
X12491340Y-16724608D01*
X12491340Y-16724608D02*
X12500863Y-16705560D01*
X12500863Y-16705560D02*
X12510387Y-16696036D01*
X12510387Y-16696036D02*
X12529435Y-16686513D01*
X12529435Y-16686513D02*
X12558006Y-16686513D01*
X12558006Y-16686513D02*
X12577054Y-16696036D01*
X12577054Y-16696036D02*
X12586578Y-16705560D01*
X12586578Y-16705560D02*
X12596102Y-16724608D01*
X12596102Y-16724608D02*
X12596102Y-16781751D01*
X12596102Y-16781751D02*
X12586578Y-16800798D01*
X12586578Y-16800798D02*
X12577054Y-16810322D01*
X12577054Y-16810322D02*
X12558006Y-16819846D01*
X12558006Y-16819846D02*
X12529435Y-16819846D01*
X12710387Y-16819846D02*
X12691340Y-16810322D01*
X12691340Y-16810322D02*
X12681816Y-16791275D01*
X12681816Y-16791275D02*
X12681816Y-16619846D01*
X12862768Y-16810322D02*
X12843721Y-16819846D01*
X12843721Y-16819846D02*
X12805625Y-16819846D01*
X12805625Y-16819846D02*
X12786578Y-16810322D01*
X12786578Y-16810322D02*
X12777054Y-16791275D01*
X12777054Y-16791275D02*
X12777054Y-16715084D01*
X12777054Y-16715084D02*
X12786578Y-16696036D01*
X12786578Y-16696036D02*
X12805625Y-16686513D01*
X12805625Y-16686513D02*
X12843721Y-16686513D01*
X12843721Y-16686513D02*
X12862768Y-16696036D01*
X12862768Y-16696036D02*
X12872292Y-16715084D01*
X12872292Y-16715084D02*
X12872292Y-16734132D01*
X12872292Y-16734132D02*
X12777054Y-16753179D01*
X12948483Y-16810322D02*
X12967530Y-16819846D01*
X12967530Y-16819846D02*
X13005625Y-16819846D01*
X13005625Y-16819846D02*
X13024673Y-16810322D01*
X13024673Y-16810322D02*
X13034197Y-16791275D01*
X13034197Y-16791275D02*
X13034197Y-16781751D01*
X13034197Y-16781751D02*
X13024673Y-16762703D01*
X13024673Y-16762703D02*
X13005625Y-16753179D01*
X13005625Y-16753179D02*
X12977054Y-16753179D01*
X12977054Y-16753179D02*
X12958006Y-16743656D01*
X12958006Y-16743656D02*
X12948483Y-16724608D01*
X12948483Y-16724608D02*
X12948483Y-16715084D01*
X12948483Y-16715084D02*
X12958006Y-16696036D01*
X12958006Y-16696036D02*
X12977054Y-16686513D01*
X12977054Y-16686513D02*
X13005625Y-16686513D01*
X13005625Y-16686513D02*
X13024673Y-16696036D01*
X13100864Y-16896037D02*
X13110387Y-16886513D01*
X13110387Y-16886513D02*
X13129435Y-16857941D01*
X13129435Y-16857941D02*
X13138959Y-16838894D01*
X13138959Y-16838894D02*
X13148483Y-16810322D01*
X13148483Y-16810322D02*
X13158006Y-16762703D01*
X13158006Y-16762703D02*
X13158006Y-16724608D01*
X13158006Y-16724608D02*
X13148483Y-16676989D01*
X13148483Y-16676989D02*
X13138959Y-16648417D01*
X13138959Y-16648417D02*
X13129435Y-16629370D01*
X13129435Y-16629370D02*
X13110387Y-16600798D01*
X13110387Y-16600798D02*
X13100864Y-16591275D01*
D10*
X8035324Y-16942362D02*
X8135324Y-17042362D01*
X8135324Y-16942362D02*
X8035324Y-17042362D01*
X8135324Y-16992362D02*
G75*
G02*
X8035324Y-16992362I-50000J0D01*
G01*
X8035324Y-16992362D02*
G75*
G02*
X8135324Y-16992362I50000J0D01*
G01*
D13*
X8500863Y-17083846D02*
X8386577Y-17083846D01*
X8443720Y-17083846D02*
X8443720Y-16883846D01*
X8443720Y-16883846D02*
X8424673Y-16912418D01*
X8424673Y-16912418D02*
X8405625Y-16931465D01*
X8405625Y-16931465D02*
X8386577Y-16940989D01*
X8586577Y-17064798D02*
X8596101Y-17074322D01*
X8596101Y-17074322D02*
X8586577Y-17083846D01*
X8586577Y-17083846D02*
X8577054Y-17074322D01*
X8577054Y-17074322D02*
X8586577Y-17064798D01*
X8586577Y-17064798D02*
X8586577Y-17083846D01*
X8719911Y-16883846D02*
X8738958Y-16883846D01*
X8738958Y-16883846D02*
X8758006Y-16893370D01*
X8758006Y-16893370D02*
X8767530Y-16902894D01*
X8767530Y-16902894D02*
X8777054Y-16921941D01*
X8777054Y-16921941D02*
X8786577Y-16960037D01*
X8786577Y-16960037D02*
X8786577Y-17007656D01*
X8786577Y-17007656D02*
X8777054Y-17045751D01*
X8777054Y-17045751D02*
X8767530Y-17064798D01*
X8767530Y-17064798D02*
X8758006Y-17074322D01*
X8758006Y-17074322D02*
X8738958Y-17083846D01*
X8738958Y-17083846D02*
X8719911Y-17083846D01*
X8719911Y-17083846D02*
X8700863Y-17074322D01*
X8700863Y-17074322D02*
X8691339Y-17064798D01*
X8691339Y-17064798D02*
X8681816Y-17045751D01*
X8681816Y-17045751D02*
X8672292Y-17007656D01*
X8672292Y-17007656D02*
X8672292Y-16960037D01*
X8672292Y-16960037D02*
X8681816Y-16921941D01*
X8681816Y-16921941D02*
X8691339Y-16902894D01*
X8691339Y-16902894D02*
X8700863Y-16893370D01*
X8700863Y-16893370D02*
X8719911Y-16883846D01*
X8910387Y-16883846D02*
X8929435Y-16883846D01*
X8929435Y-16883846D02*
X8948482Y-16893370D01*
X8948482Y-16893370D02*
X8958006Y-16902894D01*
X8958006Y-16902894D02*
X8967530Y-16921941D01*
X8967530Y-16921941D02*
X8977054Y-16960037D01*
X8977054Y-16960037D02*
X8977054Y-17007656D01*
X8977054Y-17007656D02*
X8967530Y-17045751D01*
X8967530Y-17045751D02*
X8958006Y-17064798D01*
X8958006Y-17064798D02*
X8948482Y-17074322D01*
X8948482Y-17074322D02*
X8929435Y-17083846D01*
X8929435Y-17083846D02*
X8910387Y-17083846D01*
X8910387Y-17083846D02*
X8891339Y-17074322D01*
X8891339Y-17074322D02*
X8881816Y-17064798D01*
X8881816Y-17064798D02*
X8872292Y-17045751D01*
X8872292Y-17045751D02*
X8862768Y-17007656D01*
X8862768Y-17007656D02*
X8862768Y-16960037D01*
X8862768Y-16960037D02*
X8872292Y-16921941D01*
X8872292Y-16921941D02*
X8881816Y-16902894D01*
X8881816Y-16902894D02*
X8891339Y-16893370D01*
X8891339Y-16893370D02*
X8910387Y-16883846D01*
X9100863Y-16883846D02*
X9119911Y-16883846D01*
X9119911Y-16883846D02*
X9138958Y-16893370D01*
X9138958Y-16893370D02*
X9148482Y-16902894D01*
X9148482Y-16902894D02*
X9158006Y-16921941D01*
X9158006Y-16921941D02*
X9167530Y-16960037D01*
X9167530Y-16960037D02*
X9167530Y-17007656D01*
X9167530Y-17007656D02*
X9158006Y-17045751D01*
X9158006Y-17045751D02*
X9148482Y-17064798D01*
X9148482Y-17064798D02*
X9138958Y-17074322D01*
X9138958Y-17074322D02*
X9119911Y-17083846D01*
X9119911Y-17083846D02*
X9100863Y-17083846D01*
X9100863Y-17083846D02*
X9081816Y-17074322D01*
X9081816Y-17074322D02*
X9072292Y-17064798D01*
X9072292Y-17064798D02*
X9062768Y-17045751D01*
X9062768Y-17045751D02*
X9053244Y-17007656D01*
X9053244Y-17007656D02*
X9053244Y-16960037D01*
X9053244Y-16960037D02*
X9062768Y-16921941D01*
X9062768Y-16921941D02*
X9072292Y-16902894D01*
X9072292Y-16902894D02*
X9081816Y-16893370D01*
X9081816Y-16893370D02*
X9100863Y-16883846D01*
X9253244Y-17083846D02*
X9253244Y-16950513D01*
X9253244Y-16969560D02*
X9262768Y-16960037D01*
X9262768Y-16960037D02*
X9281816Y-16950513D01*
X9281816Y-16950513D02*
X9310387Y-16950513D01*
X9310387Y-16950513D02*
X9329435Y-16960037D01*
X9329435Y-16960037D02*
X9338958Y-16979084D01*
X9338958Y-16979084D02*
X9338958Y-17083846D01*
X9338958Y-16979084D02*
X9348482Y-16960037D01*
X9348482Y-16960037D02*
X9367530Y-16950513D01*
X9367530Y-16950513D02*
X9396101Y-16950513D01*
X9396101Y-16950513D02*
X9415149Y-16960037D01*
X9415149Y-16960037D02*
X9424673Y-16979084D01*
X9424673Y-16979084D02*
X9424673Y-17083846D01*
X9519911Y-17083846D02*
X9519911Y-16950513D01*
X9519911Y-16969560D02*
X9529435Y-16960037D01*
X9529435Y-16960037D02*
X9548482Y-16950513D01*
X9548482Y-16950513D02*
X9577054Y-16950513D01*
X9577054Y-16950513D02*
X9596101Y-16960037D01*
X9596101Y-16960037D02*
X9605625Y-16979084D01*
X9605625Y-16979084D02*
X9605625Y-17083846D01*
X9605625Y-16979084D02*
X9615149Y-16960037D01*
X9615149Y-16960037D02*
X9634197Y-16950513D01*
X9634197Y-16950513D02*
X9662768Y-16950513D01*
X9662768Y-16950513D02*
X9681816Y-16960037D01*
X9681816Y-16960037D02*
X9691339Y-16979084D01*
X9691339Y-16979084D02*
X9691339Y-17083846D01*
X10081816Y-16874322D02*
X9910387Y-17131465D01*
X10338959Y-16883846D02*
X10358006Y-16883846D01*
X10358006Y-16883846D02*
X10377054Y-16893370D01*
X10377054Y-16893370D02*
X10386578Y-16902894D01*
X10386578Y-16902894D02*
X10396101Y-16921941D01*
X10396101Y-16921941D02*
X10405625Y-16960037D01*
X10405625Y-16960037D02*
X10405625Y-17007656D01*
X10405625Y-17007656D02*
X10396101Y-17045751D01*
X10396101Y-17045751D02*
X10386578Y-17064798D01*
X10386578Y-17064798D02*
X10377054Y-17074322D01*
X10377054Y-17074322D02*
X10358006Y-17083846D01*
X10358006Y-17083846D02*
X10338959Y-17083846D01*
X10338959Y-17083846D02*
X10319911Y-17074322D01*
X10319911Y-17074322D02*
X10310387Y-17064798D01*
X10310387Y-17064798D02*
X10300863Y-17045751D01*
X10300863Y-17045751D02*
X10291340Y-17007656D01*
X10291340Y-17007656D02*
X10291340Y-16960037D01*
X10291340Y-16960037D02*
X10300863Y-16921941D01*
X10300863Y-16921941D02*
X10310387Y-16902894D01*
X10310387Y-16902894D02*
X10319911Y-16893370D01*
X10319911Y-16893370D02*
X10338959Y-16883846D01*
X10491340Y-17064798D02*
X10500863Y-17074322D01*
X10500863Y-17074322D02*
X10491340Y-17083846D01*
X10491340Y-17083846D02*
X10481816Y-17074322D01*
X10481816Y-17074322D02*
X10491340Y-17064798D01*
X10491340Y-17064798D02*
X10491340Y-17083846D01*
X10624673Y-16883846D02*
X10643721Y-16883846D01*
X10643721Y-16883846D02*
X10662768Y-16893370D01*
X10662768Y-16893370D02*
X10672292Y-16902894D01*
X10672292Y-16902894D02*
X10681816Y-16921941D01*
X10681816Y-16921941D02*
X10691340Y-16960037D01*
X10691340Y-16960037D02*
X10691340Y-17007656D01*
X10691340Y-17007656D02*
X10681816Y-17045751D01*
X10681816Y-17045751D02*
X10672292Y-17064798D01*
X10672292Y-17064798D02*
X10662768Y-17074322D01*
X10662768Y-17074322D02*
X10643721Y-17083846D01*
X10643721Y-17083846D02*
X10624673Y-17083846D01*
X10624673Y-17083846D02*
X10605625Y-17074322D01*
X10605625Y-17074322D02*
X10596101Y-17064798D01*
X10596101Y-17064798D02*
X10586578Y-17045751D01*
X10586578Y-17045751D02*
X10577054Y-17007656D01*
X10577054Y-17007656D02*
X10577054Y-16960037D01*
X10577054Y-16960037D02*
X10586578Y-16921941D01*
X10586578Y-16921941D02*
X10596101Y-16902894D01*
X10596101Y-16902894D02*
X10605625Y-16893370D01*
X10605625Y-16893370D02*
X10624673Y-16883846D01*
X10758006Y-16883846D02*
X10881816Y-16883846D01*
X10881816Y-16883846D02*
X10815149Y-16960037D01*
X10815149Y-16960037D02*
X10843721Y-16960037D01*
X10843721Y-16960037D02*
X10862768Y-16969560D01*
X10862768Y-16969560D02*
X10872292Y-16979084D01*
X10872292Y-16979084D02*
X10881816Y-16998132D01*
X10881816Y-16998132D02*
X10881816Y-17045751D01*
X10881816Y-17045751D02*
X10872292Y-17064798D01*
X10872292Y-17064798D02*
X10862768Y-17074322D01*
X10862768Y-17074322D02*
X10843721Y-17083846D01*
X10843721Y-17083846D02*
X10786578Y-17083846D01*
X10786578Y-17083846D02*
X10767530Y-17074322D01*
X10767530Y-17074322D02*
X10758006Y-17064798D01*
X10977054Y-17083846D02*
X11015149Y-17083846D01*
X11015149Y-17083846D02*
X11034197Y-17074322D01*
X11034197Y-17074322D02*
X11043721Y-17064798D01*
X11043721Y-17064798D02*
X11062768Y-17036227D01*
X11062768Y-17036227D02*
X11072292Y-16998132D01*
X11072292Y-16998132D02*
X11072292Y-16921941D01*
X11072292Y-16921941D02*
X11062768Y-16902894D01*
X11062768Y-16902894D02*
X11053244Y-16893370D01*
X11053244Y-16893370D02*
X11034197Y-16883846D01*
X11034197Y-16883846D02*
X10996101Y-16883846D01*
X10996101Y-16883846D02*
X10977054Y-16893370D01*
X10977054Y-16893370D02*
X10967530Y-16902894D01*
X10967530Y-16902894D02*
X10958006Y-16921941D01*
X10958006Y-16921941D02*
X10958006Y-16969560D01*
X10958006Y-16969560D02*
X10967530Y-16988608D01*
X10967530Y-16988608D02*
X10977054Y-16998132D01*
X10977054Y-16998132D02*
X10996101Y-17007656D01*
X10996101Y-17007656D02*
X11034197Y-17007656D01*
X11034197Y-17007656D02*
X11053244Y-16998132D01*
X11053244Y-16998132D02*
X11062768Y-16988608D01*
X11062768Y-16988608D02*
X11072292Y-16969560D01*
X11243720Y-16950513D02*
X11243720Y-17083846D01*
X11196101Y-16874322D02*
X11148482Y-17017179D01*
X11148482Y-17017179D02*
X11272292Y-17017179D01*
X11338959Y-16883846D02*
X11338959Y-16921941D01*
X11415149Y-16883846D02*
X11415149Y-16921941D01*
X11710387Y-17160037D02*
X11700863Y-17150513D01*
X11700863Y-17150513D02*
X11681816Y-17121941D01*
X11681816Y-17121941D02*
X11672292Y-17102894D01*
X11672292Y-17102894D02*
X11662768Y-17074322D01*
X11662768Y-17074322D02*
X11653244Y-17026703D01*
X11653244Y-17026703D02*
X11653244Y-16988608D01*
X11653244Y-16988608D02*
X11662768Y-16940989D01*
X11662768Y-16940989D02*
X11672292Y-16912418D01*
X11672292Y-16912418D02*
X11681816Y-16893370D01*
X11681816Y-16893370D02*
X11700863Y-16864798D01*
X11700863Y-16864798D02*
X11710387Y-16855275D01*
X11777054Y-16902894D02*
X11786578Y-16893370D01*
X11786578Y-16893370D02*
X11805625Y-16883846D01*
X11805625Y-16883846D02*
X11853244Y-16883846D01*
X11853244Y-16883846D02*
X11872292Y-16893370D01*
X11872292Y-16893370D02*
X11881816Y-16902894D01*
X11881816Y-16902894D02*
X11891340Y-16921941D01*
X11891340Y-16921941D02*
X11891340Y-16940989D01*
X11891340Y-16940989D02*
X11881816Y-16969560D01*
X11881816Y-16969560D02*
X11767530Y-17083846D01*
X11767530Y-17083846D02*
X11891340Y-17083846D01*
X12015149Y-16883846D02*
X12034197Y-16883846D01*
X12034197Y-16883846D02*
X12053244Y-16893370D01*
X12053244Y-16893370D02*
X12062768Y-16902894D01*
X12062768Y-16902894D02*
X12072292Y-16921941D01*
X12072292Y-16921941D02*
X12081816Y-16960037D01*
X12081816Y-16960037D02*
X12081816Y-17007656D01*
X12081816Y-17007656D02*
X12072292Y-17045751D01*
X12072292Y-17045751D02*
X12062768Y-17064798D01*
X12062768Y-17064798D02*
X12053244Y-17074322D01*
X12053244Y-17074322D02*
X12034197Y-17083846D01*
X12034197Y-17083846D02*
X12015149Y-17083846D01*
X12015149Y-17083846D02*
X11996101Y-17074322D01*
X11996101Y-17074322D02*
X11986578Y-17064798D01*
X11986578Y-17064798D02*
X11977054Y-17045751D01*
X11977054Y-17045751D02*
X11967530Y-17007656D01*
X11967530Y-17007656D02*
X11967530Y-16960037D01*
X11967530Y-16960037D02*
X11977054Y-16921941D01*
X11977054Y-16921941D02*
X11986578Y-16902894D01*
X11986578Y-16902894D02*
X11996101Y-16893370D01*
X11996101Y-16893370D02*
X12015149Y-16883846D01*
X12319911Y-17083846D02*
X12319911Y-16883846D01*
X12405625Y-17083846D02*
X12405625Y-16979084D01*
X12405625Y-16979084D02*
X12396102Y-16960037D01*
X12396102Y-16960037D02*
X12377054Y-16950513D01*
X12377054Y-16950513D02*
X12348482Y-16950513D01*
X12348482Y-16950513D02*
X12329435Y-16960037D01*
X12329435Y-16960037D02*
X12319911Y-16969560D01*
X12529435Y-17083846D02*
X12510387Y-17074322D01*
X12510387Y-17074322D02*
X12500863Y-17064798D01*
X12500863Y-17064798D02*
X12491340Y-17045751D01*
X12491340Y-17045751D02*
X12491340Y-16988608D01*
X12491340Y-16988608D02*
X12500863Y-16969560D01*
X12500863Y-16969560D02*
X12510387Y-16960037D01*
X12510387Y-16960037D02*
X12529435Y-16950513D01*
X12529435Y-16950513D02*
X12558006Y-16950513D01*
X12558006Y-16950513D02*
X12577054Y-16960037D01*
X12577054Y-16960037D02*
X12586578Y-16969560D01*
X12586578Y-16969560D02*
X12596102Y-16988608D01*
X12596102Y-16988608D02*
X12596102Y-17045751D01*
X12596102Y-17045751D02*
X12586578Y-17064798D01*
X12586578Y-17064798D02*
X12577054Y-17074322D01*
X12577054Y-17074322D02*
X12558006Y-17083846D01*
X12558006Y-17083846D02*
X12529435Y-17083846D01*
X12710387Y-17083846D02*
X12691340Y-17074322D01*
X12691340Y-17074322D02*
X12681816Y-17055275D01*
X12681816Y-17055275D02*
X12681816Y-16883846D01*
X12862768Y-17074322D02*
X12843721Y-17083846D01*
X12843721Y-17083846D02*
X12805625Y-17083846D01*
X12805625Y-17083846D02*
X12786578Y-17074322D01*
X12786578Y-17074322D02*
X12777054Y-17055275D01*
X12777054Y-17055275D02*
X12777054Y-16979084D01*
X12777054Y-16979084D02*
X12786578Y-16960037D01*
X12786578Y-16960037D02*
X12805625Y-16950513D01*
X12805625Y-16950513D02*
X12843721Y-16950513D01*
X12843721Y-16950513D02*
X12862768Y-16960037D01*
X12862768Y-16960037D02*
X12872292Y-16979084D01*
X12872292Y-16979084D02*
X12872292Y-16998132D01*
X12872292Y-16998132D02*
X12777054Y-17017179D01*
X12948483Y-17074322D02*
X12967530Y-17083846D01*
X12967530Y-17083846D02*
X13005625Y-17083846D01*
X13005625Y-17083846D02*
X13024673Y-17074322D01*
X13024673Y-17074322D02*
X13034197Y-17055275D01*
X13034197Y-17055275D02*
X13034197Y-17045751D01*
X13034197Y-17045751D02*
X13024673Y-17026703D01*
X13024673Y-17026703D02*
X13005625Y-17017179D01*
X13005625Y-17017179D02*
X12977054Y-17017179D01*
X12977054Y-17017179D02*
X12958006Y-17007656D01*
X12958006Y-17007656D02*
X12948483Y-16988608D01*
X12948483Y-16988608D02*
X12948483Y-16979084D01*
X12948483Y-16979084D02*
X12958006Y-16960037D01*
X12958006Y-16960037D02*
X12977054Y-16950513D01*
X12977054Y-16950513D02*
X13005625Y-16950513D01*
X13005625Y-16950513D02*
X13024673Y-16960037D01*
X13272292Y-17007656D02*
X13424673Y-17007656D01*
X13348483Y-17083846D02*
X13348483Y-16931465D01*
X13700864Y-16969560D02*
X13681816Y-16960037D01*
X13681816Y-16960037D02*
X13672292Y-16950513D01*
X13672292Y-16950513D02*
X13662768Y-16931465D01*
X13662768Y-16931465D02*
X13662768Y-16921941D01*
X13662768Y-16921941D02*
X13672292Y-16902894D01*
X13672292Y-16902894D02*
X13681816Y-16893370D01*
X13681816Y-16893370D02*
X13700864Y-16883846D01*
X13700864Y-16883846D02*
X13738959Y-16883846D01*
X13738959Y-16883846D02*
X13758006Y-16893370D01*
X13758006Y-16893370D02*
X13767530Y-16902894D01*
X13767530Y-16902894D02*
X13777054Y-16921941D01*
X13777054Y-16921941D02*
X13777054Y-16931465D01*
X13777054Y-16931465D02*
X13767530Y-16950513D01*
X13767530Y-16950513D02*
X13758006Y-16960037D01*
X13758006Y-16960037D02*
X13738959Y-16969560D01*
X13738959Y-16969560D02*
X13700864Y-16969560D01*
X13700864Y-16969560D02*
X13681816Y-16979084D01*
X13681816Y-16979084D02*
X13672292Y-16988608D01*
X13672292Y-16988608D02*
X13662768Y-17007656D01*
X13662768Y-17007656D02*
X13662768Y-17045751D01*
X13662768Y-17045751D02*
X13672292Y-17064798D01*
X13672292Y-17064798D02*
X13681816Y-17074322D01*
X13681816Y-17074322D02*
X13700864Y-17083846D01*
X13700864Y-17083846D02*
X13738959Y-17083846D01*
X13738959Y-17083846D02*
X13758006Y-17074322D01*
X13758006Y-17074322D02*
X13767530Y-17064798D01*
X13767530Y-17064798D02*
X13777054Y-17045751D01*
X13777054Y-17045751D02*
X13777054Y-17007656D01*
X13777054Y-17007656D02*
X13767530Y-16988608D01*
X13767530Y-16988608D02*
X13758006Y-16979084D01*
X13758006Y-16979084D02*
X13738959Y-16969560D01*
X14005626Y-17074322D02*
X14024673Y-17083846D01*
X14024673Y-17083846D02*
X14062768Y-17083846D01*
X14062768Y-17083846D02*
X14081816Y-17074322D01*
X14081816Y-17074322D02*
X14091340Y-17055275D01*
X14091340Y-17055275D02*
X14091340Y-17045751D01*
X14091340Y-17045751D02*
X14081816Y-17026703D01*
X14081816Y-17026703D02*
X14062768Y-17017179D01*
X14062768Y-17017179D02*
X14034197Y-17017179D01*
X14034197Y-17017179D02*
X14015149Y-17007656D01*
X14015149Y-17007656D02*
X14005626Y-16988608D01*
X14005626Y-16988608D02*
X14005626Y-16979084D01*
X14005626Y-16979084D02*
X14015149Y-16960037D01*
X14015149Y-16960037D02*
X14034197Y-16950513D01*
X14034197Y-16950513D02*
X14062768Y-16950513D01*
X14062768Y-16950513D02*
X14081816Y-16960037D01*
X14205626Y-17083846D02*
X14186578Y-17074322D01*
X14186578Y-17074322D02*
X14177054Y-17055275D01*
X14177054Y-17055275D02*
X14177054Y-16883846D01*
X14310387Y-17083846D02*
X14291340Y-17074322D01*
X14291340Y-17074322D02*
X14281816Y-17064798D01*
X14281816Y-17064798D02*
X14272292Y-17045751D01*
X14272292Y-17045751D02*
X14272292Y-16988608D01*
X14272292Y-16988608D02*
X14281816Y-16969560D01*
X14281816Y-16969560D02*
X14291340Y-16960037D01*
X14291340Y-16960037D02*
X14310387Y-16950513D01*
X14310387Y-16950513D02*
X14338959Y-16950513D01*
X14338959Y-16950513D02*
X14358007Y-16960037D01*
X14358007Y-16960037D02*
X14367530Y-16969560D01*
X14367530Y-16969560D02*
X14377054Y-16988608D01*
X14377054Y-16988608D02*
X14377054Y-17045751D01*
X14377054Y-17045751D02*
X14367530Y-17064798D01*
X14367530Y-17064798D02*
X14358007Y-17074322D01*
X14358007Y-17074322D02*
X14338959Y-17083846D01*
X14338959Y-17083846D02*
X14310387Y-17083846D01*
X14434197Y-16950513D02*
X14510387Y-16950513D01*
X14462768Y-16883846D02*
X14462768Y-17055275D01*
X14462768Y-17055275D02*
X14472292Y-17074322D01*
X14472292Y-17074322D02*
X14491340Y-17083846D01*
X14491340Y-17083846D02*
X14510387Y-17083846D01*
X14567530Y-17074322D02*
X14586578Y-17083846D01*
X14586578Y-17083846D02*
X14624673Y-17083846D01*
X14624673Y-17083846D02*
X14643721Y-17074322D01*
X14643721Y-17074322D02*
X14653245Y-17055275D01*
X14653245Y-17055275D02*
X14653245Y-17045751D01*
X14653245Y-17045751D02*
X14643721Y-17026703D01*
X14643721Y-17026703D02*
X14624673Y-17017179D01*
X14624673Y-17017179D02*
X14596102Y-17017179D01*
X14596102Y-17017179D02*
X14577054Y-17007656D01*
X14577054Y-17007656D02*
X14567530Y-16988608D01*
X14567530Y-16988608D02*
X14567530Y-16979084D01*
X14567530Y-16979084D02*
X14577054Y-16960037D01*
X14577054Y-16960037D02*
X14596102Y-16950513D01*
X14596102Y-16950513D02*
X14624673Y-16950513D01*
X14624673Y-16950513D02*
X14643721Y-16960037D01*
X14719911Y-17160037D02*
X14729435Y-17150513D01*
X14729435Y-17150513D02*
X14748483Y-17121941D01*
X14748483Y-17121941D02*
X14758007Y-17102894D01*
X14758007Y-17102894D02*
X14767530Y-17074322D01*
X14767530Y-17074322D02*
X14777054Y-17026703D01*
X14777054Y-17026703D02*
X14777054Y-16988608D01*
X14777054Y-16988608D02*
X14767530Y-16940989D01*
X14767530Y-16940989D02*
X14758007Y-16912418D01*
X14758007Y-16912418D02*
X14748483Y-16893370D01*
X14748483Y-16893370D02*
X14729435Y-16864798D01*
X14729435Y-16864798D02*
X14719911Y-16855275D01*
X7935324Y-17156362D02*
X8135324Y-17356362D01*
X8135324Y-17156362D02*
X7935324Y-17356362D01*
X8035324Y-17156362D02*
X8035324Y-17356362D01*
X7935324Y-17256362D02*
X8135324Y-17256362D01*
X8386577Y-17166894D02*
X8396101Y-17157370D01*
X8396101Y-17157370D02*
X8415149Y-17147846D01*
X8415149Y-17147846D02*
X8462768Y-17147846D01*
X8462768Y-17147846D02*
X8481816Y-17157370D01*
X8481816Y-17157370D02*
X8491339Y-17166894D01*
X8491339Y-17166894D02*
X8500863Y-17185941D01*
X8500863Y-17185941D02*
X8500863Y-17204989D01*
X8500863Y-17204989D02*
X8491339Y-17233560D01*
X8491339Y-17233560D02*
X8377054Y-17347846D01*
X8377054Y-17347846D02*
X8500863Y-17347846D01*
X8586577Y-17328798D02*
X8596101Y-17338322D01*
X8596101Y-17338322D02*
X8586577Y-17347846D01*
X8586577Y-17347846D02*
X8577054Y-17338322D01*
X8577054Y-17338322D02*
X8586577Y-17328798D01*
X8586577Y-17328798D02*
X8586577Y-17347846D01*
X8672292Y-17166894D02*
X8681816Y-17157370D01*
X8681816Y-17157370D02*
X8700863Y-17147846D01*
X8700863Y-17147846D02*
X8748482Y-17147846D01*
X8748482Y-17147846D02*
X8767530Y-17157370D01*
X8767530Y-17157370D02*
X8777054Y-17166894D01*
X8777054Y-17166894D02*
X8786577Y-17185941D01*
X8786577Y-17185941D02*
X8786577Y-17204989D01*
X8786577Y-17204989D02*
X8777054Y-17233560D01*
X8777054Y-17233560D02*
X8662768Y-17347846D01*
X8662768Y-17347846D02*
X8786577Y-17347846D01*
X8910387Y-17147846D02*
X8929435Y-17147846D01*
X8929435Y-17147846D02*
X8948482Y-17157370D01*
X8948482Y-17157370D02*
X8958006Y-17166894D01*
X8958006Y-17166894D02*
X8967530Y-17185941D01*
X8967530Y-17185941D02*
X8977054Y-17224037D01*
X8977054Y-17224037D02*
X8977054Y-17271656D01*
X8977054Y-17271656D02*
X8967530Y-17309751D01*
X8967530Y-17309751D02*
X8958006Y-17328798D01*
X8958006Y-17328798D02*
X8948482Y-17338322D01*
X8948482Y-17338322D02*
X8929435Y-17347846D01*
X8929435Y-17347846D02*
X8910387Y-17347846D01*
X8910387Y-17347846D02*
X8891339Y-17338322D01*
X8891339Y-17338322D02*
X8881816Y-17328798D01*
X8881816Y-17328798D02*
X8872292Y-17309751D01*
X8872292Y-17309751D02*
X8862768Y-17271656D01*
X8862768Y-17271656D02*
X8862768Y-17224037D01*
X8862768Y-17224037D02*
X8872292Y-17185941D01*
X8872292Y-17185941D02*
X8881816Y-17166894D01*
X8881816Y-17166894D02*
X8891339Y-17157370D01*
X8891339Y-17157370D02*
X8910387Y-17147846D01*
X9100863Y-17147846D02*
X9119911Y-17147846D01*
X9119911Y-17147846D02*
X9138958Y-17157370D01*
X9138958Y-17157370D02*
X9148482Y-17166894D01*
X9148482Y-17166894D02*
X9158006Y-17185941D01*
X9158006Y-17185941D02*
X9167530Y-17224037D01*
X9167530Y-17224037D02*
X9167530Y-17271656D01*
X9167530Y-17271656D02*
X9158006Y-17309751D01*
X9158006Y-17309751D02*
X9148482Y-17328798D01*
X9148482Y-17328798D02*
X9138958Y-17338322D01*
X9138958Y-17338322D02*
X9119911Y-17347846D01*
X9119911Y-17347846D02*
X9100863Y-17347846D01*
X9100863Y-17347846D02*
X9081816Y-17338322D01*
X9081816Y-17338322D02*
X9072292Y-17328798D01*
X9072292Y-17328798D02*
X9062768Y-17309751D01*
X9062768Y-17309751D02*
X9053244Y-17271656D01*
X9053244Y-17271656D02*
X9053244Y-17224037D01*
X9053244Y-17224037D02*
X9062768Y-17185941D01*
X9062768Y-17185941D02*
X9072292Y-17166894D01*
X9072292Y-17166894D02*
X9081816Y-17157370D01*
X9081816Y-17157370D02*
X9100863Y-17147846D01*
X9253244Y-17347846D02*
X9253244Y-17214513D01*
X9253244Y-17233560D02*
X9262768Y-17224037D01*
X9262768Y-17224037D02*
X9281816Y-17214513D01*
X9281816Y-17214513D02*
X9310387Y-17214513D01*
X9310387Y-17214513D02*
X9329435Y-17224037D01*
X9329435Y-17224037D02*
X9338958Y-17243084D01*
X9338958Y-17243084D02*
X9338958Y-17347846D01*
X9338958Y-17243084D02*
X9348482Y-17224037D01*
X9348482Y-17224037D02*
X9367530Y-17214513D01*
X9367530Y-17214513D02*
X9396101Y-17214513D01*
X9396101Y-17214513D02*
X9415149Y-17224037D01*
X9415149Y-17224037D02*
X9424673Y-17243084D01*
X9424673Y-17243084D02*
X9424673Y-17347846D01*
X9519911Y-17347846D02*
X9519911Y-17214513D01*
X9519911Y-17233560D02*
X9529435Y-17224037D01*
X9529435Y-17224037D02*
X9548482Y-17214513D01*
X9548482Y-17214513D02*
X9577054Y-17214513D01*
X9577054Y-17214513D02*
X9596101Y-17224037D01*
X9596101Y-17224037D02*
X9605625Y-17243084D01*
X9605625Y-17243084D02*
X9605625Y-17347846D01*
X9605625Y-17243084D02*
X9615149Y-17224037D01*
X9615149Y-17224037D02*
X9634197Y-17214513D01*
X9634197Y-17214513D02*
X9662768Y-17214513D01*
X9662768Y-17214513D02*
X9681816Y-17224037D01*
X9681816Y-17224037D02*
X9691339Y-17243084D01*
X9691339Y-17243084D02*
X9691339Y-17347846D01*
X10081816Y-17138322D02*
X9910387Y-17395465D01*
X10338959Y-17147846D02*
X10358006Y-17147846D01*
X10358006Y-17147846D02*
X10377054Y-17157370D01*
X10377054Y-17157370D02*
X10386578Y-17166894D01*
X10386578Y-17166894D02*
X10396101Y-17185941D01*
X10396101Y-17185941D02*
X10405625Y-17224037D01*
X10405625Y-17224037D02*
X10405625Y-17271656D01*
X10405625Y-17271656D02*
X10396101Y-17309751D01*
X10396101Y-17309751D02*
X10386578Y-17328798D01*
X10386578Y-17328798D02*
X10377054Y-17338322D01*
X10377054Y-17338322D02*
X10358006Y-17347846D01*
X10358006Y-17347846D02*
X10338959Y-17347846D01*
X10338959Y-17347846D02*
X10319911Y-17338322D01*
X10319911Y-17338322D02*
X10310387Y-17328798D01*
X10310387Y-17328798D02*
X10300863Y-17309751D01*
X10300863Y-17309751D02*
X10291340Y-17271656D01*
X10291340Y-17271656D02*
X10291340Y-17224037D01*
X10291340Y-17224037D02*
X10300863Y-17185941D01*
X10300863Y-17185941D02*
X10310387Y-17166894D01*
X10310387Y-17166894D02*
X10319911Y-17157370D01*
X10319911Y-17157370D02*
X10338959Y-17147846D01*
X10491340Y-17328798D02*
X10500863Y-17338322D01*
X10500863Y-17338322D02*
X10491340Y-17347846D01*
X10491340Y-17347846D02*
X10481816Y-17338322D01*
X10481816Y-17338322D02*
X10491340Y-17328798D01*
X10491340Y-17328798D02*
X10491340Y-17347846D01*
X10624673Y-17147846D02*
X10643721Y-17147846D01*
X10643721Y-17147846D02*
X10662768Y-17157370D01*
X10662768Y-17157370D02*
X10672292Y-17166894D01*
X10672292Y-17166894D02*
X10681816Y-17185941D01*
X10681816Y-17185941D02*
X10691340Y-17224037D01*
X10691340Y-17224037D02*
X10691340Y-17271656D01*
X10691340Y-17271656D02*
X10681816Y-17309751D01*
X10681816Y-17309751D02*
X10672292Y-17328798D01*
X10672292Y-17328798D02*
X10662768Y-17338322D01*
X10662768Y-17338322D02*
X10643721Y-17347846D01*
X10643721Y-17347846D02*
X10624673Y-17347846D01*
X10624673Y-17347846D02*
X10605625Y-17338322D01*
X10605625Y-17338322D02*
X10596101Y-17328798D01*
X10596101Y-17328798D02*
X10586578Y-17309751D01*
X10586578Y-17309751D02*
X10577054Y-17271656D01*
X10577054Y-17271656D02*
X10577054Y-17224037D01*
X10577054Y-17224037D02*
X10586578Y-17185941D01*
X10586578Y-17185941D02*
X10596101Y-17166894D01*
X10596101Y-17166894D02*
X10605625Y-17157370D01*
X10605625Y-17157370D02*
X10624673Y-17147846D01*
X10805625Y-17233560D02*
X10786578Y-17224037D01*
X10786578Y-17224037D02*
X10777054Y-17214513D01*
X10777054Y-17214513D02*
X10767530Y-17195465D01*
X10767530Y-17195465D02*
X10767530Y-17185941D01*
X10767530Y-17185941D02*
X10777054Y-17166894D01*
X10777054Y-17166894D02*
X10786578Y-17157370D01*
X10786578Y-17157370D02*
X10805625Y-17147846D01*
X10805625Y-17147846D02*
X10843721Y-17147846D01*
X10843721Y-17147846D02*
X10862768Y-17157370D01*
X10862768Y-17157370D02*
X10872292Y-17166894D01*
X10872292Y-17166894D02*
X10881816Y-17185941D01*
X10881816Y-17185941D02*
X10881816Y-17195465D01*
X10881816Y-17195465D02*
X10872292Y-17214513D01*
X10872292Y-17214513D02*
X10862768Y-17224037D01*
X10862768Y-17224037D02*
X10843721Y-17233560D01*
X10843721Y-17233560D02*
X10805625Y-17233560D01*
X10805625Y-17233560D02*
X10786578Y-17243084D01*
X10786578Y-17243084D02*
X10777054Y-17252608D01*
X10777054Y-17252608D02*
X10767530Y-17271656D01*
X10767530Y-17271656D02*
X10767530Y-17309751D01*
X10767530Y-17309751D02*
X10777054Y-17328798D01*
X10777054Y-17328798D02*
X10786578Y-17338322D01*
X10786578Y-17338322D02*
X10805625Y-17347846D01*
X10805625Y-17347846D02*
X10843721Y-17347846D01*
X10843721Y-17347846D02*
X10862768Y-17338322D01*
X10862768Y-17338322D02*
X10872292Y-17328798D01*
X10872292Y-17328798D02*
X10881816Y-17309751D01*
X10881816Y-17309751D02*
X10881816Y-17271656D01*
X10881816Y-17271656D02*
X10872292Y-17252608D01*
X10872292Y-17252608D02*
X10862768Y-17243084D01*
X10862768Y-17243084D02*
X10843721Y-17233560D01*
X11053244Y-17147846D02*
X11015149Y-17147846D01*
X11015149Y-17147846D02*
X10996101Y-17157370D01*
X10996101Y-17157370D02*
X10986578Y-17166894D01*
X10986578Y-17166894D02*
X10967530Y-17195465D01*
X10967530Y-17195465D02*
X10958006Y-17233560D01*
X10958006Y-17233560D02*
X10958006Y-17309751D01*
X10958006Y-17309751D02*
X10967530Y-17328798D01*
X10967530Y-17328798D02*
X10977054Y-17338322D01*
X10977054Y-17338322D02*
X10996101Y-17347846D01*
X10996101Y-17347846D02*
X11034197Y-17347846D01*
X11034197Y-17347846D02*
X11053244Y-17338322D01*
X11053244Y-17338322D02*
X11062768Y-17328798D01*
X11062768Y-17328798D02*
X11072292Y-17309751D01*
X11072292Y-17309751D02*
X11072292Y-17262132D01*
X11072292Y-17262132D02*
X11062768Y-17243084D01*
X11062768Y-17243084D02*
X11053244Y-17233560D01*
X11053244Y-17233560D02*
X11034197Y-17224037D01*
X11034197Y-17224037D02*
X10996101Y-17224037D01*
X10996101Y-17224037D02*
X10977054Y-17233560D01*
X10977054Y-17233560D02*
X10967530Y-17243084D01*
X10967530Y-17243084D02*
X10958006Y-17262132D01*
X11243720Y-17147846D02*
X11205625Y-17147846D01*
X11205625Y-17147846D02*
X11186578Y-17157370D01*
X11186578Y-17157370D02*
X11177054Y-17166894D01*
X11177054Y-17166894D02*
X11158006Y-17195465D01*
X11158006Y-17195465D02*
X11148482Y-17233560D01*
X11148482Y-17233560D02*
X11148482Y-17309751D01*
X11148482Y-17309751D02*
X11158006Y-17328798D01*
X11158006Y-17328798D02*
X11167530Y-17338322D01*
X11167530Y-17338322D02*
X11186578Y-17347846D01*
X11186578Y-17347846D02*
X11224673Y-17347846D01*
X11224673Y-17347846D02*
X11243720Y-17338322D01*
X11243720Y-17338322D02*
X11253244Y-17328798D01*
X11253244Y-17328798D02*
X11262768Y-17309751D01*
X11262768Y-17309751D02*
X11262768Y-17262132D01*
X11262768Y-17262132D02*
X11253244Y-17243084D01*
X11253244Y-17243084D02*
X11243720Y-17233560D01*
X11243720Y-17233560D02*
X11224673Y-17224037D01*
X11224673Y-17224037D02*
X11186578Y-17224037D01*
X11186578Y-17224037D02*
X11167530Y-17233560D01*
X11167530Y-17233560D02*
X11158006Y-17243084D01*
X11158006Y-17243084D02*
X11148482Y-17262132D01*
X11338959Y-17147846D02*
X11338959Y-17185941D01*
X11415149Y-17147846D02*
X11415149Y-17185941D01*
X11710387Y-17424037D02*
X11700863Y-17414513D01*
X11700863Y-17414513D02*
X11681816Y-17385941D01*
X11681816Y-17385941D02*
X11672292Y-17366894D01*
X11672292Y-17366894D02*
X11662768Y-17338322D01*
X11662768Y-17338322D02*
X11653244Y-17290703D01*
X11653244Y-17290703D02*
X11653244Y-17252608D01*
X11653244Y-17252608D02*
X11662768Y-17204989D01*
X11662768Y-17204989D02*
X11672292Y-17176418D01*
X11672292Y-17176418D02*
X11681816Y-17157370D01*
X11681816Y-17157370D02*
X11700863Y-17128798D01*
X11700863Y-17128798D02*
X11710387Y-17119275D01*
X11872292Y-17214513D02*
X11872292Y-17347846D01*
X11824673Y-17138322D02*
X11777054Y-17281179D01*
X11777054Y-17281179D02*
X11900863Y-17281179D01*
X12129435Y-17347846D02*
X12129435Y-17147846D01*
X12215149Y-17347846D02*
X12215149Y-17243084D01*
X12215149Y-17243084D02*
X12205625Y-17224037D01*
X12205625Y-17224037D02*
X12186578Y-17214513D01*
X12186578Y-17214513D02*
X12158006Y-17214513D01*
X12158006Y-17214513D02*
X12138959Y-17224037D01*
X12138959Y-17224037D02*
X12129435Y-17233560D01*
X12338959Y-17347846D02*
X12319911Y-17338322D01*
X12319911Y-17338322D02*
X12310387Y-17328798D01*
X12310387Y-17328798D02*
X12300863Y-17309751D01*
X12300863Y-17309751D02*
X12300863Y-17252608D01*
X12300863Y-17252608D02*
X12310387Y-17233560D01*
X12310387Y-17233560D02*
X12319911Y-17224037D01*
X12319911Y-17224037D02*
X12338959Y-17214513D01*
X12338959Y-17214513D02*
X12367530Y-17214513D01*
X12367530Y-17214513D02*
X12386578Y-17224037D01*
X12386578Y-17224037D02*
X12396102Y-17233560D01*
X12396102Y-17233560D02*
X12405625Y-17252608D01*
X12405625Y-17252608D02*
X12405625Y-17309751D01*
X12405625Y-17309751D02*
X12396102Y-17328798D01*
X12396102Y-17328798D02*
X12386578Y-17338322D01*
X12386578Y-17338322D02*
X12367530Y-17347846D01*
X12367530Y-17347846D02*
X12338959Y-17347846D01*
X12519911Y-17347846D02*
X12500863Y-17338322D01*
X12500863Y-17338322D02*
X12491340Y-17319275D01*
X12491340Y-17319275D02*
X12491340Y-17147846D01*
X12672292Y-17338322D02*
X12653244Y-17347846D01*
X12653244Y-17347846D02*
X12615149Y-17347846D01*
X12615149Y-17347846D02*
X12596102Y-17338322D01*
X12596102Y-17338322D02*
X12586578Y-17319275D01*
X12586578Y-17319275D02*
X12586578Y-17243084D01*
X12586578Y-17243084D02*
X12596102Y-17224037D01*
X12596102Y-17224037D02*
X12615149Y-17214513D01*
X12615149Y-17214513D02*
X12653244Y-17214513D01*
X12653244Y-17214513D02*
X12672292Y-17224037D01*
X12672292Y-17224037D02*
X12681816Y-17243084D01*
X12681816Y-17243084D02*
X12681816Y-17262132D01*
X12681816Y-17262132D02*
X12586578Y-17281179D01*
X12758006Y-17338322D02*
X12777054Y-17347846D01*
X12777054Y-17347846D02*
X12815149Y-17347846D01*
X12815149Y-17347846D02*
X12834197Y-17338322D01*
X12834197Y-17338322D02*
X12843721Y-17319275D01*
X12843721Y-17319275D02*
X12843721Y-17309751D01*
X12843721Y-17309751D02*
X12834197Y-17290703D01*
X12834197Y-17290703D02*
X12815149Y-17281179D01*
X12815149Y-17281179D02*
X12786578Y-17281179D01*
X12786578Y-17281179D02*
X12767530Y-17271656D01*
X12767530Y-17271656D02*
X12758006Y-17252608D01*
X12758006Y-17252608D02*
X12758006Y-17243084D01*
X12758006Y-17243084D02*
X12767530Y-17224037D01*
X12767530Y-17224037D02*
X12786578Y-17214513D01*
X12786578Y-17214513D02*
X12815149Y-17214513D01*
X12815149Y-17214513D02*
X12834197Y-17224037D01*
X12910387Y-17424037D02*
X12919911Y-17414513D01*
X12919911Y-17414513D02*
X12938959Y-17385941D01*
X12938959Y-17385941D02*
X12948483Y-17366894D01*
X12948483Y-17366894D02*
X12958006Y-17338322D01*
X12958006Y-17338322D02*
X12967530Y-17290703D01*
X12967530Y-17290703D02*
X12967530Y-17252608D01*
X12967530Y-17252608D02*
X12958006Y-17204989D01*
X12958006Y-17204989D02*
X12948483Y-17176418D01*
X12948483Y-17176418D02*
X12938959Y-17157370D01*
X12938959Y-17157370D02*
X12919911Y-17128798D01*
X12919911Y-17128798D02*
X12910387Y-17119275D01*
X7935324Y-17476362D02*
X8135324Y-17676362D01*
X8135324Y-17476362D02*
X7935324Y-17676362D01*
X8106036Y-17647074D02*
X8106036Y-17505651D01*
X7964613Y-17505651D01*
X7964613Y-17647074D01*
X8106036Y-17647074D01*
X8481816Y-17534513D02*
X8481816Y-17667846D01*
X8434196Y-17458322D02*
X8386577Y-17601179D01*
X8386577Y-17601179D02*
X8510387Y-17601179D01*
X8586577Y-17648798D02*
X8596101Y-17658322D01*
X8596101Y-17658322D02*
X8586577Y-17667846D01*
X8586577Y-17667846D02*
X8577054Y-17658322D01*
X8577054Y-17658322D02*
X8586577Y-17648798D01*
X8586577Y-17648798D02*
X8586577Y-17667846D01*
X8786577Y-17667846D02*
X8672292Y-17667846D01*
X8729435Y-17667846D02*
X8729435Y-17467846D01*
X8729435Y-17467846D02*
X8710387Y-17496418D01*
X8710387Y-17496418D02*
X8691339Y-17515465D01*
X8691339Y-17515465D02*
X8672292Y-17524989D01*
X8910387Y-17467846D02*
X8929435Y-17467846D01*
X8929435Y-17467846D02*
X8948482Y-17477370D01*
X8948482Y-17477370D02*
X8958006Y-17486894D01*
X8958006Y-17486894D02*
X8967530Y-17505941D01*
X8967530Y-17505941D02*
X8977054Y-17544037D01*
X8977054Y-17544037D02*
X8977054Y-17591656D01*
X8977054Y-17591656D02*
X8967530Y-17629751D01*
X8967530Y-17629751D02*
X8958006Y-17648798D01*
X8958006Y-17648798D02*
X8948482Y-17658322D01*
X8948482Y-17658322D02*
X8929435Y-17667846D01*
X8929435Y-17667846D02*
X8910387Y-17667846D01*
X8910387Y-17667846D02*
X8891339Y-17658322D01*
X8891339Y-17658322D02*
X8881816Y-17648798D01*
X8881816Y-17648798D02*
X8872292Y-17629751D01*
X8872292Y-17629751D02*
X8862768Y-17591656D01*
X8862768Y-17591656D02*
X8862768Y-17544037D01*
X8862768Y-17544037D02*
X8872292Y-17505941D01*
X8872292Y-17505941D02*
X8881816Y-17486894D01*
X8881816Y-17486894D02*
X8891339Y-17477370D01*
X8891339Y-17477370D02*
X8910387Y-17467846D01*
X9100863Y-17467846D02*
X9119911Y-17467846D01*
X9119911Y-17467846D02*
X9138958Y-17477370D01*
X9138958Y-17477370D02*
X9148482Y-17486894D01*
X9148482Y-17486894D02*
X9158006Y-17505941D01*
X9158006Y-17505941D02*
X9167530Y-17544037D01*
X9167530Y-17544037D02*
X9167530Y-17591656D01*
X9167530Y-17591656D02*
X9158006Y-17629751D01*
X9158006Y-17629751D02*
X9148482Y-17648798D01*
X9148482Y-17648798D02*
X9138958Y-17658322D01*
X9138958Y-17658322D02*
X9119911Y-17667846D01*
X9119911Y-17667846D02*
X9100863Y-17667846D01*
X9100863Y-17667846D02*
X9081816Y-17658322D01*
X9081816Y-17658322D02*
X9072292Y-17648798D01*
X9072292Y-17648798D02*
X9062768Y-17629751D01*
X9062768Y-17629751D02*
X9053244Y-17591656D01*
X9053244Y-17591656D02*
X9053244Y-17544037D01*
X9053244Y-17544037D02*
X9062768Y-17505941D01*
X9062768Y-17505941D02*
X9072292Y-17486894D01*
X9072292Y-17486894D02*
X9081816Y-17477370D01*
X9081816Y-17477370D02*
X9100863Y-17467846D01*
X9253244Y-17667846D02*
X9253244Y-17534513D01*
X9253244Y-17553560D02*
X9262768Y-17544037D01*
X9262768Y-17544037D02*
X9281816Y-17534513D01*
X9281816Y-17534513D02*
X9310387Y-17534513D01*
X9310387Y-17534513D02*
X9329435Y-17544037D01*
X9329435Y-17544037D02*
X9338958Y-17563084D01*
X9338958Y-17563084D02*
X9338958Y-17667846D01*
X9338958Y-17563084D02*
X9348482Y-17544037D01*
X9348482Y-17544037D02*
X9367530Y-17534513D01*
X9367530Y-17534513D02*
X9396101Y-17534513D01*
X9396101Y-17534513D02*
X9415149Y-17544037D01*
X9415149Y-17544037D02*
X9424673Y-17563084D01*
X9424673Y-17563084D02*
X9424673Y-17667846D01*
X9519911Y-17667846D02*
X9519911Y-17534513D01*
X9519911Y-17553560D02*
X9529435Y-17544037D01*
X9529435Y-17544037D02*
X9548482Y-17534513D01*
X9548482Y-17534513D02*
X9577054Y-17534513D01*
X9577054Y-17534513D02*
X9596101Y-17544037D01*
X9596101Y-17544037D02*
X9605625Y-17563084D01*
X9605625Y-17563084D02*
X9605625Y-17667846D01*
X9605625Y-17563084D02*
X9615149Y-17544037D01*
X9615149Y-17544037D02*
X9634197Y-17534513D01*
X9634197Y-17534513D02*
X9662768Y-17534513D01*
X9662768Y-17534513D02*
X9681816Y-17544037D01*
X9681816Y-17544037D02*
X9691339Y-17563084D01*
X9691339Y-17563084D02*
X9691339Y-17667846D01*
X10081816Y-17458322D02*
X9910387Y-17715465D01*
X10338959Y-17467846D02*
X10358006Y-17467846D01*
X10358006Y-17467846D02*
X10377054Y-17477370D01*
X10377054Y-17477370D02*
X10386578Y-17486894D01*
X10386578Y-17486894D02*
X10396101Y-17505941D01*
X10396101Y-17505941D02*
X10405625Y-17544037D01*
X10405625Y-17544037D02*
X10405625Y-17591656D01*
X10405625Y-17591656D02*
X10396101Y-17629751D01*
X10396101Y-17629751D02*
X10386578Y-17648798D01*
X10386578Y-17648798D02*
X10377054Y-17658322D01*
X10377054Y-17658322D02*
X10358006Y-17667846D01*
X10358006Y-17667846D02*
X10338959Y-17667846D01*
X10338959Y-17667846D02*
X10319911Y-17658322D01*
X10319911Y-17658322D02*
X10310387Y-17648798D01*
X10310387Y-17648798D02*
X10300863Y-17629751D01*
X10300863Y-17629751D02*
X10291340Y-17591656D01*
X10291340Y-17591656D02*
X10291340Y-17544037D01*
X10291340Y-17544037D02*
X10300863Y-17505941D01*
X10300863Y-17505941D02*
X10310387Y-17486894D01*
X10310387Y-17486894D02*
X10319911Y-17477370D01*
X10319911Y-17477370D02*
X10338959Y-17467846D01*
X10491340Y-17648798D02*
X10500863Y-17658322D01*
X10500863Y-17658322D02*
X10491340Y-17667846D01*
X10491340Y-17667846D02*
X10481816Y-17658322D01*
X10481816Y-17658322D02*
X10491340Y-17648798D01*
X10491340Y-17648798D02*
X10491340Y-17667846D01*
X10691340Y-17667846D02*
X10577054Y-17667846D01*
X10634197Y-17667846D02*
X10634197Y-17467846D01*
X10634197Y-17467846D02*
X10615149Y-17496418D01*
X10615149Y-17496418D02*
X10596101Y-17515465D01*
X10596101Y-17515465D02*
X10577054Y-17524989D01*
X10862768Y-17467846D02*
X10824673Y-17467846D01*
X10824673Y-17467846D02*
X10805625Y-17477370D01*
X10805625Y-17477370D02*
X10796101Y-17486894D01*
X10796101Y-17486894D02*
X10777054Y-17515465D01*
X10777054Y-17515465D02*
X10767530Y-17553560D01*
X10767530Y-17553560D02*
X10767530Y-17629751D01*
X10767530Y-17629751D02*
X10777054Y-17648798D01*
X10777054Y-17648798D02*
X10786578Y-17658322D01*
X10786578Y-17658322D02*
X10805625Y-17667846D01*
X10805625Y-17667846D02*
X10843721Y-17667846D01*
X10843721Y-17667846D02*
X10862768Y-17658322D01*
X10862768Y-17658322D02*
X10872292Y-17648798D01*
X10872292Y-17648798D02*
X10881816Y-17629751D01*
X10881816Y-17629751D02*
X10881816Y-17582132D01*
X10881816Y-17582132D02*
X10872292Y-17563084D01*
X10872292Y-17563084D02*
X10862768Y-17553560D01*
X10862768Y-17553560D02*
X10843721Y-17544037D01*
X10843721Y-17544037D02*
X10805625Y-17544037D01*
X10805625Y-17544037D02*
X10786578Y-17553560D01*
X10786578Y-17553560D02*
X10777054Y-17563084D01*
X10777054Y-17563084D02*
X10767530Y-17582132D01*
X11072292Y-17667846D02*
X10958006Y-17667846D01*
X11015149Y-17667846D02*
X11015149Y-17467846D01*
X11015149Y-17467846D02*
X10996101Y-17496418D01*
X10996101Y-17496418D02*
X10977054Y-17515465D01*
X10977054Y-17515465D02*
X10958006Y-17524989D01*
X11243720Y-17534513D02*
X11243720Y-17667846D01*
X11196101Y-17458322D02*
X11148482Y-17601179D01*
X11148482Y-17601179D02*
X11272292Y-17601179D01*
X11338959Y-17467846D02*
X11338959Y-17505941D01*
X11415149Y-17467846D02*
X11415149Y-17505941D01*
X11710387Y-17744037D02*
X11700863Y-17734513D01*
X11700863Y-17734513D02*
X11681816Y-17705941D01*
X11681816Y-17705941D02*
X11672292Y-17686894D01*
X11672292Y-17686894D02*
X11662768Y-17658322D01*
X11662768Y-17658322D02*
X11653244Y-17610703D01*
X11653244Y-17610703D02*
X11653244Y-17572608D01*
X11653244Y-17572608D02*
X11662768Y-17524989D01*
X11662768Y-17524989D02*
X11672292Y-17496418D01*
X11672292Y-17496418D02*
X11681816Y-17477370D01*
X11681816Y-17477370D02*
X11700863Y-17448798D01*
X11700863Y-17448798D02*
X11710387Y-17439275D01*
X11815149Y-17553560D02*
X11796101Y-17544037D01*
X11796101Y-17544037D02*
X11786578Y-17534513D01*
X11786578Y-17534513D02*
X11777054Y-17515465D01*
X11777054Y-17515465D02*
X11777054Y-17505941D01*
X11777054Y-17505941D02*
X11786578Y-17486894D01*
X11786578Y-17486894D02*
X11796101Y-17477370D01*
X11796101Y-17477370D02*
X11815149Y-17467846D01*
X11815149Y-17467846D02*
X11853244Y-17467846D01*
X11853244Y-17467846D02*
X11872292Y-17477370D01*
X11872292Y-17477370D02*
X11881816Y-17486894D01*
X11881816Y-17486894D02*
X11891340Y-17505941D01*
X11891340Y-17505941D02*
X11891340Y-17515465D01*
X11891340Y-17515465D02*
X11881816Y-17534513D01*
X11881816Y-17534513D02*
X11872292Y-17544037D01*
X11872292Y-17544037D02*
X11853244Y-17553560D01*
X11853244Y-17553560D02*
X11815149Y-17553560D01*
X11815149Y-17553560D02*
X11796101Y-17563084D01*
X11796101Y-17563084D02*
X11786578Y-17572608D01*
X11786578Y-17572608D02*
X11777054Y-17591656D01*
X11777054Y-17591656D02*
X11777054Y-17629751D01*
X11777054Y-17629751D02*
X11786578Y-17648798D01*
X11786578Y-17648798D02*
X11796101Y-17658322D01*
X11796101Y-17658322D02*
X11815149Y-17667846D01*
X11815149Y-17667846D02*
X11853244Y-17667846D01*
X11853244Y-17667846D02*
X11872292Y-17658322D01*
X11872292Y-17658322D02*
X11881816Y-17648798D01*
X11881816Y-17648798D02*
X11891340Y-17629751D01*
X11891340Y-17629751D02*
X11891340Y-17591656D01*
X11891340Y-17591656D02*
X11881816Y-17572608D01*
X11881816Y-17572608D02*
X11872292Y-17563084D01*
X11872292Y-17563084D02*
X11853244Y-17553560D01*
X12129435Y-17667846D02*
X12129435Y-17467846D01*
X12215149Y-17667846D02*
X12215149Y-17563084D01*
X12215149Y-17563084D02*
X12205625Y-17544037D01*
X12205625Y-17544037D02*
X12186578Y-17534513D01*
X12186578Y-17534513D02*
X12158006Y-17534513D01*
X12158006Y-17534513D02*
X12138959Y-17544037D01*
X12138959Y-17544037D02*
X12129435Y-17553560D01*
X12338959Y-17667846D02*
X12319911Y-17658322D01*
X12319911Y-17658322D02*
X12310387Y-17648798D01*
X12310387Y-17648798D02*
X12300863Y-17629751D01*
X12300863Y-17629751D02*
X12300863Y-17572608D01*
X12300863Y-17572608D02*
X12310387Y-17553560D01*
X12310387Y-17553560D02*
X12319911Y-17544037D01*
X12319911Y-17544037D02*
X12338959Y-17534513D01*
X12338959Y-17534513D02*
X12367530Y-17534513D01*
X12367530Y-17534513D02*
X12386578Y-17544037D01*
X12386578Y-17544037D02*
X12396102Y-17553560D01*
X12396102Y-17553560D02*
X12405625Y-17572608D01*
X12405625Y-17572608D02*
X12405625Y-17629751D01*
X12405625Y-17629751D02*
X12396102Y-17648798D01*
X12396102Y-17648798D02*
X12386578Y-17658322D01*
X12386578Y-17658322D02*
X12367530Y-17667846D01*
X12367530Y-17667846D02*
X12338959Y-17667846D01*
X12519911Y-17667846D02*
X12500863Y-17658322D01*
X12500863Y-17658322D02*
X12491340Y-17639275D01*
X12491340Y-17639275D02*
X12491340Y-17467846D01*
X12672292Y-17658322D02*
X12653244Y-17667846D01*
X12653244Y-17667846D02*
X12615149Y-17667846D01*
X12615149Y-17667846D02*
X12596102Y-17658322D01*
X12596102Y-17658322D02*
X12586578Y-17639275D01*
X12586578Y-17639275D02*
X12586578Y-17563084D01*
X12586578Y-17563084D02*
X12596102Y-17544037D01*
X12596102Y-17544037D02*
X12615149Y-17534513D01*
X12615149Y-17534513D02*
X12653244Y-17534513D01*
X12653244Y-17534513D02*
X12672292Y-17544037D01*
X12672292Y-17544037D02*
X12681816Y-17563084D01*
X12681816Y-17563084D02*
X12681816Y-17582132D01*
X12681816Y-17582132D02*
X12586578Y-17601179D01*
X12758006Y-17658322D02*
X12777054Y-17667846D01*
X12777054Y-17667846D02*
X12815149Y-17667846D01*
X12815149Y-17667846D02*
X12834197Y-17658322D01*
X12834197Y-17658322D02*
X12843721Y-17639275D01*
X12843721Y-17639275D02*
X12843721Y-17629751D01*
X12843721Y-17629751D02*
X12834197Y-17610703D01*
X12834197Y-17610703D02*
X12815149Y-17601179D01*
X12815149Y-17601179D02*
X12786578Y-17601179D01*
X12786578Y-17601179D02*
X12767530Y-17591656D01*
X12767530Y-17591656D02*
X12758006Y-17572608D01*
X12758006Y-17572608D02*
X12758006Y-17563084D01*
X12758006Y-17563084D02*
X12767530Y-17544037D01*
X12767530Y-17544037D02*
X12786578Y-17534513D01*
X12786578Y-17534513D02*
X12815149Y-17534513D01*
X12815149Y-17534513D02*
X12834197Y-17544037D01*
X12910387Y-17744037D02*
X12919911Y-17734513D01*
X12919911Y-17734513D02*
X12938959Y-17705941D01*
X12938959Y-17705941D02*
X12948483Y-17686894D01*
X12948483Y-17686894D02*
X12958006Y-17658322D01*
X12958006Y-17658322D02*
X12967530Y-17610703D01*
X12967530Y-17610703D02*
X12967530Y-17572608D01*
X12967530Y-17572608D02*
X12958006Y-17524989D01*
X12958006Y-17524989D02*
X12948483Y-17496418D01*
X12948483Y-17496418D02*
X12938959Y-17477370D01*
X12938959Y-17477370D02*
X12919911Y-17448798D01*
X12919911Y-17448798D02*
X12910387Y-17439275D01*
M02*
