M48
; DRILL file {KiCad 7.0.5-0} date 2023 December 28, Thursday 17:05:09
; FORMAT={-:-/ absolute / metric / decimal}
; #@! TF.CreationDate,2023-12-28T17:05:09-08:00
; #@! TF.GenerationSoftware,Kicad,Pcbnew,7.0.5-0
; #@! TF.FileFunction,Plated,1,2,PTH
FMAT,2
METRIC
; #@! TA.AperFunction,Plated,PTH,ViaDrill
T1C0.300
; #@! TA.AperFunction,Plated,PTH,ComponentDrill
T2C0.300
; #@! TA.AperFunction,Plated,PTH,ComponentDrill
T3C0.800
; #@! TA.AperFunction,Plated,PTH,ComponentDrill
T4C0.813
; #@! TA.AperFunction,Plated,PTH,ComponentDrill
T5C0.900
; #@! TA.AperFunction,Plated,PTH,ComponentDrill
T6C1.000
; #@! TA.AperFunction,Plated,PTH,ComponentDrill
T7C2.200
; #@! TA.AperFunction,Plated,PTH,ComponentDrill
T8C4.100
%
G90
G05
T1
X94.94Y-79.713
X96.2Y-58.153
X96.765Y-60.64
X97.89Y-56.893
X98.07Y-64.465
X98.28Y-59.385
X98.49Y-69.545
X98.875Y-72.085
X99.325Y-74.625
X99.635Y-77.147
X100.48Y-44.183
X101.5Y-46.673
X103.89Y-124.863
X107.69Y-116.133
X110.96Y-140.443
X111.02Y-67.005
X111.04Y-54.305
X111.04Y-63.17
X111.653Y-95.21
X112.572Y-120.454
X113.496Y-120.454
X116.2Y-36.533
X118.32Y-36.523
X118.32Y-38.423
X118.35Y-37.473
X119.75Y-117.383
X122.93Y-36.523
X124.76Y-79.705
X126.72Y-42.223
X126.74Y-137.263
X130.07Y-120.363
X130.07Y-115.363
X131.32Y-37.793
X131.32Y-42.823
X133.012Y-40.713
X133.853Y-114.891
X134.73Y-114.898
X137.073Y-38.073
X149.055Y-130.688
X149.07Y-111.313
X149.07Y-116.343
X149.12Y-89.933
X149.12Y-94.963
X149.18Y-52.913
X149.18Y-57.943
X149.34Y-71.433
X149.34Y-76.463
X150.664Y-113.089
X151.57Y-113.089
X152.105Y-37.614
X156.9Y-113.575
X168.02Y-92.093
X168.02Y-97.123
X168.08Y-128.503
X168.15Y-71.733
X168.15Y-76.763
X168.22Y-110.203
X168.22Y-37.17
X168.22Y-115.233
X168.31Y-53.593
X168.31Y-58.623
X172.4Y-113.113
X186.805Y-114.984
X187.183Y-42.13
X187.26Y-94.093
X187.26Y-99.123
X187.29Y-78.033
X187.29Y-83.063
X187.32Y-58.353
X187.32Y-63.383
X204.145Y-117.522
X206.1Y-76.773
X206.1Y-81.803
X206.15Y-43.143
T2
X90.536Y-129.948
X96.252Y-141.188
X98.423Y-130.161
X98.824Y-127.095
X99.278Y-127.986
X100.738Y-134.705
X101.541Y-128.572
X103.005Y-135.301
X103.459Y-136.192
X103.856Y-133.116
X105.65Y-113.04
X109.791Y-136.898
X111.423Y-125.013
X112.389Y-124.755
X112.491Y-133.713
X113.433Y-122.663
X114.24Y-53.81
X114.24Y-72.86
X114.24Y-91.91
X114.24Y-110.96
X114.339Y-126.044
X115.46Y-45.13
X115.46Y-64.18
X115.46Y-83.23
X115.46Y-102.28
X116.46Y-45.13
X116.46Y-64.18
X116.46Y-83.23
X116.46Y-102.28
X118.01Y-43.38
X118.01Y-46.88
X118.01Y-62.43
X118.01Y-65.93
X118.01Y-81.48
X118.01Y-84.98
X118.01Y-100.53
X118.01Y-104.03
X118.359Y-121.343
X119.265Y-124.724
X120.319Y-122.63
X121.285Y-122.371
X123.11Y-43.38
X123.11Y-46.88
X123.11Y-62.43
X123.11Y-65.93
X123.11Y-81.48
X123.11Y-84.98
X123.11Y-100.53
X123.11Y-104.03
X124.67Y-45.13
X124.67Y-64.18
X124.67Y-83.23
X124.67Y-102.28
X124.674Y-130.459
X125.542Y-135.069
X125.67Y-45.13
X125.67Y-64.18
X125.67Y-83.23
X125.67Y-102.28
X126.38Y-58.575
X126.38Y-77.675
X126.38Y-96.675
X126.38Y-115.725
X126.85Y-53.82
X126.85Y-72.87
X126.85Y-91.92
X126.85Y-110.97
X133.29Y-51.31
X133.29Y-70.36
X133.29Y-89.41
X133.29Y-108.46
X133.29Y-127.51
X134.51Y-42.63
X134.51Y-61.68
X134.51Y-80.73
X134.51Y-99.78
X134.51Y-118.83
X135.51Y-42.63
X135.51Y-61.68
X135.51Y-80.73
X135.51Y-99.78
X135.51Y-118.83
X137.06Y-40.88
X137.06Y-44.38
X137.06Y-59.93
X137.06Y-63.43
X137.06Y-78.98
X137.06Y-82.48
X137.06Y-98.03
X137.06Y-101.53
X137.06Y-117.08
X137.06Y-120.58
X142.16Y-40.88
X142.16Y-44.38
X142.16Y-59.93
X142.16Y-63.43
X142.16Y-78.98
X142.16Y-82.48
X142.16Y-98.03
X142.16Y-101.53
X142.16Y-117.08
X142.16Y-120.58
X143.72Y-42.63
X143.72Y-61.68
X143.72Y-80.73
X143.72Y-99.78
X143.72Y-118.83
X144.72Y-42.63
X144.72Y-61.68
X144.72Y-80.73
X144.72Y-99.78
X144.72Y-118.83
X145.43Y-56.075
X145.43Y-75.125
X145.43Y-94.175
X145.43Y-113.225
X145.43Y-132.275
X145.9Y-51.32
X145.9Y-70.37
X145.9Y-89.42
X145.9Y-108.47
X145.9Y-127.52
X152.34Y-48.81
X152.34Y-67.86
X152.34Y-86.91
X152.34Y-105.96
X152.34Y-125.01
X153.56Y-40.13
X153.56Y-59.18
X153.56Y-78.23
X153.56Y-97.28
X153.56Y-116.33
X154.56Y-40.13
X154.56Y-59.18
X154.56Y-78.23
X154.56Y-97.28
X154.56Y-116.33
X156.11Y-38.38
X156.11Y-41.88
X156.11Y-57.43
X156.11Y-60.93
X156.11Y-76.48
X156.11Y-79.98
X156.11Y-95.53
X156.11Y-99.03
X156.11Y-114.58
X156.11Y-118.08
X161.21Y-38.38
X161.21Y-41.88
X161.21Y-57.43
X161.21Y-60.93
X161.21Y-76.48
X161.21Y-79.98
X161.21Y-95.53
X161.21Y-99.03
X161.21Y-114.58
X161.21Y-118.08
X162.77Y-40.13
X162.77Y-59.18
X162.77Y-78.23
X162.77Y-97.28
X162.77Y-116.33
X163.77Y-40.13
X163.77Y-59.18
X163.77Y-78.23
X163.77Y-97.28
X163.77Y-116.33
X164.48Y-53.61
X164.48Y-72.625
X164.48Y-91.675
X164.48Y-110.725
X164.48Y-129.775
X164.95Y-48.82
X164.95Y-67.87
X164.95Y-86.92
X164.95Y-105.97
X164.95Y-125.02
X171.39Y-51.31
X171.39Y-70.36
X171.39Y-89.41
X171.39Y-108.46
X171.39Y-127.51
X172.61Y-42.63
X172.61Y-61.68
X172.61Y-80.73
X172.61Y-99.78
X172.61Y-118.83
X173.61Y-42.63
X173.61Y-61.68
X173.61Y-80.73
X173.61Y-99.78
X173.61Y-118.83
X175.16Y-40.88
X175.16Y-44.38
X175.16Y-59.93
X175.16Y-63.43
X175.16Y-78.98
X175.16Y-82.48
X175.16Y-98.03
X175.16Y-101.53
X175.16Y-117.08
X175.16Y-120.58
X180.26Y-40.88
X180.26Y-44.38
X180.26Y-59.93
X180.26Y-63.43
X180.26Y-78.98
X180.26Y-82.48
X180.26Y-98.03
X180.26Y-101.53
X180.26Y-117.08
X180.26Y-120.58
X181.82Y-42.63
X181.82Y-61.68
X181.82Y-80.73
X181.82Y-99.78
X181.82Y-118.83
X182.82Y-42.63
X182.82Y-61.68
X182.82Y-80.73
X182.82Y-99.78
X182.82Y-118.83
X183.53Y-56.075
X183.53Y-75.125
X183.53Y-94.175
X183.53Y-113.225
X183.53Y-132.275
X184.0Y-51.32
X184.0Y-70.37
X184.0Y-89.42
X184.0Y-108.47
X184.0Y-127.52
X190.44Y-56.21
X190.44Y-75.26
X190.44Y-94.31
X190.44Y-113.36
X191.66Y-47.53
X191.66Y-66.58
X191.66Y-85.63
X191.66Y-104.68
X192.66Y-47.53
X192.66Y-66.58
X192.66Y-85.63
X192.66Y-104.68
X194.21Y-45.78
X194.21Y-49.28
X194.21Y-64.83
X194.21Y-68.33
X194.21Y-83.88
X194.21Y-87.38
X194.21Y-102.93
X194.21Y-106.43
X199.31Y-45.78
X199.31Y-49.28
X199.31Y-64.83
X199.31Y-68.33
X199.31Y-83.88
X199.31Y-87.38
X199.31Y-102.93
X199.31Y-106.43
X200.87Y-47.53
X200.87Y-66.58
X200.87Y-85.63
X200.87Y-104.68
X201.87Y-47.53
X201.87Y-66.58
X201.87Y-85.63
X201.87Y-104.68
X202.58Y-60.975
X202.58Y-80.025
X202.58Y-99.075
X202.612Y-118.01
X203.05Y-56.22
X203.05Y-75.27
X203.05Y-94.32
X203.05Y-113.37
X209.49Y-56.21
X209.49Y-75.26
X209.49Y-94.31
X209.49Y-113.36
X210.71Y-47.53
X210.71Y-66.58
X210.71Y-85.63
X210.71Y-104.68
X211.71Y-47.53
X211.71Y-66.58
X211.71Y-85.63
X211.71Y-104.68
X213.26Y-45.78
X213.26Y-49.28
X213.26Y-64.83
X213.26Y-68.33
X213.26Y-83.88
X213.26Y-87.38
X213.26Y-102.93
X213.26Y-106.43
X218.36Y-45.78
X218.36Y-49.28
X218.36Y-64.83
X218.36Y-68.33
X218.36Y-83.88
X218.36Y-87.38
X218.36Y-102.93
X218.36Y-106.43
X219.92Y-47.53
X219.92Y-66.58
X219.92Y-85.63
X219.92Y-104.68
X220.92Y-47.53
X220.92Y-66.58
X220.92Y-85.63
X220.92Y-104.68
X221.63Y-60.975
X221.63Y-80.025
X221.63Y-99.075
X221.63Y-118.125
X222.1Y-56.22
X222.1Y-75.27
X222.1Y-94.32
X222.1Y-113.37
T3
X86.052Y-36.525
X86.052Y-39.065
X86.052Y-41.605
X86.052Y-44.145
X86.052Y-46.685
X86.052Y-49.225
X86.052Y-51.765
X86.052Y-54.305
X86.052Y-56.845
X86.052Y-59.385
X86.052Y-61.925
X86.052Y-64.465
X86.052Y-67.005
X86.052Y-69.545
X86.052Y-72.085
X86.052Y-74.625
X86.052Y-77.165
X86.052Y-79.705
X86.052Y-82.245
X86.052Y-84.785
X88.593Y-36.525
X88.593Y-39.065
X88.593Y-41.605
X88.593Y-44.145
X88.593Y-46.685
X88.593Y-49.225
X88.593Y-51.765
X88.593Y-54.305
X88.593Y-56.845
X88.593Y-59.385
X88.593Y-61.925
X88.593Y-64.465
X88.593Y-67.005
X88.593Y-69.545
X88.593Y-72.085
X88.593Y-74.625
X88.593Y-77.165
X88.593Y-79.705
X88.593Y-82.245
X88.593Y-84.785
X103.832Y-36.525
X103.832Y-39.065
X103.832Y-41.605
X103.832Y-44.145
X103.832Y-46.685
X103.832Y-49.225
X103.832Y-51.765
X103.832Y-54.305
X103.832Y-56.845
X103.832Y-59.385
X103.832Y-61.925
X103.832Y-64.465
X103.832Y-67.005
X103.832Y-69.545
X103.832Y-72.085
X103.832Y-74.625
X103.832Y-77.165
X103.832Y-79.705
X103.832Y-82.245
X103.832Y-84.785
X106.373Y-36.525
X106.373Y-39.065
X106.373Y-41.605
X106.373Y-44.145
X106.373Y-46.685
X106.373Y-49.225
X106.373Y-51.765
X106.373Y-54.305
X106.373Y-56.845
X106.373Y-59.385
X106.373Y-61.925
X106.373Y-64.465
X106.373Y-67.005
X106.373Y-69.545
X106.373Y-72.085
X106.373Y-74.625
X106.373Y-77.165
X106.373Y-79.705
X106.373Y-82.245
X106.373Y-84.785
X125.314Y-37.463
X127.854Y-37.463
T4
X83.638Y-50.47
X83.638Y-53.01
X83.638Y-55.55
X83.638Y-58.09
X83.638Y-60.63
X83.638Y-63.17
X83.638Y-65.71
X83.638Y-68.25
X108.847Y-50.47
X108.847Y-53.01
X108.847Y-55.55
X108.847Y-58.09
X108.847Y-60.63
X108.847Y-63.17
X108.847Y-65.71
X108.847Y-68.25
T5
X96.0Y-113.04
X101.193Y-141.279
X104.0Y-113.04
X108.321Y-137.647
X116.221Y-137.567
X116.73Y-58.575
X116.73Y-77.675
X116.73Y-96.675
X116.73Y-115.725
X123.948Y-135.496
X124.73Y-58.575
X124.73Y-77.675
X124.73Y-96.675
X124.73Y-115.725
X135.78Y-56.075
X135.78Y-75.125
X135.78Y-94.175
X135.78Y-113.225
X135.78Y-132.275
X143.78Y-56.075
X143.78Y-75.125
X143.78Y-94.175
X143.78Y-113.225
X143.78Y-132.275
X154.83Y-53.61
X154.83Y-72.625
X154.83Y-91.675
X154.83Y-110.725
X154.83Y-129.775
X162.83Y-53.61
X162.83Y-72.625
X162.83Y-91.675
X162.83Y-110.725
X162.83Y-129.775
X173.88Y-56.075
X173.88Y-75.125
X173.88Y-94.175
X173.88Y-113.225
X173.88Y-132.275
X181.88Y-56.075
X181.88Y-75.125
X181.88Y-94.175
X181.88Y-113.225
X181.88Y-132.275
X192.93Y-60.975
X192.93Y-80.025
X192.93Y-99.075
X192.962Y-118.01
X200.93Y-60.975
X200.93Y-80.025
X200.93Y-99.075
X200.962Y-118.01
X211.98Y-60.975
X211.98Y-80.025
X211.98Y-99.075
X211.98Y-118.125
X219.98Y-60.975
X219.98Y-80.025
X219.98Y-99.075
X219.98Y-118.125
T6
X83.67Y-106.08
X83.67Y-108.62
X83.67Y-111.16
X83.67Y-116.24
X86.92Y-106.07
X86.92Y-108.61
X86.92Y-111.15
X86.92Y-113.69
X90.24Y-106.07
X90.24Y-108.61
X90.24Y-111.15
X90.24Y-113.69
X90.24Y-116.23
X93.0Y-102.0
X93.0Y-107.0
X107.5Y-102.0
X107.5Y-104.5
X107.5Y-107.0
T7
X130.075Y-81.37
X149.125Y-62.32
X149.125Y-100.42
X168.175Y-81.37
T8
X85.649Y-101.0
X103.59Y-120.53
X105.14Y-90.59
X112.01Y-37.117
X129.44Y-59.51
X129.53Y-97.46
X206.275Y-100.025
X206.29Y-61.91
T6
X84.44Y-88.97G85X84.94Y-88.97
G05
X84.44Y-94.92G85X84.94Y-94.92
G05
X87.44Y-88.97G85X87.94Y-88.97
G05
X87.44Y-94.92G85X87.94Y-94.92
G05
X91.44Y-88.97G85X91.94Y-88.97
G05
X91.44Y-94.92G85X91.94Y-94.92
G05
X92.94Y-90.72G85X93.44Y-90.72
G05
X92.94Y-93.17G85X93.44Y-93.17
G05
T0
M30
