M48
; DRILL file {KiCad 7.0.1} date Tue Nov 14 22:57:01 2023
; FORMAT={-:-/ absolute / metric / decimal}
; #@! TF.CreationDate,2023-11-14T22:57:01+01:00
; #@! TF.GenerationSoftware,Kicad,Pcbnew,7.0.1
; #@! TF.FileFunction,NonPlated,1,2,NPTH
FMAT,2
METRIC
; #@! TA.AperFunction,NonPlated,NPTH,ComponentDrill
T1C1.000
; #@! TA.AperFunction,NonPlated,NPTH,ComponentDrill
T2C1.200
; #@! TA.AperFunction,NonPlated,NPTH,ComponentDrill
T3C1.750
; #@! TA.AperFunction,NonPlated,NPTH,ComponentDrill
T4C3.000
; #@! TA.AperFunction,NonPlated,NPTH,ComponentDrill
T5C3.988
%
G90
G05
T2
X82.89Y-91.07
X82.89Y-92.82
X89.89Y-91.07
X89.89Y-92.82
T3
X94.489Y-129.314
X94.489Y-129.314
X99.102Y-138.367
X99.102Y-138.367
X112.693Y-129.715
X112.693Y-129.715
X115.47Y-50.0
X115.47Y-50.0
X115.47Y-69.05
X115.47Y-69.05
X115.47Y-88.1
X115.47Y-88.1
X115.47Y-107.15
X115.47Y-107.15
X122.507Y-127.085
X122.507Y-127.085
X125.63Y-50.0
X125.63Y-50.0
X125.63Y-69.05
X125.63Y-69.05
X125.63Y-88.1
X125.63Y-88.1
X125.63Y-107.15
X125.63Y-107.15
X134.52Y-47.5
X134.52Y-47.5
X134.52Y-66.55
X134.52Y-66.55
X134.52Y-85.6
X134.52Y-85.6
X134.52Y-104.65
X134.52Y-104.65
X134.52Y-123.7
X134.52Y-123.7
X144.68Y-47.5
X144.68Y-47.5
X144.68Y-66.55
X144.68Y-66.55
X144.68Y-85.6
X144.68Y-85.6
X144.68Y-104.65
X144.68Y-104.65
X144.68Y-123.7
X144.68Y-123.7
X153.57Y-45.0
X153.57Y-45.0
X153.57Y-64.05
X153.57Y-64.05
X153.57Y-83.1
X153.57Y-83.1
X153.57Y-102.15
X153.57Y-102.15
X153.57Y-121.2
X153.57Y-121.2
X163.73Y-45.0
X163.73Y-45.0
X163.73Y-64.05
X163.73Y-64.05
X163.73Y-83.1
X163.73Y-83.1
X163.73Y-102.15
X163.73Y-102.15
X163.73Y-121.2
X163.73Y-121.2
X172.62Y-47.5
X172.62Y-47.5
X172.62Y-66.55
X172.62Y-66.55
X172.62Y-85.6
X172.62Y-85.6
X172.62Y-104.65
X172.62Y-104.65
X172.62Y-123.7
X172.62Y-123.7
X182.78Y-47.5
X182.78Y-47.5
X182.78Y-66.55
X182.78Y-66.55
X182.78Y-85.6
X182.78Y-85.6
X182.78Y-104.65
X182.78Y-104.65
X182.78Y-123.7
X182.78Y-123.7
X191.67Y-52.4
X191.67Y-52.4
X191.67Y-71.45
X191.67Y-71.45
X191.67Y-90.5
X191.67Y-90.5
X191.67Y-109.55
X191.67Y-109.55
X201.83Y-52.4
X201.83Y-52.4
X201.83Y-71.45
X201.83Y-71.45
X201.83Y-90.5
X201.83Y-90.5
X201.83Y-109.55
X201.83Y-109.55
X210.72Y-52.4
X210.72Y-52.4
X210.72Y-71.45
X210.72Y-71.45
X210.72Y-90.5
X210.72Y-90.5
X210.72Y-109.55
X210.72Y-109.55
X220.88Y-52.4
X220.88Y-52.4
X220.88Y-71.45
X220.88Y-71.45
X220.88Y-90.5
X220.88Y-90.5
X220.88Y-109.55
X220.88Y-109.55
T4
X91.116Y-133.884
X92.803Y-131.599
X93.423Y-138.41
X96.262Y-138.389
X114.577Y-131.84
X116.461Y-133.964
X116.74Y-52.54
X116.74Y-71.59
X116.74Y-90.64
X116.74Y-109.69
X118.01Y-55.08
X118.01Y-74.13
X118.01Y-93.18
X118.01Y-112.23
X121.368Y-132.65
X121.938Y-129.867
X123.09Y-55.08
X123.09Y-74.13
X123.09Y-93.18
X123.09Y-112.23
X124.36Y-52.54
X124.36Y-71.59
X124.36Y-90.64
X124.36Y-109.69
X135.79Y-50.04
X135.79Y-69.09
X135.79Y-88.14
X135.79Y-107.19
X135.79Y-126.24
X137.06Y-52.58
X137.06Y-71.63
X137.06Y-90.68
X137.06Y-109.73
X137.06Y-128.78
X142.14Y-52.58
X142.14Y-71.63
X142.14Y-90.68
X142.14Y-109.73
X142.14Y-128.78
X143.41Y-50.04
X143.41Y-69.09
X143.41Y-88.14
X143.41Y-107.19
X143.41Y-126.24
X154.84Y-47.54
X154.84Y-66.59
X154.84Y-85.64
X154.84Y-104.69
X154.84Y-123.74
X156.11Y-50.08
X156.11Y-69.13
X156.11Y-88.18
X156.11Y-107.23
X156.11Y-126.28
X161.19Y-50.08
X161.19Y-69.13
X161.19Y-88.18
X161.19Y-107.23
X161.19Y-126.28
X162.46Y-47.54
X162.46Y-66.59
X162.46Y-85.64
X162.46Y-104.69
X162.46Y-123.74
X173.89Y-50.04
X173.89Y-69.09
X173.89Y-88.14
X173.89Y-107.19
X173.89Y-126.24
X175.16Y-52.58
X175.16Y-71.63
X175.16Y-90.68
X175.16Y-109.73
X175.16Y-128.78
X180.24Y-52.58
X180.24Y-71.63
X180.24Y-90.68
X180.24Y-109.73
X180.24Y-128.78
X181.51Y-50.04
X181.51Y-69.09
X181.51Y-88.14
X181.51Y-107.19
X181.51Y-126.24
X192.94Y-54.94
X192.94Y-73.99
X192.94Y-93.04
X192.94Y-112.09
X194.21Y-57.48
X194.21Y-76.53
X194.21Y-95.58
X194.21Y-114.63
X199.29Y-57.48
X199.29Y-76.53
X199.29Y-95.58
X199.29Y-114.63
X200.56Y-54.94
X200.56Y-73.99
X200.56Y-93.04
X200.56Y-112.09
X211.99Y-54.94
X211.99Y-73.99
X211.99Y-93.04
X211.99Y-112.09
X213.26Y-57.48
X213.26Y-76.53
X213.26Y-95.58
X213.26Y-114.63
X218.34Y-57.48
X218.34Y-76.53
X218.34Y-95.58
X218.34Y-114.63
X219.61Y-54.94
X219.61Y-73.99
X219.61Y-93.04
X219.61Y-112.09
T5
X96.796Y-133.841
X96.796Y-133.841
X117.6Y-128.4
X117.6Y-128.4
X120.55Y-50.0
X120.55Y-50.0
X120.55Y-69.05
X120.55Y-69.05
X120.55Y-88.1
X120.55Y-88.1
X120.55Y-107.15
X120.55Y-107.15
X139.6Y-47.5
X139.6Y-47.5
X139.6Y-66.55
X139.6Y-66.55
X139.6Y-85.6
X139.6Y-85.6
X139.6Y-104.65
X139.6Y-104.65
X139.6Y-123.7
X139.6Y-123.7
X158.65Y-45.0
X158.65Y-45.0
X158.65Y-64.05
X158.65Y-64.05
X158.65Y-83.1
X158.65Y-83.1
X158.65Y-102.15
X158.65Y-102.15
X158.65Y-121.2
X158.65Y-121.2
X177.7Y-47.5
X177.7Y-47.5
X177.7Y-66.55
X177.7Y-66.55
X177.7Y-85.6
X177.7Y-85.6
X177.7Y-104.65
X177.7Y-104.65
X177.7Y-123.7
X177.7Y-123.7
X196.75Y-52.4
X196.75Y-52.4
X196.75Y-71.45
X196.75Y-71.45
X196.75Y-90.5
X196.75Y-90.5
X196.75Y-109.55
X196.75Y-109.55
X215.8Y-52.4
X215.8Y-52.4
X215.8Y-71.45
X215.8Y-71.45
X215.8Y-90.5
X215.8Y-90.5
X215.8Y-109.55
X215.8Y-109.55
T1
X100.793Y-133.162G85X99.704Y-131.024
G05
X101.931Y-129.889G85X99.258Y-131.251
G05
X103.021Y-132.027G85X100.348Y-133.389
G05
X102.575Y-132.254G85X101.486Y-130.116
G05
X114.802Y-122.555G85X115.578Y-125.453
G05
X117.249Y-122.417G85X114.931Y-123.038
G05
X117.767Y-124.349G85X115.449Y-124.97
G05
X117.12Y-121.934G85X117.897Y-124.832
G05
X119.36Y-43.63G85X119.36Y-46.63
G05
X119.36Y-62.68G85X119.36Y-65.68
G05
X119.36Y-81.73G85X119.36Y-84.73
G05
X119.36Y-100.78G85X119.36Y-103.78
G05
X121.76Y-44.13G85X119.36Y-44.13
G05
X121.76Y-46.13G85X119.36Y-46.13
G05
X121.76Y-63.18G85X119.36Y-63.18
G05
X121.76Y-65.18G85X119.36Y-65.18
G05
X121.76Y-82.23G85X119.36Y-82.23
G05
X121.76Y-84.23G85X119.36Y-84.23
G05
X121.76Y-101.28G85X119.36Y-101.28
G05
X121.76Y-103.28G85X119.36Y-103.28
G05
X121.76Y-43.63G85X121.76Y-46.63
G05
X121.76Y-62.68G85X121.76Y-65.68
G05
X121.76Y-81.73G85X121.76Y-84.73
G05
X121.76Y-100.78G85X121.76Y-103.78
G05
X138.41Y-41.13G85X138.41Y-44.13
G05
X138.41Y-60.18G85X138.41Y-63.18
G05
X138.41Y-79.23G85X138.41Y-82.23
G05
X138.41Y-98.28G85X138.41Y-101.28
G05
X138.41Y-117.33G85X138.41Y-120.33
G05
X140.81Y-41.63G85X138.41Y-41.63
G05
X140.81Y-43.63G85X138.41Y-43.63
G05
X140.81Y-60.68G85X138.41Y-60.68
G05
X140.81Y-62.68G85X138.41Y-62.68
G05
X140.81Y-79.73G85X138.41Y-79.73
G05
X140.81Y-81.73G85X138.41Y-81.73
G05
X140.81Y-98.78G85X138.41Y-98.78
G05
X140.81Y-100.78G85X138.41Y-100.78
G05
X140.81Y-117.83G85X138.41Y-117.83
G05
X140.81Y-119.83G85X138.41Y-119.83
G05
X140.81Y-41.13G85X140.81Y-44.13
G05
X140.81Y-60.18G85X140.81Y-63.18
G05
X140.81Y-79.23G85X140.81Y-82.23
G05
X140.81Y-98.28G85X140.81Y-101.28
G05
X140.81Y-117.33G85X140.81Y-120.33
G05
X157.46Y-38.63G85X157.46Y-41.63
G05
X157.46Y-57.68G85X157.46Y-60.68
G05
X157.46Y-76.73G85X157.46Y-79.73
G05
X157.46Y-95.78G85X157.46Y-98.78
G05
X157.46Y-114.83G85X157.46Y-117.83
G05
X159.86Y-39.13G85X157.46Y-39.13
G05
X159.86Y-41.13G85X157.46Y-41.13
G05
X159.86Y-58.18G85X157.46Y-58.18
G05
X159.86Y-60.18G85X157.46Y-60.18
G05
X159.86Y-77.23G85X157.46Y-77.23
G05
X159.86Y-79.23G85X157.46Y-79.23
G05
X159.86Y-96.28G85X157.46Y-96.28
G05
X159.86Y-98.28G85X157.46Y-98.28
G05
X159.86Y-115.33G85X157.46Y-115.33
G05
X159.86Y-117.33G85X157.46Y-117.33
G05
X159.86Y-38.63G85X159.86Y-41.63
G05
X159.86Y-57.68G85X159.86Y-60.68
G05
X159.86Y-76.73G85X159.86Y-79.73
G05
X159.86Y-95.78G85X159.86Y-98.78
G05
X159.86Y-114.83G85X159.86Y-117.83
G05
X176.51Y-41.13G85X176.51Y-44.13
G05
X176.51Y-60.18G85X176.51Y-63.18
G05
X176.51Y-79.23G85X176.51Y-82.23
G05
X176.51Y-98.28G85X176.51Y-101.28
G05
X176.51Y-117.33G85X176.51Y-120.33
G05
X178.91Y-41.63G85X176.51Y-41.63
G05
X178.91Y-43.63G85X176.51Y-43.63
G05
X178.91Y-60.68G85X176.51Y-60.68
G05
X178.91Y-62.68G85X176.51Y-62.68
G05
X178.91Y-79.73G85X176.51Y-79.73
G05
X178.91Y-81.73G85X176.51Y-81.73
G05
X178.91Y-98.78G85X176.51Y-98.78
G05
X178.91Y-100.78G85X176.51Y-100.78
G05
X178.91Y-117.83G85X176.51Y-117.83
G05
X178.91Y-119.83G85X176.51Y-119.83
G05
X178.91Y-41.13G85X178.91Y-44.13
G05
X178.91Y-60.18G85X178.91Y-63.18
G05
X178.91Y-79.23G85X178.91Y-82.23
G05
X178.91Y-98.28G85X178.91Y-101.28
G05
X178.91Y-117.33G85X178.91Y-120.33
G05
X195.56Y-46.03G85X195.56Y-49.03
G05
X195.56Y-65.08G85X195.56Y-68.08
G05
X195.56Y-84.13G85X195.56Y-87.13
G05
X195.56Y-103.18G85X195.56Y-106.18
G05
X197.96Y-46.53G85X195.56Y-46.53
G05
X197.96Y-48.53G85X195.56Y-48.53
G05
X197.96Y-65.58G85X195.56Y-65.58
G05
X197.96Y-67.58G85X195.56Y-67.58
G05
X197.96Y-84.63G85X195.56Y-84.63
G05
X197.96Y-86.63G85X195.56Y-86.63
G05
X197.96Y-103.68G85X195.56Y-103.68
G05
X197.96Y-105.68G85X195.56Y-105.68
G05
X197.96Y-46.03G85X197.96Y-49.03
G05
X197.96Y-65.08G85X197.96Y-68.08
G05
X197.96Y-84.13G85X197.96Y-87.13
G05
X197.96Y-103.18G85X197.96Y-106.18
G05
X214.61Y-46.03G85X214.61Y-49.03
G05
X214.61Y-65.08G85X214.61Y-68.08
G05
X214.61Y-84.13G85X214.61Y-87.13
G05
X214.61Y-103.18G85X214.61Y-106.18
G05
X217.01Y-46.53G85X214.61Y-46.53
G05
X217.01Y-48.53G85X214.61Y-48.53
G05
X217.01Y-65.58G85X214.61Y-65.58
G05
X217.01Y-67.58G85X214.61Y-67.58
G05
X217.01Y-84.63G85X214.61Y-84.63
G05
X217.01Y-86.63G85X214.61Y-86.63
G05
X217.01Y-103.68G85X214.61Y-103.68
G05
X217.01Y-105.68G85X214.61Y-105.68
G05
X217.01Y-46.03G85X217.01Y-49.03
G05
X217.01Y-65.08G85X217.01Y-68.08
G05
X217.01Y-84.13G85X217.01Y-87.13
G05
X217.01Y-103.18G85X217.01Y-106.18
G05
T4
X101.23Y-131.817G85X101.049Y-131.461
G05
X116.542Y-123.642G85X116.156Y-123.745
G05
X120.76Y-45.13G85X120.36Y-45.13
G05
X120.76Y-64.18G85X120.36Y-64.18
G05
X120.76Y-83.23G85X120.36Y-83.23
G05
X120.76Y-102.28G85X120.36Y-102.28
G05
X139.81Y-42.63G85X139.41Y-42.63
G05
X139.81Y-61.68G85X139.41Y-61.68
G05
X139.81Y-80.73G85X139.41Y-80.73
G05
X139.81Y-99.78G85X139.41Y-99.78
G05
X139.81Y-118.83G85X139.41Y-118.83
G05
X158.86Y-40.13G85X158.46Y-40.13
G05
X158.86Y-59.18G85X158.46Y-59.18
G05
X158.86Y-78.23G85X158.46Y-78.23
G05
X158.86Y-97.28G85X158.46Y-97.28
G05
X158.86Y-116.33G85X158.46Y-116.33
G05
X177.91Y-42.63G85X177.51Y-42.63
G05
X177.91Y-61.68G85X177.51Y-61.68
G05
X177.91Y-80.73G85X177.51Y-80.73
G05
X177.91Y-99.78G85X177.51Y-99.78
G05
X177.91Y-118.83G85X177.51Y-118.83
G05
X196.96Y-47.53G85X196.56Y-47.53
G05
X196.96Y-66.58G85X196.56Y-66.58
G05
X196.96Y-85.63G85X196.56Y-85.63
G05
X196.96Y-104.68G85X196.56Y-104.68
G05
X216.01Y-47.53G85X215.61Y-47.53
G05
X216.01Y-66.58G85X215.61Y-66.58
G05
X216.01Y-85.63G85X215.61Y-85.63
G05
X216.01Y-104.68G85X215.61Y-104.68
G05
T0
M30
