M48
; DRILL file {KiCad 7.0.1} date Tue Nov 14 22:57:01 2023
; FORMAT={-:-/ absolute / metric / decimal}
; #@! TF.CreationDate,2023-11-14T22:57:01+01:00
; #@! TF.GenerationSoftware,Kicad,Pcbnew,7.0.1
; #@! TF.FileFunction,Plated,1,2,PTH
FMAT,2
METRIC
; #@! TA.AperFunction,Plated,PTH,ViaDrill
T1C0.300
; #@! TA.AperFunction,Plated,PTH,ComponentDrill
T2C0.300
; #@! TA.AperFunction,Plated,PTH,ComponentDrill
T3C0.800
; #@! TA.AperFunction,Plated,PTH,ComponentDrill
T4C0.813
; #@! TA.AperFunction,Plated,PTH,ComponentDrill
T5C0.900
; #@! TA.AperFunction,Plated,PTH,ComponentDrill
T6C1.000
; #@! TA.AperFunction,Plated,PTH,ComponentDrill
T7C1.500
; #@! TA.AperFunction,Plated,PTH,ComponentDrill
T8C2.200
; #@! TA.AperFunction,Plated,PTH,ComponentDrill
T9C4.100
%
G90
G05
T1
X94.995Y-79.705
X95.93Y-57.98
X96.445Y-60.631
X97.14Y-51.765
X98.06Y-56.845
X98.425Y-64.465
X98.56Y-59.243
X98.875Y-72.085
X99.325Y-74.625
X99.645Y-77.147
X100.17Y-44.145
X101.275Y-46.685
X101.725Y-69.545
X104.28Y-125.388
X111.405Y-113.065
X111.653Y-95.21
X111.76Y-119.843
X112.03Y-60.53
X112.547Y-119.699
X113.85Y-137.69
X116.25Y-38.103
X120.443Y-117.805
X123.45Y-37.43
X123.57Y-38.39
X123.6Y-36.46
X127.45Y-35.658
X128.05Y-39.174
X128.05Y-42.223
X129.05Y-38.103
X129.25Y-42.703
X131.65Y-115.903
X132.54Y-114.903
X133.012Y-40.713
X136.94Y-38.145
X150.65Y-113.075
X151.57Y-113.089
X152.105Y-37.614
X156.9Y-113.575
X168.22Y-37.17
X168.38Y-112.624
X175.4Y-39.253
X186.805Y-114.984
X187.189Y-39.991
X195.55Y-101.81
X206.23Y-43.05
T2
X90.536Y-129.948
X96.252Y-141.188
X98.414Y-130.166
X98.824Y-127.095
X99.278Y-127.986
X103.005Y-135.301
X103.459Y-136.192
X104.042Y-132.797
X111.423Y-125.013
X112.389Y-124.755
X112.491Y-133.713
X114.24Y-53.81
X114.24Y-72.86
X114.24Y-91.91
X114.24Y-110.96
X114.342Y-126.053
X115.46Y-45.13
X115.46Y-64.18
X115.46Y-83.23
X115.46Y-102.28
X116.46Y-45.13
X116.46Y-64.18
X116.46Y-83.23
X116.46Y-102.28
X118.01Y-46.89
X118.01Y-65.94
X118.01Y-84.99
X118.01Y-104.04
X118.086Y-121.095
X120.319Y-122.63
X121.285Y-122.371
X122.91Y-43.07
X122.91Y-62.12
X122.91Y-81.17
X122.91Y-100.22
X124.67Y-45.13
X124.67Y-64.18
X124.67Y-83.23
X124.67Y-102.28
X124.674Y-130.459
X125.67Y-45.13
X125.67Y-64.18
X125.67Y-83.23
X125.67Y-102.28
X126.85Y-53.82
X126.85Y-72.87
X126.85Y-91.92
X126.85Y-110.97
X133.29Y-51.31
X133.29Y-70.36
X133.29Y-89.41
X133.29Y-108.46
X133.29Y-127.51
X134.51Y-42.63
X134.51Y-61.68
X134.51Y-80.73
X134.51Y-99.78
X134.51Y-118.83
X135.51Y-42.63
X135.51Y-61.68
X135.51Y-80.73
X135.51Y-99.78
X135.51Y-118.83
X137.06Y-44.39
X137.06Y-63.44
X137.06Y-82.49
X137.06Y-101.54
X137.06Y-120.59
X141.96Y-40.57
X141.96Y-59.62
X141.96Y-78.67
X141.96Y-97.72
X141.96Y-116.77
X143.72Y-42.63
X143.72Y-61.68
X143.72Y-80.73
X143.72Y-99.78
X143.72Y-118.83
X144.72Y-42.63
X144.72Y-61.68
X144.72Y-80.73
X144.72Y-99.78
X144.72Y-118.83
X145.9Y-51.32
X145.9Y-70.37
X145.9Y-89.42
X145.9Y-108.47
X145.9Y-127.52
X152.34Y-48.81
X152.34Y-67.86
X152.34Y-86.91
X152.34Y-105.96
X152.34Y-125.01
X153.56Y-40.13
X153.56Y-59.18
X153.56Y-78.23
X153.56Y-97.28
X153.56Y-116.33
X154.56Y-40.13
X154.56Y-59.18
X154.56Y-78.23
X154.56Y-97.28
X154.56Y-116.33
X156.11Y-41.89
X156.11Y-60.94
X156.11Y-79.99
X156.11Y-99.04
X156.11Y-118.09
X161.01Y-38.07
X161.01Y-57.12
X161.01Y-76.17
X161.01Y-95.22
X161.01Y-114.27
X162.77Y-40.13
X162.77Y-59.18
X162.77Y-78.23
X162.77Y-97.28
X162.77Y-116.33
X163.77Y-40.13
X163.77Y-59.18
X163.77Y-78.23
X163.77Y-97.28
X163.77Y-116.33
X164.95Y-48.82
X164.95Y-67.87
X164.95Y-86.92
X164.95Y-105.97
X164.95Y-125.02
X171.39Y-51.31
X171.39Y-70.36
X171.39Y-89.41
X171.39Y-108.46
X171.39Y-127.51
X172.61Y-42.63
X172.61Y-61.68
X172.61Y-80.73
X172.61Y-99.78
X172.61Y-118.83
X173.61Y-42.63
X173.61Y-61.68
X173.61Y-80.73
X173.61Y-99.78
X173.61Y-118.83
X175.16Y-44.39
X175.16Y-63.44
X175.16Y-82.49
X175.16Y-101.54
X175.16Y-120.59
X180.06Y-40.57
X180.06Y-59.62
X180.06Y-78.67
X180.06Y-97.72
X180.06Y-116.77
X181.82Y-42.63
X181.82Y-61.68
X181.82Y-80.73
X181.82Y-99.78
X181.82Y-118.83
X182.82Y-42.63
X182.82Y-61.68
X182.82Y-80.73
X182.82Y-99.78
X182.82Y-118.83
X184.0Y-51.32
X184.0Y-70.37
X184.0Y-89.42
X184.0Y-108.47
X184.0Y-127.52
X190.44Y-56.21
X190.44Y-75.26
X190.44Y-94.31
X190.44Y-113.36
X191.66Y-47.53
X191.66Y-66.58
X191.66Y-85.63
X191.66Y-104.68
X192.66Y-47.53
X192.66Y-66.58
X192.66Y-85.63
X192.66Y-104.68
X194.21Y-49.29
X194.21Y-68.34
X194.21Y-87.39
X194.21Y-106.44
X199.11Y-45.47
X199.11Y-64.52
X199.11Y-83.57
X199.11Y-102.62
X200.87Y-47.53
X200.87Y-66.58
X200.87Y-85.63
X200.87Y-104.68
X201.87Y-47.53
X201.87Y-66.58
X201.87Y-85.63
X201.87Y-104.68
X203.05Y-56.22
X203.05Y-75.27
X203.05Y-94.32
X203.05Y-113.37
X209.49Y-56.21
X209.49Y-75.26
X209.49Y-94.31
X209.49Y-113.36
X210.71Y-47.53
X210.71Y-66.58
X210.71Y-85.63
X210.71Y-104.68
X211.71Y-47.53
X211.71Y-66.58
X211.71Y-85.63
X211.71Y-104.68
X213.26Y-49.29
X213.26Y-68.34
X213.26Y-87.39
X213.26Y-106.44
X218.16Y-45.47
X218.16Y-64.52
X218.16Y-83.57
X218.16Y-102.62
X219.92Y-47.53
X219.92Y-66.58
X219.92Y-85.63
X219.92Y-104.68
X220.92Y-47.53
X220.92Y-66.58
X220.92Y-85.63
X220.92Y-104.68
X222.1Y-56.22
X222.1Y-75.27
X222.1Y-94.32
X222.1Y-113.37
T3
X86.052Y-36.525
X86.052Y-39.065
X86.052Y-41.605
X86.052Y-44.145
X86.052Y-46.685
X86.052Y-49.225
X86.052Y-51.765
X86.052Y-54.305
X86.052Y-56.845
X86.052Y-59.385
X86.052Y-61.925
X86.052Y-64.465
X86.052Y-67.005
X86.052Y-69.545
X86.052Y-72.085
X86.052Y-74.625
X86.052Y-77.165
X86.052Y-79.705
X86.052Y-82.245
X86.052Y-84.785
X88.593Y-36.525
X88.593Y-39.065
X88.593Y-41.605
X88.593Y-44.145
X88.593Y-46.685
X88.593Y-49.225
X88.593Y-51.765
X88.593Y-54.305
X88.593Y-56.845
X88.593Y-59.385
X88.593Y-61.925
X88.593Y-64.465
X88.593Y-67.005
X88.593Y-69.545
X88.593Y-72.085
X88.593Y-74.625
X88.593Y-77.165
X88.593Y-79.705
X88.593Y-82.245
X88.593Y-84.785
X103.832Y-36.525
X103.832Y-39.065
X103.832Y-41.605
X103.832Y-44.145
X103.832Y-46.685
X103.832Y-49.225
X103.832Y-51.765
X103.832Y-54.305
X103.832Y-56.845
X103.832Y-59.385
X103.832Y-61.925
X103.832Y-64.465
X103.832Y-67.005
X103.832Y-69.545
X103.832Y-72.085
X103.832Y-74.625
X103.832Y-77.165
X103.832Y-79.705
X103.832Y-82.245
X103.832Y-84.785
X106.373Y-36.525
X106.373Y-39.065
X106.373Y-41.605
X106.373Y-44.145
X106.373Y-46.685
X106.373Y-49.225
X106.373Y-51.765
X106.373Y-54.305
X106.373Y-56.845
X106.373Y-59.385
X106.373Y-61.925
X106.373Y-64.465
X106.373Y-67.005
X106.373Y-69.545
X106.373Y-72.085
X106.373Y-74.625
X106.373Y-77.165
X106.373Y-79.705
X106.373Y-82.245
X106.373Y-84.785
X131.25Y-35.033
X131.25Y-37.573
T4
X83.638Y-50.47
X83.638Y-53.01
X83.638Y-55.55
X83.638Y-58.09
X83.638Y-60.63
X83.638Y-63.17
X83.638Y-65.71
X83.638Y-68.25
X108.847Y-50.47
X108.847Y-53.01
X108.847Y-55.55
X108.847Y-58.09
X108.847Y-60.63
X108.847Y-63.17
X108.847Y-65.71
X108.847Y-68.25
T5
X83.301Y-36.597
X83.301Y-44.597
X96.0Y-113.04
X101.193Y-141.279
X104.0Y-113.04
X108.321Y-137.647
X116.221Y-137.567
X116.73Y-58.575
X116.73Y-77.675
X116.73Y-96.675
X116.73Y-115.725
X123.948Y-135.496
X124.73Y-58.575
X124.73Y-77.675
X124.73Y-96.675
X124.73Y-115.725
X135.78Y-56.075
X135.78Y-75.125
X135.78Y-94.175
X135.78Y-113.225
X135.78Y-132.275
X143.78Y-56.075
X143.78Y-75.125
X143.78Y-94.175
X143.78Y-113.225
X143.78Y-132.275
X154.83Y-53.61
X154.83Y-72.625
X154.83Y-91.675
X154.83Y-110.725
X154.83Y-129.775
X162.83Y-53.61
X162.83Y-72.625
X162.83Y-91.675
X162.83Y-110.725
X162.83Y-129.775
X173.88Y-56.075
X173.88Y-75.125
X173.88Y-94.175
X173.88Y-113.225
X173.88Y-132.275
X181.88Y-56.075
X181.88Y-75.125
X181.88Y-94.175
X181.88Y-113.225
X181.88Y-132.275
X192.93Y-60.975
X192.93Y-80.025
X192.93Y-99.075
X192.962Y-118.01
X200.93Y-60.975
X200.93Y-80.025
X200.93Y-99.075
X200.962Y-118.01
X211.98Y-60.975
X211.98Y-80.025
X211.98Y-99.075
X211.98Y-118.125
X219.98Y-60.975
X219.98Y-80.025
X219.98Y-99.075
X219.98Y-118.125
T6
X83.67Y-108.08
X83.67Y-110.62
X83.67Y-113.16
X83.67Y-115.7
X83.67Y-118.24
X86.92Y-108.07
X86.92Y-110.61
X86.92Y-113.15
X86.92Y-115.69
X86.92Y-118.23
X90.24Y-108.07
X90.24Y-110.61
X90.24Y-113.15
X90.24Y-115.69
X90.24Y-118.23
X93.0Y-102.0
X93.0Y-107.0
X107.5Y-102.0
X107.5Y-104.5
X107.5Y-107.0
T8
X130.075Y-81.37
X149.125Y-62.32
X149.125Y-100.42
X168.175Y-81.37
T9
X85.649Y-101.0
X103.59Y-120.53
X105.14Y-90.59
X112.01Y-37.117
X129.44Y-59.51
X129.53Y-97.46
X206.275Y-100.025
X206.29Y-61.91
T6
X84.44Y-88.97G85X84.94Y-88.97
G05
X84.44Y-94.92G85X84.94Y-94.92
G05
X87.44Y-88.97G85X87.94Y-88.97
G05
X87.44Y-94.92G85X87.94Y-94.92
G05
X91.44Y-88.97G85X91.94Y-88.97
G05
X91.44Y-94.92G85X91.94Y-94.92
G05
X92.94Y-90.72G85X93.44Y-90.72
G05
X92.94Y-93.17G85X93.44Y-93.17
G05
T7
X100.65Y-98.9G85X99.35Y-98.9
G05
X100.65Y-110.1G85X99.35Y-110.1
G05
T0
M30
