G04 #@! TF.GenerationSoftware,KiCad,Pcbnew,7.0.5-0*
G04 #@! TF.CreationDate,2023-12-28T17:05:15-08:00*
G04 #@! TF.ProjectId,Sofle_Pico,536f666c-655f-4506-9963-6f2e6b696361,v3.5.3*
G04 #@! TF.SameCoordinates,Original*
G04 #@! TF.FileFunction,Profile,NP*
%FSLAX46Y46*%
G04 Gerber Fmt 4.6, Leading zero omitted, Abs format (unit mm)*
G04 Created by KiCad (PCBNEW 7.0.5-0) date 2023-12-28 17:05:15*
%MOMM*%
%LPD*%
G01*
G04 APERTURE LIST*
G04 #@! TA.AperFunction,Profile*
%ADD10C,0.100000*%
G04 #@! TD*
G04 #@! TA.AperFunction,Profile*
%ADD11C,0.150000*%
G04 #@! TD*
G04 #@! TA.AperFunction,Profile*
%ADD12C,0.120000*%
G04 #@! TD*
G04 APERTURE END LIST*
D10*
X92377684Y-149454622D02*
G75*
G03*
X94110118Y-150220429I1336516J681022D01*
G01*
D11*
X226824843Y-42874865D02*
X226824843Y-119074865D01*
D10*
X94110118Y-150220430D02*
X149124843Y-134724865D01*
X81403244Y-35475249D02*
X81403244Y-127530000D01*
X82903628Y-33974844D02*
G75*
G03*
X81403244Y-35475249I72J-1500456D01*
G01*
D11*
X226824901Y-42874865D02*
G75*
G03*
X225488686Y-41373864I-1511201J-35D01*
G01*
X187224843Y-134724865D02*
X225919106Y-120452127D01*
X149124843Y-134724865D02*
X187224843Y-134724865D01*
X168174843Y-33974865D02*
X225488686Y-41373864D01*
X225919094Y-120452099D02*
G75*
G03*
X226824843Y-119074865I-593994J1377099D01*
G01*
D10*
X81566732Y-128237683D02*
X92377724Y-149454601D01*
X168174843Y-33974865D02*
X82903628Y-33974865D01*
X81403249Y-127530000D02*
G75*
G03*
X81566733Y-128237683I1501751J-25800D01*
G01*
D12*
X118850000Y-46630000D02*
X122250000Y-46630000D01*
X122250000Y-46630000D02*
X122250000Y-43630000D01*
X122250000Y-43630000D02*
X118850000Y-43630000D01*
X118850000Y-43630000D02*
X118850000Y-46630000D01*
X156950000Y-41630000D02*
X160350000Y-41630000D01*
X160350000Y-41630000D02*
X160350000Y-38630000D01*
X160350000Y-38630000D02*
X156950000Y-38630000D01*
X156950000Y-38630000D02*
X156950000Y-41630000D01*
X118850000Y-84730000D02*
X122250000Y-84730000D01*
X122250000Y-84730000D02*
X122250000Y-81730000D01*
X122250000Y-81730000D02*
X118850000Y-81730000D01*
X118850000Y-81730000D02*
X118850000Y-84730000D01*
X137900000Y-82230000D02*
X141300000Y-82230000D01*
X141300000Y-82230000D02*
X141300000Y-79230000D01*
X141300000Y-79230000D02*
X137900000Y-79230000D01*
X137900000Y-79230000D02*
X137900000Y-82230000D01*
X156950000Y-98780000D02*
X160350000Y-98780000D01*
X160350000Y-98780000D02*
X160350000Y-95780000D01*
X160350000Y-95780000D02*
X156950000Y-95780000D01*
X156950000Y-95780000D02*
X156950000Y-98780000D01*
X195050000Y-106180000D02*
X198450000Y-106180000D01*
X198450000Y-106180000D02*
X198450000Y-103180000D01*
X198450000Y-103180000D02*
X195050000Y-103180000D01*
X195050000Y-103180000D02*
X195050000Y-106180000D01*
X99026654Y-130796150D02*
X100570222Y-133825572D01*
X100570222Y-133825572D02*
X103243241Y-132463601D01*
X103243241Y-132463601D02*
X101699673Y-129434179D01*
X101699673Y-129434179D02*
X99026654Y-130796150D01*
X115085706Y-125584822D02*
X118369854Y-124704838D01*
X118369854Y-124704838D02*
X117593397Y-121807060D01*
X117593397Y-121807060D02*
X114309249Y-122687045D01*
X114309249Y-122687045D02*
X115085706Y-125584822D01*
X214100000Y-68080000D02*
X217500000Y-68080000D01*
X217500000Y-68080000D02*
X217500000Y-65080000D01*
X217500000Y-65080000D02*
X214100000Y-65080000D01*
X214100000Y-65080000D02*
X214100000Y-68080000D01*
X214100000Y-87130000D02*
X217500000Y-87130000D01*
X217500000Y-87130000D02*
X217500000Y-84130000D01*
X217500000Y-84130000D02*
X214100000Y-84130000D01*
X214100000Y-84130000D02*
X214100000Y-87130000D01*
X214100000Y-106180000D02*
X217500000Y-106180000D01*
X217500000Y-106180000D02*
X217500000Y-103180000D01*
X217500000Y-103180000D02*
X214100000Y-103180000D01*
X214100000Y-103180000D02*
X214100000Y-106180000D01*
X176000000Y-44130000D02*
X179400000Y-44130000D01*
X179400000Y-44130000D02*
X179400000Y-41130000D01*
X179400000Y-41130000D02*
X176000000Y-41130000D01*
X176000000Y-41130000D02*
X176000000Y-44130000D01*
X195050000Y-49030000D02*
X198450000Y-49030000D01*
X198450000Y-49030000D02*
X198450000Y-46030000D01*
X198450000Y-46030000D02*
X195050000Y-46030000D01*
X195050000Y-46030000D02*
X195050000Y-49030000D01*
X137900000Y-63180000D02*
X141300000Y-63180000D01*
X141300000Y-63180000D02*
X141300000Y-60180000D01*
X141300000Y-60180000D02*
X137900000Y-60180000D01*
X137900000Y-60180000D02*
X137900000Y-63180000D01*
X176000000Y-63180000D02*
X179400000Y-63180000D01*
X179400000Y-63180000D02*
X179400000Y-60180000D01*
X179400000Y-60180000D02*
X176000000Y-60180000D01*
X176000000Y-60180000D02*
X176000000Y-63180000D01*
X156950000Y-60680000D02*
X160350000Y-60680000D01*
X160350000Y-60680000D02*
X160350000Y-57680000D01*
X160350000Y-57680000D02*
X156950000Y-57680000D01*
X156950000Y-57680000D02*
X156950000Y-60680000D01*
X176000000Y-82230000D02*
X179400000Y-82230000D01*
X179400000Y-82230000D02*
X179400000Y-79230000D01*
X179400000Y-79230000D02*
X176000000Y-79230000D01*
X176000000Y-79230000D02*
X176000000Y-82230000D01*
X214100000Y-49030000D02*
X217500000Y-49030000D01*
X217500000Y-49030000D02*
X217500000Y-46030000D01*
X217500000Y-46030000D02*
X214100000Y-46030000D01*
X214100000Y-46030000D02*
X214100000Y-49030000D01*
X118850000Y-65680000D02*
X122250000Y-65680000D01*
X122250000Y-65680000D02*
X122250000Y-62680000D01*
X122250000Y-62680000D02*
X118850000Y-62680000D01*
X118850000Y-62680000D02*
X118850000Y-65680000D01*
X176000000Y-120330000D02*
X179400000Y-120330000D01*
X179400000Y-120330000D02*
X179400000Y-117330000D01*
X179400000Y-117330000D02*
X176000000Y-117330000D01*
X176000000Y-117330000D02*
X176000000Y-120330000D01*
X195050000Y-68080000D02*
X198450000Y-68080000D01*
X198450000Y-68080000D02*
X198450000Y-65080000D01*
X198450000Y-65080000D02*
X195050000Y-65080000D01*
X195050000Y-65080000D02*
X195050000Y-68080000D01*
X176000000Y-101280000D02*
X179400000Y-101280000D01*
X179400000Y-101280000D02*
X179400000Y-98280000D01*
X179400000Y-98280000D02*
X176000000Y-98280000D01*
X176000000Y-98280000D02*
X176000000Y-101280000D01*
X195050000Y-87130000D02*
X198450000Y-87130000D01*
X198450000Y-87130000D02*
X198450000Y-84130000D01*
X198450000Y-84130000D02*
X195050000Y-84130000D01*
X195050000Y-84130000D02*
X195050000Y-87130000D01*
X156950000Y-117830000D02*
X160350000Y-117830000D01*
X160350000Y-117830000D02*
X160350000Y-114830000D01*
X160350000Y-114830000D02*
X156950000Y-114830000D01*
X156950000Y-114830000D02*
X156950000Y-117830000D01*
X156950000Y-79730000D02*
X160350000Y-79730000D01*
X160350000Y-79730000D02*
X160350000Y-76730000D01*
X160350000Y-76730000D02*
X156950000Y-76730000D01*
X156950000Y-76730000D02*
X156950000Y-79730000D01*
X137900000Y-44130000D02*
X141300000Y-44130000D01*
X141300000Y-44130000D02*
X141300000Y-41130000D01*
X141300000Y-41130000D02*
X137900000Y-41130000D01*
X137900000Y-41130000D02*
X137900000Y-44130000D01*
X137900000Y-101280000D02*
X141300000Y-101280000D01*
X141300000Y-101280000D02*
X141300000Y-98280000D01*
X141300000Y-98280000D02*
X137900000Y-98280000D01*
X137900000Y-98280000D02*
X137900000Y-101280000D01*
X137900000Y-120330000D02*
X141300000Y-120330000D01*
X141300000Y-120330000D02*
X141300000Y-117330000D01*
X141300000Y-117330000D02*
X137900000Y-117330000D01*
X137900000Y-117330000D02*
X137900000Y-120330000D01*
X118850000Y-103780000D02*
X122250000Y-103780000D01*
X122250000Y-103780000D02*
X122250000Y-100780000D01*
X122250000Y-100780000D02*
X118850000Y-100780000D01*
X118850000Y-100780000D02*
X118850000Y-103780000D01*
M02*
