G04 #@! TF.GenerationSoftware,KiCad,Pcbnew,(7.0.0-0)*
G04 #@! TF.CreationDate,2023-05-29T15:21:27-07:00*
G04 #@! TF.ProjectId,sofel_v3b,736f6665-6c5f-4763-9362-2e6b69636164,rev?*
G04 #@! TF.SameCoordinates,Original*
G04 #@! TF.FileFunction,Profile,NP*
%FSLAX46Y46*%
G04 Gerber Fmt 4.6, Leading zero omitted, Abs format (unit mm)*
G04 Created by KiCad (PCBNEW (7.0.0-0)) date 2023-05-29 15:21:27*
%MOMM*%
%LPD*%
G01*
G04 APERTURE LIST*
G04 #@! TA.AperFunction,Profile*
%ADD10C,0.100000*%
G04 #@! TD*
G04 #@! TA.AperFunction,Profile*
%ADD11C,0.150000*%
G04 #@! TD*
G04 APERTURE END LIST*
D10*
X92377684Y-149454622D02*
G75*
G03*
X94110118Y-150220429I1336516J681022D01*
G01*
D11*
X226824843Y-42874865D02*
X226824843Y-119074865D01*
D10*
X94110118Y-150220430D02*
X149124843Y-134724865D01*
X81403244Y-35475249D02*
X81403244Y-127530000D01*
X82903628Y-33974844D02*
G75*
G03*
X81403244Y-35475249I72J-1500456D01*
G01*
D11*
X226824901Y-42874865D02*
G75*
G03*
X225488686Y-41373864I-1511201J-35D01*
G01*
X187224843Y-134724865D02*
X225919106Y-120452127D01*
X149124843Y-134724865D02*
X187224843Y-134724865D01*
X168174843Y-33974865D02*
X225488686Y-41373864D01*
X225919094Y-120452099D02*
G75*
G03*
X226824843Y-119074865I-593994J1377099D01*
G01*
D10*
X81566732Y-128237683D02*
X92377724Y-149454601D01*
X168174843Y-33974865D02*
X82903628Y-33974865D01*
X81403426Y-127530003D02*
G75*
G03*
X81566733Y-128237683I1500174J-26497D01*
G01*
X118850000Y-43570000D02*
X118850000Y-46570000D01*
X122250000Y-46570000D02*
X118850000Y-46570000D01*
X122250000Y-46570000D02*
X122250000Y-43570000D01*
X122250000Y-43570000D02*
X118850000Y-43570000D01*
X156950000Y-38570000D02*
X156950000Y-41570000D01*
X160350000Y-41570000D02*
X156950000Y-41570000D01*
X160350000Y-41570000D02*
X160350000Y-38570000D01*
X160350000Y-38570000D02*
X156950000Y-38570000D01*
X118850000Y-81670000D02*
X118850000Y-84670000D01*
X122250000Y-84670000D02*
X118850000Y-84670000D01*
X122250000Y-84670000D02*
X122250000Y-81670000D01*
X122250000Y-81670000D02*
X118850000Y-81670000D01*
X137900000Y-79170000D02*
X137900000Y-82170000D01*
X141300000Y-82170000D02*
X137900000Y-82170000D01*
X141300000Y-82170000D02*
X141300000Y-79170000D01*
X141300000Y-79170000D02*
X137900000Y-79170000D01*
X156950000Y-95720000D02*
X156950000Y-98720000D01*
X160350000Y-98720000D02*
X156950000Y-98720000D01*
X160350000Y-98720000D02*
X160350000Y-95720000D01*
X160350000Y-95720000D02*
X156950000Y-95720000D01*
X195050000Y-103120000D02*
X195050000Y-106120000D01*
X198450000Y-106120000D02*
X195050000Y-106120000D01*
X198450000Y-106120000D02*
X198450000Y-103120000D01*
X198450000Y-103120000D02*
X195050000Y-103120000D01*
X101753134Y-129406939D02*
X99080115Y-130768910D01*
X100623682Y-133798333D02*
X99080115Y-130768910D01*
X100623682Y-133798333D02*
X103296702Y-132436361D01*
X103296702Y-132436361D02*
X101753134Y-129406939D01*
X117577867Y-121749105D02*
X114293720Y-122629089D01*
X118354325Y-124646882D02*
X117577867Y-121749105D01*
X118354325Y-124646882D02*
X115070177Y-125526867D01*
X114293720Y-122629089D02*
X115070177Y-125526867D01*
X214100000Y-65020000D02*
X214100000Y-68020000D01*
X217500000Y-68020000D02*
X214100000Y-68020000D01*
X217500000Y-68020000D02*
X217500000Y-65020000D01*
X217500000Y-65020000D02*
X214100000Y-65020000D01*
X214100000Y-84070000D02*
X214100000Y-87070000D01*
X217500000Y-87070000D02*
X214100000Y-87070000D01*
X217500000Y-87070000D02*
X217500000Y-84070000D01*
X217500000Y-84070000D02*
X214100000Y-84070000D01*
X214100000Y-103120000D02*
X214100000Y-106120000D01*
X217500000Y-106120000D02*
X214100000Y-106120000D01*
X217500000Y-106120000D02*
X217500000Y-103120000D01*
X217500000Y-103120000D02*
X214100000Y-103120000D01*
X176000000Y-41070000D02*
X176000000Y-44070000D01*
X179400000Y-44070000D02*
X176000000Y-44070000D01*
X179400000Y-44070000D02*
X179400000Y-41070000D01*
X179400000Y-41070000D02*
X176000000Y-41070000D01*
X195050000Y-45970000D02*
X195050000Y-48970000D01*
X198450000Y-48970000D02*
X195050000Y-48970000D01*
X198450000Y-48970000D02*
X198450000Y-45970000D01*
X198450000Y-45970000D02*
X195050000Y-45970000D01*
X137900000Y-60120000D02*
X137900000Y-63120000D01*
X141300000Y-63120000D02*
X137900000Y-63120000D01*
X141300000Y-63120000D02*
X141300000Y-60120000D01*
X141300000Y-60120000D02*
X137900000Y-60120000D01*
X176000000Y-60120000D02*
X176000000Y-63120000D01*
X179400000Y-63120000D02*
X176000000Y-63120000D01*
X179400000Y-63120000D02*
X179400000Y-60120000D01*
X179400000Y-60120000D02*
X176000000Y-60120000D01*
X156950000Y-57620000D02*
X156950000Y-60620000D01*
X160350000Y-60620000D02*
X156950000Y-60620000D01*
X160350000Y-60620000D02*
X160350000Y-57620000D01*
X160350000Y-57620000D02*
X156950000Y-57620000D01*
X176000000Y-79170000D02*
X176000000Y-82170000D01*
X179400000Y-82170000D02*
X176000000Y-82170000D01*
X179400000Y-82170000D02*
X179400000Y-79170000D01*
X179400000Y-79170000D02*
X176000000Y-79170000D01*
X214100000Y-45970000D02*
X214100000Y-48970000D01*
X217500000Y-48970000D02*
X214100000Y-48970000D01*
X217500000Y-48970000D02*
X217500000Y-45970000D01*
X217500000Y-45970000D02*
X214100000Y-45970000D01*
X118850000Y-62620000D02*
X118850000Y-65620000D01*
X122250000Y-65620000D02*
X118850000Y-65620000D01*
X122250000Y-65620000D02*
X122250000Y-62620000D01*
X122250000Y-62620000D02*
X118850000Y-62620000D01*
X176000000Y-117270000D02*
X176000000Y-120270000D01*
X179400000Y-120270000D02*
X176000000Y-120270000D01*
X179400000Y-120270000D02*
X179400000Y-117270000D01*
X179400000Y-117270000D02*
X176000000Y-117270000D01*
X195050000Y-65020000D02*
X195050000Y-68020000D01*
X198450000Y-68020000D02*
X195050000Y-68020000D01*
X198450000Y-68020000D02*
X198450000Y-65020000D01*
X198450000Y-65020000D02*
X195050000Y-65020000D01*
X176000000Y-98220000D02*
X176000000Y-101220000D01*
X179400000Y-101220000D02*
X176000000Y-101220000D01*
X179400000Y-101220000D02*
X179400000Y-98220000D01*
X179400000Y-98220000D02*
X176000000Y-98220000D01*
X195050000Y-84070000D02*
X195050000Y-87070000D01*
X198450000Y-87070000D02*
X195050000Y-87070000D01*
X198450000Y-87070000D02*
X198450000Y-84070000D01*
X198450000Y-84070000D02*
X195050000Y-84070000D01*
X156950000Y-114770000D02*
X156950000Y-117770000D01*
X160350000Y-117770000D02*
X156950000Y-117770000D01*
X160350000Y-117770000D02*
X160350000Y-114770000D01*
X160350000Y-114770000D02*
X156950000Y-114770000D01*
X156950000Y-76670000D02*
X156950000Y-79670000D01*
X160350000Y-79670000D02*
X156950000Y-79670000D01*
X160350000Y-79670000D02*
X160350000Y-76670000D01*
X160350000Y-76670000D02*
X156950000Y-76670000D01*
X137900000Y-41070000D02*
X137900000Y-44070000D01*
X141300000Y-44070000D02*
X137900000Y-44070000D01*
X141300000Y-44070000D02*
X141300000Y-41070000D01*
X141300000Y-41070000D02*
X137900000Y-41070000D01*
X137900000Y-98220000D02*
X137900000Y-101220000D01*
X141300000Y-101220000D02*
X137900000Y-101220000D01*
X141300000Y-101220000D02*
X141300000Y-98220000D01*
X141300000Y-98220000D02*
X137900000Y-98220000D01*
X137900000Y-117270000D02*
X137900000Y-120270000D01*
X141300000Y-120270000D02*
X137900000Y-120270000D01*
X141300000Y-120270000D02*
X141300000Y-117270000D01*
X141300000Y-117270000D02*
X137900000Y-117270000D01*
X118850000Y-100720000D02*
X118850000Y-103720000D01*
X122250000Y-103720000D02*
X118850000Y-103720000D01*
X122250000Y-103720000D02*
X122250000Y-100720000D01*
X122250000Y-100720000D02*
X118850000Y-100720000D01*
M02*
