M48
; DRILL file {KiCad (7.0.0-0)} date Monday, May 29, 2023 at 03:05:22 PM
; FORMAT={-:-/ absolute / metric / decimal}
; #@! TF.CreationDate,2023-05-29T15:05:22-07:00
; #@! TF.GenerationSoftware,Kicad,Pcbnew,(7.0.0-0)
; #@! TF.FileFunction,NonPlated,1,2,NPTH
FMAT,2
METRIC
; #@! TA.AperFunction,NonPlated,NPTH,ComponentDrill
T1C1.200
; #@! TA.AperFunction,NonPlated,NPTH,ComponentDrill
T2C1.500
; #@! TA.AperFunction,NonPlated,NPTH,ComponentDrill
T3C1.750
; #@! TA.AperFunction,NonPlated,NPTH,ComponentDrill
T4C3.000
; #@! TA.AperFunction,NonPlated,NPTH,ComponentDrill
T5C3.988
; #@! TA.AperFunction,NonPlated,NPTH,ComponentDrill
T6C4.000
%
G90
G05
T1
X82.89Y-91.07
X82.89Y-92.82
X89.89Y-91.07
X89.89Y-92.82
T2
X99.852Y-132.283
X102.525Y-130.922
X115.936Y-122.189
X116.712Y-125.087
X120.55Y-43.57
X120.55Y-46.57
X120.55Y-62.62
X120.55Y-65.62
X120.55Y-81.67
X120.55Y-84.67
X120.55Y-100.72
X120.55Y-103.72
X139.6Y-41.07
X139.6Y-44.07
X139.6Y-60.12
X139.6Y-63.12
X139.6Y-79.17
X139.6Y-82.17
X139.6Y-98.22
X139.6Y-101.22
X139.6Y-117.27
X139.6Y-120.27
X158.65Y-38.57
X158.65Y-41.57
X158.65Y-57.62
X158.65Y-60.62
X158.65Y-76.67
X158.65Y-79.67
X158.65Y-95.72
X158.65Y-98.72
X158.65Y-114.77
X158.65Y-117.77
X177.7Y-41.07
X177.7Y-44.07
X177.7Y-60.12
X177.7Y-63.12
X177.7Y-79.17
X177.7Y-82.17
X177.7Y-98.22
X177.7Y-101.22
X177.7Y-117.27
X177.7Y-120.27
X196.75Y-45.97
X196.75Y-48.97
X196.75Y-65.02
X196.75Y-68.02
X196.75Y-84.07
X196.75Y-87.07
X196.75Y-103.12
X196.75Y-106.12
X215.8Y-45.97
X215.8Y-48.97
X215.8Y-65.02
X215.8Y-68.02
X215.8Y-84.07
X215.8Y-87.07
X215.8Y-103.12
X215.8Y-106.12
T3
X94.489Y-129.314
X94.489Y-129.314
X99.102Y-138.367
X99.102Y-138.367
X112.693Y-129.715
X112.693Y-129.715
X115.47Y-50.0
X115.47Y-50.0
X115.47Y-69.05
X115.47Y-69.05
X115.47Y-88.1
X115.47Y-88.1
X115.47Y-107.15
X115.47Y-107.15
X122.507Y-127.085
X122.507Y-127.085
X125.63Y-50.0
X125.63Y-50.0
X125.63Y-69.05
X125.63Y-69.05
X125.63Y-88.1
X125.63Y-88.1
X125.63Y-107.15
X125.63Y-107.15
X134.52Y-47.5
X134.52Y-47.5
X134.52Y-66.55
X134.52Y-66.55
X134.52Y-85.6
X134.52Y-85.6
X134.52Y-104.65
X134.52Y-104.65
X134.52Y-123.7
X134.52Y-123.7
X144.68Y-47.5
X144.68Y-47.5
X144.68Y-66.55
X144.68Y-66.55
X144.68Y-85.6
X144.68Y-85.6
X144.68Y-104.65
X144.68Y-104.65
X144.68Y-123.7
X144.68Y-123.7
X153.57Y-45.0
X153.57Y-45.0
X153.57Y-64.05
X153.57Y-64.05
X153.57Y-83.1
X153.57Y-83.1
X153.57Y-102.15
X153.57Y-102.15
X153.57Y-121.2
X153.57Y-121.2
X163.73Y-45.0
X163.73Y-45.0
X163.73Y-64.05
X163.73Y-64.05
X163.73Y-83.1
X163.73Y-83.1
X163.73Y-102.15
X163.73Y-102.15
X163.73Y-121.2
X163.73Y-121.2
X172.62Y-47.5
X172.62Y-47.5
X172.62Y-66.55
X172.62Y-66.55
X172.62Y-85.6
X172.62Y-85.6
X172.62Y-104.65
X172.62Y-104.65
X172.62Y-123.7
X172.62Y-123.7
X182.78Y-47.5
X182.78Y-47.5
X182.78Y-66.55
X182.78Y-66.55
X182.78Y-85.6
X182.78Y-85.6
X182.78Y-104.65
X182.78Y-104.65
X182.78Y-123.7
X182.78Y-123.7
X191.67Y-52.4
X191.67Y-52.4
X191.67Y-71.45
X191.67Y-71.45
X191.67Y-90.5
X191.67Y-90.5
X191.67Y-109.55
X191.67Y-109.55
X201.83Y-52.4
X201.83Y-52.4
X201.83Y-71.45
X201.83Y-71.45
X201.83Y-90.5
X201.83Y-90.5
X201.83Y-109.55
X201.83Y-109.55
X210.72Y-52.4
X210.72Y-52.4
X210.72Y-71.45
X210.72Y-71.45
X210.72Y-90.5
X210.72Y-90.5
X210.72Y-109.55
X210.72Y-109.55
X220.88Y-52.4
X220.88Y-52.4
X220.88Y-71.45
X220.88Y-71.45
X220.88Y-90.5
X220.88Y-90.5
X220.88Y-109.55
X220.88Y-109.55
T4
X91.116Y-133.884
X92.803Y-131.599
X93.423Y-138.41
X96.262Y-138.389
X114.577Y-131.84
X116.461Y-133.964
X116.74Y-52.54
X116.74Y-71.59
X116.74Y-90.64
X116.74Y-109.69
X118.01Y-55.08
X118.01Y-74.13
X118.01Y-93.18
X118.01Y-112.23
X121.368Y-132.65
X121.938Y-129.867
X123.09Y-55.08
X123.09Y-74.13
X123.09Y-93.18
X123.09Y-112.23
X124.36Y-52.54
X124.36Y-71.59
X124.36Y-90.64
X124.36Y-109.69
X135.79Y-50.04
X135.79Y-69.09
X135.79Y-88.14
X135.79Y-107.19
X135.79Y-126.24
X137.06Y-52.58
X137.06Y-71.63
X137.06Y-90.68
X137.06Y-109.73
X137.06Y-128.78
X142.14Y-52.58
X142.14Y-71.63
X142.14Y-90.68
X142.14Y-109.73
X142.14Y-128.78
X143.41Y-50.04
X143.41Y-69.09
X143.41Y-88.14
X143.41Y-107.19
X143.41Y-126.24
X154.84Y-47.54
X154.84Y-66.59
X154.84Y-85.64
X154.84Y-104.69
X154.84Y-123.74
X156.11Y-50.08
X156.11Y-69.13
X156.11Y-88.18
X156.11Y-107.23
X156.11Y-126.28
X161.19Y-50.08
X161.19Y-69.13
X161.19Y-88.18
X161.19Y-107.23
X161.19Y-126.28
X162.46Y-47.54
X162.46Y-66.59
X162.46Y-85.64
X162.46Y-104.69
X162.46Y-123.74
X173.89Y-50.04
X173.89Y-69.09
X173.89Y-88.14
X173.89Y-107.19
X173.89Y-126.24
X175.16Y-52.58
X175.16Y-71.63
X175.16Y-90.68
X175.16Y-109.73
X175.16Y-128.78
X180.24Y-52.58
X180.24Y-71.63
X180.24Y-90.68
X180.24Y-109.73
X180.24Y-128.78
X181.51Y-50.04
X181.51Y-69.09
X181.51Y-88.14
X181.51Y-107.19
X181.51Y-126.24
X192.94Y-54.94
X192.94Y-73.99
X192.94Y-93.04
X192.94Y-112.09
X194.21Y-57.48
X194.21Y-76.53
X194.21Y-95.58
X194.21Y-114.63
X199.29Y-57.48
X199.29Y-76.53
X199.29Y-95.58
X199.29Y-114.63
X200.56Y-54.94
X200.56Y-73.99
X200.56Y-93.04
X200.56Y-112.09
X211.99Y-54.94
X211.99Y-73.99
X211.99Y-93.04
X211.99Y-112.09
X213.26Y-57.48
X213.26Y-76.53
X213.26Y-95.58
X213.26Y-114.63
X218.34Y-57.48
X218.34Y-76.53
X218.34Y-95.58
X218.34Y-114.63
X219.61Y-54.94
X219.61Y-73.99
X219.61Y-93.04
X219.61Y-112.09
T5
X96.796Y-133.841
X96.796Y-133.841
X117.6Y-128.4
X117.6Y-128.4
X120.55Y-50.0
X120.55Y-50.0
X120.55Y-69.05
X120.55Y-69.05
X120.55Y-88.1
X120.55Y-88.1
X120.55Y-107.15
X120.55Y-107.15
X139.6Y-47.5
X139.6Y-47.5
X139.6Y-66.55
X139.6Y-66.55
X139.6Y-85.6
X139.6Y-85.6
X139.6Y-104.65
X139.6Y-104.65
X139.6Y-123.7
X139.6Y-123.7
X158.65Y-45.0
X158.65Y-45.0
X158.65Y-64.05
X158.65Y-64.05
X158.65Y-83.1
X158.65Y-83.1
X158.65Y-102.15
X158.65Y-102.15
X158.65Y-121.2
X158.65Y-121.2
X177.7Y-47.5
X177.7Y-47.5
X177.7Y-66.55
X177.7Y-66.55
X177.7Y-85.6
X177.7Y-85.6
X177.7Y-104.65
X177.7Y-104.65
X177.7Y-123.7
X177.7Y-123.7
X196.75Y-52.4
X196.75Y-52.4
X196.75Y-71.45
X196.75Y-71.45
X196.75Y-90.5
X196.75Y-90.5
X196.75Y-109.55
X196.75Y-109.55
X215.8Y-52.4
X215.8Y-52.4
X215.8Y-71.45
X215.8Y-71.45
X215.8Y-90.5
X215.8Y-90.5
X215.8Y-109.55
X215.8Y-109.55
T6
X100.203Y-46.685G85X92.203Y-46.685
G05
X100.203Y-54.305G85X92.203Y-54.305
G05
X100.203Y-77.165G85X92.203Y-77.165
G05
T0
M30
