G04 #@! TF.GenerationSoftware,KiCad,Pcbnew,(7.0.0-0)*
G04 #@! TF.CreationDate,2023-05-29T15:05:20-07:00*
G04 #@! TF.ProjectId,sofel_v3b,736f6665-6c5f-4763-9362-2e6b69636164,rev?*
G04 #@! TF.SameCoordinates,Original*
G04 #@! TF.FileFunction,Soldermask,Top*
G04 #@! TF.FilePolarity,Negative*
%FSLAX46Y46*%
G04 Gerber Fmt 4.6, Leading zero omitted, Abs format (unit mm)*
G04 Created by KiCad (PCBNEW (7.0.0-0)) date 2023-05-29 15:05:20*
%MOMM*%
%LPD*%
G01*
G04 APERTURE LIST*
G04 Aperture macros list*
%AMRoundRect*
0 Rectangle with rounded corners*
0 $1 Rounding radius*
0 $2 $3 $4 $5 $6 $7 $8 $9 X,Y pos of 4 corners*
0 Add a 4 corners polygon primitive as box body*
4,1,4,$2,$3,$4,$5,$6,$7,$8,$9,$2,$3,0*
0 Add four circle primitives for the rounded corners*
1,1,$1+$1,$2,$3*
1,1,$1+$1,$4,$5*
1,1,$1+$1,$6,$7*
1,1,$1+$1,$8,$9*
0 Add four rect primitives between the rounded corners*
20,1,$1+$1,$2,$3,$4,$5,0*
20,1,$1+$1,$4,$5,$6,$7,0*
20,1,$1+$1,$6,$7,$8,$9,0*
20,1,$1+$1,$8,$9,$2,$3,0*%
%AMRotRect*
0 Rectangle, with rotation*
0 The origin of the aperture is its center*
0 $1 length*
0 $2 width*
0 $3 Rotation angle, in degrees counterclockwise*
0 Add horizontal line*
21,1,$1,$2,0,0,$3*%
%AMFreePoly0*
4,1,28,-0.850000,0.400000,-0.842219,0.514750,-0.797860,0.693119,-0.716195,0.857783,-0.601041,1.001041,-0.457783,1.116195,-0.293119,1.197860,-0.114750,1.242219,0.000000,1.250000,0.850000,0.400000,0.850000,-0.400000,0.842219,-0.514750,0.797860,-0.693119,0.716195,-0.857783,0.601041,-1.001041,0.457783,-1.116195,0.293119,-1.197860,0.114750,-1.242219,0.000000,-1.250000,-0.114750,-1.242219,
-0.293119,-1.197860,-0.457783,-1.116195,-0.601041,-1.001041,-0.716195,-0.857783,-0.797860,-0.693119,-0.842219,-0.514750,-0.850000,-0.400000,-0.850000,0.400000,-0.850000,0.400000,$1*%
%AMFreePoly1*
4,1,28,-0.850000,0.400000,-0.842219,0.514750,-0.797860,0.693119,-0.716195,0.857783,-0.601041,1.001041,-0.457783,1.116195,-0.293119,1.197860,-0.114750,1.242219,0.000000,1.250000,0.114750,1.242219,0.293119,1.197860,0.457783,1.116195,0.601041,1.001041,0.716195,0.857783,0.797860,0.693119,0.842219,0.514750,0.850000,0.400000,0.850000,-0.400000,0.000000,-1.250000,-0.114750,-1.242219,
-0.293119,-1.197860,-0.457783,-1.116195,-0.601041,-1.001041,-0.716195,-0.857783,-0.797860,-0.693119,-0.842219,-0.514750,-0.850000,-0.400000,-0.850000,0.400000,-0.850000,0.400000,$1*%
%AMFreePoly2*
4,1,18,-0.744993,0.210051,-0.729004,0.290434,-0.683470,0.358580,-0.615324,0.404114,-0.534941,0.420103,0.324890,0.420103,0.744993,0.000000,0.744993,-0.210051,0.729004,-0.290434,0.683470,-0.358580,0.615324,-0.404114,0.534941,-0.420103,-0.534941,-0.420103,-0.615324,-0.404114,-0.683470,-0.358580,-0.729004,-0.290434,-0.744993,-0.210051,-0.744993,0.210051,-0.744993,0.210051,$1*%
%AMFreePoly3*
4,1,13,-0.915000,0.425000,0.702500,0.425000,0.783820,0.408824,0.852760,0.362760,0.898824,0.293820,0.915000,0.212500,0.915000,-0.212500,0.898824,-0.293820,0.852760,-0.362760,0.783820,-0.408824,0.702500,-0.425000,-0.915000,-0.425000,-0.915000,0.425000,-0.915000,0.425000,$1*%
%AMFreePoly4*
4,1,13,-0.909999,0.425000,0.697499,0.425000,0.778819,0.408824,0.847759,0.362760,0.893823,0.293820,0.909999,0.212500,0.909999,-0.212500,0.893823,-0.293820,0.847759,-0.362760,0.778819,-0.408824,0.697499,-0.425000,-0.909999,-0.425000,-0.909999,0.425000,-0.909999,0.425000,$1*%
%AMFreePoly5*
4,1,18,-1.275000,1.008000,-1.255818,1.104436,-1.201191,1.186191,-1.119436,1.240818,-1.023000,1.260000,1.023000,1.260000,1.119436,1.240818,1.201191,1.186191,1.255818,1.104436,1.275000,1.008000,1.275000,-0.630000,0.645000,-1.260000,-1.023000,-1.260000,-1.119436,-1.240818,-1.201191,-1.186191,-1.255818,-1.104436,-1.275000,-1.008000,-1.275000,1.008000,-1.275000,1.008000,$1*%
%AMFreePoly6*
4,1,17,-1.275000,1.260000,1.023000,1.260000,1.119436,1.240818,1.201191,1.186191,1.255818,1.104436,1.275000,1.008000,1.275000,-1.008000,1.255818,-1.104436,1.201191,-1.186191,1.119436,-1.240818,1.023000,-1.260000,-1.023000,-1.260000,-1.119436,-1.240818,-1.201191,-1.186191,-1.255818,-1.104436,-1.275000,-1.008000,-1.275000,1.260000,-1.275000,1.260000,$1*%
%AMFreePoly7*
4,1,21,-1.000000,0.000000,-0.988920,0.140791,-0.940222,0.322531,-0.854804,0.490175,-0.736396,0.636396,-0.590175,0.754804,-0.422531,0.840222,-0.240791,0.888920,-0.100000,0.900000,1.000000,0.900000,1.000000,-0.900000,-0.100000,-0.900000,-0.240791,-0.888920,-0.422531,-0.840222,-0.590175,-0.754804,-0.736396,-0.636396,-0.854804,-0.490175,-0.940222,-0.322531,-0.988920,-0.140791,-1.000000,0.000000,
-1.000000,0.000000,-1.000000,0.000000,$1*%
%AMFreePoly8*
4,1,20,-1.000000,0.900000,0.100000,0.900000,0.240791,0.888920,0.422531,0.840222,0.590175,0.754804,0.736396,0.636396,0.854804,0.490175,0.940222,0.322531,0.988920,0.140791,1.000000,0.000000,0.988920,-0.140791,0.940222,-0.322531,0.854804,-0.490175,0.736396,-0.636396,0.590175,-0.754804,0.422531,-0.840222,0.240791,-0.888920,0.100000,-0.900000,-1.000000,-0.900000,-1.000000,0.900000,
-1.000000,0.900000,$1*%
G04 Aperture macros list end*
%ADD10C,1.200000*%
%ADD11FreePoly0,90.000000*%
%ADD12FreePoly1,90.000000*%
%ADD13O,2.500000X1.700000*%
%ADD14C,1.750000*%
%ADD15C,3.000000*%
%ADD16FreePoly2,0.000000*%
%ADD17FreePoly3,0.000000*%
%ADD18R,1.379987X0.840206*%
%ADD19C,3.987800*%
%ADD20C,1.500000*%
%ADD21FreePoly3,180.000000*%
%ADD22FreePoly4,180.000000*%
%ADD23FreePoly5,180.000000*%
%ADD24FreePoly6,180.000000*%
%ADD25FreePoly2,297.000000*%
%ADD26FreePoly3,297.000000*%
%ADD27RotRect,1.379987X0.840206X297.000000*%
%ADD28FreePoly3,117.000000*%
%ADD29FreePoly4,117.000000*%
%ADD30FreePoly5,117.000000*%
%ADD31FreePoly6,117.000000*%
%ADD32C,1.397000*%
%ADD33C,2.000000*%
%ADD34R,3.200000X2.000000*%
%ADD35FreePoly2,15.000000*%
%ADD36FreePoly3,15.000000*%
%ADD37RotRect,1.379987X0.840206X15.000000*%
%ADD38FreePoly3,195.000000*%
%ADD39FreePoly4,195.000000*%
%ADD40FreePoly5,195.000000*%
%ADD41FreePoly6,195.000000*%
%ADD42C,4.700000*%
%ADD43R,1.700000X1.700000*%
%ADD44O,1.700000X1.700000*%
%ADD45FreePoly7,180.000000*%
%ADD46FreePoly8,180.000000*%
%ADD47C,4.400000*%
%ADD48R,1.100000X0.600000*%
%ADD49R,1.400000X1.400000*%
%ADD50RoundRect,0.300000X-0.400000X-0.300000X0.400000X-0.300000X0.400000X0.300000X-0.400000X0.300000X0*%
%ADD51C,1.400000*%
%ADD52RotRect,1.400000X1.400000X27.000000*%
%ADD53RoundRect,0.300000X-0.220205X-0.448898X0.492600X-0.085706X0.220205X0.448898X-0.492600X0.085706X0*%
%ADD54RotRect,1.400000X1.400000X15.000000*%
%ADD55RoundRect,0.300000X-0.308725X-0.393305X0.464016X-0.186250X0.308725X0.393305X-0.464016X0.186250X0*%
%ADD56RoundRect,0.300000X0.300000X-0.400000X0.300000X0.400000X-0.300000X0.400000X-0.300000X-0.400000X0*%
%ADD57O,12.000000X4.000000*%
%ADD58R,1.500000X1.500000*%
%ADD59R,1.500000X1.700000*%
G04 APERTURE END LIST*
D10*
X82890000Y-92820000D03*
X89890000Y-92820000D03*
X82890000Y-91070000D03*
X89890000Y-91070000D03*
D11*
X93189999Y-90719999D03*
D12*
X91689999Y-94919999D03*
D13*
X87689999Y-94919999D03*
X84689999Y-94919999D03*
D14*
X125630000Y-50000000D03*
X125630000Y-50000000D03*
D15*
X124360000Y-52540000D03*
D16*
X123404986Y-44149999D03*
D17*
X123234999Y-45904999D03*
D15*
X123090000Y-55080000D03*
D18*
X123019999Y-44149999D03*
D19*
X120550000Y-50000000D03*
X120550000Y-50000000D03*
D20*
X120550000Y-46569730D03*
X120550000Y-43570000D03*
D15*
X118010000Y-55080000D03*
D21*
X117865000Y-44144999D03*
D22*
X117860000Y-45904999D03*
D15*
X116740000Y-52540000D03*
D14*
X115470000Y-50000000D03*
X115470000Y-50000000D03*
D23*
X126391999Y-55069999D03*
D24*
X113464999Y-52549999D03*
D14*
X163730000Y-45000000D03*
X163730000Y-45000000D03*
D15*
X162460000Y-47540000D03*
D16*
X161504986Y-39149999D03*
D17*
X161334999Y-40904999D03*
D15*
X161190000Y-50080000D03*
D18*
X161119999Y-39149999D03*
D19*
X158650000Y-45000000D03*
X158650000Y-45000000D03*
D20*
X158650000Y-41569730D03*
X158650000Y-38570000D03*
D15*
X156110000Y-50080000D03*
D21*
X155965000Y-39144999D03*
D22*
X155960000Y-40904999D03*
D15*
X154840000Y-47540000D03*
D14*
X153570000Y-45000000D03*
X153570000Y-45000000D03*
D23*
X164491999Y-50069999D03*
D24*
X151564999Y-47549999D03*
D14*
X125630000Y-88100000D03*
X125630000Y-88100000D03*
D15*
X124360000Y-90640000D03*
D16*
X123404986Y-82249999D03*
D17*
X123234999Y-84004999D03*
D15*
X123090000Y-93180000D03*
D18*
X123019999Y-82249999D03*
D19*
X120550000Y-88100000D03*
X120550000Y-88100000D03*
D20*
X120550000Y-84669730D03*
X120550000Y-81670000D03*
D15*
X118010000Y-93180000D03*
D21*
X117865000Y-82244999D03*
D22*
X117860000Y-84004999D03*
D15*
X116740000Y-90640000D03*
D14*
X115470000Y-88100000D03*
X115470000Y-88100000D03*
D23*
X126391999Y-93169999D03*
D24*
X113464999Y-90649999D03*
D14*
X144680000Y-85600000D03*
X144680000Y-85600000D03*
D15*
X143410000Y-88140000D03*
D16*
X142454986Y-79749999D03*
D17*
X142284999Y-81504999D03*
D15*
X142140000Y-90680000D03*
D18*
X142069999Y-79749999D03*
D19*
X139600000Y-85600000D03*
X139600000Y-85600000D03*
D20*
X139600000Y-82169730D03*
X139600000Y-79170000D03*
D15*
X137060000Y-90680000D03*
D21*
X136915000Y-79744999D03*
D22*
X136910000Y-81504999D03*
D15*
X135790000Y-88140000D03*
D14*
X134520000Y-85600000D03*
X134520000Y-85600000D03*
D23*
X145441999Y-90669999D03*
D24*
X132514999Y-88149999D03*
D14*
X163730000Y-102150000D03*
X163730000Y-102150000D03*
D15*
X162460000Y-104690000D03*
D16*
X161504986Y-96299999D03*
D17*
X161334999Y-98054999D03*
D15*
X161190000Y-107230000D03*
D18*
X161119999Y-96299999D03*
D19*
X158650000Y-102150000D03*
X158650000Y-102150000D03*
D20*
X158650000Y-98719730D03*
X158650000Y-95720000D03*
D15*
X156110000Y-107230000D03*
D21*
X155965000Y-96294999D03*
D22*
X155960000Y-98054999D03*
D15*
X154840000Y-104690000D03*
D14*
X153570000Y-102150000D03*
X153570000Y-102150000D03*
D23*
X164491999Y-107219999D03*
D24*
X151564999Y-104699999D03*
D14*
X201830000Y-109550000D03*
X201830000Y-109550000D03*
D15*
X200560000Y-112090000D03*
D16*
X199604986Y-103699999D03*
D17*
X199434999Y-105454999D03*
D15*
X199290000Y-114630000D03*
D18*
X199219999Y-103699999D03*
D19*
X196750000Y-109550000D03*
X196750000Y-109550000D03*
D20*
X196750000Y-106119730D03*
X196750000Y-103120000D03*
D15*
X194210000Y-114630000D03*
D21*
X194065000Y-103694999D03*
D22*
X194060000Y-105454999D03*
D15*
X192940000Y-112090000D03*
D14*
X191670000Y-109550000D03*
X191670000Y-109550000D03*
D23*
X202591999Y-114619999D03*
D24*
X189664999Y-112099999D03*
D14*
X99102018Y-138367122D03*
X99102018Y-138367122D03*
D15*
X96262293Y-138388680D03*
D25*
X103304270Y-133728776D03*
D26*
X101663381Y-134374069D03*
D15*
X93422569Y-138410237D03*
D27*
X103129490Y-133385750D03*
D19*
X96795746Y-133840809D03*
X96795746Y-133840809D03*
D20*
X99852139Y-132283499D03*
X102524918Y-130921650D03*
D15*
X91116297Y-133883924D03*
D28*
X100793624Y-128790342D03*
D29*
X99223183Y-129584910D03*
D15*
X92802886Y-131599210D03*
D14*
X94489474Y-129314496D03*
X94489474Y-129314496D03*
D30*
X94930554Y-141347800D03*
D31*
X91307156Y-128685703D03*
D32*
X83607500Y-59350000D03*
X83607500Y-56810000D03*
X83607500Y-54270000D03*
X83607500Y-51730000D03*
D33*
X107500000Y-107000000D03*
X107500000Y-102000000D03*
X107500000Y-104500000D03*
D34*
X99999999Y-110099999D03*
X99999999Y-98899999D03*
D33*
X93000000Y-102000000D03*
X93000000Y-107000000D03*
D14*
X122506903Y-127085199D03*
X122506903Y-127085199D03*
D15*
X121937578Y-129867351D03*
D35*
X118843613Y-122010408D03*
D36*
X119133646Y-123749604D03*
D15*
X121368252Y-132649503D03*
D37*
X118471744Y-122110050D03*
D19*
X117600000Y-128400000D03*
X117600000Y-128400000D03*
D20*
X116712181Y-125086614D03*
X115935794Y-122189097D03*
D15*
X116461349Y-133964304D03*
D38*
X113491104Y-123439432D03*
D39*
X113941796Y-125140756D03*
D15*
X114577223Y-131839552D03*
D14*
X112693097Y-129714801D03*
X112693097Y-129714801D03*
D40*
X124555150Y-131785222D03*
D41*
X111416403Y-132696843D03*
D14*
X220880000Y-71450000D03*
X220880000Y-71450000D03*
D15*
X219610000Y-73990000D03*
D16*
X218654986Y-65599999D03*
D17*
X218484999Y-67354999D03*
D15*
X218340000Y-76530000D03*
D18*
X218269999Y-65599999D03*
D19*
X215800000Y-71450000D03*
X215800000Y-71450000D03*
D20*
X215800000Y-68019730D03*
X215800000Y-65020000D03*
D15*
X213260000Y-76530000D03*
D21*
X213115000Y-65594999D03*
D22*
X213110000Y-67354999D03*
D15*
X211990000Y-73990000D03*
D14*
X210720000Y-71450000D03*
X210720000Y-71450000D03*
D23*
X221641999Y-76519999D03*
D24*
X208714999Y-73999999D03*
D14*
X220880000Y-90500000D03*
X220880000Y-90500000D03*
D15*
X219610000Y-93040000D03*
D16*
X218654986Y-84649999D03*
D17*
X218484999Y-86404999D03*
D15*
X218340000Y-95580000D03*
D18*
X218269999Y-84649999D03*
D19*
X215800000Y-90500000D03*
X215800000Y-90500000D03*
D20*
X215800000Y-87069730D03*
X215800000Y-84070000D03*
D15*
X213260000Y-95580000D03*
D21*
X213115000Y-84644999D03*
D22*
X213110000Y-86404999D03*
D15*
X211990000Y-93040000D03*
D14*
X210720000Y-90500000D03*
X210720000Y-90500000D03*
D23*
X221641999Y-95569999D03*
D24*
X208714999Y-93049999D03*
D14*
X220880000Y-109550000D03*
X220880000Y-109550000D03*
D15*
X219610000Y-112090000D03*
D16*
X218654986Y-103699999D03*
D17*
X218484999Y-105454999D03*
D15*
X218340000Y-114630000D03*
D18*
X218269999Y-103699999D03*
D19*
X215800000Y-109550000D03*
X215800000Y-109550000D03*
D20*
X215800000Y-106119730D03*
X215800000Y-103120000D03*
D15*
X213260000Y-114630000D03*
D21*
X213115000Y-103694999D03*
D22*
X213110000Y-105454999D03*
D15*
X211990000Y-112090000D03*
D14*
X210720000Y-109550000D03*
X210720000Y-109550000D03*
D23*
X221641999Y-114619999D03*
D24*
X208714999Y-112099999D03*
D14*
X182780000Y-47500000D03*
X182780000Y-47500000D03*
D15*
X181510000Y-50040000D03*
D16*
X180554986Y-41649999D03*
D17*
X180384999Y-43404999D03*
D15*
X180240000Y-52580000D03*
D18*
X180169999Y-41649999D03*
D19*
X177700000Y-47500000D03*
X177700000Y-47500000D03*
D20*
X177700000Y-44069730D03*
X177700000Y-41070000D03*
D15*
X175160000Y-52580000D03*
D21*
X175015000Y-41644999D03*
D22*
X175010000Y-43404999D03*
D15*
X173890000Y-50040000D03*
D14*
X172620000Y-47500000D03*
X172620000Y-47500000D03*
D23*
X183541999Y-52569999D03*
D24*
X170614999Y-50049999D03*
D42*
X206290000Y-61910000D03*
D14*
X201830000Y-52400000D03*
X201830000Y-52400000D03*
D15*
X200560000Y-54940000D03*
D16*
X199604986Y-46549999D03*
D17*
X199434999Y-48304999D03*
D15*
X199290000Y-57480000D03*
D18*
X199219999Y-46549999D03*
D19*
X196750000Y-52400000D03*
X196750000Y-52400000D03*
D20*
X196750000Y-48969730D03*
X196750000Y-45970000D03*
D15*
X194210000Y-57480000D03*
D21*
X194065000Y-46544999D03*
D22*
X194060000Y-48304999D03*
D15*
X192940000Y-54940000D03*
D14*
X191670000Y-52400000D03*
X191670000Y-52400000D03*
D23*
X202591999Y-57469999D03*
D24*
X189664999Y-54949999D03*
D14*
X144680000Y-66550000D03*
X144680000Y-66550000D03*
D15*
X143410000Y-69090000D03*
D16*
X142454986Y-60699999D03*
D17*
X142284999Y-62454999D03*
D15*
X142140000Y-71630000D03*
D18*
X142069999Y-60699999D03*
D19*
X139600000Y-66550000D03*
X139600000Y-66550000D03*
D20*
X139600000Y-63119730D03*
X139600000Y-60120000D03*
D15*
X137060000Y-71630000D03*
D21*
X136915000Y-60694999D03*
D22*
X136910000Y-62454999D03*
D15*
X135790000Y-69090000D03*
D14*
X134520000Y-66550000D03*
X134520000Y-66550000D03*
D23*
X145441999Y-71619999D03*
D24*
X132514999Y-69099999D03*
D14*
X182780000Y-66550000D03*
X182780000Y-66550000D03*
D15*
X181510000Y-69090000D03*
D16*
X180554986Y-60699999D03*
D17*
X180384999Y-62454999D03*
D15*
X180240000Y-71630000D03*
D18*
X180169999Y-60699999D03*
D19*
X177700000Y-66550000D03*
X177700000Y-66550000D03*
D20*
X177700000Y-63119730D03*
X177700000Y-60120000D03*
D15*
X175160000Y-71630000D03*
D21*
X175015000Y-60694999D03*
D22*
X175010000Y-62454999D03*
D15*
X173890000Y-69090000D03*
D14*
X172620000Y-66550000D03*
X172620000Y-66550000D03*
D23*
X183541999Y-71619999D03*
D24*
X170614999Y-69099999D03*
D14*
X163730000Y-64050000D03*
X163730000Y-64050000D03*
D15*
X162460000Y-66590000D03*
D16*
X161504986Y-58199999D03*
D17*
X161334999Y-59954999D03*
D15*
X161190000Y-69130000D03*
D18*
X161119999Y-58199999D03*
D19*
X158650000Y-64050000D03*
X158650000Y-64050000D03*
D20*
X158650000Y-60619730D03*
X158650000Y-57620000D03*
D15*
X156110000Y-69130000D03*
D21*
X155965000Y-58194999D03*
D22*
X155960000Y-59954999D03*
D15*
X154840000Y-66590000D03*
D14*
X153570000Y-64050000D03*
X153570000Y-64050000D03*
D23*
X164491999Y-69119999D03*
D24*
X151564999Y-66599999D03*
D14*
X182780000Y-85600000D03*
X182780000Y-85600000D03*
D15*
X181510000Y-88140000D03*
D16*
X180554986Y-79749999D03*
D17*
X180384999Y-81504999D03*
D15*
X180240000Y-90680000D03*
D18*
X180169999Y-79749999D03*
D19*
X177700000Y-85600000D03*
X177700000Y-85600000D03*
D20*
X177700000Y-82169730D03*
X177700000Y-79170000D03*
D15*
X175160000Y-90680000D03*
D21*
X175015000Y-79744999D03*
D22*
X175010000Y-81504999D03*
D15*
X173890000Y-88140000D03*
D14*
X172620000Y-85600000D03*
X172620000Y-85600000D03*
D23*
X183541999Y-90669999D03*
D24*
X170614999Y-88149999D03*
D14*
X220880000Y-52400000D03*
X220880000Y-52400000D03*
D15*
X219610000Y-54940000D03*
D16*
X218654986Y-46549999D03*
D17*
X218484999Y-48304999D03*
D15*
X218340000Y-57480000D03*
D18*
X218269999Y-46549999D03*
D19*
X215800000Y-52400000D03*
X215800000Y-52400000D03*
D20*
X215800000Y-48969730D03*
X215800000Y-45970000D03*
D15*
X213260000Y-57480000D03*
D21*
X213115000Y-46544999D03*
D22*
X213110000Y-48304999D03*
D15*
X211990000Y-54940000D03*
D14*
X210720000Y-52400000D03*
X210720000Y-52400000D03*
D23*
X221641999Y-57469999D03*
D24*
X208714999Y-54949999D03*
D14*
X125630000Y-69050000D03*
X125630000Y-69050000D03*
D15*
X124360000Y-71590000D03*
D16*
X123404986Y-63199999D03*
D17*
X123234999Y-64954999D03*
D15*
X123090000Y-74130000D03*
D18*
X123019999Y-63199999D03*
D19*
X120550000Y-69050000D03*
X120550000Y-69050000D03*
D20*
X120550000Y-65619730D03*
X120550000Y-62620000D03*
D15*
X118010000Y-74130000D03*
D21*
X117865000Y-63194999D03*
D22*
X117860000Y-64954999D03*
D15*
X116740000Y-71590000D03*
D14*
X115470000Y-69050000D03*
X115470000Y-69050000D03*
D23*
X126391999Y-74119999D03*
D24*
X113464999Y-71599999D03*
D14*
X182780000Y-123700000D03*
X182780000Y-123700000D03*
D15*
X181510000Y-126240000D03*
D16*
X180554986Y-117849999D03*
D17*
X180384999Y-119604999D03*
D15*
X180240000Y-128780000D03*
D18*
X180169999Y-117849999D03*
D19*
X177700000Y-123700000D03*
X177700000Y-123700000D03*
D20*
X177700000Y-120269730D03*
X177700000Y-117270000D03*
D15*
X175160000Y-128780000D03*
D21*
X175015000Y-117844999D03*
D22*
X175010000Y-119604999D03*
D15*
X173890000Y-126240000D03*
D14*
X172620000Y-123700000D03*
X172620000Y-123700000D03*
D23*
X183541999Y-128769999D03*
D24*
X170614999Y-126249999D03*
D14*
X201830000Y-71450000D03*
X201830000Y-71450000D03*
D15*
X200560000Y-73990000D03*
D16*
X199604986Y-65599999D03*
D17*
X199434999Y-67354999D03*
D15*
X199290000Y-76530000D03*
D18*
X199219999Y-65599999D03*
D19*
X196750000Y-71450000D03*
X196750000Y-71450000D03*
D20*
X196750000Y-68019730D03*
X196750000Y-65020000D03*
D15*
X194210000Y-76530000D03*
D21*
X194065000Y-65594999D03*
D22*
X194060000Y-67354999D03*
D15*
X192940000Y-73990000D03*
D14*
X191670000Y-71450000D03*
X191670000Y-71450000D03*
D23*
X202591999Y-76519999D03*
D24*
X189664999Y-73999999D03*
D14*
X182780000Y-104650000D03*
X182780000Y-104650000D03*
D15*
X181510000Y-107190000D03*
D16*
X180554986Y-98799999D03*
D17*
X180384999Y-100554999D03*
D15*
X180240000Y-109730000D03*
D18*
X180169999Y-98799999D03*
D19*
X177700000Y-104650000D03*
X177700000Y-104650000D03*
D20*
X177700000Y-101219730D03*
X177700000Y-98220000D03*
D15*
X175160000Y-109730000D03*
D21*
X175015000Y-98794999D03*
D22*
X175010000Y-100554999D03*
D15*
X173890000Y-107190000D03*
D14*
X172620000Y-104650000D03*
X172620000Y-104650000D03*
D23*
X183541999Y-109719999D03*
D24*
X170614999Y-107199999D03*
D14*
X201830000Y-90500000D03*
X201830000Y-90500000D03*
D15*
X200560000Y-93040000D03*
D16*
X199604986Y-84649999D03*
D17*
X199434999Y-86404999D03*
D15*
X199290000Y-95580000D03*
D18*
X199219999Y-84649999D03*
D19*
X196750000Y-90500000D03*
X196750000Y-90500000D03*
D20*
X196750000Y-87069730D03*
X196750000Y-84070000D03*
D15*
X194210000Y-95580000D03*
D21*
X194065000Y-84644999D03*
D22*
X194060000Y-86404999D03*
D15*
X192940000Y-93040000D03*
D14*
X191670000Y-90500000D03*
X191670000Y-90500000D03*
D23*
X202591999Y-95569999D03*
D24*
X189664999Y-93049999D03*
D14*
X163730000Y-121200000D03*
X163730000Y-121200000D03*
D15*
X162460000Y-123740000D03*
D16*
X161504986Y-115349999D03*
D17*
X161334999Y-117104999D03*
D15*
X161190000Y-126280000D03*
D18*
X161119999Y-115349999D03*
D19*
X158650000Y-121200000D03*
X158650000Y-121200000D03*
D20*
X158650000Y-117769730D03*
X158650000Y-114770000D03*
D15*
X156110000Y-126280000D03*
D21*
X155965000Y-115344999D03*
D22*
X155960000Y-117104999D03*
D15*
X154840000Y-123740000D03*
D14*
X153570000Y-121200000D03*
X153570000Y-121200000D03*
D23*
X164491999Y-126269999D03*
D24*
X151564999Y-123749999D03*
D14*
X163730000Y-83100000D03*
X163730000Y-83100000D03*
D15*
X162460000Y-85640000D03*
D16*
X161504986Y-77249999D03*
D17*
X161334999Y-79004999D03*
D15*
X161190000Y-88180000D03*
D18*
X161119999Y-77249999D03*
D19*
X158650000Y-83100000D03*
X158650000Y-83100000D03*
D20*
X158650000Y-79669730D03*
X158650000Y-76670000D03*
D15*
X156110000Y-88180000D03*
D21*
X155965000Y-77244999D03*
D22*
X155960000Y-79004999D03*
D15*
X154840000Y-85640000D03*
D14*
X153570000Y-83100000D03*
X153570000Y-83100000D03*
D23*
X164491999Y-88169999D03*
D24*
X151564999Y-85649999D03*
D14*
X144680000Y-47500000D03*
X144680000Y-47500000D03*
D15*
X143410000Y-50040000D03*
D16*
X142454986Y-41649999D03*
D17*
X142284999Y-43404999D03*
D15*
X142140000Y-52580000D03*
D18*
X142069999Y-41649999D03*
D19*
X139600000Y-47500000D03*
X139600000Y-47500000D03*
D20*
X139600000Y-44069730D03*
X139600000Y-41070000D03*
D15*
X137060000Y-52580000D03*
D21*
X136915000Y-41644999D03*
D22*
X136910000Y-43404999D03*
D15*
X135790000Y-50040000D03*
D14*
X134520000Y-47500000D03*
X134520000Y-47500000D03*
D23*
X145441999Y-52569999D03*
D24*
X132514999Y-50049999D03*
D14*
X144680000Y-104650000D03*
X144680000Y-104650000D03*
D15*
X143410000Y-107190000D03*
D16*
X142454986Y-98799999D03*
D17*
X142284999Y-100554999D03*
D15*
X142140000Y-109730000D03*
D18*
X142069999Y-98799999D03*
D19*
X139600000Y-104650000D03*
X139600000Y-104650000D03*
D20*
X139600000Y-101219730D03*
X139600000Y-98220000D03*
D15*
X137060000Y-109730000D03*
D21*
X136915000Y-98794999D03*
D22*
X136910000Y-100554999D03*
D15*
X135790000Y-107190000D03*
D14*
X134520000Y-104650000D03*
X134520000Y-104650000D03*
D23*
X145441999Y-109719999D03*
D24*
X132514999Y-107199999D03*
D42*
X206275000Y-100025000D03*
D14*
X144680000Y-123700000D03*
X144680000Y-123700000D03*
D15*
X143410000Y-126240000D03*
D16*
X142454986Y-117849999D03*
D17*
X142284999Y-119604999D03*
D15*
X142140000Y-128780000D03*
D18*
X142069999Y-117849999D03*
D19*
X139600000Y-123700000D03*
X139600000Y-123700000D03*
D20*
X139600000Y-120269730D03*
X139600000Y-117270000D03*
D15*
X137060000Y-128780000D03*
D21*
X136915000Y-117844999D03*
D22*
X136910000Y-119604999D03*
D15*
X135790000Y-126240000D03*
D14*
X134520000Y-123700000D03*
X134520000Y-123700000D03*
D23*
X145441999Y-128769999D03*
D24*
X132514999Y-126249999D03*
D42*
X129440000Y-59510000D03*
X129530000Y-97460000D03*
D43*
X97359999Y-94669999D03*
D44*
X99899999Y-94669999D03*
X102439999Y-94669999D03*
X104979999Y-94669999D03*
X107519999Y-94669999D03*
D45*
X120839999Y-37459999D03*
D46*
X118499999Y-37459999D03*
D47*
X130075000Y-81370000D03*
X149125000Y-62320000D03*
X149125000Y-100420000D03*
X168175000Y-81370000D03*
D48*
X124699999Y-36479999D03*
X124699999Y-37429999D03*
X124699999Y-38379999D03*
X127299999Y-38379999D03*
X127299999Y-36479999D03*
D42*
X86400000Y-117000000D03*
X112010000Y-37250000D03*
X103930000Y-90590000D03*
D14*
X125630000Y-107150000D03*
X125630000Y-107150000D03*
D15*
X124360000Y-109690000D03*
D16*
X123404986Y-101299999D03*
D17*
X123234999Y-103054999D03*
D15*
X123090000Y-112230000D03*
D18*
X123019999Y-101299999D03*
D19*
X120550000Y-107150000D03*
X120550000Y-107150000D03*
D20*
X120550000Y-103719730D03*
X120550000Y-100720000D03*
D15*
X118010000Y-112230000D03*
D21*
X117865000Y-101294999D03*
D22*
X117860000Y-103054999D03*
D15*
X116740000Y-109690000D03*
D14*
X115470000Y-107150000D03*
X115470000Y-107150000D03*
D23*
X126391999Y-112219999D03*
D24*
X113464999Y-109699999D03*
D42*
X86400000Y-101000000D03*
D49*
X116729999Y-58574999D03*
D50*
X118830000Y-58575000D03*
X122630000Y-58575000D03*
D51*
X124730000Y-58575000D03*
D49*
X135779999Y-56074999D03*
D50*
X137880000Y-56075000D03*
X141680000Y-56075000D03*
D51*
X143780000Y-56075000D03*
D49*
X154829999Y-53609999D03*
D50*
X156930000Y-53610000D03*
X160730000Y-53610000D03*
D51*
X162830000Y-53610000D03*
D49*
X173879999Y-56074999D03*
D50*
X175980000Y-56075000D03*
X179780000Y-56075000D03*
D51*
X181880000Y-56075000D03*
D49*
X192929999Y-60974999D03*
D50*
X195030000Y-60975000D03*
X198830000Y-60975000D03*
D51*
X200930000Y-60975000D03*
D49*
X211979999Y-60974999D03*
D50*
X214080000Y-60975000D03*
X217880000Y-60975000D03*
D51*
X219980000Y-60975000D03*
D49*
X116729999Y-96674999D03*
D50*
X118830000Y-96675000D03*
X122630000Y-96675000D03*
D51*
X124730000Y-96675000D03*
D49*
X116729999Y-115724999D03*
D50*
X118830000Y-115725000D03*
X122630000Y-115725000D03*
D51*
X124730000Y-115725000D03*
D49*
X95999999Y-113039999D03*
D50*
X98100000Y-113040000D03*
X101900000Y-113040000D03*
D51*
X104000000Y-113040000D03*
D52*
X101193061Y-141278543D03*
D53*
X103064176Y-140325164D03*
X106450000Y-138600000D03*
D51*
X108321114Y-137646620D03*
D49*
X116729999Y-77674999D03*
D50*
X118830000Y-77675000D03*
X122630000Y-77675000D03*
D51*
X124730000Y-77675000D03*
D49*
X135779999Y-75124999D03*
D50*
X137880000Y-75125000D03*
X141680000Y-75125000D03*
D51*
X143780000Y-75125000D03*
D49*
X154829999Y-72624999D03*
D50*
X156930000Y-72625000D03*
X160730000Y-72625000D03*
D51*
X162830000Y-72625000D03*
D49*
X173879999Y-75124999D03*
D50*
X175980000Y-75125000D03*
X179780000Y-75125000D03*
D51*
X181880000Y-75125000D03*
D49*
X192929999Y-80024999D03*
D50*
X195030000Y-80025000D03*
X198830000Y-80025000D03*
D51*
X200930000Y-80025000D03*
D49*
X211979999Y-80024999D03*
D50*
X214080000Y-80025000D03*
X217880000Y-80025000D03*
D51*
X219980000Y-80025000D03*
D54*
X116221037Y-137567031D03*
D55*
X118249482Y-137023512D03*
X121920000Y-136040000D03*
D51*
X123948444Y-135496480D03*
D49*
X154829999Y-91674999D03*
D50*
X156930000Y-91675000D03*
X160730000Y-91675000D03*
D51*
X162830000Y-91675000D03*
D49*
X192929999Y-99074999D03*
D50*
X195030000Y-99075000D03*
X198830000Y-99075000D03*
D51*
X200930000Y-99075000D03*
D49*
X211979999Y-99074999D03*
D50*
X214080000Y-99075000D03*
X217880000Y-99075000D03*
D51*
X219980000Y-99075000D03*
D49*
X135779999Y-132274999D03*
D50*
X137880000Y-132275000D03*
X141680000Y-132275000D03*
D51*
X143780000Y-132275000D03*
D49*
X154829999Y-129774999D03*
D50*
X156930000Y-129775000D03*
X160730000Y-129775000D03*
D51*
X162830000Y-129775000D03*
D49*
X211979999Y-118124999D03*
D50*
X214080000Y-118125000D03*
X217880000Y-118125000D03*
D51*
X219980000Y-118125000D03*
D49*
X135779999Y-113224999D03*
D50*
X137880000Y-113225000D03*
X141680000Y-113225000D03*
D51*
X143780000Y-113225000D03*
D49*
X154829999Y-110724999D03*
D50*
X156930000Y-110725000D03*
X160730000Y-110725000D03*
D51*
X162830000Y-110725000D03*
D49*
X173879999Y-113224999D03*
D50*
X175980000Y-113225000D03*
X179780000Y-113225000D03*
D51*
X181880000Y-113225000D03*
D49*
X192929999Y-118124999D03*
D50*
X195030000Y-118125000D03*
X198830000Y-118125000D03*
D51*
X200930000Y-118125000D03*
D49*
X135779999Y-94174999D03*
D50*
X137880000Y-94175000D03*
X141680000Y-94175000D03*
D51*
X143780000Y-94175000D03*
D49*
X173879999Y-132274999D03*
D50*
X175980000Y-132275000D03*
X179780000Y-132275000D03*
D51*
X181880000Y-132275000D03*
D49*
X83301249Y-44597499D03*
D56*
X83301250Y-42497500D03*
X83301250Y-38697500D03*
D51*
X83301250Y-36597500D03*
D49*
X173879999Y-94174999D03*
D50*
X175980000Y-94175000D03*
X179780000Y-94175000D03*
D51*
X181880000Y-94175000D03*
D57*
X96202499Y-77164864D03*
X96202499Y-54304864D03*
X96202499Y-46684864D03*
D20*
X106372500Y-36524865D03*
X106372500Y-39064865D03*
D58*
X106372499Y-41604864D03*
D20*
X106372500Y-44144865D03*
X106372500Y-46684865D03*
X106372500Y-49224865D03*
X106372500Y-51764865D03*
D58*
X106372499Y-54304864D03*
D20*
X106372500Y-56844865D03*
X106372500Y-59384865D03*
X106372500Y-61924865D03*
X106372500Y-64464865D03*
D58*
X106372499Y-67004864D03*
D20*
X106372500Y-69544865D03*
X106372500Y-72084865D03*
X106372500Y-74624865D03*
X106372500Y-77164865D03*
D58*
X106372499Y-79704864D03*
D20*
X106372500Y-82244865D03*
X106372500Y-84784865D03*
X88592500Y-84784865D03*
X88592500Y-82244865D03*
D58*
X88592499Y-79704864D03*
D20*
X88592500Y-77164865D03*
X88592500Y-74624865D03*
X88592500Y-72084865D03*
X88592500Y-69544865D03*
D59*
X88592499Y-67004864D03*
D20*
X88592500Y-64464865D03*
X88592500Y-61924865D03*
X88592500Y-59384865D03*
X88592500Y-56844865D03*
D59*
X88592499Y-54304864D03*
D20*
X88592500Y-51764865D03*
X88592500Y-49224865D03*
X88592500Y-46684865D03*
X88592500Y-44144865D03*
D59*
X88592499Y-41604864D03*
D20*
X88592500Y-39064865D03*
X88592500Y-36524865D03*
M02*
