M48
; DRILL file {KiCad (7.0.0-0)} date Thursday, April 27, 2023 at 06:16:27 PM
; FORMAT={-:-/ absolute / metric / decimal}
; #@! TF.CreationDate,2023-04-27T18:16:27-07:00
; #@! TF.GenerationSoftware,Kicad,Pcbnew,(7.0.0-0)
; #@! TF.FileFunction,Plated,1,2,PTH
FMAT,2
METRIC
; #@! TA.AperFunction,Plated,PTH,ViaDrill
T1C0.200
; #@! TA.AperFunction,Plated,PTH,ComponentDrill
T2C0.200
; #@! TA.AperFunction,Plated,PTH,ComponentDrill
T3C0.250
; #@! TA.AperFunction,Plated,PTH,ViaDrill
T4C0.300
; #@! TA.AperFunction,Plated,PTH,ComponentDrill
T5C0.300
; #@! TA.AperFunction,Plated,PTH,ComponentDrill
T6C0.813
; #@! TA.AperFunction,Plated,PTH,ComponentDrill
T7C0.900
; #@! TA.AperFunction,Plated,PTH,ComponentDrill
T8C1.000
; #@! TA.AperFunction,Plated,PTH,ComponentDrill
T9C1.020
; #@! TA.AperFunction,Plated,PTH,ComponentDrill
T10C1.500
; #@! TA.AperFunction,Plated,PTH,ComponentDrill
T11C4.100
%
G90
G05
T1
X101.694Y-127.17
X103.702Y-124.419
X109.53Y-119.97
X110.23Y-118.28
X110.734Y-113.037
X111.599Y-95.21
X112.82Y-138.46
X112.96Y-120.5
X116.87Y-37.43
X120.67Y-119.44
X123.58Y-118.9
X132.515Y-117.01
X133.012Y-40.407
X136.94Y-38.05
X144.92Y-115.205
X151.57Y-113.024
X152.11Y-37.52
X155.92Y-113.474
X168.22Y-37.099
X168.38Y-112.465
X170.284Y-115.434
X175.0Y-39.253
X186.805Y-114.884
X187.26Y-39.92
X194.057Y-101.81
X203.02Y-119.366
X206.23Y-43.05
T2
X98.534Y-130.71
X99.695Y-128.584
X100.209Y-129.595
X100.35Y-134.274
X102.234Y-133.567
X102.426Y-129.625
X102.759Y-134.596
X103.524Y-131.782
X113.06Y-124.471
X114.156Y-124.179
X114.647Y-122.017
X114.899Y-126.049
X116.985Y-121.39
X117.182Y-45.03
X117.182Y-64.08
X117.182Y-83.13
X117.182Y-102.18
X118.316Y-45.031
X118.316Y-64.081
X118.316Y-83.131
X118.316Y-102.181
X118.463Y-123.023
X118.55Y-47.03
X118.55Y-66.08
X118.55Y-85.13
X118.55Y-104.18
X118.763Y-125.014
X119.35Y-43.07
X119.35Y-62.12
X119.35Y-81.17
X119.35Y-100.22
X119.578Y-122.725
X121.77Y-43.07
X121.77Y-62.12
X121.77Y-81.17
X121.77Y-100.22
X122.55Y-47.03
X122.55Y-66.08
X122.55Y-85.13
X122.55Y-104.18
X122.775Y-45.03
X122.775Y-64.08
X122.775Y-83.13
X122.775Y-102.18
X123.93Y-45.03
X123.93Y-64.08
X123.93Y-83.13
X123.93Y-102.18
X136.232Y-42.53
X136.232Y-61.58
X136.232Y-80.63
X136.232Y-99.68
X136.232Y-118.73
X137.366Y-42.531
X137.366Y-61.581
X137.366Y-80.631
X137.366Y-99.681
X137.366Y-118.731
X137.6Y-44.53
X137.6Y-63.58
X137.6Y-82.63
X137.6Y-101.68
X137.6Y-120.73
X138.4Y-40.57
X138.4Y-59.62
X138.4Y-78.67
X138.4Y-97.72
X138.4Y-116.77
X140.82Y-40.57
X140.82Y-59.62
X140.82Y-78.67
X140.82Y-97.72
X140.82Y-116.77
X141.6Y-44.53
X141.6Y-63.58
X141.6Y-82.63
X141.6Y-101.68
X141.6Y-120.73
X141.825Y-42.53
X141.825Y-61.58
X141.825Y-80.63
X141.825Y-99.68
X141.825Y-118.73
X142.98Y-42.53
X142.98Y-61.58
X142.98Y-80.63
X142.98Y-99.68
X142.98Y-118.73
X155.282Y-40.03
X155.282Y-59.08
X155.282Y-78.13
X155.282Y-97.18
X155.282Y-116.23
X156.416Y-40.031
X156.416Y-59.081
X156.416Y-78.131
X156.416Y-97.181
X156.416Y-116.231
X156.65Y-42.03
X156.65Y-61.08
X156.65Y-80.13
X156.65Y-99.18
X156.65Y-118.23
X157.45Y-38.07
X157.45Y-57.12
X157.45Y-76.17
X157.45Y-95.22
X157.45Y-114.27
X159.87Y-38.07
X159.87Y-57.12
X159.87Y-76.17
X159.87Y-95.22
X159.87Y-114.27
X160.65Y-42.03
X160.65Y-61.08
X160.65Y-80.13
X160.65Y-99.18
X160.65Y-118.23
X160.875Y-40.03
X160.875Y-59.08
X160.875Y-78.13
X160.875Y-97.18
X160.875Y-116.23
X162.03Y-40.03
X162.03Y-59.08
X162.03Y-78.13
X162.03Y-97.18
X162.03Y-116.23
X174.332Y-42.53
X174.332Y-61.58
X174.332Y-80.63
X174.332Y-99.68
X174.332Y-118.73
X175.466Y-42.531
X175.466Y-61.581
X175.466Y-80.631
X175.466Y-99.681
X175.466Y-118.731
X175.7Y-44.53
X175.7Y-63.58
X175.7Y-82.63
X175.7Y-101.68
X175.7Y-120.73
X176.5Y-40.57
X176.5Y-59.62
X176.5Y-78.67
X176.5Y-97.72
X176.5Y-116.77
X178.92Y-40.57
X178.92Y-59.62
X178.92Y-78.67
X178.92Y-97.72
X178.92Y-116.77
X179.7Y-44.53
X179.7Y-63.58
X179.7Y-82.63
X179.7Y-101.68
X179.7Y-120.73
X179.925Y-42.53
X179.925Y-61.58
X179.925Y-80.63
X179.925Y-99.68
X179.925Y-118.73
X181.08Y-42.53
X181.08Y-61.58
X181.08Y-80.63
X181.08Y-99.68
X181.08Y-118.73
X193.382Y-47.43
X193.382Y-66.48
X193.382Y-85.53
X193.382Y-104.58
X194.516Y-47.431
X194.516Y-66.481
X194.516Y-85.531
X194.516Y-104.581
X194.75Y-49.43
X194.75Y-68.48
X194.75Y-87.53
X194.75Y-106.58
X195.55Y-45.47
X195.55Y-64.52
X195.55Y-83.57
X195.55Y-102.62
X197.97Y-45.47
X197.97Y-64.52
X197.97Y-83.57
X197.97Y-102.62
X198.75Y-49.43
X198.75Y-68.48
X198.75Y-87.53
X198.75Y-106.58
X198.975Y-47.43
X198.975Y-66.48
X198.975Y-85.53
X198.975Y-104.58
X200.13Y-47.43
X200.13Y-66.48
X200.13Y-85.53
X200.13Y-104.58
X212.432Y-47.43
X212.432Y-66.48
X212.432Y-85.53
X212.432Y-104.58
X213.566Y-47.431
X213.566Y-66.481
X213.566Y-85.531
X213.566Y-104.581
X213.8Y-49.43
X213.8Y-68.48
X213.8Y-87.53
X213.8Y-106.58
X214.6Y-45.47
X214.6Y-64.52
X214.6Y-83.57
X214.6Y-102.62
X217.02Y-45.47
X217.02Y-64.52
X217.02Y-83.57
X217.02Y-102.62
X217.8Y-49.43
X217.8Y-68.48
X217.8Y-87.53
X217.8Y-106.58
X218.025Y-47.43
X218.025Y-66.48
X218.025Y-85.53
X218.025Y-104.58
X219.18Y-47.43
X219.18Y-66.48
X219.18Y-85.53
X219.18Y-104.58
T3
X90.536Y-129.948
X96.212Y-63.865
X96.212Y-77.454
X112.491Y-133.713
X114.24Y-53.81
X114.24Y-72.86
X114.24Y-91.91
X114.24Y-110.96
X133.29Y-51.31
X133.29Y-70.36
X133.29Y-89.41
X133.29Y-108.46
X133.29Y-127.51
X152.34Y-48.81
X152.34Y-67.86
X152.34Y-86.91
X152.34Y-105.96
X152.34Y-125.01
X171.39Y-51.31
X171.39Y-70.36
X171.39Y-89.41
X171.39Y-108.46
X171.39Y-127.51
X190.44Y-56.21
X190.44Y-75.26
X190.44Y-94.31
X190.44Y-113.36
X209.49Y-56.21
X209.49Y-75.26
X209.49Y-94.31
X209.49Y-113.36
T4
X100.0Y-104.5
X123.54Y-36.48
T5
X96.252Y-141.188
X124.674Y-130.459
X126.85Y-53.82
X126.85Y-72.87
X126.85Y-91.92
X126.85Y-110.97
X145.9Y-51.32
X145.9Y-70.37
X145.9Y-89.42
X145.9Y-108.47
X145.9Y-127.52
X164.95Y-48.82
X164.95Y-67.87
X164.95Y-86.92
X164.95Y-105.97
X164.95Y-125.02
X184.0Y-51.32
X184.0Y-70.37
X184.0Y-89.42
X184.0Y-108.47
X184.0Y-127.52
X203.05Y-56.22
X203.05Y-75.27
X203.05Y-94.32
X203.05Y-113.37
X222.1Y-56.22
X222.1Y-75.27
X222.1Y-94.32
X222.1Y-113.37
T6
X92.402Y-86.39
X92.402Y-88.93
X94.942Y-86.39
X94.942Y-88.93
X97.482Y-86.39
X97.482Y-88.93
X100.022Y-86.39
X100.022Y-88.93
T7
X92.01Y-39.74
X96.0Y-117.31
X100.01Y-39.74
X101.193Y-141.279
X104.0Y-117.31
X108.321Y-137.647
X116.221Y-137.567
X116.73Y-58.575
X116.73Y-77.675
X116.73Y-96.675
X116.73Y-115.725
X123.948Y-135.496
X124.73Y-58.575
X124.73Y-77.675
X124.73Y-96.675
X124.73Y-115.725
X135.78Y-56.075
X135.78Y-75.125
X135.78Y-94.175
X135.78Y-113.225
X135.78Y-132.275
X143.78Y-56.075
X143.78Y-75.125
X143.78Y-94.175
X143.78Y-113.225
X143.78Y-132.275
X154.83Y-53.61
X154.83Y-72.625
X154.83Y-91.675
X154.83Y-110.725
X154.83Y-129.775
X162.83Y-53.61
X162.83Y-72.625
X162.83Y-91.675
X162.83Y-110.725
X162.83Y-129.775
X173.88Y-56.075
X173.88Y-75.125
X173.88Y-94.175
X173.88Y-113.225
X173.88Y-132.275
X181.88Y-56.075
X181.88Y-75.125
X181.88Y-94.175
X181.88Y-113.225
X181.88Y-132.275
X192.93Y-60.975
X192.93Y-80.025
X192.93Y-99.075
X192.93Y-118.125
X200.93Y-60.975
X200.93Y-80.025
X200.93Y-99.075
X200.93Y-118.125
X211.98Y-60.975
X211.98Y-80.025
X211.98Y-99.075
X211.98Y-118.125
X219.98Y-60.975
X219.98Y-80.025
X219.98Y-99.075
X219.98Y-118.125
T8
X90.25Y-99.55
X90.25Y-102.09
X90.25Y-104.63
X90.25Y-107.17
X90.25Y-109.71
X93.0Y-102.0
X93.0Y-107.0
X107.5Y-102.0
X107.5Y-104.5
X107.5Y-107.0
T9
X87.322Y-35.34
X87.322Y-37.88
X87.322Y-40.42
X87.322Y-42.96
X87.322Y-45.5
X87.322Y-48.04
X87.322Y-50.58
X87.322Y-53.12
X87.322Y-55.66
X87.322Y-58.2
X87.322Y-60.74
X87.322Y-63.28
X87.322Y-65.82
X87.322Y-68.36
X87.322Y-70.9
X87.322Y-73.44
X87.322Y-75.98
X87.322Y-78.52
X87.322Y-81.06
X87.322Y-83.6
X105.102Y-35.34
X105.102Y-37.88
X105.102Y-40.42
X105.102Y-42.96
X105.102Y-45.5
X105.102Y-48.04
X105.102Y-50.58
X105.102Y-53.12
X105.102Y-55.66
X105.102Y-58.2
X105.102Y-60.74
X105.102Y-63.28
X105.102Y-65.82
X105.102Y-68.36
X105.102Y-70.9
X105.102Y-73.44
X105.102Y-75.98
X105.102Y-78.52
X105.102Y-81.06
X105.102Y-83.6
T11
X85.03Y-104.5
X111.85Y-37.25
X129.44Y-59.51
X129.53Y-97.46
X206.275Y-100.025
X206.29Y-61.91
T8
X84.328Y-91.26G85X84.828Y-91.26
G05
X84.328Y-95.46G85X84.828Y-95.46
G05
X87.328Y-91.26G85X87.828Y-91.26
G05
X87.328Y-95.46G85X87.828Y-95.46
G05
X91.328Y-91.26G85X93.328Y-91.26
G05
X91.328Y-95.46G85X93.328Y-95.46
G05
T10
X100.65Y-98.9G85X99.35Y-98.9
G05
X100.65Y-110.1G85X99.35Y-110.1
G05
T0
M30
