M48
; DRILL file {KiCad 7.0.5-0} date 2023 July 11, Tuesday 15:09:19
; FORMAT={-:-/ absolute / metric / decimal}
; #@! TF.CreationDate,2023-07-11T15:09:19-07:00
; #@! TF.GenerationSoftware,Kicad,Pcbnew,7.0.5-0
; #@! TF.FileFunction,Plated,1,2,PTH
FMAT,2
METRIC
; #@! TA.AperFunction,Plated,PTH,ViaDrill
T1C0.200
; #@! TA.AperFunction,Plated,PTH,ViaDrill
T2C0.300
; #@! TA.AperFunction,Plated,PTH,ComponentDrill
T3C0.300
; #@! TA.AperFunction,Plated,PTH,ComponentDrill
T4C0.762
; #@! TA.AperFunction,Plated,PTH,ComponentDrill
T5C0.800
; #@! TA.AperFunction,Plated,PTH,ComponentDrill
T6C0.813
; #@! TA.AperFunction,Plated,PTH,ComponentDrill
T7C0.900
; #@! TA.AperFunction,Plated,PTH,ComponentDrill
T8C1.000
; #@! TA.AperFunction,Plated,PTH,ComponentDrill
T9C1.100
; #@! TA.AperFunction,Plated,PTH,ComponentDrill
T10C1.500
; #@! TA.AperFunction,Plated,PTH,ComponentDrill
T11C2.200
; #@! TA.AperFunction,Plated,PTH,ComponentDrill
T12C4.100
%
G90
G05
T1
X95.93Y-57.98
X96.345Y-60.631
X96.89Y-51.765
X97.495Y-56.845
X98.012Y-59.4
X98.425Y-64.465
X98.875Y-72.085
X99.325Y-74.625
X99.645Y-77.147
X100.17Y-44.145
X100.695Y-46.685
X101.15Y-69.56
X128.52Y-36.5
T2
X95.24Y-79.705
X102.28Y-128.31
X104.858Y-124.245
X108.67Y-36.26
X110.522Y-113.066
X111.405Y-113.065
X111.623Y-119.695
X111.653Y-95.21
X112.353Y-120.021
X112.82Y-138.46
X120.443Y-117.805
X121.215Y-117.594
X123.57Y-38.39
X123.6Y-36.46
X130.13Y-133.59
X130.743Y-118.255
X132.449Y-116.944
X133.083Y-40.477
X136.94Y-38.145
X144.92Y-115.305
X151.57Y-113.089
X152.11Y-37.62
X155.92Y-113.574
X168.22Y-37.17
X168.38Y-112.624
X170.284Y-115.534
X175.0Y-39.294
X186.805Y-114.984
X187.189Y-39.991
X194.057Y-101.81
X203.02Y-119.366
X206.23Y-43.05
T3
X90.536Y-129.948
X96.252Y-141.188
X98.523Y-130.688
X99.69Y-128.573
X100.209Y-129.595
X102.234Y-133.567
X102.759Y-134.596
X103.524Y-131.782
X112.491Y-133.713
X113.049Y-124.474
X114.156Y-124.179
X114.24Y-53.81
X114.24Y-72.86
X114.24Y-91.91
X114.24Y-110.96
X114.875Y-126.055
X116.985Y-121.39
X117.17Y-45.03
X117.17Y-64.08
X117.17Y-83.13
X117.17Y-102.18
X118.316Y-45.031
X118.316Y-64.081
X118.316Y-83.131
X118.316Y-102.181
X118.463Y-123.023
X118.525Y-47.03
X118.525Y-66.08
X118.525Y-85.13
X118.525Y-104.18
X119.578Y-122.725
X121.77Y-43.07
X121.77Y-62.12
X121.77Y-81.17
X121.77Y-100.22
X122.775Y-45.03
X122.775Y-64.08
X122.775Y-83.13
X122.775Y-102.18
X123.93Y-45.03
X123.93Y-64.08
X123.93Y-83.13
X123.93Y-102.18
X124.674Y-130.459
X126.85Y-53.82
X126.85Y-72.87
X126.85Y-91.92
X126.85Y-110.97
X133.29Y-51.31
X133.29Y-70.36
X133.29Y-89.41
X133.29Y-108.46
X133.29Y-127.51
X136.22Y-42.53
X136.22Y-61.58
X136.22Y-80.63
X136.22Y-99.68
X136.22Y-118.73
X137.366Y-42.531
X137.366Y-61.581
X137.366Y-80.631
X137.366Y-99.681
X137.366Y-118.731
X137.575Y-44.53
X137.575Y-63.58
X137.575Y-82.63
X137.575Y-101.68
X137.575Y-120.73
X140.82Y-40.57
X140.82Y-59.62
X140.82Y-78.67
X140.82Y-97.72
X140.82Y-116.77
X141.825Y-42.53
X141.825Y-61.58
X141.825Y-80.63
X141.825Y-99.68
X141.825Y-118.73
X142.98Y-42.53
X142.98Y-61.58
X142.98Y-80.63
X142.98Y-99.68
X142.98Y-118.73
X145.9Y-51.32
X145.9Y-70.37
X145.9Y-89.42
X145.9Y-108.47
X145.9Y-127.52
X152.34Y-48.81
X152.34Y-67.86
X152.34Y-86.91
X152.34Y-105.96
X152.34Y-125.01
X155.27Y-40.03
X155.27Y-59.08
X155.27Y-78.13
X155.27Y-97.18
X155.27Y-116.23
X156.416Y-40.031
X156.416Y-59.081
X156.416Y-78.131
X156.416Y-97.181
X156.416Y-116.231
X156.625Y-42.03
X156.625Y-61.08
X156.625Y-80.13
X156.625Y-99.18
X156.625Y-118.23
X159.87Y-38.07
X159.87Y-57.12
X159.87Y-76.17
X159.87Y-95.22
X159.87Y-114.27
X160.875Y-40.03
X160.875Y-59.08
X160.875Y-78.13
X160.875Y-97.18
X160.875Y-116.23
X162.03Y-40.03
X162.03Y-59.08
X162.03Y-78.13
X162.03Y-97.18
X162.03Y-116.23
X164.95Y-48.82
X164.95Y-67.87
X164.95Y-86.92
X164.95Y-105.97
X164.95Y-125.02
X171.39Y-51.31
X171.39Y-70.36
X171.39Y-89.41
X171.39Y-108.46
X171.39Y-127.51
X174.32Y-42.53
X174.32Y-61.58
X174.32Y-80.63
X174.32Y-99.68
X174.32Y-118.73
X175.466Y-42.531
X175.466Y-61.581
X175.466Y-80.631
X175.466Y-99.681
X175.466Y-118.731
X175.675Y-44.53
X175.675Y-63.58
X175.675Y-82.63
X175.675Y-101.68
X175.675Y-120.73
X178.92Y-40.57
X178.92Y-59.62
X178.92Y-78.67
X178.92Y-97.72
X178.92Y-116.77
X179.925Y-42.53
X179.925Y-61.58
X179.925Y-80.63
X179.925Y-99.68
X179.925Y-118.73
X181.08Y-42.53
X181.08Y-61.58
X181.08Y-80.63
X181.08Y-99.68
X181.08Y-118.73
X184.0Y-51.32
X184.0Y-70.37
X184.0Y-89.42
X184.0Y-108.47
X184.0Y-127.52
X190.44Y-56.21
X190.44Y-75.26
X190.44Y-94.31
X190.44Y-113.36
X193.37Y-47.43
X193.37Y-66.48
X193.37Y-85.53
X193.37Y-104.58
X194.516Y-47.431
X194.516Y-66.481
X194.516Y-85.531
X194.516Y-104.581
X194.725Y-49.43
X194.725Y-68.48
X194.725Y-87.53
X194.725Y-106.58
X197.97Y-45.47
X197.97Y-64.52
X197.97Y-83.57
X197.97Y-102.62
X198.975Y-47.43
X198.975Y-66.48
X198.975Y-85.53
X198.975Y-104.58
X200.13Y-47.43
X200.13Y-66.48
X200.13Y-85.53
X200.13Y-104.58
X203.05Y-56.22
X203.05Y-75.27
X203.05Y-94.32
X203.05Y-113.37
X209.49Y-56.21
X209.49Y-75.26
X209.49Y-94.31
X209.49Y-113.36
X212.42Y-47.43
X212.42Y-66.48
X212.42Y-85.53
X212.42Y-104.58
X213.566Y-47.431
X213.566Y-66.481
X213.566Y-85.531
X213.566Y-104.581
X213.775Y-49.43
X213.775Y-68.48
X213.775Y-87.53
X213.775Y-106.58
X217.02Y-45.47
X217.02Y-64.52
X217.02Y-83.57
X217.02Y-102.62
X218.025Y-47.43
X218.025Y-66.48
X218.025Y-85.53
X218.025Y-104.58
X219.18Y-47.43
X219.18Y-66.48
X219.18Y-85.53
X219.18Y-104.58
X222.1Y-56.22
X222.1Y-75.27
X222.1Y-94.32
X222.1Y-113.37
T4
X125.35Y-138.195
X135.13Y-135.445
T5
X86.052Y-36.525
X86.052Y-39.065
X86.052Y-41.605
X86.052Y-44.145
X86.052Y-46.685
X86.052Y-49.225
X86.052Y-51.765
X86.052Y-54.305
X86.052Y-56.845
X86.052Y-59.385
X86.052Y-61.925
X86.052Y-64.465
X86.052Y-67.005
X86.052Y-69.545
X86.052Y-72.085
X86.052Y-74.625
X86.052Y-77.165
X86.052Y-79.705
X86.052Y-82.245
X86.052Y-84.785
X88.593Y-36.525
X88.593Y-39.065
X88.593Y-41.605
X88.593Y-44.145
X88.593Y-46.685
X88.593Y-49.225
X88.593Y-51.765
X88.593Y-54.305
X88.593Y-56.845
X88.593Y-59.385
X88.593Y-61.925
X88.593Y-64.465
X88.593Y-67.005
X88.593Y-69.545
X88.593Y-72.085
X88.593Y-74.625
X88.593Y-77.165
X88.593Y-79.705
X88.593Y-82.245
X88.593Y-84.785
X103.832Y-36.525
X103.832Y-39.065
X103.832Y-41.605
X103.832Y-44.145
X103.832Y-46.685
X103.832Y-49.225
X103.832Y-51.765
X103.832Y-54.305
X103.832Y-56.845
X103.832Y-59.385
X103.832Y-61.925
X103.832Y-64.465
X103.832Y-67.005
X103.832Y-69.545
X103.832Y-72.085
X103.832Y-74.625
X103.832Y-77.165
X103.832Y-79.705
X103.832Y-82.245
X103.832Y-84.785
X106.373Y-36.525
X106.373Y-39.065
X106.373Y-41.605
X106.373Y-44.145
X106.373Y-46.685
X106.373Y-49.225
X106.373Y-51.765
X106.373Y-54.305
X106.373Y-56.845
X106.373Y-59.385
X106.373Y-61.925
X106.373Y-64.465
X106.373Y-67.005
X106.373Y-69.545
X106.373Y-72.085
X106.373Y-74.625
X106.373Y-77.165
X106.373Y-79.705
X106.373Y-82.245
X106.373Y-84.785
X118.4Y-37.46
X120.94Y-37.46
X152.43Y-132.86
X165.13Y-132.86
T6
X83.638Y-50.47
X83.638Y-53.01
X83.638Y-55.55
X83.638Y-58.09
X83.638Y-60.63
X83.638Y-63.17
X108.847Y-50.47
X108.847Y-53.01
X108.847Y-55.55
X108.847Y-58.09
X108.847Y-60.63
X108.847Y-63.17
T7
X83.301Y-36.597
X83.301Y-44.597
X96.0Y-113.04
X101.193Y-141.279
X104.0Y-113.04
X108.321Y-137.647
X116.221Y-137.567
X116.73Y-58.575
X116.73Y-77.675
X116.73Y-96.675
X116.73Y-115.725
X123.948Y-135.496
X124.73Y-58.575
X124.73Y-77.675
X124.73Y-96.675
X124.73Y-115.725
X135.78Y-56.075
X135.78Y-75.125
X135.78Y-94.175
X135.78Y-113.225
X135.78Y-132.275
X143.78Y-56.075
X143.78Y-75.125
X143.78Y-94.175
X143.78Y-113.225
X143.78Y-132.275
X154.83Y-53.61
X154.83Y-72.625
X154.83Y-91.675
X154.83Y-110.725
X154.83Y-129.775
X162.83Y-53.61
X162.83Y-72.625
X162.83Y-91.675
X162.83Y-110.725
X162.83Y-129.775
X173.88Y-56.075
X173.88Y-75.125
X173.88Y-94.175
X173.88Y-113.225
X173.88Y-132.275
X181.88Y-56.075
X181.88Y-75.125
X181.88Y-94.175
X181.88Y-113.225
X181.88Y-132.275
X192.93Y-60.975
X192.93Y-80.025
X192.93Y-99.075
X192.93Y-118.125
X200.93Y-60.975
X200.93Y-80.025
X200.93Y-99.075
X200.93Y-118.125
X211.98Y-60.975
X211.98Y-80.025
X211.98Y-99.075
X211.98Y-118.125
X219.98Y-60.975
X219.98Y-80.025
X219.98Y-99.075
X219.98Y-118.125
T8
X83.67Y-108.08
X83.67Y-110.62
X83.67Y-113.16
X83.67Y-115.7
X83.67Y-118.24
X86.92Y-108.07
X86.92Y-110.61
X86.92Y-113.15
X86.92Y-115.69
X86.92Y-118.23
X90.24Y-108.07
X90.24Y-110.61
X90.24Y-113.15
X90.24Y-115.69
X90.24Y-118.23
X93.0Y-102.0
X93.0Y-107.0
X107.5Y-102.0
X107.5Y-104.5
X107.5Y-107.0
X110.692Y-140.645
X110.692Y-143.185
T9
X188.46Y-121.83
X188.46Y-124.37
X188.46Y-126.91
T11
X130.075Y-81.37
X149.125Y-62.32
X149.125Y-100.42
X168.175Y-81.37
T12
X85.649Y-101.0
X103.59Y-120.53
X105.14Y-90.59
X112.01Y-37.117
X129.44Y-59.51
X129.53Y-97.46
X206.275Y-100.025
X206.29Y-61.91
T8
X84.44Y-88.97G85X84.94Y-88.97
G05
X84.44Y-94.92G85X84.94Y-94.92
G05
X87.44Y-88.97G85X87.94Y-88.97
G05
X87.44Y-94.92G85X87.94Y-94.92
G05
X91.44Y-88.97G85X91.94Y-88.97
G05
X91.44Y-94.92G85X91.94Y-94.92
G05
X92.94Y-90.72G85X93.44Y-90.72
G05
X92.94Y-93.17G85X93.44Y-93.17
G05
T10
X100.65Y-98.9G85X99.35Y-98.9
G05
X100.65Y-110.1G85X99.35Y-110.1
G05
T0
M30
