<?xml version="1.0" standalone="no"?>
<!DOCTYPE svg PUBLIC "-//W3C//DTD SVG 20010904//EN"
 "http://www.w3.org/TR/2001/REC-SVG-20010904/DTD/svg10.dtd">
<svg version="1.0" xmlns="http://www.w3.org/2000/svg"
 width="648.000000pt" height="648.000000pt" viewBox="0 0 648.000000 648.000000"
 preserveAspectRatio="xMidYMid meet">
<metadata>
Created by potrace 1.14, written by Peter Selinger 2001-2017
</metadata>
<g transform="translate(0.000000,648.000000) scale(0.100000,-0.100000)"
fill="#000000" stroke="none">
<path d="M1195 5739 c-22 -4 -97 -5 -166 -2 -79 3 -151 1 -194 -6 -72 -13
-271 -75 -290 -91 -10 -8 -42 -16 -176 -45 -9 -2 -50 -17 -91 -35 -135 -56
-224 -122 -258 -194 -45 -92 7 -361 100 -520 12 -19 23 -57 25 -83 7 -126 72
-271 157 -356 10 -10 18 -24 18 -33 0 -21 56 -142 88 -189 61 -92 182 -186
289 -228 41 -15 61 -31 83 -61 45 -67 88 -103 169 -143 42 -20 81 -39 86 -40
6 -1 37 -9 70 -18 141 -36 398 -41 500 -10 33 10 62 19 65 20 3 0 37 17 75 37
160 82 301 206 414 361 34 47 80 97 102 111 134 89 237 243 264 393 22 127 25
236 10 332 -64 401 -410 730 -786 746 -49 2 -114 13 -150 24 -35 11 -77 23
-94 27 -47 10 -266 12 -310 3z m243 -240 c21 -6 74 -38 118 -70 167 -123 182
-133 199 -119 9 7 15 29 15 52 0 36 2 39 23 33 93 -27 254 -132 310 -202 10
-13 24 -29 30 -36 42 -45 121 -196 132 -252 33 -169 26 -252 -33 -355 -28 -50
-84 -107 -125 -129 -24 -13 -30 -10 -119 56 -160 121 -313 216 -488 305 -52
26 -100 52 -107 58 -7 5 -17 10 -23 10 -6 0 -18 4 -28 10 -65 37 -441 185
-449 176 -4 -4 129 -77 182 -99 11 -4 22 -11 25 -15 3 -4 19 -14 35 -22 105
-51 502 -300 555 -347 8 -7 33 -27 55 -44 56 -43 123 -100 170 -146 73 -70 72
-65 24 -130 -51 -70 -151 -170 -211 -211 -82 -56 -147 -83 -263 -108 -28 -6
-178 -6 -196 0 -8 3 -27 8 -42 10 -54 9 -106 28 -203 73 l-36 16 54 26 c29 14
53 32 53 40 0 18 -64 51 -180 92 -49 17 -121 48 -160 68 -66 34 -155 107 -155
127 0 5 29 9 65 9 35 1 67 4 72 8 8 9 -55 67 -73 67 -6 0 -19 9 -29 20 -10 11
-23 20 -29 20 -6 0 -38 28 -71 63 -61 63 -106 140 -110 190 -2 24 1 27 26 27
36 0 79 16 79 30 0 6 -29 41 -65 77 -125 124 -188 229 -200 332 l-6 51 48 30
c113 72 253 94 476 76 99 -8 107 -1 62 52 -27 33 -32 52 -12 53 6 0 21 3 32 5
11 3 38 4 60 4 22 -1 47 -2 55 -2 26 0 132 -28 226 -60 51 -17 99 -28 108 -25
20 8 21 46 1 83 -13 26 -13 29 3 36 21 8 68 3 120 -13z"/>
<path d="M5010 5740 c-8 -5 -17 -7 -20 -5 -4 2 -26 -2 -51 -9 -24 -8 -46 -14
-49 -14 -3 0 -17 -5 -32 -11 -14 -5 -68 -12 -120 -15 -97 -6 -156 -19 -248
-56 -61 -24 -144 -69 -178 -97 -12 -10 -36 -29 -53 -43 -63 -50 -122 -117
-175 -196 -52 -78 -107 -200 -118 -256 -2 -15 -7 -31 -10 -36 -6 -11 -17 -110
-20 -185 -3 -82 11 -188 39 -282 33 -116 135 -250 238 -315 31 -19 56 -41 57
-47 0 -7 5 -13 10 -13 6 0 10 -5 10 -11 0 -14 105 -145 160 -199 62 -60 95
-88 155 -131 52 -37 239 -133 265 -136 8 -1 37 -6 64 -11 69 -14 318 -6 396
13 36 8 76 17 90 20 50 12 186 85 223 121 21 20 49 54 63 75 14 23 35 41 50
45 34 9 129 59 174 92 76 56 142 137 186 227 24 50 45 101 47 114 2 14 9 27
16 29 16 5 82 107 108 167 32 73 42 112 49 185 3 36 12 72 19 80 17 19 61 119
77 173 6 23 13 47 14 52 18 58 28 124 28 195 1 78 -2 89 -29 132 -54 85 -230
180 -406 219 -51 11 -98 24 -105 29 -6 6 -53 23 -105 40 -52 16 -110 35 -129
42 -22 8 -101 14 -215 15 -99 1 -243 5 -320 7 -77 3 -147 1 -155 -4z m158
-229 c10 -1 10 -6 1 -23 -20 -38 -23 -87 -4 -94 9 -4 68 11 133 32 127 42 126
41 192 50 75 10 170 0 170 -18 0 -5 -11 -23 -25 -40 -44 -53 -37 -59 68 -52
224 16 309 4 445 -63 67 -33 72 -38 72 -68 0 -93 -68 -218 -187 -340 -46 -47
-83 -90 -83 -95 0 -15 40 -32 76 -32 32 0 34 -2 29 -30 -17 -93 -103 -198
-238 -287 -43 -29 -77 -57 -74 -64 2 -6 30 -11 68 -12 76 -1 79 -11 17 -68
-44 -41 -196 -119 -281 -144 -62 -18 -137 -52 -155 -70 -19 -18 -7 -32 51 -57
l50 -22 -39 -19 c-22 -10 -41 -17 -43 -16 -2 2 -7 -1 -10 -7 -3 -5 -46 -20
-96 -34 -296 -84 -559 19 -765 296 l-42 58 24 25 c48 53 70 73 150 141 94 78
293 222 308 222 6 0 10 3 10 8 0 4 9 12 19 17 11 6 80 46 153 90 73 44 146 87
163 96 16 9 75 40 130 69 55 30 111 60 125 67 42 22 2 15 -68 -13 -466 -179
-721 -313 -1020 -537 -106 -79 -106 -79 -183 -7 -189 175 -133 542 118 770 76
69 86 76 165 114 109 52 118 53 119 19 1 -15 1 -33 0 -39 -1 -6 5 -17 13 -23
11 -9 22 -7 52 11 22 12 46 30 55 40 9 10 19 18 23 18 4 0 18 10 32 23 34 32
126 87 170 102 31 10 50 12 112 6z"/>
<path d="M3055 4375 c-127 -21 -146 -25 -223 -46 -180 -50 -367 -145 -527
-268 -70 -54 -254 -235 -310 -306 -44 -55 -42 -53 -85 -110 -16 -22 -33 -44
-38 -50 -33 -42 -122 -176 -122 -183 0 -5 -42 -52 -92 -104 -95 -98 -178 -192
-178 -203 0 -3 -8 -15 -18 -26 -11 -10 -25 -32 -33 -47 -8 -15 -16 -29 -19
-32 -5 -4 -58 -112 -81 -165 -13 -29 -37 -106 -43 -135 -3 -14 -7 -36 -10 -50
-31 -140 -24 -366 15 -540 6 -25 12 -52 14 -60 12 -58 85 -221 113 -252 8 -10
12 -18 8 -18 -6 0 19 -37 64 -93 52 -65 115 -128 180 -179 41 -32 80 -63 87
-68 7 -6 14 -10 17 -10 2 0 33 -17 67 -39 35 -21 74 -41 86 -45 12 -4 47 -38
77 -76 211 -260 571 -454 961 -515 122 -19 166 -22 304 -23 86 0 179 4 206 8
28 4 70 11 95 14 25 3 69 12 98 20 28 8 52 12 52 9 0 -3 7 0 15 7 8 7 15 10
15 7 0 -5 70 19 203 69 26 10 47 22 47 26 0 4 9 8 20 8 11 0 20 3 20 8 0 4 14
13 30 21 29 12 149 89 160 101 3 3 19 16 35 28 54 42 170 160 210 215 27 38
55 62 95 83 30 15 57 31 60 34 3 3 23 17 45 30 42 26 61 40 104 79 14 13 40
35 56 50 17 14 50 51 75 81 25 30 48 56 53 58 4 2 7 10 7 17 0 7 4 15 9 17 16
6 99 172 124 248 51 155 62 226 62 420 0 203 -24 332 -97 510 -76 188 -173
336 -332 506 -32 35 -82 102 -111 148 -60 96 -135 199 -147 204 -4 2 -8 9 -8
14 0 6 -33 47 -72 92 -62 68 -91 97 -172 171 -66 60 -212 153 -319 204 -120
56 -315 113 -437 127 -30 3 -59 8 -63 11 -19 11 -279 10 -352 -2z m360 -299
c90 -15 183 -45 275 -88 64 -31 170 -94 180 -108 3 -4 14 -11 24 -17 75 -41
227 -237 279 -360 197 -466 -143 -1044 -698 -1189 -78 -20 -129 -27 -231 -29
-158 -3 -238 7 -383 51 -259 78 -462 236 -578 451 -31 57 -64 142 -70 178 -2
17 -8 41 -12 55 -13 39 -10 217 5 300 16 91 47 185 86 264 32 63 68 119 81
124 4 2 7 8 7 14 0 18 122 132 193 182 134 92 307 156 472 173 28 3 52 7 54 9
6 6 270 -3 316 -10z m1314 -1243 c172 -92 261 -313 228 -562 -11 -78 -53 -196
-89 -249 -96 -140 -261 -242 -391 -242 -176 0 -259 128 -271 415 -11 266 81
488 256 619 85 63 174 70 267 19z m-2756 -78 c51 -33 119 -106 152 -161 28
-47 70 -168 81 -234 15 -84 9 -309 -11 -385 -46 -180 -114 -238 -268 -230 -99
6 -197 55 -286 142 -80 79 -109 124 -140 211 -73 213 -23 462 123 608 46 46
112 83 158 89 16 2 32 6 34 8 10 10 119 -24 157 -48z m1447 -729 c93 -11 110
-14 160 -26 26 -6 54 -13 61 -14 26 -5 134 -39 149 -47 8 -4 47 -22 85 -40 39
-18 72 -36 73 -41 2 -4 8 -8 14 -8 31 0 168 -132 201 -195 77 -143 48 -254
-103 -402 -86 -85 -323 -233 -372 -233 -8 0 -18 -4 -24 -9 -8 -8 -86 -36 -91
-33 -2 1 -24 -5 -50 -13 -27 -7 -68 -17 -93 -21 -77 -12 -292 -10 -355 3 -33
7 -72 15 -87 18 -46 9 -201 66 -263 98 -33 16 -70 35 -82 41 -13 6 -23 14 -23
19 0 4 -6 7 -13 7 -7 0 -49 29 -93 64 -220 173 -283 361 -179 525 35 56 125
133 201 173 61 32 193 82 249 94 93 21 181 36 240 41 39 3 71 6 72 7 6 5 274
-3 323 -8z"/>
</g>
</svg>
