<?xml version="1.0" encoding="UTF-8" standalone="no"?>
<!-- Generator: Adobe Illustrator 19.2.1, SVG Export Plug-In . SVG Version: 6.00 Build 0)  -->

<svg
   inkscape:version="1.2 (dc2aeda, 2022-05-15)"
   sodipodi:docname="sofle-pico-vector-logo-v2.svg"
   xml:space="preserve"
   style="enable-background:new 0 0 652 652;"
   viewBox="0 0 652 652"
   y="0px"
   x="0px"
   id="layer"
   version="1.1"
   xmlns:inkscape="http://www.inkscape.org/namespaces/inkscape"
   xmlns:sodipodi="http://sodipodi.sourceforge.net/DTD/sodipodi-0.dtd"
   xmlns="http://www.w3.org/2000/svg"
   xmlns:svg="http://www.w3.org/2000/svg"><defs
   id="defs543">
		
		
		
		
		
		
		
		
	
			
			
		
			
			
		
		
	
	
	
	
	
</defs><sodipodi:namedview
   id="namedview541"
   pagecolor="#ffffff"
   bordercolor="#000000"
   borderopacity="0.25"
   inkscape:showpageshadow="2"
   inkscape:pageopacity="0.0"
   inkscape:pagecheckerboard="0"
   inkscape:deskcolor="#d1d1d1"
   showgrid="false"
   inkscape:zoom="1.2038168"
   inkscape:cx="275.37414"
   inkscape:cy="414.51491"
   inkscape:window-width="2560"
   inkscape:window-height="1288"
   inkscape:window-x="1728"
   inkscape:window-y="332"
   inkscape:window-maximized="0"
   inkscape:current-layer="layer" />
<style
   type="text/css"
   id="style498">
	.st0{fill:#020203;}
	.st1{fill:#6ABF4B;}
	.st2{fill:#C31C4A;}
</style>
<path
   class="st0"
   d="m -62.504505,185.76847 c 7.4,-1.9 15.1,-3.6 17.2,-12.9 12.8,-3.2 15.4,-9.1 16.7,-15.4 3.3,-2.3 14.4,-8.5 13.3,-19.2 6.2000005,-4.3 9.7000005,-9.8 8.0000005,-17.7 6.7,-7.3 8.5,-13.4 5.6,-19 8.1,-10.000002 4.5,-15.200002 1,-20.400002 6.1,-11 0.7,-22.7 -16.1000005,-20.7 -6.7,-9.8 -21.3,-7.6 -23.6,-7.6 -2.5,-3.1 -5.9,-5.9 -16.1,-4.6 -6.6,-6 -14.1,-4.9 -21.8,-2 -9.1,-7.1 -15.2,-1.4 -21.999995,0.7 -11.3,-3.5 -13.9,1.4 -19.3,3.4 -12,-2.5 -15.7,3 -21.5,8.7 l -0.4,-0.2 c -2,-1 -4.3,-0.9 -6.3,0.1 v 0 c -18.2,10.6 -27.2,32 -30.3,43.000002 -3.2,-11.100002 -12.2,-32.500002 -30.3,-43.000002 l -0.3,-0.2 c -2,-0.9 -4.4,-0.8 -6.3,0.2 l -0.1,0.1 c -5.8,-5.7 -9.4,-11.2 -21.5,-8.7 -5.4,-2 -7.9,-6.9 -19,-3.3 -4.5,-1.4 -7.2,-4.5 -12.1,-4.4 h -1.3 c -2.6,0.1 -5.3,1.2 -8.5,3.6 -7.7,-2.9 -15.1,-4 -21.8,2 -10.2,-1.3 -13.6,1.4 -16.1,4.6 -2.3,-0.1 -16.9,-2.3 -23.6,7.5 -16.9,-1.9 -22.2,9.8 -16.1,20.7 -3.5,5.2 -7,10.4 1,20.400002 -2.8,5.6 -1,11.6 5.6,19 -1.8,7.8 1.7,13.4 8,17.7 -1.1,10.7 10,16.9 13.3,19.2 1.3,6.2 4,12.1 16.7,15.4 2.1,9.3 9.8,10.9 17.2,12.9"
   id="path500"
   sodipodi:nodetypes="ccccccccccccccssscccccccccccccccccccc" /><path
   class="st1"
   d="m -304.8045,89.268468 c 48.2,24.500002 76.2,44.200002 91.5,61.100002 -7.8,31 -48.8,32.4 -63.8,31.6 3.1,-1.4 5.6,-3.1 6.5,-5.6 -3.8,-2.7 -17.1,-0.2 -26.4,-5.4 3.6,-0.7 5.2,-1.5 6.9,-4 -8.8,-2.7 -18.2,-5.2 -23.8,-9.7 3,0 5.8,0.6 9.8,-2 -7.9,-4.3 -16.3,-7.6 -22.8,-14 4,-0.1 8.5,0 9.8,-1.5 -7.2,-4.4 -13.3,-9.3 -18.3,-14.6 5.7,0.6 8.1,0.1 9.5,-0.9 -5.5,-5.5 -12.3,-10.2 -15.7,-16.9 4.2,1.5 8.1,2 10.9,-0.2 -1.9,-4.1 -9.8,-6.5 -14.4,-16.100002 4.4,0.4 9.2,1 10.1,0 -2.1,-8.3 -5.6,-13 -9.1,-17.8 9.5,-0.2 24,0 23.3,-0.7 l -5.9,-6 c 9.3,-2.5 18.8,0.4 25.7,2.5 3.1,-2.4 -0.1,-5.5 -3.9,-8.6 7.9,1 15.1,2.8 21.5,5.3 3.5,-3.1 -2.3,-6.1 -5,-9.2 12.3,2.3 17.4,5.5 22.6,8.7 3.7,-3.6 0.2,-6.5 -2.3,-9.6 9.2,3.4 14,7.7 19,12 1.7,-2.3 4.3,-3.9 1.1,-9.4 6.5,3.7 11.5,8.1 15.1,13 4,-2.5 2.4,-6.1 2.4,-9.2 6.8,5.5 11.1,11.2 16.4,16.9 1,-0.7 2,-3.4 2.8,-7.4 16.2,15.5 39.1,54.600002 5.9,70.000002 -28.1,-23.1 -61.9,-39.8 -99.4,-52.300002 z"
   id="path504" /><path
   class="st1"
   d="m -49.604505,89.268468 c -48.2,24.500002 -76.199995,44.200002 -91.499995,61.100002 7.8,31 48.799995,32.4 63.799995,31.6 -3.1,-1.4 -5.6,-3.1 -6.5,-5.6 3.8,-2.7 17.1,-0.2 26.4,-5.4 -3.6,-0.7 -5.2,-1.5 -6.9,-4 8.8,-2.7 18.2,-5.2 23.8,-9.7 -3,0 -5.8,0.6 -9.8,-2 7.9,-4.2 16.3,-7.5 22.8,-13.9 -4,-0.1 -8.5,0 -9.8,-1.5 7.2,-4.4 13.3,-9.3 18.3,-14.6 -5.7,0.6 -8.1,0.1 -9.5,-0.9 5.5,-5.5 12.3,-10.2 15.7,-16.9 -4.2,1.5 -8.1,2 -10.9,-0.2 1.9,-4.1 9.8,-6.5 14.4000005,-16.100002 -4.4000005,0.4 -9.2000005,1 -10.1000005,0 2.1,-8.3 5.6,-13 9.1,-17.8 -9.5,-0.2 -24,0 -23.3,-0.7 l 5.9,-6 c -9.3,-2.5 -18.9,0.4 -25.7,2.5 -3.1,-2.4 0.1,-5.5 3.9,-8.6 -7.9,1 -15.1,2.8 -21.5,5.3 -3.5,-3.1 2.3,-6.1 5,-9.2 -12.3,2.3 -17.4,5.5 -22.6,8.7 -3.7,-3.6 -0.2,-6.5 2.3,-9.6 -9.2,3.4 -13.999995,7.7 -18.999995,12 -1.7,-2.3 -4.3,-3.9 -1.1,-9.4 -6.5,3.7 -11.5,8.1 -15.1,13 -4,-2.5 -2.4,-6.1 -2.4,-9.2 -6.8,5.5 -11.1,11.2 -16.4,16.9 -1,-0.7 -2,-3.4 -2.8,-7.4 -16.2,15.5 -39.1,54.600002 -5.9,70.000002 28.1,-23.2 61.899995,-39.9 99.399995,-52.400002 z"
   id="path506" /><path
   class="st2"
   d="M 210.50025,436.82302 C 211.04411,461.95048 187.7,488.7 155.8,488.9 c -31.9,0.2 -59.59087,-21.87895 -56.33862,-52.51535 3.25226,-30.6364 27.18695,-46.10804 56.36164,-46.23912 29.17469,-0.13108 54.13337,21.55002 54.67723,46.67749 z"
   id="path508"
   sodipodi:nodetypes="zszzz" /><path
   class="st2"
   d="m 157.07443,562.40913 c 26.5,0.6 52.1,-19.4 52.1,-31.1 0.1,-14.2 -21,-28.7 -52.4,-29.1 -32,-0.2 -52.4,11.6 -52.5,26.2 0,16.7 29.2,34.3 52.8,34 z"
   id="path526" /><path
   class="st2"
   d="m 94.36332,469.7372 c 9.33958,12.87985 7.84738,39.49011 0.0361,46.19289 -7.35846,5.05994 -21.356,2.54176 -30.9201,-12.54029 -8.60374,-17.54551 -0.30127,-32.78505 4.74625,-37.74585 5.04753,-4.96079 15.38308,-10.16658 26.13776,4.09325 z"
   id="path530"
   style="stroke-width:0.609887"
   sodipodi:nodetypes="ccczcc" /><path
   class="st2"
   d="m 215.49265,467.65288 c -9.33958,12.87985 -7.84738,39.49011 -0.0361,46.19289 7.35846,5.05994 21.356,2.54176 30.9201,-12.54029 8.60374,-17.54551 2.37799,-34.44643 -5.1616,-40.23792 -7.53959,-5.79149 -14.96773,-7.67451 -25.72241,6.58532 z"
   id="path530-7"
   style="fill:#c31c4a;stroke-width:0.609887"
   sodipodi:nodetypes="ccczcc" />
<path
   class="st0"
   d="m -62.504505,185.76847 c 7.4,-1.9 15.1,-3.6 17.2,-12.9 12.8,-3.2 15.4,-9.1 16.7,-15.4 3.3,-2.3 14.4,-8.5 13.3,-19.2 6.2000005,-4.3 9.7000005,-9.8 8.0000005,-17.7 6.7,-7.3 8.5,-13.4 5.6,-19 8.1,-10.000002 4.5,-15.200002 1,-20.400002 6.1,-11 0.7,-22.7 -16.1000005,-20.7 -6.7,-9.8 -21.3,-7.6 -23.6,-7.6 -2.5,-3.1 -5.9,-5.9 -16.1,-4.6 -6.6,-6 -14.1,-4.9 -21.8,-2 -9.1,-7.1 -15.2,-1.4 -21.999995,0.7 -11.3,-3.5 -13.9,1.4 -19.3,3.4 -12,-2.5 -15.7,3 -21.5,8.7 l -0.4,-0.2 c -2,-1 -4.3,-0.9 -6.3,0.1 v 0 c -18.2,10.6 -27.2,32 -30.3,43.000002 -3.2,-11.100002 -12.2,-32.500002 -30.3,-43.000002 l -0.3,-0.2 c -2,-0.9 -4.4,-0.8 -6.3,0.2 l -0.1,0.1 c -5.8,-5.7 -9.4,-11.2 -21.5,-8.7 -5.4,-2 -7.9,-6.9 -19,-3.3 -4.5,-1.4 -7.2,-4.5 -12.1,-4.4 h -1.3 c -2.6,0.1 -5.3,1.2 -8.5,3.6 -7.7,-2.9 -15.1,-4 -21.8,2 -10.2,-1.3 -13.6,1.4 -16.1,4.6 -2.3,-0.1 -16.9,-2.3 -23.6,7.5 -16.9,-1.9 -22.2,9.8 -16.1,20.7 -3.5,5.2 -7,10.4 1,20.400002 -2.8,5.6 -1,11.6 5.6,19 -1.8,7.8 1.7,13.4 8,17.7 -1.1,10.7 10,16.9 13.3,19.2 1.3,6.2 4,12.1 16.7,15.4 2.1,9.3 9.8,10.9 17.2,12.9"
   id="path975"
   sodipodi:nodetypes="ccccccccccccccssscccccccccccccccccccc" /><path
   d="m 73.61369,429.61817 c -20.1824,18.26444 -29.37305,38.40552 -23.70604,67.17917 5.667,28.77364 28.81733,40.30679 36.54335,43.87931 17.6619,24.04578 47.26199,32.81977 71.81757,32.79698 23.3055,0.1772 51.15832,-8.59679 67.77766,-32.64257 7.26996,-3.57252 29.05375,-15.10567 34.38623,-43.87931 5.3325,-28.77365 -6.44226,-54.31422 -25.43332,-72.57866 -20.23919,-34.43229 -42.35298,-48.81701 -79.97328,-50.59864 -37.2851,2.25024 -59.90333,21.41143 -81.41217,55.84372 z"
   style="fill:#020203;stroke-width:0.962732"
   id="path1020"
   sodipodi:nodetypes="cscccsccc" /><path
   class="st1"
   d="m 70.58822,323.91486 c 32.96594,16.75655 52.11628,30.23018 62.58058,41.78878 -5.33474,21.20216 -33.37631,22.15968 -43.63542,21.61253 2.12021,-0.95752 3.83007,-2.12022 4.44561,-3.83007 -2.59897,-1.84664 -11.69538,-0.13679 -18.05603,-3.69328 2.46218,-0.47876 3.55649,-1.02591 4.71919,-2.73576 -6.01868,-1.84664 -12.44772,-3.5565 -16.27779,-6.63423 2.05182,0 3.96686,0.41036 6.70262,-1.36788 -5.40313,-2.94095 -11.14824,-5.19795 -15.59385,-9.57517 2.73576,-0.0684 5.8135,0 6.70262,-1.02591 -4.92437,-3.00934 -9.09641,-6.36065 -12.51612,-9.98554 3.89847,0.41037 5.53992,0.0684 6.49744,-0.61554 -3.76167,-3.76168 -8.41247,-6.9762 -10.73787,-11.5586 2.87255,1.02591 5.53992,1.36788 7.45495,-0.13679 -1.29948,-2.80416 -6.70261,-4.44561 -9.84874,-11.01145 3.00934,0.27358 6.29225,0.68395 6.9078,0 -1.43628,-5.6767 -3.83007,-8.89123 -6.22386,-12.17414 6.49744,-0.13679 16.41458,0 15.93582,-0.47876 l -4.03525,-4.10364 c 6.36065,-1.70986 12.85808,0.27357 17.57727,1.70985 2.12022,-1.64146 -0.0684,-3.76168 -2.66736,-5.88189 5.40313,0.68394 10.3275,1.91503 14.70472,3.62488 2.39379,-2.12021 -1.57306,-4.17203 -3.4197,-6.29225 8.41247,1.57306 11.90057,3.76167 15.45706,5.95028 2.53058,-2.46218 0.13679,-4.44561 -1.57307,-6.56583 6.29226,2.3254 9.57517,5.26635 12.99488,8.20729 1.1627,-1.57306 2.94094,-2.66737 0.75233,-6.42904 4.44562,2.53058 7.86532,5.53992 10.32751,8.89123 2.73576,-1.70985 1.64146,-4.17204 1.64146,-6.29226 4.65079,3.76168 7.59174,7.66014 11.21662,11.5586 0.68394,-0.47876 1.36788,-2.3254 1.91504,-5.06116 11.07984,10.60108 26.74208,37.34316 4.03525,47.87585 C 119.35319,343.88593 96.236,332.46412 70.58822,323.91486 Z"
   id="path504-0"
   style="fill:#6abf4b;stroke-width:0.683941" /><path
   class="st1"
   d="m 245.12989,323.91486 c -32.96594,16.75655 -52.11628,30.23018 -62.58057,41.78878 5.33473,21.20216 33.3763,22.15968 43.63541,21.61253 -2.12021,-0.95752 -3.83006,-2.12022 -4.44561,-3.83007 2.59897,-1.84664 11.69539,-0.13679 18.05604,-3.69328 -2.46219,-0.47876 -3.5565,-1.02591 -4.7192,-2.73576 6.01868,-1.84664 12.44773,-3.5565 16.27779,-6.63423 -2.05182,0 -3.96685,0.41036 -6.70262,-1.36788 5.40314,-2.87255 11.14824,-5.12956 15.59385,-9.50678 -2.73576,-0.0684 -5.81349,0 -6.70262,-1.02591 4.92438,-3.00934 9.09642,-6.36065 12.51612,-9.98553 -3.89846,0.41036 -5.53992,0.0684 -6.49744,-0.61555 3.76168,-3.76167 8.41247,-6.97619 10.73787,-11.5586 -2.87255,1.02591 -5.53992,1.36788 -7.45495,-0.13679 1.29949,-2.80415 6.70262,-4.44561 9.84874,-11.01144 -3.00934,0.27357 -6.29225,0.68394 -6.9078,0 1.43628,-5.67671 3.83007,-8.89123 6.22386,-12.17415 -6.49743,-0.13678 -16.41457,0 -15.93582,-0.47875 l 4.03525,-4.10365 c -6.36064,-1.70985 -12.92647,0.27358 -17.57727,1.70985 -2.12022,-1.64146 0.0684,-3.76167 2.66737,-5.88189 -5.40313,0.68394 -10.32751,1.91504 -14.70473,3.62489 -2.39379,-2.12022 1.57306,-4.17204 3.4197,-6.29226 -8.41247,1.57307 -11.90056,3.76168 -15.45706,5.95029 -2.53058,-2.46219 -0.13678,-4.44562 1.57307,-6.56583 -6.29226,2.3254 -9.57517,5.26634 -12.99488,8.20729 -1.16269,-1.57307 -2.94094,-2.66737 -0.75233,-6.42905 -4.44562,2.53058 -7.86532,5.53992 -10.32751,8.89123 -2.73576,-1.70985 -1.64145,-4.17204 -1.64145,-6.29225 -4.6508,3.76167 -7.59175,7.66013 -11.21663,11.5586 -0.68394,-0.47876 -1.36788,-2.3254 -1.91504,-5.06117 -11.07983,10.60109 -26.74208,37.34317 -4.03525,47.87586 19.21874,-15.86743 42.33594,-27.28924 67.98371,-35.8385 z"
   id="path506-3"
   style="fill:#6abf4b;stroke-width:0.683941" /><path
   class="st0"
   d="m 236.30706,389.91514 c 5.06116,-1.29949 10.3275,-2.46219 11.76378,-8.82283 8.75444,-2.18861 10.53269,-6.22386 11.42181,-10.53269 2.257,-1.57307 9.84874,-5.8135 9.09641,-13.13166 4.24043,-2.94095 6.63422,-6.70262 5.47153,-12.10575 4.5824,-4.99277 5.81349,-9.16481 3.83006,-12.99488 5.53992,-6.83941 3.07774,-10.3959 0.68394,-13.95239 4.17204,-7.52335 0.47876,-15.52545 -11.01144,-14.15757 -4.5824,-6.70262 -14.56794,-5.19795 -16.141,-5.19795 -1.70985,-2.12022 -4.03525,-4.03525 -11.01145,-3.14613 -4.51401,-4.10364 -9.64356,-3.35131 -14.90991,-1.36788 -6.22386,-4.85598 -10.3959,-0.95752 -15.04669,0.47876 -7.72853,-2.39379 -9.50678,0.95752 -13.20006,2.3254 -8.20729,-1.70986 -10.73787,2.05182 -14.70472,5.95028 l -0.27358,-0.13679 c -1.36788,-0.68394 -2.94095,-0.61554 -4.30883,0.0684 v 0 c -12.44772,7.24977 -18.60318,21.8861 -20.7234,29.40945 -2.18861,-7.59174 -8.34408,-22.22808 -20.7234,-29.40945 l -0.20519,-0.13679 c -1.36788,-0.61555 -3.00934,-0.54715 -4.30882,0.13679 l -0.0684,0.0684 c -3.96685,-3.89846 -6.42904,-7.66014 -14.70472,-5.95028 -3.69328,-1.36788 -5.40313,-4.71919 -12.99488,-2.25701 -3.07773,-0.95751 -4.92437,-3.07773 -8.27568,-3.00934 H 95.0733 c -1.77825,0.0684 -3.62489,0.82073 -5.8135,2.46219 -5.26634,-1.98343 -10.3275,-2.73576 -14.90991,1.36788 -6.97619,-0.88912 -9.30159,0.95752 -11.01144,3.14613 -1.57307,-0.0684 -11.5586,-1.57307 -16.141,5.12955 -11.5586,-1.29948 -15.18349,6.70262 -11.01145,14.15758 -2.39379,3.55649 -4.78758,7.11298 0.68394,13.95239 -1.91503,3.83007 -0.68394,7.93371 3.83007,12.99487 -1.23109,5.33474 1.1627,9.16481 5.47153,12.10575 -0.75234,7.31817 6.8394,11.5586 9.09641,13.13166 0.88912,4.24044 2.73576,8.27569 11.42181,10.53269 1.43627,6.36065 6.70262,7.45496 11.76378,8.82284"
   id="path975-8"
   sodipodi:nodetypes="ccccccccccccccssscccccccccccccccccccc"
   style="fill:#020203;stroke-width:0.683941" /><path
   class="st2"
   d="m 534.07615,424.39383 c 0.54386,25.12746 -22.80025,51.87698 -54.70025,52.07698 -31.9,0.2 -59.59087,-21.87895 -56.33862,-52.51535 3.25226,-30.6364 27.18695,-46.10804 56.36164,-46.23912 29.17469,-0.13108 54.13337,21.55002 54.67723,46.67749 z"
   id="path508-0"
   sodipodi:nodetypes="zszzz"
   style="fill:#c31c4a" /><path
   class="st2"
   d="m 480.65033,549.97994 c 26.5,0.6 52.1,-19.4 52.1,-31.1 0.1,-14.2 -21,-28.7 -52.4,-29.1 -32,-0.2 -52.4,11.6 -52.5,26.2 0,16.7 29.2,34.3 52.8,34 z"
   id="path526-7"
   style="fill:#c31c4a" /><path
   class="st2"
   d="m 417.93922,457.30801 c 9.33958,12.87985 7.84738,39.49011 0.0361,46.19289 -7.35846,5.05994 -21.356,2.54176 -30.9201,-12.54029 -8.60374,-17.54551 -0.30127,-32.78505 4.74625,-37.74585 5.04753,-4.96079 15.38308,-10.16658 26.13776,4.09325 z"
   id="path530-2"
   style="fill:#c31c4a;stroke-width:0.609887"
   sodipodi:nodetypes="ccczcc" /><path
   class="st2"
   d="m 539.06855,455.22369 c -9.33958,12.87985 -7.84738,39.49011 -0.0361,46.19289 7.35846,5.05994 21.356,2.54176 30.9201,-12.54029 8.60374,-17.54551 2.37799,-34.44643 -5.1616,-40.23792 -7.53959,-5.79149 -14.96773,-7.67451 -25.72241,6.58532 z"
   id="path530-7-9"
   style="fill:#c31c4a;stroke-width:0.609887"
   sodipodi:nodetypes="ccczcc" /><path
   d="m 397.18959,417.18898 c -20.1824,18.26444 -29.37305,38.40552 -23.70604,67.17917 5.667,28.77364 28.81733,40.30679 36.54335,43.87931 17.6619,24.04578 47.26199,32.81977 71.81757,32.79698 23.3055,0.1772 51.15832,-8.59679 67.77766,-32.64257 7.26996,-3.57252 29.05375,-15.10567 34.38623,-43.87931 5.3325,-28.77365 -6.44226,-54.31422 -25.43332,-72.57866 -20.23919,-34.43229 -42.35298,-48.81701 -79.97328,-50.59864 -37.2851,2.25024 -59.90333,21.41143 -81.41217,55.84372 z"
   style="fill:#020203;stroke-width:0.962732"
   id="path1020-8"
   sodipodi:nodetypes="cscccsccc" /><path
   class="st1"
   d="m 343.64881,333.80639 c 32.96594,16.75655 52.11628,30.23018 62.58058,41.78878 -5.33474,21.20216 -33.37631,22.15968 -43.63542,21.61253 2.12021,-0.95752 3.83007,-2.12022 4.44561,-3.83007 -2.59897,-1.84664 -11.69538,-0.13679 -18.05603,-3.69328 2.46218,-0.47876 3.55649,-1.02591 4.71919,-2.73576 -6.01868,-1.84664 -12.44772,-3.5565 -16.27779,-6.63423 2.05182,0 3.96686,0.41036 6.70262,-1.36788 -5.40313,-2.94095 -11.14824,-5.19795 -15.59385,-9.57517 2.73576,-0.0684 5.8135,0 6.70262,-1.02591 -4.92437,-3.00934 -9.09641,-6.36065 -12.51612,-9.98554 3.89847,0.41037 5.53992,0.0684 6.49744,-0.61554 -3.76167,-3.76168 -8.41247,-6.9762 -10.73787,-11.5586 2.87255,1.02591 5.53992,1.36788 7.45495,-0.13679 -1.29948,-2.80416 -6.70261,-4.44561 -9.84874,-11.01145 3.00934,0.27358 6.29225,0.68395 6.9078,0 -1.43628,-5.6767 -3.83007,-8.89123 -6.22386,-12.17414 6.49744,-0.13679 16.41458,0 15.93582,-0.47876 l -4.03525,-4.10364 c 6.36065,-1.70986 12.85808,0.27357 17.57727,1.70985 2.12022,-1.64146 -0.0684,-3.76168 -2.66736,-5.88189 5.40313,0.68394 10.3275,1.91503 14.70472,3.62488 2.39379,-2.12021 -1.57306,-4.17203 -3.4197,-6.29225 8.41247,1.57306 11.90057,3.76167 15.45706,5.95028 2.53058,-2.46218 0.13679,-4.44561 -1.57307,-6.56583 6.29226,2.3254 9.57517,5.26635 12.99488,8.20729 1.1627,-1.57306 2.94094,-2.66737 0.75233,-6.42904 4.44562,2.53058 7.86532,5.53992 10.32751,8.89123 2.73576,-1.70985 1.64146,-4.17204 1.64146,-6.29226 4.65079,3.76168 7.59174,7.66014 11.21662,11.5586 0.68394,-0.47876 1.36788,-2.3254 1.91504,-5.06116 11.07984,10.60108 26.74208,37.34316 4.03525,47.87585 -19.21874,-15.79903 -42.33593,-27.22084 -67.98371,-35.7701 z"
   id="path504-0-1"
   style="fill:#6abf4b;stroke-width:0.683941" /><path
   class="st0"
   d="m 430.3041,342.49244 c -2.18861,-7.59174 -8.34408,-22.22808 -20.7234,-29.40945 l -0.20519,-0.13679 c -1.36788,-0.61555 -3.00934,-0.54715 -4.30882,0.13679 l -0.0684,0.0684 c -3.96685,-3.89846 -6.42904,-7.66014 -14.70472,-5.95028 -3.69328,-1.36788 -5.40313,-4.71919 -12.99488,-2.25701 -3.07773,-0.95751 -4.92437,-3.07773 -8.27568,-3.00934 h -0.88912 c -1.77825,0.0684 -3.62489,0.82073 -5.8135,2.46219 -5.26634,-1.98343 -10.3275,-2.73576 -14.90991,1.36788 -6.97619,-0.88912 -9.30159,0.95752 -11.01144,3.14613 -1.57307,-0.0684 -11.5586,-1.57307 -16.141,5.12955 -11.5586,-1.29948 -15.18349,6.70262 -11.01145,14.15758 -2.39379,3.55649 -4.78758,7.11298 0.68394,13.95239 -1.91503,3.83007 -0.68394,7.93371 3.83007,12.99487 -1.23109,5.33474 1.1627,9.16481 5.47153,12.10575 -0.75234,7.31817 6.8394,11.5586 9.09641,13.13166 0.88912,4.24044 2.73576,8.27569 11.42181,10.53269 1.43627,6.36065 6.70262,7.45496 11.76378,8.82284 0,0 3.85524,6.14639 13.84083,6.44009 9.98559,0.29369 33.02846,4.3129 50.22162,-27.9009 22.17097,-9.96644 14.72752,-35.78504 14.72752,-35.78504 z"
   id="path975-8-6"
   sodipodi:nodetypes="ccccccccccccccccccccscc"
   style="fill:#020203;stroke-width:0.683941" /><path
   class="st1"
   d="m 615.14348,328.21039 c -32.96594,16.75655 -52.11628,30.23018 -62.58058,41.78878 5.33474,21.20216 33.37631,22.15968 43.63542,21.61253 -2.12021,-0.95752 -3.83007,-2.12022 -4.44561,-3.83007 2.59897,-1.84664 11.69538,-0.13679 18.05603,-3.69328 -2.46218,-0.47876 -3.55649,-1.02591 -4.71919,-2.73576 6.01868,-1.84664 12.44772,-3.5565 16.27779,-6.63423 -2.05182,0 -3.96686,0.41036 -6.70262,-1.36788 5.40313,-2.94095 11.14824,-5.19795 15.59385,-9.57517 -2.73576,-0.0684 -5.8135,0 -6.70262,-1.02591 4.92437,-3.00934 9.09641,-6.36065 12.51612,-9.98554 -3.89847,0.41037 -5.53992,0.0684 -6.49744,-0.61554 3.76167,-3.76168 8.41247,-6.9762 10.73787,-11.5586 -2.87255,1.02591 -5.53992,1.36788 -7.45495,-0.13679 1.29948,-2.80416 6.70261,-4.44561 9.84874,-11.01145 -3.00934,0.27358 -6.29225,0.68395 -6.9078,0 1.43628,-5.6767 3.83007,-8.89123 6.22386,-12.17414 -6.49744,-0.13679 -16.41458,0 -15.93582,-0.47876 l 4.03525,-4.10364 c -6.36065,-1.70986 -12.85808,0.27357 -17.57727,1.70985 -2.12022,-1.64146 0.0684,-3.76168 2.66736,-5.88189 -5.40313,0.68394 -10.3275,1.91503 -14.70472,3.62488 -2.39379,-2.12021 1.57306,-4.17203 3.4197,-6.29225 -8.41247,1.57306 -11.90057,3.76167 -15.45706,5.95028 -2.53058,-2.46218 -0.13679,-4.44561 1.57307,-6.56583 -6.29226,2.3254 -9.57517,5.26635 -12.99488,8.20729 -1.1627,-1.57306 -2.94094,-2.66737 -0.75233,-6.42904 -4.44562,2.53058 -7.86532,5.53992 -10.32751,8.89123 -2.73576,-1.70985 -1.64146,-4.17204 -1.64146,-6.29226 -4.65079,3.76168 -7.59174,7.66014 -11.21662,11.5586 -0.68394,-0.47876 -1.36788,-2.3254 -1.91504,-5.06116 -11.07984,10.60108 -26.74208,37.34316 -4.03525,47.87585 19.21874,-15.79903 42.33593,-27.22084 67.98371,-35.7701 z"
   id="path504-0-1-7"
   style="fill:#6abf4b;stroke-width:0.683941" /><path
   class="st0"
   d="m 528.48819,336.89644 c 2.18861,-7.59174 8.34408,-22.22808 20.7234,-29.40945 l 0.20519,-0.13679 c 1.36788,-0.61555 3.00934,-0.54715 4.30882,0.13679 l 0.0684,0.0684 c 3.96685,-3.89846 6.42904,-7.66014 14.70472,-5.95028 3.69328,-1.36788 5.40313,-4.71919 12.99488,-2.25701 3.07773,-0.95751 4.92437,-3.07773 8.27568,-3.00934 h 0.88912 c 1.77825,0.0684 3.62489,0.82073 5.8135,2.46219 5.26634,-1.98343 10.3275,-2.73576 14.90991,1.36788 6.97619,-0.88912 9.30159,0.95752 11.01144,3.14613 1.57307,-0.0684 11.5586,-1.57307 16.141,5.12955 11.5586,-1.29948 15.18349,6.70262 11.01145,14.15758 2.39379,3.55649 4.78758,7.11298 -0.68394,13.95239 1.91503,3.83007 0.68394,7.93371 -3.83007,12.99487 1.23109,5.33474 -1.1627,9.16481 -5.47153,12.10575 0.75234,7.31817 -6.8394,11.5586 -9.09641,13.13166 -0.88912,4.24044 -2.73576,8.27569 -11.42181,10.53269 -1.43627,6.36065 -6.70262,7.45496 -11.76378,8.82284 0,0 -3.85524,6.14639 -13.84083,6.44009 -9.98559,0.29369 -33.02846,4.3129 -50.22162,-27.9009 -22.17097,-9.96644 -14.72752,-35.78504 -14.72752,-35.78504 z"
   id="path975-8-6-1"
   sodipodi:nodetypes="ccccccccccccccccccccscc"
   style="fill:#020203;stroke-width:0.683941" /><path
   class="st2"
   d="m 181.97441,150.32354 c 0.54386,25.12747 -22.80025,51.87698 -54.70025,52.07698 -31.9,0.2 -59.59087,-21.87894 -56.33862,-52.51535 3.25226,-30.6364 27.18695,-46.10804 56.36164,-46.23912 29.17469,-0.13108 54.13337,21.55002 54.67723,46.67749 z"
   id="path508-8"
   sodipodi:nodetypes="zszzz"
   style="fill:#c31c4a" /><path
   class="st2"
   d="m 128.54859,275.90966 c 26.5,0.6 52.1,-19.4 52.1,-31.10001 0.1,-14.2 -21,-28.7 -52.4,-29.1 -32,-0.2 -52.4,11.6 -52.5,26.20001 0,16.7 29.2,34.29999 52.8,34 z"
   id="path526-6"
   style="fill:#c31c4a" /><path
   class="st2"
   d="m 65.83748,183.23772 c 9.33958,12.87985 7.84738,39.49011 0.0361,46.19289 -7.35846,5.05994 -21.356,2.54176 -30.9201,-12.54029 -8.60374,-17.54551 -0.30127,-32.78505 4.74625,-37.74585 5.04753,-4.96079 15.38308,-10.16658 26.13776,4.09325 z"
   id="path530-9"
   style="fill:#c31c4a;stroke-width:0.609887"
   sodipodi:nodetypes="ccczcc" /><path
   class="st2"
   d="m 186.96681,181.1534 c -9.33958,12.87985 -7.84738,39.49011 -0.0361,46.1929 7.35846,5.05994 21.356,2.54175 30.9201,-12.5403 8.60374,-17.54551 2.37799,-34.44643 -5.1616,-40.23792 -7.53959,-5.79149 -14.96773,-7.67451 -25.72241,6.58532 z"
   id="path530-7-0"
   style="fill:#c31c4a;stroke-width:0.609887"
   sodipodi:nodetypes="ccczcc" /><path
   class="st1"
   d="m 42.06238,37.41538 c 32.96594,16.75655 52.11628,30.23018 62.58058,41.78878 -5.33474,21.20216 -33.37631,22.15968 -43.63542,21.61253 2.12021,-0.95752 3.83007,-2.12022 4.44561,-3.83007 -2.59897,-1.84664 -11.69538,-0.13679 -18.05603,-3.69328 2.46218,-0.47876 3.55649,-1.02591 4.71919,-2.73576 -6.01868,-1.84664 -12.44772,-3.5565 -16.27779,-6.63423 2.05182,0 3.96686,0.41036 6.70262,-1.36788 -5.40313,-2.94095 -11.14824,-5.19795 -15.59385,-9.57517 2.73576,-0.0684 5.8135,0 6.70262,-1.02591 -4.92437,-3.00934 -9.09641,-6.36065 -12.51612,-9.98554 3.89847,0.41037 5.53992,0.0684 6.49744,-0.61554 -3.76167,-3.76168 -8.41247,-6.9762 -10.73787,-11.5586 2.87255,1.02591 5.53992,1.36788 7.45495,-0.13679 -1.29948,-2.80416 -6.70261,-4.44561 -9.84874,-11.01145 3.00934,0.27358 6.29225,0.68395 6.9078,0 -1.43628,-5.6767 -3.83007,-8.89123 -6.22386,-12.17414 6.49744,-0.13679 16.41458,0 15.93582,-0.47876 l -4.03525,-4.10364 c 6.36065,-1.70986 12.85808,0.27357 17.57727,1.70985 2.12022,-1.64146 -0.0684,-3.76168 -2.66736,-5.88189 5.40313,0.68394 10.3275,1.91503 14.70472,3.62488 2.39379,-2.12021 -1.57306,-4.17203 -3.4197,-6.29225 8.41247,1.57306 11.90057,3.76167 15.45706,5.95028 2.53058,-2.46218 0.13679,-4.44561 -1.57307,-6.56583 6.29226,2.3254 9.57517,5.26635 12.99488,8.20729 1.1627,-1.57306 2.94094,-2.66737 0.75233,-6.42904 4.44562,2.53058 7.86532,5.53992 10.32751,8.89123 2.73576,-1.70985 1.64146,-4.17204 1.64146,-6.29226 4.65079,3.76168 7.59174,7.66014 11.21662,11.5586 0.68394,-0.47876 1.36788,-2.3254 1.91504,-5.06116 11.07984,10.60108 26.74208,37.34316 4.03525,47.87585 C 90.82735,57.38645 67.71016,45.96464 42.06238,37.41538 Z"
   id="path504-0-6"
   style="fill:#6abf4b;stroke-width:0.683941" /><path
   class="st1"
   d="m 216.60405,37.41538 c -32.96594,16.75655 -52.11628,30.23018 -62.58057,41.78878 5.33473,21.20216 33.3763,22.15968 43.63541,21.61253 -2.12021,-0.95752 -3.83006,-2.12022 -4.44561,-3.83007 2.59897,-1.84664 11.69539,-0.13679 18.05604,-3.69328 -2.46219,-0.47876 -3.5565,-1.02591 -4.7192,-2.73576 6.01868,-1.84664 12.44773,-3.5565 16.27779,-6.63423 -2.05182,0 -3.96685,0.41036 -6.70262,-1.36788 5.40314,-2.87255 11.14824,-5.12956 15.59385,-9.50678 -2.73576,-0.0684 -5.81349,0 -6.70262,-1.02591 4.92438,-3.00934 9.09642,-6.36065 12.51612,-9.98553 -3.89846,0.41036 -5.53992,0.0684 -6.49744,-0.61555 3.76168,-3.76167 8.41247,-6.97619 10.73787,-11.5586 -2.87255,1.02591 -5.53992,1.36788 -7.45495,-0.13679 1.29949,-2.80415 6.70262,-4.44561 9.84874,-11.01144 -3.00934,0.27357 -6.29225,0.68394 -6.9078,0 1.43628,-5.67671 3.83007,-8.89123 6.22386,-12.17415 -6.49743,-0.13678 -16.41457,0 -15.93582,-0.47875 l 4.03525,-4.10365 c -6.36064,-1.70985 -12.92647,0.27358 -17.57727,1.70985 -2.12022,-1.64146 0.0684,-3.76167 2.66737,-5.88189 -5.40313,0.68394 -10.32751,1.91504 -14.70473,3.62489 -2.39379,-2.12022 1.57306,-4.17204 3.4197,-6.29226 -8.41247,1.57307 -11.90056,3.76168 -15.45706,5.95029 -2.53058,-2.46219 -0.13678,-4.44562 1.57307,-6.56583 -6.29226,2.3254 -9.57517,5.26634 -12.99488,8.20729 -1.16269,-1.57307 -2.94094,-2.66737 -0.75233,-6.42905 -4.44562,2.53058 -7.86532,5.53992 -10.32751,8.89123 -2.73576,-1.70985 -1.64145,-4.17204 -1.64145,-6.29225 -4.6508,3.76167 -7.59175,7.66013 -11.21663,11.5586 -0.68394,-0.47876 -1.36788,-2.3254 -1.91504,-5.06117 -11.07983,10.60109 -26.74208,37.34317 -4.03525,47.87586 19.21874,-15.86743 42.33594,-27.28924 67.98371,-35.8385 z"
   id="path506-3-4"
   style="fill:#6abf4b;stroke-width:0.683941" /><path
   class="st0"
   d="m 219.545,94.59284 c 8.75444,-2.18861 10.53269,-6.22387 11.42181,-10.5327 2.257,-1.57306 9.84874,-5.81349 9.09641,-13.13166 4.24043,-2.94094 6.63422,-6.70262 5.47153,-12.10575 4.5824,-4.99277 5.81349,-9.16481 3.83006,-12.99488 5.53992,-6.83941 3.07774,-10.3959 0.68394,-13.95239 4.17204,-7.52335 0.47876,-15.52544 -11.01144,-14.15757 -4.5824,-6.70262 -14.56794,-5.19795 -16.141,-5.19795 -1.70985,-2.12022 -4.03525,-4.0352505 -11.01145,-3.1461305 -4.51401,-4.10364 -9.64356,-3.35131 -14.90991,-1.36788 -6.22386,-4.85598 -10.3959,-0.95752 -15.04669,0.47876 -7.72853,-2.39379 -9.50678,0.95752 -13.20006,2.3254005 -8.20729,-1.7098605 -10.73787,2.05182 -14.70472,5.95028 l -0.27358,-0.13679 c -1.36788,-0.68394 -2.94095,-0.61554 -4.30883,0.0684 v 0 c -12.44772,7.24977 -18.60318,21.8861 -20.7234,29.40945 -2.18861,-7.59174 -8.34408,-22.22808 -20.7234,-29.40945 l -0.20519,-0.13679 c -1.36788,-0.61555 -3.00934,-0.54715 -4.30882,0.13679 l -0.0684,0.0684 C 99.44501,12.86192 96.98282,9.1002395 88.70714,10.8101 85.01386,9.4422195 83.30401,6.0909095 75.71226,8.5530895 c -3.07773,-0.95751 -4.92437,-3.07773 -8.27568,-3.00934 h -0.88912 c -1.77825,0.0684 -3.62489,0.82073 -5.8135,2.46219 -5.26634,-1.98343 -10.3275,-2.73576 -14.90991,1.36788 C 38.84786,8.4846995 36.52246,10.33134 34.81261,12.51996 33.23954,12.45156 23.25401,10.94689 18.67161,17.6495 7.11301,16.35002 3.48812,24.35213 7.66016,31.80708 5.26637,35.36357 2.87258,38.92006 8.3441,45.75947 c -1.91503,3.83007 -0.68394,7.93371 3.83007,12.99487 -1.23109,5.33474 1.1627,9.16481 5.47153,12.10575 -0.75234,7.31817 6.8394,11.5586 9.09641,13.13166 0.88912,4.24044 2.73576,8.27569 11.42181,10.53269 1.43627,6.36066 6.70262,7.45497 11.86976,9.01012 2.50941,10.07354 22.73057,5.88609 -4.94583,39.58414 -20.1824,18.26444 -29.37305,38.40552 -23.70604,67.17916 5.667,28.77364 28.81733,40.3068 36.54335,43.87931 17.6619,24.04579 47.26199,32.81977 71.81757,32.79698 23.3055,0.1772 51.15832,-8.59679 67.77766,-32.64257 7.26996,-3.57252 29.05375,-15.10567 34.38623,-43.87931 5.3325,-28.77364 -6.44226,-54.31421 -25.43332,-72.57866 -29.34369,-25.18094 0.23261,-19.88817 0.90336,-33.64405 5.46572,-2.11338 10.73206,-3.27609 12.16834,-9.63672 z"
   id="path975-8-4"
   sodipodi:nodetypes="cccccccccccccssscccccccccccccccccccccscccsccc"
   style="fill:#020203;stroke-width:0.683941" /></svg>
