<?xml version="1.0" encoding="UTF-8" standalone="no"?>
<!-- Generator: Adobe Illustrator 19.2.1, SVG Export Plug-In . SVG Version: 6.00 Build 0)  -->

<svg
   inkscape:version="1.2 (dc2aeda, 2022-05-15)"
   sodipodi:docname="sofle-pico-vector-logo-v5-text-only-inverted.svg"
   xml:space="preserve"
   viewBox="0 0 730.7109 164.46876"
   y="0px"
   x="0px"
   id="layer"
   version="1.1"
   width="730.71094"
   height="164.46875"
   inkscape:export-filename="sofle-pico-vector-logo-v5-132x31.svg"
   inkscape:export-xdpi="10.772038"
   inkscape:export-ydpi="10.772038"
   xmlns:inkscape="http://www.inkscape.org/namespaces/inkscape"
   xmlns:sodipodi="http://sodipodi.sourceforge.net/DTD/sodipodi-0.dtd"
   xmlns="http://www.w3.org/2000/svg"
   xmlns:svg="http://www.w3.org/2000/svg"><defs
   id="defs543">
		
		
		
		
		
		
		
		
	
			
			
		
			
			
		
		
	
	
	
	
	
</defs><sodipodi:namedview
   id="namedview541"
   pagecolor="#ffffff"
   bordercolor="#000000"
   borderopacity="0.25"
   inkscape:showpageshadow="2"
   inkscape:pageopacity="0.0"
   inkscape:pagecheckerboard="0"
   inkscape:deskcolor="#d1d1d1"
   showgrid="false"
   inkscape:zoom="1.7024541"
   inkscape:cx="285.17656"
   inkscape:cy="213.22161"
   inkscape:window-width="2560"
   inkscape:window-height="1288"
   inkscape:window-x="1736"
   inkscape:window-y="365"
   inkscape:window-maximized="0"
   inkscape:current-layer="layer" />
<style
   type="text/css"
   id="style498">
	.st0{fill:#020203;}
	.st1{fill:#6ABF4B;}
	.st2{fill:#C31C4A;}
</style>

<path
   id="path574"
   style="font-weight:bold;font-size:185.048px;font-family:Futura;-inkscape-font-specification:'Futura, Bold';text-align:end;text-anchor:end;stroke-width:0"
   d="M 0,0 V 164.46875 H 730.71094 V 0 Z m 261.74024,14.097656 c 5.68979,0 11.06351,1.001942 16.12109,3.003906 5.16294,2.001958 9.64041,4.739707 13.4336,8.216797 3.89855,3.477083 6.95332,7.586643 9.16601,12.328125 2.31806,4.636122 3.47852,9.641944 3.47852,15.015625 V 148.75586 H 275.33203 V 52.662109 c 0,-1.896591 -0.36986,-3.689135 -1.10742,-5.375 -0.6322,-1.791225 -1.57935,-3.370469 -2.84375,-4.740234 -1.15903,-1.369759 -2.58172,-2.475427 -4.26758,-3.31836 -1.58049,-0.842925 -3.37108,-1.265625 -5.37304,-1.265625 -2.00196,0 -3.84734,0.4227 -5.53321,1.265625 -1.68585,0.842933 -3.10855,1.948601 -4.26757,3.31836 -1.15904,1.264398 -2.10619,2.792759 -2.84375,4.583984 -0.6322,1.791232 -0.94922,3.634659 -0.94922,5.53125 v 15.013672 h 16.4375 v 23.865234 h -16.4375 V 148.75586 H 219.54102 V 91.541015 H 209.26758 V 67.675781 h 10.27344 V 52.662109 c 0,-5.373681 1.10567,-10.379503 3.31836,-15.015625 2.31806,-4.741482 5.37282,-8.851042 9.16601,-12.328125 3.89855,-3.47709 8.37797,-6.214839 13.43555,-8.216797 5.16295,-2.001964 10.58952,-3.003906 16.2793,-3.003906 z M 57.898438,26.267578 c 5.900507,0 12.06484,0.843445 18.492187,2.529297 6.427347,1.580498 12.591674,3.950338 18.492188,7.111328 L 82.554688,60.089844 c -3.371717,-2.739524 -6.743511,-4.741461 -10.115235,-6.00586 -3.371723,-1.369759 -6.637844,-2.054687 -9.798828,-2.054687 -4.003923,0 -7.270037,0.949111 -9.798828,2.845703 -2.528791,1.896598 -3.794922,4.372111 -3.794922,7.427734 0,2.107325 0.634046,3.845085 1.898438,5.214844 1.264398,1.369765 2.896479,2.583053 4.898437,3.636719 2.107325,0.948292 4.426287,1.789777 6.955078,2.527343 2.634158,0.73756 5.215343,1.528155 7.744141,2.371094 10.115156,3.371717 17.490831,7.902009 22.126953,13.591797 4.741489,5.584408 7.111328,12.909199 7.111328,21.970699 0,6.11126 -1.052825,11.64154 -3.160156,16.59376 -2.001965,4.95221 -5.00585,9.22028 -9.009766,12.80273 -3.898556,3.47709 -8.745868,6.16396 -14.541015,8.06055 -5.689775,2.00196 -12.169174,3.00195 -19.439454,3.00195 -15.067384,0 -29.028132,-4.47746 -41.882812,-13.43359 l 13.275391,-24.97266 c 4.636115,4.10929 9.221197,7.16601 13.751953,9.16797 4.530749,2.00196 9.008205,3.00195 13.433594,3.00195 5.057581,0 8.797278,-1.15849 11.220703,-3.47656 2.52879,-2.31806 3.792968,-4.95208 3.792968,-7.90234 0,-1.79123 -0.315066,-3.31959 -0.947265,-4.58399 -0.6322,-1.36976 -1.686984,-2.58111 -3.16211,-3.63477 -1.475125,-1.15903 -3.424225,-2.21185 -5.847656,-3.16015 -2.318051,-0.9483 -5.161473,-2.00309 -8.533203,-3.162112 C 44.728506,98.65357 40.775509,97.283719 36.876953,95.808594 33.08377,94.228095 29.661092,92.173315 26.605469,89.644531 23.655212,87.115734 21.230583,83.955292 19.333984,80.162109 17.542766,76.263553 16.648438,71.363404 16.648438,65.46289 c 0,-5.900514 0.947158,-11.221408 2.84375,-15.96289 2.001958,-4.846855 4.74166,-8.954455 8.21875,-12.326172 3.582449,-3.47709 7.903356,-6.163956 12.960937,-8.060547 5.162955,-1.896591 10.904582,-2.845703 17.226563,-2.845703 z m 390.488282,4.492187 h 20.37305 c 9.98099,0 17.51793,0.694879 22.61133,2.083985 5.14483,1.389112 9.67195,4.012464 13.58203,7.871094 6.84264,6.688286 10.26367,15.125716 10.26367,25.3125 0,10.907055 -3.65331,19.55008 -10.95898,25.929687 -7.30568,6.3796 -17.15758,9.570309 -29.55665,9.570309 h -8.33398 v 48.38673 h -17.98047 z m 88.67774,1.542969 c 3.13835,0 5.8131,1.106075 8.02539,3.31836 2.21227,2.160831 3.31836,4.810868 3.31836,7.949218 0,3.13835 -1.10609,5.813106 -3.31836,8.025391 -2.16083,2.212278 -4.81087,3.318359 -7.94922,3.318359 -3.13835,0 -5.81311,-1.106081 -8.02539,-3.318359 -2.21228,-2.212285 -3.31836,-4.913719 -3.31836,-8.103516 0,-3.035457 1.10608,-5.658816 3.31836,-7.871093 2.21228,-2.212285 4.86231,-3.31836 7.94922,-3.31836 z m -70.69727,15.048828 v 37.50586 h 6.71289 c 16.51493,0 24.77344,-6.352793 24.77344,-19.060547 0,-12.296161 -8.51551,-18.445313 -25.54492,-18.445313 z m -98.94726,17.322266 c 6.84881,0 13.01313,1.052832 18.49218,3.160156 5.47906,2.001958 10.11502,4.953007 13.90821,8.851563 3.79318,3.898556 6.68944,8.693031 8.6914,14.382812 2.00196,5.584415 3.00391,11.905301 3.00391,18.964841 v 3.00391 h -60.2168 c 0,12.32786 5.79447,18.49219 17.38477,18.49219 6.2166,0 10.90541,-2.53031 14.0664,-7.58789 h 27.66016 c -5.58441,18.54447 -19.5471,27.81836 -41.88477,27.81836 -6.8488,0 -13.11686,-1.00195 -18.80664,-3.00391 -5.68978,-2.10732 -10.58993,-5.05837 -14.69922,-8.85156 -4.00391,-3.79319 -7.11152,-8.32348 -9.32421,-13.5918 -2.2127,-5.26831 -3.32032,-11.16846 -3.32032,-17.70117 0,-6.74345 1.05478,-12.802102 3.16211,-18.175783 2.10733,-5.479048 5.10926,-10.115014 9.00782,-13.908203 3.89855,-3.79319 8.58736,-6.691402 14.0664,-8.69336 5.58442,-2.107324 11.85443,-3.160156 18.8086,-3.160156 z m -211.42579,0.07813 a 43.611286,43.611286 0 0 1 43.61133,43.611332 43.611286,43.611286 0 0 1 -43.61133,43.61132 43.611286,43.611286 0 0 1 -43.61132,-43.61132 43.611286,43.611286 0 0 1 43.61132,-43.611332 z m 447.29102,7.912109 c 7.40857,0 14.40484,1.774283 20.99023,5.324219 v 23.076174 c -3.96154,-4.836151 -7.51203,-8.154389 -10.65039,-9.95508 -3.08689,-1.852145 -6.71353,-2.779297 -10.88086,-2.779297 -6.53392,0 -11.96151,2.290232 -16.2832,6.86914 -4.32163,4.578909 -6.48242,10.314907 -6.48242,17.208987 0,7.04843 2.08274,12.83582 6.25,17.36328 4.2188,4.52746 9.59498,6.79101 16.12891,6.79101 4.16732,0 7.84727,-0.90047 11.0371,-2.70117 3.08689,-1.74924 6.71354,-5.1436 10.88086,-10.18555 v 22.91993 c -7.04842,3.65283 -14.09609,5.47851 -21.14453,5.47851 -11.62731,0 -21.35168,-3.75416 -29.17187,-11.26562 -7.82014,-7.56291 -11.73047,-16.95222 -11.73047,-28.16797 0,-11.21575 3.96174,-20.683132 11.88476,-28.400391 7.92309,-7.717259 17.64745,-11.576172 29.17188,-11.576172 z m 74.31641,0 c 11.21572,0 20.73449,3.832235 28.55468,11.498047 7.71726,7.665806 11.57422,17.081796 11.57422,28.246096 0,11.2672 -3.88362,20.7079 -11.65234,28.32226 -7.82013,7.56291 -17.41504,11.34375 -28.78516,11.34375 -11.26717,0 -20.7079,-3.85696 -28.32226,-11.57422 -7.61442,-7.61436 -11.42188,-17.18454 -11.42188,-28.70898 0,-10.85561 3.88363,-20.090712 11.65234,-27.705078 7.76872,-7.614359 17.23609,-11.421875 28.4004,-11.421875 z m -149.18164,2.083985 h 17.36328 V 149.91407 H 528.41993 Z M 368.21094,83.16602 c -4.42538,0 -8.06136,1.158505 -10.90625,3.476563 -2.73952,2.318058 -4.47728,5.584172 -5.21484,9.798828 h 32.71484 c -0.9483,-4.003923 -2.8974,-7.217201 -5.84766,-9.640625 -2.95025,-2.423424 -6.53143,-3.634766 -10.74609,-3.634766 z m 309.39063,5.164063 c -6.63684,0 -12.01301,2.212156 -16.12891,6.636719 -4.11585,4.424562 -6.17383,10.135828 -6.17383,17.132808 0,7.51147 2.00658,13.45306 6.01953,17.82617 4.11591,4.42457 9.54348,6.63672 16.28321,6.63672 6.79119,0 12.2188,-2.18547 16.2832,-6.55859 4.06439,-4.37312 6.09765,-10.21191 6.09766,-17.51758 0,-7.30566 -2.03327,-13.146413 -6.09766,-17.519528 -4.11586,-4.424563 -9.54348,-6.636719 -16.2832,-6.636719 z m -521.54883,1.15625 c -2.5288,0 -4.95148,0.475529 -7.26953,1.423828 -2.21269,0.948289 -4.16179,2.265304 -5.84766,3.951172 -1.58049,1.685858 -2.89751,3.634968 -3.95117,5.847657 -0.9483,2.21269 -1.42383,4.58254 -1.42383,7.11133 0,2.73952 0.47553,5.26788 1.42383,7.58593 1.05366,2.21269 2.37068,4.16374 3.95117,5.84961 1.68587,1.68586 3.63497,3.00288 5.84766,3.95118 2.31805,0.94829 4.74073,1.42187 7.26953,1.42187 2.52877,0 4.9006,-0.47358 7.11328,-1.42187 2.31806,-0.9483 4.26717,-2.26532 5.84765,-3.95118 1.68587,-1.68587 3.00288,-3.63692 3.95118,-5.84961 1.05366,-2.31805 1.58008,-4.79357 1.58008,-7.42773 -1e-5,-2.52879 -0.52642,-4.89864 -1.58008,-7.11133 -0.9483,-2.318055 -2.26531,-4.319999 -3.95118,-6.005857 -1.58048,-1.685868 -3.52959,-3.002883 -5.84765,-3.951172 -2.21268,-0.948299 -4.58451,-1.423828 -7.11328,-1.423828 z" /></svg>
