<?xml version="1.0" encoding="UTF-8" standalone="no"?>
<!-- Generator: Adobe Illustrator 19.2.1, SVG Export Plug-In . SVG Version: 6.00 Build 0)  -->

<svg
   inkscape:version="1.2 (dc2aeda, 2022-05-15)"
   sodipodi:docname="sofle-pico-vector-logo-v4-hollow-half.svg"
   xml:space="preserve"
   viewBox="0 0 353.27362 273.80363"
   y="0px"
   x="0px"
   id="layer"
   version="1.1"
   width="353.27362"
   height="273.80362"
   xmlns:inkscape="http://www.inkscape.org/namespaces/inkscape"
   xmlns:sodipodi="http://sodipodi.sourceforge.net/DTD/sodipodi-0.dtd"
   xmlns="http://www.w3.org/2000/svg"
   xmlns:svg="http://www.w3.org/2000/svg"><defs
   id="defs543">
		
		
		
		
		
		
		
		
	
			
			
		
			
			
		
		
	
	
	
	
	
</defs><sodipodi:namedview
   id="namedview541"
   pagecolor="#ffffff"
   bordercolor="#000000"
   borderopacity="0.25"
   inkscape:showpageshadow="2"
   inkscape:pageopacity="0.0"
   inkscape:pagecheckerboard="0"
   inkscape:deskcolor="#d1d1d1"
   showgrid="false"
   inkscape:zoom="3.4049081"
   inkscape:cx="31.278377"
   inkscape:cy="130.4"
   inkscape:window-width="2560"
   inkscape:window-height="1288"
   inkscape:window-x="1728"
   inkscape:window-y="332"
   inkscape:window-maximized="0"
   inkscape:current-layer="layer" />
<style
   type="text/css"
   id="style498">
	.st0{fill:#020203;}
	.st1{fill:#6ABF4B;}
	.st2{fill:#C31C4A;}
</style>

<path
   id="path508-0"
   style="fill:#c31c4a"
   class="st2"
   d="m 175.20493,74.101763 c -37.28506,2.25024 -59.90329,21.4115 -81.412108,55.843747 -20.18238,18.26442 -29.37208,38.40412 -23.70507,67.17774 5.66699,28.77361 28.816952,40.30834 36.542958,43.88086 17.66189,24.04575 47.26085,32.81966 71.81641,32.79687 23.30548,0.1772 51.15997,-8.59682 67.7793,-32.64258 7.26995,-3.57251 29.05229,-15.10529 34.38476,-43.8789 5.3325,-28.77362 -6.44255,-54.31566 -25.43359,-72.58008 -20.23917,-34.432257 -42.3524,-48.816027 -79.97266,-50.597657 z m 0.79688,16.3711 c 29.17466,-0.13108 54.13387,21.550287 54.67773,46.677727 0.54386,25.12744 -22.8012,51.87617 -54.70117,52.07617 -31.89997,0.2 -59.59014,-21.87925 -56.33789,-52.51562 3.25226,-30.63637 27.18667,-46.107197 56.36133,-46.238277 z m 75.27344,66.589837 c 3.5438,0.0131 6.82057,1.79826 10.11914,4.33203 7.53958,5.79149 13.76584,22.69279 5.1621,40.23828 -9.56409,15.08204 -23.56146,17.599 -30.91992,12.53907 -7.81127,-6.70278 -9.30441,-33.31157 0.0352,-46.19141 6.0495,-8.02115 11.0472,-10.93476 15.60352,-10.91797 z m -151.941406,3.74609 c 4.559156,-0.13906 9.831646,2.12596 15.208976,9.25586 9.33957,12.87984 7.84643,39.48864 0.0352,46.19141 -7.35845,5.05993 -21.355828,2.54297 -30.919918,-12.53906 -8.60373,-17.54549 -0.30142,-32.7853 4.74609,-37.7461 2.52376,-2.48039 6.37053,-5.02304 10.929692,-5.16211 z m 77.619136,41.72657 c 31.39997,0.4 52.50039,14.90157 52.40039,29.10156 0,11.69999 -25.59964,31.69961 -52.09961,31.09961 -23.59998,0.3 -52.80078,-17.30002 -52.80078,-34 0.1,-14.59999 20.50003,-26.40117 52.5,-26.20117 z" /><path
   id="path388"
   style="font-variation-settings:normal;opacity:1;vector-effect:none;fill:#6abf4b;fill-opacity:1;stroke-width:0.683941;stroke-linecap:butt;stroke-linejoin:miter;stroke-miterlimit:4;stroke-dasharray:none;stroke-dashoffset:0;stroke-opacity:1;-inkscape-stroke:none;stop-color:#000000;stop-opacity:1"
   d="M 71.834677,0.00820059 C 68.029693,0.07581259 64.335101,0.55970599 60.96163,1.38906 54.765188,-0.12013931 46.095793,0.33758489 40.033896,2.2777318 35.78286,3.9181238 31.729382,4.4828897 28.278037,6.8226536 19.526877,7.8473606 10.981683,11.204649 4.1139738,16.76406 c -2.4968512,2.135858 -3.99390849,5.330514 -4.08789059,8.611328 -0.1594774,3.218854 0.4362627,6.423606 1.13476559,9.550782 1.3657127,5.331726 3.2338365,11.602434 6.5390628,15.996094 -0.14224,7.626176 3.1653104,17.372848 9.3046874,22.830078 C 21.994595,92.438744 36.3127,97.252106 41.301474,99.107806 48.33406,114.72907 77.934696,115.83871 89.403037,112.19961 104.37315,105.89066 113.13917,97.403746 120.94796,85.209373 127.81358,81.312134 133.48222,75.128943 136.21554,67.67031 147.87541,29.880923 116.76668,1.4007273 90.803427,3.4632787 84.824514,0.93893199 78.176317,-0.10448641 71.834677,0.00820059 Z M 73.414755,12.695701 C 85.507905,12.131812 98.021154,34.212779 96.279994,18.974998 122.47809,25.752504 135.435,61.877891 113.44796,73.348045 94.229262,57.549051 71.111308,46.127755 45.463584,37.578514 78.429451,54.335027 97.579384,67.808998 108.04367,79.367576 90.125618,107.09836 67.22867,102.17951 53.705771,94.596092 73.830208,88.469156 38.016338,87.564772 32.528037,74.906638 c 22.0501,0.718388 -7.837032,-3.469815 -9.636719,-21.316406 17.02553,-0.822439 -7.86347,-6.454229 -8.859375,-26.808594 20.014574,-14.387271 42.226969,2.244046 30.041015,-11.103515 15.37244,-5.514642 34.088173,13.14831 26.931641,-2.548828 0.798124,-0.256634 1.603946,-0.396001 2.410156,-0.433594 z" /><path
   id="path388-8"
   style="font-variation-settings:normal;vector-effect:none;fill:#6abf4b;fill-opacity:1;stroke-width:0.683941;stroke-linecap:butt;stroke-linejoin:miter;stroke-miterlimit:4;stroke-dasharray:none;stroke-dashoffset:0;stroke-opacity:1;-inkscape-stroke:none;stop-color:#000000"
   d="m 281.43895,0.00820059 c 3.80498,0.067612 7.49957,0.5515054 10.87305,1.38085941 6.19644,-1.50919931 14.86583,-1.05147511 20.92773,0.8886718 4.25104,1.640392 8.30451,2.2051579 11.75586,4.5449218 8.75116,1.024707 17.29635,4.3819964 24.16406,9.9414064 2.49685,2.135858 3.99391,5.330514 4.08789,8.611328 0.15948,3.218854 -0.43626,6.423606 -1.13476,9.550782 -1.36572,5.331726 -3.23384,11.602434 -6.53907,15.996094 0.14224,7.626176 -3.16531,17.372848 -9.30468,22.830078 -4.99,18.686402 -19.3081,23.499764 -24.29688,25.355464 -7.03258,15.621264 -36.63322,16.730904 -48.10156,13.091804 C 248.90048,105.89066 240.13446,97.403746 232.32567,85.209373 225.46005,81.312134 219.79141,75.128943 217.05809,67.67031 205.39822,29.880923 236.50695,1.4007273 262.4702,3.4632787 268.44911,0.93893199 275.09731,-0.10448641 281.43895,0.00820059 Z M 279.85887,12.695701 c -12.09315,-0.563889 -24.6064,21.517078 -22.86523,6.279297 -26.1981,6.777506 -39.15501,42.902893 -17.16797,54.373047 19.21869,-15.798994 42.33665,-27.22029 67.98437,-35.769531 -32.96586,16.756513 -52.1158,30.230484 -62.58008,41.789062 17.91805,27.730784 40.815,22.811934 54.3379,15.228516 -20.12444,-6.126936 15.68943,-7.03132 21.17773,-19.689454 -22.0501,0.718388 7.83703,-3.469815 9.63672,-21.316406 -17.02553,-0.822439 7.86347,-6.454229 8.85937,-26.808594 -20.01457,-14.387271 -42.22697,2.244046 -30.04101,-11.103515 -15.37244,-5.514642 -34.08818,13.14831 -26.93164,-2.548828 -0.79813,-0.256634 -1.60395,-0.396001 -2.41016,-0.433594 z" /></svg>
