<?xml version="1.0" encoding="UTF-8" standalone="no"?>
<!-- Generator: Adobe Illustrator 19.2.1, SVG Export Plug-In . SVG Version: 6.00 Build 0)  -->

<svg
   inkscape:version="1.2 (dc2aeda, 2022-05-15)"
   sodipodi:docname="sofle-pico-vector-logo.svg"
   xml:space="preserve"
   style="enable-background:new 0 0 652 652;"
   viewBox="0 0 652 652"
   y="0px"
   x="0px"
   id="layer"
   version="1.1"
   xmlns:inkscape="http://www.inkscape.org/namespaces/inkscape"
   xmlns:sodipodi="http://sodipodi.sourceforge.net/DTD/sodipodi-0.dtd"
   xmlns="http://www.w3.org/2000/svg"
   xmlns:svg="http://www.w3.org/2000/svg"><defs
   id="defs543">
		
		
		
		
		
		
		
		
	
			
			
		
			
			
		
		
	
	
	
	
	
</defs><sodipodi:namedview
   id="namedview541"
   pagecolor="#ffffff"
   bordercolor="#000000"
   borderopacity="0.25"
   inkscape:showpageshadow="2"
   inkscape:pageopacity="0.0"
   inkscape:pagecheckerboard="0"
   inkscape:deskcolor="#d1d1d1"
   showgrid="false"
   inkscape:zoom="0.4256135"
   inkscape:cx="-520.42522"
   inkscape:cy="1029.1027"
   inkscape:window-width="2560"
   inkscape:window-height="1288"
   inkscape:window-x="1728"
   inkscape:window-y="332"
   inkscape:window-maximized="0"
   inkscape:current-layer="layer" />
<style
   type="text/css"
   id="style498">
	.st0{fill:#020203;}
	.st1{fill:#6ABF4B;}
	.st2{fill:#C31C4A;}
</style>
<path
   class="st0"
   d="m 435.6,216.9 c 7.4,-1.9 15.1,-3.6 17.2,-12.9 12.8,-3.2 15.4,-9.1 16.7,-15.4 3.3,-2.3 14.4,-8.5 13.3,-19.2 6.2,-4.3 9.7,-9.8 8,-17.7 6.7,-7.3 8.5,-13.4 5.6,-19 8.1,-10 4.5,-15.2 1,-20.4 6.1,-11 0.7,-22.7 -16.1,-20.7 C 474.6,81.8 460,84 457.7,84 c -2.5,-3.1 -5.9,-5.9 -16.1,-4.6 -6.6,-6 -14.1,-4.9 -21.8,-2 -9.1,-7.1 -15.2,-1.4 -22,0.7 -11.3,-3.5 -13.9,1.4 -19.3,3.4 -12,-2.5 -15.7,3 -21.5,8.7 L 356.6,90 c -2,-1 -4.3,-0.9 -6.3,0.1 v 0 c -18.2,10.6 -27.2,32 -30.3,43 -3.2,-11.1 -12.2,-32.5 -30.3,-43 l -0.3,-0.2 c -2,-0.9 -4.4,-0.8 -6.3,0.2 l -0.1,0.1 c -5.8,-5.7 -9.4,-11.2 -21.5,-8.7 -5.4,-2 -7.9,-6.9 -19,-3.3 -4.5,-1.4 -7.2,-4.5 -12.1,-4.4 h -1.3 c -2.6,0.1 -5.3,1.2 -8.5,3.6 -7.7,-2.9 -15.1,-4 -21.8,2 -10.2,-1.3 -13.6,1.4 -16.1,4.6 -2.3,-0.1 -16.9,-2.3 -23.6,7.5 -16.9,-1.9 -22.2,9.8 -16.1,20.7 -3.5,5.2 -7,10.4 1,20.4 -2.8,5.6 -1,11.6 5.6,19 -1.8,7.8 1.7,13.4 8,17.7 -1.1,10.7 10,16.9 13.3,19.2 1.3,6.2 4,12.1 16.7,15.4 2.1,9.3 9.8,10.9 17.2,12.9"
   id="path500"
   sodipodi:nodetypes="ccccccccccccccssscccccccccccccccccccc" /><path
   class="st1"
   d="m 193.3,120.4 c 48.2,24.5 76.2,44.2 91.5,61.1 -7.8,31 -48.8,32.4 -63.8,31.6 3.1,-1.4 5.6,-3.1 6.5,-5.6 -3.8,-2.7 -17.1,-0.2 -26.4,-5.4 3.6,-0.7 5.2,-1.5 6.9,-4 -8.8,-2.7 -18.2,-5.2 -23.8,-9.7 3,0 5.8,0.6 9.8,-2 -7.9,-4.3 -16.3,-7.6 -22.8,-14 4,-0.1 8.5,0 9.8,-1.5 -7.2,-4.4 -13.3,-9.3 -18.3,-14.6 5.7,0.6 8.1,0.1 9.5,-0.9 -5.5,-5.5 -12.3,-10.2 -15.7,-16.9 4.2,1.5 8.1,2 10.9,-0.2 -1.9,-4.1 -9.8,-6.5 -14.4,-16.1 4.4,0.4 9.2,1 10.1,0 -2.1,-8.3 -5.6,-13 -9.1,-17.8 9.5,-0.2 24,0 23.3,-0.7 l -5.9,-6 c 9.3,-2.5 18.8,0.4 25.7,2.5 3.1,-2.4 -0.1,-5.5 -3.9,-8.6 7.9,1 15.1,2.8 21.5,5.3 3.5,-3.1 -2.3,-6.1 -5,-9.2 12.3,2.3 17.4,5.5 22.6,8.7 3.7,-3.6 0.2,-6.5 -2.3,-9.6 9.2,3.4 14,7.7 19,12 1.7,-2.3 4.3,-3.9 1.1,-9.4 6.5,3.7 11.5,8.1 15.1,13 4,-2.5 2.4,-6.1 2.4,-9.2 6.8,5.5 11.1,11.2 16.4,16.9 1,-0.7 2,-3.4 2.8,-7.4 16.2,15.5 39.1,54.6 5.9,70 -28.1,-23.1 -61.9,-39.8 -99.4,-52.3 z"
   id="path504" /><path
   class="st1"
   d="m 448.5,120.4 c -48.2,24.5 -76.2,44.2 -91.5,61.1 7.8,31 48.8,32.4 63.8,31.6 -3.1,-1.4 -5.6,-3.1 -6.5,-5.6 3.8,-2.7 17.1,-0.2 26.4,-5.4 -3.6,-0.7 -5.2,-1.5 -6.9,-4 8.8,-2.7 18.2,-5.2 23.8,-9.7 -3,0 -5.8,0.6 -9.8,-2 7.9,-4.2 16.3,-7.5 22.8,-13.9 -4,-0.1 -8.5,0 -9.8,-1.5 7.2,-4.4 13.3,-9.3 18.3,-14.6 -5.7,0.6 -8.1,0.1 -9.5,-0.9 5.5,-5.5 12.3,-10.2 15.7,-16.9 -4.2,1.5 -8.1,2 -10.9,-0.2 1.9,-4.1 9.8,-6.5 14.4,-16.1 -4.4,0.4 -9.2,1 -10.1,0 2.1,-8.3 5.6,-13 9.1,-17.8 -9.5,-0.2 -24,0 -23.3,-0.7 l 5.9,-6 c -9.3,-2.5 -18.9,0.4 -25.7,2.5 -3.1,-2.4 0.1,-5.5 3.9,-8.6 -7.9,1 -15.1,2.8 -21.5,5.3 -3.5,-3.1 2.3,-6.1 5,-9.2 -12.3,2.3 -17.4,5.5 -22.6,8.7 -3.7,-3.6 -0.2,-6.5 2.3,-9.6 -9.2,3.4 -14,7.7 -19,12 -1.7,-2.3 -4.3,-3.9 -1.1,-9.4 -6.5,3.7 -11.5,8.1 -15.1,13 -4,-2.5 -2.4,-6.1 -2.4,-9.2 -6.8,5.5 -11.1,11.2 -16.4,16.9 -1,-0.7 -2,-3.4 -2.8,-7.4 -16.2,15.5 -39.1,54.6 -5.9,70 28.1,-23.2 61.9,-39.9 99.4,-52.4 z"
   id="path506" /><path
   class="st2"
   d="M 376.50025,436.82302 C 377.04411,461.95048 353.7,488.7 321.8,488.9 c -31.9,0.2 -59.59087,-21.87895 -56.33862,-52.51535 3.25226,-30.6364 27.18695,-46.10804 56.36164,-46.23912 29.17469,-0.13108 54.13337,21.55002 54.67723,46.67749 z"
   id="path508"
   sodipodi:nodetypes="zszzz" /><path
   class="st2"
   d="m 323.07443,562.40913 c 26.5,0.6 52.1,-19.4 52.1,-31.1 0.1,-14.2 -21,-28.7 -52.4,-29.1 -32,-0.2 -52.4,11.6 -52.5,26.2 0,16.7 29.2,34.3 52.8,34 z"
   id="path526" /><path
   class="st2"
   d="m 260.36332,469.7372 c 9.33958,12.87985 7.84738,39.49011 0.0361,46.19289 -7.35846,5.05994 -21.356,2.54176 -30.9201,-12.54029 -8.60374,-17.54551 -0.30127,-32.78505 4.74625,-37.74585 5.04753,-4.96079 15.38308,-10.16658 26.13776,4.09325 z"
   id="path530"
   style="stroke-width:0.609887"
   sodipodi:nodetypes="ccczcc" /><path
   class="st2"
   d="m 381.49265,467.65288 c -9.33958,12.87985 -7.84738,39.49011 -0.0361,46.19289 7.35846,5.05994 21.356,2.54176 30.9201,-12.54029 8.60374,-17.54551 2.37799,-34.44643 -5.1616,-40.23792 -7.53959,-5.79149 -14.96773,-7.67451 -25.72241,6.58532 z"
   id="path530-7"
   style="fill:#c31c4a;stroke-width:0.609887"
   sodipodi:nodetypes="ccczcc" />
<path
   class="st0"
   d="m 435.6,216.9 c 7.4,-1.9 15.1,-3.6 17.2,-12.9 12.8,-3.2 15.4,-9.1 16.7,-15.4 3.3,-2.3 14.4,-8.5 13.3,-19.2 6.2,-4.3 9.7,-9.8 8,-17.7 6.7,-7.3 8.5,-13.4 5.6,-19 8.1,-10 4.5,-15.2 1,-20.4 6.1,-11 0.7,-22.7 -16.1,-20.7 C 474.6,81.8 460,84 457.7,84 c -2.5,-3.1 -5.9,-5.9 -16.1,-4.6 -6.6,-6 -14.1,-4.9 -21.8,-2 -9.1,-7.1 -15.2,-1.4 -22,0.7 -11.3,-3.5 -13.9,1.4 -19.3,3.4 -12,-2.5 -15.7,3 -21.5,8.7 L 356.6,90 c -2,-1 -4.3,-0.9 -6.3,0.1 v 0 c -18.2,10.6 -27.2,32 -30.3,43 -3.2,-11.1 -12.2,-32.5 -30.3,-43 l -0.3,-0.2 c -2,-0.9 -4.4,-0.8 -6.3,0.2 l -0.1,0.1 c -5.8,-5.7 -9.4,-11.2 -21.5,-8.7 -5.4,-2 -7.9,-6.9 -19,-3.3 -4.5,-1.4 -7.2,-4.5 -12.1,-4.4 h -1.3 c -2.6,0.1 -5.3,1.2 -8.5,3.6 -7.7,-2.9 -15.1,-4 -21.8,2 -10.2,-1.3 -13.6,1.4 -16.1,4.6 -2.3,-0.1 -16.9,-2.3 -23.6,7.5 -16.9,-1.9 -22.2,9.8 -16.1,20.7 -3.5,5.2 -7,10.4 1,20.4 -2.8,5.6 -1,11.6 5.6,19 -1.8,7.8 1.7,13.4 8,17.7 -1.1,10.7 10,16.9 13.3,19.2 1.3,6.2 4,12.1 16.7,15.4 2.1,9.3 9.8,10.9 17.2,12.9"
   id="path975"
   sodipodi:nodetypes="ccccccccccccccssscccccccccccccccccccc" /><path
   d="m 239.61369,429.61817 c -20.1824,18.26444 -29.37305,38.40552 -23.70604,67.17917 5.667,28.77364 28.81733,40.30679 36.54335,43.87931 17.6619,24.04578 47.26199,32.81977 71.81757,32.79698 23.3055,0.1772 51.15832,-8.59679 67.77766,-32.64257 7.26996,-3.57252 29.05375,-15.10567 34.38623,-43.87931 5.3325,-28.77365 -6.44226,-54.31422 -25.43332,-72.57866 -20.23919,-34.43229 -42.35298,-48.81701 -79.97328,-50.59864 -37.2851,2.25024 -59.90333,21.41143 -81.41217,55.84372 z"
   style="fill:#020203;stroke-width:0.962732"
   id="path1020"
   sodipodi:nodetypes="cscccsccc" /></svg>
