<?xml version="1.0" encoding="UTF-8" standalone="no"?>
<!-- Generator: Adobe Illustrator 19.2.1, SVG Export Plug-In . SVG Version: 6.00 Build 0)  -->

<svg
   inkscape:version="1.2 (dc2aeda, 2022-05-15)"
   sodipodi:docname="sofle-pico-vector-logo-v3bw.svg"
   xml:space="preserve"
   viewBox="0 0 350 699.99999"
   y="0px"
   x="0px"
   id="layer"
   version="1.1"
   width="350"
   height="700"
   inkscape:export-filename="sofle-pico-vector-logo-v3bw.jpg"
   inkscape:export-xdpi="96"
   inkscape:export-ydpi="96"
   xmlns:inkscape="http://www.inkscape.org/namespaces/inkscape"
   xmlns:sodipodi="http://sodipodi.sourceforge.net/DTD/sodipodi-0.dtd"
   xmlns="http://www.w3.org/2000/svg"
   xmlns:svg="http://www.w3.org/2000/svg"><defs
   id="defs543"><linearGradient
   id="linearGradient2495"
   inkscape:swatch="solid"><stop
     style="stop-color:#000000;stop-opacity:1;"
     offset="0"
     id="stop2493" /></linearGradient>
		
		
		
		
		
		
		
		
	
			
			
		
			
			
		
		
	
	
	
	
	
</defs><sodipodi:namedview
   id="namedview541"
   pagecolor="#ffffff"
   bordercolor="#000000"
   borderopacity="0.25"
   inkscape:showpageshadow="2"
   inkscape:pageopacity="0.0"
   inkscape:pagecheckerboard="0"
   inkscape:deskcolor="#d1d1d1"
   showgrid="false"
   inkscape:zoom="1.2038168"
   inkscape:cx="-265.40583"
   inkscape:cy="336.42993"
   inkscape:window-width="2560"
   inkscape:window-height="1288"
   inkscape:window-x="1728"
   inkscape:window-y="332"
   inkscape:window-maximized="0"
   inkscape:current-layer="layer" />
<style
   type="text/css"
   id="style498">
	.st0{fill:#020203;}
	.st1{fill:#6ABF4B;}
	.st2{fill:#C31C4A;}
</style>

<g
   id="g2968"
   transform="matrix(0.91852172,0,0,0.91852172,11.629676,231.76284)"><path
     id="path2962"
     style="fill:#000000;fill-opacity:1"
     class="st2"
     d="m 178.16348,71.763883 c -37.28506,2.25024 -59.90329,21.4115 -81.412106,55.843747 -20.18238,18.26442 -29.37208,38.40412 -23.70507,67.17774 5.66699,28.77361 28.816946,40.30834 36.542956,43.88086 17.66189,24.04575 47.26085,32.81966 71.81641,32.79687 23.30548,0.1772 51.15997,-8.59682 67.7793,-32.64258 7.26995,-3.57251 29.05229,-15.10529 34.38476,-43.8789 5.3325,-28.77362 -6.44255,-54.31566 -25.43359,-72.58008 -20.23917,-34.432257 -42.3524,-48.816027 -79.97266,-50.597657 z m 0.79688,16.3711 c 29.17466,-0.13108 54.13387,21.550287 54.67773,46.677727 0.54386,25.12744 -22.8012,51.87617 -54.70117,52.07617 -31.89997,0.2 -59.59014,-21.87925 -56.33789,-52.51562 3.25226,-30.63637 27.18667,-46.107197 56.36133,-46.238277 z m 75.27344,66.589837 c 3.5438,0.0131 6.82057,1.79826 10.11914,4.33203 7.53958,5.79149 13.76584,22.69279 5.1621,40.23828 -9.56409,15.08204 -23.56146,17.599 -30.91992,12.53907 -7.81127,-6.70278 -9.30441,-33.31157 0.0352,-46.19141 6.0495,-8.02115 11.0472,-10.93476 15.60352,-10.91797 z m -151.94141,3.74609 c 4.55916,-0.13906 9.83165,2.12596 15.20898,9.25586 9.33957,12.87984 7.84643,39.48864 0.0352,46.19141 -7.35845,5.05993 -21.355826,2.54297 -30.919916,-12.53906 -8.60373,-17.54549 -0.30142,-32.7853 4.74609,-37.7461 2.52376,-2.48039 6.37053,-5.02304 10.929686,-5.16211 z m 77.61914,41.72657 c 31.39997,0.4 52.50039,14.90157 52.40039,29.10156 0,11.69999 -25.59964,31.69961 -52.09961,31.09961 -23.59998,0.3 -52.80078,-17.30002 -52.80078,-34 0.1,-14.59999 20.50003,-26.40117 52.5,-26.20117 z"
     inkscape:label="path508-0" /><path
     id="path2964"
     style="fill:#000000;fill-opacity:1;stroke-width:0.683941"
     class="st1"
     d="m 67.604894,5.2882329 c -1.95387,0.0738 -3.98392,0.88569 -6.38867,2.65625 -5.78644,-2.13943 -11.3459,-2.94984 -16.38086,1.47656 -7.66515,-0.95905 -10.2209,1.0318301 -12.09961,3.3925801 -1.72843,-0.0738 -12.69942,-1.69659 -17.73438,5.5332 -12.7001102,-1.40169 -16.6836702,7.23018 -12.0996102,15.27148 -2.63019005,3.83621 -5.25992,7.6715 0.75196,15.04883 -2.10415,4.13131 -0.75278,8.55836 4.20703,14.01758 -1.35267,5.75432 1.2793,9.88635 6.0136702,13.05859 -0.82664,7.89375 7.51423,12.46728 9.99414,14.16407 0.97693,4.57395 3.00496,8.92682 12.54883,11.361317 1.57812,6.86093 7.36479,8.04016 12.92578,9.51563 0,0 4.23723,6.63047 15.20898,6.94726 10.97176,0.31679 36.290496,4.65175 55.181646,-30.095697 24.36055,-10.75031 16.18164,-38.59961 16.18164,-38.59961 -2.40476,-8.18884 -9.1696,-23.97646 -22.77149,-31.72265 l -0.22461,-0.14649 c -1.50297,-0.66397 -3.30655,-0.59125 -4.73437,0.14649 l -0.0742,0.0742 c -4.35862,-4.20509 -7.06522,-8.2623101 -16.158206,-6.41797 -4.05802,-1.4754601 -5.93583,-5.0913901 -14.27734,-2.4355501 -3.38168,-1.03282 -5.41147,-3.31986 -9.09375,-3.24609 z m 0.70703,13.0039001 c 6.29225,2.3254 9.57443,5.2661 12.99414,8.20703 1.1627,-1.57306 2.94056,-2.66802 0.75195,-6.42968 4.44562,2.53057 7.86594,5.54127 10.32813,8.89257 2.73576,-1.70984 1.64062,-4.17275 1.64062,-6.29297 4.65079,3.76168 7.591916,7.66014 11.216796,11.5586 0.68394,-0.47876 1.36886,-2.32479 1.91602,-5.06055 11.07983,10.60107 26.74196,37.34232 4.03515,47.875 -19.218716,-15.79901 -42.336616,-27.22028 -67.984366,-35.76953 32.9659,16.75653 52.11579,30.23047 62.580076,41.78906 -5.33474,21.202137 -33.375666,22.158477 -43.634766,21.611327 2.12021,-0.95752 3.82977,-2.12023 4.44531,-3.83008 -2.59896,-1.846637 -11.69404,-0.13687 -18.05468,-3.693357 2.46217,-0.47876 3.55605,-1.02452 4.71874,-2.73437 -6.01867,-1.84664 -12.44727,-3.55704 -16.27734,-6.63477 2.05182,0 3.96542,0.41105 6.70117,-1.36718 -5.40312,-2.94095 -11.14814,-5.19896 -15.59375,-9.57618 2.73576,-0.0684 5.81401,5.2e-4 6.70313,-1.02539 -4.92437,-3.00933 -9.09592,-6.36144 -12.51563,-9.98632 3.89847,0.41036 5.53858,0.0687 6.4961,-0.61524 -3.76167,-3.76168 -8.41093,-6.9762 -10.73633,-11.55859 2.87255,1.02591 5.54005,1.36795 7.45508,-0.13672 -1.29948,-2.80416 -6.70349,-4.44589 -9.84961,-11.01172 3.00933,0.27358 6.29265,0.68395 6.9082,0 -1.43628,-5.67669 -3.83082,-8.89092 -6.22461,-12.17383 6.49743,-0.13679 16.41431,2.5e-4 15.93555,-0.47851 l -4.03516,-4.10352 c 6.36065,-1.70986 12.85894,0.27271 17.57813,1.70898 2.12021,-1.64145 -0.069,-3.76065 -2.66797,-5.88085 5.40312,0.68393 10.32786,1.91515 14.70508,3.625 2.39378,-2.12021 -1.57329,-4.17276 -3.41993,-6.29297 8.41247,1.57305 11.90055,3.76256 15.45704,5.95117 2.53057,-2.46218 0.13759,-4.44619 -1.57227,-6.56641 z" /><path
     id="path2966"
     style="fill:#000000;fill-opacity:1;stroke-width:0.683941"
     class="st1"
     d="m 284.4378,0.0017629 c 1.95387,0.0738 3.98392,0.88569 6.38867,2.65625 5.78644,-2.13943 11.3459,-2.94984 16.38086,1.47656 7.66515,-0.95905 10.2209,1.03183 12.09961,3.39258 1.72843,-0.0738 12.69942,-1.69659 17.73438,5.5332001 12.70011,-1.40169 16.68367,7.23018 12.09961,15.27148 2.63019,3.83621 5.25992,7.6715 -0.75196,15.04883 2.10415,4.13131 0.75278,8.55836 -4.20703,14.01758 1.35267,5.75432 -1.2793,9.88635 -6.01367,13.05859 0.82664,7.89375 -7.51423,12.46728 -9.99414,14.16407 -0.97693,4.57395 -3.00496,8.92682 -12.54883,11.36132 -1.57812,6.860927 -7.36479,8.040157 -12.92578,9.515627 0,0 -4.23723,6.63047 -15.20898,6.94726 -10.97176,0.31679 -36.2905,4.65175 -55.18165,-30.095697 -24.36055,-10.75031 -16.18164,-38.59961 -16.18164,-38.59961 2.40476,-8.18884 9.1696,-23.97646 22.77149,-31.72265 l 0.22461,-0.14649 c 1.50297,-0.66397 3.30655,-0.59125 4.73437,0.14649 l 0.0742,0.0742 c 4.35862,-4.2050901 7.06522,-8.2623101 16.15821,-6.4179701 4.05802,-1.47546 5.93583,-5.09139 14.27734,-2.43555 3.38168,-1.03282 5.41147,-3.31986 9.09375,-3.24609 z m -0.70703,13.0039001 c -6.29225,2.3254 -9.57443,5.2661 -12.99414,8.20703 -1.1627,-1.57306 -2.94056,-2.66802 -0.75195,-6.42968 -4.44562,2.53057 -7.86594,5.54127 -10.32813,8.89257 -2.73576,-1.70984 -1.64062,-4.17275 -1.64062,-6.29297 -4.65079,3.76168 -7.59192,7.66014 -11.2168,11.5586 -0.68394,-0.47876 -1.36886,-2.32479 -1.91602,-5.06055 -11.07983,10.60107 -26.74196,37.34232 -4.03515,47.875 19.21872,-15.79901 42.33662,-27.22028 67.98437,-35.76953 -32.9659,16.75653 -52.11579,30.23047 -62.58008,41.78906 5.33474,21.20214 33.37567,22.15848 43.63477,21.61133 -2.12021,-0.95752 -3.82977,-2.12023 -4.44531,-3.83008 2.59896,-1.84664 11.69404,-0.13687 18.05468,-3.69336 -2.46217,-0.47876 -3.55605,-1.02452 -4.71874,-2.73437 6.01867,-1.84664 12.44727,-3.55704 16.27734,-6.63477 -2.05182,0 -3.96542,0.41105 -6.70117,-1.36718 5.40312,-2.94095 11.14814,-5.19896 15.59375,-9.57618 -2.73576,-0.0684 -5.81401,5.2e-4 -6.70313,-1.02539 4.92437,-3.00933 9.09592,-6.36144 12.51563,-9.98632 -3.89847,0.41036 -5.53858,0.0687 -6.4961,-0.61524 3.76167,-3.76168 8.41093,-6.9762 10.73633,-11.55859 -2.87255,1.02591 -5.54005,1.36795 -7.45508,-0.13672 1.29948,-2.80416 6.70349,-4.44589 9.84961,-11.01172 -3.00933,0.27358 -6.29265,0.68395 -6.9082,0 1.43628,-5.67669 3.83082,-8.89092 6.22461,-12.17383 -6.49743,-0.13679 -16.41431,2.5e-4 -15.93555,-0.47851 l 4.03516,-4.10352 c -6.36065,-1.70986 -12.85894,0.27271 -17.57813,1.70898 -2.12021,-1.64145 0.069,-3.76065 2.66797,-5.88085 -5.40312,0.68393 -10.32786,1.91515 -14.70508,3.625 -2.39378,-2.12021 1.57329,-4.17276 3.41993,-6.29297 -8.41247,1.57305 -11.90055,3.76256 -15.45704,5.95117 -2.53057,-2.46218 -0.13759,-4.44619 1.57227,-6.56641 z" /></g><text
   xml:space="preserve"
   style="font-style:normal;font-variant:normal;font-weight:500;font-stretch:normal;font-size:113.333px;font-family:Futura;-inkscape-font-specification:'Futura, Medium';font-variant-ligatures:normal;font-variant-caps:normal;font-variant-numeric:normal;font-variant-east-asian:normal;fill:#000000;stop-color:#000000"
   x="4.9841471"
   y="66.455299"
   id="text2701"><tspan
     sodipodi:role="line"
     id="tspan2699"
     x="4.9841471"
     y="66.455299"
     style="font-style:normal;font-variant:normal;font-weight:500;font-stretch:normal;font-size:113.333px;font-family:Futura;-inkscape-font-specification:'Futura, Medium';font-variant-ligatures:normal;font-variant-caps:normal;font-variant-numeric:normal;font-variant-east-asian:normal" /><tspan
     sodipodi:role="line"
     x="4.9841471"
     y="208.12196"
     id="tspan2703"
     style="font-style:normal;font-variant:normal;font-weight:500;font-stretch:normal;font-size:113.333px;font-family:Futura;-inkscape-font-specification:'Futura, Medium';font-variant-ligatures:normal;font-variant-caps:normal;font-variant-numeric:normal;font-variant-east-asian:normal"><tspan
   style="font-style:normal;font-variant:normal;font-weight:500;font-stretch:normal;font-size:113.333px;font-family:Futura;-inkscape-font-specification:'Futura, Medium';font-variant-ligatures:normal;font-variant-caps:normal;font-variant-numeric:normal;font-variant-east-asian:normal"
   id="tspan2767">Pico</tspan> </tspan></text><text
   xml:space="preserve"
   style="font-style:normal;font-variant:normal;font-weight:500;font-stretch:normal;font-size:66.6667px;font-family:Futura;-inkscape-font-specification:'Futura, Medium';font-variant-ligatures:normal;font-variant-caps:normal;font-variant-numeric:normal;font-variant-east-asian:normal;fill:#000000;stop-color:#000000"
   x="4.9841466"
   y="107.15917"
   id="text2765"><tspan
     sodipodi:role="line"
     id="tspan2763"
     x="4.9841466"
     y="107.15917"
     style="font-style:normal;font-variant:normal;font-weight:500;font-stretch:normal;font-size:113.333px;font-family:Futura;-inkscape-font-specification:'Futura, Medium';font-variant-ligatures:normal;font-variant-caps:normal;font-variant-numeric:normal;font-variant-east-asian:normal">Sofle</tspan></text><text
   xml:space="preserve"
   style="font-style:normal;font-variant:normal;font-weight:500;font-stretch:normal;font-size:50.6667px;font-family:Futura;-inkscape-font-specification:'Futura, Medium';font-variant-ligatures:normal;font-variant-caps:normal;font-variant-numeric:normal;font-variant-east-asian:normal;fill:#000000;stroke-width:0.496901;stop-color:#000000"
   x="339.85205"
   y="553.15894"
   id="text2960"><tspan
     sodipodi:role="line"
     id="tspan2954"
     x="339.85205"
     y="553.15894"
     style="font-style:normal;font-variant:normal;font-weight:500;font-stretch:normal;font-size:50.66666667px;font-family:Futura;-inkscape-font-specification:'Futura, Medium';font-variant-ligatures:normal;font-variant-caps:normal;font-variant-numeric:normal;font-variant-east-asian:normal;text-align:end;text-anchor:end;stroke-width:0.496901">v3.04</tspan><tspan
     sodipodi:role="line"
     x="339.85205"
     y="612.78705"
     style="font-style:normal;font-variant:normal;font-weight:500;font-stretch:normal;font-size:50.66666667px;font-family:Futura;-inkscape-font-specification:'Futura, Medium';font-variant-ligatures:normal;font-variant-caps:normal;font-variant-numeric:normal;font-variant-east-asian:normal;text-align:end;text-anchor:end;stroke-width:0.496901"
     id="tspan2956">8-24-2023</tspan><tspan
     sodipodi:role="line"
     x="339.85205"
     y="672.41516"
     style="font-style:normal;font-variant:normal;font-weight:500;font-stretch:normal;font-size:50.66666667px;font-family:Futura;-inkscape-font-specification:'Futura, Medium';font-variant-ligatures:normal;font-variant-caps:normal;font-variant-numeric:normal;font-variant-east-asian:normal;text-align:end;text-anchor:end;stroke-width:0.496901"
     id="tspan2958">gh/JellyTitan</tspan></text><text
   xml:space="preserve"
   style="font-style:normal;font-variant:normal;font-weight:500;font-stretch:normal;font-size:47.7025px;font-family:Futura;-inkscape-font-specification:'Futura, Medium';font-variant-ligatures:normal;font-variant-caps:normal;font-variant-numeric:normal;font-variant-east-asian:normal;fill:#000000;stroke-width:0.496901;stop-color:#000000"
   x="178.74512"
   y="575.93439"
   id="text2771-8"><tspan
     sodipodi:role="line"
     x="178.74512"
     y="575.93439"
     style="stroke-width:0.496901"
     id="tspan2818" /></text><text
   xml:space="preserve"
   style="font-style:normal;font-variant:normal;font-weight:bold;font-stretch:normal;font-size:66.6667px;font-family:Futura;-inkscape-font-specification:'Futura, Bold';font-variant-ligatures:normal;font-variant-caps:normal;font-variant-numeric:normal;font-variant-east-asian:normal;text-align:end;text-anchor:end;fill:#000000;stop-color:#000000"
   x="279.11224"
   y="574.00763"
   id="text3046"><tspan
     sodipodi:role="line"
     id="tspan3044" /></text></svg>
