<?xml version="1.0" encoding="UTF-8" standalone="no"?>
<!-- Generator: Adobe Illustrator 19.2.1, SVG Export Plug-In . SVG Version: 6.00 Build 0)  -->

<svg
   inkscape:version="1.2 (dc2aeda, 2022-05-15)"
   sodipodi:docname="sofle-pico-vector-title-inverted.svg"
   xml:space="preserve"
   viewBox="0 0 390.82896 305.33512"
   y="0px"
   x="0px"
   id="layer"
   version="1.1"
   width="390.82895"
   height="305.33511"
   xmlns:inkscape="http://www.inkscape.org/namespaces/inkscape"
   xmlns:sodipodi="http://sodipodi.sourceforge.net/DTD/sodipodi-0.dtd"
   xmlns="http://www.w3.org/2000/svg"
   xmlns:svg="http://www.w3.org/2000/svg"><defs
   id="defs543">
		
		
		
		
		
		
		
		
	
			
			
		
			
			
		
		
	
	
	
	
	
</defs><sodipodi:namedview
   id="namedview541"
   pagecolor="#ffffff"
   bordercolor="#000000"
   borderopacity="0.25"
   inkscape:showpageshadow="2"
   inkscape:pageopacity="0.0"
   inkscape:pagecheckerboard="0"
   inkscape:deskcolor="#d1d1d1"
   showgrid="false"
   inkscape:zoom="2.4563174"
   inkscape:cx="253.83527"
   inkscape:cy="192.15758"
   inkscape:window-width="2560"
   inkscape:window-height="1288"
   inkscape:window-x="1728"
   inkscape:window-y="332"
   inkscape:window-maximized="0"
   inkscape:current-layer="layer" />
<style
   type="text/css"
   id="style498">
	.st0{fill:#020203;}
	.st1{fill:#6ABF4B;}
	.st2{fill:#C31C4A;}
</style>

<path
   id="rect513"
   style="fill:#000000;fill-opacity:1;stroke:none;stroke-width:0;stop-color:#000000;stroke-dasharray:none"
   d="M 37.046875 0 C 16.522696 0 0 16.522696 0 37.046875 L 0 268.28711 C 0 288.81129 16.522696 305.33594 37.046875 305.33594 L 353.78125 305.33594 C 374.30543 305.33594 390.82812 288.81129 390.82812 268.28711 L 390.82812 37.046875 C 390.82812 16.522696 374.30543 0 353.78125 0 L 37.046875 0 z M 236.37109 9.7382812 C 244.78879 9.7382812 251.97375 12.740786 257.92773 18.746094 C 263.93304 24.700075 266.93555 31.886991 266.93555 40.304688 L 266.93555 142.08789 L 249.61328 142.08789 L 249.61328 40.304688 C 249.61328 36.506458 248.33004 33.169257 245.76367 30.294922 C 243.1973 27.369259 240.03987 25.908203 236.29297 25.908203 C 232.54607 25.908203 229.39059 27.344414 226.82422 30.21875 C 224.30918 33.041758 223.05078 36.403804 223.05078 40.304688 L 223.05078 67.097656 L 242.91406 67.097656 L 242.91406 83.265625 L 223.05078 83.265625 L 223.05078 142.08789 L 205.72852 142.08789 L 205.72852 83.265625 L 199.56836 83.265625 L 199.56836 67.097656 L 205.72852 67.097656 L 205.72852 40.304688 C 205.72852 31.886991 208.73102 24.700075 214.73633 18.746094 C 220.74164 12.740786 227.9534 9.7382812 236.37109 9.7382812 z M 56.904297 20.902344 C 70.608718 20.902344 81.310653 27.574793 89.009766 40.919922 L 74.457031 49.542969 C 71.736678 44.820846 69.145357 41.741855 66.681641 40.304688 C 64.11527 38.66221 60.804866 37.841797 56.75 37.841797 C 51.77124 37.841797 47.638471 39.253164 44.353516 42.076172 C 41.068561 44.847853 39.427734 48.338027 39.427734 52.546875 C 39.427734 58.346874 43.738321 63.017002 52.361328 66.558594 L 64.21875 71.408203 C 73.868305 75.309087 80.925139 80.082499 85.390625 85.728516 C 89.856111 91.323204 92.089844 98.202221 92.089844 106.36328 C 92.089844 117.29602 88.444744 126.33033 81.15625 133.46484 C 73.816429 140.65068 64.705632 144.24219 53.824219 144.24219 C 43.507407 144.24219 34.987564 141.18804 28.263672 135.08008 C 21.642435 128.97212 17.509665 120.37579 15.867188 109.28906 L 34.037109 105.28516 C 34.858348 112.26569 36.296513 117.09074 38.349609 119.75977 C 42.045184 124.89251 47.434394 127.45898 54.517578 127.45898 C 60.112267 127.45898 64.757551 125.58479 68.453125 121.83789 C 72.148699 118.09099 73.996094 113.34437 73.996094 107.5957 C 73.996094 105.28597 73.66335 103.18036 72.996094 101.28125 C 72.380165 99.330808 71.378028 97.5599 69.992188 95.96875 C 68.657675 94.326273 66.913564 92.813575 64.757812 91.427734 C 62.602061 89.990567 60.035584 88.628889 57.058594 87.345703 L 45.585938 82.572266 C 29.315145 75.694391 21.179688 65.635053 21.179688 52.392578 C 21.179688 43.461607 24.593375 35.993589 31.419922 29.988281 C 38.246469 23.931646 46.741468 20.902344 56.904297 20.902344 z M 146.83008 65.019531 C 158.01946 65.019531 167.51464 68.842449 175.31641 76.490234 C 183.01552 84.13802 186.86523 93.531872 186.86523 104.66992 C 186.86523 115.91063 182.99067 125.32932 175.24023 132.92578 C 167.43847 140.47091 157.86484 144.24219 146.52148 144.24219 C 135.28078 144.24219 125.86208 140.39247 118.26562 132.69336 C 110.66917 125.0969 106.87109 115.55008 106.87109 104.05273 C 106.87109 93.222649 110.74565 84.010521 118.49609 76.414062 C 126.24653 68.817604 135.69203 65.019531 146.83008 65.019531 z M 321.52344 65.019531 C 332.55883 65.019531 341.28329 68.53455 347.69922 75.566406 C 354.06382 82.546935 357.24609 92.221889 357.24609 104.5918 L 357.16992 108.67188 L 303.42969 108.67188 C 303.89163 114.83117 305.89395 119.73466 309.43555 123.37891 C 312.97714 126.97183 317.51914 128.76758 323.0625 128.76758 C 327.374 128.76758 330.94066 127.7406 333.76367 125.6875 C 336.53535 123.6344 339.69278 119.83633 343.23438 114.29297 L 357.86328 122.45508 C 355.60487 126.30463 353.21817 129.61504 350.70312 132.38672 C 348.18808 135.10707 345.49348 137.36565 342.61914 139.16211 C 339.74481 140.90724 336.63902 142.19048 333.30273 143.01172 C 329.96645 143.83296 326.34815 144.24219 322.44727 144.24219 C 311.25789 144.24219 302.27522 140.65068 295.5 133.46484 C 288.72478 126.22768 285.33594 116.62921 285.33594 104.66992 C 285.33594 92.813288 288.6215 83.214821 295.19141 75.875 C 301.81264 68.637834 310.5907 65.019531 321.52344 65.019531 z M 146.83008 80.648438 C 140.20884 80.648438 134.84447 82.855373 130.73828 87.269531 C 126.63209 91.683689 124.58008 97.380799 124.58008 104.36133 C 124.58008 111.85513 126.58045 117.78365 130.58398 122.14648 C 134.69018 126.56064 140.10619 128.76758 146.83008 128.76758 C 153.6053 128.76758 159.01935 126.58549 163.07422 122.22266 C 167.12908 117.85983 169.15625 112.03459 169.15625 104.74609 C 169.15625 97.4576 167.12908 91.632362 163.07422 87.269531 C 158.96803 82.855373 153.55397 80.648438 146.83008 80.648438 z M 321.9082 80.648438 C 319.80378 80.648438 317.8263 80.981181 315.97852 81.648438 C 314.13073 82.264367 312.43826 83.188064 310.89844 84.419922 C 309.40994 85.600453 308.1267 87.038617 307.04883 88.732422 C 305.97095 90.426227 305.14859 92.350108 304.58398 94.505859 L 339.38477 94.505859 C 336.97238 85.266924 331.14714 80.648438 321.9082 80.648438 z M 20.355469 159.91016 L 40.681641 159.91016 C 50.63915 159.91016 58.158825 160.60244 63.240234 161.98828 C 68.372971 163.37412 72.890136 165.99224 76.791016 169.8418 C 83.617556 176.51435 87.03125 184.93288 87.03125 195.0957 C 87.03125 205.97711 83.386143 214.5983 76.097656 220.96289 C 68.809171 227.32748 58.981224 230.50977 46.611328 230.50977 L 38.294922 230.50977 L 38.294922 278.78516 L 20.355469 278.78516 L 20.355469 159.91016 z M 110.82031 161.44922 C 113.95129 161.44922 116.62106 162.55269 118.82812 164.75977 C 121.0352 166.91551 122.13867 169.55849 122.13867 172.68945 C 122.13867 175.82043 121.0352 178.49019 118.82812 180.69727 C 116.67238 182.90433 114.0294 184.00781 110.89844 184.00781 C 107.76746 184.00781 105.0977 182.90433 102.89062 180.69727 C 100.68356 178.49019 99.580078 175.79558 99.580078 172.61328 C 99.580078 169.58496 100.68356 166.96683 102.89062 164.75977 C 105.0977 162.55269 107.74068 161.44922 110.82031 161.44922 z M 38.294922 176.46289 L 38.294922 213.88086 L 44.994141 213.88086 C 61.470226 213.88086 69.707031 207.54114 69.707031 194.86328 C 69.707031 182.59604 61.213969 176.46289 44.224609 176.46289 L 38.294922 176.46289 z M 178.88086 201.7168 C 186.272 201.7168 193.25236 203.4877 199.82227 207.0293 L 199.82227 230.04883 C 195.87005 225.22405 192.32823 221.91365 189.19727 220.11719 C 186.11762 218.2694 182.49931 217.3457 178.3418 217.3457 C 171.82321 217.3457 166.40915 219.62913 162.09766 224.19727 C 157.78615 228.7654 155.63086 234.48931 155.63086 241.36719 C 155.63086 248.39903 157.70967 254.17265 161.86719 258.68945 C 166.07603 263.20627 171.43846 265.46484 177.95703 265.46484 C 182.11455 265.46484 185.7845 264.56599 188.9668 262.76953 C 192.04643 261.0244 195.66474 257.63751 199.82227 252.60742 L 199.82227 275.47266 C 192.79041 279.11689 185.75842 280.93945 178.72656 280.93945 C 167.12658 280.93945 157.42676 277.19301 149.625 269.69922 C 141.82324 262.1541 137.92188 252.78702 137.92188 241.59766 C 137.92188 230.40829 141.87487 220.96474 149.7793 213.26562 C 157.68371 205.56652 167.38353 201.7168 178.88086 201.7168 z M 253.02344 201.7168 C 264.21281 201.7168 273.708 205.53972 281.50977 213.1875 C 289.20887 220.83528 293.05859 230.22915 293.05859 241.36719 C 293.05859 252.60788 289.18403 262.02659 281.43359 269.62305 C 273.63184 277.16817 264.06015 280.93945 252.7168 280.93945 C 241.4761 280.93945 232.05739 277.08974 224.46094 269.39062 C 216.86449 261.79418 213.06445 252.24733 213.06445 240.75 C 213.06445 229.91992 216.94097 220.70778 224.69141 213.11133 C 232.44184 205.51488 241.8854 201.7168 253.02344 201.7168 z M 102.19727 203.79492 L 119.52148 203.79492 L 119.52148 278.78516 L 102.19727 278.78516 L 102.19727 203.79492 z M 253.02344 217.3457 C 246.4022 217.3457 241.03979 219.55264 236.93359 223.9668 C 232.82741 228.38095 230.77344 234.07807 230.77344 241.05859 C 230.77344 248.5524 232.77576 254.48092 236.7793 258.84375 C 240.88548 263.25791 246.29955 265.46484 253.02344 265.46484 C 259.79865 265.46484 265.21468 263.28275 269.26953 258.91992 C 273.3244 254.5571 275.35156 248.73184 275.35156 241.44336 C 275.35156 234.15488 273.3244 228.32962 269.26953 223.9668 C 265.16335 219.55264 259.74732 217.3457 253.02344 217.3457 z " /></svg>
