<?xml version="1.0" encoding="UTF-8" standalone="no"?>
<!-- Generator: Adobe Illustrator 19.2.1, SVG Export Plug-In . SVG Version: 6.00 Build 0)  -->

<svg
   inkscape:version="1.2 (dc2aeda, 2022-05-15)"
   sodipodi:docname="sofle-pico-vector-logo-v4-inverted.svg"
   xml:space="preserve"
   viewBox="0 0 390.82896 305.33512"
   y="0px"
   x="0px"
   id="layer"
   version="1.1"
   width="390.82895"
   height="305.33511"
   xmlns:inkscape="http://www.inkscape.org/namespaces/inkscape"
   xmlns:sodipodi="http://sodipodi.sourceforge.net/DTD/sodipodi-0.dtd"
   xmlns="http://www.w3.org/2000/svg"
   xmlns:svg="http://www.w3.org/2000/svg"><defs
   id="defs543">
		
		
		
		
		
		
		
		
	
			
			
		
			
			
		
		
	
	
	
	
	
</defs><sodipodi:namedview
   id="namedview541"
   pagecolor="#ffffff"
   bordercolor="#000000"
   borderopacity="0.25"
   inkscape:showpageshadow="2"
   inkscape:pageopacity="0.0"
   inkscape:pagecheckerboard="0"
   inkscape:deskcolor="#d1d1d1"
   showgrid="false"
   inkscape:zoom="2.4563174"
   inkscape:cx="253.83527"
   inkscape:cy="289.86482"
   inkscape:window-width="2560"
   inkscape:window-height="1288"
   inkscape:window-x="1728"
   inkscape:window-y="332"
   inkscape:window-maximized="0"
   inkscape:current-layer="layer" />
<style
   type="text/css"
   id="style498">
	.st0{fill:#020203;}
	.st1{fill:#6ABF4B;}
	.st2{fill:#C31C4A;}
</style>

<path
   id="rect513"
   style="fill:#000000;fill-opacity:1;stroke:none;stroke-width:0;stop-color:#000000;stroke-dasharray:none"
   d="M 37.046875 0 C 16.522717 0 0 16.522717 0 37.046875 L 0 268.28711 C 0 288.81127 16.522717 305.33594 37.046875 305.33594 L 353.78125 305.33594 C 374.30541 305.33594 390.82813 288.81127 390.82812 268.28711 L 390.82812 37.046875 C 390.82812 16.522717 374.30541 0 353.78125 0 L 37.046875 0 z M 88.119141 15.884766 C 94.460767 15.772079 101.10899 16.815502 107.08789 19.339844 C 133.05108 17.277297 164.15985 45.757564 152.5 83.546875 C 149.76668 91.005494 144.09804 97.188703 137.23242 101.08594 C 129.42365 113.28029 120.65759 121.76724 105.6875 128.07617 C 94.219178 131.71527 64.618508 130.60561 57.585938 114.98438 C 52.597172 113.12868 38.27905 108.31527 33.289062 89.628906 C 27.149699 84.171688 23.842135 74.424988 23.984375 66.798828 C 20.679155 62.405178 18.811023 56.13445 17.445312 50.802734 C 16.746811 47.675566 16.151069 44.470801 16.310547 41.251953 C 16.404529 37.971145 17.901591 34.776479 20.398438 32.640625 C 27.266133 27.081226 35.811358 23.723924 44.5625 22.699219 C 48.013839 20.359459 52.067333 19.794685 56.318359 18.154297 C 62.380244 16.214155 71.049664 15.756429 77.246094 17.265625 C 80.619557 16.436273 84.314163 15.952376 88.119141 15.884766 z M 297.72266 15.884766 C 301.52761 15.952376 305.22225 16.436274 308.5957 17.265625 C 314.79214 15.756431 323.46154 16.214157 329.52344 18.154297 C 333.77445 19.794683 337.82795 20.359461 341.2793 22.699219 C 350.03043 23.723923 358.57568 27.081233 365.44336 32.640625 C 367.94021 34.776477 369.43727 37.971148 369.53125 41.251953 C 369.69073 44.470798 369.09498 47.67557 368.39648 50.802734 C 367.03079 56.134445 365.16265 62.405183 361.85742 66.798828 C 361.99966 74.42498 358.6921 84.171694 352.55273 89.628906 C 347.56276 108.31525 333.24461 113.12868 328.25586 114.98438 C 321.22331 130.60559 291.62261 131.71527 280.1543 128.07617 C 265.18422 121.76725 256.41814 113.28028 248.60938 101.08594 C 241.74376 97.188704 236.07509 91.005487 233.3418 83.546875 C 221.68196 45.757602 252.79072 17.277299 278.75391 19.339844 C 284.73279 16.815504 291.38102 15.772079 297.72266 15.884766 z M 89.699219 28.572266 C 88.893011 28.609859 88.087186 28.749227 87.289062 29.005859 C 94.44558 44.702967 75.729832 26.040056 60.357422 31.554688 C 72.543352 44.902221 50.33094 28.270962 30.316406 42.658203 C 31.312309 63.012528 56.201277 68.64436 39.175781 69.466797 C 40.975464 87.313352 70.862556 91.501589 48.8125 90.783203 C 54.300791 103.44131 90.114631 104.34572 69.990234 110.47266 C 83.513107 118.05606 106.41011 122.97487 124.32812 95.244141 C 113.86387 83.685585 94.713848 70.211557 61.748047 53.455078 C 87.395719 62.004303 110.51376 73.425647 129.73242 89.224609 C 151.71942 77.754479 138.76251 41.629056 112.56445 34.851562 C 114.30561 50.089313 101.79234 28.008377 89.699219 28.572266 z M 296.14258 28.572266 C 284.04946 28.008377 271.5362 50.089298 273.27734 34.851562 C 247.07933 41.62905 234.1224 77.754491 256.10938 89.224609 C 275.32801 73.425663 298.44612 62.004295 324.09375 53.455078 C 291.12798 70.21154 271.97792 83.685596 261.51367 95.244141 C 279.43166 122.97484 302.32872 118.05605 315.85156 110.47266 C 295.72718 104.34572 331.541 103.4413 337.0293 90.783203 C 314.97926 91.501588 344.86633 87.313334 346.66602 69.466797 C 329.64052 68.644361 354.52949 63.012508 355.52539 42.658203 C 335.51088 28.270977 313.29845 44.902207 325.48438 31.554688 C 310.11197 26.040061 291.39622 44.702952 298.55273 29.005859 C 297.75463 28.749228 296.94879 28.609859 296.14258 28.572266 z M 191.49023 89.978516 C 229.11046 91.760144 251.22374 106.14395 271.46289 140.57617 C 290.45391 158.84057 302.22898 184.38266 296.89648 213.15625 C 291.56402 241.92983 269.78166 253.46265 262.51172 257.03516 C 245.89241 281.08089 218.03788 289.85493 194.73242 289.67773 C 170.17689 289.70052 140.57789 280.92659 122.91602 256.88086 C 115.19001 253.30834 92.040031 241.77358 86.373047 213 C 80.706043 184.22641 89.895767 164.08667 110.07812 145.82227 C 131.58692 111.39005 154.20521 92.228753 191.49023 89.978516 z M 192.28711 106.34961 C 163.11248 106.48069 139.17804 121.95155 135.92578 152.58789 C 132.67353 183.22423 160.36373 205.30352 192.26367 205.10352 C 224.16361 204.90352 247.5087 178.15476 246.96484 153.02734 C 246.42098 127.89993 221.46174 106.21853 192.28711 106.34961 z M 267.56055 172.93945 C 263.00423 172.92266 258.00653 175.83628 251.95703 183.85742 C 242.61743 196.73725 244.11061 223.34605 251.92188 230.04883 C 259.28033 235.10875 273.27772 232.59179 282.8418 217.50977 C 291.44553 199.96429 285.21926 183.06297 277.67969 177.27148 C 274.38112 174.73772 271.10434 172.95255 267.56055 172.93945 z M 115.61914 176.68555 C 111.05999 176.82462 107.21321 179.36727 104.68945 181.84766 C 99.64195 186.80845 91.339638 202.04828 99.943359 219.59375 C 109.50744 234.67576 123.50484 237.19274 130.86328 232.13281 C 138.6745 225.43005 140.16769 198.82123 130.82812 185.94141 C 125.4508 178.81151 120.1783 176.54649 115.61914 176.68555 z M 193.23828 218.41211 C 161.23834 218.21211 140.83828 230.01331 140.73828 244.61328 C 140.73828 261.31324 169.93911 278.91328 193.53906 278.61328 C 220.03901 279.21328 245.63867 259.21365 245.63867 247.51367 C 245.73867 233.3137 224.63822 218.81211 193.23828 218.41211 z " /></svg>
