G04*
G04 #@! TF.GenerationSoftware,Altium Limited,Altium Designer,24.1.2 (44)*
G04*
G04 Layer_Color=8388736*
%FSLAX25Y25*%
%MOIN*%
G70*
G04*
G04 #@! TF.SameCoordinates,65BFF3FE-7942-4149-9377-A7B4CFA7E9D2*
G04*
G04*
G04 #@! TF.FilePolarity,Negative*
G04*
G01*
G75*
G04:AMPARAMS|DCode=16|XSize=39.5mil|YSize=45.4mil|CornerRadius=7.94mil|HoleSize=0mil|Usage=FLASHONLY|Rotation=0.000|XOffset=0mil|YOffset=0mil|HoleType=Round|Shape=RoundedRectangle|*
%AMROUNDEDRECTD16*
21,1,0.03950,0.02953,0,0,0.0*
21,1,0.02362,0.04540,0,0,0.0*
1,1,0.01587,0.01181,-0.01476*
1,1,0.01587,-0.01181,-0.01476*
1,1,0.01587,-0.01181,0.01476*
1,1,0.01587,0.01181,0.01476*
%
%ADD16ROUNDEDRECTD16*%
%ADD17R,0.04737X0.06800*%
%ADD18R,0.03556X0.01981*%
G04:AMPARAMS|DCode=19|XSize=31.62mil|YSize=43.43mil|CornerRadius=6.95mil|HoleSize=0mil|Usage=FLASHONLY|Rotation=90.000|XOffset=0mil|YOffset=0mil|HoleType=Round|Shape=RoundedRectangle|*
%AMROUNDEDRECTD19*
21,1,0.03162,0.02953,0,0,90.0*
21,1,0.01772,0.04343,0,0,90.0*
1,1,0.01391,0.01476,0.00886*
1,1,0.01391,0.01476,-0.00886*
1,1,0.01391,-0.01476,-0.00886*
1,1,0.01391,-0.01476,0.00886*
%
%ADD19ROUNDEDRECTD19*%
%ADD20R,0.08800X0.08800*%
%ADD21C,0.08800*%
D16*
X121457Y421149D02*
D03*
X127756D02*
D03*
D17*
X158217Y450012D02*
D03*
Y422138D02*
D03*
D18*
X147784Y444933D02*
D03*
Y446902D02*
D03*
Y425248D02*
D03*
Y427217D02*
D03*
Y429185D02*
D03*
Y431154D02*
D03*
Y433122D02*
D03*
Y435091D02*
D03*
Y437059D02*
D03*
Y439028D02*
D03*
Y440996D02*
D03*
Y442965D02*
D03*
D19*
X139000Y435677D02*
D03*
Y429575D02*
D03*
X132500Y435677D02*
D03*
Y429575D02*
D03*
D20*
X123976Y409055D02*
D03*
D21*
X133976D02*
D03*
X143976D02*
D03*
X153976D02*
D03*
M02*
