G04*
G04 #@! TF.GenerationSoftware,Altium Limited,Altium Designer,24.1.2 (44)*
G04*
G04 Layer_Physical_Order=1*
G04 Layer_Color=255*
%FSLAX25Y25*%
%MOIN*%
G70*
G04*
G04 #@! TF.SameCoordinates,65BFF3FE-7942-4149-9377-A7B4CFA7E9D2*
G04*
G04*
G04 #@! TF.FilePolarity,Positive*
G04*
G01*
G75*
G04:AMPARAMS|DCode=12|XSize=31.5mil|YSize=37.4mil|CornerRadius=3.94mil|HoleSize=0mil|Usage=FLASHONLY|Rotation=0.000|XOffset=0mil|YOffset=0mil|HoleType=Round|Shape=RoundedRectangle|*
%AMROUNDEDRECTD12*
21,1,0.03150,0.02953,0,0,0.0*
21,1,0.02362,0.03740,0,0,0.0*
1,1,0.00787,0.01181,-0.01476*
1,1,0.00787,-0.01181,-0.01476*
1,1,0.00787,-0.01181,0.01476*
1,1,0.00787,0.01181,0.01476*
%
%ADD12ROUNDEDRECTD12*%
%ADD13R,0.03937X0.06000*%
%ADD14R,0.02756X0.01181*%
G04:AMPARAMS|DCode=15|XSize=23.62mil|YSize=35.43mil|CornerRadius=2.95mil|HoleSize=0mil|Usage=FLASHONLY|Rotation=90.000|XOffset=0mil|YOffset=0mil|HoleType=Round|Shape=RoundedRectangle|*
%AMROUNDEDRECTD15*
21,1,0.02362,0.02953,0,0,90.0*
21,1,0.01772,0.03543,0,0,90.0*
1,1,0.00591,0.01476,0.00886*
1,1,0.00591,0.01476,-0.00886*
1,1,0.00591,-0.01476,-0.00886*
1,1,0.00591,-0.01476,0.00886*
%
%ADD15ROUNDEDRECTD15*%
%ADD22C,0.01000*%
%ADD23C,0.01200*%
%ADD24R,0.08000X0.08000*%
%ADD25C,0.08000*%
G36*
X123085Y414243D02*
X123091Y414013D01*
X123109Y413807D01*
X123139Y413625D01*
X123181Y413467D01*
X123235Y413334D01*
X123301Y413225D01*
X123379Y413140D01*
X123469Y413080D01*
X123571Y413043D01*
X123685Y413031D01*
X121285D01*
X121399Y413043D01*
X121501Y413080D01*
X121591Y413140D01*
X121669Y413225D01*
X121735Y413334D01*
X121789Y413467D01*
X121831Y413625D01*
X121861Y413807D01*
X121879Y414013D01*
X121885Y414243D01*
X123085D01*
D02*
G37*
G36*
X134576Y414928D02*
X134583Y414575D01*
X134640Y413964D01*
X134690Y413706D01*
X134754Y413481D01*
X134832Y413288D01*
X134925Y413126D01*
X135031Y412997D01*
X135152Y412899D01*
X135287Y412834D01*
X132665D01*
X132800Y412899D01*
X132921Y412997D01*
X133028Y413126D01*
X133120Y413288D01*
X133199Y413481D01*
X133263Y413706D01*
X133312Y413964D01*
X133348Y414253D01*
X133369Y414575D01*
X133376Y414928D01*
X134576D01*
D02*
G37*
G36*
X138695Y415043D02*
X139111Y414660D01*
X139551Y414317D01*
X140016Y414016D01*
X140504Y413755D01*
X141016Y413536D01*
X141552Y413358D01*
X142112Y413220D01*
X142696Y413124D01*
X143304Y413069D01*
X143936Y413055D01*
X139977Y409095D01*
X139962Y409727D01*
X139907Y410335D01*
X139811Y410919D01*
X139674Y411480D01*
X139496Y412016D01*
X139276Y412528D01*
X139016Y413016D01*
X138714Y413480D01*
X138372Y413920D01*
X137988Y414336D01*
X138695Y415043D01*
D02*
G37*
G36*
X148695D02*
X149111Y414660D01*
X149551Y414317D01*
X150016Y414016D01*
X150504Y413755D01*
X151016Y413536D01*
X151552Y413358D01*
X152112Y413220D01*
X152696Y413124D01*
X153304Y413069D01*
X153936Y413055D01*
X149977Y409095D01*
X149962Y409727D01*
X149907Y410335D01*
X149811Y410919D01*
X149674Y411480D01*
X149496Y412016D01*
X149276Y412528D01*
X149016Y413016D01*
X148714Y413480D01*
X148372Y413920D01*
X147988Y414336D01*
X148695Y415043D01*
D02*
G37*
D12*
X121457Y421149D02*
D03*
X127756D02*
D03*
D13*
X158217Y450012D02*
D03*
Y422138D02*
D03*
D14*
X147784Y444933D02*
D03*
Y446902D02*
D03*
Y425248D02*
D03*
Y427217D02*
D03*
Y429185D02*
D03*
Y431154D02*
D03*
Y433122D02*
D03*
Y435091D02*
D03*
Y437059D02*
D03*
Y439028D02*
D03*
Y440996D02*
D03*
Y442965D02*
D03*
D15*
X139000Y435677D02*
D03*
Y429575D02*
D03*
X132500Y435677D02*
D03*
Y429575D02*
D03*
D22*
X138189Y414843D02*
Y419685D01*
Y414843D02*
X143976Y409055D01*
X132500Y425374D02*
X138189Y419685D01*
X132500Y425374D02*
Y429575D01*
X136200Y432644D02*
X143242D01*
X144732Y431154D01*
X133813Y430256D02*
X136200Y432644D01*
X133181Y430256D02*
X133813D01*
X132500Y429575D02*
X133181Y430256D01*
X132500Y435677D02*
X139000D01*
Y424031D02*
X153976Y409055D01*
X139000Y424031D02*
Y429575D01*
D23*
X154000Y424500D02*
Y450035D01*
X145381Y422860D02*
X152360D01*
X154000Y424500D01*
X150797Y450000D02*
X151500Y449297D01*
Y425951D02*
Y449297D01*
X142913Y450000D02*
X150797D01*
Y425248D02*
X151500Y425951D01*
X147784Y425248D02*
X150797D01*
X151279Y452756D02*
X154000Y450035D01*
X122485Y433804D02*
X141437Y452756D01*
X122485Y410546D02*
Y421149D01*
Y433804D01*
X141437Y452756D02*
X151279D01*
X126781Y422123D02*
X127756Y421149D01*
X126781Y422123D02*
Y423112D01*
X126772Y423122D02*
X126781Y423112D01*
X126772Y430539D02*
X131909Y435677D01*
X126772Y423122D02*
Y430539D01*
X133976Y409055D02*
Y414928D01*
X129026Y419879D02*
X133976Y414928D01*
X127756Y420853D02*
Y421149D01*
X128731Y419879D02*
X129026D01*
X127756Y420853D02*
X128731Y419879D01*
X144732Y431154D02*
X147784D01*
X131909Y435677D02*
X132500D01*
X122485Y410546D02*
X123976Y409055D01*
X141339Y448425D02*
X142913Y450000D01*
X141339Y437425D02*
Y448425D01*
X139591Y435677D02*
X141339Y437425D01*
X139000Y435677D02*
X139591D01*
X143780Y424461D02*
X145381Y422860D01*
X143780Y424461D02*
Y427217D01*
X147784D01*
X139390Y429185D02*
X147784D01*
D24*
X123976Y409055D02*
D03*
D25*
X133976D02*
D03*
X143976D02*
D03*
X153976D02*
D03*
M02*
