<?xml version="1.0" encoding="UTF-8" standalone="no"?>
<!-- Generator: Adobe Illustrator 19.2.1, SVG Export Plug-In . SVG Version: 6.00 Build 0)  -->

<svg
   inkscape:version="1.2 (dc2aeda, 2022-05-15)"
   sodipodi:docname="sofle-pico-logo-icon-only-white.svg"
   xml:space="preserve"
   viewBox="0 0 324.33517 251.37493"
   y="0px"
   x="0px"
   id="layer"
   version="1.1"
   width="324.33517"
   height="251.37494"
   inkscape:export-filename="sofle-pico-vector-logo-v5 OLED chopped.png"
   inkscape:export-xdpi="96"
   inkscape:export-ydpi="96"
   xmlns:inkscape="http://www.inkscape.org/namespaces/inkscape"
   xmlns:sodipodi="http://sodipodi.sourceforge.net/DTD/sodipodi-0.dtd"
   xmlns="http://www.w3.org/2000/svg"
   xmlns:svg="http://www.w3.org/2000/svg"><defs
   id="defs543"><linearGradient
   id="linearGradient2495"
   inkscape:swatch="solid"><stop
     style="stop-color:#000000;stop-opacity:1;"
     offset="0"
     id="stop2493" /></linearGradient>
		
		
		
		
		
		
		
		
	
			
			
		
			
			
		
		
	
	
	
	
	
</defs><sodipodi:namedview
   id="namedview541"
   pagecolor="#ffffff"
   bordercolor="#000000"
   borderopacity="0.25"
   inkscape:showpageshadow="2"
   inkscape:pageopacity="0.0"
   inkscape:pagecheckerboard="0"
   inkscape:deskcolor="#d1d1d1"
   showgrid="false"
   inkscape:zoom="1.2038168"
   inkscape:cx="-279.11224"
   inkscape:cy="139.55612"
   inkscape:window-width="2560"
   inkscape:window-height="1288"
   inkscape:window-x="1728"
   inkscape:window-y="332"
   inkscape:window-maximized="0"
   inkscape:current-layer="layer" />
<style
   type="text/css"
   id="style498">
	.st0{fill:#020203;}
	.st1{fill:#6ABF4B;}
	.st2{fill:#C31C4A;}
</style>

<text
   xml:space="preserve"
   style="font-style:normal;font-variant:normal;font-weight:500;font-stretch:normal;font-size:47.7025px;font-family:Futura;-inkscape-font-specification:'Futura, Medium';font-variant-ligatures:normal;font-variant-caps:normal;font-variant-numeric:normal;font-variant-east-asian:normal;fill:#ffffff;stroke-width:0.496901;stop-color:#000000;fill-opacity:1"
   x="166.83698"
   y="334.8717"
   id="text2771-8"><tspan
     sodipodi:role="line"
     x="166.83698"
     y="334.8717"
     style="stroke-width:0.496901;fill:#ffffff;fill-opacity:1"
     id="tspan2818" /></text><text
   xml:space="preserve"
   style="font-style:normal;font-variant:normal;font-weight:bold;font-stretch:normal;font-size:66.6667px;font-family:Futura;-inkscape-font-specification:'Futura, Bold';font-variant-ligatures:normal;font-variant-caps:normal;font-variant-numeric:normal;font-variant-east-asian:normal;text-align:end;text-anchor:end;fill:#ffffff;stop-color:#000000;fill-opacity:1"
   x="267.2041"
   y="332.94495"
   id="text3046"><tspan
     sodipodi:role="line"
     id="tspan3044"
     x="267.2041"
     y="332.94495" /></text><g
   id="g1782"
   transform="matrix(0.91808486,0,0,0.91808486,629.68911,-399.77493)"
   style="fill:#ffffff;fill-opacity:1"><path
     id="path508-0"
     style="fill:#ffffff;fill-opacity:1"
     class="st2"
     d="m -510.66752,509.54618 c -37.28506,2.25024 -59.90329,21.4115 -81.41211,55.84375 -20.18238,18.26442 -29.37208,38.40412 -23.70507,67.17774 5.66699,28.77361 28.81695,40.30834 36.54296,43.88086 17.66189,24.04575 47.26085,32.81966 71.81641,32.79687 23.30548,0.1772 51.15997,-8.59682 67.7793,-32.64258 7.26995,-3.57251 29.05229,-15.10529 34.38476,-43.8789 5.3325,-28.77362 -6.44255,-54.31566 -25.43359,-72.58008 -20.23917,-34.43226 -42.3524,-48.81603 -79.97266,-50.59766 z m 0.79688,16.3711 c 29.17466,-0.13108 54.13387,21.55029 54.67773,46.67773 0.54386,25.12744 -22.8012,51.87617 -54.70117,52.07617 -31.89997,0.2 -59.59014,-21.87925 -56.33789,-52.51562 3.25226,-30.63637 27.18667,-46.1072 56.36133,-46.23828 z m 75.27344,66.58984 c 3.5438,0.0131 6.82057,1.79826 10.11914,4.33203 7.53958,5.79149 13.76584,22.69279 5.1621,40.23828 -9.56409,15.08204 -23.56146,17.599 -30.91992,12.53907 -7.81127,-6.70278 -9.30441,-33.31157 0.0352,-46.19141 6.0495,-8.02115 11.0472,-10.93476 15.60352,-10.91797 z m -151.94141,3.74609 c 4.55916,-0.13906 9.83165,2.12596 15.20898,9.25586 9.33957,12.87984 7.84643,39.48864 0.0352,46.19141 -7.35845,5.05993 -21.35583,2.54297 -30.91992,-12.53906 -8.60373,-17.54549 -0.30142,-32.7853 4.74609,-37.7461 2.52376,-2.48039 6.37053,-5.02304 10.92969,-5.16211 z m 77.61914,41.72657 c 31.39997,0.4 52.50039,14.90157 52.40039,29.10156 0,11.69999 -25.59964,31.69961 -52.09961,31.09961 -23.59998,0.3 -52.80078,-17.30002 -52.80078,-34 0.1,-14.59999 20.50003,-26.40117 52.5,-26.20117 z" /><path
     id="path388"
     style="font-variation-settings:normal;fill:#ffffff;fill-opacity:1;stroke-width:0.683941;stroke-linecap:butt;stroke-linejoin:miter;stroke-miterlimit:4;stroke-dasharray:none;stroke-dashoffset:0;stroke-opacity:1;stop-color:#000000"
     d="m -614.03777,435.45262 c -3.80499,0.0676 -7.49958,0.55151 -10.87305,1.38086 -6.19644,-1.5092 -14.86584,-1.05148 -20.92773,0.88867 -4.25104,1.64039 -8.30452,2.20516 -11.75586,4.54492 -8.75116,1.02471 -17.29636,4.382 -24.16407,9.94141 -2.49685,2.13586 -3.9939,5.33051 -4.08789,8.61133 -0.15947,3.21885 0.43627,6.4236 1.13477,9.55078 1.36571,5.33173 3.23384,11.60243 6.53906,15.99609 -0.14224,7.62618 3.16531,17.37285 9.30469,22.83008 4.98999,18.6864 19.3081,23.49977 24.29687,25.35547 7.03259,15.62126 36.63323,16.7309 48.10157,13.0918 14.97011,-6.30895 23.73613,-14.79586 31.54492,-26.99024 6.86562,-3.89724 12.53426,-10.08043 15.26758,-17.53906 11.65987,-37.78939 -19.44886,-66.26958 -45.41211,-64.20703 -5.97892,-2.52435 -12.62711,-3.56777 -18.96875,-3.45508 z m 1.58007,12.6875 c 12.09316,-0.56389 24.6064,21.51708 22.86524,6.2793 26.1981,6.7775 39.15501,42.90289 17.16797,54.37304 -19.2187,-15.79899 -42.33665,-27.22029 -67.98438,-35.76953 32.96587,16.75652 52.1158,30.23049 62.58009,41.78907 -17.91805,27.73078 -40.815,22.81193 -54.3379,15.22851 20.12444,-6.12693 -15.68943,-7.03132 -21.17773,-19.68945 22.0501,0.71839 -7.83703,-3.46982 -9.63672,-21.31641 17.02553,-0.82244 -7.86347,-6.45423 -8.85938,-26.80859 20.01458,-14.38727 42.22697,2.24404 30.04102,-11.10352 15.37244,-5.51464 34.08817,13.14831 26.93164,-2.54883 0.79812,-0.25663 1.60394,-0.396 2.41015,-0.43359 z" /><path
     id="path388-8"
     style="font-variation-settings:normal;fill:#ffffff;fill-opacity:1;stroke-width:0.683941;stroke-linecap:butt;stroke-linejoin:miter;stroke-miterlimit:4;stroke-dasharray:none;stroke-dashoffset:0;stroke-opacity:1;stop-color:#000000"
     d="m -404.4335,435.45262 c 3.80498,0.0676 7.49957,0.55151 10.87305,1.38086 6.19644,-1.5092 14.86583,-1.05148 20.92773,0.88867 4.25104,1.64039 8.30451,2.20516 11.75586,4.54492 8.75116,1.02471 17.29635,4.382 24.16406,9.94141 2.49685,2.13586 3.99391,5.33051 4.08789,8.61133 0.15948,3.21885 -0.43626,6.4236 -1.13476,9.55078 -1.36572,5.33173 -3.23384,11.60243 -6.53907,15.99609 0.14224,7.62618 -3.16531,17.37285 -9.30468,22.83008 -4.99,18.6864 -19.3081,23.49977 -24.29688,25.35547 -7.03258,15.62126 -36.63322,16.7309 -48.10156,13.0918 -14.97011,-6.30895 -23.73613,-14.79586 -31.54492,-26.99024 -6.86562,-3.89724 -12.53426,-10.08043 -15.26758,-17.53906 -11.65987,-37.78939 19.44886,-66.26958 45.41211,-64.20703 5.97891,-2.52435 12.62711,-3.56777 18.96875,-3.45508 z m -1.58008,12.6875 c -12.09315,-0.56389 -24.6064,21.51708 -22.86523,6.2793 -26.1981,6.7775 -39.15501,42.90289 -17.16797,54.37304 19.21869,-15.79899 42.33665,-27.22029 67.98437,-35.76953 -32.96586,16.75652 -52.1158,30.23049 -62.58008,41.78907 17.91805,27.73078 40.815,22.81193 54.3379,15.22851 -20.12444,-6.12693 15.68943,-7.03132 21.17773,-19.68945 -22.0501,0.71839 7.83703,-3.46982 9.63672,-21.31641 -17.02553,-0.82244 7.86347,-6.45423 8.85937,-26.80859 -20.01457,-14.38727 -42.22697,2.24404 -30.04101,-11.10352 -15.37244,-5.51464 -34.08818,13.14831 -26.93164,-2.54883 -0.79813,-0.25663 -1.60395,-0.396 -2.41016,-0.43359 z" /></g></svg>
