<?xml version="1.0" encoding="UTF-8" standalone="no"?>
<!-- Generator: Adobe Illustrator 19.2.1, SVG Export Plug-In . SVG Version: 6.00 Build 0)  -->

<svg
   inkscape:version="1.2 (dc2aeda, 2022-05-15)"
   sodipodi:docname="sofle-pico-choc-logo-text.svg"
   xml:space="preserve"
   viewBox="0 0 705.9833 283.23465"
   y="0px"
   x="0px"
   id="layer"
   version="1.1"
   width="705.98334"
   height="283.23462"
   inkscape:export-filename="sofle-pico-vector-logo-v5-132x31.svg"
   inkscape:export-xdpi="10.772038"
   inkscape:export-ydpi="10.772038"
   xmlns:inkscape="http://www.inkscape.org/namespaces/inkscape"
   xmlns:sodipodi="http://sodipodi.sourceforge.net/DTD/sodipodi-0.dtd"
   xmlns="http://www.w3.org/2000/svg"
   xmlns:svg="http://www.w3.org/2000/svg"><defs
   id="defs543">
		
		
		
		
		
		
		
		
	
			
			
		
			
			
		
		
	
	
	
	
	
</defs><sodipodi:namedview
   id="namedview541"
   pagecolor="#ffffff"
   bordercolor="#000000"
   borderopacity="0.25"
   inkscape:showpageshadow="2"
   inkscape:pageopacity="0.0"
   inkscape:pagecheckerboard="0"
   inkscape:deskcolor="#d1d1d1"
   showgrid="false"
   inkscape:zoom="0.85122705"
   inkscape:cx="-48.75315"
   inkscape:cy="286.64503"
   inkscape:window-width="2560"
   inkscape:window-height="1288"
   inkscape:window-x="1728"
   inkscape:window-y="706"
   inkscape:window-maximized="0"
   inkscape:current-layer="layer" />
<style
   type="text/css"
   id="style498">
	.st0{fill:#020203;}
	.st1{fill:#6ABF4B;}
	.st2{fill:#C31C4A;}
</style>

<path
   d="m 70.80622,45.99244 q -5.05758,-4.10929 -10.11517,-6.00589 -5.05759,-2.05464 -9.79907,-2.05464 -6.00589,0 -9.79908,2.84489 -3.79319,2.8449 -3.79319,7.42834 0,3.16099 1.89659,5.21563 1.8966,2.05465 4.89954,3.63515 3.16099,1.42244 6.95418,2.52879 3.95124,1.10634 7.74444,2.37075 15.17275,5.05758 22.12694,13.59227 7.11224,8.37662 7.11224,21.96889 0,9.16688 -3.161,16.59521 -3.00295,7.42833 -9.00883,12.80202 -5.84784,5.21564 -14.54057,8.06052 -8.53467,3.00295 -19.4401,3.00295 -22.6011,0 -41.88314,-13.43421 L 13.27616,99.57126 q 6.95418,6.16394 13.75032,9.16689 6.79613,3.00294 13.43422,3.00294 7.58638,0 11.22152,-3.4771 3.79319,-3.47709 3.79319,-7.90248 0,-2.68684 -0.9483,-4.58344 -0.9483,-2.05464 -3.16099,-3.63513 -2.21269,-1.73855 -5.84784,-3.161 Q 42.0412,87.55949 36.9836,85.82095 30.97772,83.92435 25.12988,81.71166 19.4401,79.34091 14.85666,75.54773 10.43127,71.75453 7.58637,66.06475 4.89954,60.21691 4.89954,51.36613 q 0,-8.85078 2.84489,-15.96301 3.00294,-7.27029 8.21858,-12.32787 5.37368,-5.21564 12.96006,-8.06053 7.74444,-2.84489 17.22742,-2.84489 8.85077,0 18.4918,2.52878 9.64103,2.37075 18.49181,7.11224 z"
   id="path574"
   style="font-weight:bold;font-size:185.048px;font-family:Futura;-inkscape-font-specification:'Futura, Bold';text-align:end;text-anchor:end;stroke-width:0" /><path
   id="path576"
   d="m 144.24611,50.65456 a 43.611286,43.611286 0 0 0 -43.61133,43.61133 43.611286,43.611286 0 0 0 43.61133,43.61133 43.611286,43.611286 0 0 0 43.61132,-43.61133 43.611286,43.611286 0 0 0 -43.61132,-43.61133 z m 0.0586,24.73438 c 2.52878,0 4.90059,0.47553 7.11327,1.42383 2.31806,0.94829 4.26717,2.2653 5.84766,3.95117 1.68587,1.68586 3.00287,3.6878 3.95117,6.00586 1.05366,2.21269 1.58008,4.58253 1.58008,7.11132 0,2.63416 -0.52642,5.10968 -1.58008,7.42774 -0.9483,2.21269 -2.2653,4.16374 -3.95117,5.84961 -1.58049,1.68586 -3.5296,3.00287 -5.84766,3.95117 -2.21268,0.9483 -4.58449,1.42187 -7.11327,1.42187 -2.5288,0 -4.95148,-0.47357 -7.26954,-1.42187 -2.21269,-0.9483 -4.16179,-2.26531 -5.84766,-3.95117 -1.58049,-1.68587 -2.89751,-3.63692 -3.95117,-5.84961 -0.9483,-2.31806 -1.42383,-4.84642 -1.42383,-7.58594 0,-2.52879 0.47553,-4.89864 1.42383,-7.11133 1.05366,-2.21269 2.37068,-4.16179 3.95117,-5.84765 1.68587,-1.68587 3.63497,-3.00288 5.84766,-3.95117 2.31806,-0.9483 4.74074,-1.42383 7.26954,-1.42383 z"
   style="font-weight:bold;font-size:185.048px;font-family:Futura;-inkscape-font-specification:'Futura, Bold';text-align:end;text-anchor:end;stroke-width:0" /><path
   d="M 207.79217,53.57882 V 38.56411 q 0,-8.06053 3.31903,-15.01472 3.4771,-7.11223 9.16689,-12.32786 Q 226.12592,6.00589 233.7123,3.00295 241.45673,0 249.99141,0 q 8.53469,0 16.12107,3.00295 7.74442,3.00294 13.43421,8.21858 5.84784,5.21563 9.16688,12.32786 3.47709,6.95419 3.47709,15.01472 v 96.09417 H 263.58368 V 38.56411 q 0,-2.84489 -1.10634,-5.37369 -0.9483,-2.68684 -2.8449,-4.74149 -1.73855,-2.05464 -4.26734,-3.31904 -2.37075,-1.26439 -5.37369,-1.26439 -3.00294,0 -5.53174,1.26439 -2.52879,1.2644 -4.26733,3.31904 -1.73855,1.8966 -2.8449,4.58344 -0.9483,2.68685 -0.9483,5.53174 v 15.01471 h 16.43717 v 23.8655 h -16.43717 v 57.21396 H 207.79217 V 77.44432 h -10.27323 v -23.8655 z"
   id="path578"
   style="font-weight:bold;font-size:185.048px;font-family:Futura;-inkscape-font-specification:'Futura, Bold';text-align:end;text-anchor:end;stroke-width:0" /><path
   d="m 373.05718,82.34386 q -1.42245,-6.00589 -5.84784,-9.64103 -4.42539,-3.63514 -10.74738,-3.63514 -6.63808,0 -10.90542,3.47709 -4.10929,3.47709 -5.21563,9.79908 z m -33.50652,16.59521 q 0,18.4918 17.38546,18.4918 9.32492,0 14.06641,-7.58638 h 27.65868 q -8.37662,27.81673 -41.88315,27.81673 -10.27322,0 -18.8079,-3.00294 -8.53468,-3.16099 -14.69862,-8.85078 -6.00588,-5.68979 -9.32492,-13.59227 -3.31905,-7.90248 -3.31905,-17.70155 0,-10.11518 3.161,-18.17571 3.16099,-8.21858 9.00883,-13.90837 5.84784,-5.68979 14.06641,-8.69273 8.37664,-3.16099 18.8079,-3.16099 10.27323,0 18.49181,3.16099 8.21859,3.00294 13.90837,8.85078 5.68978,5.84784 8.69273,14.38252 3.00294,8.37663 3.00294,18.96595 v 3.00295 z"
   id="path580"
   style="font-weight:bold;font-size:185.048px;font-family:Futura;-inkscape-font-specification:'Futura, Bold';text-align:end;text-anchor:end;stroke-width:0" /><path
   d="m 454.61895,87.42925 v 48.38726 H 436.63772 V 16.66191 h 20.37358 q 14.9715,0 22.6116,2.08366 7.71726,2.08367 13.58238,7.87162 10.26397,10.03244 10.26397,25.31263 0,16.3606 -10.95852,25.93002 -10.95852,9.56941 -29.55714,9.56941 z m 0,-16.6693 h 6.71402 q 24.77242,0 24.77242,-19.06165 0,-18.44426 -25.54415,-18.44426 h -5.94229 z"
   id="path591"
   style="font-weight:500;font-size:185.048px;font-family:Futura;-inkscape-font-specification:'Futura, Medium';text-align:end;text-anchor:end;stroke-width:0" /><path
   d="m 534.03611,60.65033 v 75.16618 H 516.67226 V 60.65033 Z M 514.04839,29.3954 q 0,-4.55319 3.31842,-7.87161 3.31843,-3.31843 7.94879,-3.31843 4.70753,0 8.02596,3.31843 3.31842,3.24125 3.31842,7.94878 0,4.70753 -3.31842,8.02596 -3.24125,3.31842 -7.94879,3.31842 -4.70753,0 -8.02596,-3.31842 -3.31842,-3.31843 -3.31842,-8.10313 z"
   id="path593"
   style="font-weight:500;font-size:185.048px;font-family:Futura;-inkscape-font-specification:'Futura, Medium';text-align:end;text-anchor:end;stroke-width:0" /><path
   d="m 612.5272,63.89158 v 23.07463 q -5.94232,-7.25423 -10.64986,-9.95527 -4.63034,-2.77822 -10.88133,-2.77822 -9.80089,0 -16.28343,6.86837 -6.48245,6.86837 -6.48245,17.2095 0,10.57266 6.2509,17.36385 6.32821,6.7912 16.1291,6.7912 6.25099,0 11.03575,-2.70105 4.63033,-2.62387 10.88132,-10.18679 v 22.92028 q -10.57265,5.47926 -21.14531,5.47926 -17.44099,0 -29.17129,-11.26721 -11.73022,-11.34438 -11.73022,-28.16802 0,-16.82364 11.88455,-28.39954 11.88464,-11.5759 29.1713,-11.5759 11.11287,0 20.99097,5.32491 z"
   id="path595"
   style="font-weight:500;font-size:185.048px;font-family:Futura;-inkscape-font-specification:'Futura, Medium';text-align:end;text-anchor:end;stroke-width:0" /><path
   d="m 625.80087,97.69321 q 0,-16.28343 11.65309,-27.70499 11.65309,-11.42155 28.39957,-11.42155 16.8236,0 28.5539,11.49873 11.5759,11.49872 11.5759,28.24519 0,16.90082 -11.6531,28.32237 -11.7302,11.34438 -28.7854,11.34438 -16.90078,0 -28.32233,-11.5759 -11.42163,-11.42155 -11.42163,-28.70823 z m 17.74975,0.30869 q 0,11.26721 6.01944,17.82689 6.17387,6.63685 16.28347,6.63685 10.1868,0 16.2834,-6.55968 6.0966,-6.55968 6.0966,-17.5182 0,-10.95851 -6.0966,-17.51819 -6.1738,-6.63685 -16.2834,-6.63685 -9.95527,0 -16.12913,6.63685 -6.17378,6.63685 -6.17378,17.13233 z"
   id="path597"
   style="font-weight:500;font-size:185.048px;font-family:Futura;-inkscape-font-specification:'Futura, Medium';text-align:end;text-anchor:end;stroke-width:0" /><g
   id="g3611"
   transform="translate(2,14)"><path
     d="m 453.71202,156.20085 v 20.95188 q -15.33436,-12.82923 -31.73146,-12.82923 -18.06718,0 -30.44093,12.98104 -12.44965,12.90515 -12.44965,31.57962 0,18.44675 12.44965,31.12414 12.44967,12.67739 30.51686,12.67739 9.33723,0 15.86571,-3.0365 3.64381,-1.51826 7.51535,-4.09928 3.94743,-2.58103 8.27447,-6.22482 v 21.33141 q -15.18252,8.57812 -31.88328,8.57812 -25.12706,0 -42.89057,-17.5358 -17.68763,-17.68761 -17.68763,-42.66284 0,-22.39419 14.80295,-39.92998 18.219,-21.48326 47.14168,-21.48326 15.7898,0 30.51685,8.57811 z"
     id="path2974"
     style="font-weight:500;font-size:122.667px;font-family:Futura;-inkscape-font-specification:'Futura, Medium';text-align:end;letter-spacing:-1.4px;text-anchor:end;stroke-width:12.6741;stroke-linecap:round;stop-color:#000000" /><path
     d="m 470.99168,138.89279 h 17.08033 v 60.4264 q 9.1095,-8.19856 20.11681,-8.19856 12.52556,0 20.04091,8.12264 6.37665,7.05986 6.37665,22.54602 v 45.31978 h -17.08032 v -43.72562 q 0,-8.88175 -3.18832,-12.82922 -3.11243,-4.02335 -10.09637,-4.02335 -8.95768,0 -12.60148,5.54161 -3.56788,5.61753 -3.56788,19.28179 v 35.75479 h -17.08033 z"
     id="path2976"
     style="font-weight:500;font-size:122.667px;font-family:Futura;-inkscape-font-specification:'Futura, Medium';text-align:end;letter-spacing:-1.4px;text-anchor:end;stroke-width:12.6741;stroke-linecap:round;stop-color:#000000" /><path
     d="m 550.97511,229.60829 q 0,-16.01756 11.46279,-27.2526 11.4628,-11.23506 27.93582,-11.23506 16.54892,0 28.08764,11.31096 11.38687,11.31097 11.38687,27.784 0,16.62484 -11.4628,27.85989 -11.53871,11.15914 -28.31537,11.15914 -16.62484,0 -27.8599,-11.38688 -11.23505,-11.23505 -11.23505,-28.23945 z m 17.45987,0.30364 q 0,11.08323 5.92119,17.53579 6.07299,6.52848 16.01755,6.52848 10.02045,0 16.01753,-6.45257 5.9971,-6.45256 5.9971,-17.23214 0,-10.77958 -5.9971,-17.23213 -6.073,-6.52848 -16.01753,-6.52848 -9.79274,0 -15.86573,6.52848 -6.07301,6.52847 -6.07301,16.85257 z"
     id="path2978"
     style="font-weight:500;font-size:122.667px;font-family:Futura;-inkscape-font-specification:'Futura, Medium';text-align:end;letter-spacing:-1.4px;text-anchor:end;stroke-width:12.6741;stroke-linecap:round;stop-color:#000000" /><path
     d="m 703.68275,196.3586 v 22.69785 q -5.84529,-7.13579 -10.47594,-9.79273 -4.55475,-2.73284 -10.70367,-2.73284 -9.6409,0 -16.01754,6.75621 -6.37666,6.7562 -6.37666,16.9285 0,10.40001 6.14892,17.08031 6.22483,6.6803 15.86571,6.6803 6.14892,0 10.8555,-2.65694 4.55476,-2.58103 10.70368,-10.02046 v 22.54602 q -10.40002,5.3898 -20.80006,5.3898 -17.15622,0 -28.69493,-11.08323 -11.53868,-11.15915 -11.53868,-27.70808 0,-16.54893 11.69052,-27.93579 11.69052,-11.38689 28.69494,-11.38689 10.93139,0 20.64821,5.23797 z"
     id="path2980"
     style="font-weight:500;font-size:122.667px;font-family:Futura;-inkscape-font-specification:'Futura, Medium';text-align:end;letter-spacing:-1.4px;text-anchor:end;stroke-width:12.6741;stroke-linecap:round;stop-color:#000000" /></g></svg>
