<?xml version="1.0" encoding="UTF-8" standalone="no"?>
<!-- Generator: Adobe Illustrator 19.2.1, SVG Export Plug-In . SVG Version: 6.00 Build 0)  -->

<svg
   inkscape:version="1.2 (dc2aeda, 2022-05-15)"
   sodipodi:docname="sofle-pico-vector-logo-v5.svg"
   xml:space="preserve"
   viewBox="0 0 1041.1297 273.80363"
   y="0px"
   x="0px"
   id="layer"
   version="1.1"
   width="1041.1298"
   height="273.80362"
   inkscape:export-filename="sofle-pico-vector-logo-v5-132x31.svg"
   inkscape:export-xdpi="10.772038"
   inkscape:export-ydpi="10.772038"
   xmlns:inkscape="http://www.inkscape.org/namespaces/inkscape"
   xmlns:sodipodi="http://sodipodi.sourceforge.net/DTD/sodipodi-0.dtd"
   xmlns="http://www.w3.org/2000/svg"
   xmlns:svg="http://www.w3.org/2000/svg"><defs
   id="defs543">
		
		
		
		
		
		
		
		
	
			
			
		
			
			
		
		
	
	
	
	
	
</defs><sodipodi:namedview
   id="namedview541"
   pagecolor="#ffffff"
   bordercolor="#000000"
   borderopacity="0.25"
   inkscape:showpageshadow="2"
   inkscape:pageopacity="0.0"
   inkscape:pagecheckerboard="0"
   inkscape:deskcolor="#d1d1d1"
   showgrid="false"
   inkscape:zoom="1.7024541"
   inkscape:cx="701.63421"
   inkscape:cy="159.18198"
   inkscape:window-width="2560"
   inkscape:window-height="1288"
   inkscape:window-x="1736"
   inkscape:window-y="421"
   inkscape:window-maximized="0"
   inkscape:current-layer="layer" />
<style
   type="text/css"
   id="style498">
	.st0{fill:#020203;}
	.st1{fill:#6ABF4B;}
	.st2{fill:#C31C4A;}
</style>

<path
   id="path508-0"
   style="fill:#c31c4a"
   class="st2"
   d="m 175.20493,74.101763 c -37.28506,2.25024 -59.90329,21.4115 -81.412108,55.843747 -20.18238,18.26442 -29.37208,38.40412 -23.70507,67.17774 5.66699,28.77361 28.816952,40.30834 36.542958,43.88086 17.66189,24.04575 47.26085,32.81966 71.81641,32.79687 23.30548,0.1772 51.15997,-8.59682 67.7793,-32.64258 7.26995,-3.57251 29.05229,-15.10529 34.38476,-43.8789 5.3325,-28.77362 -6.44255,-54.31566 -25.43359,-72.58008 -20.23917,-34.432257 -42.3524,-48.816027 -79.97266,-50.597657 z m 0.79688,16.3711 c 29.17466,-0.13108 54.13387,21.550287 54.67773,46.677727 0.54386,25.12744 -22.8012,51.87617 -54.70117,52.07617 -31.89997,0.2 -59.59014,-21.87925 -56.33789,-52.51562 3.25226,-30.63637 27.18667,-46.107197 56.36133,-46.238277 z m 75.27344,66.589837 c 3.5438,0.0131 6.82057,1.79826 10.11914,4.33203 7.53958,5.79149 13.76584,22.69279 5.1621,40.23828 -9.56409,15.08204 -23.56146,17.599 -30.91992,12.53907 -7.81127,-6.70278 -9.30441,-33.31157 0.0352,-46.19141 6.0495,-8.02115 11.0472,-10.93476 15.60352,-10.91797 z m -151.941406,3.74609 c 4.559156,-0.13906 9.831646,2.12596 15.208976,9.25586 9.33957,12.87984 7.84643,39.48864 0.0352,46.19141 -7.35845,5.05993 -21.355828,2.54297 -30.919918,-12.53906 -8.60373,-17.54549 -0.30142,-32.7853 4.74609,-37.7461 2.52376,-2.48039 6.37053,-5.02304 10.929692,-5.16211 z m 77.619136,41.72657 c 31.39997,0.4 52.50039,14.90157 52.40039,29.10156 0,11.69999 -25.59964,31.69961 -52.09961,31.09961 -23.59998,0.3 -52.80078,-17.30002 -52.80078,-34 0.1,-14.59999 20.50003,-26.40117 52.5,-26.20117 z" /><path
   id="path388"
   style="font-variation-settings:normal;opacity:1;vector-effect:none;fill:#6abf4b;fill-opacity:1;stroke-width:0.683941;stroke-linecap:butt;stroke-linejoin:miter;stroke-miterlimit:4;stroke-dasharray:none;stroke-dashoffset:0;stroke-opacity:1;-inkscape-stroke:none;stop-color:#000000;stop-opacity:1"
   d="M 71.834677,0.00820059 C 68.029693,0.07581259 64.335101,0.55970599 60.96163,1.38906 54.765188,-0.12013931 46.095793,0.33758489 40.033896,2.2777318 35.78286,3.9181238 31.729382,4.4828897 28.278037,6.8226536 19.526877,7.8473606 10.981683,11.204649 4.1139738,16.76406 c -2.4968512,2.135858 -3.99390849,5.330514 -4.08789059,8.611328 -0.1594774,3.218854 0.4362627,6.423606 1.13476559,9.550782 1.3657127,5.331726 3.2338365,11.602434 6.5390628,15.996094 -0.14224,7.626176 3.1653104,17.372848 9.3046874,22.830078 C 21.994595,92.438744 36.3127,97.252106 41.301474,99.107806 48.33406,114.72907 77.934696,115.83871 89.403037,112.19961 104.37315,105.89066 113.13917,97.403746 120.94796,85.209373 127.81358,81.312134 133.48222,75.128943 136.21554,67.67031 147.87541,29.880923 116.76668,1.4007273 90.803427,3.4632787 84.824514,0.93893199 78.176317,-0.10448641 71.834677,0.00820059 Z M 73.414755,12.695701 C 85.507905,12.131812 98.021154,34.212779 96.279994,18.974998 122.47809,25.752504 135.435,61.877891 113.44796,73.348045 94.229262,57.549051 71.111308,46.127755 45.463584,37.578514 78.429451,54.335027 97.579384,67.808998 108.04367,79.367576 90.125618,107.09836 67.22867,102.17951 53.705771,94.596092 73.830208,88.469156 38.016338,87.564772 32.528037,74.906638 c 22.0501,0.718388 -7.837032,-3.469815 -9.636719,-21.316406 17.02553,-0.822439 -7.86347,-6.454229 -8.859375,-26.808594 20.014574,-14.387271 42.226969,2.244046 30.041015,-11.103515 15.37244,-5.514642 34.088173,13.14831 26.931641,-2.548828 0.798124,-0.256634 1.603946,-0.396001 2.410156,-0.433594 z" /><path
   id="path388-8"
   style="font-variation-settings:normal;vector-effect:none;fill:#6abf4b;fill-opacity:1;stroke-width:0.683941;stroke-linecap:butt;stroke-linejoin:miter;stroke-miterlimit:4;stroke-dasharray:none;stroke-dashoffset:0;stroke-opacity:1;-inkscape-stroke:none;stop-color:#000000"
   d="m 281.43895,0.00820059 c 3.80498,0.067612 7.49957,0.5515054 10.87305,1.38085941 6.19644,-1.50919931 14.86583,-1.05147511 20.92773,0.8886718 4.25104,1.640392 8.30451,2.2051579 11.75586,4.5449218 8.75116,1.024707 17.29635,4.3819964 24.16406,9.9414064 2.49685,2.135858 3.99391,5.330514 4.08789,8.611328 0.15948,3.218854 -0.43626,6.423606 -1.13476,9.550782 -1.36572,5.331726 -3.23384,11.602434 -6.53907,15.996094 0.14224,7.626176 -3.16531,17.372848 -9.30468,22.830078 -4.99,18.686402 -19.3081,23.499764 -24.29688,25.355464 -7.03258,15.621264 -36.63322,16.730904 -48.10156,13.091804 C 248.90048,105.89066 240.13446,97.403746 232.32567,85.209373 225.46005,81.312134 219.79141,75.128943 217.05809,67.67031 205.39822,29.880923 236.50695,1.4007273 262.4702,3.4632787 268.44911,0.93893199 275.09731,-0.10448641 281.43895,0.00820059 Z M 279.85887,12.695701 c -12.09315,-0.563889 -24.6064,21.517078 -22.86523,6.279297 -26.1981,6.777506 -39.15501,42.902893 -17.16797,54.373047 19.21869,-15.798994 42.33665,-27.22029 67.98437,-35.769531 -32.96586,16.756513 -52.1158,30.230484 -62.58008,41.789062 17.91805,27.730784 40.815,22.811934 54.3379,15.228516 -20.12444,-6.126936 15.68943,-7.03132 21.17773,-19.689454 -22.0501,0.718388 7.83703,-3.469815 9.63672,-21.316406 -17.02553,-0.822439 7.86347,-6.454229 8.85937,-26.808594 -20.01457,-14.387271 -42.22697,2.244046 -30.04101,-11.103515 -15.37244,-5.514642 -34.08818,13.14831 -26.93164,-2.548828 -0.79813,-0.256634 -1.60395,-0.396001 -2.41016,-0.433594 z" /><path
   d="m 405.95269,166.97655 q -5.05758,-4.10929 -10.11517,-6.00589 -5.05759,-2.05464 -9.79907,-2.05464 -6.00589,0 -9.79908,2.84489 -3.79319,2.8449 -3.79319,7.42834 0,3.16099 1.89659,5.21563 1.8966,2.05465 4.89954,3.63515 3.16099,1.42244 6.95418,2.52879 3.95124,1.10634 7.74444,2.37075 15.17275,5.05758 22.12694,13.59227 7.11224,8.37662 7.11224,21.96889 0,9.16688 -3.161,16.59521 -3.00295,7.42833 -9.00883,12.80202 -5.84784,5.21564 -14.54057,8.06052 -8.53467,3.00295 -19.4401,3.00295 -22.6011,0 -41.88314,-13.43421 l 13.27616,-24.97185 q 6.95418,6.16394 13.75032,9.16689 6.79613,3.00294 13.43422,3.00294 7.58638,0 11.22152,-3.4771 3.79319,-3.47709 3.79319,-7.90248 0,-2.68684 -0.9483,-4.58344 -0.9483,-2.05464 -3.16099,-3.63513 -2.21269,-1.73855 -5.84784,-3.161 -3.47708,-1.42245 -8.53468,-3.16099 -6.00588,-1.8966 -11.85372,-4.10929 -5.68978,-2.37075 -10.27322,-6.16393 -4.42539,-3.7932 -7.27029,-9.48298 -2.68683,-5.84784 -2.68683,-14.69862 0,-8.85078 2.84489,-15.96301 3.00294,-7.27029 8.21858,-12.32787 5.37368,-5.21564 12.96006,-8.06053 7.74444,-2.84489 17.22742,-2.84489 8.85077,0 18.4918,2.52878 9.64103,2.37075 18.49181,7.11224 z"
   id="path574"
   style="font-weight:bold;font-size:185.048px;font-family:Futura;-inkscape-font-specification:'Futura, Bold';text-align:end;text-anchor:end;stroke-width:0" /><path
   id="path576"
   d="M 479.39258,171.63867 A 43.611286,43.611286 0 0 0 435.78125,215.25 43.611286,43.611286 0 0 0 479.39258,258.86133 43.611286,43.611286 0 0 0 523.0039,215.25 43.611286,43.611286 0 0 0 479.39258,171.63867 Z m 0.0586,24.73438 c 2.52878,0 4.90059,0.47553 7.11327,1.42383 2.31806,0.94829 4.26717,2.2653 5.84766,3.95117 1.68587,1.68586 3.00287,3.6878 3.95117,6.00586 1.05366,2.21269 1.58008,4.58253 1.58008,7.11132 0,2.63416 -0.52642,5.10968 -1.58008,7.42774 -0.9483,2.21269 -2.2653,4.16374 -3.95117,5.84961 -1.58049,1.68586 -3.5296,3.00287 -5.84766,3.95117 -2.21268,0.9483 -4.58449,1.42187 -7.11327,1.42187 -2.5288,0 -4.95148,-0.47357 -7.26954,-1.42187 -2.21269,-0.9483 -4.16179,-2.26531 -5.84766,-3.95117 -1.58049,-1.68587 -2.89751,-3.63692 -3.95117,-5.84961 -0.9483,-2.31806 -1.42383,-4.84642 -1.42383,-7.58594 0,-2.52879 0.47553,-4.89864 1.42383,-7.11133 1.05366,-2.21269 2.37068,-4.16179 3.95117,-5.84765 1.68587,-1.68587 3.63497,-3.00288 5.84766,-3.95117 2.31806,-0.9483 4.74074,-1.42383 7.26954,-1.42383 z"
   style="font-weight:bold;font-size:185.048px;font-family:Futura;-inkscape-font-specification:'Futura, Bold';text-align:end;text-anchor:end;stroke-width:0" /><path
   d="m 542.93864,174.56293 v -15.01471 q 0,-8.06053 3.31903,-15.01472 3.4771,-7.11223 9.16689,-12.32786 5.84783,-5.21564 13.43421,-8.21858 7.74443,-3.00295 16.27911,-3.00295 8.53469,0 16.12107,3.00295 7.74442,3.00294 13.43421,8.21858 5.84784,5.21563 9.16688,12.32786 3.47709,6.95419 3.47709,15.01472 v 96.09417 h -28.60698 v -96.09417 q 0,-2.84489 -1.10634,-5.37369 -0.9483,-2.68684 -2.8449,-4.74149 -1.73855,-2.05464 -4.26734,-3.31904 -2.37075,-1.26439 -5.37369,-1.26439 -3.00294,0 -5.53174,1.26439 -2.52879,1.2644 -4.26733,3.31904 -1.73855,1.8966 -2.8449,4.58344 -0.9483,2.68685 -0.9483,5.53174 v 15.01471 h 16.43717 v 23.8655 h -16.43717 v 57.21396 h -28.60697 v -57.21396 h -10.27323 v -23.8655 z"
   id="path578"
   style="font-weight:bold;font-size:185.048px;font-family:Futura;-inkscape-font-specification:'Futura, Bold';text-align:end;text-anchor:end;stroke-width:0" /><path
   d="m 708.20365,203.32797 q -1.42245,-6.00589 -5.84784,-9.64103 -4.42539,-3.63514 -10.74738,-3.63514 -6.63808,0 -10.90542,3.47709 -4.10929,3.47709 -5.21563,9.79908 z m -33.50652,16.59521 q 0,18.4918 17.38546,18.4918 9.32492,0 14.06641,-7.58638 h 27.65868 q -8.37662,27.81673 -41.88315,27.81673 -10.27322,0 -18.8079,-3.00294 -8.53468,-3.16099 -14.69862,-8.85078 -6.00588,-5.68979 -9.32492,-13.59227 -3.31905,-7.90248 -3.31905,-17.70155 0,-10.11518 3.161,-18.17571 3.16099,-8.21858 9.00883,-13.90837 5.84784,-5.68979 14.06641,-8.69273 8.37664,-3.16099 18.8079,-3.16099 10.27323,0 18.49181,3.16099 8.21859,3.00294 13.90837,8.85078 5.68978,5.84784 8.69273,14.38252 3.00294,8.37663 3.00294,18.96595 v 3.00295 z"
   id="path580"
   style="font-weight:bold;font-size:185.048px;font-family:Futura;-inkscape-font-specification:'Futura, Bold';text-align:end;text-anchor:end;stroke-width:0" /><path
   d="m 789.76542,208.41336 v 48.38726 h -17.98123 v -119.1546 h 20.37358 q 14.9715,0 22.6116,2.08366 7.71726,2.08367 13.58238,7.87162 10.26397,10.03244 10.26397,25.31263 0,16.3606 -10.95852,25.93002 -10.95852,9.56941 -29.55714,9.56941 z m 0,-16.6693 h 6.71402 q 24.77242,0 24.77242,-19.06165 0,-18.44426 -25.54415,-18.44426 h -5.94229 z"
   id="path591"
   style="font-weight:500;font-size:185.048px;font-family:Futura;-inkscape-font-specification:'Futura, Medium';text-align:end;text-anchor:end;stroke-width:0" /><path
   d="m 869.18258,181.63444 v 75.16618 h -17.36385 v -75.16618 z m -19.98772,-31.25493 q 0,-4.55319 3.31842,-7.87161 3.31843,-3.31843 7.94879,-3.31843 4.70753,0 8.02596,3.31843 3.31842,3.24125 3.31842,7.94878 0,4.70753 -3.31842,8.02596 -3.24125,3.31842 -7.94879,3.31842 -4.70753,0 -8.02596,-3.31842 -3.31842,-3.31843 -3.31842,-8.10313 z"
   id="path593"
   style="font-weight:500;font-size:185.048px;font-family:Futura;-inkscape-font-specification:'Futura, Medium';text-align:end;text-anchor:end;stroke-width:0" /><path
   d="m 947.67367,184.87569 v 23.07463 q -5.94232,-7.25423 -10.64986,-9.95527 -4.63034,-2.77822 -10.88133,-2.77822 -9.80089,0 -16.28343,6.86837 -6.48245,6.86837 -6.48245,17.2095 0,10.57266 6.2509,17.36385 6.32821,6.7912 16.1291,6.7912 6.25099,0 11.03575,-2.70105 4.63033,-2.62387 10.88132,-10.18679 v 22.92028 q -10.57265,5.47926 -21.14531,5.47926 -17.44099,0 -29.17129,-11.26721 -11.73022,-11.34438 -11.73022,-28.16802 0,-16.82364 11.88455,-28.39954 11.88464,-11.5759 29.1713,-11.5759 11.11287,0 20.99097,5.32491 z"
   id="path595"
   style="font-weight:500;font-size:185.048px;font-family:Futura;-inkscape-font-specification:'Futura, Medium';text-align:end;text-anchor:end;stroke-width:0" /><path
   d="m 960.94734,218.67732 q 0,-16.28343 11.65309,-27.70499 11.65309,-11.42155 28.39957,-11.42155 16.8236,0 28.5539,11.49873 11.5759,11.49872 11.5759,28.24519 0,16.90082 -11.6531,28.32237 -11.7302,11.34438 -28.7854,11.34438 -16.90078,0 -28.32233,-11.5759 -11.42163,-11.42155 -11.42163,-28.70823 z m 17.74975,0.30869 q 0,11.26721 6.01944,17.82689 6.17387,6.63685 16.28347,6.63685 10.1868,0 16.2834,-6.55968 6.0966,-6.55968 6.0966,-17.5182 0,-10.95851 -6.0966,-17.51819 -6.1738,-6.63685 -16.2834,-6.63685 -9.95527,0 -16.12913,6.63685 -6.17378,6.63685 -6.17378,17.13233 z"
   id="path597"
   style="font-weight:500;font-size:185.048px;font-family:Futura;-inkscape-font-specification:'Futura, Medium';text-align:end;text-anchor:end;stroke-width:0" /></svg>
