<?xml version="1.0" encoding="UTF-8" standalone="no"?>
<!-- Created with Inkscape (http://www.inkscape.org/) -->

<svg
   width="318.92215mm"
   height="38.177994mm"
   viewBox="0 0 318.92215 38.177994"
   version="1.1"
   id="svg1470"
   sodipodi:docname="sofle-pico-choc-logo-readme-lockup-lightmode.svg"
   inkscape:version="1.2 (dc2aeda, 2022-05-15)"
   xmlns:inkscape="http://www.inkscape.org/namespaces/inkscape"
   xmlns:sodipodi="http://sodipodi.sourceforge.net/DTD/sodipodi-0.dtd"
   xmlns="http://www.w3.org/2000/svg"
   xmlns:svg="http://www.w3.org/2000/svg">
  <sodipodi:namedview
     id="namedview1472"
     pagecolor="#ffffff"
     bordercolor="#000000"
     borderopacity="0.25"
     inkscape:showpageshadow="2"
     inkscape:pageopacity="0.0"
     inkscape:pagecheckerboard="0"
     inkscape:deskcolor="#d1d1d1"
     inkscape:document-units="mm"
     showgrid="false"
     inkscape:zoom="0.914906"
     inkscape:cx="449.77298"
     inkscape:cy="207.1251"
     inkscape:window-width="2560"
     inkscape:window-height="1285"
     inkscape:window-x="1728"
     inkscape:window-y="332"
     inkscape:window-maximized="0"
     inkscape:current-layer="layer1" />
  <defs
     id="defs1467" />
  <g
     inkscape:label="Layer 1"
     inkscape:groupmode="layer"
     id="layer1"
     transform="translate(117.78019,-93.588055)">
    <path
       d="m -44.787791,105.90875 q -1.338152,-1.08725 -2.676306,-1.58906 -1.338154,-0.54362 -2.59267,-0.54362 -1.589059,0 -2.592674,0.75271 -1.003614,0.75271 -1.003614,1.96541 0,0.83635 0.501806,1.37997 0.501808,0.54363 1.296336,0.9618 0.836346,0.37635 1.83996,0.66908 1.045433,0.29272 2.04905,0.62726 4.014457,1.33815 5.85442,3.59629 1.88178,2.21631 1.88178,5.8126 0,2.4254 -0.836348,4.39081 -0.794531,1.96542 -2.383586,3.3872 -1.547241,1.37998 -3.847193,2.13268 -2.258131,0.79453 -5.143526,0.79453 -5.979874,0 -11.081581,-3.55446 l 3.512651,-6.60714 q 1.83996,1.63088 3.638105,2.42541 1.798143,0.79452 3.554471,0.79452 2.00723,0 2.969027,-0.91998 1.003615,-0.91998 1.003615,-2.09086 0,-0.7109 -0.250905,-1.2127 -0.250904,-0.54363 -0.836345,-0.9618 -0.585441,-0.45999 -1.547241,-0.83635 -0.919977,-0.37635 -2.258134,-0.83634 -1.589056,-0.50181 -3.136297,-1.08725 -1.50542,-0.62726 -2.718122,-1.63087 -1.170885,-1.00362 -1.923598,-2.50904 -0.71089,-1.54724 -0.71089,-3.88901 0,-2.34177 0.75271,-4.22355 0.794528,-1.9236 2.174499,-3.261748 1.421787,-1.379972 3.429016,-2.132682 2.04905,-0.752711 4.558088,-0.752711 2.341767,0 4.892622,0.669073 2.550856,0.627261 4.892625,1.881781 z"
       id="path574-8-4"
       style="font-weight:bold;font-size:185.048px;font-family:Futura;-inkscape-font-specification:'Futura, Bold';text-align:end;text-anchor:end;stroke-width:0" />
    <path
       id="path576-8-1"
       d="m -25.356821,107.14227 a 11.538819,11.538819 0 0 0 -11.538831,11.53883 11.538819,11.538819 0 0 0 11.538831,11.53883 11.538819,11.538819 0 0 0 11.538829,-11.53883 11.538819,11.538819 0 0 0 -11.538829,-11.53883 z m 0.01551,6.5443 c 0.669073,0 1.296614,0.12582 1.882053,0.37672 0.61332,0.25091 1.129022,0.59936 1.547193,1.04542 0.446053,0.44605 0.794509,0.97573 1.045414,1.58905 0.27878,0.58544 0.418062,1.21246 0.418062,1.88153 0,0.69696 -0.139282,1.35194 -0.418062,1.96526 -0.250905,0.58544 -0.599361,1.10166 -1.045414,1.54771 -0.418171,0.44605 -0.933873,0.79451 -1.547193,1.04541 -0.585439,0.25091 -1.21298,0.37621 -1.882053,0.37621 -0.669078,0 -1.310079,-0.1253 -1.923399,-0.37621 -0.585441,-0.2509 -1.101141,-0.59936 -1.547194,-1.04541 -0.418171,-0.44605 -0.766632,-0.96227 -1.045413,-1.54771 -0.250905,-0.61332 -0.376722,-1.28228 -0.376722,-2.00711 0,-0.66908 0.125817,-1.2961 0.376722,-1.88154 0.278781,-0.58544 0.627242,-1.10114 1.045413,-1.54719 0.446053,-0.44606 0.961753,-0.79451 1.547194,-1.04542 0.61332,-0.2509 1.254321,-0.37672 1.923399,-0.37672 z"
       style="font-weight:bold;font-size:185.048px;font-family:Futura;-inkscape-font-specification:'Futura, Bold';text-align:end;text-anchor:end;stroke-width:0" />
    <path
       d="m -8.5435926,107.91598 v -3.97264 q 0,-2.13269 0.87816,-3.972649 0.9199827,-1.881777 2.4254063,-3.261746 1.5472384,-1.379971 3.554468,-2.174499 2.04904712,-0.794531 4.3071812,-0.794531 2.2581367,0 4.2653664,0.794531 2.0490444,0.794528 3.5544677,2.174499 1.547241,1.379969 2.425404,3.261746 0.91998,1.839959 0.91998,3.972649 v 25.42491 H 6.2179109 v -25.42491 q 0,-0.75271 -0.2927191,-1.42179 -0.2509044,-0.7109 -0.7527131,-1.25452 -0.4599913,-0.54363 -1.129067,-0.87816 -0.627261,-0.33454 -1.4217888,-0.33454 -0.7945279,0 -1.4636062,0.33454 -0.66907569,0.33453 -1.12906439,0.87816 -0.45999135,0.50181 -0.75271312,1.2127 -0.25090437,0.7109 -0.25090437,1.46361 v 3.97264 H 3.374336 v 6.31441 h -4.34900118 v 15.13786 H -8.5435926 v -15.13786 h -2.7181254 v -6.31441 z"
       id="path578-7-3"
       style="font-weight:bold;font-size:185.048px;font-family:Futura;-inkscape-font-specification:'Futura, Bold';text-align:end;text-anchor:end;stroke-width:0" />
    <path
       d="m 35.182774,115.52673 q -0.376356,-1.58906 -1.547241,-2.55086 -1.170884,-0.9618 -2.843577,-0.9618 -1.756326,0 -2.885393,0.91998 -1.087249,0.91998 -1.379969,2.59268 z m -8.865267,4.39081 q 0,4.89263 4.599903,4.89263 2.467219,0 3.721738,-2.00723 h 7.318026 q -2.216314,7.35984 -11.081584,7.35984 -2.718122,0 -4.976256,-0.79453 -2.258135,-0.83634 -3.88901,-2.34177 -1.589056,-1.50542 -2.467219,-3.59629 -0.878165,-2.09086 -0.878165,-4.68353 0,-2.67631 0.836348,-4.80899 0.836345,-2.1745 2.383586,-3.67992 1.547241,-1.50543 3.721738,-2.29995 2.216319,-0.83635 4.976257,-0.83635 2.718125,0 4.892624,0.83635 2.174502,0.79452 3.679923,2.34176 1.505421,1.54725 2.299952,3.80538 0.794527,2.21632 0.794527,5.01807 v 0.79453 z"
       id="path580-1-7"
       style="font-weight:bold;font-size:185.048px;font-family:Futura;-inkscape-font-specification:'Futura, Bold';text-align:end;text-anchor:end;stroke-width:0" />
    <g
       id="g1782-9-8"
       transform="matrix(0.14558253,0,0,0.14558253,-17.929144,30.194955)">
      <path
         id="path388-3-83"
         style="font-variation-settings:normal;fill:#000000;fill-opacity:1;stroke-width:0.683941;stroke-linecap:butt;stroke-linejoin:miter;stroke-miterlimit:4;stroke-dasharray:none;stroke-dashoffset:0;stroke-opacity:1;stop-color:#000000"
         d="m -614.03777,435.45262 c -3.80499,0.0676 -7.49958,0.55151 -10.87305,1.38086 -6.19644,-1.5092 -14.86584,-1.05148 -20.92773,0.88867 -4.25104,1.64039 -8.30452,2.20516 -11.75586,4.54492 -8.75116,1.02471 -17.29636,4.382 -24.16407,9.94141 -2.49685,2.13586 -3.9939,5.33051 -4.08789,8.61133 -0.15947,3.21885 0.43627,6.4236 1.13477,9.55078 1.36571,5.33173 3.23384,11.60243 6.53906,15.99609 -0.14224,7.62618 3.16531,17.37285 9.30469,22.83008 4.98999,18.6864 19.3081,23.49977 24.29687,25.35547 7.03259,15.62126 36.63323,16.7309 48.10157,13.0918 14.97011,-6.30895 23.73613,-14.79586 31.54492,-26.99024 6.86562,-3.89724 12.53426,-10.08043 15.26758,-17.53906 11.65987,-37.78939 -19.44886,-66.26958 -45.41211,-64.20703 -5.97892,-2.52435 -12.62711,-3.56777 -18.96875,-3.45508 z m 1.58007,12.6875 c 12.09316,-0.56389 24.6064,21.51708 22.86524,6.2793 26.1981,6.7775 39.15501,42.90289 17.16797,54.37304 -19.2187,-15.79899 -42.33665,-27.22029 -67.98438,-35.76953 32.96587,16.75652 52.1158,30.23049 62.58009,41.78907 -17.91805,27.73078 -40.815,22.81193 -54.3379,15.22851 20.12444,-6.12693 -15.68943,-7.03132 -21.17773,-19.68945 22.0501,0.71839 -7.83703,-3.46982 -9.63672,-21.31641 17.02553,-0.82244 -7.86347,-6.45423 -8.85938,-26.80859 20.01458,-14.38727 42.22697,2.24404 30.04102,-11.10352 15.37244,-5.51464 34.08817,13.14831 26.93164,-2.54883 0.79812,-0.25663 1.60394,-0.396 2.41015,-0.43359 z" />
      <path
         id="path388-8-1-81"
         style="font-variation-settings:normal;fill:#000000;fill-opacity:1;stroke-width:0.683941;stroke-linecap:butt;stroke-linejoin:miter;stroke-miterlimit:4;stroke-dasharray:none;stroke-dashoffset:0;stroke-opacity:1;stop-color:#000000"
         d="m -404.4335,435.45262 c 3.80498,0.0676 7.49957,0.55151 10.87305,1.38086 6.19644,-1.5092 14.86583,-1.05148 20.92773,0.88867 4.25104,1.64039 8.30451,2.20516 11.75586,4.54492 8.75116,1.02471 17.29635,4.382 24.16406,9.94141 2.49685,2.13586 3.99391,5.33051 4.08789,8.61133 0.15948,3.21885 -0.43626,6.4236 -1.13476,9.55078 -1.36572,5.33173 -3.23384,11.60243 -6.53907,15.99609 0.14224,7.62618 -3.16531,17.37285 -9.30468,22.83008 -4.99,18.6864 -19.3081,23.49977 -24.29688,25.35547 -7.03258,15.62126 -36.63322,16.7309 -48.10156,13.0918 -14.97011,-6.30895 -23.73613,-14.79586 -31.54492,-26.99024 -6.86562,-3.89724 -12.53426,-10.08043 -15.26758,-17.53906 -11.65987,-37.78939 19.44886,-66.26958 45.41211,-64.20703 5.97891,-2.52435 12.62711,-3.56777 18.96875,-3.45508 z m -1.58008,12.6875 c -12.09315,-0.56389 -24.6064,21.51708 -22.86523,6.2793 -26.1981,6.7775 -39.15501,42.90289 -17.16797,54.37304 19.21869,-15.79899 42.33665,-27.22029 67.98437,-35.76953 -32.96586,16.75652 -52.1158,30.23049 -62.58008,41.78907 17.91805,27.73078 40.815,22.81193 54.3379,15.22851 -20.12444,-6.12693 15.68943,-7.03132 21.17773,-19.68945 -22.0501,0.71839 7.83703,-3.46982 9.63672,-21.31641 -17.02553,-0.82244 7.86347,-6.45423 8.85937,-26.80859 -20.01457,-14.38727 -42.22697,2.24404 -30.04101,-11.10352 -15.37244,-5.51464 -34.08818,13.14831 -26.93164,-2.54883 -0.79813,-0.25663 -1.60395,-0.396 -2.41016,-0.43359 z" />
    </g>
    <path
       id="rect2268-1-5"
       style="color:#000000;fill:#000000;stroke-width:0.277181;stroke-linecap:round"
       d="m -99.229279,108.35833 c -2.798911,0 -5.088871,2.28996 -5.088871,5.08888 v 0.95443 a 1.1794991,1.1794991 0 0 0 0.94036,1.13146 v 9.04573 a 1.1794991,1.1794991 0 0 0 -1.00369,1.14445 v 0.9539 c 0,2.7989 2.28995,5.08887 5.088859,5.08887 h 13.242969 c 2.79891,0 5.088868,-2.28997 5.088868,-5.08887 v -0.9539 a 1.1794991,1.1794991 0 0 0 -0.874852,-1.13958 v -9.05114 a 1.1794991,1.1794991 0 0 0 0.938193,-1.13092 v -0.95443 c 0,-2.79892 -2.289957,-5.08888 -5.08887,-5.08888 z m 0.532164,3.21898 h 12.180802 c 1.409911,0 2.510871,1.10151 2.510871,2.51141 v 12.18081 c 0,1.40991 -1.10096,2.51087 -2.510871,2.51087 h -12.180802 c -1.409905,0 -2.510865,-1.10096 -2.510865,-2.51087 v -12.18081 c 0,-1.4099 1.10096,-2.51141 2.510865,-2.51141 z" />
    <path
       style="color:#000000;fill:#000000;stroke-width:0.277181;stroke-linecap:round;-inkscape-stroke:none"
       d="m -96.698923,116.81506 a 1.235617,1.235617 0 0 0 -1.235944,1.2354 v 4.34449 a 1.235617,1.235617 0 0 0 1.235944,1.2354 1.235617,1.235617 0 0 0 1.235407,-1.2354 v -4.34449 a 1.235617,1.235617 0 0 0 -1.235407,-1.2354 z"
       id="path3124-4-3" />
    <path
       style="color:#000000;fill:#000000;stroke-width:0.277181;stroke-linecap:round"
       d="m -88.66284,116.86324 a 1.235617,1.235617 0 0 0 -1.235404,1.23595 v 4.34394 a 1.235617,1.235617 0 0 0 1.235404,1.2354 1.235617,1.235617 0 0 0 1.235402,-1.2354 v -4.34394 a 1.235617,1.235617 0 0 0 -1.235402,-1.23595 z"
       id="path3124-7-9-5" />
    <g
       aria-label="Pico"
       id="text5771-6"
       style="font-weight:500;font-size:37.5089px;font-family:Futura;-inkscape-font-specification:'Futura, Medium';text-align:end;text-anchor:end;stroke-width:9.3772;stroke-linecap:round;stop-color:#000000">
      <path
         d="m 53.08347,118.09533 v 11.48344 H 48.8161 v -28.2782 h 4.835132 q 3.553089,0 5.366263,0.4945 1.831489,0.49451 3.223421,1.86812 2.435881,2.38094 2.435881,6.00729 0,3.88275 -2.600715,6.1538 -2.600715,2.27105 -7.014604,2.27105 z m 0,-3.95602 h 1.593396 q 5.87908,0 5.87908,-4.52378 0,-4.37726 -6.062229,-4.37726 H 53.08347 Z"
         id="path1685" />
      <path
         d="m 72.405682,111.74006 v 17.83871 h -4.120851 v -17.83871 z m -4.743557,-7.41753 q 0,-1.08058 0.78754,-1.86812 0.78754,-0.78754 1.886434,-0.78754 1.117208,0 1.904749,0.78754 0.78754,0.76923 0.78754,1.88643 0,1.11721 -0.78754,1.90475 -0.769226,0.78754 -1.886434,0.78754 -1.117209,0 -1.904749,-0.78754 -0.78754,-0.78754 -0.78754,-1.92306 z"
         id="path1682" />
      <path
         d="m 91.508115,112.50929 v 5.47615 q -1.410247,-1.7216 -2.527455,-2.36262 -1.098894,-0.65934 -2.5824,-0.65934 -2.325992,0 -3.864443,1.63003 -1.53845,1.63002 -1.53845,4.08422 0,2.50914 1.483506,4.12085 1.501821,1.61171 3.827812,1.61171 1.483507,0 2.61903,-0.64102 1.098893,-0.62271 2.5824,-2.41757 v 5.43953 q -2.509141,1.30035 -5.018281,1.30035 -4.139165,0 -6.923029,-2.67397 -2.783864,-2.69229 -2.783864,-6.68494 0,-3.99264 2.820494,-6.73988 2.820493,-2.74723 6.923029,-2.74723 2.637345,0 4.981651,1.26373 z"
         id="path1679" />
      <path
         d="m 94.658277,120.53121 q 0,-3.86444 2.765549,-6.57505 2.765544,-2.7106 6.739884,-2.7106 3.99264,0 6.77651,2.72892 2.74723,2.72892 2.74723,6.70325 0,4.01096 -2.76555,6.72156 -2.78386,2.69229 -6.83145,2.69229 -4.01096,0 -6.721569,-2.74723 -2.710604,-2.71061 -2.710604,-6.81314 z m 4.212425,0.0733 q 0,2.67397 1.428558,4.23074 1.4652,1.57508 3.86445,1.57508 2.41756,0 3.86444,-1.55677 1.44687,-1.55676 1.44687,-4.15748 0,-2.60071 -1.44687,-4.15748 -1.46519,-1.57508 -3.86444,-1.57508 -2.36263,0 -3.82782,1.57508 -1.465188,1.57508 -1.465188,4.06591 z"
         id="path1676" />
    </g>
    <g
       aria-label="Choc"
       id="text5771-3-9"
       style="font-weight:500;font-size:37.5089px;font-family:Futura;-inkscape-font-specification:'Futura, Medium';text-align:end;letter-spacing:-0.370417px;text-anchor:end;stroke-width:9.3772;stroke-linecap:round">
      <path
         d="m 140.66022,102.96928 v 5.05491 q -3.6996,-3.09521 -7.65562,-3.09521 -4.35894,0 -7.34427,3.13184 -3.00364,3.11353 -3.00364,7.619 0,4.45052 3.00364,7.5091 3.00364,3.05859 7.36258,3.05859 2.25274,0 3.82782,-0.73259 0.87911,-0.3663 1.81317,-0.98901 0.95238,-0.62271 1.99632,-1.50182 v 5.14648 q -3.66297,2.06959 -7.69225,2.06959 -6.06223,0 -10.34791,-4.23074 -4.26737,-4.26737 -4.26737,-10.29297 0,-5.4029 3.5714,-9.63364 4.39557,-5.18311 11.37355,-5.18311 3.8095,0 7.36258,2.06958 z"
         id="path1687" />
      <path
         d="m 144.88685,98.793487 h 4.12085 v 14.578653 q 2.19778,-1.97801 4.85344,-1.97801 3.02196,0 4.83513,1.9597 1.53846,1.70328 1.53846,5.43952 v 10.93399 h -4.12086 v -10.54938 q 0,-2.14284 -0.76922,-3.09521 -0.75091,-0.97069 -2.43588,-0.97069 -2.16116,0 -3.04027,1.33698 -0.8608,1.35531 -0.8608,4.65199 v 8.62631 h -4.12085 z"
         id="path1689" />
      <path
         d="m 164.24157,120.67978 q 0,-3.86444 2.76555,-6.57504 2.76555,-2.71061 6.73988,-2.71061 3.99264,0 6.77651,2.72892 2.74723,2.72892 2.74723,6.70325 0,4.01096 -2.76555,6.72157 -2.78386,2.69229 -6.83145,2.69229 -4.01096,0 -6.72157,-2.74724 -2.7106,-2.7106 -2.7106,-6.81314 z m 4.21242,0.0733 q 0,2.67398 1.42857,4.23074 1.46519,1.57508 3.86444,1.57508 2.41756,0 3.86444,-1.55676 1.44688,-1.55677 1.44688,-4.15748 0,-2.60072 -1.44688,-4.15748 -1.46519,-1.57508 -3.86444,-1.57508 -2.36262,0 -3.82781,1.57508 -1.4652,1.57508 -1.4652,4.0659 z"
         id="path1691" />
      <path
         d="m 201.14196,112.65786 v 5.47615 q -1.41025,-1.7216 -2.52746,-2.36262 -1.09889,-0.65933 -2.5824,-0.65933 -2.32599,0 -3.86444,1.63002 -1.53845,1.63003 -1.53845,4.08422 0,2.50914 1.4835,4.12085 1.50182,1.61171 3.82782,1.61171 1.4835,0 2.61903,-0.64102 1.09889,-0.6227 2.5824,-2.41756 v 5.43952 q -2.50915,1.30036 -5.01829,1.30036 -4.13916,0 -6.92302,-2.67398 -2.78387,-2.69229 -2.78387,-6.68493 0,-3.99265 2.82049,-6.73988 2.8205,-2.74724 6.92303,-2.74724 2.63735,0 4.98166,1.26373 z"
         id="path1693" />
    </g>
  </g>
</svg>
