<?xml version="1.0" encoding="UTF-8" standalone="no"?>
<!-- Created with Inkscape (http://www.inkscape.org/) -->

<svg
   width="51.43047mm"
   height="38.17799mm"
   viewBox="0 0 51.43047 38.17799"
   version="1.1"
   id="svg2798"
   inkscape:version="1.2 (dc2aeda, 2022-05-15)"
   sodipodi:docname="sofle-pico-choc-logo-icon-only.svg"
   xmlns:inkscape="http://www.inkscape.org/namespaces/inkscape"
   xmlns:sodipodi="http://sodipodi.sourceforge.net/DTD/sodipodi-0.dtd"
   xmlns="http://www.w3.org/2000/svg"
   xmlns:svg="http://www.w3.org/2000/svg">
  <sodipodi:namedview
     id="namedview2800"
     pagecolor="#ffffff"
     bordercolor="#000000"
     borderopacity="0.25"
     inkscape:showpageshadow="2"
     inkscape:pageopacity="0.0"
     inkscape:pagecheckerboard="0"
     inkscape:deskcolor="#d1d1d1"
     inkscape:document-units="mm"
     showgrid="false"
     inkscape:zoom="3.9482604"
     inkscape:cx="125.24503"
     inkscape:cy="135.50271"
     inkscape:window-width="2560"
     inkscape:window-height="1286"
     inkscape:window-x="1990"
     inkscape:window-y="832"
     inkscape:window-maximized="0"
     inkscape:current-layer="layer1" />
  <defs
     id="defs2795" />
  <g
     inkscape:label="Layer 1"
     inkscape:groupmode="layer"
     id="layer1"
     transform="translate(-43.977913,-72.584288)">
    <g
       id="g1782-9-8"
       transform="matrix(0.14558253,0,0,0.14558253,143.82896,9.191188)">
      <path
         id="path388-3-83"
         style="font-variation-settings:normal;fill:#000000;fill-opacity:1;stroke-width:0.683941;stroke-linecap:butt;stroke-linejoin:miter;stroke-miterlimit:4;stroke-dasharray:none;stroke-dashoffset:0;stroke-opacity:1;stop-color:#000000"
         d="m -614.03777,435.45262 c -3.80499,0.0676 -7.49958,0.55151 -10.87305,1.38086 -6.19644,-1.5092 -14.86584,-1.05148 -20.92773,0.88867 -4.25104,1.64039 -8.30452,2.20516 -11.75586,4.54492 -8.75116,1.02471 -17.29636,4.382 -24.16407,9.94141 -2.49685,2.13586 -3.9939,5.33051 -4.08789,8.61133 -0.15947,3.21885 0.43627,6.4236 1.13477,9.55078 1.36571,5.33173 3.23384,11.60243 6.53906,15.99609 -0.14224,7.62618 3.16531,17.37285 9.30469,22.83008 4.98999,18.6864 19.3081,23.49977 24.29687,25.35547 7.03259,15.62126 36.63323,16.7309 48.10157,13.0918 14.97011,-6.30895 23.73613,-14.79586 31.54492,-26.99024 6.86562,-3.89724 12.53426,-10.08043 15.26758,-17.53906 11.65987,-37.78939 -19.44886,-66.26958 -45.41211,-64.20703 -5.97892,-2.52435 -12.62711,-3.56777 -18.96875,-3.45508 z m 1.58007,12.6875 c 12.09316,-0.56389 24.6064,21.51708 22.86524,6.2793 26.1981,6.7775 39.15501,42.90289 17.16797,54.37304 -19.2187,-15.79899 -42.33665,-27.22029 -67.98438,-35.76953 32.96587,16.75652 52.1158,30.23049 62.58009,41.78907 -17.91805,27.73078 -40.815,22.81193 -54.3379,15.22851 20.12444,-6.12693 -15.68943,-7.03132 -21.17773,-19.68945 22.0501,0.71839 -7.83703,-3.46982 -9.63672,-21.31641 17.02553,-0.82244 -7.86347,-6.45423 -8.85938,-26.80859 20.01458,-14.38727 42.22697,2.24404 30.04102,-11.10352 15.37244,-5.51464 34.08817,13.14831 26.93164,-2.54883 0.79812,-0.25663 1.60394,-0.396 2.41015,-0.43359 z" />
      <path
         id="path388-8-1-81"
         style="font-variation-settings:normal;fill:#000000;fill-opacity:1;stroke-width:0.683941;stroke-linecap:butt;stroke-linejoin:miter;stroke-miterlimit:4;stroke-dasharray:none;stroke-dashoffset:0;stroke-opacity:1;stop-color:#000000"
         d="m -404.4335,435.45262 c 3.80498,0.0676 7.49957,0.55151 10.87305,1.38086 6.19644,-1.5092 14.86583,-1.05148 20.92773,0.88867 4.25104,1.64039 8.30451,2.20516 11.75586,4.54492 8.75116,1.02471 17.29635,4.382 24.16406,9.94141 2.49685,2.13586 3.99391,5.33051 4.08789,8.61133 0.15948,3.21885 -0.43626,6.4236 -1.13476,9.55078 -1.36572,5.33173 -3.23384,11.60243 -6.53907,15.99609 0.14224,7.62618 -3.16531,17.37285 -9.30468,22.83008 -4.99,18.6864 -19.3081,23.49977 -24.29688,25.35547 -7.03258,15.62126 -36.63322,16.7309 -48.10156,13.0918 -14.97011,-6.30895 -23.73613,-14.79586 -31.54492,-26.99024 -6.86562,-3.89724 -12.53426,-10.08043 -15.26758,-17.53906 -11.65987,-37.78939 19.44886,-66.26958 45.41211,-64.20703 5.97891,-2.52435 12.62711,-3.56777 18.96875,-3.45508 z m -1.58008,12.6875 c -12.09315,-0.56389 -24.6064,21.51708 -22.86523,6.2793 -26.1981,6.7775 -39.15501,42.90289 -17.16797,54.37304 19.21869,-15.79899 42.33665,-27.22029 67.98437,-35.76953 -32.96586,16.75652 -52.1158,30.23049 -62.58008,41.78907 17.91805,27.73078 40.815,22.81193 54.3379,15.22851 -20.12444,-6.12693 15.68943,-7.03132 21.17773,-19.68945 -22.0501,0.71839 7.83703,-3.46982 9.63672,-21.31641 -17.02553,-0.82244 7.86347,-6.45423 8.85937,-26.80859 -20.01457,-14.38727 -42.22697,2.24404 -30.04101,-11.10352 -15.37244,-5.51464 -34.08818,13.14831 -26.93164,-2.54883 -0.79813,-0.25663 -1.60395,-0.396 -2.41016,-0.43359 z" />
    </g>
    <g
       id="g2868"
       transform="translate(0.52916667)">
      <path
         id="rect2268-1-5"
         style="color:#000000;fill:#000000;stroke-width:0.277181;stroke-linecap:round"
         d="m 62.528821,87.354563 c -2.798911,0 -5.088871,2.28996 -5.088871,5.08888 v 0.95443 a 1.1794991,1.1794991 0 0 0 0.94036,1.13146 v 9.045727 a 1.1794991,1.1794991 0 0 0 -1.00369,1.14445 v 0.9539 c 0,2.7989 2.28995,5.08887 5.088859,5.08887 h 13.242969 c 2.79891,0 5.088868,-2.28997 5.088868,-5.08887 v -0.9539 a 1.1794991,1.1794991 0 0 0 -0.874852,-1.13958 v -9.051137 a 1.1794991,1.1794991 0 0 0 0.938193,-1.13092 v -0.95443 c 0,-2.79892 -2.289957,-5.08888 -5.08887,-5.08888 z m 0.532164,3.21898 h 12.180802 c 1.409911,0 2.510871,1.10151 2.510871,2.51141 v 12.180807 c 0,1.40991 -1.10096,2.51087 -2.510871,2.51087 H 63.060985 c -1.409905,0 -2.510865,-1.10096 -2.510865,-2.51087 V 93.084953 c 0,-1.4099 1.10096,-2.51141 2.510865,-2.51141 z" />
      <path
         style="color:#000000;fill:#000000;stroke-width:0.277181;stroke-linecap:round"
         d="m 65.059177,95.811293 a 1.235617,1.235617 0 0 0 -1.235944,1.2354 v 4.344487 a 1.235617,1.235617 0 0 0 1.235944,1.2354 1.235617,1.235617 0 0 0 1.235407,-1.2354 v -4.344487 a 1.235617,1.235617 0 0 0 -1.235407,-1.2354 z"
         id="path3124-4-3" />
      <path
         style="color:#000000;fill:#000000;stroke-width:0.277181;stroke-linecap:round"
         d="m 73.09526,95.859473 a 1.235617,1.235617 0 0 0 -1.235404,1.23595 v 4.343937 a 1.235617,1.235617 0 0 0 1.235404,1.2354 1.235617,1.235617 0 0 0 1.235402,-1.2354 v -4.343937 a 1.235617,1.235617 0 0 0 -1.235402,-1.23595 z"
         id="path3124-7-9-5" />
    </g>
  </g>
</svg>
