<?xml version="1.0" encoding="UTF-8" standalone="no"?>
<!-- Generator: Adobe Illustrator 19.2.1, SVG Export Plug-In . SVG Version: 6.00 Build 0)  -->

<svg
   inkscape:version="1.2 (dc2aeda, 2022-05-15)"
   sodipodi:docname="sofle-pico-choc-logo-OLED.svg"
   xml:space="preserve"
   viewBox="0 0 320.98819 572.75029"
   y="0px"
   x="0px"
   id="layer"
   version="1.1"
   width="320.98819"
   height="572.75031"
   inkscape:export-filename="sofle-pico-vector-logo-v5 OLED chopped.png"
   inkscape:export-xdpi="96"
   inkscape:export-ydpi="96"
   xmlns:inkscape="http://www.inkscape.org/namespaces/inkscape"
   xmlns:sodipodi="http://sodipodi.sourceforge.net/DTD/sodipodi-0.dtd"
   xmlns="http://www.w3.org/2000/svg"
   xmlns:svg="http://www.w3.org/2000/svg"><defs
   id="defs543"><linearGradient
   id="linearGradient2495"
   inkscape:swatch="solid"><stop
     style="stop-color:#000000;stop-opacity:1;"
     offset="0"
     id="stop2493" /></linearGradient>
		
		
		
		
		
		
		
		
	
			
			
		
			
			
		
		
	
	
	
	
	
</defs><sodipodi:namedview
   id="namedview541"
   pagecolor="#ffffff"
   bordercolor="#000000"
   borderopacity="0.25"
   inkscape:showpageshadow="2"
   inkscape:pageopacity="0.0"
   inkscape:pagecheckerboard="0"
   inkscape:deskcolor="#d1d1d1"
   showgrid="false"
   inkscape:zoom="0.85122702"
   inkscape:cx="22.908107"
   inkscape:cy="530.99818"
   inkscape:window-width="2560"
   inkscape:window-height="1286"
   inkscape:window-x="1990"
   inkscape:window-y="804"
   inkscape:window-maximized="0"
   inkscape:current-layer="text517" />
<style
   type="text/css"
   id="style498">
	.st0{fill:#020203;}
	.st1{fill:#6ABF4B;}
	.st2{fill:#C31C4A;}
</style>

<text
   xml:space="preserve"
   style="font-style:normal;font-variant:normal;font-weight:500;font-stretch:normal;font-size:47.7025px;font-family:Futura;-inkscape-font-specification:'Futura, Medium';font-variant-ligatures:normal;font-variant-caps:normal;font-variant-numeric:normal;font-variant-east-asian:normal;fill:#000000;stroke-width:0.496901;stop-color:#000000"
   x="167.85727"
   y="571.38416"
   id="text2771-8"><tspan
     sodipodi:role="line"
     x="167.85727"
     y="571.38416"
     style="stroke-width:0.496901"
     id="tspan2818" /></text><text
   xml:space="preserve"
   style="font-style:normal;font-variant:normal;font-weight:bold;font-stretch:normal;font-size:66.6667px;font-family:Futura;-inkscape-font-specification:'Futura, Bold';font-variant-ligatures:normal;font-variant-caps:normal;font-variant-numeric:normal;font-variant-east-asian:normal;text-align:end;text-anchor:end;fill:#000000;stop-color:#000000"
   x="268.2244"
   y="569.4574"
   id="text3046"><tspan
     sodipodi:role="line"
     id="tspan3044"
     x="268.2244"
     y="569.4574" /></text><g
   id="g1806"
   transform="translate(-9.4542186,-273.99353)"><g
     id="g1788"
     transform="matrix(0.7804802,0,0,0.7804802,284.35936,-160.28792)"><path
       d="m -279.91976,602.42097 q -5.05758,-4.10929 -10.11517,-6.00589 -5.05759,-2.05464 -9.79907,-2.05464 -6.00589,0 -9.79908,2.84489 -3.79319,2.8449 -3.79319,7.42834 0,3.16099 1.89659,5.21563 1.8966,2.05465 4.89954,3.63515 3.16099,1.42244 6.95418,2.52879 3.95124,1.10634 7.74444,2.37075 15.17275,5.05758 22.12694,13.59227 7.11224,8.37662 7.11224,21.96889 0,9.16688 -3.161,16.59521 -3.00295,7.42833 -9.00883,12.80202 -5.84784,5.21564 -14.54057,8.06052 -8.53467,3.00295 -19.4401,3.00295 -22.6011,0 -41.88314,-13.43421 l 13.27616,-24.97185 q 6.95418,6.16394 13.75032,9.16689 6.79613,3.00294 13.43422,3.00294 7.58638,0 11.22152,-3.4771 3.79319,-3.47709 3.79319,-7.90248 0,-2.68684 -0.9483,-4.58344 -0.9483,-2.05464 -3.16099,-3.63513 -2.21269,-1.73855 -5.84784,-3.161 -3.47708,-1.42245 -8.53468,-3.16099 -6.00588,-1.8966 -11.85372,-4.10929 -5.68978,-2.37075 -10.27322,-6.16393 -4.42539,-3.7932 -7.27029,-9.48298 -2.68683,-5.84784 -2.68683,-14.69862 0,-8.85078 2.84489,-15.96301 3.00294,-7.27029 8.21858,-12.32787 5.37368,-5.21564 12.96006,-8.06053 7.74444,-2.84489 17.22742,-2.84489 8.85077,0 18.4918,2.52878 9.64103,2.37075 18.49181,7.11224 z"
       id="path574"
       style="font-weight:bold;font-size:185.048px;font-family:Futura;-inkscape-font-specification:'Futura, Bold';text-align:end;text-anchor:end;stroke-width:0" /><path
       id="path576"
       d="m -206.47987,607.08309 a 43.611286,43.611286 0 0 0 -43.61133,43.61133 43.611286,43.611286 0 0 0 43.61133,43.61133 43.611286,43.611286 0 0 0 43.61132,-43.61133 43.611286,43.611286 0 0 0 -43.61132,-43.61133 z m 0.0586,24.73438 c 2.52878,0 4.90059,0.47553 7.11327,1.42383 2.31806,0.94829 4.26717,2.2653 5.84766,3.95117 1.68587,1.68586 3.00287,3.6878 3.95117,6.00586 1.05366,2.21269 1.58008,4.58253 1.58008,7.11132 0,2.63416 -0.52642,5.10968 -1.58008,7.42774 -0.9483,2.21269 -2.2653,4.16374 -3.95117,5.84961 -1.58049,1.68586 -3.5296,3.00287 -5.84766,3.95117 -2.21268,0.9483 -4.58449,1.42187 -7.11327,1.42187 -2.5288,0 -4.95148,-0.47357 -7.26954,-1.42187 -2.21269,-0.9483 -4.16179,-2.26531 -5.84766,-3.95117 -1.58049,-1.68587 -2.89751,-3.63692 -3.95117,-5.84961 -0.9483,-2.31806 -1.42383,-4.84642 -1.42383,-7.58594 0,-2.52879 0.47553,-4.89864 1.42383,-7.11133 1.05366,-2.21269 2.37068,-4.16179 3.95117,-5.84765 1.68587,-1.68587 3.63497,-3.00288 5.84766,-3.95117 2.31806,-0.9483 4.74074,-1.42383 7.26954,-1.42383 z"
       style="font-weight:bold;font-size:185.048px;font-family:Futura;-inkscape-font-specification:'Futura, Bold';text-align:end;text-anchor:end;stroke-width:0" /><path
       d="m -142.93381,610.00735 v -15.01471 q 0,-8.06053 3.31903,-15.01472 3.4771,-7.11223 9.16689,-12.32786 5.84783,-5.21564 13.43421,-8.21858 7.74443,-3.00295 16.27911,-3.00295 8.534691,0 16.121071,3.00295 7.74442,3.00294 13.43421,8.21858 5.84784,5.21563 9.16688,12.32786 3.47709,6.95419 3.47709,15.01472 v 96.09417 h -28.60698 v -96.09417 q 0,-2.84489 -1.10634,-5.37369 -0.9483,-2.68684 -2.8449,-4.74149 -1.73855,-2.05464 -4.26734,-3.31904 -2.37075,-1.26439 -5.373691,-1.26439 -3.00294,0 -5.53174,1.26439 -2.52879,1.2644 -4.26733,3.31904 -1.73855,1.8966 -2.8449,4.58344 -0.9483,2.68685 -0.9483,5.53174 v 15.01471 h 16.437171 v 23.8655 h -16.437171 v 57.21396 h -28.60697 v -57.21396 h -10.27323 v -23.8655 z"
       id="path578"
       style="font-weight:bold;font-size:185.048px;font-family:Futura;-inkscape-font-specification:'Futura, Bold';text-align:end;text-anchor:end;stroke-width:0" /><path
       d="m 22.331201,638.77239 q -1.42245,-6.00589 -5.84784,-9.64103 -4.42539,-3.63514 -10.7473801,-3.63514 -6.63808001,0 -10.90542,3.47709 -4.10929,3.47709 -5.2156299,9.79908 z m -33.50652,16.59521 q 0,18.4918 17.3854599,18.4918 9.3249201,0 14.0664101,-7.58638 h 27.65868 q -8.37662,27.81673 -41.8831501,27.81673 -10.27322,0 -18.8078999,-3.00294 -8.53468,-3.16099 -14.69862,-8.85078 -6.00588,-5.68979 -9.32492,-13.59227 -3.31905,-7.90248 -3.31905,-17.70155 0,-10.11518 3.161,-18.17571 3.16099,-8.21858 9.00883,-13.90837 5.84784,-5.68979 14.06641,-8.69273 8.3766399,-3.16099 18.8078999,-3.16099 10.2732301,0 18.4918101,3.16099 8.21859,3.00294 13.90837,8.85078 5.68978,5.84784 8.69273,14.38252 3.00294,8.37663 3.00294,18.96595 v 3.00295 z"
       id="path580"
       style="font-weight:bold;font-size:185.048px;font-family:Futura;-inkscape-font-specification:'Futura, Bold';text-align:end;text-anchor:end;stroke-width:0" /></g><g
     id="g1794"
     transform="matrix(0.7804802,0,0,0.7804802,-52.776404,-49.422122)"><path
       d="m 103.89297,643.85778 v 48.38726 H 85.911741 v -119.1546 h 20.373579 q 14.9715,0 22.6116,2.08366 7.71726,2.08367 13.58238,7.87162 10.26397,10.03244 10.26397,25.31263 0,16.3606 -10.95852,25.93002 -10.95852,9.56941 -29.55714,9.56941 z m 0,-16.6693 h 6.71402 q 24.77242,0 24.77242,-19.06165 0,-18.44426 -25.54415,-18.44426 h -5.94229 z"
       id="path591"
       style="font-weight:500;font-size:185.048px;font-family:Futura;-inkscape-font-specification:'Futura, Medium';text-align:end;text-anchor:end;stroke-width:0" /><path
       d="m 183.31013,617.07886 v 75.16618 h -17.36385 v -75.16618 z m -19.98772,-31.25493 q 0,-4.55319 3.31842,-7.87161 3.31843,-3.31843 7.94879,-3.31843 4.70753,0 8.02596,3.31843 3.31842,3.24125 3.31842,7.94878 0,4.70753 -3.31842,8.02596 -3.24125,3.31842 -7.94879,3.31842 -4.70753,0 -8.02596,-3.31842 -3.31842,-3.31843 -3.31842,-8.10313 z"
       id="path593"
       style="font-weight:500;font-size:185.048px;font-family:Futura;-inkscape-font-specification:'Futura, Medium';text-align:end;text-anchor:end;stroke-width:0" /><path
       d="m 261.80122,620.32011 v 23.07463 q -5.94232,-7.25423 -10.64986,-9.95527 -4.63034,-2.77822 -10.88133,-2.77822 -9.80089,0 -16.28343,6.86837 -6.48245,6.86837 -6.48245,17.2095 0,10.57266 6.2509,17.36385 6.32821,6.7912 16.1291,6.7912 6.25099,0 11.03575,-2.70105 4.63033,-2.62387 10.88132,-10.18679 v 22.92028 q -10.57265,5.47926 -21.14531,5.47926 -17.44099,0 -29.17129,-11.26721 -11.73022,-11.34438 -11.73022,-28.16802 0,-16.82364 11.88455,-28.39954 11.88464,-11.5759 29.1713,-11.5759 11.11287,0 20.99097,5.32491 z"
       id="path595"
       style="font-weight:500;font-size:185.048px;font-family:Futura;-inkscape-font-specification:'Futura, Medium';text-align:end;text-anchor:end;stroke-width:0" /><path
       d="m 275.07489,654.12174 q 0,-16.28343 11.65309,-27.70499 11.65309,-11.42155 28.39957,-11.42155 16.8236,0 28.5539,11.49873 11.5759,11.49872 11.5759,28.24519 0,16.90082 -11.6531,28.32237 -11.7302,11.34438 -28.7854,11.34438 -16.90078,0 -28.32233,-11.5759 -11.42163,-11.42155 -11.42163,-28.70823 z m 17.74975,0.30869 q 0,11.26721 6.01944,17.82689 6.17387,6.63685 16.28347,6.63685 10.1868,0 16.2834,-6.55968 6.0966,-6.55968 6.0966,-17.5182 0,-10.95851 -6.0966,-17.51819 -6.1738,-6.63685 -16.2834,-6.63685 -9.95527,0 -16.12913,6.63685 -6.17378,6.63685 -6.17378,17.13233 z"
       id="path597"
       style="font-weight:500;font-size:185.048px;font-family:Futura;-inkscape-font-specification:'Futura, Medium';text-align:end;text-anchor:end;stroke-width:0" /></g></g><g
   aria-label="Choc"
   id="text517"
   style="font-weight:500;font-size:122.667px;font-family:Futura;-inkscape-font-specification:'Futura, Medium';text-align:end;letter-spacing:-1.4px;text-anchor:end;stroke-width:10;stroke-linecap:round;stop-color:#000000"><path
     d="m 75.164325,237.4065 v 16.5313 q -12.098991,-10.12243 -25.036526,-10.12243 -14.255247,0 -24.018295,10.24222 -9.822943,10.18232 -9.822943,24.91673 0,14.55473 9.822943,24.55736 9.822944,10.00263 24.078191,10.00263 7.367207,0 12.518263,-2.39584 2.875008,-1.19792 5.929703,-3.23438 3.114592,-2.03647 6.528664,-4.91147 v 16.83077 q -11.979199,6.76825 -25.156318,6.76825 -19.825575,0 -33.841238,-13.83598 Q 2.2110018,298.7999 2.2110018,279.09411 q 0,-17.66931 11.6797192,-31.50529 14.375039,-16.95057 37.195414,-16.95057 12.458367,0 24.07819,6.76825 z"
     id="path2974" /><path
     d="m 88.798216,223.75021 h 13.476604 v 47.67722 q 7.18752,-6.46877 15.87243,-6.46877 9.88284,0 15.81255,6.40887 5.03126,5.57033 5.03126,17.78911 v 35.75791 h -13.4766 v -34.50009 q 0,-7.00783 -2.51563,-10.12243 -2.45574,-3.17448 -7.96617,-3.17448 -7.06772,0 -9.94273,4.3724 -2.81511,4.43231 -2.81511,15.21359 v 28.21101 H 88.798216 Z"
     id="path2976" /><path
     d="m 151.90621,295.32593 q 0,-12.63806 9.04429,-21.50266 9.0443,-8.86461 22.04173,-8.86461 13.05732,0 22.16152,8.9245 8.9844,8.92451 8.9844,21.92194 0,13.11722 -9.0443,21.98183 -9.10419,8.80471 -22.34121,8.80471 -13.11722,0 -21.98183,-8.9844 -8.8646,-8.86461 -8.8646,-22.28131 z m 13.77607,0.23958 q 0,8.74482 4.67189,13.83598 4.79168,5.15105 12.63806,5.15105 7.90627,0 12.63805,-5.09116 4.73179,-5.09116 4.73179,-13.59639 0,-8.50523 -4.73179,-13.59639 -4.79168,-5.15105 -12.63805,-5.15105 -7.72659,0 -12.51827,5.15105 -4.79168,5.15106 -4.79168,13.29691 z"
     id="path2978" /><path
     d="m 272.39456,269.09148 v 17.90891 q -4.612,-5.63023 -8.26565,-7.72659 -3.59376,-2.15625 -8.44534,-2.15625 -7.60679,0 -12.63805,5.33074 -5.03127,5.33074 -5.03127,13.35681 0,8.20575 4.85158,13.4766 4.91147,5.27084 12.51826,5.27084 4.85158,0 8.56513,-2.09636 3.59376,-2.03646 8.44534,-7.90627 v 17.78911 q -8.20575,4.25262 -16.41151,4.25262 -13.53649,0 -22.64068,-8.74482 -9.10419,-8.80471 -9.10419,-21.86204 0,-13.05732 9.22398,-22.04172 9.22398,-8.9844 22.64069,-8.9844 8.62502,0 16.29171,4.13282 z"
     id="path2980" /></g><g
   id="g2759"
   transform="matrix(1.6513193,0,0,1.6513193,356.42683,494.35043)"><g
     id="g1782-9-8"
     transform="matrix(0.55023319,0,0,0.55023319,161.54611,-336.41363)"><path
       id="path388-3-83"
       style="font-variation-settings:normal;fill:#000000;fill-opacity:1;stroke-width:0.683941;stroke-linecap:butt;stroke-linejoin:miter;stroke-miterlimit:4;stroke-dasharray:none;stroke-dashoffset:0;stroke-opacity:1;stop-color:#000000"
       d="m -614.03777,435.45262 c -3.80499,0.0676 -7.49958,0.55151 -10.87305,1.38086 -6.19644,-1.5092 -14.86584,-1.05148 -20.92773,0.88867 -4.25104,1.64039 -8.30452,2.20516 -11.75586,4.54492 -8.75116,1.02471 -17.29636,4.382 -24.16407,9.94141 -2.49685,2.13586 -3.9939,5.33051 -4.08789,8.61133 -0.15947,3.21885 0.43627,6.4236 1.13477,9.55078 1.36571,5.33173 3.23384,11.60243 6.53906,15.99609 -0.14224,7.62618 3.16531,17.37285 9.30469,22.83008 4.98999,18.6864 19.3081,23.49977 24.29687,25.35547 7.03259,15.62126 36.63323,16.7309 48.10157,13.0918 14.97011,-6.30895 23.73613,-14.79586 31.54492,-26.99024 6.86562,-3.89724 12.53426,-10.08043 15.26758,-17.53906 11.65987,-37.78939 -19.44886,-66.26958 -45.41211,-64.20703 -5.97892,-2.52435 -12.62711,-3.56777 -18.96875,-3.45508 z m 1.58007,12.6875 c 12.09316,-0.56389 24.6064,21.51708 22.86524,6.2793 26.1981,6.7775 39.15501,42.90289 17.16797,54.37304 -19.2187,-15.79899 -42.33665,-27.22029 -67.98438,-35.76953 32.96587,16.75652 52.1158,30.23049 62.58009,41.78907 -17.91805,27.73078 -40.815,22.81193 -54.3379,15.22851 20.12444,-6.12693 -15.68943,-7.03132 -21.17773,-19.68945 22.0501,0.71839 -7.83703,-3.46982 -9.63672,-21.31641 17.02553,-0.82244 -7.86347,-6.45423 -8.85938,-26.80859 20.01458,-14.38727 42.22697,2.24404 30.04102,-11.10352 15.37244,-5.51464 34.08817,13.14831 26.93164,-2.54883 0.79812,-0.25663 1.60394,-0.396 2.41015,-0.43359 z" /><path
       id="path388-8-1-81"
       style="font-variation-settings:normal;fill:#000000;fill-opacity:1;stroke-width:0.683941;stroke-linecap:butt;stroke-linejoin:miter;stroke-miterlimit:4;stroke-dasharray:none;stroke-dashoffset:0;stroke-opacity:1;stop-color:#000000"
       d="m -404.4335,435.45262 c 3.80498,0.0676 7.49957,0.55151 10.87305,1.38086 6.19644,-1.5092 14.86583,-1.05148 20.92773,0.88867 4.25104,1.64039 8.30451,2.20516 11.75586,4.54492 8.75116,1.02471 17.29635,4.382 24.16406,9.94141 2.49685,2.13586 3.99391,5.33051 4.08789,8.61133 0.15948,3.21885 -0.43626,6.4236 -1.13476,9.55078 -1.36572,5.33173 -3.23384,11.60243 -6.53907,15.99609 0.14224,7.62618 -3.16531,17.37285 -9.30468,22.83008 -4.99,18.6864 -19.3081,23.49977 -24.29688,25.35547 -7.03258,15.62126 -36.63322,16.7309 -48.10156,13.0918 -14.97011,-6.30895 -23.73613,-14.79586 -31.54492,-26.99024 -6.86562,-3.89724 -12.53426,-10.08043 -15.26758,-17.53906 -11.65987,-37.78939 19.44886,-66.26958 45.41211,-64.20703 5.97891,-2.52435 12.62711,-3.56777 18.96875,-3.45508 z m -1.58008,12.6875 c -12.09315,-0.56389 -24.6064,21.51708 -22.86523,6.2793 -26.1981,6.7775 -39.15501,42.90289 -17.16797,54.37304 19.21869,-15.79899 42.33665,-27.22029 67.98437,-35.76953 -32.96586,16.75652 -52.1158,30.23049 -62.58008,41.78907 17.91805,27.73078 40.815,22.81193 54.3379,15.22851 -20.12444,-6.12693 15.68943,-7.03132 21.17773,-19.68945 -22.0501,0.71839 7.83703,-3.46982 9.63672,-21.31641 -17.02553,-0.82244 7.86347,-6.45423 8.85937,-26.80859 -20.01457,-14.38727 -42.22697,2.24404 -30.04101,-11.10352 -15.37244,-5.51464 -34.08818,13.14831 -26.93164,-2.54883 -0.79813,-0.25663 -1.60395,-0.396 -2.41016,-0.43359 z" /></g><path
     id="rect2268-1-5"
     style="color:#000000;fill:#000000;stroke-width:1.04761;stroke-linecap:round"
     d="m -143.95146,-40.993001 c -10.57856,0 -19.23353,8.654967 -19.23353,19.233562 v 3.607295 a 4.4579494,4.4579494 0 0 0 3.55412,4.276384 v 34.188586 a 4.4579494,4.4579494 0 0 0 -3.79347,4.325481 v 3.605291 c 0,10.57852 8.65492,19.233525 19.23348,19.233525 h 50.052165 c 10.578558,0 19.233517,-8.655005 19.233517,-19.233525 v -3.605291 a 4.4579494,4.4579494 0 0 0 -3.306527,-4.307074 v -34.209034 a 4.4579494,4.4579494 0 0 0 3.545926,-4.274343 v -3.607295 c 0,-10.578595 -8.654955,-19.233562 -19.233524,-19.233562 z m 2.01133,12.166224 h 46.037677 c 5.328798,0 9.489906,4.163187 9.489906,9.491943 v 46.037708 c 0,5.328793 -4.161108,9.489902 -9.489906,9.489902 h -46.037677 c -5.32878,0 -9.48988,-4.161109 -9.48988,-9.489902 v -46.037708 c 0,-5.328756 4.1611,-9.491943 9.48988,-9.491943 z" /><path
     style="color:#000000;fill:#000000;stroke-width:1.04761;stroke-linecap:round"
     d="m -134.38791,-9.0305566 a 4.6700486,4.6700486 0 0 0 -4.67128,4.6692284 V 12.058792 a 4.6700486,4.6700486 0 0 0 4.67128,4.669228 4.6700486,4.6700486 0 0 0 4.66926,-4.669228 V -4.3613282 a 4.6700486,4.6700486 0 0 0 -4.66926,-4.6692284 z"
     id="path3124-4-3" /><path
     style="color:#000000;fill:#000000;stroke-width:1.04761;stroke-linecap:round"
     d="m -104.01531,-8.848459 a 4.6700486,4.6700486 0 0 0 -4.66924,4.6713071 V 12.240889 a 4.6700486,4.6700486 0 0 0 4.66924,4.669229 4.6700486,4.6700486 0 0 0 4.66924,-4.669229 V -4.1771519 a 4.6700486,4.6700486 0 0 0 -4.66924,-4.6713071 z"
     id="path3124-7-9-5" /></g></svg>
